%
M48
M72
T01C0.02362
T02C0.03150
T03C0.03200
T04C0.03600
T05C0.04000
T06C0.05200
T07C0.06299
%
T01
X78800Y91800
X51800Y99800
X89800Y123800
X66800Y154800
X88800Y164800
X86800Y184800
X106800Y185800
X110800Y164800
X58800Y221800
X66800Y231800
X80800Y225800
T02
X93769Y259398
X113769Y259398
X123769Y259398
X133769Y259398
T03
X186800Y251800
X196800Y251800
X206800Y251800
X216800Y251800
X226800Y251800
X236800Y251800
X112509Y34666
X102509Y34666
X82619Y28509
X82619Y18509
T04
X31800Y131800
X31800Y141800
X31800Y151800
X31800Y161800
X31800Y171800
X21800Y171800
X21800Y161800
X21800Y151800
X21800Y141800
X21800Y131800
X21800Y201800
X21800Y211800
X21800Y221800
X21800Y231800
X21800Y241800
X31800Y241800
X31800Y231800
X31800Y221800
X31800Y211800
X31800Y201800
T05
X91800Y221800
X111800Y221800
X24800Y119800
X24800Y109800
X24800Y99800
X15800Y83800
X15800Y73800
X15800Y63800
X241800Y42800
X241800Y32800
X241800Y22800
T06
X204613Y33296
X184813Y33296
T07
X36621Y36517
X52763Y18524
X64200Y36300
M30
