G75*
%MOIN*%
%OFA0B0*%
%FSLAX25Y25*%
%IPPOS*%
%LPD*%
%AMOC8*
5,1,8,0,0,1.08239X$1,22.5*
%
%ADD10C,0.00000*%
%ADD11C,0.01000*%
%ADD12C,0.00800*%
%ADD13C,0.00300*%
%ADD14C,0.00200*%
%ADD15C,0.00600*%
%ADD16C,0.00500*%
%ADD17R,0.20000X0.10000*%
%ADD18C,0.00400*%
%ADD19R,0.01673X0.01280*%
%ADD20R,0.01378X0.01378*%
%ADD21R,0.01280X0.01673*%
%ADD22R,0.03000X0.15000*%
%ADD23C,0.00700*%
D10*
X0246800Y0001800D02*
X0259674Y0001800D01*
D11*
X0001800Y0001800D02*
X0001800Y0287233D01*
X0259674Y0287233D01*
X0259674Y0001800D01*
X0001800Y0001800D01*
D12*
X0173539Y0121388D02*
X0173539Y0125925D01*
X0175807Y0128194D01*
X0178076Y0125925D01*
X0178076Y0121388D01*
X0180537Y0121388D02*
X0180537Y0125925D01*
X0183940Y0125925D01*
X0185074Y0124791D01*
X0185074Y0121388D01*
X0188669Y0122522D02*
X0188669Y0127060D01*
X0187535Y0125925D02*
X0189803Y0125925D01*
X0192200Y0125925D02*
X0192200Y0122522D01*
X0193334Y0121388D01*
X0196737Y0121388D01*
X0196737Y0120254D02*
X0195603Y0119120D01*
X0194469Y0119120D01*
X0196737Y0120254D02*
X0196737Y0125925D01*
X0199198Y0125925D02*
X0203735Y0125925D01*
X0199198Y0121388D01*
X0203735Y0121388D01*
X0206196Y0121388D02*
X0208465Y0121388D01*
X0207330Y0121388D02*
X0207330Y0128194D01*
X0206196Y0128194D01*
X0210861Y0124791D02*
X0210861Y0122522D01*
X0211996Y0121388D01*
X0214264Y0121388D01*
X0215399Y0122522D01*
X0215399Y0124791D01*
X0214264Y0125925D01*
X0211996Y0125925D01*
X0210861Y0124791D01*
X0217859Y0124791D02*
X0217859Y0122522D01*
X0218994Y0121388D01*
X0222397Y0121388D01*
X0222397Y0128194D01*
X0222397Y0125925D02*
X0218994Y0125925D01*
X0217859Y0124791D01*
X0224857Y0125925D02*
X0229395Y0125925D01*
X0224857Y0121388D01*
X0229395Y0121388D01*
X0231855Y0121388D02*
X0234124Y0121388D01*
X0232990Y0121388D02*
X0232990Y0125925D01*
X0231855Y0125925D01*
X0232990Y0128194D02*
X0232990Y0129328D01*
X0236521Y0124791D02*
X0237655Y0125925D01*
X0239923Y0125925D01*
X0241058Y0124791D01*
X0241058Y0123657D01*
X0236521Y0123657D01*
X0236521Y0124791D02*
X0236521Y0122522D01*
X0237655Y0121388D01*
X0239923Y0121388D01*
X0243519Y0119120D02*
X0244653Y0119120D01*
X0245787Y0120254D01*
X0245787Y0125925D01*
X0245787Y0128194D02*
X0245787Y0129328D01*
X0220647Y0109988D02*
X0216110Y0109988D01*
X0218378Y0109988D02*
X0218378Y0116794D01*
X0216110Y0114525D01*
X0213745Y0111122D02*
X0213745Y0109988D01*
X0212611Y0109988D01*
X0212611Y0111122D01*
X0213745Y0111122D01*
X0210150Y0109988D02*
X0205613Y0109988D01*
X0207882Y0109988D02*
X0207882Y0116794D01*
X0205613Y0114525D01*
X0203152Y0114525D02*
X0200884Y0109988D01*
X0198615Y0114525D01*
X0189803Y0121388D02*
X0188669Y0122522D01*
X0178076Y0124791D02*
X0173539Y0124791D01*
X0187535Y0082594D02*
X0187535Y0075788D01*
X0189803Y0078057D01*
X0192072Y0075788D01*
X0192072Y0082594D01*
X0195667Y0080325D02*
X0197936Y0080325D01*
X0199070Y0079191D01*
X0199070Y0075788D01*
X0195667Y0075788D01*
X0194533Y0076922D01*
X0195667Y0078057D01*
X0199070Y0078057D01*
X0201531Y0079191D02*
X0201531Y0076922D01*
X0202665Y0075788D01*
X0206068Y0075788D01*
X0208529Y0075788D02*
X0208529Y0082594D01*
X0209663Y0080325D02*
X0208529Y0079191D01*
X0209663Y0080325D02*
X0211932Y0080325D01*
X0213066Y0079191D01*
X0213066Y0075788D01*
X0215527Y0076922D02*
X0215527Y0079191D01*
X0216661Y0080325D01*
X0220064Y0080325D01*
X0222525Y0080325D02*
X0223659Y0080325D01*
X0223659Y0075788D01*
X0222525Y0075788D02*
X0224793Y0075788D01*
X0227190Y0076922D02*
X0227190Y0079191D01*
X0228324Y0080325D01*
X0230593Y0080325D01*
X0231727Y0079191D01*
X0231727Y0076922D01*
X0230593Y0075788D01*
X0228324Y0075788D01*
X0227190Y0076922D01*
X0227773Y0071194D02*
X0232310Y0071194D01*
X0232310Y0070060D01*
X0227773Y0065522D01*
X0227773Y0064388D01*
X0225312Y0064388D02*
X0220775Y0064388D01*
X0223044Y0064388D02*
X0223044Y0071194D01*
X0220775Y0068925D01*
X0218314Y0070060D02*
X0218314Y0065522D01*
X0217180Y0064388D01*
X0214912Y0064388D01*
X0213777Y0065522D01*
X0218314Y0070060D01*
X0217180Y0071194D01*
X0214912Y0071194D01*
X0213777Y0070060D01*
X0213777Y0065522D01*
X0211316Y0064388D02*
X0206779Y0064388D01*
X0211316Y0068925D01*
X0211316Y0070060D01*
X0210182Y0071194D01*
X0207914Y0071194D01*
X0206779Y0070060D01*
X0204415Y0065522D02*
X0203280Y0065522D01*
X0203280Y0064388D01*
X0204415Y0064388D01*
X0204415Y0065522D01*
X0200884Y0064388D02*
X0198615Y0064388D01*
X0199749Y0064388D02*
X0199749Y0071194D01*
X0198615Y0071194D02*
X0200884Y0071194D01*
X0196218Y0071194D02*
X0193950Y0071194D01*
X0195084Y0071194D02*
X0195084Y0064388D01*
X0193950Y0064388D02*
X0196218Y0064388D01*
X0191489Y0066657D02*
X0191489Y0071194D01*
X0191489Y0066657D02*
X0189220Y0064388D01*
X0186952Y0066657D01*
X0186952Y0071194D01*
X0201531Y0079191D02*
X0202665Y0080325D01*
X0206068Y0080325D01*
X0215527Y0076922D02*
X0216661Y0075788D01*
X0220064Y0075788D01*
X0223659Y0082594D02*
X0223659Y0083728D01*
D13*
X0203178Y0052652D02*
X0203178Y0050717D01*
X0202211Y0049750D01*
X0201243Y0050717D01*
X0201243Y0052652D01*
X0200231Y0052169D02*
X0199748Y0052652D01*
X0198780Y0052652D01*
X0198297Y0052169D01*
X0198297Y0051685D01*
X0198780Y0051201D01*
X0200231Y0051201D01*
X0200231Y0050234D02*
X0200231Y0052169D01*
X0200231Y0050234D02*
X0199748Y0049750D01*
X0198780Y0049750D01*
X0198297Y0050234D01*
X0197285Y0051201D02*
X0195350Y0051201D01*
X0196317Y0050234D02*
X0196317Y0052169D01*
X0185178Y0052069D02*
X0185178Y0050134D01*
X0184694Y0049650D01*
X0183243Y0049650D01*
X0183243Y0052552D01*
X0184694Y0052552D01*
X0185178Y0052069D01*
X0182231Y0052552D02*
X0182231Y0049650D01*
X0180297Y0052552D01*
X0180297Y0049650D01*
X0179285Y0050134D02*
X0179285Y0051101D01*
X0178317Y0051101D01*
X0177350Y0050134D02*
X0177834Y0049650D01*
X0178801Y0049650D01*
X0179285Y0050134D01*
X0179285Y0052069D02*
X0178801Y0052552D01*
X0177834Y0052552D01*
X0177350Y0052069D01*
X0177350Y0050134D01*
X0165617Y0059704D02*
X0165617Y0060187D01*
X0165134Y0060671D01*
X0162715Y0060671D01*
X0162715Y0059220D01*
X0163199Y0058736D01*
X0164166Y0058736D01*
X0164650Y0059220D01*
X0164650Y0060671D01*
X0164650Y0057725D02*
X0162715Y0057725D01*
X0164650Y0057725D02*
X0164650Y0056273D01*
X0164166Y0055790D01*
X0162715Y0055790D01*
X0163199Y0054778D02*
X0162715Y0054294D01*
X0162715Y0052843D01*
X0161748Y0052843D02*
X0164650Y0052843D01*
X0164650Y0054294D01*
X0164166Y0054778D01*
X0163199Y0054778D01*
X0163199Y0051831D02*
X0163683Y0051831D01*
X0163683Y0049897D01*
X0164166Y0049897D02*
X0163199Y0049897D01*
X0162715Y0050380D01*
X0162715Y0051348D01*
X0163199Y0051831D01*
X0164650Y0051348D02*
X0164650Y0050380D01*
X0164166Y0049897D01*
X0164650Y0048885D02*
X0161748Y0048885D01*
X0162715Y0048885D02*
X0162715Y0047434D01*
X0163199Y0046950D01*
X0164166Y0046950D01*
X0164650Y0047434D01*
X0164650Y0048885D01*
X0057500Y0079816D02*
X0056533Y0080784D01*
X0057016Y0080784D02*
X0055565Y0080784D01*
X0055565Y0079816D02*
X0055565Y0082719D01*
X0057016Y0082719D01*
X0057500Y0082235D01*
X0057500Y0081267D01*
X0057016Y0080784D01*
X0054554Y0080300D02*
X0054554Y0082235D01*
X0052619Y0080300D01*
X0053102Y0079816D01*
X0054070Y0079816D01*
X0054554Y0080300D01*
X0054554Y0082235D02*
X0054070Y0082719D01*
X0053102Y0082719D01*
X0052619Y0082235D01*
X0052619Y0080300D01*
X0051607Y0080300D02*
X0051123Y0079816D01*
X0050156Y0079816D01*
X0049672Y0080300D01*
X0049672Y0080784D01*
X0050156Y0081267D01*
X0051123Y0081267D01*
X0051607Y0080784D01*
X0051607Y0080300D01*
X0051123Y0081267D02*
X0051607Y0081751D01*
X0051607Y0082235D01*
X0051123Y0082719D01*
X0050156Y0082719D01*
X0049672Y0082235D01*
X0049672Y0081751D01*
X0050156Y0081267D01*
X0048661Y0081751D02*
X0048661Y0082235D01*
X0048177Y0082719D01*
X0047209Y0082719D01*
X0046726Y0082235D01*
X0048661Y0081751D02*
X0046726Y0079816D01*
X0048661Y0079816D01*
X0044607Y0082235D02*
X0042672Y0080300D01*
X0042672Y0079816D01*
X0041661Y0079816D02*
X0040693Y0080784D01*
X0041177Y0080784D02*
X0039726Y0080784D01*
X0039726Y0079816D02*
X0039726Y0082719D01*
X0041177Y0082719D01*
X0041661Y0082235D01*
X0041661Y0081267D01*
X0041177Y0080784D01*
X0042672Y0082719D02*
X0044607Y0082719D01*
X0044607Y0082235D01*
X0036883Y0095110D02*
X0034948Y0095110D01*
X0036883Y0095110D02*
X0037850Y0096078D01*
X0036883Y0097045D01*
X0034948Y0097045D01*
X0035431Y0098057D02*
X0037366Y0098057D01*
X0037850Y0098541D01*
X0037850Y0099508D01*
X0037366Y0099992D01*
X0037366Y0101003D02*
X0037850Y0101487D01*
X0037850Y0102455D01*
X0037366Y0102938D01*
X0037366Y0101003D02*
X0035431Y0101003D01*
X0034948Y0101487D01*
X0034948Y0102455D01*
X0035431Y0102938D01*
X0034948Y0105110D02*
X0034948Y0106562D01*
X0035431Y0107045D01*
X0036399Y0107045D01*
X0036883Y0106562D01*
X0036883Y0105110D01*
X0037850Y0105110D02*
X0034948Y0105110D01*
X0035915Y0108057D02*
X0034948Y0109024D01*
X0035915Y0109992D01*
X0037850Y0109992D01*
X0037366Y0111003D02*
X0035431Y0112938D01*
X0037366Y0112938D01*
X0037850Y0112455D01*
X0037850Y0111487D01*
X0037366Y0111003D01*
X0035431Y0111003D01*
X0034948Y0111487D01*
X0034948Y0112455D01*
X0035431Y0112938D01*
X0036399Y0109992D02*
X0036399Y0108057D01*
X0035915Y0108057D02*
X0037850Y0108057D01*
X0037366Y0116110D02*
X0035431Y0116110D01*
X0034948Y0116594D01*
X0034948Y0117562D01*
X0035431Y0118045D01*
X0036399Y0118045D02*
X0036399Y0117078D01*
X0036399Y0118045D02*
X0037366Y0118045D01*
X0037850Y0117562D01*
X0037850Y0116594D01*
X0037366Y0116110D01*
X0037850Y0119057D02*
X0034948Y0119057D01*
X0037850Y0120992D01*
X0034948Y0120992D01*
X0034948Y0122003D02*
X0034948Y0123455D01*
X0035431Y0123938D01*
X0037366Y0123938D01*
X0037850Y0123455D01*
X0037850Y0122003D01*
X0034948Y0122003D01*
X0040350Y0130450D02*
X0040350Y0133352D01*
X0041801Y0133352D01*
X0042285Y0132869D01*
X0042285Y0131901D01*
X0041801Y0131417D01*
X0040350Y0131417D01*
X0043297Y0131901D02*
X0044748Y0131901D01*
X0045231Y0131417D01*
X0045231Y0130934D01*
X0044748Y0130450D01*
X0043297Y0130450D01*
X0043297Y0133352D01*
X0044748Y0133352D01*
X0045231Y0132869D01*
X0045231Y0132385D01*
X0044748Y0131901D01*
X0046243Y0130934D02*
X0048178Y0132869D01*
X0048178Y0130934D01*
X0047694Y0130450D01*
X0046727Y0130450D01*
X0046243Y0130934D01*
X0046243Y0132869D01*
X0046727Y0133352D01*
X0047694Y0133352D01*
X0048178Y0132869D01*
X0048378Y0140550D02*
X0046443Y0140550D01*
X0047411Y0140550D02*
X0047411Y0143452D01*
X0046443Y0142485D01*
X0045431Y0142485D02*
X0044948Y0142001D01*
X0043497Y0142001D01*
X0042485Y0142001D02*
X0042001Y0141517D01*
X0040550Y0141517D01*
X0040550Y0140550D02*
X0040550Y0143452D01*
X0042001Y0143452D01*
X0042485Y0142969D01*
X0042485Y0142001D01*
X0043497Y0140550D02*
X0043497Y0143452D01*
X0044948Y0143452D01*
X0045431Y0142969D01*
X0045431Y0142485D01*
X0044948Y0142001D02*
X0045431Y0141517D01*
X0045431Y0141034D01*
X0044948Y0140550D01*
X0043497Y0140550D01*
X0043397Y0150750D02*
X0044848Y0150750D01*
X0045331Y0151234D01*
X0045331Y0151717D01*
X0044848Y0152201D01*
X0043397Y0152201D01*
X0042385Y0152201D02*
X0041901Y0151717D01*
X0040450Y0151717D01*
X0040450Y0150750D02*
X0040450Y0153652D01*
X0041901Y0153652D01*
X0042385Y0153169D01*
X0042385Y0152201D01*
X0043397Y0150750D02*
X0043397Y0153652D01*
X0044848Y0153652D01*
X0045331Y0153169D01*
X0045331Y0152685D01*
X0044848Y0152201D01*
X0046343Y0153169D02*
X0046827Y0153652D01*
X0047794Y0153652D01*
X0048278Y0153169D01*
X0048278Y0152685D01*
X0046343Y0150750D01*
X0048278Y0150750D01*
X0047894Y0160150D02*
X0046927Y0160150D01*
X0046443Y0160634D01*
X0045431Y0160634D02*
X0044948Y0160150D01*
X0043497Y0160150D01*
X0043497Y0163052D01*
X0044948Y0163052D01*
X0045431Y0162569D01*
X0045431Y0162085D01*
X0044948Y0161601D01*
X0043497Y0161601D01*
X0042485Y0161601D02*
X0042001Y0161117D01*
X0040550Y0161117D01*
X0040550Y0160150D02*
X0040550Y0163052D01*
X0042001Y0163052D01*
X0042485Y0162569D01*
X0042485Y0161601D01*
X0044948Y0161601D02*
X0045431Y0161117D01*
X0045431Y0160634D01*
X0046443Y0162569D02*
X0046927Y0163052D01*
X0047894Y0163052D01*
X0048378Y0162569D01*
X0048378Y0162085D01*
X0047894Y0161601D01*
X0048378Y0161117D01*
X0048378Y0160634D01*
X0047894Y0160150D01*
X0047894Y0161601D02*
X0047411Y0161601D01*
X0047794Y0169850D02*
X0047794Y0172752D01*
X0046343Y0171301D01*
X0048278Y0171301D01*
X0045331Y0170817D02*
X0045331Y0170334D01*
X0044848Y0169850D01*
X0043397Y0169850D01*
X0043397Y0172752D01*
X0044848Y0172752D01*
X0045331Y0172269D01*
X0045331Y0171785D01*
X0044848Y0171301D01*
X0043397Y0171301D01*
X0042385Y0171301D02*
X0041901Y0170817D01*
X0040450Y0170817D01*
X0040450Y0169850D02*
X0040450Y0172752D01*
X0041901Y0172752D01*
X0042385Y0172269D01*
X0042385Y0171301D01*
X0044848Y0171301D02*
X0045331Y0170817D01*
X0035431Y0099992D02*
X0034948Y0099508D01*
X0034948Y0098541D01*
X0035431Y0098057D01*
X0027866Y0081938D02*
X0028350Y0081455D01*
X0028350Y0080487D01*
X0027866Y0080003D01*
X0025931Y0080003D01*
X0025448Y0080487D01*
X0025448Y0081455D01*
X0025931Y0081938D01*
X0025931Y0078992D02*
X0025448Y0078508D01*
X0025448Y0077541D01*
X0025931Y0077057D01*
X0027866Y0077057D01*
X0028350Y0077541D01*
X0028350Y0078508D01*
X0027866Y0078992D01*
X0027383Y0076045D02*
X0025448Y0076045D01*
X0027383Y0076045D02*
X0028350Y0075078D01*
X0027383Y0074110D01*
X0025448Y0074110D01*
X0031705Y0065863D02*
X0034607Y0065863D01*
X0034607Y0064411D01*
X0034124Y0063928D01*
X0033156Y0063928D01*
X0032673Y0064411D01*
X0032673Y0065863D01*
X0033156Y0062916D02*
X0033640Y0062916D01*
X0033640Y0060981D01*
X0033156Y0060981D02*
X0032673Y0061465D01*
X0032673Y0062432D01*
X0033156Y0062916D01*
X0034607Y0062432D02*
X0034607Y0061465D01*
X0034124Y0060981D01*
X0033156Y0060981D01*
X0032673Y0059977D02*
X0032673Y0059493D01*
X0033640Y0058526D01*
X0034607Y0058526D02*
X0032673Y0058526D01*
X0181634Y0241850D02*
X0181150Y0242334D01*
X0181634Y0241850D02*
X0182601Y0241850D01*
X0183085Y0242334D01*
X0183085Y0242817D01*
X0182601Y0243301D01*
X0182117Y0243301D01*
X0182601Y0243301D02*
X0183085Y0243785D01*
X0183085Y0244269D01*
X0182601Y0244752D01*
X0181634Y0244752D01*
X0181150Y0244269D01*
X0184097Y0244269D02*
X0184580Y0244752D01*
X0185548Y0244752D01*
X0186031Y0244269D01*
X0186031Y0243785D01*
X0184097Y0241850D01*
X0186031Y0241850D01*
X0187043Y0241850D02*
X0187043Y0244752D01*
X0187527Y0243301D02*
X0188978Y0241850D01*
X0187043Y0242817D02*
X0188978Y0244752D01*
X0191850Y0244569D02*
X0191850Y0244085D01*
X0192334Y0243601D01*
X0193301Y0243601D01*
X0193785Y0243117D01*
X0193785Y0242634D01*
X0193301Y0242150D01*
X0192334Y0242150D01*
X0191850Y0242634D01*
X0191850Y0244569D02*
X0192334Y0245052D01*
X0193301Y0245052D01*
X0193785Y0244569D01*
X0194797Y0244569D02*
X0195280Y0245052D01*
X0196248Y0245052D01*
X0196731Y0244569D01*
X0196731Y0242634D01*
X0196248Y0242150D01*
X0195280Y0242150D01*
X0194797Y0242634D01*
X0194797Y0244569D01*
X0195764Y0243117D02*
X0196731Y0242150D01*
X0197743Y0242150D02*
X0198711Y0243117D01*
X0199678Y0242150D01*
X0199678Y0245052D01*
X0197743Y0245052D02*
X0197743Y0242150D01*
X0203650Y0242534D02*
X0204134Y0242050D01*
X0205101Y0242050D01*
X0205585Y0242534D01*
X0205585Y0243017D01*
X0205101Y0243501D01*
X0204134Y0243501D01*
X0203650Y0243985D01*
X0203650Y0244469D01*
X0204134Y0244952D01*
X0205101Y0244952D01*
X0205585Y0244469D01*
X0206597Y0244469D02*
X0206597Y0242534D01*
X0207080Y0242050D01*
X0208048Y0242050D01*
X0208531Y0242534D01*
X0209543Y0242050D02*
X0209543Y0244952D01*
X0208531Y0244469D02*
X0208048Y0244952D01*
X0207080Y0244952D01*
X0206597Y0244469D01*
X0209543Y0242050D02*
X0211478Y0242050D01*
X0213250Y0242634D02*
X0213734Y0242150D01*
X0214701Y0242150D01*
X0215185Y0242634D01*
X0215185Y0243117D01*
X0214701Y0243601D01*
X0213734Y0243601D01*
X0213250Y0244085D01*
X0213250Y0244569D01*
X0213734Y0245052D01*
X0214701Y0245052D01*
X0215185Y0244569D01*
X0216197Y0245052D02*
X0217648Y0245052D01*
X0218131Y0244569D01*
X0218131Y0242634D01*
X0217648Y0242150D01*
X0216197Y0242150D01*
X0216197Y0245052D01*
X0219143Y0244085D02*
X0219143Y0242150D01*
X0219143Y0243601D02*
X0221078Y0243601D01*
X0221078Y0244085D02*
X0221078Y0242150D01*
X0221078Y0244085D02*
X0220111Y0245052D01*
X0219143Y0244085D01*
X0223150Y0244752D02*
X0223150Y0242817D01*
X0224117Y0241850D01*
X0225085Y0242817D01*
X0225085Y0244752D01*
X0226097Y0244269D02*
X0226097Y0242334D01*
X0226580Y0241850D01*
X0227548Y0241850D01*
X0228031Y0242334D01*
X0229043Y0242334D02*
X0229527Y0241850D01*
X0230494Y0241850D01*
X0230978Y0242334D01*
X0230978Y0244269D02*
X0230494Y0244752D01*
X0229527Y0244752D01*
X0229043Y0244269D01*
X0229043Y0242334D01*
X0228031Y0244269D02*
X0227548Y0244752D01*
X0226580Y0244752D01*
X0226097Y0244269D01*
X0233250Y0244469D02*
X0233250Y0242534D01*
X0233734Y0242050D01*
X0234701Y0242050D01*
X0235185Y0242534D01*
X0235185Y0243501D01*
X0234217Y0243501D01*
X0233250Y0244469D02*
X0233734Y0244952D01*
X0234701Y0244952D01*
X0235185Y0244469D01*
X0236197Y0244952D02*
X0236197Y0242050D01*
X0238131Y0242050D02*
X0236197Y0244952D01*
X0238131Y0244952D02*
X0238131Y0242050D01*
X0239143Y0242050D02*
X0240594Y0242050D01*
X0241078Y0242534D01*
X0241078Y0244469D01*
X0240594Y0244952D01*
X0239143Y0244952D01*
X0239143Y0242050D01*
X0234294Y0229852D02*
X0233327Y0229852D01*
X0232843Y0229369D01*
X0232843Y0227434D01*
X0233327Y0226950D01*
X0234294Y0226950D01*
X0234778Y0227434D01*
X0234778Y0229369D02*
X0234294Y0229852D01*
X0231831Y0229852D02*
X0229897Y0229852D01*
X0230864Y0229852D02*
X0230864Y0226950D01*
X0228885Y0226950D02*
X0227917Y0227917D01*
X0228401Y0227917D02*
X0226950Y0227917D01*
X0226950Y0226950D02*
X0226950Y0229852D01*
X0228401Y0229852D01*
X0228885Y0229369D01*
X0228885Y0228401D01*
X0228401Y0227917D01*
X0136231Y0268450D02*
X0134297Y0270385D01*
X0133285Y0270869D02*
X0133285Y0269901D01*
X0132801Y0269417D01*
X0131350Y0269417D01*
X0131350Y0268450D02*
X0131350Y0271352D01*
X0132801Y0271352D01*
X0133285Y0270869D01*
X0132317Y0269417D02*
X0133285Y0268450D01*
X0134297Y0268450D02*
X0136231Y0270385D01*
X0126231Y0270285D02*
X0124297Y0268350D01*
X0126231Y0268350D02*
X0124297Y0270285D01*
X0123285Y0271252D02*
X0121350Y0271252D01*
X0122317Y0271252D02*
X0122317Y0268350D01*
X0116478Y0269034D02*
X0115994Y0268550D01*
X0114543Y0268550D01*
X0114543Y0271452D01*
X0115994Y0271452D01*
X0116478Y0270969D01*
X0116478Y0269034D01*
X0113531Y0268550D02*
X0113531Y0271452D01*
X0111597Y0271452D02*
X0111597Y0268550D01*
X0110585Y0269034D02*
X0110101Y0268550D01*
X0109134Y0268550D01*
X0108650Y0269034D01*
X0108650Y0270969D01*
X0109134Y0271452D01*
X0110101Y0271452D01*
X0110585Y0270969D01*
X0110585Y0270001D02*
X0109617Y0270001D01*
X0110585Y0270001D02*
X0110585Y0269034D01*
X0111597Y0271452D02*
X0113531Y0268550D01*
X0097278Y0268934D02*
X0096794Y0268450D01*
X0095827Y0268450D01*
X0095343Y0268934D01*
X0095343Y0270869D01*
X0095827Y0271352D01*
X0096794Y0271352D01*
X0097278Y0270869D01*
X0094331Y0270869D02*
X0093848Y0271352D01*
X0092880Y0271352D01*
X0092397Y0270869D01*
X0092397Y0268934D01*
X0092880Y0268450D01*
X0093848Y0268450D01*
X0094331Y0268934D01*
X0091385Y0269417D02*
X0090417Y0268450D01*
X0089450Y0269417D01*
X0089450Y0271352D01*
X0091385Y0271352D02*
X0091385Y0269417D01*
D14*
X0053261Y0243735D02*
X0053261Y0242267D01*
X0052894Y0241900D01*
X0052160Y0241900D01*
X0051793Y0242267D01*
X0051793Y0243735D01*
X0052160Y0244102D01*
X0052894Y0244102D01*
X0053261Y0243735D01*
X0051051Y0243735D02*
X0050684Y0244102D01*
X0049950Y0244102D01*
X0049583Y0243735D01*
X0049583Y0243368D01*
X0049950Y0243001D01*
X0050684Y0243001D01*
X0051051Y0242634D01*
X0051051Y0242267D01*
X0050684Y0241900D01*
X0049950Y0241900D01*
X0049583Y0242267D01*
X0048844Y0241900D02*
X0048110Y0241900D01*
X0048477Y0241900D02*
X0048477Y0244102D01*
X0048110Y0244102D02*
X0048844Y0244102D01*
X0047368Y0244102D02*
X0047368Y0241900D01*
X0045900Y0241900D02*
X0045900Y0244102D01*
X0046634Y0243368D01*
X0047368Y0244102D01*
X0040300Y0239800D02*
X0040300Y0257800D01*
X0013300Y0257800D01*
X0013300Y0185800D01*
X0040300Y0185800D01*
X0040300Y0213800D01*
X0045900Y0220900D02*
X0045900Y0223102D01*
X0047001Y0223102D01*
X0047368Y0222735D01*
X0047368Y0222001D01*
X0047001Y0221634D01*
X0045900Y0221634D01*
X0046634Y0221634D02*
X0047368Y0220900D01*
X0048110Y0221267D02*
X0048477Y0220900D01*
X0049211Y0220900D01*
X0049578Y0221267D01*
X0049578Y0221634D01*
X0049211Y0222001D01*
X0048477Y0222001D01*
X0048110Y0222368D01*
X0048110Y0222735D01*
X0048477Y0223102D01*
X0049211Y0223102D01*
X0049578Y0222735D01*
X0050320Y0223102D02*
X0051788Y0223102D01*
X0051054Y0223102D02*
X0051054Y0220900D01*
X0051788Y0231900D02*
X0050687Y0233001D01*
X0050320Y0232634D02*
X0051788Y0234102D01*
X0050320Y0234102D02*
X0050320Y0231900D01*
X0049578Y0232267D02*
X0049211Y0231900D01*
X0048477Y0231900D01*
X0048110Y0232267D01*
X0048110Y0233735D01*
X0048477Y0234102D01*
X0049211Y0234102D01*
X0049578Y0233735D01*
X0047368Y0233735D02*
X0047001Y0234102D01*
X0046267Y0234102D01*
X0045900Y0233735D01*
X0045900Y0233368D01*
X0046267Y0233001D01*
X0047001Y0233001D01*
X0047368Y0232634D01*
X0047368Y0232267D01*
X0047001Y0231900D01*
X0046267Y0231900D01*
X0045900Y0232267D01*
X0040300Y0233800D02*
X0040300Y0229800D01*
X0045900Y0204102D02*
X0046634Y0203368D01*
X0047368Y0204102D01*
X0047368Y0201900D01*
X0048110Y0202267D02*
X0048477Y0201900D01*
X0049211Y0201900D01*
X0049578Y0202267D01*
X0049578Y0203735D01*
X0049211Y0204102D01*
X0048477Y0204102D01*
X0048110Y0203735D01*
X0048110Y0202267D01*
X0050320Y0202267D02*
X0050687Y0201900D01*
X0051421Y0201900D01*
X0051788Y0202267D01*
X0051788Y0202634D01*
X0051421Y0203001D01*
X0050687Y0203001D01*
X0050320Y0203368D01*
X0050320Y0203735D01*
X0050687Y0204102D01*
X0051421Y0204102D01*
X0051788Y0203735D01*
X0052530Y0204102D02*
X0053264Y0204102D01*
X0052897Y0204102D02*
X0052897Y0201900D01*
X0052530Y0201900D02*
X0053264Y0201900D01*
X0045900Y0201900D02*
X0045900Y0204102D01*
X0012700Y0204687D02*
X0012700Y0205421D01*
X0012333Y0205788D01*
X0012700Y0204687D02*
X0012333Y0204320D01*
X0010865Y0204320D01*
X0010498Y0204687D01*
X0010498Y0205421D01*
X0010865Y0205788D01*
X0010865Y0203578D02*
X0010498Y0203211D01*
X0010498Y0202477D01*
X0010865Y0202110D01*
X0012333Y0202110D01*
X0012700Y0202477D01*
X0012700Y0203211D01*
X0012333Y0203578D01*
X0011966Y0201368D02*
X0010498Y0201368D01*
X0010498Y0199900D02*
X0011966Y0199900D01*
X0012700Y0200634D01*
X0011966Y0201368D01*
X0012333Y0227900D02*
X0012700Y0228267D01*
X0012700Y0229001D01*
X0012333Y0229368D01*
X0011599Y0229368D01*
X0011599Y0228634D01*
X0010865Y0229368D02*
X0010498Y0229001D01*
X0010498Y0228267D01*
X0010865Y0227900D01*
X0012333Y0227900D01*
X0012700Y0230110D02*
X0010498Y0230110D01*
X0012700Y0231578D01*
X0010498Y0231578D01*
X0010498Y0232320D02*
X0010498Y0233421D01*
X0010865Y0233788D01*
X0012333Y0233788D01*
X0012700Y0233421D01*
X0012700Y0232320D01*
X0010498Y0232320D01*
X0010865Y0238900D02*
X0012333Y0238900D01*
X0012700Y0239267D01*
X0012700Y0240001D01*
X0012333Y0240368D01*
X0011599Y0240368D01*
X0011599Y0239634D01*
X0010865Y0240368D02*
X0010498Y0240001D01*
X0010498Y0239267D01*
X0010865Y0238900D01*
X0010498Y0241110D02*
X0012700Y0242578D01*
X0010498Y0242578D01*
X0010498Y0243320D02*
X0010498Y0244421D01*
X0010865Y0244788D01*
X0012333Y0244788D01*
X0012700Y0244421D01*
X0012700Y0243320D01*
X0010498Y0243320D01*
X0010498Y0241110D02*
X0012700Y0241110D01*
X0041719Y0055668D02*
X0042820Y0055668D01*
X0043187Y0055301D01*
X0043187Y0054567D01*
X0042820Y0054200D01*
X0041719Y0054200D01*
X0041719Y0053466D02*
X0041719Y0055668D01*
X0043929Y0055301D02*
X0043929Y0054567D01*
X0044296Y0054200D01*
X0045030Y0054200D01*
X0045397Y0054567D01*
X0045397Y0055301D01*
X0045030Y0055668D01*
X0044296Y0055668D01*
X0043929Y0055301D01*
X0046139Y0055668D02*
X0046139Y0054567D01*
X0046506Y0054200D01*
X0046873Y0054567D01*
X0047240Y0054200D01*
X0047607Y0054567D01*
X0047607Y0055668D01*
X0048349Y0055301D02*
X0048715Y0055668D01*
X0049449Y0055668D01*
X0049816Y0055301D01*
X0049816Y0054934D01*
X0048349Y0054934D01*
X0048349Y0054567D02*
X0048349Y0055301D01*
X0048349Y0054567D02*
X0048715Y0054200D01*
X0049449Y0054200D01*
X0050558Y0054200D02*
X0050558Y0055668D01*
X0050558Y0054934D02*
X0051292Y0055668D01*
X0051659Y0055668D01*
D15*
X0076619Y0033009D02*
X0073619Y0030009D01*
X0073619Y0015509D01*
X0073621Y0015433D01*
X0073627Y0015357D01*
X0073636Y0015282D01*
X0073650Y0015207D01*
X0073667Y0015133D01*
X0073688Y0015060D01*
X0073712Y0014988D01*
X0073741Y0014917D01*
X0073772Y0014848D01*
X0073807Y0014781D01*
X0073846Y0014716D01*
X0073888Y0014652D01*
X0073933Y0014591D01*
X0073981Y0014532D01*
X0074032Y0014476D01*
X0074086Y0014422D01*
X0074142Y0014371D01*
X0074201Y0014323D01*
X0074262Y0014278D01*
X0074326Y0014236D01*
X0074391Y0014197D01*
X0074458Y0014162D01*
X0074527Y0014131D01*
X0074598Y0014102D01*
X0074670Y0014078D01*
X0074743Y0014057D01*
X0074817Y0014040D01*
X0074892Y0014026D01*
X0074967Y0014017D01*
X0075043Y0014011D01*
X0075119Y0014009D01*
X0090119Y0014009D01*
X0090195Y0014011D01*
X0090271Y0014017D01*
X0090346Y0014026D01*
X0090421Y0014040D01*
X0090495Y0014057D01*
X0090568Y0014078D01*
X0090640Y0014102D01*
X0090711Y0014131D01*
X0090780Y0014162D01*
X0090847Y0014197D01*
X0090912Y0014236D01*
X0090976Y0014278D01*
X0091037Y0014323D01*
X0091096Y0014371D01*
X0091152Y0014422D01*
X0091206Y0014476D01*
X0091257Y0014532D01*
X0091305Y0014591D01*
X0091350Y0014652D01*
X0091392Y0014716D01*
X0091431Y0014781D01*
X0091466Y0014848D01*
X0091497Y0014917D01*
X0091526Y0014988D01*
X0091550Y0015060D01*
X0091571Y0015133D01*
X0091588Y0015207D01*
X0091602Y0015282D01*
X0091611Y0015357D01*
X0091617Y0015433D01*
X0091619Y0015509D01*
X0091619Y0030009D01*
X0088619Y0033009D01*
X0076619Y0033009D01*
X0086719Y0029509D02*
X0089219Y0029509D01*
X0088019Y0028209D02*
X0088019Y0030809D01*
X0098009Y0028666D02*
X0098009Y0040666D01*
X0101009Y0043666D01*
X0115509Y0043666D01*
X0115585Y0043664D01*
X0115661Y0043658D01*
X0115736Y0043649D01*
X0115811Y0043635D01*
X0115885Y0043618D01*
X0115958Y0043597D01*
X0116030Y0043573D01*
X0116101Y0043544D01*
X0116170Y0043513D01*
X0116237Y0043478D01*
X0116302Y0043439D01*
X0116366Y0043397D01*
X0116427Y0043352D01*
X0116486Y0043304D01*
X0116542Y0043253D01*
X0116596Y0043199D01*
X0116647Y0043143D01*
X0116695Y0043084D01*
X0116740Y0043023D01*
X0116782Y0042959D01*
X0116821Y0042894D01*
X0116856Y0042827D01*
X0116887Y0042758D01*
X0116916Y0042687D01*
X0116940Y0042615D01*
X0116961Y0042542D01*
X0116978Y0042468D01*
X0116992Y0042393D01*
X0117001Y0042318D01*
X0117007Y0042242D01*
X0117009Y0042166D01*
X0117009Y0027166D01*
X0117007Y0027090D01*
X0117001Y0027014D01*
X0116992Y0026939D01*
X0116978Y0026864D01*
X0116961Y0026790D01*
X0116940Y0026717D01*
X0116916Y0026645D01*
X0116887Y0026574D01*
X0116856Y0026505D01*
X0116821Y0026438D01*
X0116782Y0026373D01*
X0116740Y0026309D01*
X0116695Y0026248D01*
X0116647Y0026189D01*
X0116596Y0026133D01*
X0116542Y0026079D01*
X0116486Y0026028D01*
X0116427Y0025980D01*
X0116366Y0025935D01*
X0116302Y0025893D01*
X0116237Y0025854D01*
X0116170Y0025819D01*
X0116101Y0025788D01*
X0116030Y0025759D01*
X0115958Y0025735D01*
X0115885Y0025714D01*
X0115811Y0025697D01*
X0115736Y0025683D01*
X0115661Y0025674D01*
X0115585Y0025668D01*
X0115509Y0025666D01*
X0101009Y0025666D01*
X0098009Y0028666D01*
X0101509Y0038766D02*
X0101509Y0041266D01*
X0102809Y0040066D02*
X0100209Y0040066D01*
X0031600Y0096700D02*
X0027300Y0094800D01*
X0022300Y0094800D01*
X0018000Y0096700D01*
X0018000Y0102300D02*
X0022300Y0104800D01*
X0018000Y0107300D01*
X0018000Y0112900D02*
X0022300Y0114800D01*
X0018000Y0116700D01*
X0018000Y0123100D02*
X0022300Y0124800D01*
X0027300Y0124800D01*
X0031600Y0122900D01*
X0036300Y0126800D02*
X0017300Y0126800D01*
X0017202Y0126802D01*
X0017104Y0126808D01*
X0017006Y0126817D01*
X0016909Y0126831D01*
X0016812Y0126848D01*
X0016716Y0126869D01*
X0016621Y0126894D01*
X0016527Y0126922D01*
X0016435Y0126955D01*
X0016343Y0126990D01*
X0016253Y0127030D01*
X0016165Y0127072D01*
X0016078Y0127119D01*
X0015994Y0127168D01*
X0015911Y0127221D01*
X0015831Y0127277D01*
X0015752Y0127337D01*
X0015676Y0127399D01*
X0015603Y0127464D01*
X0015532Y0127532D01*
X0015464Y0127603D01*
X0015399Y0127676D01*
X0015337Y0127752D01*
X0015277Y0127831D01*
X0015221Y0127911D01*
X0015168Y0127994D01*
X0015119Y0128078D01*
X0015072Y0128165D01*
X0015030Y0128253D01*
X0014990Y0128343D01*
X0014955Y0128435D01*
X0014922Y0128527D01*
X0014894Y0128621D01*
X0014869Y0128716D01*
X0014848Y0128812D01*
X0014831Y0128909D01*
X0014817Y0129006D01*
X0014808Y0129104D01*
X0014802Y0129202D01*
X0014800Y0129300D01*
X0014800Y0174300D01*
X0014802Y0174398D01*
X0014808Y0174496D01*
X0014817Y0174594D01*
X0014831Y0174691D01*
X0014848Y0174788D01*
X0014869Y0174884D01*
X0014894Y0174979D01*
X0014922Y0175073D01*
X0014955Y0175165D01*
X0014990Y0175257D01*
X0015030Y0175347D01*
X0015072Y0175435D01*
X0015119Y0175522D01*
X0015168Y0175606D01*
X0015221Y0175689D01*
X0015277Y0175769D01*
X0015337Y0175848D01*
X0015399Y0175924D01*
X0015464Y0175997D01*
X0015532Y0176068D01*
X0015603Y0176136D01*
X0015676Y0176201D01*
X0015752Y0176263D01*
X0015831Y0176323D01*
X0015911Y0176379D01*
X0015994Y0176432D01*
X0016078Y0176481D01*
X0016165Y0176528D01*
X0016253Y0176570D01*
X0016343Y0176610D01*
X0016435Y0176645D01*
X0016527Y0176678D01*
X0016621Y0176706D01*
X0016716Y0176731D01*
X0016812Y0176752D01*
X0016909Y0176769D01*
X0017006Y0176783D01*
X0017104Y0176792D01*
X0017202Y0176798D01*
X0017300Y0176800D01*
X0036300Y0176800D01*
X0036398Y0176798D01*
X0036496Y0176792D01*
X0036594Y0176783D01*
X0036691Y0176769D01*
X0036788Y0176752D01*
X0036884Y0176731D01*
X0036979Y0176706D01*
X0037073Y0176678D01*
X0037165Y0176645D01*
X0037257Y0176610D01*
X0037347Y0176570D01*
X0037435Y0176528D01*
X0037522Y0176481D01*
X0037606Y0176432D01*
X0037689Y0176379D01*
X0037769Y0176323D01*
X0037848Y0176263D01*
X0037924Y0176201D01*
X0037997Y0176136D01*
X0038068Y0176068D01*
X0038136Y0175997D01*
X0038201Y0175924D01*
X0038263Y0175848D01*
X0038323Y0175769D01*
X0038379Y0175689D01*
X0038432Y0175606D01*
X0038481Y0175522D01*
X0038528Y0175435D01*
X0038570Y0175347D01*
X0038610Y0175257D01*
X0038645Y0175165D01*
X0038678Y0175073D01*
X0038706Y0174979D01*
X0038731Y0174884D01*
X0038752Y0174788D01*
X0038769Y0174691D01*
X0038783Y0174594D01*
X0038792Y0174496D01*
X0038798Y0174398D01*
X0038800Y0174300D01*
X0038800Y0129300D01*
X0038798Y0129202D01*
X0038792Y0129104D01*
X0038783Y0129006D01*
X0038769Y0128909D01*
X0038752Y0128812D01*
X0038731Y0128716D01*
X0038706Y0128621D01*
X0038678Y0128527D01*
X0038645Y0128435D01*
X0038610Y0128343D01*
X0038570Y0128253D01*
X0038528Y0128165D01*
X0038481Y0128078D01*
X0038432Y0127994D01*
X0038379Y0127911D01*
X0038323Y0127831D01*
X0038263Y0127752D01*
X0038201Y0127676D01*
X0038136Y0127603D01*
X0038068Y0127532D01*
X0037997Y0127464D01*
X0037924Y0127399D01*
X0037848Y0127337D01*
X0037769Y0127277D01*
X0037689Y0127221D01*
X0037606Y0127168D01*
X0037522Y0127119D01*
X0037435Y0127072D01*
X0037347Y0127030D01*
X0037257Y0126990D01*
X0037165Y0126955D01*
X0037073Y0126922D01*
X0036979Y0126894D01*
X0036884Y0126869D01*
X0036788Y0126848D01*
X0036691Y0126831D01*
X0036594Y0126817D01*
X0036496Y0126808D01*
X0036398Y0126802D01*
X0036300Y0126800D01*
X0031600Y0116700D02*
X0027300Y0114800D01*
X0031600Y0112300D01*
X0031600Y0106700D02*
X0027300Y0104800D01*
X0031600Y0102900D01*
X0022600Y0086900D02*
X0018300Y0088800D01*
X0013300Y0088800D01*
X0009000Y0086900D01*
X0009000Y0080700D02*
X0013300Y0078800D01*
X0009000Y0076900D01*
X0009000Y0071300D02*
X0013300Y0068800D01*
X0009000Y0066900D01*
X0009000Y0060700D02*
X0013300Y0058800D01*
X0018300Y0058800D01*
X0022600Y0060500D01*
X0022600Y0066900D02*
X0018300Y0068800D01*
X0022600Y0070700D01*
X0022600Y0076300D02*
X0018300Y0078800D01*
X0022600Y0081300D01*
X0009300Y0181800D02*
X0044300Y0181800D01*
X0044300Y0199300D01*
X0043800Y0199300D01*
X0043800Y0204300D01*
X0044300Y0204300D01*
X0044300Y0213800D01*
X0040300Y0213800D01*
X0039300Y0213800D01*
X0039300Y0186800D01*
X0014300Y0186800D01*
X0014300Y0256800D01*
X0039300Y0256800D01*
X0039300Y0239800D01*
X0039300Y0233800D01*
X0039300Y0229800D01*
X0040300Y0229800D01*
X0044300Y0229800D01*
X0044300Y0213800D01*
X0039300Y0213800D02*
X0036300Y0213800D01*
X0036300Y0229800D01*
X0039300Y0229800D01*
X0042300Y0231800D02*
X0042300Y0233800D01*
X0042300Y0239800D01*
X0040300Y0239800D01*
X0039300Y0239800D01*
X0042300Y0239800D02*
X0042300Y0241800D01*
X0044300Y0243300D01*
X0044300Y0261800D01*
X0009300Y0261800D01*
X0009300Y0256800D01*
X0008300Y0256800D01*
X0008300Y0251800D01*
X0009300Y0251800D01*
X0009300Y0224300D01*
X0008300Y0224300D01*
X0008300Y0219300D01*
X0009300Y0219300D01*
X0009300Y0191800D01*
X0008300Y0191800D01*
X0008300Y0186800D01*
X0009300Y0186800D01*
X0009300Y0181800D01*
X0044300Y0229800D02*
X0044300Y0230300D01*
X0042300Y0231800D01*
X0042300Y0233800D02*
X0040300Y0233800D01*
X0039300Y0233800D01*
X0086800Y0224300D02*
X0086800Y0219300D01*
X0088300Y0215800D01*
X0091800Y0213800D01*
X0111800Y0213800D01*
X0115300Y0215800D01*
X0116800Y0219300D01*
X0116800Y0224300D01*
X0115300Y0227800D01*
X0111800Y0229800D01*
X0091800Y0229800D01*
X0088300Y0227800D01*
X0086800Y0224300D01*
X0181800Y0245800D02*
X0241800Y0245800D01*
X0241800Y0257800D01*
X0181800Y0257800D01*
X0181800Y0245800D01*
X0174713Y0048796D02*
X0174713Y0045296D01*
X0174713Y0041796D01*
X0174713Y0024796D01*
X0214713Y0024796D01*
X0214713Y0019296D01*
X0174713Y0019296D01*
X0174713Y0024796D01*
X0172713Y0041296D02*
X0174713Y0041796D01*
X0214713Y0041796D01*
X0214713Y0024796D01*
X0214713Y0041796D02*
X0214713Y0048796D01*
X0174713Y0048796D01*
X0174713Y0045296D02*
X0172713Y0045796D01*
X0172713Y0041296D01*
X0182813Y0045296D02*
X0182815Y0045385D01*
X0182821Y0045474D01*
X0182831Y0045563D01*
X0182845Y0045651D01*
X0182862Y0045738D01*
X0182884Y0045824D01*
X0182910Y0045910D01*
X0182939Y0045994D01*
X0182972Y0046077D01*
X0183008Y0046158D01*
X0183049Y0046238D01*
X0183092Y0046315D01*
X0183139Y0046391D01*
X0183190Y0046464D01*
X0183243Y0046535D01*
X0183300Y0046604D01*
X0183360Y0046670D01*
X0183423Y0046734D01*
X0183488Y0046794D01*
X0183556Y0046852D01*
X0183627Y0046906D01*
X0183700Y0046957D01*
X0183775Y0047005D01*
X0183852Y0047050D01*
X0183931Y0047091D01*
X0184012Y0047128D01*
X0184094Y0047162D01*
X0184178Y0047193D01*
X0184263Y0047219D01*
X0184349Y0047242D01*
X0184436Y0047260D01*
X0184524Y0047275D01*
X0184613Y0047286D01*
X0184702Y0047293D01*
X0184791Y0047296D01*
X0184880Y0047295D01*
X0184969Y0047290D01*
X0185057Y0047281D01*
X0185146Y0047268D01*
X0185233Y0047251D01*
X0185320Y0047231D01*
X0185406Y0047206D01*
X0185490Y0047178D01*
X0185573Y0047146D01*
X0185655Y0047110D01*
X0185735Y0047071D01*
X0185813Y0047028D01*
X0185889Y0046982D01*
X0185963Y0046932D01*
X0186035Y0046879D01*
X0186104Y0046823D01*
X0186171Y0046764D01*
X0186235Y0046702D01*
X0186296Y0046638D01*
X0186355Y0046570D01*
X0186410Y0046500D01*
X0186462Y0046428D01*
X0186511Y0046353D01*
X0186556Y0046277D01*
X0186598Y0046198D01*
X0186636Y0046118D01*
X0186671Y0046036D01*
X0186702Y0045952D01*
X0186730Y0045867D01*
X0186753Y0045781D01*
X0186773Y0045694D01*
X0186789Y0045607D01*
X0186801Y0045518D01*
X0186809Y0045430D01*
X0186813Y0045341D01*
X0186813Y0045251D01*
X0186809Y0045162D01*
X0186801Y0045074D01*
X0186789Y0044985D01*
X0186773Y0044898D01*
X0186753Y0044811D01*
X0186730Y0044725D01*
X0186702Y0044640D01*
X0186671Y0044556D01*
X0186636Y0044474D01*
X0186598Y0044394D01*
X0186556Y0044315D01*
X0186511Y0044239D01*
X0186462Y0044164D01*
X0186410Y0044092D01*
X0186355Y0044022D01*
X0186296Y0043954D01*
X0186235Y0043890D01*
X0186171Y0043828D01*
X0186104Y0043769D01*
X0186035Y0043713D01*
X0185963Y0043660D01*
X0185889Y0043610D01*
X0185813Y0043564D01*
X0185735Y0043521D01*
X0185655Y0043482D01*
X0185573Y0043446D01*
X0185490Y0043414D01*
X0185406Y0043386D01*
X0185320Y0043361D01*
X0185233Y0043341D01*
X0185146Y0043324D01*
X0185057Y0043311D01*
X0184969Y0043302D01*
X0184880Y0043297D01*
X0184791Y0043296D01*
X0184702Y0043299D01*
X0184613Y0043306D01*
X0184524Y0043317D01*
X0184436Y0043332D01*
X0184349Y0043350D01*
X0184263Y0043373D01*
X0184178Y0043399D01*
X0184094Y0043430D01*
X0184012Y0043464D01*
X0183931Y0043501D01*
X0183852Y0043542D01*
X0183775Y0043587D01*
X0183700Y0043635D01*
X0183627Y0043686D01*
X0183556Y0043740D01*
X0183488Y0043798D01*
X0183423Y0043858D01*
X0183360Y0043922D01*
X0183300Y0043988D01*
X0183243Y0044057D01*
X0183190Y0044128D01*
X0183139Y0044201D01*
X0183092Y0044277D01*
X0183049Y0044354D01*
X0183008Y0044434D01*
X0182972Y0044515D01*
X0182939Y0044598D01*
X0182910Y0044682D01*
X0182884Y0044768D01*
X0182862Y0044854D01*
X0182845Y0044941D01*
X0182831Y0045029D01*
X0182821Y0045118D01*
X0182815Y0045207D01*
X0182813Y0045296D01*
X0202613Y0045296D02*
X0202615Y0045385D01*
X0202621Y0045474D01*
X0202631Y0045563D01*
X0202645Y0045651D01*
X0202662Y0045738D01*
X0202684Y0045824D01*
X0202710Y0045910D01*
X0202739Y0045994D01*
X0202772Y0046077D01*
X0202808Y0046158D01*
X0202849Y0046238D01*
X0202892Y0046315D01*
X0202939Y0046391D01*
X0202990Y0046464D01*
X0203043Y0046535D01*
X0203100Y0046604D01*
X0203160Y0046670D01*
X0203223Y0046734D01*
X0203288Y0046794D01*
X0203356Y0046852D01*
X0203427Y0046906D01*
X0203500Y0046957D01*
X0203575Y0047005D01*
X0203652Y0047050D01*
X0203731Y0047091D01*
X0203812Y0047128D01*
X0203894Y0047162D01*
X0203978Y0047193D01*
X0204063Y0047219D01*
X0204149Y0047242D01*
X0204236Y0047260D01*
X0204324Y0047275D01*
X0204413Y0047286D01*
X0204502Y0047293D01*
X0204591Y0047296D01*
X0204680Y0047295D01*
X0204769Y0047290D01*
X0204857Y0047281D01*
X0204946Y0047268D01*
X0205033Y0047251D01*
X0205120Y0047231D01*
X0205206Y0047206D01*
X0205290Y0047178D01*
X0205373Y0047146D01*
X0205455Y0047110D01*
X0205535Y0047071D01*
X0205613Y0047028D01*
X0205689Y0046982D01*
X0205763Y0046932D01*
X0205835Y0046879D01*
X0205904Y0046823D01*
X0205971Y0046764D01*
X0206035Y0046702D01*
X0206096Y0046638D01*
X0206155Y0046570D01*
X0206210Y0046500D01*
X0206262Y0046428D01*
X0206311Y0046353D01*
X0206356Y0046277D01*
X0206398Y0046198D01*
X0206436Y0046118D01*
X0206471Y0046036D01*
X0206502Y0045952D01*
X0206530Y0045867D01*
X0206553Y0045781D01*
X0206573Y0045694D01*
X0206589Y0045607D01*
X0206601Y0045518D01*
X0206609Y0045430D01*
X0206613Y0045341D01*
X0206613Y0045251D01*
X0206609Y0045162D01*
X0206601Y0045074D01*
X0206589Y0044985D01*
X0206573Y0044898D01*
X0206553Y0044811D01*
X0206530Y0044725D01*
X0206502Y0044640D01*
X0206471Y0044556D01*
X0206436Y0044474D01*
X0206398Y0044394D01*
X0206356Y0044315D01*
X0206311Y0044239D01*
X0206262Y0044164D01*
X0206210Y0044092D01*
X0206155Y0044022D01*
X0206096Y0043954D01*
X0206035Y0043890D01*
X0205971Y0043828D01*
X0205904Y0043769D01*
X0205835Y0043713D01*
X0205763Y0043660D01*
X0205689Y0043610D01*
X0205613Y0043564D01*
X0205535Y0043521D01*
X0205455Y0043482D01*
X0205373Y0043446D01*
X0205290Y0043414D01*
X0205206Y0043386D01*
X0205120Y0043361D01*
X0205033Y0043341D01*
X0204946Y0043324D01*
X0204857Y0043311D01*
X0204769Y0043302D01*
X0204680Y0043297D01*
X0204591Y0043296D01*
X0204502Y0043299D01*
X0204413Y0043306D01*
X0204324Y0043317D01*
X0204236Y0043332D01*
X0204149Y0043350D01*
X0204063Y0043373D01*
X0203978Y0043399D01*
X0203894Y0043430D01*
X0203812Y0043464D01*
X0203731Y0043501D01*
X0203652Y0043542D01*
X0203575Y0043587D01*
X0203500Y0043635D01*
X0203427Y0043686D01*
X0203356Y0043740D01*
X0203288Y0043798D01*
X0203223Y0043858D01*
X0203160Y0043922D01*
X0203100Y0043988D01*
X0203043Y0044057D01*
X0202990Y0044128D01*
X0202939Y0044201D01*
X0202892Y0044277D01*
X0202849Y0044354D01*
X0202808Y0044434D01*
X0202772Y0044515D01*
X0202739Y0044598D01*
X0202710Y0044682D01*
X0202684Y0044768D01*
X0202662Y0044854D01*
X0202645Y0044941D01*
X0202631Y0045029D01*
X0202621Y0045118D01*
X0202615Y0045207D01*
X0202613Y0045296D01*
X0235000Y0046100D02*
X0239300Y0047800D01*
X0244300Y0047800D01*
X0248600Y0045900D01*
X0248600Y0039700D02*
X0244300Y0037800D01*
X0248600Y0035300D01*
X0248600Y0029700D02*
X0244300Y0027800D01*
X0248600Y0025900D01*
X0248600Y0019700D02*
X0244300Y0017800D01*
X0239300Y0017800D01*
X0235000Y0019700D01*
X0235000Y0025300D02*
X0239300Y0027800D01*
X0235000Y0030300D01*
X0235000Y0035900D02*
X0239300Y0037800D01*
X0235000Y0039700D01*
D16*
X0234600Y0040000D02*
X0234600Y0046000D01*
X0233250Y0045698D02*
X0232499Y0046449D01*
X0229497Y0046449D01*
X0228746Y0045698D01*
X0228746Y0043446D01*
X0233250Y0043446D01*
X0233250Y0045698D01*
X0233250Y0041845D02*
X0228746Y0041845D01*
X0228746Y0038842D02*
X0233250Y0041845D01*
X0233250Y0038842D02*
X0228746Y0038842D01*
X0229497Y0037241D02*
X0228746Y0036490D01*
X0228746Y0034989D01*
X0229497Y0034238D01*
X0232499Y0034238D01*
X0233250Y0034989D01*
X0233250Y0036490D01*
X0232499Y0037241D01*
X0230998Y0037241D01*
X0230998Y0035739D01*
X0234600Y0035800D02*
X0234600Y0030400D01*
X0234600Y0025000D02*
X0234600Y0019600D01*
X0249000Y0019600D02*
X0249000Y0025600D01*
X0249000Y0029800D02*
X0249000Y0035200D01*
X0249000Y0040000D02*
X0249000Y0046000D01*
X0199732Y0045815D02*
X0199732Y0046382D01*
X0199165Y0046949D01*
X0198031Y0046949D01*
X0197463Y0046382D01*
X0199732Y0045815D02*
X0197463Y0043546D01*
X0199732Y0043546D01*
X0179732Y0043546D02*
X0177463Y0043546D01*
X0178598Y0043546D02*
X0178598Y0046949D01*
X0177463Y0045815D01*
X0160225Y0082824D02*
X0160225Y0271800D01*
X0061800Y0271800D01*
X0061800Y0082824D01*
X0160225Y0082824D01*
X0128465Y0039620D02*
X0126964Y0038869D01*
X0125463Y0037368D01*
X0127715Y0037368D01*
X0128465Y0036617D01*
X0128465Y0035867D01*
X0127715Y0035116D01*
X0126213Y0035116D01*
X0125463Y0035867D01*
X0125463Y0037368D01*
X0123861Y0035867D02*
X0123111Y0035116D01*
X0121609Y0035116D01*
X0120859Y0035867D01*
X0120859Y0038869D01*
X0121609Y0039620D01*
X0123111Y0039620D01*
X0123861Y0038869D01*
X0123111Y0032320D02*
X0121609Y0032320D01*
X0120859Y0031569D01*
X0123111Y0032320D02*
X0123861Y0031569D01*
X0123861Y0030819D01*
X0120859Y0027816D01*
X0123861Y0027816D01*
X0125463Y0027816D02*
X0128465Y0030819D01*
X0128465Y0031569D01*
X0127715Y0032320D01*
X0126213Y0032320D01*
X0125463Y0031569D01*
X0125463Y0027816D02*
X0128465Y0027816D01*
X0130067Y0028567D02*
X0130817Y0027816D01*
X0133069Y0027816D01*
X0133069Y0030819D01*
X0134670Y0030068D02*
X0136172Y0030068D01*
X0134670Y0032320D02*
X0137673Y0032320D01*
X0134670Y0032320D02*
X0134670Y0027816D01*
X0130067Y0028567D02*
X0130067Y0030819D01*
X0084257Y0010835D02*
X0081255Y0010835D01*
X0081255Y0008583D01*
X0082756Y0009334D01*
X0083507Y0009334D01*
X0084257Y0008583D01*
X0084257Y0007082D01*
X0083507Y0006331D01*
X0082005Y0006331D01*
X0081255Y0007082D01*
X0079653Y0007082D02*
X0078903Y0006331D01*
X0077401Y0006331D01*
X0076651Y0007082D01*
X0076651Y0010084D01*
X0077401Y0010835D01*
X0078903Y0010835D01*
X0079653Y0010084D01*
X0078156Y0010873D02*
X0075153Y0010873D01*
X0075153Y0006369D01*
X0073552Y0006369D02*
X0073552Y0009371D01*
X0075153Y0008621D02*
X0076654Y0008621D01*
X0073552Y0006369D02*
X0071300Y0006369D01*
X0070549Y0007120D01*
X0070549Y0009371D01*
X0068948Y0010122D02*
X0065945Y0007120D01*
X0065945Y0006369D01*
X0063593Y0006369D02*
X0063593Y0010873D01*
X0061341Y0008621D01*
X0064344Y0008621D01*
X0065945Y0010873D02*
X0068948Y0010873D01*
X0068948Y0010122D01*
X0064700Y0018800D02*
X0062700Y0018800D01*
X0064700Y0018800D02*
X0064700Y0025800D01*
X0056700Y0023800D02*
X0056700Y0048800D01*
X0006700Y0048800D01*
X0006700Y0053800D01*
X0064200Y0053800D01*
X0064700Y0053800D02*
X0064700Y0046800D01*
X0056700Y0023800D02*
X0006700Y0023800D01*
X0006700Y0048800D01*
X0008600Y0060600D02*
X0008600Y0066600D01*
X0008600Y0071400D02*
X0008600Y0076800D01*
X0008600Y0081000D02*
X0008600Y0087000D01*
X0017600Y0096600D02*
X0017600Y0102000D01*
X0017600Y0107400D02*
X0017600Y0112800D01*
X0017600Y0117000D02*
X0017600Y0123000D01*
X0013050Y0122843D02*
X0008546Y0122843D01*
X0010047Y0121342D01*
X0013050Y0121342D02*
X0013050Y0124345D01*
X0012299Y0125946D02*
X0009297Y0128949D01*
X0012299Y0128949D01*
X0013050Y0128198D01*
X0013050Y0126697D01*
X0012299Y0125946D01*
X0009297Y0125946D01*
X0008546Y0126697D01*
X0008546Y0128198D01*
X0009297Y0128949D01*
X0010297Y0148738D02*
X0013299Y0148738D01*
X0014050Y0149489D01*
X0014050Y0150990D01*
X0013299Y0151741D01*
X0011798Y0151741D01*
X0011798Y0150239D01*
X0010297Y0148738D02*
X0009546Y0149489D01*
X0009546Y0150990D01*
X0010297Y0151741D01*
X0009546Y0153342D02*
X0014050Y0156345D01*
X0009546Y0156345D01*
X0009546Y0157946D02*
X0009546Y0160198D01*
X0010297Y0160949D01*
X0013299Y0160949D01*
X0014050Y0160198D01*
X0014050Y0157946D01*
X0009546Y0157946D01*
X0009546Y0153342D02*
X0014050Y0153342D01*
X0034547Y0176446D02*
X0033046Y0177947D01*
X0037550Y0177947D01*
X0037550Y0176446D02*
X0037550Y0179449D01*
X0034050Y0192050D02*
X0034050Y0195053D01*
X0034050Y0193551D02*
X0029546Y0193551D01*
X0031047Y0192050D01*
X0024050Y0192050D02*
X0021047Y0195053D01*
X0020297Y0195053D01*
X0019546Y0194302D01*
X0019546Y0192801D01*
X0020297Y0192050D01*
X0024050Y0192050D02*
X0024050Y0195053D01*
X0039547Y0218050D02*
X0038046Y0219551D01*
X0042550Y0219551D01*
X0042550Y0218050D02*
X0042550Y0221053D01*
X0041799Y0222654D02*
X0038797Y0225656D01*
X0041799Y0225656D01*
X0042550Y0224906D01*
X0042550Y0223405D01*
X0041799Y0222654D01*
X0038797Y0222654D01*
X0038046Y0223405D01*
X0038046Y0224906D01*
X0038797Y0225656D01*
X0089465Y0231650D02*
X0089465Y0236154D01*
X0091717Y0234653D02*
X0089465Y0233151D01*
X0091717Y0231650D01*
X0093302Y0232401D02*
X0094052Y0231650D01*
X0094803Y0232401D01*
X0095553Y0231650D01*
X0096304Y0232401D01*
X0096304Y0234653D01*
X0098656Y0234653D02*
X0100157Y0234653D01*
X0100908Y0233902D01*
X0100908Y0231650D01*
X0098656Y0231650D01*
X0097905Y0232401D01*
X0098656Y0233151D01*
X0100908Y0233151D01*
X0102509Y0233151D02*
X0104011Y0234653D01*
X0104761Y0234653D01*
X0106346Y0233902D02*
X0107097Y0234653D01*
X0109349Y0234653D01*
X0109349Y0231650D02*
X0107097Y0231650D01*
X0106346Y0232401D01*
X0106346Y0233902D01*
X0102509Y0234653D02*
X0102509Y0231650D01*
X0093302Y0232401D02*
X0093302Y0234653D01*
X0103989Y0210054D02*
X0103238Y0209303D01*
X0103238Y0208553D01*
X0103989Y0207802D01*
X0105490Y0207802D01*
X0106241Y0207051D01*
X0106241Y0206301D01*
X0105490Y0205550D01*
X0103989Y0205550D01*
X0103238Y0206301D01*
X0103989Y0210054D02*
X0105490Y0210054D01*
X0106241Y0209303D01*
X0107842Y0210054D02*
X0107842Y0207051D01*
X0109343Y0205550D01*
X0110845Y0207051D01*
X0110845Y0210054D01*
X0112446Y0209303D02*
X0113197Y0210054D01*
X0114698Y0210054D01*
X0115449Y0209303D01*
X0115449Y0208553D01*
X0112446Y0205550D01*
X0115449Y0205550D01*
X0117446Y0219550D02*
X0120449Y0219550D01*
X0118947Y0219550D02*
X0118947Y0224054D01*
X0117446Y0222553D01*
X0185050Y0260050D02*
X0188053Y0260050D01*
X0186551Y0260050D02*
X0186551Y0264554D01*
X0185050Y0263053D01*
X0226150Y0238054D02*
X0226150Y0233550D01*
X0228402Y0233550D01*
X0229153Y0234301D01*
X0229153Y0237303D01*
X0228402Y0238054D01*
X0226150Y0238054D01*
X0230754Y0237303D02*
X0230754Y0236553D01*
X0231505Y0235802D01*
X0233006Y0235802D01*
X0233756Y0235051D01*
X0233756Y0234301D01*
X0233006Y0233550D01*
X0231505Y0233550D01*
X0230754Y0234301D01*
X0230754Y0237303D02*
X0231505Y0238054D01*
X0233006Y0238054D01*
X0233756Y0237303D01*
X0235358Y0237303D02*
X0236108Y0238054D01*
X0237610Y0238054D01*
X0238360Y0237303D01*
X0238360Y0236553D01*
X0237610Y0235802D01*
X0238360Y0235051D01*
X0238360Y0234301D01*
X0237610Y0233550D01*
X0236108Y0233550D01*
X0235358Y0234301D01*
X0236859Y0235802D02*
X0237610Y0235802D01*
X0239962Y0237303D02*
X0240712Y0238054D01*
X0242214Y0238054D01*
X0242964Y0237303D01*
X0242964Y0236553D01*
X0239962Y0233550D01*
X0242964Y0233550D01*
X0244566Y0234301D02*
X0245316Y0233550D01*
X0246818Y0233550D01*
X0247568Y0234301D01*
X0247568Y0235051D01*
X0246818Y0235802D01*
X0246067Y0235802D01*
X0246818Y0235802D02*
X0247568Y0236553D01*
X0247568Y0237303D01*
X0246818Y0238054D01*
X0245316Y0238054D01*
X0244566Y0237303D01*
X0249170Y0236553D02*
X0250671Y0238054D01*
X0250671Y0233550D01*
X0249170Y0233550D02*
X0252172Y0233550D01*
X0237302Y0260050D02*
X0238053Y0260801D01*
X0238053Y0261551D01*
X0237302Y0262302D01*
X0235050Y0262302D01*
X0235050Y0260801D01*
X0235801Y0260050D01*
X0237302Y0260050D01*
X0235050Y0262302D02*
X0236551Y0263803D01*
X0238053Y0264554D01*
X0045850Y0124538D02*
X0045850Y0121535D01*
X0041346Y0121535D01*
X0041346Y0124538D01*
X0043598Y0123036D02*
X0043598Y0121535D01*
X0043598Y0119934D02*
X0044349Y0119183D01*
X0044349Y0116931D01*
X0045850Y0116931D02*
X0041346Y0116931D01*
X0041346Y0119183D01*
X0042097Y0119934D01*
X0043598Y0119934D01*
X0044349Y0118432D02*
X0045850Y0119934D01*
X0045850Y0115363D02*
X0045850Y0113862D01*
X0045850Y0114612D02*
X0041346Y0114612D01*
X0041346Y0113862D02*
X0041346Y0115363D01*
X0041346Y0112260D02*
X0045850Y0112260D01*
X0044349Y0110759D01*
X0045850Y0109258D01*
X0041346Y0109258D01*
X0043598Y0107656D02*
X0043598Y0104654D01*
X0045850Y0103053D02*
X0045850Y0100050D01*
X0045850Y0101551D02*
X0041346Y0101551D01*
X0042847Y0100050D01*
X0032000Y0102600D02*
X0032000Y0096600D01*
X0032000Y0106800D02*
X0032000Y0112200D01*
X0032000Y0117000D02*
X0032000Y0123000D01*
X0023000Y0087000D02*
X0023000Y0081600D01*
X0023000Y0076200D02*
X0023000Y0070800D01*
X0023000Y0066600D02*
X0023000Y0060600D01*
X0006700Y0023800D02*
X0006700Y0018800D01*
X0042700Y0018800D01*
D17*
X0019700Y0036800D03*
D18*
X0140602Y0036298D02*
X0140602Y0033996D01*
X0145206Y0033996D01*
X0143672Y0033996D02*
X0143672Y0036298D01*
X0142904Y0037065D01*
X0141370Y0037065D01*
X0140602Y0036298D01*
X0141370Y0038600D02*
X0140602Y0039367D01*
X0140602Y0040902D01*
X0141370Y0041669D01*
X0142137Y0041669D01*
X0142904Y0040902D01*
X0142904Y0039367D01*
X0142137Y0038600D01*
X0141370Y0038600D01*
X0142904Y0039367D02*
X0143672Y0038600D01*
X0144439Y0038600D01*
X0145206Y0039367D01*
X0145206Y0040902D01*
X0144439Y0041669D01*
X0143672Y0041669D01*
X0142904Y0040902D01*
X0142370Y0045996D02*
X0141602Y0046763D01*
X0141602Y0048298D01*
X0142370Y0049065D01*
X0143137Y0049065D01*
X0143904Y0048298D01*
X0144672Y0049065D01*
X0145439Y0049065D01*
X0146206Y0048298D01*
X0146206Y0046763D01*
X0145439Y0045996D01*
X0143904Y0047531D02*
X0143904Y0048298D01*
X0142370Y0050600D02*
X0141602Y0051367D01*
X0141602Y0052902D01*
X0142370Y0053669D01*
X0145439Y0050600D01*
X0146206Y0051367D01*
X0146206Y0052902D01*
X0145439Y0053669D01*
X0142370Y0053669D01*
X0142370Y0055204D02*
X0141602Y0055971D01*
X0141602Y0057506D01*
X0142370Y0058273D01*
X0145439Y0055204D01*
X0146206Y0055971D01*
X0146206Y0057506D01*
X0145439Y0058273D01*
X0142370Y0058273D01*
X0141602Y0059808D02*
X0141602Y0062110D01*
X0142370Y0062877D01*
X0143904Y0062877D01*
X0144672Y0062110D01*
X0144672Y0059808D01*
X0146206Y0059808D02*
X0141602Y0059808D01*
X0144672Y0061342D02*
X0146206Y0062877D01*
X0145439Y0055204D02*
X0142370Y0055204D01*
X0142370Y0050600D02*
X0145439Y0050600D01*
X0154350Y0051100D02*
X0158954Y0051100D01*
X0158954Y0054169D01*
X0158954Y0055704D02*
X0154350Y0055704D01*
X0154350Y0058006D01*
X0155118Y0058773D01*
X0158187Y0058773D01*
X0158954Y0058006D01*
X0158954Y0055704D01*
X0156652Y0052635D02*
X0156652Y0051100D01*
X0154350Y0051100D02*
X0154350Y0054169D01*
X0158954Y0049565D02*
X0158954Y0046496D01*
X0154350Y0046496D01*
X0145206Y0037065D02*
X0143672Y0035531D01*
X0147123Y0017758D02*
X0147123Y0013154D01*
X0149425Y0013154D01*
X0150192Y0013922D01*
X0150192Y0015456D01*
X0149425Y0016224D01*
X0147123Y0016224D01*
X0151727Y0017758D02*
X0152494Y0017758D01*
X0152494Y0013154D01*
X0151727Y0013154D02*
X0153261Y0013154D01*
X0154796Y0013922D02*
X0154796Y0016224D01*
X0154796Y0013922D02*
X0155563Y0013154D01*
X0157865Y0013154D01*
X0157865Y0016224D01*
X0159400Y0015456D02*
X0160167Y0016224D01*
X0161702Y0016224D01*
X0162469Y0015456D01*
X0162469Y0014689D01*
X0159400Y0014689D01*
X0159400Y0013922D02*
X0159400Y0015456D01*
X0159400Y0013922D02*
X0160167Y0013154D01*
X0161702Y0013154D01*
X0158954Y0060308D02*
X0158954Y0063377D01*
X0158954Y0061842D02*
X0154350Y0061842D01*
X0155885Y0060308D01*
X0060319Y0210900D02*
X0060319Y0213302D01*
X0059118Y0214503D01*
X0057917Y0213302D01*
X0057917Y0210900D01*
X0056636Y0211501D02*
X0056636Y0213903D01*
X0056035Y0214503D01*
X0054234Y0214503D01*
X0054234Y0210900D01*
X0056035Y0210900D01*
X0056636Y0211501D01*
X0057917Y0212702D02*
X0060319Y0212702D01*
X0052953Y0214503D02*
X0052953Y0210900D01*
X0050551Y0214503D01*
X0050551Y0210900D01*
X0049269Y0210900D02*
X0049269Y0213302D01*
X0048068Y0214503D01*
X0046867Y0213302D01*
X0046867Y0210900D01*
X0045586Y0210900D02*
X0043785Y0212702D01*
X0043184Y0212101D02*
X0045586Y0214503D01*
X0046867Y0212702D02*
X0049269Y0212702D01*
X0043184Y0214503D02*
X0043184Y0210900D01*
X0042300Y0276900D02*
X0042300Y0279969D01*
X0043835Y0281504D01*
X0045369Y0279969D01*
X0045369Y0276900D01*
X0045369Y0279202D02*
X0042300Y0279202D01*
X0046904Y0281504D02*
X0049973Y0281504D01*
X0048439Y0281504D02*
X0048439Y0276900D01*
X0051508Y0276900D02*
X0051508Y0281504D01*
X0054577Y0276900D01*
X0054577Y0281504D01*
X0056112Y0281504D02*
X0056112Y0276900D01*
X0059181Y0276900D01*
X0060716Y0276900D02*
X0063785Y0276900D01*
X0065320Y0279202D02*
X0068389Y0279202D01*
X0069924Y0279202D02*
X0072993Y0279202D01*
X0072993Y0279969D02*
X0072993Y0276900D01*
X0074527Y0276900D02*
X0076062Y0276900D01*
X0075295Y0276900D02*
X0075295Y0281504D01*
X0076062Y0281504D02*
X0074527Y0281504D01*
X0072993Y0279969D02*
X0071458Y0281504D01*
X0069924Y0279969D01*
X0069924Y0276900D01*
X0077597Y0276900D02*
X0077597Y0281504D01*
X0079899Y0281504D01*
X0080666Y0280737D01*
X0080666Y0279202D01*
X0079899Y0278435D01*
X0077597Y0278435D01*
X0079131Y0278435D02*
X0080666Y0276900D01*
X0060716Y0276900D02*
X0060716Y0281504D01*
X0059181Y0281504D02*
X0056112Y0281504D01*
X0056112Y0279202D02*
X0057646Y0279202D01*
D19*
X0049290Y0064349D03*
X0049290Y0058936D03*
D20*
X0047765Y0061643D03*
X0163154Y0033985D03*
D21*
X0160448Y0035511D03*
X0165861Y0035511D03*
D22*
X0194713Y0033296D03*
D23*
X0209063Y0015451D02*
X0213267Y0009146D01*
X0215509Y0009146D02*
X0219712Y0009146D01*
X0217611Y0009146D02*
X0217611Y0015451D01*
X0215509Y0013350D01*
X0213267Y0015451D02*
X0209063Y0009146D01*
M02*
