G75*
%MOIN*%
%OFA0B0*%
%FSLAX25Y25*%
%IPPOS*%
%LPD*%
%AMOC8*
5,1,8,0,0,1.08239X$1,22.5*
%
%ADD10C,0.00000*%
%ADD11C,0.01000*%
%ADD12C,0.06300*%
%ADD13OC8,0.06300*%
%ADD14C,0.05600*%
%ADD15OC8,0.05600*%
%ADD16C,0.05200*%
%ADD17C,0.06000*%
%ADD18C,0.09449*%
%ADD19C,0.07000*%
%ADD20R,0.01969X0.05906*%
%ADD21R,0.05906X0.01969*%
%ADD22R,0.04724X0.07087*%
%ADD23R,0.04799X0.08799*%
%ADD24R,0.14173X0.08661*%
%ADD25R,0.05906X0.05118*%
%ADD26R,0.05118X0.05906*%
%ADD27C,0.07800*%
%ADD28C,0.01600*%
%ADD29C,0.03562*%
%ADD30C,0.04000*%
%ADD31C,0.03200*%
%ADD32C,0.05000*%
D10*
X0246800Y0001800D02*
X0259674Y0001800D01*
D11*
X0001800Y0001800D02*
X0001800Y0287233D01*
X0259674Y0287233D01*
X0259674Y0001800D01*
X0001800Y0001800D01*
D12*
X0082619Y0028509D03*
X0102509Y0034666D03*
D13*
X0112509Y0034666D03*
X0082619Y0018509D03*
D14*
X0031800Y0171800D03*
D15*
X0031800Y0161800D03*
X0031800Y0151800D03*
X0031800Y0141800D03*
X0031800Y0131800D03*
X0021800Y0131800D03*
X0021800Y0141800D03*
X0021800Y0151800D03*
X0021800Y0161800D03*
X0021800Y0171800D03*
X0021800Y0201800D03*
X0021800Y0211800D03*
X0021800Y0221800D03*
X0021800Y0231800D03*
X0021800Y0241800D03*
X0031800Y0241800D03*
X0031800Y0231800D03*
X0031800Y0221800D03*
X0031800Y0211800D03*
X0031800Y0201800D03*
D16*
X0186800Y0249200D02*
X0186800Y0254400D01*
X0196800Y0254400D02*
X0196800Y0249200D01*
X0206800Y0249200D02*
X0206800Y0254400D01*
X0216800Y0254400D02*
X0216800Y0249200D01*
X0226800Y0249200D02*
X0226800Y0254400D01*
X0236800Y0254400D02*
X0236800Y0249200D01*
D17*
X0111800Y0224800D02*
X0111800Y0218800D01*
X0091800Y0218800D02*
X0091800Y0224800D01*
X0027800Y0119800D02*
X0021800Y0119800D01*
X0021800Y0109800D02*
X0027800Y0109800D01*
X0027800Y0099800D02*
X0021800Y0099800D01*
X0018800Y0083800D02*
X0012800Y0083800D01*
X0012800Y0073800D02*
X0018800Y0073800D01*
X0018800Y0063800D02*
X0012800Y0063800D01*
X0238800Y0042800D02*
X0244800Y0042800D01*
X0244800Y0032800D02*
X0238800Y0032800D01*
X0238800Y0022800D02*
X0244800Y0022800D01*
D18*
X0064200Y0031576D02*
X0064200Y0041024D01*
X0057487Y0018524D02*
X0048039Y0018524D01*
X0036621Y0031792D02*
X0036621Y0041241D01*
D19*
X0093769Y0255898D02*
X0093769Y0262898D01*
X0113769Y0262898D02*
X0113769Y0255898D01*
X0123769Y0255898D02*
X0123769Y0262898D01*
X0133769Y0262898D02*
X0133769Y0255898D01*
D20*
X0113912Y0200370D03*
X0110763Y0200370D03*
X0107613Y0200370D03*
X0104464Y0200370D03*
X0101314Y0200370D03*
X0098164Y0200370D03*
X0095015Y0200370D03*
X0091865Y0200370D03*
X0088716Y0200370D03*
X0085566Y0200370D03*
X0082416Y0200370D03*
X0082416Y0154701D03*
X0085566Y0154701D03*
X0088716Y0154701D03*
X0091865Y0154701D03*
X0095015Y0154701D03*
X0098164Y0154701D03*
X0101314Y0154701D03*
X0104464Y0154701D03*
X0107613Y0154701D03*
X0110763Y0154701D03*
X0113912Y0154701D03*
D21*
X0120999Y0161788D03*
X0120999Y0164937D03*
X0120999Y0168087D03*
X0120999Y0171236D03*
X0120999Y0174386D03*
X0120999Y0177536D03*
X0120999Y0180685D03*
X0120999Y0183835D03*
X0120999Y0186984D03*
X0120999Y0190134D03*
X0120999Y0193284D03*
X0075330Y0193284D03*
X0075330Y0190134D03*
X0075330Y0186984D03*
X0075330Y0183835D03*
X0075330Y0180685D03*
X0075330Y0177536D03*
X0075330Y0174386D03*
X0075330Y0171236D03*
X0075330Y0168087D03*
X0075330Y0164937D03*
X0075330Y0161788D03*
D22*
X0059800Y0124702D03*
X0059800Y0112898D03*
X0076800Y0235898D03*
X0076800Y0247702D03*
X0206800Y0265898D03*
X0216800Y0265898D03*
X0216800Y0277702D03*
X0206800Y0277702D03*
D23*
X0107898Y0052599D03*
X0098800Y0052599D03*
X0089702Y0052599D03*
D24*
X0098800Y0077001D03*
D25*
X0075619Y0059540D03*
X0075619Y0052060D03*
X0091800Y0238060D03*
X0091800Y0245540D03*
X0111800Y0245540D03*
X0111800Y0238060D03*
D26*
X0109540Y0140800D03*
X0102060Y0140800D03*
X0102060Y0130800D03*
X0109540Y0130800D03*
X0088540Y0140800D03*
X0081060Y0140800D03*
D27*
X0184813Y0037196D02*
X0184813Y0029396D01*
X0204613Y0029396D02*
X0204613Y0037196D01*
D28*
X0200271Y0041763D02*
X0188225Y0041763D01*
X0188527Y0041544D02*
X0187801Y0042071D01*
X0187001Y0042478D01*
X0186148Y0042756D01*
X0185313Y0042888D01*
X0185313Y0033796D01*
X0184313Y0033796D01*
X0184313Y0032796D01*
X0179113Y0032796D01*
X0179113Y0028947D01*
X0179254Y0028061D01*
X0179531Y0027208D01*
X0179938Y0026409D01*
X0180466Y0025683D01*
X0181100Y0025048D01*
X0181826Y0024521D01*
X0182625Y0024114D01*
X0183479Y0023836D01*
X0184313Y0023704D01*
X0184313Y0032796D01*
X0185313Y0032796D01*
X0185313Y0023704D01*
X0186148Y0023836D01*
X0187001Y0024114D01*
X0187801Y0024521D01*
X0188527Y0025048D01*
X0189161Y0025683D01*
X0189688Y0026409D01*
X0190096Y0027208D01*
X0190373Y0028061D01*
X0190513Y0028947D01*
X0190513Y0032796D01*
X0185313Y0032796D01*
X0185313Y0033796D01*
X0190513Y0033796D01*
X0190513Y0037645D01*
X0190373Y0038531D01*
X0190096Y0039384D01*
X0189688Y0040184D01*
X0189161Y0040909D01*
X0188527Y0041544D01*
X0189698Y0040164D02*
X0199024Y0040164D01*
X0199273Y0040765D02*
X0198313Y0038449D01*
X0198313Y0028143D01*
X0199273Y0025827D01*
X0200800Y0024300D01*
X0200800Y0020457D01*
X0196143Y0015800D01*
X0108457Y0015800D01*
X0091326Y0032931D01*
X0089855Y0033540D01*
X0084975Y0033540D01*
X0083723Y0034059D01*
X0082726Y0034059D01*
X0079619Y0037166D01*
X0079619Y0047337D01*
X0079931Y0047466D01*
X0080606Y0048141D01*
X0080796Y0048599D01*
X0084902Y0048599D01*
X0084902Y0047722D01*
X0085267Y0046840D01*
X0085942Y0046165D01*
X0086825Y0045800D01*
X0092579Y0045800D01*
X0093461Y0046165D01*
X0094136Y0046840D01*
X0094251Y0047118D01*
X0094366Y0046840D01*
X0094800Y0046406D01*
X0094800Y0038004D01*
X0095409Y0036534D01*
X0096534Y0035409D01*
X0096959Y0034984D01*
X0096959Y0033562D01*
X0097804Y0031522D01*
X0099365Y0029961D01*
X0101405Y0029116D01*
X0103613Y0029116D01*
X0105652Y0029961D01*
X0107214Y0031522D01*
X0107635Y0032539D01*
X0110458Y0029716D01*
X0112509Y0029716D01*
X0114559Y0029716D01*
X0117459Y0032616D01*
X0117459Y0034666D01*
X0112509Y0034666D01*
X0112509Y0034666D01*
X0117459Y0034666D01*
X0117459Y0036716D01*
X0114559Y0039616D01*
X0112509Y0039616D01*
X0112509Y0034666D01*
X0112509Y0029716D01*
X0112509Y0034666D01*
X0112509Y0034666D01*
X0112509Y0034666D01*
X0112509Y0039616D01*
X0110458Y0039616D01*
X0107635Y0036793D01*
X0107214Y0037810D01*
X0105652Y0039371D01*
X0103613Y0040216D01*
X0103041Y0040216D01*
X0102800Y0040457D01*
X0102800Y0046406D01*
X0103234Y0046840D01*
X0103600Y0047722D01*
X0103600Y0051382D01*
X0103699Y0051622D01*
X0103699Y0047963D01*
X0103821Y0047505D01*
X0104058Y0047094D01*
X0104394Y0046759D01*
X0104804Y0046522D01*
X0105262Y0046400D01*
X0107499Y0046400D01*
X0107499Y0052199D01*
X0108298Y0052199D01*
X0108298Y0046400D01*
X0110535Y0046400D01*
X0110993Y0046522D01*
X0111403Y0046759D01*
X0111738Y0047094D01*
X0111975Y0047505D01*
X0112098Y0047963D01*
X0112098Y0052199D01*
X0108298Y0052199D01*
X0108298Y0052999D01*
X0107499Y0052999D01*
X0107499Y0058799D01*
X0105262Y0058799D01*
X0104804Y0058676D01*
X0104394Y0058439D01*
X0104058Y0058104D01*
X0103821Y0057694D01*
X0103700Y0057240D01*
X0103700Y0070270D01*
X0106364Y0070270D01*
X0107246Y0070635D01*
X0107921Y0071311D01*
X0108287Y0072193D01*
X0108287Y0081809D01*
X0107921Y0082691D01*
X0107246Y0083366D01*
X0106364Y0083731D01*
X0091236Y0083731D01*
X0090354Y0083366D01*
X0089679Y0082691D01*
X0089313Y0081809D01*
X0089313Y0072193D01*
X0089679Y0071311D01*
X0090354Y0070635D01*
X0091236Y0070270D01*
X0093900Y0070270D01*
X0093900Y0058594D01*
X0093461Y0059033D01*
X0092579Y0059399D01*
X0086825Y0059399D01*
X0085942Y0059033D01*
X0085267Y0058358D01*
X0084902Y0057476D01*
X0084902Y0056599D01*
X0081090Y0056599D01*
X0080874Y0056662D01*
X0080334Y0056603D01*
X0080372Y0056744D01*
X0080372Y0059061D01*
X0076098Y0059061D01*
X0076098Y0060020D01*
X0075139Y0060020D01*
X0075139Y0059061D01*
X0070866Y0059061D01*
X0070866Y0056744D01*
X0070978Y0056325D01*
X0070632Y0055978D01*
X0070266Y0055096D01*
X0070266Y0049023D01*
X0070632Y0048141D01*
X0071307Y0047466D01*
X0071619Y0047337D01*
X0071619Y0034713D01*
X0071743Y0034414D01*
X0071324Y0034832D01*
X0071324Y0042442D01*
X0070240Y0045060D01*
X0068236Y0047064D01*
X0065617Y0048149D01*
X0062783Y0048149D01*
X0060164Y0047064D01*
X0058160Y0045060D01*
X0057076Y0042442D01*
X0057076Y0030158D01*
X0058160Y0027540D01*
X0060164Y0025536D01*
X0062783Y0024451D01*
X0065617Y0024451D01*
X0068236Y0025536D01*
X0068771Y0026072D01*
X0069726Y0025118D01*
X0071196Y0024509D01*
X0078770Y0024509D01*
X0079475Y0023804D01*
X0080492Y0023382D01*
X0077669Y0020559D01*
X0077669Y0018509D01*
X0082619Y0018509D01*
X0087569Y0018509D01*
X0087569Y0020559D01*
X0084746Y0023382D01*
X0085763Y0023804D01*
X0087324Y0025365D01*
X0087397Y0025540D01*
X0087403Y0025540D01*
X0104534Y0008409D01*
X0106004Y0007800D01*
X0198596Y0007800D01*
X0200066Y0008409D01*
X0207066Y0015409D01*
X0208191Y0016534D01*
X0208800Y0018004D01*
X0208800Y0024673D01*
X0209954Y0025827D01*
X0210913Y0028143D01*
X0210913Y0038449D01*
X0209954Y0040765D01*
X0208182Y0042537D01*
X0205867Y0043496D01*
X0203360Y0043496D01*
X0201045Y0042537D01*
X0199273Y0040765D01*
X0198362Y0038566D02*
X0190362Y0038566D01*
X0190513Y0036967D02*
X0198313Y0036967D01*
X0198313Y0035369D02*
X0190513Y0035369D01*
X0190513Y0032172D02*
X0198313Y0032172D01*
X0198313Y0033770D02*
X0185313Y0033770D01*
X0184313Y0033770D02*
X0117459Y0033770D01*
X0117459Y0035369D02*
X0179113Y0035369D01*
X0179113Y0033796D02*
X0184313Y0033796D01*
X0184313Y0042888D01*
X0183479Y0042756D01*
X0182625Y0042478D01*
X0181826Y0042071D01*
X0181100Y0041544D01*
X0180466Y0040909D01*
X0179938Y0040184D01*
X0179531Y0039384D01*
X0179254Y0038531D01*
X0179113Y0037645D01*
X0179113Y0033796D01*
X0179113Y0032172D02*
X0117015Y0032172D01*
X0115416Y0030573D02*
X0179113Y0030573D01*
X0179113Y0028975D02*
X0095282Y0028975D01*
X0093684Y0030573D02*
X0098753Y0030573D01*
X0097535Y0032172D02*
X0092085Y0032172D01*
X0096574Y0035369D02*
X0081416Y0035369D01*
X0079817Y0036967D02*
X0095230Y0036967D01*
X0094800Y0038566D02*
X0079619Y0038566D01*
X0079619Y0040164D02*
X0094800Y0040164D01*
X0094800Y0041763D02*
X0079619Y0041763D01*
X0079619Y0043361D02*
X0094800Y0043361D01*
X0094800Y0044960D02*
X0079619Y0044960D01*
X0079619Y0046558D02*
X0085549Y0046558D01*
X0084902Y0048157D02*
X0080613Y0048157D01*
X0071619Y0046558D02*
X0068742Y0046558D01*
X0070281Y0044960D02*
X0071619Y0044960D01*
X0071619Y0043361D02*
X0070943Y0043361D01*
X0071324Y0041763D02*
X0071619Y0041763D01*
X0071619Y0040164D02*
X0071324Y0040164D01*
X0071324Y0038566D02*
X0071619Y0038566D01*
X0071619Y0036967D02*
X0071324Y0036967D01*
X0071324Y0035369D02*
X0071619Y0035369D01*
X0069065Y0025778D02*
X0068478Y0025778D01*
X0062924Y0022157D02*
X0062403Y0022835D01*
X0061798Y0023440D01*
X0061120Y0023961D01*
X0060379Y0024389D01*
X0059589Y0024716D01*
X0058763Y0024937D01*
X0057915Y0025049D01*
X0053538Y0025049D01*
X0053538Y0019299D01*
X0063966Y0019299D01*
X0063900Y0019800D01*
X0063679Y0020626D01*
X0063352Y0021416D01*
X0062924Y0022157D01*
X0062599Y0022581D02*
X0079691Y0022581D01*
X0079100Y0024179D02*
X0060742Y0024179D01*
X0059922Y0025778D02*
X0039150Y0025778D01*
X0039513Y0025928D02*
X0038723Y0025601D01*
X0037897Y0025379D01*
X0037396Y0025313D01*
X0037396Y0035742D01*
X0037396Y0037291D01*
X0043146Y0037291D01*
X0043146Y0041669D01*
X0043034Y0042517D01*
X0042813Y0043343D01*
X0042485Y0044133D01*
X0042058Y0044873D01*
X0041537Y0045552D01*
X0040932Y0046157D01*
X0040254Y0046677D01*
X0039513Y0047105D01*
X0038723Y0047432D01*
X0037897Y0047654D01*
X0037396Y0047720D01*
X0037396Y0037291D01*
X0035846Y0037291D01*
X0035846Y0035742D01*
X0030097Y0035742D01*
X0030097Y0031364D01*
X0030208Y0030517D01*
X0030430Y0029690D01*
X0030757Y0028900D01*
X0031185Y0028160D01*
X0031705Y0027481D01*
X0032310Y0026876D01*
X0032989Y0026356D01*
X0033729Y0025928D01*
X0034520Y0025601D01*
X0035346Y0025379D01*
X0035846Y0025313D01*
X0035846Y0035742D01*
X0037396Y0035742D01*
X0043146Y0035742D01*
X0043146Y0031364D01*
X0043034Y0030517D01*
X0042813Y0029690D01*
X0042485Y0028900D01*
X0042058Y0028160D01*
X0041537Y0027481D01*
X0040932Y0026876D01*
X0040254Y0026356D01*
X0039513Y0025928D01*
X0037396Y0025778D02*
X0035846Y0025778D01*
X0035846Y0027376D02*
X0037396Y0027376D01*
X0037396Y0028975D02*
X0035846Y0028975D01*
X0035846Y0030573D02*
X0037396Y0030573D01*
X0037396Y0032172D02*
X0035846Y0032172D01*
X0035846Y0033770D02*
X0037396Y0033770D01*
X0037396Y0035369D02*
X0035846Y0035369D01*
X0035846Y0036967D02*
X0005100Y0036967D01*
X0005100Y0035369D02*
X0030097Y0035369D01*
X0030097Y0033770D02*
X0005100Y0033770D01*
X0005100Y0032172D02*
X0030097Y0032172D01*
X0030201Y0030573D02*
X0005100Y0030573D01*
X0005100Y0028975D02*
X0030726Y0028975D01*
X0031810Y0027376D02*
X0005100Y0027376D01*
X0005100Y0025778D02*
X0034092Y0025778D01*
X0041432Y0027376D02*
X0058324Y0027376D01*
X0057566Y0028975D02*
X0042516Y0028975D01*
X0043041Y0030573D02*
X0057076Y0030573D01*
X0057076Y0032172D02*
X0043146Y0032172D01*
X0043146Y0033770D02*
X0057076Y0033770D01*
X0057076Y0035369D02*
X0043146Y0035369D01*
X0043146Y0038566D02*
X0057076Y0038566D01*
X0057076Y0040164D02*
X0043146Y0040164D01*
X0043133Y0041763D02*
X0057076Y0041763D01*
X0057457Y0043361D02*
X0042805Y0043361D01*
X0041992Y0044960D02*
X0058119Y0044960D01*
X0059658Y0046558D02*
X0040409Y0046558D01*
X0037396Y0046558D02*
X0035846Y0046558D01*
X0035846Y0047720D02*
X0035346Y0047654D01*
X0034520Y0047432D01*
X0033729Y0047105D01*
X0032989Y0046677D01*
X0032310Y0046157D01*
X0031705Y0045552D01*
X0031185Y0044873D01*
X0030757Y0044133D01*
X0030430Y0043343D01*
X0030208Y0042517D01*
X0030097Y0041669D01*
X0030097Y0037291D01*
X0035846Y0037291D01*
X0035846Y0047720D01*
X0035846Y0044960D02*
X0037396Y0044960D01*
X0037396Y0043361D02*
X0035846Y0043361D01*
X0035846Y0041763D02*
X0037396Y0041763D01*
X0037396Y0040164D02*
X0035846Y0040164D01*
X0035846Y0038566D02*
X0037396Y0038566D01*
X0037396Y0036967D02*
X0057076Y0036967D01*
X0051988Y0025049D02*
X0047611Y0025049D01*
X0046763Y0024937D01*
X0045937Y0024716D01*
X0045147Y0024389D01*
X0044406Y0023961D01*
X0043728Y0023440D01*
X0043123Y0022835D01*
X0042602Y0022157D01*
X0042174Y0021416D01*
X0041847Y0020626D01*
X0041626Y0019800D01*
X0041560Y0019299D01*
X0051988Y0019299D01*
X0051988Y0017750D01*
X0041560Y0017750D01*
X0041626Y0017249D01*
X0041847Y0016423D01*
X0042174Y0015633D01*
X0042602Y0014892D01*
X0043123Y0014213D01*
X0043728Y0013609D01*
X0044406Y0013088D01*
X0045147Y0012660D01*
X0045937Y0012333D01*
X0046763Y0012112D01*
X0047611Y0012000D01*
X0051988Y0012000D01*
X0051988Y0017750D01*
X0053538Y0017750D01*
X0053538Y0019299D01*
X0051988Y0019299D01*
X0051988Y0025049D01*
X0051988Y0024179D02*
X0053538Y0024179D01*
X0053538Y0022581D02*
X0051988Y0022581D01*
X0051988Y0020982D02*
X0053538Y0020982D01*
X0053538Y0019384D02*
X0051988Y0019384D01*
X0051988Y0017785D02*
X0005100Y0017785D01*
X0005100Y0016187D02*
X0041945Y0016187D01*
X0042835Y0014588D02*
X0005100Y0014588D01*
X0005100Y0012990D02*
X0044576Y0012990D01*
X0041571Y0019384D02*
X0005100Y0019384D01*
X0005100Y0020982D02*
X0041995Y0020982D01*
X0042927Y0022581D02*
X0005100Y0022581D01*
X0005100Y0024179D02*
X0044784Y0024179D01*
X0051988Y0016187D02*
X0053538Y0016187D01*
X0053538Y0017750D02*
X0053538Y0012000D01*
X0057915Y0012000D01*
X0058763Y0012112D01*
X0059589Y0012333D01*
X0060379Y0012660D01*
X0061120Y0013088D01*
X0061798Y0013609D01*
X0062403Y0014213D01*
X0062924Y0014892D01*
X0063352Y0015633D01*
X0063679Y0016423D01*
X0063900Y0017249D01*
X0063966Y0017750D01*
X0053538Y0017750D01*
X0053538Y0017785D02*
X0077669Y0017785D01*
X0077669Y0018509D02*
X0077669Y0016458D01*
X0080569Y0013559D01*
X0082619Y0013559D01*
X0084669Y0013559D01*
X0087569Y0016458D01*
X0087569Y0018509D01*
X0082619Y0018509D01*
X0082619Y0018509D01*
X0082619Y0018509D01*
X0077669Y0018509D01*
X0077669Y0019384D02*
X0063955Y0019384D01*
X0063531Y0020982D02*
X0078092Y0020982D01*
X0077941Y0016187D02*
X0063581Y0016187D01*
X0062691Y0014588D02*
X0079539Y0014588D01*
X0082619Y0014588D02*
X0082619Y0014588D01*
X0082619Y0013559D02*
X0082619Y0018509D01*
X0082619Y0018509D01*
X0082619Y0013559D01*
X0082619Y0016187D02*
X0082619Y0016187D01*
X0082619Y0017785D02*
X0082619Y0017785D01*
X0085699Y0014588D02*
X0098355Y0014588D01*
X0099954Y0012990D02*
X0060950Y0012990D01*
X0053538Y0012990D02*
X0051988Y0012990D01*
X0051988Y0014588D02*
X0053538Y0014588D01*
X0030097Y0038566D02*
X0005100Y0038566D01*
X0005100Y0040164D02*
X0030097Y0040164D01*
X0030109Y0041763D02*
X0005100Y0041763D01*
X0005100Y0043361D02*
X0030438Y0043361D01*
X0031251Y0044960D02*
X0005100Y0044960D01*
X0005100Y0046558D02*
X0032833Y0046558D01*
X0021859Y0059222D02*
X0023378Y0060741D01*
X0024200Y0062726D01*
X0024200Y0064874D01*
X0023378Y0066859D01*
X0021859Y0068378D01*
X0020840Y0068800D01*
X0021859Y0069222D01*
X0023378Y0070741D01*
X0024200Y0072726D01*
X0024200Y0074874D01*
X0023378Y0076859D01*
X0021859Y0078378D01*
X0020840Y0078800D01*
X0021859Y0079222D01*
X0023378Y0080741D01*
X0024200Y0082726D01*
X0024200Y0084874D01*
X0023378Y0086859D01*
X0022437Y0087800D01*
X0077531Y0087800D01*
X0077968Y0087619D01*
X0079632Y0087619D01*
X0080069Y0087800D01*
X0097596Y0087800D01*
X0099066Y0088409D01*
X0104066Y0093409D01*
X0105191Y0094534D01*
X0105800Y0096004D01*
X0105800Y0125739D01*
X0105978Y0125813D01*
X0106325Y0126159D01*
X0106744Y0126047D01*
X0109061Y0126047D01*
X0109061Y0130320D01*
X0110020Y0130320D01*
X0110020Y0126047D01*
X0112336Y0126047D01*
X0112794Y0126170D01*
X0113204Y0126407D01*
X0113540Y0126742D01*
X0113777Y0127152D01*
X0113899Y0127610D01*
X0113899Y0130320D01*
X0110020Y0130320D01*
X0110020Y0131280D01*
X0109061Y0131280D01*
X0109061Y0135553D01*
X0106744Y0135553D01*
X0106325Y0135441D01*
X0106060Y0135706D01*
X0106060Y0135894D01*
X0106325Y0136159D01*
X0106744Y0136047D01*
X0109061Y0136047D01*
X0109061Y0140320D01*
X0110020Y0140320D01*
X0110020Y0136047D01*
X0112336Y0136047D01*
X0112794Y0136170D01*
X0113204Y0136407D01*
X0113540Y0136742D01*
X0113777Y0137152D01*
X0113899Y0137610D01*
X0113899Y0140320D01*
X0110020Y0140320D01*
X0110020Y0141280D01*
X0109061Y0141280D01*
X0109061Y0145553D01*
X0106744Y0145553D01*
X0106325Y0145441D01*
X0105978Y0145787D01*
X0105096Y0146153D01*
X0104514Y0146153D01*
X0104514Y0149348D01*
X0105925Y0149348D01*
X0106038Y0149395D01*
X0106152Y0149348D01*
X0109075Y0149348D01*
X0109188Y0149395D01*
X0109301Y0149348D01*
X0112225Y0149348D01*
X0112338Y0149395D01*
X0112451Y0149348D01*
X0115374Y0149348D01*
X0116256Y0149714D01*
X0116931Y0150389D01*
X0117297Y0151271D01*
X0117297Y0158131D01*
X0117104Y0158596D01*
X0117569Y0158403D01*
X0124429Y0158403D01*
X0125311Y0158769D01*
X0125986Y0159444D01*
X0126352Y0160326D01*
X0126352Y0163249D01*
X0126305Y0163362D01*
X0126352Y0163475D01*
X0126352Y0164887D01*
X0151723Y0164887D01*
X0152899Y0165374D01*
X0218613Y0231087D01*
X0219513Y0231987D01*
X0220000Y0233163D01*
X0220000Y0243837D01*
X0220000Y0244163D01*
X0220000Y0245329D01*
X0221039Y0246368D01*
X0221800Y0248205D01*
X0222561Y0246368D01*
X0223968Y0244961D01*
X0225805Y0244200D01*
X0227795Y0244200D01*
X0229632Y0244961D01*
X0231039Y0246368D01*
X0231800Y0248205D01*
X0231800Y0255395D01*
X0231039Y0257232D01*
X0230800Y0257471D01*
X0230800Y0272596D01*
X0230191Y0274066D01*
X0229066Y0275191D01*
X0224066Y0280191D01*
X0222596Y0280800D01*
X0221562Y0280800D01*
X0221562Y0281722D01*
X0221197Y0282604D01*
X0220522Y0283279D01*
X0219640Y0283645D01*
X0213960Y0283645D01*
X0213078Y0283279D01*
X0212403Y0282604D01*
X0212038Y0281722D01*
X0212038Y0280800D01*
X0211562Y0280800D01*
X0211562Y0281722D01*
X0211197Y0282604D01*
X0210522Y0283279D01*
X0209640Y0283645D01*
X0203960Y0283645D01*
X0203078Y0283279D01*
X0202403Y0282604D01*
X0202038Y0281722D01*
X0202038Y0280800D01*
X0101004Y0280800D01*
X0099534Y0280191D01*
X0091503Y0272160D01*
X0090377Y0271034D01*
X0089769Y0269564D01*
X0089769Y0267242D01*
X0088767Y0266241D01*
X0087869Y0264072D01*
X0087869Y0263398D01*
X0018603Y0263398D01*
X0017133Y0262789D01*
X0016007Y0261664D01*
X0009534Y0255191D01*
X0008409Y0254066D01*
X0007800Y0252596D01*
X0007800Y0096004D01*
X0008409Y0094534D01*
X0011800Y0091143D01*
X0011800Y0089200D01*
X0011726Y0089200D01*
X0009741Y0088378D01*
X0008222Y0086859D01*
X0007400Y0084874D01*
X0007400Y0082726D01*
X0008222Y0080741D01*
X0009741Y0079222D01*
X0010760Y0078800D01*
X0009741Y0078378D01*
X0008222Y0076859D01*
X0007400Y0074874D01*
X0007400Y0072726D01*
X0008222Y0070741D01*
X0009741Y0069222D01*
X0010760Y0068800D01*
X0009741Y0068378D01*
X0008222Y0066859D01*
X0007400Y0064874D01*
X0007400Y0062726D01*
X0008222Y0060741D01*
X0009741Y0059222D01*
X0011726Y0058400D01*
X0019874Y0058400D01*
X0021859Y0059222D01*
X0021983Y0059346D02*
X0075139Y0059346D01*
X0075139Y0060020D02*
X0070866Y0060020D01*
X0070866Y0062336D01*
X0070989Y0062794D01*
X0071226Y0063204D01*
X0071561Y0063540D01*
X0071971Y0063777D01*
X0072429Y0063899D01*
X0075139Y0063899D01*
X0075139Y0060020D01*
X0075139Y0060945D02*
X0076098Y0060945D01*
X0076098Y0060020D02*
X0076098Y0063899D01*
X0078809Y0063899D01*
X0079266Y0063777D01*
X0079677Y0063540D01*
X0080012Y0063204D01*
X0080249Y0062794D01*
X0080372Y0062336D01*
X0080372Y0060020D01*
X0076098Y0060020D01*
X0076098Y0059346D02*
X0086698Y0059346D01*
X0085015Y0057748D02*
X0080372Y0057748D01*
X0080372Y0060945D02*
X0093900Y0060945D01*
X0093900Y0062543D02*
X0080316Y0062543D01*
X0076098Y0062543D02*
X0075139Y0062543D01*
X0070922Y0062543D02*
X0024124Y0062543D01*
X0024200Y0064142D02*
X0093900Y0064142D01*
X0093900Y0065740D02*
X0023841Y0065740D01*
X0022898Y0067339D02*
X0093900Y0067339D01*
X0093900Y0068937D02*
X0021172Y0068937D01*
X0023173Y0070536D02*
X0090594Y0070536D01*
X0089337Y0072134D02*
X0023955Y0072134D01*
X0024200Y0073733D02*
X0089313Y0073733D01*
X0089313Y0075332D02*
X0024011Y0075332D01*
X0023307Y0076930D02*
X0089313Y0076930D01*
X0089313Y0078529D02*
X0021495Y0078529D01*
X0022764Y0080127D02*
X0089313Y0080127D01*
X0089313Y0081726D02*
X0023786Y0081726D01*
X0024200Y0083324D02*
X0090312Y0083324D01*
X0098367Y0088120D02*
X0256374Y0088120D01*
X0256374Y0089718D02*
X0100375Y0089718D01*
X0101973Y0091317D02*
X0256374Y0091317D01*
X0256374Y0092915D02*
X0103572Y0092915D01*
X0105171Y0094514D02*
X0256374Y0094514D01*
X0256374Y0096112D02*
X0105800Y0096112D01*
X0105800Y0097711D02*
X0256374Y0097711D01*
X0256374Y0099309D02*
X0105800Y0099309D01*
X0105800Y0100908D02*
X0256374Y0100908D01*
X0256374Y0102506D02*
X0105800Y0102506D01*
X0105800Y0104105D02*
X0256374Y0104105D01*
X0256374Y0105703D02*
X0105800Y0105703D01*
X0105800Y0107302D02*
X0256374Y0107302D01*
X0256374Y0108900D02*
X0105800Y0108900D01*
X0105800Y0110499D02*
X0256374Y0110499D01*
X0256374Y0112097D02*
X0105800Y0112097D01*
X0105800Y0113696D02*
X0256374Y0113696D01*
X0256374Y0115294D02*
X0105800Y0115294D01*
X0105800Y0116893D02*
X0256374Y0116893D01*
X0256374Y0118491D02*
X0105800Y0118491D01*
X0105800Y0120090D02*
X0256374Y0120090D01*
X0256374Y0121688D02*
X0105800Y0121688D01*
X0105800Y0123287D02*
X0256374Y0123287D01*
X0256374Y0124885D02*
X0105800Y0124885D01*
X0109061Y0126484D02*
X0110020Y0126484D01*
X0110020Y0128082D02*
X0109061Y0128082D01*
X0109061Y0129681D02*
X0110020Y0129681D01*
X0110020Y0131279D02*
X0256374Y0131279D01*
X0256374Y0129681D02*
X0113899Y0129681D01*
X0113899Y0131280D02*
X0110020Y0131280D01*
X0110020Y0135553D01*
X0112336Y0135553D01*
X0112794Y0135430D01*
X0113204Y0135193D01*
X0113540Y0134858D01*
X0113777Y0134448D01*
X0113899Y0133990D01*
X0113899Y0131280D01*
X0113899Y0132878D02*
X0256374Y0132878D01*
X0256374Y0134476D02*
X0113760Y0134476D01*
X0112440Y0136075D02*
X0256374Y0136075D01*
X0256374Y0137673D02*
X0113899Y0137673D01*
X0113899Y0139272D02*
X0256374Y0139272D01*
X0256374Y0140870D02*
X0110020Y0140870D01*
X0110020Y0141280D02*
X0113899Y0141280D01*
X0113899Y0143990D01*
X0113777Y0144448D01*
X0113540Y0144858D01*
X0113204Y0145193D01*
X0112794Y0145430D01*
X0112336Y0145553D01*
X0110020Y0145553D01*
X0110020Y0141280D01*
X0110020Y0142469D02*
X0109061Y0142469D01*
X0109061Y0144068D02*
X0110020Y0144068D01*
X0113878Y0144068D02*
X0256374Y0144068D01*
X0256374Y0145666D02*
X0106100Y0145666D01*
X0104514Y0147265D02*
X0256374Y0147265D01*
X0256374Y0148863D02*
X0104514Y0148863D01*
X0098114Y0148863D02*
X0097389Y0148863D01*
X0097728Y0149202D02*
X0098037Y0149948D01*
X0098114Y0149948D01*
X0098114Y0145760D01*
X0097466Y0145112D01*
X0097101Y0144230D01*
X0097101Y0137370D01*
X0097466Y0136488D01*
X0098060Y0135894D01*
X0098060Y0135706D01*
X0097466Y0135112D01*
X0097101Y0134230D01*
X0097101Y0127370D01*
X0097466Y0126488D01*
X0097800Y0126154D01*
X0097800Y0098457D01*
X0095143Y0095800D01*
X0080069Y0095800D01*
X0079632Y0095981D01*
X0077968Y0095981D01*
X0077531Y0095800D01*
X0063000Y0095800D01*
X0063000Y0107104D01*
X0063522Y0107320D01*
X0064197Y0107996D01*
X0064562Y0108878D01*
X0064562Y0116919D01*
X0064197Y0117801D01*
X0063522Y0118476D01*
X0062740Y0118800D01*
X0063522Y0119124D01*
X0064197Y0119799D01*
X0064562Y0120681D01*
X0064562Y0128722D01*
X0064197Y0129604D01*
X0063522Y0130279D01*
X0063000Y0130496D01*
X0063000Y0153048D01*
X0063255Y0152432D01*
X0064432Y0151255D01*
X0065968Y0150619D01*
X0067632Y0150619D01*
X0069168Y0151255D01*
X0070345Y0152432D01*
X0070981Y0153968D01*
X0070981Y0155456D01*
X0073929Y0158403D01*
X0078760Y0158403D01*
X0079225Y0158596D01*
X0079032Y0158131D01*
X0079032Y0151271D01*
X0079398Y0150389D01*
X0080073Y0149714D01*
X0080955Y0149348D01*
X0083878Y0149348D01*
X0083991Y0149395D01*
X0084104Y0149348D01*
X0087028Y0149348D01*
X0087141Y0149395D01*
X0087254Y0149348D01*
X0088823Y0149348D01*
X0086987Y0147513D01*
X0086087Y0146613D01*
X0085897Y0146153D01*
X0085504Y0146153D01*
X0084622Y0145787D01*
X0084275Y0145441D01*
X0083856Y0145553D01*
X0081539Y0145553D01*
X0081539Y0141280D01*
X0080580Y0141280D01*
X0080580Y0145553D01*
X0078264Y0145553D01*
X0077806Y0145430D01*
X0077396Y0145193D01*
X0077060Y0144858D01*
X0076823Y0144448D01*
X0076701Y0143990D01*
X0076701Y0141280D01*
X0080580Y0141280D01*
X0080580Y0140320D01*
X0081539Y0140320D01*
X0081539Y0136047D01*
X0083856Y0136047D01*
X0084275Y0136159D01*
X0084622Y0135813D01*
X0085504Y0135447D01*
X0091577Y0135447D01*
X0092459Y0135813D01*
X0093134Y0136488D01*
X0093499Y0137370D01*
X0093499Y0144230D01*
X0093281Y0144756D01*
X0097728Y0149202D01*
X0098114Y0147265D02*
X0095790Y0147265D01*
X0094191Y0145666D02*
X0098020Y0145666D01*
X0097101Y0144068D02*
X0093499Y0144068D01*
X0093499Y0142469D02*
X0097101Y0142469D01*
X0097101Y0140870D02*
X0093499Y0140870D01*
X0093499Y0139272D02*
X0097101Y0139272D01*
X0097101Y0137673D02*
X0093499Y0137673D01*
X0092721Y0136075D02*
X0097879Y0136075D01*
X0097203Y0134476D02*
X0063000Y0134476D01*
X0063000Y0132878D02*
X0097101Y0132878D01*
X0097101Y0131279D02*
X0063000Y0131279D01*
X0064120Y0129681D02*
X0097101Y0129681D01*
X0097101Y0128082D02*
X0064562Y0128082D01*
X0064562Y0126484D02*
X0097470Y0126484D01*
X0097800Y0124885D02*
X0064562Y0124885D01*
X0064562Y0123287D02*
X0097800Y0123287D01*
X0097800Y0121688D02*
X0064562Y0121688D01*
X0064317Y0120090D02*
X0097800Y0120090D01*
X0097800Y0118491D02*
X0063486Y0118491D01*
X0064562Y0116893D02*
X0097800Y0116893D01*
X0097800Y0115294D02*
X0064562Y0115294D01*
X0064562Y0113696D02*
X0097800Y0113696D01*
X0097800Y0112097D02*
X0064562Y0112097D01*
X0064562Y0110499D02*
X0097800Y0110499D01*
X0097800Y0108900D02*
X0064562Y0108900D01*
X0063476Y0107302D02*
X0097800Y0107302D01*
X0097800Y0105703D02*
X0063000Y0105703D01*
X0063000Y0104105D02*
X0097800Y0104105D01*
X0097800Y0102506D02*
X0063000Y0102506D01*
X0063000Y0100908D02*
X0097800Y0100908D01*
X0097800Y0099309D02*
X0063000Y0099309D01*
X0063000Y0097711D02*
X0097054Y0097711D01*
X0095455Y0096112D02*
X0063000Y0096112D01*
X0059800Y0093800D02*
X0061800Y0091800D01*
X0059800Y0093800D02*
X0059800Y0112898D01*
X0055038Y0113696D02*
X0043221Y0113696D01*
X0041623Y0112097D02*
X0055038Y0112097D01*
X0055038Y0110499D02*
X0040024Y0110499D01*
X0038426Y0108900D02*
X0055038Y0108900D01*
X0055038Y0108878D02*
X0055403Y0107996D01*
X0056078Y0107320D01*
X0056600Y0107104D01*
X0056600Y0095800D01*
X0031437Y0095800D01*
X0032378Y0096741D01*
X0033200Y0098726D01*
X0033200Y0100874D01*
X0032378Y0102859D01*
X0030859Y0104378D01*
X0029840Y0104800D01*
X0030859Y0105222D01*
X0032237Y0106600D01*
X0035437Y0106600D01*
X0036613Y0107087D01*
X0051125Y0121600D01*
X0055038Y0121600D01*
X0055038Y0120681D01*
X0055403Y0119799D01*
X0056078Y0119124D01*
X0056860Y0118800D01*
X0056078Y0118476D01*
X0055403Y0117801D01*
X0055038Y0116919D01*
X0055038Y0108878D01*
X0056124Y0107302D02*
X0036827Y0107302D01*
X0034800Y0109800D02*
X0049800Y0124800D01*
X0059702Y0124800D01*
X0059800Y0124702D01*
X0059800Y0163800D01*
X0067236Y0171236D01*
X0075330Y0171236D01*
X0075330Y0174386D02*
X0093514Y0174386D01*
X0095015Y0175887D01*
X0095015Y0200370D01*
X0098164Y0200370D02*
X0098164Y0194436D01*
X0106800Y0185800D01*
X0110823Y0180248D02*
X0101500Y0170925D01*
X0097910Y0174515D01*
X0098215Y0175250D01*
X0098215Y0195617D01*
X0098736Y0195617D01*
X0098970Y0195383D01*
X0099852Y0195017D01*
X0102776Y0195017D01*
X0102889Y0195064D01*
X0103002Y0195017D01*
X0105925Y0195017D01*
X0106038Y0195064D01*
X0106152Y0195017D01*
X0109075Y0195017D01*
X0109188Y0195064D01*
X0109301Y0195017D01*
X0112225Y0195017D01*
X0112338Y0195064D01*
X0112451Y0195017D01*
X0115374Y0195017D01*
X0115839Y0195210D01*
X0115646Y0194745D01*
X0115646Y0191822D01*
X0115693Y0191709D01*
X0115646Y0191596D01*
X0115646Y0188672D01*
X0115693Y0188559D01*
X0115646Y0188446D01*
X0115646Y0185523D01*
X0115693Y0185410D01*
X0115646Y0185296D01*
X0115646Y0182373D01*
X0115693Y0182260D01*
X0115646Y0182147D01*
X0115646Y0180736D01*
X0111999Y0180736D01*
X0110823Y0180248D01*
X0109809Y0179235D02*
X0098215Y0179235D01*
X0098215Y0180833D02*
X0115646Y0180833D01*
X0115646Y0182432D02*
X0098215Y0182432D01*
X0098215Y0184030D02*
X0115646Y0184030D01*
X0115646Y0185629D02*
X0098215Y0185629D01*
X0098215Y0187227D02*
X0115646Y0187227D01*
X0115646Y0188826D02*
X0098215Y0188826D01*
X0098215Y0190424D02*
X0115646Y0190424D01*
X0115646Y0192023D02*
X0098215Y0192023D01*
X0098215Y0193621D02*
X0115646Y0193621D01*
X0117104Y0196475D02*
X0117297Y0196940D01*
X0117297Y0198771D01*
X0141125Y0222600D01*
X0178437Y0222600D01*
X0179613Y0223087D01*
X0198613Y0242087D01*
X0199513Y0242987D01*
X0200000Y0244163D01*
X0200000Y0245329D01*
X0201039Y0246368D01*
X0201800Y0248205D01*
X0201800Y0255395D01*
X0201039Y0257232D01*
X0199632Y0258639D01*
X0197795Y0259400D01*
X0195805Y0259400D01*
X0193968Y0258639D01*
X0192561Y0257232D01*
X0191800Y0255395D01*
X0191039Y0257232D01*
X0189632Y0258639D01*
X0187795Y0259400D01*
X0185805Y0259400D01*
X0183968Y0258639D01*
X0182561Y0257232D01*
X0181800Y0255395D01*
X0181800Y0248205D01*
X0182561Y0246368D01*
X0183968Y0244961D01*
X0185805Y0244200D01*
X0187795Y0244200D01*
X0189632Y0244961D01*
X0191039Y0246368D01*
X0191800Y0248205D01*
X0191800Y0255395D01*
X0191800Y0248205D01*
X0192561Y0246368D01*
X0193202Y0245727D01*
X0176475Y0229000D01*
X0139163Y0229000D01*
X0137987Y0228513D01*
X0137087Y0227613D01*
X0137000Y0227525D01*
X0137000Y0250851D01*
X0137111Y0250897D01*
X0138770Y0252556D01*
X0139668Y0254725D01*
X0139668Y0264072D01*
X0138770Y0266241D01*
X0137111Y0267900D01*
X0134942Y0268798D01*
X0132595Y0268798D01*
X0130426Y0267900D01*
X0128768Y0266242D01*
X0127111Y0267900D01*
X0124942Y0268798D01*
X0122595Y0268798D01*
X0120426Y0267900D01*
X0118767Y0266241D01*
X0118429Y0265426D01*
X0118301Y0265676D01*
X0117811Y0266351D01*
X0117221Y0266941D01*
X0116546Y0267431D01*
X0115803Y0267810D01*
X0115010Y0268068D01*
X0114186Y0268198D01*
X0113769Y0268198D01*
X0113769Y0259399D01*
X0113768Y0259399D01*
X0113768Y0268198D01*
X0113351Y0268198D01*
X0112527Y0268068D01*
X0111734Y0267810D01*
X0110991Y0267431D01*
X0110316Y0266941D01*
X0109726Y0266351D01*
X0109236Y0265676D01*
X0108857Y0264933D01*
X0108599Y0264140D01*
X0108469Y0263316D01*
X0108469Y0259398D01*
X0108469Y0255481D01*
X0108599Y0254657D01*
X0108857Y0253864D01*
X0109236Y0253121D01*
X0109726Y0252446D01*
X0110316Y0251856D01*
X0110991Y0251365D01*
X0111734Y0250987D01*
X0112527Y0250729D01*
X0113351Y0250598D01*
X0113768Y0250598D01*
X0113768Y0259398D01*
X0108469Y0259398D01*
X0113768Y0259398D01*
X0113768Y0259398D01*
X0113769Y0259398D01*
X0113769Y0250598D01*
X0114186Y0250598D01*
X0115010Y0250729D01*
X0115803Y0250987D01*
X0116546Y0251365D01*
X0117221Y0251856D01*
X0117811Y0252446D01*
X0118301Y0253121D01*
X0118429Y0253371D01*
X0118767Y0252556D01*
X0120426Y0250897D01*
X0120569Y0250838D01*
X0120569Y0221891D01*
X0117200Y0218522D01*
X0117200Y0225874D01*
X0116378Y0227859D01*
X0115000Y0229237D01*
X0115000Y0233101D01*
X0115230Y0233101D01*
X0116112Y0233466D01*
X0116787Y0234141D01*
X0117153Y0235023D01*
X0117153Y0241096D01*
X0116787Y0241978D01*
X0116441Y0242325D01*
X0116553Y0242744D01*
X0116553Y0245061D01*
X0112280Y0245061D01*
X0112280Y0246020D01*
X0116553Y0246020D01*
X0116553Y0248336D01*
X0116430Y0248794D01*
X0116193Y0249204D01*
X0115858Y0249540D01*
X0115448Y0249777D01*
X0114990Y0249899D01*
X0112280Y0249899D01*
X0112280Y0246020D01*
X0111320Y0246020D01*
X0111320Y0245061D01*
X0107047Y0245061D01*
X0107047Y0242744D01*
X0107159Y0242325D01*
X0106813Y0241978D01*
X0106447Y0241096D01*
X0106447Y0235023D01*
X0106813Y0234141D01*
X0107488Y0233466D01*
X0108370Y0233101D01*
X0108600Y0233101D01*
X0108600Y0229237D01*
X0107222Y0227859D01*
X0106400Y0225874D01*
X0106400Y0220925D01*
X0101800Y0216325D01*
X0097200Y0220925D01*
X0097200Y0225874D01*
X0096378Y0227859D01*
X0095000Y0229237D01*
X0095000Y0233101D01*
X0095230Y0233101D01*
X0096112Y0233466D01*
X0096787Y0234141D01*
X0097153Y0235023D01*
X0097153Y0241096D01*
X0096787Y0241978D01*
X0096441Y0242325D01*
X0096553Y0242744D01*
X0096553Y0245061D01*
X0092280Y0245061D01*
X0092280Y0246020D01*
X0096553Y0246020D01*
X0096553Y0248336D01*
X0096430Y0248794D01*
X0096193Y0249204D01*
X0095858Y0249540D01*
X0095448Y0249777D01*
X0094990Y0249899D01*
X0092280Y0249899D01*
X0092280Y0246020D01*
X0091320Y0246020D01*
X0091320Y0245061D01*
X0087047Y0245061D01*
X0087047Y0242744D01*
X0087159Y0242325D01*
X0086813Y0241978D01*
X0086447Y0241096D01*
X0086447Y0235023D01*
X0086813Y0234141D01*
X0087488Y0233466D01*
X0088370Y0233101D01*
X0088600Y0233101D01*
X0088600Y0229237D01*
X0087222Y0227859D01*
X0086400Y0225874D01*
X0086400Y0218725D01*
X0084000Y0221125D01*
X0084000Y0223087D01*
X0084345Y0223432D01*
X0084981Y0224968D01*
X0084981Y0226632D01*
X0084345Y0228168D01*
X0084000Y0228513D01*
X0084000Y0230437D01*
X0083513Y0231613D01*
X0081562Y0233563D01*
X0081562Y0239919D01*
X0081197Y0240801D01*
X0080522Y0241476D01*
X0079740Y0241800D01*
X0080522Y0242124D01*
X0081197Y0242799D01*
X0081562Y0243681D01*
X0081562Y0251722D01*
X0081197Y0252604D01*
X0080800Y0253001D01*
X0080800Y0255398D01*
X0087869Y0255398D01*
X0087869Y0254725D01*
X0088767Y0252556D01*
X0090426Y0250897D01*
X0092595Y0249998D01*
X0094942Y0249998D01*
X0097111Y0250897D01*
X0098770Y0252556D01*
X0099668Y0254725D01*
X0099668Y0264072D01*
X0098770Y0266241D01*
X0097834Y0267177D01*
X0103457Y0272800D01*
X0202403Y0272800D01*
X0202403Y0272799D01*
X0203078Y0272124D01*
X0203860Y0271800D01*
X0203078Y0271476D01*
X0202403Y0270801D01*
X0202038Y0269919D01*
X0202038Y0261878D01*
X0202403Y0260996D01*
X0203078Y0260320D01*
X0203600Y0260104D01*
X0203600Y0258271D01*
X0202561Y0257232D01*
X0201800Y0255395D01*
X0201800Y0248205D01*
X0202561Y0246368D01*
X0203600Y0245329D01*
X0203600Y0235125D01*
X0142911Y0174436D01*
X0125752Y0174436D01*
X0125752Y0174957D01*
X0125986Y0175192D01*
X0126352Y0176074D01*
X0126352Y0178997D01*
X0126305Y0179110D01*
X0126352Y0179223D01*
X0126352Y0182147D01*
X0126305Y0182260D01*
X0126352Y0182373D01*
X0126352Y0185296D01*
X0126305Y0185410D01*
X0126352Y0185523D01*
X0126352Y0188446D01*
X0126305Y0188559D01*
X0126352Y0188672D01*
X0126352Y0191596D01*
X0126305Y0191709D01*
X0126352Y0191822D01*
X0126352Y0194745D01*
X0125986Y0195627D01*
X0125311Y0196302D01*
X0124429Y0196668D01*
X0117569Y0196668D01*
X0117104Y0196475D01*
X0117246Y0196818D02*
X0165293Y0196818D01*
X0163694Y0195220D02*
X0126155Y0195220D01*
X0126352Y0193621D02*
X0162096Y0193621D01*
X0160497Y0192023D02*
X0126352Y0192023D01*
X0126352Y0190424D02*
X0158899Y0190424D01*
X0157300Y0188826D02*
X0126352Y0188826D01*
X0126352Y0187227D02*
X0155702Y0187227D01*
X0154103Y0185629D02*
X0126352Y0185629D01*
X0126352Y0184030D02*
X0152505Y0184030D01*
X0150906Y0182432D02*
X0126352Y0182432D01*
X0126352Y0180833D02*
X0149308Y0180833D01*
X0147709Y0179235D02*
X0126352Y0179235D01*
X0126352Y0177636D02*
X0146111Y0177636D01*
X0144512Y0176038D02*
X0126337Y0176038D01*
X0125752Y0174439D02*
X0142914Y0174439D01*
X0144236Y0171236D02*
X0206800Y0233800D01*
X0206800Y0251800D01*
X0206800Y0265898D01*
X0202038Y0265554D02*
X0139054Y0265554D01*
X0139668Y0263956D02*
X0202038Y0263956D01*
X0202038Y0262357D02*
X0139668Y0262357D01*
X0139668Y0260759D02*
X0202640Y0260759D01*
X0203600Y0259160D02*
X0198373Y0259160D01*
X0200709Y0257562D02*
X0202891Y0257562D01*
X0202036Y0255963D02*
X0201564Y0255963D01*
X0201800Y0254365D02*
X0201800Y0254365D01*
X0201800Y0252766D02*
X0201800Y0252766D01*
X0201800Y0251168D02*
X0201800Y0251168D01*
X0201800Y0249569D02*
X0201800Y0249569D01*
X0201703Y0247971D02*
X0201897Y0247971D01*
X0202559Y0246372D02*
X0201041Y0246372D01*
X0200000Y0244774D02*
X0203600Y0244774D01*
X0203600Y0243175D02*
X0199591Y0243175D01*
X0198102Y0241577D02*
X0203600Y0241577D01*
X0203600Y0239978D02*
X0196504Y0239978D01*
X0194905Y0238380D02*
X0203600Y0238380D01*
X0203600Y0236781D02*
X0193307Y0236781D01*
X0191708Y0235183D02*
X0203600Y0235183D01*
X0202059Y0233584D02*
X0190110Y0233584D01*
X0188511Y0231986D02*
X0200460Y0231986D01*
X0198862Y0230387D02*
X0186913Y0230387D01*
X0185314Y0228789D02*
X0197263Y0228789D01*
X0195665Y0227190D02*
X0183716Y0227190D01*
X0182117Y0225592D02*
X0194066Y0225592D01*
X0192468Y0223993D02*
X0180519Y0223993D01*
X0177800Y0225800D02*
X0196800Y0244800D01*
X0196800Y0251800D01*
X0191800Y0251168D02*
X0191800Y0251168D01*
X0191800Y0252766D02*
X0191800Y0252766D01*
X0191800Y0254365D02*
X0191800Y0254365D01*
X0191564Y0255963D02*
X0192036Y0255963D01*
X0192891Y0257562D02*
X0190709Y0257562D01*
X0188373Y0259160D02*
X0195227Y0259160D01*
X0191800Y0249569D02*
X0191800Y0249569D01*
X0191703Y0247971D02*
X0191897Y0247971D01*
X0192559Y0246372D02*
X0191041Y0246372D01*
X0192248Y0244774D02*
X0189180Y0244774D01*
X0190650Y0243175D02*
X0137000Y0243175D01*
X0137000Y0241577D02*
X0189051Y0241577D01*
X0187453Y0239978D02*
X0137000Y0239978D01*
X0137000Y0238380D02*
X0185854Y0238380D01*
X0184256Y0236781D02*
X0137000Y0236781D01*
X0137000Y0235183D02*
X0182657Y0235183D01*
X0181059Y0233584D02*
X0137000Y0233584D01*
X0137000Y0231986D02*
X0179460Y0231986D01*
X0177862Y0230387D02*
X0137000Y0230387D01*
X0137000Y0228789D02*
X0138653Y0228789D01*
X0139800Y0225800D02*
X0177800Y0225800D01*
X0186074Y0217599D02*
X0136125Y0217599D01*
X0137723Y0219198D02*
X0187672Y0219198D01*
X0189271Y0220796D02*
X0139322Y0220796D01*
X0140920Y0222395D02*
X0190869Y0222395D01*
X0184475Y0216001D02*
X0134526Y0216001D01*
X0132927Y0214402D02*
X0182877Y0214402D01*
X0181278Y0212803D02*
X0131329Y0212803D01*
X0129730Y0211205D02*
X0179680Y0211205D01*
X0178081Y0209606D02*
X0128132Y0209606D01*
X0126533Y0208008D02*
X0176482Y0208008D01*
X0174884Y0206409D02*
X0124935Y0206409D01*
X0123336Y0204811D02*
X0173285Y0204811D01*
X0171687Y0203212D02*
X0121738Y0203212D01*
X0120139Y0201614D02*
X0170088Y0201614D01*
X0168490Y0200015D02*
X0118541Y0200015D01*
X0117297Y0198417D02*
X0166891Y0198417D01*
X0176351Y0188826D02*
X0256374Y0188826D01*
X0256374Y0190424D02*
X0177950Y0190424D01*
X0179548Y0192023D02*
X0256374Y0192023D01*
X0256374Y0193621D02*
X0181147Y0193621D01*
X0182745Y0195220D02*
X0256374Y0195220D01*
X0256374Y0196818D02*
X0184344Y0196818D01*
X0185942Y0198417D02*
X0256374Y0198417D01*
X0256374Y0200015D02*
X0187541Y0200015D01*
X0189139Y0201614D02*
X0256374Y0201614D01*
X0256374Y0203212D02*
X0190738Y0203212D01*
X0192336Y0204811D02*
X0256374Y0204811D01*
X0256374Y0206409D02*
X0193935Y0206409D01*
X0195533Y0208008D02*
X0256374Y0208008D01*
X0256374Y0209606D02*
X0197132Y0209606D01*
X0198730Y0211205D02*
X0256374Y0211205D01*
X0256374Y0212803D02*
X0200329Y0212803D01*
X0201927Y0214402D02*
X0256374Y0214402D01*
X0256374Y0216001D02*
X0203526Y0216001D01*
X0205125Y0217599D02*
X0256374Y0217599D01*
X0256374Y0219198D02*
X0206723Y0219198D01*
X0208322Y0220796D02*
X0256374Y0220796D01*
X0256374Y0222395D02*
X0209920Y0222395D01*
X0211519Y0223993D02*
X0256374Y0223993D01*
X0256374Y0225592D02*
X0213117Y0225592D01*
X0214716Y0227190D02*
X0256374Y0227190D01*
X0256374Y0228789D02*
X0216314Y0228789D01*
X0217913Y0230387D02*
X0256374Y0230387D01*
X0256374Y0231986D02*
X0219511Y0231986D01*
X0220000Y0233584D02*
X0256374Y0233584D01*
X0256374Y0235183D02*
X0220000Y0235183D01*
X0220000Y0236781D02*
X0256374Y0236781D01*
X0256374Y0238380D02*
X0220000Y0238380D01*
X0220000Y0239978D02*
X0256374Y0239978D01*
X0256374Y0241577D02*
X0220000Y0241577D01*
X0220000Y0243175D02*
X0256374Y0243175D01*
X0256374Y0244774D02*
X0229180Y0244774D01*
X0231041Y0246372D02*
X0233416Y0246372D01*
X0233444Y0246334D02*
X0233934Y0245844D01*
X0234494Y0245437D01*
X0235111Y0245122D01*
X0235770Y0244908D01*
X0236454Y0244800D01*
X0236800Y0244800D01*
X0237146Y0244800D01*
X0237830Y0244908D01*
X0238489Y0245122D01*
X0239106Y0245437D01*
X0239666Y0245844D01*
X0240156Y0246334D01*
X0240563Y0246894D01*
X0240878Y0247511D01*
X0241092Y0248170D01*
X0241200Y0248854D01*
X0241200Y0251800D01*
X0241200Y0254746D01*
X0241092Y0255430D01*
X0240878Y0256089D01*
X0240563Y0256706D01*
X0240156Y0257266D01*
X0239666Y0257756D01*
X0239106Y0258163D01*
X0238489Y0258478D01*
X0237830Y0258692D01*
X0237146Y0258800D01*
X0236800Y0258800D01*
X0236800Y0251800D01*
X0241200Y0251800D01*
X0236800Y0251800D01*
X0236800Y0251800D01*
X0236800Y0251800D01*
X0236800Y0244800D01*
X0236800Y0251800D01*
X0236800Y0251800D01*
X0236800Y0251800D01*
X0232400Y0251800D01*
X0232400Y0254746D01*
X0232508Y0255430D01*
X0232722Y0256089D01*
X0233037Y0256706D01*
X0233444Y0257266D01*
X0233934Y0257756D01*
X0234494Y0258163D01*
X0235111Y0258478D01*
X0235770Y0258692D01*
X0236454Y0258800D01*
X0236800Y0258800D01*
X0236800Y0251800D01*
X0232400Y0251800D01*
X0232400Y0248854D01*
X0232508Y0248170D01*
X0232722Y0247511D01*
X0233037Y0246894D01*
X0233444Y0246334D01*
X0232573Y0247971D02*
X0231703Y0247971D01*
X0231800Y0249569D02*
X0232400Y0249569D01*
X0232400Y0251168D02*
X0231800Y0251168D01*
X0231800Y0252766D02*
X0232400Y0252766D01*
X0232400Y0254365D02*
X0231800Y0254365D01*
X0231564Y0255963D02*
X0232682Y0255963D01*
X0233739Y0257562D02*
X0230800Y0257562D01*
X0230800Y0259160D02*
X0256374Y0259160D01*
X0256374Y0257562D02*
X0239861Y0257562D01*
X0240918Y0255963D02*
X0256374Y0255963D01*
X0256374Y0254365D02*
X0241200Y0254365D01*
X0241200Y0252766D02*
X0256374Y0252766D01*
X0256374Y0251168D02*
X0241200Y0251168D01*
X0241200Y0249569D02*
X0256374Y0249569D01*
X0256374Y0247971D02*
X0241027Y0247971D01*
X0240184Y0246372D02*
X0256374Y0246372D01*
X0256374Y0260759D02*
X0230800Y0260759D01*
X0230800Y0262357D02*
X0256374Y0262357D01*
X0256374Y0263956D02*
X0230800Y0263956D01*
X0230800Y0265554D02*
X0256374Y0265554D01*
X0256374Y0267153D02*
X0230800Y0267153D01*
X0230800Y0268751D02*
X0256374Y0268751D01*
X0256374Y0270350D02*
X0230800Y0270350D01*
X0230800Y0271948D02*
X0256374Y0271948D01*
X0256374Y0273547D02*
X0230406Y0273547D01*
X0229111Y0275145D02*
X0256374Y0275145D01*
X0256374Y0276744D02*
X0227513Y0276744D01*
X0225914Y0278342D02*
X0256374Y0278342D01*
X0256374Y0279941D02*
X0224316Y0279941D01*
X0221562Y0281539D02*
X0256374Y0281539D01*
X0256374Y0283138D02*
X0220663Y0283138D01*
X0212937Y0283138D02*
X0210663Y0283138D01*
X0211562Y0281539D02*
X0212038Y0281539D01*
X0219740Y0271800D02*
X0220522Y0272124D01*
X0220671Y0272273D01*
X0222800Y0270143D01*
X0222800Y0257471D01*
X0222561Y0257232D01*
X0221800Y0255395D01*
X0221800Y0248205D01*
X0221800Y0255395D01*
X0221039Y0257232D01*
X0220000Y0258271D01*
X0220000Y0260104D01*
X0220522Y0260320D01*
X0221197Y0260996D01*
X0221562Y0261878D01*
X0221562Y0269919D01*
X0221197Y0270801D01*
X0220522Y0271476D01*
X0219740Y0271800D01*
X0220099Y0271948D02*
X0220995Y0271948D01*
X0221384Y0270350D02*
X0222593Y0270350D01*
X0222800Y0268751D02*
X0221562Y0268751D01*
X0221562Y0267153D02*
X0222800Y0267153D01*
X0222800Y0265554D02*
X0221562Y0265554D01*
X0221562Y0263956D02*
X0222800Y0263956D01*
X0222800Y0262357D02*
X0221562Y0262357D01*
X0220960Y0260759D02*
X0222800Y0260759D01*
X0222800Y0259160D02*
X0220000Y0259160D01*
X0220709Y0257562D02*
X0222800Y0257562D01*
X0222036Y0255963D02*
X0221564Y0255963D01*
X0221800Y0254365D02*
X0221800Y0254365D01*
X0221800Y0252766D02*
X0221800Y0252766D01*
X0221800Y0251168D02*
X0221800Y0251168D01*
X0221800Y0249569D02*
X0221800Y0249569D01*
X0221703Y0247971D02*
X0221897Y0247971D01*
X0222559Y0246372D02*
X0221041Y0246372D01*
X0220000Y0244774D02*
X0224420Y0244774D01*
X0216800Y0244800D02*
X0216800Y0251800D01*
X0216800Y0265898D01*
X0203501Y0271948D02*
X0102605Y0271948D01*
X0101007Y0270350D02*
X0202216Y0270350D01*
X0202038Y0268751D02*
X0135056Y0268751D01*
X0132481Y0268751D02*
X0125056Y0268751D01*
X0122481Y0268751D02*
X0099408Y0268751D01*
X0097858Y0267153D02*
X0110607Y0267153D01*
X0109173Y0265554D02*
X0099054Y0265554D01*
X0099668Y0263956D02*
X0108570Y0263956D01*
X0108469Y0262357D02*
X0099668Y0262357D01*
X0099668Y0260759D02*
X0108469Y0260759D01*
X0108469Y0259160D02*
X0099668Y0259160D01*
X0099668Y0257562D02*
X0108469Y0257562D01*
X0108469Y0255963D02*
X0099668Y0255963D01*
X0099519Y0254365D02*
X0108694Y0254365D01*
X0109493Y0252766D02*
X0098857Y0252766D01*
X0097382Y0251168D02*
X0111379Y0251168D01*
X0111320Y0249899D02*
X0108610Y0249899D01*
X0108152Y0249777D01*
X0107742Y0249540D01*
X0107407Y0249204D01*
X0107170Y0248794D01*
X0107047Y0248336D01*
X0107047Y0246020D01*
X0111320Y0246020D01*
X0111320Y0249899D01*
X0111320Y0249569D02*
X0112280Y0249569D01*
X0112280Y0247971D02*
X0111320Y0247971D01*
X0111320Y0246372D02*
X0112280Y0246372D01*
X0113768Y0251168D02*
X0113769Y0251168D01*
X0113768Y0252766D02*
X0113769Y0252766D01*
X0113768Y0254365D02*
X0113769Y0254365D01*
X0113768Y0255963D02*
X0113769Y0255963D01*
X0113768Y0257562D02*
X0113769Y0257562D01*
X0113768Y0259160D02*
X0113769Y0259160D01*
X0113768Y0260759D02*
X0113769Y0260759D01*
X0113768Y0262357D02*
X0113769Y0262357D01*
X0113768Y0263956D02*
X0113769Y0263956D01*
X0113768Y0265554D02*
X0113769Y0265554D01*
X0113768Y0267153D02*
X0113769Y0267153D01*
X0116930Y0267153D02*
X0119679Y0267153D01*
X0118483Y0265554D02*
X0118364Y0265554D01*
X0123769Y0259398D02*
X0123769Y0220565D01*
X0107613Y0204410D01*
X0107613Y0200370D01*
X0110763Y0200370D02*
X0110763Y0203763D01*
X0133800Y0226800D01*
X0133800Y0259367D01*
X0133769Y0259398D01*
X0139668Y0259160D02*
X0185227Y0259160D01*
X0182891Y0257562D02*
X0139668Y0257562D01*
X0139668Y0255963D02*
X0182036Y0255963D01*
X0181800Y0254365D02*
X0139519Y0254365D01*
X0138857Y0252766D02*
X0181800Y0252766D01*
X0181800Y0251168D02*
X0137382Y0251168D01*
X0137000Y0249569D02*
X0181800Y0249569D01*
X0181897Y0247971D02*
X0137000Y0247971D01*
X0137000Y0246372D02*
X0182559Y0246372D01*
X0184420Y0244774D02*
X0137000Y0244774D01*
X0120569Y0244774D02*
X0116553Y0244774D01*
X0116553Y0246372D02*
X0120569Y0246372D01*
X0120569Y0247971D02*
X0116553Y0247971D01*
X0115807Y0249569D02*
X0120569Y0249569D01*
X0120155Y0251168D02*
X0116158Y0251168D01*
X0118044Y0252766D02*
X0118680Y0252766D01*
X0120569Y0243175D02*
X0116553Y0243175D01*
X0116954Y0241577D02*
X0120569Y0241577D01*
X0120569Y0239978D02*
X0117153Y0239978D01*
X0117153Y0238380D02*
X0120569Y0238380D01*
X0120569Y0236781D02*
X0117153Y0236781D01*
X0117153Y0235183D02*
X0120569Y0235183D01*
X0120569Y0233584D02*
X0116230Y0233584D01*
X0115000Y0231986D02*
X0120569Y0231986D01*
X0120569Y0230387D02*
X0115000Y0230387D01*
X0115448Y0228789D02*
X0120569Y0228789D01*
X0120569Y0227190D02*
X0116655Y0227190D01*
X0117200Y0225592D02*
X0120569Y0225592D01*
X0120569Y0223993D02*
X0117200Y0223993D01*
X0117200Y0222395D02*
X0120569Y0222395D01*
X0119474Y0220796D02*
X0117200Y0220796D01*
X0117200Y0219198D02*
X0117875Y0219198D01*
X0111800Y0221800D02*
X0104464Y0214464D01*
X0104464Y0200370D01*
X0101314Y0200370D02*
X0101314Y0212286D01*
X0091800Y0221800D01*
X0091800Y0238060D01*
X0097153Y0238380D02*
X0106447Y0238380D01*
X0106447Y0239978D02*
X0097153Y0239978D01*
X0096954Y0241577D02*
X0106646Y0241577D01*
X0107047Y0243175D02*
X0096553Y0243175D01*
X0096553Y0244774D02*
X0107047Y0244774D01*
X0107047Y0246372D02*
X0096553Y0246372D01*
X0096553Y0247971D02*
X0107047Y0247971D01*
X0107793Y0249569D02*
X0095807Y0249569D01*
X0092280Y0249569D02*
X0091320Y0249569D01*
X0091320Y0249899D02*
X0088610Y0249899D01*
X0088152Y0249777D01*
X0087742Y0249540D01*
X0087407Y0249204D01*
X0087170Y0248794D01*
X0087047Y0248336D01*
X0087047Y0246020D01*
X0091320Y0246020D01*
X0091320Y0249899D01*
X0090155Y0251168D02*
X0081562Y0251168D01*
X0081562Y0249569D02*
X0087793Y0249569D01*
X0087047Y0247971D02*
X0081562Y0247971D01*
X0081562Y0246372D02*
X0087047Y0246372D01*
X0087047Y0244774D02*
X0081562Y0244774D01*
X0081353Y0243175D02*
X0087047Y0243175D01*
X0086646Y0241577D02*
X0080279Y0241577D01*
X0081538Y0239978D02*
X0086447Y0239978D01*
X0086447Y0238380D02*
X0081562Y0238380D01*
X0081562Y0236781D02*
X0086447Y0236781D01*
X0086447Y0235183D02*
X0081562Y0235183D01*
X0081562Y0233584D02*
X0087370Y0233584D01*
X0088600Y0231986D02*
X0083140Y0231986D01*
X0084000Y0230387D02*
X0088600Y0230387D01*
X0088152Y0228789D02*
X0084000Y0228789D01*
X0084750Y0227190D02*
X0086945Y0227190D01*
X0086400Y0225592D02*
X0084981Y0225592D01*
X0084577Y0223993D02*
X0086400Y0223993D01*
X0086400Y0222395D02*
X0084000Y0222395D01*
X0084329Y0220796D02*
X0086400Y0220796D01*
X0086400Y0219198D02*
X0085928Y0219198D01*
X0080800Y0219800D02*
X0080800Y0225800D01*
X0080800Y0229800D01*
X0076800Y0233800D01*
X0076800Y0235898D01*
X0072038Y0235183D02*
X0069330Y0235183D01*
X0069168Y0235345D02*
X0067632Y0235981D01*
X0065968Y0235981D01*
X0064432Y0235345D01*
X0063255Y0234168D01*
X0062619Y0232632D01*
X0062619Y0232507D01*
X0051513Y0243613D01*
X0050613Y0244513D01*
X0049437Y0245000D01*
X0035954Y0245000D01*
X0033954Y0247000D01*
X0029646Y0247000D01*
X0026600Y0243954D01*
X0026600Y0239646D01*
X0029446Y0236800D01*
X0026600Y0233954D01*
X0026600Y0229646D01*
X0029446Y0226800D01*
X0026800Y0224154D01*
X0023954Y0227000D01*
X0019646Y0227000D01*
X0016600Y0223954D01*
X0016600Y0219646D01*
X0019446Y0216800D01*
X0016600Y0213954D01*
X0016600Y0209646D01*
X0019446Y0206800D01*
X0018446Y0205800D01*
X0015800Y0205800D01*
X0015800Y0250143D01*
X0021055Y0255398D01*
X0072800Y0255398D01*
X0072800Y0253001D01*
X0072403Y0252604D01*
X0072038Y0251722D01*
X0072038Y0243681D01*
X0072403Y0242799D01*
X0073078Y0242124D01*
X0073860Y0241800D01*
X0073078Y0241476D01*
X0072403Y0240801D01*
X0072038Y0239919D01*
X0072038Y0231878D01*
X0072403Y0230996D01*
X0073078Y0230320D01*
X0073960Y0229955D01*
X0076119Y0229955D01*
X0077581Y0228494D01*
X0077255Y0228168D01*
X0076619Y0226632D01*
X0076619Y0224968D01*
X0077255Y0223432D01*
X0077600Y0223087D01*
X0077600Y0222525D01*
X0070447Y0229679D01*
X0070981Y0230968D01*
X0070981Y0232632D01*
X0070345Y0234168D01*
X0069168Y0235345D01*
X0070587Y0233584D02*
X0072038Y0233584D01*
X0072038Y0231986D02*
X0070981Y0231986D01*
X0070740Y0230387D02*
X0073012Y0230387D01*
X0071337Y0228789D02*
X0077286Y0228789D01*
X0076850Y0227190D02*
X0072935Y0227190D01*
X0074534Y0225592D02*
X0076619Y0225592D01*
X0077023Y0223993D02*
X0076132Y0223993D01*
X0080800Y0219800D02*
X0091800Y0208800D01*
X0091800Y0200435D01*
X0091865Y0200370D01*
X0088716Y0200370D02*
X0088716Y0206884D01*
X0066800Y0228800D01*
X0066800Y0231800D01*
X0063013Y0233584D02*
X0061541Y0233584D01*
X0059943Y0235183D02*
X0064270Y0235183D01*
X0058344Y0236781D02*
X0072038Y0236781D01*
X0072038Y0238380D02*
X0056746Y0238380D01*
X0055147Y0239978D02*
X0072062Y0239978D01*
X0073321Y0241577D02*
X0053549Y0241577D01*
X0051950Y0243175D02*
X0072247Y0243175D01*
X0072038Y0244774D02*
X0049983Y0244774D01*
X0048800Y0241800D02*
X0031800Y0241800D01*
X0026600Y0241577D02*
X0026400Y0241577D01*
X0026400Y0241700D02*
X0021900Y0241700D01*
X0021900Y0241900D01*
X0021700Y0241900D01*
X0021700Y0246400D01*
X0019895Y0246400D01*
X0017200Y0243705D01*
X0017200Y0241900D01*
X0021700Y0241900D01*
X0021700Y0241700D01*
X0017200Y0241700D01*
X0017200Y0239895D01*
X0019895Y0237200D01*
X0021700Y0237200D01*
X0021700Y0241700D01*
X0021900Y0241700D01*
X0021900Y0237200D01*
X0023705Y0237200D01*
X0026400Y0239895D01*
X0026400Y0241700D01*
X0026400Y0241900D02*
X0026400Y0243705D01*
X0023705Y0246400D01*
X0021900Y0246400D01*
X0021900Y0241900D01*
X0026400Y0241900D01*
X0026400Y0243175D02*
X0026600Y0243175D01*
X0027420Y0244774D02*
X0025332Y0244774D01*
X0023733Y0246372D02*
X0029018Y0246372D01*
X0034582Y0246372D02*
X0072038Y0246372D01*
X0072038Y0247971D02*
X0015800Y0247971D01*
X0015800Y0249569D02*
X0072038Y0249569D01*
X0072038Y0251168D02*
X0016825Y0251168D01*
X0018423Y0252766D02*
X0072565Y0252766D01*
X0072800Y0254365D02*
X0020022Y0254365D01*
X0015102Y0260759D02*
X0005100Y0260759D01*
X0005100Y0262357D02*
X0016700Y0262357D01*
X0016007Y0261664D02*
X0016007Y0261664D01*
X0013503Y0259160D02*
X0005100Y0259160D01*
X0005100Y0257562D02*
X0011905Y0257562D01*
X0010306Y0255963D02*
X0005100Y0255963D01*
X0005100Y0254365D02*
X0008708Y0254365D01*
X0009534Y0255191D02*
X0009534Y0255191D01*
X0007871Y0252766D02*
X0005100Y0252766D01*
X0005100Y0251168D02*
X0007800Y0251168D01*
X0007800Y0249569D02*
X0005100Y0249569D01*
X0005100Y0247971D02*
X0007800Y0247971D01*
X0007800Y0246372D02*
X0005100Y0246372D01*
X0005100Y0244774D02*
X0007800Y0244774D01*
X0007800Y0243175D02*
X0005100Y0243175D01*
X0005100Y0241577D02*
X0007800Y0241577D01*
X0007800Y0239978D02*
X0005100Y0239978D01*
X0005100Y0238380D02*
X0007800Y0238380D01*
X0007800Y0236781D02*
X0005100Y0236781D01*
X0005100Y0235183D02*
X0007800Y0235183D01*
X0007800Y0233584D02*
X0005100Y0233584D01*
X0005100Y0231986D02*
X0007800Y0231986D01*
X0007800Y0230387D02*
X0005100Y0230387D01*
X0005100Y0228789D02*
X0007800Y0228789D01*
X0007800Y0227190D02*
X0005100Y0227190D01*
X0005100Y0225592D02*
X0007800Y0225592D01*
X0007800Y0223993D02*
X0005100Y0223993D01*
X0005100Y0222395D02*
X0007800Y0222395D01*
X0007800Y0220796D02*
X0005100Y0220796D01*
X0005100Y0219198D02*
X0007800Y0219198D01*
X0007800Y0217599D02*
X0005100Y0217599D01*
X0005100Y0216001D02*
X0007800Y0216001D01*
X0007800Y0214402D02*
X0005100Y0214402D01*
X0005100Y0212803D02*
X0007800Y0212803D01*
X0007800Y0211205D02*
X0005100Y0211205D01*
X0005100Y0209606D02*
X0007800Y0209606D01*
X0007800Y0208008D02*
X0005100Y0208008D01*
X0005100Y0206409D02*
X0007800Y0206409D01*
X0007800Y0204811D02*
X0005100Y0204811D01*
X0005100Y0203212D02*
X0007800Y0203212D01*
X0007800Y0201614D02*
X0005100Y0201614D01*
X0005100Y0200015D02*
X0007800Y0200015D01*
X0007800Y0198417D02*
X0005100Y0198417D01*
X0005100Y0196818D02*
X0007800Y0196818D01*
X0007800Y0195220D02*
X0005100Y0195220D01*
X0005100Y0193621D02*
X0007800Y0193621D01*
X0007800Y0192023D02*
X0005100Y0192023D01*
X0005100Y0190424D02*
X0007800Y0190424D01*
X0007800Y0188826D02*
X0005100Y0188826D01*
X0005100Y0187227D02*
X0007800Y0187227D01*
X0007800Y0185629D02*
X0005100Y0185629D01*
X0005100Y0184030D02*
X0007800Y0184030D01*
X0007800Y0182432D02*
X0005100Y0182432D01*
X0005100Y0180833D02*
X0007800Y0180833D01*
X0007800Y0179235D02*
X0005100Y0179235D01*
X0005100Y0177636D02*
X0007800Y0177636D01*
X0007800Y0176038D02*
X0005100Y0176038D01*
X0005100Y0174439D02*
X0007800Y0174439D01*
X0007800Y0172841D02*
X0005100Y0172841D01*
X0005100Y0171242D02*
X0007800Y0171242D01*
X0007800Y0169644D02*
X0005100Y0169644D01*
X0005100Y0168045D02*
X0007800Y0168045D01*
X0007800Y0166447D02*
X0005100Y0166447D01*
X0005100Y0164848D02*
X0007800Y0164848D01*
X0007800Y0163250D02*
X0005100Y0163250D01*
X0005100Y0161651D02*
X0007800Y0161651D01*
X0007800Y0160053D02*
X0005100Y0160053D01*
X0005100Y0158454D02*
X0007800Y0158454D01*
X0007800Y0156856D02*
X0005100Y0156856D01*
X0005100Y0155257D02*
X0007800Y0155257D01*
X0007800Y0153659D02*
X0005100Y0153659D01*
X0005100Y0152060D02*
X0007800Y0152060D01*
X0007800Y0150462D02*
X0005100Y0150462D01*
X0005100Y0148863D02*
X0007800Y0148863D01*
X0007800Y0147265D02*
X0005100Y0147265D01*
X0005100Y0145666D02*
X0007800Y0145666D01*
X0007800Y0144068D02*
X0005100Y0144068D01*
X0005100Y0142469D02*
X0007800Y0142469D01*
X0007800Y0140870D02*
X0005100Y0140870D01*
X0005100Y0139272D02*
X0007800Y0139272D01*
X0007800Y0137673D02*
X0005100Y0137673D01*
X0005100Y0136075D02*
X0007800Y0136075D01*
X0007800Y0134476D02*
X0005100Y0134476D01*
X0005100Y0132878D02*
X0007800Y0132878D01*
X0007800Y0131279D02*
X0005100Y0131279D01*
X0005100Y0129681D02*
X0007800Y0129681D01*
X0007800Y0128082D02*
X0005100Y0128082D01*
X0005100Y0126484D02*
X0007800Y0126484D01*
X0007800Y0124885D02*
X0005100Y0124885D01*
X0005100Y0123287D02*
X0007800Y0123287D01*
X0007800Y0121688D02*
X0005100Y0121688D01*
X0005100Y0120090D02*
X0007800Y0120090D01*
X0007800Y0118491D02*
X0005100Y0118491D01*
X0005100Y0116893D02*
X0007800Y0116893D01*
X0007800Y0115294D02*
X0005100Y0115294D01*
X0005100Y0113696D02*
X0007800Y0113696D01*
X0007800Y0112097D02*
X0005100Y0112097D01*
X0005100Y0110499D02*
X0007800Y0110499D01*
X0007800Y0108900D02*
X0005100Y0108900D01*
X0005100Y0107302D02*
X0007800Y0107302D01*
X0007800Y0105703D02*
X0005100Y0105703D01*
X0005100Y0104105D02*
X0007800Y0104105D01*
X0007800Y0102506D02*
X0005100Y0102506D01*
X0005100Y0100908D02*
X0007800Y0100908D01*
X0007800Y0099309D02*
X0005100Y0099309D01*
X0005100Y0097711D02*
X0007800Y0097711D01*
X0007800Y0096112D02*
X0005100Y0096112D01*
X0005100Y0094514D02*
X0008429Y0094514D01*
X0010028Y0092915D02*
X0005100Y0092915D01*
X0005100Y0091317D02*
X0011627Y0091317D01*
X0011800Y0089718D02*
X0005100Y0089718D01*
X0005100Y0088120D02*
X0009483Y0088120D01*
X0008082Y0086521D02*
X0005100Y0086521D01*
X0005100Y0084923D02*
X0007420Y0084923D01*
X0007400Y0083324D02*
X0005100Y0083324D01*
X0005100Y0081726D02*
X0007814Y0081726D01*
X0008836Y0080127D02*
X0005100Y0080127D01*
X0005100Y0078529D02*
X0010105Y0078529D01*
X0008293Y0076930D02*
X0005100Y0076930D01*
X0005100Y0075332D02*
X0007589Y0075332D01*
X0007400Y0073733D02*
X0005100Y0073733D01*
X0005100Y0072134D02*
X0007645Y0072134D01*
X0008427Y0070536D02*
X0005100Y0070536D01*
X0005100Y0068937D02*
X0010428Y0068937D01*
X0008702Y0067339D02*
X0005100Y0067339D01*
X0005100Y0065740D02*
X0007759Y0065740D01*
X0007400Y0064142D02*
X0005100Y0064142D01*
X0005100Y0062543D02*
X0007476Y0062543D01*
X0008138Y0060945D02*
X0005100Y0060945D01*
X0005100Y0059346D02*
X0009617Y0059346D01*
X0005100Y0057748D02*
X0070866Y0057748D01*
X0070803Y0056149D02*
X0005100Y0056149D01*
X0005100Y0054551D02*
X0070266Y0054551D01*
X0070266Y0052952D02*
X0005100Y0052952D01*
X0005100Y0051354D02*
X0070266Y0051354D01*
X0070266Y0049755D02*
X0005100Y0049755D01*
X0005100Y0048157D02*
X0070625Y0048157D01*
X0070866Y0060945D02*
X0023462Y0060945D01*
X0024180Y0084923D02*
X0256374Y0084923D01*
X0256374Y0086521D02*
X0023518Y0086521D01*
X0020800Y0091800D02*
X0023800Y0094800D01*
X0024800Y0099800D01*
X0019760Y0104800D02*
X0018741Y0104378D01*
X0017222Y0102859D01*
X0016400Y0100874D01*
X0016400Y0098726D01*
X0017015Y0097242D01*
X0015800Y0098457D01*
X0015800Y0197800D01*
X0018446Y0197800D01*
X0019646Y0196600D01*
X0023954Y0196600D01*
X0026800Y0199446D01*
X0029646Y0196600D01*
X0033954Y0196600D01*
X0037000Y0199646D01*
X0037000Y0201600D01*
X0079032Y0201600D01*
X0079032Y0196940D01*
X0079225Y0196475D01*
X0078760Y0196668D01*
X0071900Y0196668D01*
X0071455Y0196484D01*
X0052647Y0196484D01*
X0051471Y0195996D01*
X0032475Y0177000D01*
X0030766Y0177000D01*
X0028854Y0176208D01*
X0027392Y0174746D01*
X0026600Y0172834D01*
X0026600Y0170766D01*
X0027392Y0168854D01*
X0028854Y0167392D01*
X0029800Y0167000D01*
X0029646Y0167000D01*
X0026600Y0163954D01*
X0026600Y0159646D01*
X0029446Y0156800D01*
X0026600Y0153954D01*
X0026600Y0149646D01*
X0029446Y0146800D01*
X0026600Y0143954D01*
X0026600Y0139646D01*
X0029446Y0136800D01*
X0026600Y0133954D01*
X0026600Y0129646D01*
X0029646Y0126600D01*
X0033954Y0126600D01*
X0037000Y0129646D01*
X0037000Y0132475D01*
X0053513Y0148987D01*
X0054000Y0150163D01*
X0054000Y0166475D01*
X0065011Y0177485D01*
X0070577Y0177485D01*
X0070577Y0176964D01*
X0070342Y0176730D01*
X0069977Y0175848D01*
X0069977Y0174436D01*
X0066600Y0174436D01*
X0065424Y0173949D01*
X0057987Y0166513D01*
X0057087Y0165613D01*
X0056600Y0164437D01*
X0056600Y0130496D01*
X0056078Y0130279D01*
X0055403Y0129604D01*
X0055038Y0128722D01*
X0055038Y0128000D01*
X0049163Y0128000D01*
X0047987Y0127513D01*
X0047087Y0126613D01*
X0033475Y0113000D01*
X0032237Y0113000D01*
X0030859Y0114378D01*
X0029007Y0115145D01*
X0029643Y0115352D01*
X0030316Y0115695D01*
X0030927Y0116139D01*
X0031461Y0116673D01*
X0031905Y0117284D01*
X0032248Y0117957D01*
X0032482Y0118676D01*
X0032600Y0119422D01*
X0032600Y0119600D01*
X0025000Y0119600D01*
X0025000Y0120000D01*
X0024600Y0120000D01*
X0024600Y0124600D01*
X0021422Y0124600D01*
X0020676Y0124482D01*
X0019957Y0124248D01*
X0019284Y0123905D01*
X0018673Y0123461D01*
X0018139Y0122927D01*
X0017695Y0122316D01*
X0017352Y0121643D01*
X0017118Y0120924D01*
X0017000Y0120178D01*
X0017000Y0120000D01*
X0024600Y0120000D01*
X0024600Y0119600D01*
X0017000Y0119600D01*
X0017000Y0119422D01*
X0017118Y0118676D01*
X0017352Y0117957D01*
X0017695Y0117284D01*
X0018139Y0116673D01*
X0018673Y0116139D01*
X0019284Y0115695D01*
X0019957Y0115352D01*
X0020593Y0115145D01*
X0018741Y0114378D01*
X0017222Y0112859D01*
X0016400Y0110874D01*
X0016400Y0108726D01*
X0017222Y0106741D01*
X0018741Y0105222D01*
X0019760Y0104800D01*
X0018468Y0104105D02*
X0015800Y0104105D01*
X0015800Y0105703D02*
X0018260Y0105703D01*
X0016990Y0107302D02*
X0015800Y0107302D01*
X0015800Y0108900D02*
X0016400Y0108900D01*
X0016400Y0110499D02*
X0015800Y0110499D01*
X0015800Y0112097D02*
X0016907Y0112097D01*
X0015800Y0113696D02*
X0018059Y0113696D01*
X0020134Y0115294D02*
X0015800Y0115294D01*
X0015800Y0116893D02*
X0017979Y0116893D01*
X0017178Y0118491D02*
X0015800Y0118491D01*
X0015800Y0120090D02*
X0017000Y0120090D01*
X0017375Y0121688D02*
X0015800Y0121688D01*
X0015800Y0123287D02*
X0018499Y0123287D01*
X0015800Y0124885D02*
X0045360Y0124885D01*
X0043761Y0123287D02*
X0031101Y0123287D01*
X0030927Y0123461D02*
X0030316Y0123905D01*
X0029643Y0124248D01*
X0028924Y0124482D01*
X0028178Y0124600D01*
X0025000Y0124600D01*
X0025000Y0120000D01*
X0032600Y0120000D01*
X0032600Y0120178D01*
X0032482Y0120924D01*
X0032248Y0121643D01*
X0031905Y0122316D01*
X0031461Y0122927D01*
X0030927Y0123461D01*
X0032225Y0121688D02*
X0042163Y0121688D01*
X0040564Y0120090D02*
X0032600Y0120090D01*
X0032422Y0118491D02*
X0038966Y0118491D01*
X0037367Y0116893D02*
X0031621Y0116893D01*
X0029466Y0115294D02*
X0035769Y0115294D01*
X0034170Y0113696D02*
X0031541Y0113696D01*
X0034800Y0109800D02*
X0024800Y0109800D01*
X0031340Y0105703D02*
X0056600Y0105703D01*
X0056600Y0104105D02*
X0031132Y0104105D01*
X0032524Y0102506D02*
X0056600Y0102506D01*
X0056600Y0100908D02*
X0033186Y0100908D01*
X0033200Y0099309D02*
X0056600Y0099309D01*
X0056600Y0097711D02*
X0032779Y0097711D01*
X0031749Y0096112D02*
X0056600Y0096112D01*
X0055038Y0115294D02*
X0044820Y0115294D01*
X0046418Y0116893D02*
X0055038Y0116893D01*
X0056114Y0118491D02*
X0048017Y0118491D01*
X0049615Y0120090D02*
X0055283Y0120090D01*
X0055038Y0128082D02*
X0035436Y0128082D01*
X0037000Y0129681D02*
X0055480Y0129681D01*
X0056600Y0131279D02*
X0037000Y0131279D01*
X0037403Y0132878D02*
X0056600Y0132878D01*
X0056600Y0134476D02*
X0039002Y0134476D01*
X0040600Y0136075D02*
X0056600Y0136075D01*
X0056600Y0137673D02*
X0042199Y0137673D01*
X0043797Y0139272D02*
X0056600Y0139272D01*
X0056600Y0140870D02*
X0045396Y0140870D01*
X0046994Y0142469D02*
X0056600Y0142469D01*
X0056600Y0144068D02*
X0048593Y0144068D01*
X0050191Y0145666D02*
X0056600Y0145666D01*
X0056600Y0147265D02*
X0051790Y0147265D01*
X0053389Y0148863D02*
X0056600Y0148863D01*
X0056600Y0150462D02*
X0054000Y0150462D01*
X0054000Y0152060D02*
X0056600Y0152060D01*
X0056600Y0153659D02*
X0054000Y0153659D01*
X0054000Y0155257D02*
X0056600Y0155257D01*
X0056600Y0156856D02*
X0054000Y0156856D01*
X0054000Y0158454D02*
X0056600Y0158454D01*
X0056600Y0160053D02*
X0054000Y0160053D01*
X0054000Y0161651D02*
X0056600Y0161651D01*
X0056600Y0163250D02*
X0054000Y0163250D01*
X0054000Y0164848D02*
X0056771Y0164848D01*
X0057921Y0166447D02*
X0054000Y0166447D01*
X0055571Y0168045D02*
X0059520Y0168045D01*
X0061118Y0169644D02*
X0057169Y0169644D01*
X0058768Y0171242D02*
X0062717Y0171242D01*
X0064315Y0172841D02*
X0060366Y0172841D01*
X0061965Y0174439D02*
X0069977Y0174439D01*
X0070056Y0176038D02*
X0063563Y0176038D01*
X0063685Y0180685D02*
X0050800Y0167800D01*
X0050800Y0150800D01*
X0031800Y0131800D01*
X0028164Y0128082D02*
X0024588Y0128082D01*
X0023705Y0127200D02*
X0026400Y0129895D01*
X0026400Y0131700D01*
X0021900Y0131700D01*
X0021900Y0131900D01*
X0021700Y0131900D01*
X0021700Y0136400D01*
X0019895Y0136400D01*
X0017200Y0133705D01*
X0017200Y0131900D01*
X0021700Y0131900D01*
X0021700Y0131700D01*
X0017200Y0131700D01*
X0017200Y0129895D01*
X0019895Y0127200D01*
X0021700Y0127200D01*
X0021700Y0131700D01*
X0021900Y0131700D01*
X0021900Y0127200D01*
X0023705Y0127200D01*
X0021900Y0128082D02*
X0021700Y0128082D01*
X0021700Y0129681D02*
X0021900Y0129681D01*
X0021900Y0131279D02*
X0021700Y0131279D01*
X0021900Y0131900D02*
X0026400Y0131900D01*
X0026400Y0133705D01*
X0023705Y0136400D01*
X0021900Y0136400D01*
X0021900Y0131900D01*
X0021900Y0132878D02*
X0021700Y0132878D01*
X0021700Y0134476D02*
X0021900Y0134476D01*
X0021900Y0136075D02*
X0021700Y0136075D01*
X0021700Y0137200D02*
X0021700Y0141700D01*
X0017200Y0141700D01*
X0017200Y0139895D01*
X0019895Y0137200D01*
X0021700Y0137200D01*
X0021900Y0137200D02*
X0023705Y0137200D01*
X0026400Y0139895D01*
X0026400Y0141700D01*
X0021900Y0141700D01*
X0021900Y0141900D01*
X0021700Y0141900D01*
X0021700Y0146400D01*
X0019895Y0146400D01*
X0017200Y0143705D01*
X0017200Y0141900D01*
X0021700Y0141900D01*
X0021700Y0141700D01*
X0021900Y0141700D01*
X0021900Y0137200D01*
X0021900Y0137673D02*
X0021700Y0137673D01*
X0021700Y0139272D02*
X0021900Y0139272D01*
X0021900Y0140870D02*
X0021700Y0140870D01*
X0021900Y0141900D02*
X0026400Y0141900D01*
X0026400Y0143705D01*
X0023705Y0146400D01*
X0021900Y0146400D01*
X0021900Y0141900D01*
X0021900Y0142469D02*
X0021700Y0142469D01*
X0021700Y0144068D02*
X0021900Y0144068D01*
X0021900Y0145666D02*
X0021700Y0145666D01*
X0021700Y0147200D02*
X0021700Y0151700D01*
X0017200Y0151700D01*
X0017200Y0149895D01*
X0019895Y0147200D01*
X0021700Y0147200D01*
X0021700Y0147265D02*
X0021900Y0147265D01*
X0021900Y0147200D02*
X0023705Y0147200D01*
X0026400Y0149895D01*
X0026400Y0151700D01*
X0021900Y0151700D01*
X0021900Y0151900D01*
X0021700Y0151900D01*
X0021700Y0156400D01*
X0019895Y0156400D01*
X0017200Y0153705D01*
X0017200Y0151900D01*
X0021700Y0151900D01*
X0021700Y0151700D01*
X0021900Y0151700D01*
X0021900Y0147200D01*
X0021900Y0148863D02*
X0021700Y0148863D01*
X0021700Y0150462D02*
X0021900Y0150462D01*
X0021900Y0151900D02*
X0026400Y0151900D01*
X0026400Y0153705D01*
X0023705Y0156400D01*
X0021900Y0156400D01*
X0021900Y0151900D01*
X0021900Y0152060D02*
X0021700Y0152060D01*
X0021700Y0153659D02*
X0021900Y0153659D01*
X0021900Y0155257D02*
X0021700Y0155257D01*
X0021700Y0157200D02*
X0019895Y0157200D01*
X0017200Y0159895D01*
X0017200Y0161700D01*
X0021700Y0161700D01*
X0021700Y0161900D01*
X0021700Y0166400D01*
X0019895Y0166400D01*
X0017200Y0163705D01*
X0017200Y0161900D01*
X0021700Y0161900D01*
X0021900Y0161900D01*
X0021900Y0166400D01*
X0023705Y0166400D01*
X0026400Y0163705D01*
X0026400Y0161900D01*
X0021900Y0161900D01*
X0021900Y0161700D01*
X0026400Y0161700D01*
X0026400Y0159895D01*
X0023705Y0157200D01*
X0021900Y0157200D01*
X0021900Y0161700D01*
X0021700Y0161700D01*
X0021700Y0157200D01*
X0021700Y0158454D02*
X0021900Y0158454D01*
X0021900Y0160053D02*
X0021700Y0160053D01*
X0021700Y0161651D02*
X0021900Y0161651D01*
X0021900Y0163250D02*
X0021700Y0163250D01*
X0021700Y0164848D02*
X0021900Y0164848D01*
X0021900Y0167200D02*
X0023705Y0167200D01*
X0026400Y0169895D01*
X0026400Y0171700D01*
X0021900Y0171700D01*
X0021900Y0171900D01*
X0021700Y0171900D01*
X0021700Y0176400D01*
X0019895Y0176400D01*
X0017200Y0173705D01*
X0017200Y0171900D01*
X0021700Y0171900D01*
X0021700Y0171700D01*
X0017200Y0171700D01*
X0017200Y0169895D01*
X0019895Y0167200D01*
X0021700Y0167200D01*
X0021700Y0171700D01*
X0021900Y0171700D01*
X0021900Y0167200D01*
X0021900Y0168045D02*
X0021700Y0168045D01*
X0021700Y0169644D02*
X0021900Y0169644D01*
X0021900Y0171242D02*
X0021700Y0171242D01*
X0021900Y0171900D02*
X0026400Y0171900D01*
X0026400Y0173705D01*
X0023705Y0176400D01*
X0021900Y0176400D01*
X0021900Y0171900D01*
X0021900Y0172841D02*
X0021700Y0172841D01*
X0021700Y0174439D02*
X0021900Y0174439D01*
X0021900Y0176038D02*
X0021700Y0176038D01*
X0019532Y0176038D02*
X0015800Y0176038D01*
X0015800Y0177636D02*
X0033111Y0177636D01*
X0034709Y0179235D02*
X0015800Y0179235D01*
X0015800Y0180833D02*
X0036308Y0180833D01*
X0037906Y0182432D02*
X0015800Y0182432D01*
X0015800Y0184030D02*
X0039505Y0184030D01*
X0041103Y0185629D02*
X0015800Y0185629D01*
X0015800Y0187227D02*
X0042702Y0187227D01*
X0044300Y0188826D02*
X0015800Y0188826D01*
X0015800Y0190424D02*
X0045899Y0190424D01*
X0047497Y0192023D02*
X0015800Y0192023D01*
X0015800Y0193621D02*
X0049096Y0193621D01*
X0050694Y0195220D02*
X0015800Y0195220D01*
X0015800Y0196818D02*
X0019428Y0196818D01*
X0024172Y0196818D02*
X0029428Y0196818D01*
X0027829Y0198417D02*
X0025771Y0198417D01*
X0031800Y0201800D02*
X0034800Y0204800D01*
X0080800Y0204800D01*
X0082416Y0203184D01*
X0082416Y0200370D01*
X0085566Y0200370D02*
X0085566Y0205034D01*
X0048800Y0241800D01*
X0029427Y0236781D02*
X0015800Y0236781D01*
X0015800Y0235183D02*
X0018677Y0235183D01*
X0019895Y0236400D02*
X0017200Y0233705D01*
X0017200Y0231900D01*
X0021700Y0231900D01*
X0021700Y0236400D01*
X0019895Y0236400D01*
X0021900Y0236400D02*
X0021900Y0231900D01*
X0021700Y0231900D01*
X0021700Y0231700D01*
X0017200Y0231700D01*
X0017200Y0229895D01*
X0019895Y0227200D01*
X0021700Y0227200D01*
X0021700Y0231700D01*
X0021900Y0231700D01*
X0021900Y0231900D01*
X0026400Y0231900D01*
X0026400Y0233705D01*
X0023705Y0236400D01*
X0021900Y0236400D01*
X0021900Y0235183D02*
X0021700Y0235183D01*
X0021700Y0233584D02*
X0021900Y0233584D01*
X0021900Y0231986D02*
X0021700Y0231986D01*
X0021900Y0231700D02*
X0026400Y0231700D01*
X0026400Y0229895D01*
X0023705Y0227200D01*
X0021900Y0227200D01*
X0021900Y0231700D01*
X0021900Y0230387D02*
X0021700Y0230387D01*
X0021700Y0228789D02*
X0021900Y0228789D01*
X0025294Y0228789D02*
X0027457Y0228789D01*
X0026600Y0230387D02*
X0026400Y0230387D01*
X0026400Y0231986D02*
X0026600Y0231986D01*
X0026600Y0233584D02*
X0026400Y0233584D01*
X0027829Y0235183D02*
X0024923Y0235183D01*
X0024885Y0238380D02*
X0027866Y0238380D01*
X0026600Y0239978D02*
X0026400Y0239978D01*
X0021900Y0239978D02*
X0021700Y0239978D01*
X0021700Y0238380D02*
X0021900Y0238380D01*
X0018715Y0238380D02*
X0015800Y0238380D01*
X0015800Y0239978D02*
X0017200Y0239978D01*
X0017200Y0241577D02*
X0015800Y0241577D01*
X0015800Y0243175D02*
X0017200Y0243175D01*
X0018268Y0244774D02*
X0015800Y0244774D01*
X0015800Y0246372D02*
X0019867Y0246372D01*
X0021700Y0246372D02*
X0021900Y0246372D01*
X0021900Y0244774D02*
X0021700Y0244774D01*
X0021700Y0243175D02*
X0021900Y0243175D01*
X0021900Y0241577D02*
X0021700Y0241577D01*
X0017200Y0233584D02*
X0015800Y0233584D01*
X0015800Y0231986D02*
X0017200Y0231986D01*
X0017200Y0230387D02*
X0015800Y0230387D01*
X0015800Y0228789D02*
X0018306Y0228789D01*
X0015800Y0227190D02*
X0029056Y0227190D01*
X0028238Y0225592D02*
X0025362Y0225592D01*
X0018238Y0225592D02*
X0015800Y0225592D01*
X0015800Y0223993D02*
X0016639Y0223993D01*
X0016600Y0222395D02*
X0015800Y0222395D01*
X0015800Y0220796D02*
X0016600Y0220796D01*
X0017049Y0219198D02*
X0015800Y0219198D01*
X0015800Y0217599D02*
X0018647Y0217599D01*
X0018647Y0216001D02*
X0015800Y0216001D01*
X0015800Y0214402D02*
X0017048Y0214402D01*
X0016600Y0212803D02*
X0015800Y0212803D01*
X0015800Y0211205D02*
X0016600Y0211205D01*
X0016640Y0209606D02*
X0015800Y0209606D01*
X0015800Y0208008D02*
X0018238Y0208008D01*
X0019056Y0206409D02*
X0015800Y0206409D01*
X0031800Y0221800D02*
X0058800Y0221800D01*
X0079032Y0200015D02*
X0037000Y0200015D01*
X0035771Y0198417D02*
X0079032Y0198417D01*
X0079083Y0196818D02*
X0034172Y0196818D01*
X0053284Y0193284D02*
X0031800Y0171800D01*
X0028201Y0168045D02*
X0024551Y0168045D01*
X0026149Y0169644D02*
X0027065Y0169644D01*
X0026600Y0171242D02*
X0026400Y0171242D01*
X0026400Y0172841D02*
X0026603Y0172841D01*
X0027265Y0174439D02*
X0025666Y0174439D01*
X0024068Y0176038D02*
X0028684Y0176038D01*
X0029093Y0166447D02*
X0015800Y0166447D01*
X0015800Y0168045D02*
X0019049Y0168045D01*
X0017451Y0169644D02*
X0015800Y0169644D01*
X0015800Y0171242D02*
X0017200Y0171242D01*
X0017200Y0172841D02*
X0015800Y0172841D01*
X0015800Y0174439D02*
X0017934Y0174439D01*
X0018343Y0164848D02*
X0015800Y0164848D01*
X0015800Y0163250D02*
X0017200Y0163250D01*
X0017200Y0161651D02*
X0015800Y0161651D01*
X0015800Y0160053D02*
X0017200Y0160053D01*
X0015800Y0158454D02*
X0018641Y0158454D01*
X0018752Y0155257D02*
X0015800Y0155257D01*
X0015800Y0153659D02*
X0017200Y0153659D01*
X0017200Y0152060D02*
X0015800Y0152060D01*
X0015800Y0150462D02*
X0017200Y0150462D01*
X0018232Y0148863D02*
X0015800Y0148863D01*
X0015800Y0147265D02*
X0019830Y0147265D01*
X0019161Y0145666D02*
X0015800Y0145666D01*
X0015800Y0144068D02*
X0017562Y0144068D01*
X0017200Y0142469D02*
X0015800Y0142469D01*
X0015800Y0140870D02*
X0017200Y0140870D01*
X0017823Y0139272D02*
X0015800Y0139272D01*
X0015800Y0137673D02*
X0019421Y0137673D01*
X0019570Y0136075D02*
X0015800Y0136075D01*
X0015800Y0134476D02*
X0017971Y0134476D01*
X0017200Y0132878D02*
X0015800Y0132878D01*
X0015800Y0131279D02*
X0017200Y0131279D01*
X0017414Y0129681D02*
X0015800Y0129681D01*
X0015800Y0128082D02*
X0019012Y0128082D01*
X0015800Y0126484D02*
X0046958Y0126484D01*
X0031800Y0141800D02*
X0046800Y0156800D01*
X0046800Y0169800D01*
X0060835Y0183835D01*
X0075330Y0183835D01*
X0075330Y0186984D02*
X0058984Y0186984D01*
X0042800Y0170800D01*
X0042800Y0162800D01*
X0031800Y0151800D01*
X0026600Y0152060D02*
X0026400Y0152060D01*
X0026400Y0150462D02*
X0026600Y0150462D01*
X0027383Y0148863D02*
X0025368Y0148863D01*
X0023770Y0147265D02*
X0028982Y0147265D01*
X0028312Y0145666D02*
X0024439Y0145666D01*
X0026038Y0144068D02*
X0026714Y0144068D01*
X0026600Y0142469D02*
X0026400Y0142469D01*
X0026400Y0140870D02*
X0026600Y0140870D01*
X0026974Y0139272D02*
X0025777Y0139272D01*
X0024179Y0137673D02*
X0028573Y0137673D01*
X0028721Y0136075D02*
X0024030Y0136075D01*
X0025629Y0134476D02*
X0027123Y0134476D01*
X0026600Y0132878D02*
X0026400Y0132878D01*
X0026400Y0131279D02*
X0026600Y0131279D01*
X0026600Y0129681D02*
X0026186Y0129681D01*
X0025000Y0123287D02*
X0024600Y0123287D01*
X0024600Y0121688D02*
X0025000Y0121688D01*
X0025000Y0120090D02*
X0024600Y0120090D01*
X0017076Y0102506D02*
X0015800Y0102506D01*
X0015800Y0100908D02*
X0016414Y0100908D01*
X0016400Y0099309D02*
X0015800Y0099309D01*
X0016546Y0097711D02*
X0016820Y0097711D01*
X0063000Y0136075D02*
X0078160Y0136075D01*
X0078264Y0136047D02*
X0080580Y0136047D01*
X0080580Y0140320D01*
X0076701Y0140320D01*
X0076701Y0137610D01*
X0076823Y0137152D01*
X0077060Y0136742D01*
X0077396Y0136407D01*
X0077806Y0136170D01*
X0078264Y0136047D01*
X0076701Y0137673D02*
X0063000Y0137673D01*
X0063000Y0139272D02*
X0076701Y0139272D01*
X0076701Y0142469D02*
X0063000Y0142469D01*
X0063000Y0144068D02*
X0076722Y0144068D01*
X0080580Y0144068D02*
X0081539Y0144068D01*
X0081539Y0142469D02*
X0080580Y0142469D01*
X0080580Y0140870D02*
X0063000Y0140870D01*
X0063000Y0145666D02*
X0084500Y0145666D01*
X0086739Y0147265D02*
X0063000Y0147265D01*
X0063000Y0148863D02*
X0088338Y0148863D01*
X0088800Y0144800D02*
X0088800Y0141060D01*
X0088540Y0140800D01*
X0084359Y0136075D02*
X0083959Y0136075D01*
X0081539Y0136075D02*
X0080580Y0136075D01*
X0080580Y0137673D02*
X0081539Y0137673D01*
X0081539Y0139272D02*
X0080580Y0139272D01*
X0088800Y0144800D02*
X0095015Y0151015D01*
X0095015Y0154701D01*
X0098164Y0154701D02*
X0098164Y0160436D01*
X0093800Y0164800D01*
X0088800Y0164800D01*
X0090177Y0160054D02*
X0087254Y0160054D01*
X0087141Y0160007D01*
X0087028Y0160054D01*
X0084104Y0160054D01*
X0083991Y0160007D01*
X0083878Y0160054D01*
X0080955Y0160054D01*
X0080490Y0159861D01*
X0080683Y0160326D01*
X0080683Y0163249D01*
X0080636Y0163362D01*
X0080683Y0163475D01*
X0080683Y0166399D01*
X0080636Y0166512D01*
X0080683Y0166625D01*
X0080683Y0169548D01*
X0080636Y0169662D01*
X0080683Y0169775D01*
X0080683Y0171186D01*
X0092189Y0171186D01*
X0098300Y0165075D01*
X0098300Y0159454D01*
X0098165Y0159454D01*
X0098165Y0158698D01*
X0098164Y0158698D01*
X0098164Y0159454D01*
X0097593Y0159454D01*
X0097359Y0159688D01*
X0096477Y0160054D01*
X0093553Y0160054D01*
X0093440Y0160007D01*
X0093327Y0160054D01*
X0090404Y0160054D01*
X0090290Y0160007D01*
X0090177Y0160054D01*
X0090180Y0160053D02*
X0090401Y0160053D01*
X0093329Y0160053D02*
X0093551Y0160053D01*
X0096479Y0160053D02*
X0098300Y0160053D01*
X0098164Y0158698D02*
X0098164Y0158698D01*
X0098300Y0161651D02*
X0080683Y0161651D01*
X0080682Y0163250D02*
X0098300Y0163250D01*
X0098300Y0164848D02*
X0080683Y0164848D01*
X0080663Y0166447D02*
X0096928Y0166447D01*
X0095329Y0168045D02*
X0080683Y0168045D01*
X0080643Y0169644D02*
X0093731Y0169644D01*
X0093514Y0174386D02*
X0101500Y0166400D01*
X0101500Y0154887D01*
X0101314Y0154701D01*
X0101314Y0141546D01*
X0102060Y0140800D01*
X0106241Y0136075D02*
X0106641Y0136075D01*
X0109061Y0136075D02*
X0110020Y0136075D01*
X0110020Y0137673D02*
X0109061Y0137673D01*
X0109061Y0139272D02*
X0110020Y0139272D01*
X0113899Y0142469D02*
X0256374Y0142469D01*
X0256374Y0150462D02*
X0116962Y0150462D01*
X0117297Y0152060D02*
X0256374Y0152060D01*
X0256374Y0153659D02*
X0117297Y0153659D01*
X0117297Y0155257D02*
X0256374Y0155257D01*
X0256374Y0156856D02*
X0117297Y0156856D01*
X0117163Y0158454D02*
X0117446Y0158454D01*
X0115839Y0159861D02*
X0115374Y0160054D01*
X0112451Y0160054D01*
X0112338Y0160007D01*
X0112225Y0160054D01*
X0109301Y0160054D01*
X0109188Y0160007D01*
X0109075Y0160054D01*
X0106152Y0160054D01*
X0106038Y0160007D01*
X0105925Y0160054D01*
X0104700Y0160054D01*
X0104700Y0165075D01*
X0113961Y0174336D01*
X0116246Y0174336D01*
X0116246Y0173815D01*
X0116012Y0173580D01*
X0115646Y0172698D01*
X0115646Y0169775D01*
X0115693Y0169662D01*
X0115646Y0169548D01*
X0115646Y0166625D01*
X0115693Y0166512D01*
X0115646Y0166399D01*
X0115646Y0163475D01*
X0115693Y0163362D01*
X0115646Y0163249D01*
X0115646Y0160326D01*
X0115839Y0159861D01*
X0115760Y0160053D02*
X0115377Y0160053D01*
X0115646Y0161651D02*
X0104700Y0161651D01*
X0104700Y0163250D02*
X0115647Y0163250D01*
X0115646Y0164848D02*
X0104700Y0164848D01*
X0106072Y0166447D02*
X0115666Y0166447D01*
X0115646Y0168045D02*
X0107671Y0168045D01*
X0109269Y0169644D02*
X0115686Y0169644D01*
X0115646Y0171242D02*
X0110868Y0171242D01*
X0110800Y0170800D02*
X0110800Y0164800D01*
X0112227Y0160053D02*
X0112448Y0160053D01*
X0109299Y0160053D02*
X0109077Y0160053D01*
X0106149Y0160053D02*
X0105928Y0160053D01*
X0101500Y0166400D02*
X0112636Y0177536D01*
X0120999Y0177536D01*
X0120999Y0174386D02*
X0114386Y0174386D01*
X0110800Y0170800D01*
X0112466Y0172841D02*
X0115705Y0172841D01*
X0120999Y0171236D02*
X0144236Y0171236D01*
X0151087Y0168087D02*
X0216800Y0233800D01*
X0216800Y0243200D01*
X0216800Y0244800D01*
X0236800Y0246372D02*
X0236800Y0246372D01*
X0236800Y0247971D02*
X0236800Y0247971D01*
X0236800Y0249569D02*
X0236800Y0249569D01*
X0236800Y0251168D02*
X0236800Y0251168D01*
X0236800Y0252766D02*
X0236800Y0252766D01*
X0236800Y0254365D02*
X0236800Y0254365D01*
X0236800Y0255963D02*
X0236800Y0255963D01*
X0236800Y0257562D02*
X0236800Y0257562D01*
X0256374Y0283933D02*
X0256374Y0005100D01*
X0005100Y0005100D01*
X0005100Y0283933D01*
X0256374Y0283933D01*
X0202937Y0283138D02*
X0005100Y0283138D01*
X0005100Y0281539D02*
X0202038Y0281539D01*
X0202038Y0267153D02*
X0137858Y0267153D01*
X0129679Y0267153D02*
X0127858Y0267153D01*
X0111800Y0238060D02*
X0111800Y0221800D01*
X0106400Y0222395D02*
X0097200Y0222395D01*
X0097200Y0223993D02*
X0106400Y0223993D01*
X0106400Y0225592D02*
X0097200Y0225592D01*
X0096655Y0227190D02*
X0106945Y0227190D01*
X0108152Y0228789D02*
X0095448Y0228789D01*
X0095000Y0230387D02*
X0108600Y0230387D01*
X0108600Y0231986D02*
X0095000Y0231986D01*
X0096230Y0233584D02*
X0107370Y0233584D01*
X0106447Y0235183D02*
X0097153Y0235183D01*
X0097153Y0236781D02*
X0106447Y0236781D01*
X0106271Y0220796D02*
X0097329Y0220796D01*
X0098928Y0219198D02*
X0104672Y0219198D01*
X0103074Y0217599D02*
X0100526Y0217599D01*
X0113912Y0200370D02*
X0114370Y0200370D01*
X0139800Y0225800D01*
X0174753Y0187227D02*
X0256374Y0187227D01*
X0256374Y0185629D02*
X0173154Y0185629D01*
X0171556Y0184030D02*
X0256374Y0184030D01*
X0256374Y0182432D02*
X0169957Y0182432D01*
X0168359Y0180833D02*
X0256374Y0180833D01*
X0256374Y0179235D02*
X0166760Y0179235D01*
X0165162Y0177636D02*
X0256374Y0177636D01*
X0256374Y0176038D02*
X0163563Y0176038D01*
X0161965Y0174439D02*
X0256374Y0174439D01*
X0256374Y0172841D02*
X0160366Y0172841D01*
X0158768Y0171242D02*
X0256374Y0171242D01*
X0256374Y0169644D02*
X0157169Y0169644D01*
X0155571Y0168045D02*
X0256374Y0168045D01*
X0256374Y0166447D02*
X0153972Y0166447D01*
X0151087Y0168087D02*
X0120999Y0168087D01*
X0126352Y0164848D02*
X0256374Y0164848D01*
X0256374Y0163250D02*
X0126352Y0163250D01*
X0126352Y0161651D02*
X0256374Y0161651D01*
X0256374Y0160053D02*
X0126239Y0160053D01*
X0124552Y0158454D02*
X0256374Y0158454D01*
X0256374Y0128082D02*
X0113899Y0128082D01*
X0113281Y0126484D02*
X0256374Y0126484D01*
X0256374Y0083324D02*
X0107288Y0083324D01*
X0108287Y0081726D02*
X0256374Y0081726D01*
X0256374Y0080127D02*
X0108287Y0080127D01*
X0108287Y0078529D02*
X0256374Y0078529D01*
X0256374Y0076930D02*
X0108287Y0076930D01*
X0108287Y0075332D02*
X0256374Y0075332D01*
X0256374Y0073733D02*
X0108287Y0073733D01*
X0108262Y0072134D02*
X0256374Y0072134D01*
X0256374Y0070536D02*
X0107006Y0070536D01*
X0103700Y0068937D02*
X0256374Y0068937D01*
X0256374Y0067339D02*
X0103700Y0067339D01*
X0103700Y0065740D02*
X0256374Y0065740D01*
X0256374Y0064142D02*
X0103700Y0064142D01*
X0103700Y0062543D02*
X0256374Y0062543D01*
X0256374Y0060945D02*
X0103700Y0060945D01*
X0103700Y0059346D02*
X0256374Y0059346D01*
X0256374Y0057748D02*
X0111944Y0057748D01*
X0111975Y0057694D02*
X0111738Y0058104D01*
X0111403Y0058439D01*
X0110993Y0058676D01*
X0110535Y0058799D01*
X0108298Y0058799D01*
X0108298Y0052999D01*
X0112098Y0052999D01*
X0112098Y0057236D01*
X0111975Y0057694D01*
X0112098Y0056149D02*
X0256374Y0056149D01*
X0256374Y0054551D02*
X0112098Y0054551D01*
X0112098Y0051354D02*
X0256374Y0051354D01*
X0256374Y0052952D02*
X0108298Y0052952D01*
X0108298Y0051354D02*
X0107499Y0051354D01*
X0107499Y0049755D02*
X0108298Y0049755D01*
X0108298Y0048157D02*
X0107499Y0048157D01*
X0107499Y0046558D02*
X0108298Y0046558D01*
X0111055Y0046558D02*
X0235807Y0046558D01*
X0235673Y0046461D02*
X0235139Y0045927D01*
X0234695Y0045316D01*
X0234352Y0044643D01*
X0234118Y0043924D01*
X0234000Y0043178D01*
X0234000Y0043000D01*
X0241600Y0043000D01*
X0241600Y0047600D01*
X0238422Y0047600D01*
X0237676Y0047482D01*
X0236957Y0047248D01*
X0236284Y0046905D01*
X0235673Y0046461D01*
X0234513Y0044960D02*
X0102800Y0044960D01*
X0102800Y0043361D02*
X0203035Y0043361D01*
X0206192Y0043361D02*
X0234029Y0043361D01*
X0234000Y0042600D02*
X0234000Y0042422D01*
X0234118Y0041676D01*
X0234352Y0040957D01*
X0234695Y0040284D01*
X0235139Y0039673D01*
X0235673Y0039139D01*
X0236284Y0038695D01*
X0236957Y0038352D01*
X0237676Y0038118D01*
X0238422Y0038000D01*
X0241600Y0038000D01*
X0241600Y0042600D01*
X0242000Y0042600D01*
X0242000Y0043000D01*
X0241600Y0043000D01*
X0241600Y0042600D01*
X0234000Y0042600D01*
X0234104Y0041763D02*
X0208956Y0041763D01*
X0210203Y0040164D02*
X0234782Y0040164D01*
X0236537Y0038566D02*
X0210865Y0038566D01*
X0210913Y0036967D02*
X0236406Y0036967D01*
X0236284Y0036905D02*
X0235673Y0036461D01*
X0235139Y0035927D01*
X0234695Y0035316D01*
X0234352Y0034643D01*
X0234118Y0033924D01*
X0234000Y0033178D01*
X0234000Y0033000D01*
X0241600Y0033000D01*
X0241600Y0037600D01*
X0238422Y0037600D01*
X0237676Y0037482D01*
X0236957Y0037248D01*
X0236284Y0036905D01*
X0234733Y0035369D02*
X0210913Y0035369D01*
X0210913Y0033770D02*
X0234094Y0033770D01*
X0234000Y0032600D02*
X0234000Y0032422D01*
X0234118Y0031676D01*
X0234352Y0030957D01*
X0234695Y0030284D01*
X0235139Y0029673D01*
X0235673Y0029139D01*
X0236284Y0028695D01*
X0236957Y0028352D01*
X0237676Y0028118D01*
X0238422Y0028000D01*
X0241600Y0028000D01*
X0241600Y0032600D01*
X0242000Y0032600D01*
X0242000Y0033000D01*
X0241600Y0033000D01*
X0241600Y0032600D01*
X0234000Y0032600D01*
X0234040Y0032172D02*
X0210913Y0032172D01*
X0210913Y0030573D02*
X0234547Y0030573D01*
X0235899Y0028975D02*
X0210913Y0028975D01*
X0210596Y0027376D02*
X0237351Y0027376D01*
X0237676Y0027482D02*
X0236957Y0027248D01*
X0236284Y0026905D01*
X0235673Y0026461D01*
X0235139Y0025927D01*
X0234695Y0025316D01*
X0234352Y0024643D01*
X0234118Y0023924D01*
X0234000Y0023178D01*
X0234000Y0023000D01*
X0241600Y0023000D01*
X0241600Y0027600D01*
X0238422Y0027600D01*
X0237676Y0027482D01*
X0235030Y0025778D02*
X0209905Y0025778D01*
X0208800Y0024179D02*
X0234201Y0024179D01*
X0234000Y0022600D02*
X0234000Y0022422D01*
X0234118Y0021676D01*
X0234352Y0020957D01*
X0234695Y0020284D01*
X0235139Y0019673D01*
X0235673Y0019139D01*
X0236284Y0018695D01*
X0236957Y0018352D01*
X0237676Y0018118D01*
X0238422Y0018000D01*
X0241600Y0018000D01*
X0241600Y0022600D01*
X0242000Y0022600D01*
X0242000Y0023000D01*
X0241600Y0023000D01*
X0241600Y0022600D01*
X0234000Y0022600D01*
X0234000Y0022581D02*
X0208800Y0022581D01*
X0208800Y0020982D02*
X0234344Y0020982D01*
X0235428Y0019384D02*
X0208800Y0019384D01*
X0208709Y0017785D02*
X0256374Y0017785D01*
X0256374Y0016187D02*
X0207843Y0016187D01*
X0206245Y0014588D02*
X0256374Y0014588D01*
X0256374Y0012990D02*
X0204646Y0012990D01*
X0203048Y0011391D02*
X0256374Y0011391D01*
X0256374Y0009793D02*
X0201449Y0009793D01*
X0199547Y0008194D02*
X0256374Y0008194D01*
X0256374Y0006596D02*
X0005100Y0006596D01*
X0005100Y0008194D02*
X0105053Y0008194D01*
X0103151Y0009793D02*
X0005100Y0009793D01*
X0005100Y0011391D02*
X0101552Y0011391D01*
X0096757Y0016187D02*
X0087297Y0016187D01*
X0087569Y0017785D02*
X0095158Y0017785D01*
X0093560Y0019384D02*
X0087569Y0019384D01*
X0087146Y0020982D02*
X0091961Y0020982D01*
X0090362Y0022581D02*
X0085547Y0022581D01*
X0086138Y0024179D02*
X0088764Y0024179D01*
X0084419Y0033770D02*
X0096959Y0033770D01*
X0096881Y0027376D02*
X0179476Y0027376D01*
X0180397Y0025778D02*
X0098479Y0025778D01*
X0100078Y0024179D02*
X0182497Y0024179D01*
X0184313Y0024179D02*
X0185313Y0024179D01*
X0185313Y0025778D02*
X0184313Y0025778D01*
X0184313Y0027376D02*
X0185313Y0027376D01*
X0185313Y0028975D02*
X0184313Y0028975D01*
X0184313Y0030573D02*
X0185313Y0030573D01*
X0185313Y0032172D02*
X0184313Y0032172D01*
X0184313Y0035369D02*
X0185313Y0035369D01*
X0185313Y0036967D02*
X0184313Y0036967D01*
X0184313Y0038566D02*
X0185313Y0038566D01*
X0185313Y0040164D02*
X0184313Y0040164D01*
X0184313Y0041763D02*
X0185313Y0041763D01*
X0181402Y0041763D02*
X0102800Y0041763D01*
X0103738Y0040164D02*
X0179929Y0040164D01*
X0179265Y0038566D02*
X0115609Y0038566D01*
X0117208Y0036967D02*
X0179113Y0036967D01*
X0190513Y0030573D02*
X0198313Y0030573D01*
X0198313Y0028975D02*
X0190513Y0028975D01*
X0190150Y0027376D02*
X0198631Y0027376D01*
X0199322Y0025778D02*
X0189230Y0025778D01*
X0187130Y0024179D02*
X0200800Y0024179D01*
X0200800Y0022581D02*
X0101676Y0022581D01*
X0103275Y0020982D02*
X0200800Y0020982D01*
X0199727Y0019384D02*
X0104873Y0019384D01*
X0106472Y0017785D02*
X0198128Y0017785D01*
X0196530Y0016187D02*
X0108070Y0016187D01*
X0109601Y0030573D02*
X0106265Y0030573D01*
X0107483Y0032172D02*
X0108003Y0032172D01*
X0107809Y0036967D02*
X0107563Y0036967D01*
X0106458Y0038566D02*
X0109408Y0038566D01*
X0112509Y0038566D02*
X0112509Y0038566D01*
X0112509Y0036967D02*
X0112509Y0036967D01*
X0112509Y0035369D02*
X0112509Y0035369D01*
X0112509Y0033770D02*
X0112509Y0033770D01*
X0112509Y0032172D02*
X0112509Y0032172D01*
X0112509Y0030573D02*
X0112509Y0030573D01*
X0112098Y0048157D02*
X0256374Y0048157D01*
X0256374Y0049755D02*
X0112098Y0049755D01*
X0108298Y0054551D02*
X0107499Y0054551D01*
X0107499Y0056149D02*
X0108298Y0056149D01*
X0108298Y0057748D02*
X0107499Y0057748D01*
X0103853Y0057748D02*
X0103700Y0057748D01*
X0103600Y0051354D02*
X0103699Y0051354D01*
X0103699Y0049755D02*
X0103600Y0049755D01*
X0103600Y0048157D02*
X0103699Y0048157D01*
X0102952Y0046558D02*
X0104742Y0046558D01*
X0094648Y0046558D02*
X0093854Y0046558D01*
X0093900Y0059346D02*
X0092705Y0059346D01*
X0109061Y0132878D02*
X0110020Y0132878D01*
X0110020Y0134476D02*
X0109061Y0134476D01*
X0087252Y0160053D02*
X0087030Y0160053D01*
X0084102Y0160053D02*
X0083881Y0160053D01*
X0080952Y0160053D02*
X0080569Y0160053D01*
X0079166Y0158454D02*
X0078883Y0158454D01*
X0079032Y0156856D02*
X0072381Y0156856D01*
X0070981Y0155257D02*
X0079032Y0155257D01*
X0079032Y0153659D02*
X0070853Y0153659D01*
X0069973Y0152060D02*
X0079032Y0152060D01*
X0079367Y0150462D02*
X0063000Y0150462D01*
X0063000Y0152060D02*
X0063627Y0152060D01*
X0066800Y0154800D02*
X0066800Y0155800D01*
X0072800Y0161800D01*
X0075317Y0161800D01*
X0075330Y0161788D01*
X0075330Y0177536D02*
X0079536Y0177536D01*
X0086800Y0184800D01*
X0091815Y0184030D02*
X0080683Y0184030D01*
X0080683Y0185296D02*
X0080683Y0182373D01*
X0080636Y0182260D01*
X0080683Y0182147D01*
X0080683Y0179223D01*
X0080317Y0178341D01*
X0080083Y0178107D01*
X0080083Y0177586D01*
X0091815Y0177586D01*
X0091815Y0195017D01*
X0090404Y0195017D01*
X0090290Y0195064D01*
X0090177Y0195017D01*
X0087254Y0195017D01*
X0087141Y0195064D01*
X0087028Y0195017D01*
X0084104Y0195017D01*
X0083991Y0195064D01*
X0083878Y0195017D01*
X0080955Y0195017D01*
X0080490Y0195210D01*
X0080683Y0194745D01*
X0080683Y0191822D01*
X0080636Y0191709D01*
X0080683Y0191596D01*
X0080683Y0188672D01*
X0080636Y0188559D01*
X0080683Y0188446D01*
X0080683Y0185523D01*
X0080636Y0185410D01*
X0080683Y0185296D01*
X0080683Y0185629D02*
X0091815Y0185629D01*
X0091815Y0187227D02*
X0080683Y0187227D01*
X0080683Y0188826D02*
X0091815Y0188826D01*
X0091815Y0190424D02*
X0080683Y0190424D01*
X0080683Y0192023D02*
X0091815Y0192023D01*
X0091815Y0193621D02*
X0080683Y0193621D01*
X0075330Y0193284D02*
X0053284Y0193284D01*
X0056134Y0190134D02*
X0038800Y0172800D01*
X0038800Y0166800D01*
X0033800Y0161800D01*
X0031800Y0161800D01*
X0029390Y0156856D02*
X0015800Y0156856D01*
X0024848Y0155257D02*
X0027903Y0155257D01*
X0026600Y0153659D02*
X0026400Y0153659D01*
X0027792Y0158454D02*
X0024959Y0158454D01*
X0026400Y0160053D02*
X0026600Y0160053D01*
X0026600Y0161651D02*
X0026400Y0161651D01*
X0026400Y0163250D02*
X0026600Y0163250D01*
X0027494Y0164848D02*
X0025257Y0164848D01*
X0056134Y0190134D02*
X0075330Y0190134D01*
X0080683Y0182432D02*
X0091815Y0182432D01*
X0091815Y0180833D02*
X0080683Y0180833D01*
X0080683Y0179235D02*
X0091815Y0179235D01*
X0091815Y0177636D02*
X0080083Y0177636D01*
X0075330Y0180685D02*
X0063685Y0180685D01*
X0098215Y0177636D02*
X0108211Y0177636D01*
X0106612Y0176038D02*
X0098215Y0176038D01*
X0097986Y0174439D02*
X0105014Y0174439D01*
X0103415Y0172841D02*
X0099585Y0172841D01*
X0101183Y0171242D02*
X0101817Y0171242D01*
X0099364Y0195220D02*
X0098215Y0195220D01*
X0092280Y0246372D02*
X0091320Y0246372D01*
X0091320Y0247971D02*
X0092280Y0247971D01*
X0088680Y0252766D02*
X0081035Y0252766D01*
X0080800Y0254365D02*
X0088018Y0254365D01*
X0087869Y0263956D02*
X0005100Y0263956D01*
X0005100Y0265554D02*
X0088483Y0265554D01*
X0089679Y0267153D02*
X0005100Y0267153D01*
X0005100Y0268751D02*
X0089769Y0268751D01*
X0090094Y0270350D02*
X0005100Y0270350D01*
X0005100Y0271948D02*
X0091292Y0271948D01*
X0092890Y0273547D02*
X0005100Y0273547D01*
X0005100Y0275145D02*
X0094489Y0275145D01*
X0096087Y0276744D02*
X0005100Y0276744D01*
X0005100Y0278342D02*
X0097686Y0278342D01*
X0099284Y0279941D02*
X0005100Y0279941D01*
X0242000Y0047600D02*
X0242000Y0043000D01*
X0249600Y0043000D01*
X0249600Y0043178D01*
X0249482Y0043924D01*
X0249248Y0044643D01*
X0248905Y0045316D01*
X0248461Y0045927D01*
X0247927Y0046461D01*
X0247316Y0046905D01*
X0246643Y0047248D01*
X0245924Y0047482D01*
X0245178Y0047600D01*
X0242000Y0047600D01*
X0242000Y0046558D02*
X0241600Y0046558D01*
X0241600Y0044960D02*
X0242000Y0044960D01*
X0242000Y0043361D02*
X0241600Y0043361D01*
X0242000Y0042600D02*
X0249600Y0042600D01*
X0249600Y0042422D01*
X0249482Y0041676D01*
X0249248Y0040957D01*
X0248905Y0040284D01*
X0248461Y0039673D01*
X0247927Y0039139D01*
X0247316Y0038695D01*
X0246643Y0038352D01*
X0245924Y0038118D01*
X0245178Y0038000D01*
X0242000Y0038000D01*
X0242000Y0042600D01*
X0242000Y0041763D02*
X0241600Y0041763D01*
X0241600Y0040164D02*
X0242000Y0040164D01*
X0242000Y0038566D02*
X0241600Y0038566D01*
X0242000Y0037600D02*
X0242000Y0033000D01*
X0249600Y0033000D01*
X0249600Y0033178D01*
X0249482Y0033924D01*
X0249248Y0034643D01*
X0248905Y0035316D01*
X0248461Y0035927D01*
X0247927Y0036461D01*
X0247316Y0036905D01*
X0246643Y0037248D01*
X0245924Y0037482D01*
X0245178Y0037600D01*
X0242000Y0037600D01*
X0242000Y0036967D02*
X0241600Y0036967D01*
X0241600Y0035369D02*
X0242000Y0035369D01*
X0242000Y0033770D02*
X0241600Y0033770D01*
X0242000Y0032600D02*
X0249600Y0032600D01*
X0249600Y0032422D01*
X0249482Y0031676D01*
X0249248Y0030957D01*
X0248905Y0030284D01*
X0248461Y0029673D01*
X0247927Y0029139D01*
X0247316Y0028695D01*
X0246643Y0028352D01*
X0245924Y0028118D01*
X0245178Y0028000D01*
X0242000Y0028000D01*
X0242000Y0032600D01*
X0242000Y0032172D02*
X0241600Y0032172D01*
X0241600Y0030573D02*
X0242000Y0030573D01*
X0242000Y0028975D02*
X0241600Y0028975D01*
X0242000Y0027600D02*
X0242000Y0023000D01*
X0249600Y0023000D01*
X0249600Y0023178D01*
X0249482Y0023924D01*
X0249248Y0024643D01*
X0248905Y0025316D01*
X0248461Y0025927D01*
X0247927Y0026461D01*
X0247316Y0026905D01*
X0246643Y0027248D01*
X0245924Y0027482D01*
X0245178Y0027600D01*
X0242000Y0027600D01*
X0242000Y0027376D02*
X0241600Y0027376D01*
X0241600Y0025778D02*
X0242000Y0025778D01*
X0242000Y0024179D02*
X0241600Y0024179D01*
X0241600Y0022581D02*
X0242000Y0022581D01*
X0242000Y0022600D02*
X0242000Y0018000D01*
X0245178Y0018000D01*
X0245924Y0018118D01*
X0246643Y0018352D01*
X0247316Y0018695D01*
X0247927Y0019139D01*
X0248461Y0019673D01*
X0248905Y0020284D01*
X0249248Y0020957D01*
X0249482Y0021676D01*
X0249600Y0022422D01*
X0249600Y0022600D01*
X0242000Y0022600D01*
X0242000Y0020982D02*
X0241600Y0020982D01*
X0241600Y0019384D02*
X0242000Y0019384D01*
X0248172Y0019384D02*
X0256374Y0019384D01*
X0256374Y0020982D02*
X0249256Y0020982D01*
X0249600Y0022581D02*
X0256374Y0022581D01*
X0256374Y0024179D02*
X0249399Y0024179D01*
X0248570Y0025778D02*
X0256374Y0025778D01*
X0256374Y0027376D02*
X0246249Y0027376D01*
X0247701Y0028975D02*
X0256374Y0028975D01*
X0256374Y0030573D02*
X0249053Y0030573D01*
X0249560Y0032172D02*
X0256374Y0032172D01*
X0256374Y0033770D02*
X0249506Y0033770D01*
X0248867Y0035369D02*
X0256374Y0035369D01*
X0256374Y0036967D02*
X0247194Y0036967D01*
X0247063Y0038566D02*
X0256374Y0038566D01*
X0256374Y0040164D02*
X0248818Y0040164D01*
X0249496Y0041763D02*
X0256374Y0041763D01*
X0256374Y0043361D02*
X0249571Y0043361D01*
X0249087Y0044960D02*
X0256374Y0044960D01*
X0256374Y0046558D02*
X0247793Y0046558D01*
D29*
X0110800Y0164800D03*
X0106800Y0185800D03*
X0086800Y0184800D03*
X0088800Y0164800D03*
X0066800Y0154800D03*
X0089800Y0123800D03*
X0078800Y0091800D03*
X0051800Y0099800D03*
X0058800Y0221800D03*
X0066800Y0231800D03*
X0080800Y0225800D03*
D30*
X0015800Y0083800D02*
X0015800Y0073800D01*
X0015800Y0063800D01*
D31*
X0015800Y0083800D02*
X0015800Y0092800D01*
X0016800Y0091800D01*
X0020800Y0091800D01*
X0061800Y0091800D01*
X0078800Y0091800D01*
X0096800Y0091800D01*
X0101800Y0096800D01*
X0101800Y0130540D01*
X0102060Y0130800D01*
X0102060Y0140800D01*
X0098800Y0052599D02*
X0098800Y0038800D01*
X0102509Y0035091D01*
X0102509Y0034666D01*
X0089060Y0029540D02*
X0106800Y0011800D01*
X0197800Y0011800D01*
X0204800Y0018800D01*
X0204800Y0033109D01*
X0204613Y0033296D01*
X0089060Y0029540D02*
X0083650Y0029540D01*
X0082619Y0028509D01*
X0081064Y0030064D01*
X0079540Y0031587D01*
X0075619Y0035509D01*
X0075619Y0052060D01*
X0080520Y0052599D01*
X0089702Y0052599D01*
X0082800Y0028690D02*
X0082619Y0028509D01*
X0071991Y0028509D01*
X0064200Y0036300D01*
X0015800Y0092800D02*
X0011800Y0096800D01*
X0011800Y0201800D01*
X0021800Y0201800D01*
X0011800Y0201800D02*
X0011800Y0251800D01*
X0019398Y0259398D01*
X0076800Y0259398D01*
X0093769Y0259398D01*
X0093769Y0268769D01*
X0101800Y0276800D01*
X0205898Y0276800D01*
X0206800Y0277702D01*
X0207702Y0276800D01*
X0215898Y0276800D01*
X0221800Y0276800D01*
X0226800Y0271800D01*
X0226800Y0251800D01*
X0215898Y0276800D02*
X0216800Y0277702D01*
X0076800Y0259398D02*
X0076800Y0247702D01*
D32*
X0098800Y0077001D02*
X0098800Y0052599D01*
M02*
