G75*
%MOIN*%
%OFA0B0*%
%FSLAX25Y25*%
%IPPOS*%
%LPD*%
%AMOC8*
5,1,8,0,0,1.08239X$1,22.5*
%
%ADD10C,0.00000*%
%ADD11R,0.07000X0.07000*%
%ADD12C,0.07000*%
%ADD13C,0.06000*%
%ADD14OC8,0.06000*%
%ADD15OC8,0.05600*%
%ADD16C,0.05543*%
%ADD17C,0.11220*%
%ADD18C,0.01600*%
%ADD19R,0.04356X0.04356*%
%ADD20OC8,0.04750*%
%ADD21OC8,0.04356*%
%ADD22C,0.01000*%
D10*
X0001800Y0001800D02*
X0001800Y0240501D01*
X0256721Y0240501D01*
X0256721Y0001800D01*
X0001800Y0001800D01*
X0042900Y0211800D02*
X0042902Y0211960D01*
X0042908Y0212119D01*
X0042918Y0212278D01*
X0042932Y0212437D01*
X0042950Y0212596D01*
X0042971Y0212754D01*
X0042997Y0212911D01*
X0043027Y0213068D01*
X0043060Y0213224D01*
X0043098Y0213379D01*
X0043139Y0213533D01*
X0043184Y0213686D01*
X0043233Y0213838D01*
X0043286Y0213989D01*
X0043342Y0214138D01*
X0043403Y0214286D01*
X0043466Y0214432D01*
X0043534Y0214577D01*
X0043605Y0214720D01*
X0043679Y0214861D01*
X0043757Y0215000D01*
X0043839Y0215137D01*
X0043924Y0215272D01*
X0044012Y0215405D01*
X0044104Y0215536D01*
X0044198Y0215664D01*
X0044296Y0215790D01*
X0044397Y0215914D01*
X0044501Y0216035D01*
X0044608Y0216153D01*
X0044718Y0216269D01*
X0044831Y0216382D01*
X0044947Y0216492D01*
X0045065Y0216599D01*
X0045186Y0216703D01*
X0045310Y0216804D01*
X0045436Y0216902D01*
X0045564Y0216996D01*
X0045695Y0217088D01*
X0045828Y0217176D01*
X0045963Y0217261D01*
X0046100Y0217343D01*
X0046239Y0217421D01*
X0046380Y0217495D01*
X0046523Y0217566D01*
X0046668Y0217634D01*
X0046814Y0217697D01*
X0046962Y0217758D01*
X0047111Y0217814D01*
X0047262Y0217867D01*
X0047414Y0217916D01*
X0047567Y0217961D01*
X0047721Y0218002D01*
X0047876Y0218040D01*
X0048032Y0218073D01*
X0048189Y0218103D01*
X0048346Y0218129D01*
X0048504Y0218150D01*
X0048663Y0218168D01*
X0048822Y0218182D01*
X0048981Y0218192D01*
X0049140Y0218198D01*
X0049300Y0218200D01*
X0049460Y0218198D01*
X0049619Y0218192D01*
X0049778Y0218182D01*
X0049937Y0218168D01*
X0050096Y0218150D01*
X0050254Y0218129D01*
X0050411Y0218103D01*
X0050568Y0218073D01*
X0050724Y0218040D01*
X0050879Y0218002D01*
X0051033Y0217961D01*
X0051186Y0217916D01*
X0051338Y0217867D01*
X0051489Y0217814D01*
X0051638Y0217758D01*
X0051786Y0217697D01*
X0051932Y0217634D01*
X0052077Y0217566D01*
X0052220Y0217495D01*
X0052361Y0217421D01*
X0052500Y0217343D01*
X0052637Y0217261D01*
X0052772Y0217176D01*
X0052905Y0217088D01*
X0053036Y0216996D01*
X0053164Y0216902D01*
X0053290Y0216804D01*
X0053414Y0216703D01*
X0053535Y0216599D01*
X0053653Y0216492D01*
X0053769Y0216382D01*
X0053882Y0216269D01*
X0053992Y0216153D01*
X0054099Y0216035D01*
X0054203Y0215914D01*
X0054304Y0215790D01*
X0054402Y0215664D01*
X0054496Y0215536D01*
X0054588Y0215405D01*
X0054676Y0215272D01*
X0054761Y0215137D01*
X0054843Y0215000D01*
X0054921Y0214861D01*
X0054995Y0214720D01*
X0055066Y0214577D01*
X0055134Y0214432D01*
X0055197Y0214286D01*
X0055258Y0214138D01*
X0055314Y0213989D01*
X0055367Y0213838D01*
X0055416Y0213686D01*
X0055461Y0213533D01*
X0055502Y0213379D01*
X0055540Y0213224D01*
X0055573Y0213068D01*
X0055603Y0212911D01*
X0055629Y0212754D01*
X0055650Y0212596D01*
X0055668Y0212437D01*
X0055682Y0212278D01*
X0055692Y0212119D01*
X0055698Y0211960D01*
X0055700Y0211800D01*
X0055698Y0211640D01*
X0055692Y0211481D01*
X0055682Y0211322D01*
X0055668Y0211163D01*
X0055650Y0211004D01*
X0055629Y0210846D01*
X0055603Y0210689D01*
X0055573Y0210532D01*
X0055540Y0210376D01*
X0055502Y0210221D01*
X0055461Y0210067D01*
X0055416Y0209914D01*
X0055367Y0209762D01*
X0055314Y0209611D01*
X0055258Y0209462D01*
X0055197Y0209314D01*
X0055134Y0209168D01*
X0055066Y0209023D01*
X0054995Y0208880D01*
X0054921Y0208739D01*
X0054843Y0208600D01*
X0054761Y0208463D01*
X0054676Y0208328D01*
X0054588Y0208195D01*
X0054496Y0208064D01*
X0054402Y0207936D01*
X0054304Y0207810D01*
X0054203Y0207686D01*
X0054099Y0207565D01*
X0053992Y0207447D01*
X0053882Y0207331D01*
X0053769Y0207218D01*
X0053653Y0207108D01*
X0053535Y0207001D01*
X0053414Y0206897D01*
X0053290Y0206796D01*
X0053164Y0206698D01*
X0053036Y0206604D01*
X0052905Y0206512D01*
X0052772Y0206424D01*
X0052637Y0206339D01*
X0052500Y0206257D01*
X0052361Y0206179D01*
X0052220Y0206105D01*
X0052077Y0206034D01*
X0051932Y0205966D01*
X0051786Y0205903D01*
X0051638Y0205842D01*
X0051489Y0205786D01*
X0051338Y0205733D01*
X0051186Y0205684D01*
X0051033Y0205639D01*
X0050879Y0205598D01*
X0050724Y0205560D01*
X0050568Y0205527D01*
X0050411Y0205497D01*
X0050254Y0205471D01*
X0050096Y0205450D01*
X0049937Y0205432D01*
X0049778Y0205418D01*
X0049619Y0205408D01*
X0049460Y0205402D01*
X0049300Y0205400D01*
X0049140Y0205402D01*
X0048981Y0205408D01*
X0048822Y0205418D01*
X0048663Y0205432D01*
X0048504Y0205450D01*
X0048346Y0205471D01*
X0048189Y0205497D01*
X0048032Y0205527D01*
X0047876Y0205560D01*
X0047721Y0205598D01*
X0047567Y0205639D01*
X0047414Y0205684D01*
X0047262Y0205733D01*
X0047111Y0205786D01*
X0046962Y0205842D01*
X0046814Y0205903D01*
X0046668Y0205966D01*
X0046523Y0206034D01*
X0046380Y0206105D01*
X0046239Y0206179D01*
X0046100Y0206257D01*
X0045963Y0206339D01*
X0045828Y0206424D01*
X0045695Y0206512D01*
X0045564Y0206604D01*
X0045436Y0206698D01*
X0045310Y0206796D01*
X0045186Y0206897D01*
X0045065Y0207001D01*
X0044947Y0207108D01*
X0044831Y0207218D01*
X0044718Y0207331D01*
X0044608Y0207447D01*
X0044501Y0207565D01*
X0044397Y0207686D01*
X0044296Y0207810D01*
X0044198Y0207936D01*
X0044104Y0208064D01*
X0044012Y0208195D01*
X0043924Y0208328D01*
X0043839Y0208463D01*
X0043757Y0208600D01*
X0043679Y0208739D01*
X0043605Y0208880D01*
X0043534Y0209023D01*
X0043466Y0209168D01*
X0043403Y0209314D01*
X0043342Y0209462D01*
X0043286Y0209611D01*
X0043233Y0209762D01*
X0043184Y0209914D01*
X0043139Y0210067D01*
X0043098Y0210221D01*
X0043060Y0210376D01*
X0043027Y0210532D01*
X0042997Y0210689D01*
X0042971Y0210846D01*
X0042950Y0211004D01*
X0042932Y0211163D01*
X0042918Y0211322D01*
X0042908Y0211481D01*
X0042902Y0211640D01*
X0042900Y0211800D01*
X0011288Y0221800D02*
X0011290Y0221948D01*
X0011296Y0222096D01*
X0011306Y0222244D01*
X0011320Y0222391D01*
X0011338Y0222538D01*
X0011359Y0222684D01*
X0011385Y0222830D01*
X0011415Y0222975D01*
X0011448Y0223119D01*
X0011486Y0223262D01*
X0011527Y0223404D01*
X0011572Y0223545D01*
X0011620Y0223685D01*
X0011673Y0223824D01*
X0011729Y0223961D01*
X0011789Y0224096D01*
X0011852Y0224230D01*
X0011919Y0224362D01*
X0011990Y0224492D01*
X0012064Y0224620D01*
X0012141Y0224746D01*
X0012222Y0224870D01*
X0012306Y0224992D01*
X0012393Y0225111D01*
X0012484Y0225228D01*
X0012578Y0225343D01*
X0012674Y0225455D01*
X0012774Y0225565D01*
X0012876Y0225671D01*
X0012982Y0225775D01*
X0013090Y0225876D01*
X0013201Y0225974D01*
X0013314Y0226070D01*
X0013430Y0226162D01*
X0013548Y0226251D01*
X0013669Y0226336D01*
X0013792Y0226419D01*
X0013917Y0226498D01*
X0014044Y0226574D01*
X0014173Y0226646D01*
X0014304Y0226715D01*
X0014437Y0226780D01*
X0014572Y0226841D01*
X0014708Y0226899D01*
X0014845Y0226954D01*
X0014984Y0227004D01*
X0015125Y0227051D01*
X0015266Y0227094D01*
X0015409Y0227134D01*
X0015553Y0227169D01*
X0015697Y0227201D01*
X0015843Y0227228D01*
X0015989Y0227252D01*
X0016136Y0227272D01*
X0016283Y0227288D01*
X0016430Y0227300D01*
X0016578Y0227308D01*
X0016726Y0227312D01*
X0016874Y0227312D01*
X0017022Y0227308D01*
X0017170Y0227300D01*
X0017317Y0227288D01*
X0017464Y0227272D01*
X0017611Y0227252D01*
X0017757Y0227228D01*
X0017903Y0227201D01*
X0018047Y0227169D01*
X0018191Y0227134D01*
X0018334Y0227094D01*
X0018475Y0227051D01*
X0018616Y0227004D01*
X0018755Y0226954D01*
X0018892Y0226899D01*
X0019028Y0226841D01*
X0019163Y0226780D01*
X0019296Y0226715D01*
X0019427Y0226646D01*
X0019556Y0226574D01*
X0019683Y0226498D01*
X0019808Y0226419D01*
X0019931Y0226336D01*
X0020052Y0226251D01*
X0020170Y0226162D01*
X0020286Y0226070D01*
X0020399Y0225974D01*
X0020510Y0225876D01*
X0020618Y0225775D01*
X0020724Y0225671D01*
X0020826Y0225565D01*
X0020926Y0225455D01*
X0021022Y0225343D01*
X0021116Y0225228D01*
X0021207Y0225111D01*
X0021294Y0224992D01*
X0021378Y0224870D01*
X0021459Y0224746D01*
X0021536Y0224620D01*
X0021610Y0224492D01*
X0021681Y0224362D01*
X0021748Y0224230D01*
X0021811Y0224096D01*
X0021871Y0223961D01*
X0021927Y0223824D01*
X0021980Y0223685D01*
X0022028Y0223545D01*
X0022073Y0223404D01*
X0022114Y0223262D01*
X0022152Y0223119D01*
X0022185Y0222975D01*
X0022215Y0222830D01*
X0022241Y0222684D01*
X0022262Y0222538D01*
X0022280Y0222391D01*
X0022294Y0222244D01*
X0022304Y0222096D01*
X0022310Y0221948D01*
X0022312Y0221800D01*
X0022310Y0221652D01*
X0022304Y0221504D01*
X0022294Y0221356D01*
X0022280Y0221209D01*
X0022262Y0221062D01*
X0022241Y0220916D01*
X0022215Y0220770D01*
X0022185Y0220625D01*
X0022152Y0220481D01*
X0022114Y0220338D01*
X0022073Y0220196D01*
X0022028Y0220055D01*
X0021980Y0219915D01*
X0021927Y0219776D01*
X0021871Y0219639D01*
X0021811Y0219504D01*
X0021748Y0219370D01*
X0021681Y0219238D01*
X0021610Y0219108D01*
X0021536Y0218980D01*
X0021459Y0218854D01*
X0021378Y0218730D01*
X0021294Y0218608D01*
X0021207Y0218489D01*
X0021116Y0218372D01*
X0021022Y0218257D01*
X0020926Y0218145D01*
X0020826Y0218035D01*
X0020724Y0217929D01*
X0020618Y0217825D01*
X0020510Y0217724D01*
X0020399Y0217626D01*
X0020286Y0217530D01*
X0020170Y0217438D01*
X0020052Y0217349D01*
X0019931Y0217264D01*
X0019808Y0217181D01*
X0019683Y0217102D01*
X0019556Y0217026D01*
X0019427Y0216954D01*
X0019296Y0216885D01*
X0019163Y0216820D01*
X0019028Y0216759D01*
X0018892Y0216701D01*
X0018755Y0216646D01*
X0018616Y0216596D01*
X0018475Y0216549D01*
X0018334Y0216506D01*
X0018191Y0216466D01*
X0018047Y0216431D01*
X0017903Y0216399D01*
X0017757Y0216372D01*
X0017611Y0216348D01*
X0017464Y0216328D01*
X0017317Y0216312D01*
X0017170Y0216300D01*
X0017022Y0216292D01*
X0016874Y0216288D01*
X0016726Y0216288D01*
X0016578Y0216292D01*
X0016430Y0216300D01*
X0016283Y0216312D01*
X0016136Y0216328D01*
X0015989Y0216348D01*
X0015843Y0216372D01*
X0015697Y0216399D01*
X0015553Y0216431D01*
X0015409Y0216466D01*
X0015266Y0216506D01*
X0015125Y0216549D01*
X0014984Y0216596D01*
X0014845Y0216646D01*
X0014708Y0216701D01*
X0014572Y0216759D01*
X0014437Y0216820D01*
X0014304Y0216885D01*
X0014173Y0216954D01*
X0014044Y0217026D01*
X0013917Y0217102D01*
X0013792Y0217181D01*
X0013669Y0217264D01*
X0013548Y0217349D01*
X0013430Y0217438D01*
X0013314Y0217530D01*
X0013201Y0217626D01*
X0013090Y0217724D01*
X0012982Y0217825D01*
X0012876Y0217929D01*
X0012774Y0218035D01*
X0012674Y0218145D01*
X0012578Y0218257D01*
X0012484Y0218372D01*
X0012393Y0218489D01*
X0012306Y0218608D01*
X0012222Y0218730D01*
X0012141Y0218854D01*
X0012064Y0218980D01*
X0011990Y0219108D01*
X0011919Y0219238D01*
X0011852Y0219370D01*
X0011789Y0219504D01*
X0011729Y0219639D01*
X0011673Y0219776D01*
X0011620Y0219915D01*
X0011572Y0220055D01*
X0011527Y0220196D01*
X0011486Y0220338D01*
X0011448Y0220481D01*
X0011415Y0220625D01*
X0011385Y0220770D01*
X0011359Y0220916D01*
X0011338Y0221062D01*
X0011320Y0221209D01*
X0011306Y0221356D01*
X0011296Y0221504D01*
X0011290Y0221652D01*
X0011288Y0221800D01*
X0087900Y0211800D02*
X0087902Y0211960D01*
X0087908Y0212119D01*
X0087918Y0212278D01*
X0087932Y0212437D01*
X0087950Y0212596D01*
X0087971Y0212754D01*
X0087997Y0212911D01*
X0088027Y0213068D01*
X0088060Y0213224D01*
X0088098Y0213379D01*
X0088139Y0213533D01*
X0088184Y0213686D01*
X0088233Y0213838D01*
X0088286Y0213989D01*
X0088342Y0214138D01*
X0088403Y0214286D01*
X0088466Y0214432D01*
X0088534Y0214577D01*
X0088605Y0214720D01*
X0088679Y0214861D01*
X0088757Y0215000D01*
X0088839Y0215137D01*
X0088924Y0215272D01*
X0089012Y0215405D01*
X0089104Y0215536D01*
X0089198Y0215664D01*
X0089296Y0215790D01*
X0089397Y0215914D01*
X0089501Y0216035D01*
X0089608Y0216153D01*
X0089718Y0216269D01*
X0089831Y0216382D01*
X0089947Y0216492D01*
X0090065Y0216599D01*
X0090186Y0216703D01*
X0090310Y0216804D01*
X0090436Y0216902D01*
X0090564Y0216996D01*
X0090695Y0217088D01*
X0090828Y0217176D01*
X0090963Y0217261D01*
X0091100Y0217343D01*
X0091239Y0217421D01*
X0091380Y0217495D01*
X0091523Y0217566D01*
X0091668Y0217634D01*
X0091814Y0217697D01*
X0091962Y0217758D01*
X0092111Y0217814D01*
X0092262Y0217867D01*
X0092414Y0217916D01*
X0092567Y0217961D01*
X0092721Y0218002D01*
X0092876Y0218040D01*
X0093032Y0218073D01*
X0093189Y0218103D01*
X0093346Y0218129D01*
X0093504Y0218150D01*
X0093663Y0218168D01*
X0093822Y0218182D01*
X0093981Y0218192D01*
X0094140Y0218198D01*
X0094300Y0218200D01*
X0094460Y0218198D01*
X0094619Y0218192D01*
X0094778Y0218182D01*
X0094937Y0218168D01*
X0095096Y0218150D01*
X0095254Y0218129D01*
X0095411Y0218103D01*
X0095568Y0218073D01*
X0095724Y0218040D01*
X0095879Y0218002D01*
X0096033Y0217961D01*
X0096186Y0217916D01*
X0096338Y0217867D01*
X0096489Y0217814D01*
X0096638Y0217758D01*
X0096786Y0217697D01*
X0096932Y0217634D01*
X0097077Y0217566D01*
X0097220Y0217495D01*
X0097361Y0217421D01*
X0097500Y0217343D01*
X0097637Y0217261D01*
X0097772Y0217176D01*
X0097905Y0217088D01*
X0098036Y0216996D01*
X0098164Y0216902D01*
X0098290Y0216804D01*
X0098414Y0216703D01*
X0098535Y0216599D01*
X0098653Y0216492D01*
X0098769Y0216382D01*
X0098882Y0216269D01*
X0098992Y0216153D01*
X0099099Y0216035D01*
X0099203Y0215914D01*
X0099304Y0215790D01*
X0099402Y0215664D01*
X0099496Y0215536D01*
X0099588Y0215405D01*
X0099676Y0215272D01*
X0099761Y0215137D01*
X0099843Y0215000D01*
X0099921Y0214861D01*
X0099995Y0214720D01*
X0100066Y0214577D01*
X0100134Y0214432D01*
X0100197Y0214286D01*
X0100258Y0214138D01*
X0100314Y0213989D01*
X0100367Y0213838D01*
X0100416Y0213686D01*
X0100461Y0213533D01*
X0100502Y0213379D01*
X0100540Y0213224D01*
X0100573Y0213068D01*
X0100603Y0212911D01*
X0100629Y0212754D01*
X0100650Y0212596D01*
X0100668Y0212437D01*
X0100682Y0212278D01*
X0100692Y0212119D01*
X0100698Y0211960D01*
X0100700Y0211800D01*
X0100698Y0211640D01*
X0100692Y0211481D01*
X0100682Y0211322D01*
X0100668Y0211163D01*
X0100650Y0211004D01*
X0100629Y0210846D01*
X0100603Y0210689D01*
X0100573Y0210532D01*
X0100540Y0210376D01*
X0100502Y0210221D01*
X0100461Y0210067D01*
X0100416Y0209914D01*
X0100367Y0209762D01*
X0100314Y0209611D01*
X0100258Y0209462D01*
X0100197Y0209314D01*
X0100134Y0209168D01*
X0100066Y0209023D01*
X0099995Y0208880D01*
X0099921Y0208739D01*
X0099843Y0208600D01*
X0099761Y0208463D01*
X0099676Y0208328D01*
X0099588Y0208195D01*
X0099496Y0208064D01*
X0099402Y0207936D01*
X0099304Y0207810D01*
X0099203Y0207686D01*
X0099099Y0207565D01*
X0098992Y0207447D01*
X0098882Y0207331D01*
X0098769Y0207218D01*
X0098653Y0207108D01*
X0098535Y0207001D01*
X0098414Y0206897D01*
X0098290Y0206796D01*
X0098164Y0206698D01*
X0098036Y0206604D01*
X0097905Y0206512D01*
X0097772Y0206424D01*
X0097637Y0206339D01*
X0097500Y0206257D01*
X0097361Y0206179D01*
X0097220Y0206105D01*
X0097077Y0206034D01*
X0096932Y0205966D01*
X0096786Y0205903D01*
X0096638Y0205842D01*
X0096489Y0205786D01*
X0096338Y0205733D01*
X0096186Y0205684D01*
X0096033Y0205639D01*
X0095879Y0205598D01*
X0095724Y0205560D01*
X0095568Y0205527D01*
X0095411Y0205497D01*
X0095254Y0205471D01*
X0095096Y0205450D01*
X0094937Y0205432D01*
X0094778Y0205418D01*
X0094619Y0205408D01*
X0094460Y0205402D01*
X0094300Y0205400D01*
X0094140Y0205402D01*
X0093981Y0205408D01*
X0093822Y0205418D01*
X0093663Y0205432D01*
X0093504Y0205450D01*
X0093346Y0205471D01*
X0093189Y0205497D01*
X0093032Y0205527D01*
X0092876Y0205560D01*
X0092721Y0205598D01*
X0092567Y0205639D01*
X0092414Y0205684D01*
X0092262Y0205733D01*
X0092111Y0205786D01*
X0091962Y0205842D01*
X0091814Y0205903D01*
X0091668Y0205966D01*
X0091523Y0206034D01*
X0091380Y0206105D01*
X0091239Y0206179D01*
X0091100Y0206257D01*
X0090963Y0206339D01*
X0090828Y0206424D01*
X0090695Y0206512D01*
X0090564Y0206604D01*
X0090436Y0206698D01*
X0090310Y0206796D01*
X0090186Y0206897D01*
X0090065Y0207001D01*
X0089947Y0207108D01*
X0089831Y0207218D01*
X0089718Y0207331D01*
X0089608Y0207447D01*
X0089501Y0207565D01*
X0089397Y0207686D01*
X0089296Y0207810D01*
X0089198Y0207936D01*
X0089104Y0208064D01*
X0089012Y0208195D01*
X0088924Y0208328D01*
X0088839Y0208463D01*
X0088757Y0208600D01*
X0088679Y0208739D01*
X0088605Y0208880D01*
X0088534Y0209023D01*
X0088466Y0209168D01*
X0088403Y0209314D01*
X0088342Y0209462D01*
X0088286Y0209611D01*
X0088233Y0209762D01*
X0088184Y0209914D01*
X0088139Y0210067D01*
X0088098Y0210221D01*
X0088060Y0210376D01*
X0088027Y0210532D01*
X0087997Y0210689D01*
X0087971Y0210846D01*
X0087950Y0211004D01*
X0087932Y0211163D01*
X0087918Y0211322D01*
X0087908Y0211481D01*
X0087902Y0211640D01*
X0087900Y0211800D01*
X0236288Y0221800D02*
X0236290Y0221948D01*
X0236296Y0222096D01*
X0236306Y0222244D01*
X0236320Y0222391D01*
X0236338Y0222538D01*
X0236359Y0222684D01*
X0236385Y0222830D01*
X0236415Y0222975D01*
X0236448Y0223119D01*
X0236486Y0223262D01*
X0236527Y0223404D01*
X0236572Y0223545D01*
X0236620Y0223685D01*
X0236673Y0223824D01*
X0236729Y0223961D01*
X0236789Y0224096D01*
X0236852Y0224230D01*
X0236919Y0224362D01*
X0236990Y0224492D01*
X0237064Y0224620D01*
X0237141Y0224746D01*
X0237222Y0224870D01*
X0237306Y0224992D01*
X0237393Y0225111D01*
X0237484Y0225228D01*
X0237578Y0225343D01*
X0237674Y0225455D01*
X0237774Y0225565D01*
X0237876Y0225671D01*
X0237982Y0225775D01*
X0238090Y0225876D01*
X0238201Y0225974D01*
X0238314Y0226070D01*
X0238430Y0226162D01*
X0238548Y0226251D01*
X0238669Y0226336D01*
X0238792Y0226419D01*
X0238917Y0226498D01*
X0239044Y0226574D01*
X0239173Y0226646D01*
X0239304Y0226715D01*
X0239437Y0226780D01*
X0239572Y0226841D01*
X0239708Y0226899D01*
X0239845Y0226954D01*
X0239984Y0227004D01*
X0240125Y0227051D01*
X0240266Y0227094D01*
X0240409Y0227134D01*
X0240553Y0227169D01*
X0240697Y0227201D01*
X0240843Y0227228D01*
X0240989Y0227252D01*
X0241136Y0227272D01*
X0241283Y0227288D01*
X0241430Y0227300D01*
X0241578Y0227308D01*
X0241726Y0227312D01*
X0241874Y0227312D01*
X0242022Y0227308D01*
X0242170Y0227300D01*
X0242317Y0227288D01*
X0242464Y0227272D01*
X0242611Y0227252D01*
X0242757Y0227228D01*
X0242903Y0227201D01*
X0243047Y0227169D01*
X0243191Y0227134D01*
X0243334Y0227094D01*
X0243475Y0227051D01*
X0243616Y0227004D01*
X0243755Y0226954D01*
X0243892Y0226899D01*
X0244028Y0226841D01*
X0244163Y0226780D01*
X0244296Y0226715D01*
X0244427Y0226646D01*
X0244556Y0226574D01*
X0244683Y0226498D01*
X0244808Y0226419D01*
X0244931Y0226336D01*
X0245052Y0226251D01*
X0245170Y0226162D01*
X0245286Y0226070D01*
X0245399Y0225974D01*
X0245510Y0225876D01*
X0245618Y0225775D01*
X0245724Y0225671D01*
X0245826Y0225565D01*
X0245926Y0225455D01*
X0246022Y0225343D01*
X0246116Y0225228D01*
X0246207Y0225111D01*
X0246294Y0224992D01*
X0246378Y0224870D01*
X0246459Y0224746D01*
X0246536Y0224620D01*
X0246610Y0224492D01*
X0246681Y0224362D01*
X0246748Y0224230D01*
X0246811Y0224096D01*
X0246871Y0223961D01*
X0246927Y0223824D01*
X0246980Y0223685D01*
X0247028Y0223545D01*
X0247073Y0223404D01*
X0247114Y0223262D01*
X0247152Y0223119D01*
X0247185Y0222975D01*
X0247215Y0222830D01*
X0247241Y0222684D01*
X0247262Y0222538D01*
X0247280Y0222391D01*
X0247294Y0222244D01*
X0247304Y0222096D01*
X0247310Y0221948D01*
X0247312Y0221800D01*
X0247310Y0221652D01*
X0247304Y0221504D01*
X0247294Y0221356D01*
X0247280Y0221209D01*
X0247262Y0221062D01*
X0247241Y0220916D01*
X0247215Y0220770D01*
X0247185Y0220625D01*
X0247152Y0220481D01*
X0247114Y0220338D01*
X0247073Y0220196D01*
X0247028Y0220055D01*
X0246980Y0219915D01*
X0246927Y0219776D01*
X0246871Y0219639D01*
X0246811Y0219504D01*
X0246748Y0219370D01*
X0246681Y0219238D01*
X0246610Y0219108D01*
X0246536Y0218980D01*
X0246459Y0218854D01*
X0246378Y0218730D01*
X0246294Y0218608D01*
X0246207Y0218489D01*
X0246116Y0218372D01*
X0246022Y0218257D01*
X0245926Y0218145D01*
X0245826Y0218035D01*
X0245724Y0217929D01*
X0245618Y0217825D01*
X0245510Y0217724D01*
X0245399Y0217626D01*
X0245286Y0217530D01*
X0245170Y0217438D01*
X0245052Y0217349D01*
X0244931Y0217264D01*
X0244808Y0217181D01*
X0244683Y0217102D01*
X0244556Y0217026D01*
X0244427Y0216954D01*
X0244296Y0216885D01*
X0244163Y0216820D01*
X0244028Y0216759D01*
X0243892Y0216701D01*
X0243755Y0216646D01*
X0243616Y0216596D01*
X0243475Y0216549D01*
X0243334Y0216506D01*
X0243191Y0216466D01*
X0243047Y0216431D01*
X0242903Y0216399D01*
X0242757Y0216372D01*
X0242611Y0216348D01*
X0242464Y0216328D01*
X0242317Y0216312D01*
X0242170Y0216300D01*
X0242022Y0216292D01*
X0241874Y0216288D01*
X0241726Y0216288D01*
X0241578Y0216292D01*
X0241430Y0216300D01*
X0241283Y0216312D01*
X0241136Y0216328D01*
X0240989Y0216348D01*
X0240843Y0216372D01*
X0240697Y0216399D01*
X0240553Y0216431D01*
X0240409Y0216466D01*
X0240266Y0216506D01*
X0240125Y0216549D01*
X0239984Y0216596D01*
X0239845Y0216646D01*
X0239708Y0216701D01*
X0239572Y0216759D01*
X0239437Y0216820D01*
X0239304Y0216885D01*
X0239173Y0216954D01*
X0239044Y0217026D01*
X0238917Y0217102D01*
X0238792Y0217181D01*
X0238669Y0217264D01*
X0238548Y0217349D01*
X0238430Y0217438D01*
X0238314Y0217530D01*
X0238201Y0217626D01*
X0238090Y0217724D01*
X0237982Y0217825D01*
X0237876Y0217929D01*
X0237774Y0218035D01*
X0237674Y0218145D01*
X0237578Y0218257D01*
X0237484Y0218372D01*
X0237393Y0218489D01*
X0237306Y0218608D01*
X0237222Y0218730D01*
X0237141Y0218854D01*
X0237064Y0218980D01*
X0236990Y0219108D01*
X0236919Y0219238D01*
X0236852Y0219370D01*
X0236789Y0219504D01*
X0236729Y0219639D01*
X0236673Y0219776D01*
X0236620Y0219915D01*
X0236572Y0220055D01*
X0236527Y0220196D01*
X0236486Y0220338D01*
X0236448Y0220481D01*
X0236415Y0220625D01*
X0236385Y0220770D01*
X0236359Y0220916D01*
X0236338Y0221062D01*
X0236320Y0221209D01*
X0236306Y0221356D01*
X0236296Y0221504D01*
X0236290Y0221652D01*
X0236288Y0221800D01*
D11*
X0224300Y0031800D03*
D12*
X0214300Y0031800D03*
X0204300Y0031800D03*
X0194300Y0031800D03*
X0184300Y0031800D03*
X0174300Y0031800D03*
X0164300Y0031800D03*
X0154300Y0031800D03*
X0144300Y0031800D03*
X0134300Y0031800D03*
X0124300Y0031800D03*
X0114300Y0031800D03*
X0104300Y0031800D03*
X0094300Y0031800D03*
X0084300Y0031800D03*
X0074300Y0031800D03*
X0064300Y0031800D03*
X0054300Y0031800D03*
X0044300Y0031800D03*
X0034300Y0031800D03*
X0034300Y0021800D03*
X0044300Y0021800D03*
X0054300Y0021800D03*
X0064300Y0021800D03*
X0074300Y0021800D03*
X0084300Y0021800D03*
X0094300Y0021800D03*
X0104300Y0021800D03*
X0114300Y0021800D03*
X0124300Y0021800D03*
X0134300Y0021800D03*
X0144300Y0021800D03*
X0154300Y0021800D03*
X0164300Y0021800D03*
X0174300Y0021800D03*
X0184300Y0021800D03*
X0194300Y0021800D03*
X0204300Y0021800D03*
X0214300Y0021800D03*
X0224300Y0021800D03*
D13*
X0221800Y0068800D02*
X0221800Y0074800D01*
X0231800Y0074800D02*
X0231800Y0068800D01*
X0241800Y0068800D02*
X0241800Y0074800D01*
X0241800Y0088800D02*
X0241800Y0094800D01*
X0231800Y0094800D02*
X0231800Y0088800D01*
X0221800Y0088800D02*
X0221800Y0094800D01*
X0221800Y0108800D02*
X0221800Y0114800D01*
X0231800Y0114800D02*
X0231800Y0108800D01*
X0241800Y0108800D02*
X0241800Y0114800D01*
X0241800Y0128800D02*
X0241800Y0134800D01*
X0231800Y0134800D02*
X0231800Y0128800D01*
X0221800Y0128800D02*
X0221800Y0134800D01*
X0221800Y0148800D02*
X0221800Y0154800D01*
X0231800Y0154800D02*
X0231800Y0148800D01*
X0241800Y0148800D02*
X0241800Y0154800D01*
X0241800Y0168800D02*
X0241800Y0174800D01*
X0231800Y0174800D02*
X0231800Y0168800D01*
X0221800Y0168800D02*
X0221800Y0174800D01*
X0221800Y0188800D02*
X0221800Y0194800D01*
X0231800Y0194800D02*
X0231800Y0188800D01*
X0241800Y0188800D02*
X0241800Y0194800D01*
X0184800Y0196800D02*
X0178800Y0196800D01*
X0178800Y0186800D02*
X0184800Y0186800D01*
X0184800Y0206800D02*
X0178800Y0206800D01*
X0178800Y0216800D02*
X0184800Y0216800D01*
X0174800Y0146800D02*
X0168800Y0146800D01*
X0168800Y0126800D02*
X0174800Y0126800D01*
X0144800Y0126800D02*
X0138800Y0126800D01*
X0138800Y0146800D02*
X0144800Y0146800D01*
X0096800Y0148800D02*
X0096800Y0154800D01*
X0086800Y0154800D02*
X0086800Y0148800D01*
X0086800Y0139800D02*
X0086800Y0133800D01*
X0076800Y0133800D02*
X0076800Y0139800D01*
X0076800Y0148800D02*
X0076800Y0154800D01*
X0066800Y0154800D02*
X0066800Y0148800D01*
X0066800Y0139800D02*
X0066800Y0133800D01*
X0056800Y0133800D02*
X0056800Y0139800D01*
X0046800Y0139800D02*
X0046800Y0133800D01*
X0036800Y0133800D02*
X0036800Y0139800D01*
X0036800Y0148800D02*
X0036800Y0154800D01*
X0026800Y0154800D02*
X0026800Y0148800D01*
X0026800Y0139800D02*
X0026800Y0133800D01*
X0046800Y0148800D02*
X0046800Y0154800D01*
X0056800Y0154800D02*
X0056800Y0148800D01*
X0096800Y0139800D02*
X0096800Y0133800D01*
X0096800Y0054800D02*
X0096800Y0048800D01*
X0106800Y0048800D02*
X0106800Y0054800D01*
X0116800Y0054800D02*
X0116800Y0048800D01*
D14*
X0121800Y0181800D03*
X0131800Y0181800D03*
X0131800Y0191800D03*
X0121800Y0191800D03*
X0121800Y0201800D03*
X0131800Y0201800D03*
X0131800Y0211800D03*
X0121800Y0211800D03*
X0121800Y0221800D03*
X0131800Y0221800D03*
X0146800Y0221800D03*
X0146800Y0211800D03*
X0146800Y0201800D03*
X0146800Y0191800D03*
X0146800Y0181800D03*
X0156800Y0181800D03*
X0156800Y0191800D03*
X0156800Y0201800D03*
X0156800Y0211800D03*
X0156800Y0221800D03*
D15*
X0156800Y0081800D03*
X0156800Y0071800D03*
X0146800Y0071800D03*
X0146800Y0081800D03*
X0136800Y0081800D03*
X0126800Y0081800D03*
X0126800Y0071800D03*
X0136800Y0071800D03*
X0116800Y0071800D03*
X0116800Y0081800D03*
X0106800Y0081800D03*
X0106800Y0071800D03*
X0096800Y0071800D03*
X0096800Y0081800D03*
X0166800Y0081800D03*
X0166800Y0071800D03*
D16*
X0084300Y0176800D03*
X0074300Y0176800D03*
X0064300Y0176800D03*
X0054300Y0176800D03*
X0059300Y0186800D03*
X0069300Y0186800D03*
X0079300Y0186800D03*
X0089300Y0186800D03*
D17*
X0103800Y0177312D03*
X0106300Y0223800D03*
X0039800Y0177312D03*
X0037300Y0223800D03*
D18*
X0031280Y0229108D02*
X0030350Y0231038D01*
X0027025Y0234622D01*
X0025157Y0235701D01*
X0233221Y0235701D01*
X0229778Y0232955D01*
X0229778Y0232955D01*
X0229778Y0232955D01*
X0227024Y0228916D01*
X0227024Y0228916D01*
X0225583Y0224244D01*
X0225583Y0219356D01*
X0227024Y0214684D01*
X0229778Y0210645D01*
X0233600Y0207597D01*
X0238151Y0205811D01*
X0243026Y0205446D01*
X0247792Y0206534D01*
X0251921Y0208918D01*
X0251921Y0006600D01*
X0006600Y0006600D01*
X0006600Y0209192D01*
X0008600Y0207597D01*
X0013151Y0205811D01*
X0018026Y0205446D01*
X0018026Y0205446D01*
X0022792Y0206534D01*
X0027025Y0208978D01*
X0027025Y0208978D01*
X0030350Y0212562D01*
X0032471Y0216966D01*
X0032515Y0217257D01*
X0032763Y0217009D01*
X0035707Y0215790D01*
X0038774Y0215790D01*
X0038100Y0213275D01*
X0038100Y0210325D01*
X0038863Y0207477D01*
X0040338Y0204923D01*
X0042423Y0202838D01*
X0044977Y0201363D01*
X0047825Y0200600D01*
X0050775Y0200600D01*
X0053623Y0201363D01*
X0056177Y0202838D01*
X0058262Y0204923D01*
X0059737Y0207477D01*
X0060500Y0210325D01*
X0060500Y0213275D01*
X0059737Y0216123D01*
X0058262Y0218677D01*
X0056177Y0220762D01*
X0053623Y0222237D01*
X0050775Y0223000D01*
X0047825Y0223000D01*
X0045310Y0222326D01*
X0045310Y0225393D01*
X0044091Y0228337D01*
X0041837Y0230591D01*
X0038893Y0231810D01*
X0035707Y0231810D01*
X0032763Y0230591D01*
X0031280Y0229108D01*
X0030664Y0230387D02*
X0032559Y0230387D01*
X0030350Y0231038D02*
X0030350Y0231038D01*
X0029471Y0231986D02*
X0229117Y0231986D01*
X0228027Y0230387D02*
X0111041Y0230387D01*
X0110837Y0230591D02*
X0107893Y0231810D01*
X0104707Y0231810D01*
X0101763Y0230591D01*
X0099509Y0228337D01*
X0098290Y0225393D01*
X0098290Y0222326D01*
X0095775Y0223000D01*
X0092825Y0223000D01*
X0089977Y0222237D01*
X0087423Y0220762D01*
X0085338Y0218677D01*
X0083863Y0216123D01*
X0083100Y0213275D01*
X0083100Y0210325D01*
X0083863Y0207477D01*
X0085338Y0204923D01*
X0087423Y0202838D01*
X0089977Y0201363D01*
X0092825Y0200600D01*
X0095775Y0200600D01*
X0098623Y0201363D01*
X0101177Y0202838D01*
X0103262Y0204923D01*
X0104737Y0207477D01*
X0105500Y0210325D01*
X0105500Y0213275D01*
X0104826Y0215790D01*
X0107893Y0215790D01*
X0110837Y0217009D01*
X0113091Y0219263D01*
X0114310Y0222207D01*
X0114310Y0225393D01*
X0113091Y0228337D01*
X0110837Y0230591D01*
X0112640Y0228789D02*
X0226985Y0228789D01*
X0226492Y0227190D02*
X0159047Y0227190D01*
X0159037Y0227200D02*
X0154563Y0227200D01*
X0152363Y0225000D01*
X0151237Y0225000D01*
X0149037Y0227200D01*
X0144563Y0227200D01*
X0141400Y0224037D01*
X0141400Y0219563D01*
X0143600Y0217363D01*
X0143600Y0216237D01*
X0141400Y0214037D01*
X0141400Y0209563D01*
X0143600Y0207363D01*
X0143600Y0206237D01*
X0141400Y0204037D01*
X0141400Y0199563D01*
X0143600Y0197363D01*
X0143600Y0196237D01*
X0141400Y0194037D01*
X0141400Y0189563D01*
X0143600Y0187363D01*
X0143600Y0186237D01*
X0141400Y0184037D01*
X0141400Y0180925D01*
X0135475Y0175000D01*
X0126163Y0175000D01*
X0124987Y0174513D01*
X0109987Y0159513D01*
X0109087Y0158613D01*
X0108600Y0157437D01*
X0108600Y0133125D01*
X0105475Y0130000D01*
X0100637Y0130000D01*
X0101378Y0130741D01*
X0102200Y0132726D01*
X0102200Y0140874D01*
X0101378Y0142859D01*
X0099937Y0144300D01*
X0101378Y0145741D01*
X0102200Y0147726D01*
X0102200Y0155874D01*
X0101378Y0157859D01*
X0099859Y0159378D01*
X0097874Y0160200D01*
X0095726Y0160200D01*
X0093741Y0159378D01*
X0092222Y0157859D01*
X0091800Y0156840D01*
X0091378Y0157859D01*
X0089859Y0159378D01*
X0087874Y0160200D01*
X0085726Y0160200D01*
X0084018Y0159493D01*
X0093613Y0169087D01*
X0094513Y0169987D01*
X0095000Y0171163D01*
X0095000Y0177437D01*
X0094513Y0178613D01*
X0091155Y0181971D01*
X0092230Y0182416D01*
X0093684Y0183870D01*
X0094472Y0185771D01*
X0094472Y0187829D01*
X0093684Y0189730D01*
X0092230Y0191184D01*
X0090329Y0191972D01*
X0088271Y0191972D01*
X0086370Y0191184D01*
X0084916Y0189730D01*
X0084471Y0188655D01*
X0083888Y0189237D01*
X0083684Y0189730D01*
X0082230Y0191184D01*
X0080329Y0191972D01*
X0078271Y0191972D01*
X0076370Y0191184D01*
X0074916Y0189730D01*
X0074300Y0188243D01*
X0073684Y0189730D01*
X0072230Y0191184D01*
X0070329Y0191972D01*
X0068271Y0191972D01*
X0066370Y0191184D01*
X0064916Y0189730D01*
X0064128Y0187829D01*
X0064128Y0185771D01*
X0064916Y0183870D01*
X0066100Y0182686D01*
X0066100Y0181652D01*
X0065329Y0181972D01*
X0063271Y0181972D01*
X0061370Y0181184D01*
X0059916Y0179730D01*
X0059300Y0178243D01*
X0058684Y0179730D01*
X0057230Y0181184D01*
X0055329Y0181972D01*
X0053271Y0181972D01*
X0051370Y0181184D01*
X0049916Y0179730D01*
X0049128Y0177829D01*
X0049128Y0175771D01*
X0049916Y0173870D01*
X0051370Y0172416D01*
X0053271Y0171628D01*
X0055329Y0171628D01*
X0057230Y0172416D01*
X0058684Y0173870D01*
X0059300Y0175357D01*
X0059916Y0173870D01*
X0061370Y0172416D01*
X0063271Y0171628D01*
X0065329Y0171628D01*
X0066100Y0171948D01*
X0066100Y0170625D01*
X0055638Y0160164D01*
X0053741Y0159378D01*
X0052222Y0157859D01*
X0051800Y0156840D01*
X0051378Y0157859D01*
X0049859Y0159378D01*
X0047874Y0160200D01*
X0045726Y0160200D01*
X0043741Y0159378D01*
X0042222Y0157859D01*
X0041455Y0156007D01*
X0041248Y0156643D01*
X0040905Y0157316D01*
X0040461Y0157927D01*
X0039927Y0158461D01*
X0039316Y0158905D01*
X0038643Y0159248D01*
X0037924Y0159482D01*
X0037178Y0159600D01*
X0037000Y0159600D01*
X0037000Y0152000D01*
X0036600Y0152000D01*
X0036600Y0159600D01*
X0036422Y0159600D01*
X0035676Y0159482D01*
X0034957Y0159248D01*
X0034284Y0158905D01*
X0033673Y0158461D01*
X0033139Y0157927D01*
X0032695Y0157316D01*
X0032352Y0156643D01*
X0032145Y0156007D01*
X0031378Y0157859D01*
X0029859Y0159378D01*
X0027874Y0160200D01*
X0025726Y0160200D01*
X0023741Y0159378D01*
X0022222Y0157859D01*
X0021400Y0155874D01*
X0021400Y0147726D01*
X0022222Y0145741D01*
X0023663Y0144300D01*
X0022222Y0142859D01*
X0021400Y0140874D01*
X0021400Y0132726D01*
X0022222Y0130741D01*
X0023741Y0129222D01*
X0025638Y0128436D01*
X0029987Y0124087D01*
X0031163Y0123600D01*
X0107437Y0123600D01*
X0108613Y0124087D01*
X0109513Y0124987D01*
X0114513Y0129987D01*
X0115000Y0131163D01*
X0115000Y0155475D01*
X0128125Y0168600D01*
X0137437Y0168600D01*
X0138613Y0169087D01*
X0139513Y0169987D01*
X0145925Y0176400D01*
X0149037Y0176400D01*
X0151800Y0179163D01*
X0154563Y0176400D01*
X0159037Y0176400D01*
X0162200Y0179563D01*
X0162200Y0184037D01*
X0160000Y0186237D01*
X0160000Y0187363D01*
X0162200Y0189563D01*
X0162200Y0194037D01*
X0160000Y0196237D01*
X0160000Y0197363D01*
X0162200Y0199563D01*
X0162200Y0204037D01*
X0160000Y0206237D01*
X0160000Y0207363D01*
X0162200Y0209563D01*
X0162200Y0214037D01*
X0160000Y0216237D01*
X0160000Y0217363D01*
X0162200Y0219563D01*
X0162200Y0224037D01*
X0159037Y0227200D01*
X0160645Y0225592D02*
X0225999Y0225592D01*
X0225583Y0223993D02*
X0162200Y0223993D01*
X0162200Y0222395D02*
X0225583Y0222395D01*
X0225583Y0220796D02*
X0188441Y0220796D01*
X0187859Y0221378D02*
X0185874Y0222200D01*
X0177726Y0222200D01*
X0175741Y0221378D01*
X0174222Y0219859D01*
X0173400Y0217874D01*
X0173400Y0215726D01*
X0174222Y0213741D01*
X0175741Y0212222D01*
X0176760Y0211800D01*
X0175741Y0211378D01*
X0174222Y0209859D01*
X0173400Y0207874D01*
X0173400Y0205726D01*
X0174222Y0203741D01*
X0175741Y0202222D01*
X0176760Y0201800D01*
X0175741Y0201378D01*
X0174222Y0199859D01*
X0173400Y0197874D01*
X0173400Y0195726D01*
X0174222Y0193741D01*
X0175741Y0192222D01*
X0176760Y0191800D01*
X0175741Y0191378D01*
X0174222Y0189859D01*
X0173400Y0187874D01*
X0173400Y0185726D01*
X0174222Y0183741D01*
X0175741Y0182222D01*
X0177726Y0181400D01*
X0182675Y0181400D01*
X0208600Y0155475D01*
X0208600Y0113125D01*
X0205912Y0110438D01*
X0205337Y0111013D01*
X0204455Y0111378D01*
X0199145Y0111378D01*
X0198263Y0111013D01*
X0197587Y0110337D01*
X0197222Y0109455D01*
X0197222Y0104145D01*
X0197587Y0103263D01*
X0198263Y0102587D01*
X0199145Y0102222D01*
X0204455Y0102222D01*
X0205337Y0102587D01*
X0206013Y0103263D01*
X0206152Y0103600D01*
X0207437Y0103600D01*
X0208600Y0104082D01*
X0208600Y0084525D01*
X0190000Y0103125D01*
X0190000Y0127437D01*
X0189513Y0128613D01*
X0188613Y0129513D01*
X0176476Y0141649D01*
X0177859Y0142222D01*
X0179378Y0143741D01*
X0180200Y0145726D01*
X0180200Y0147874D01*
X0179378Y0149859D01*
X0177859Y0151378D01*
X0175874Y0152200D01*
X0167726Y0152200D01*
X0165741Y0151378D01*
X0164222Y0149859D01*
X0163400Y0147874D01*
X0163400Y0145726D01*
X0164222Y0143741D01*
X0165741Y0142222D01*
X0167726Y0141400D01*
X0168600Y0141400D01*
X0168600Y0141163D01*
X0169087Y0139987D01*
X0177582Y0131493D01*
X0175874Y0132200D01*
X0167726Y0132200D01*
X0165741Y0131378D01*
X0164222Y0129859D01*
X0163400Y0127874D01*
X0163400Y0125726D01*
X0164222Y0123741D01*
X0165741Y0122222D01*
X0167726Y0121400D01*
X0168600Y0121400D01*
X0168600Y0111163D01*
X0169087Y0109987D01*
X0198600Y0080475D01*
X0198600Y0035844D01*
X0197642Y0036802D01*
X0195474Y0037700D01*
X0193126Y0037700D01*
X0192200Y0037316D01*
X0192200Y0084877D01*
X0191758Y0085943D01*
X0190943Y0086758D01*
X0159700Y0118001D01*
X0159700Y0127377D01*
X0159258Y0128443D01*
X0158443Y0129258D01*
X0146176Y0141525D01*
X0147859Y0142222D01*
X0149378Y0143741D01*
X0150200Y0145726D01*
X0150200Y0147874D01*
X0149378Y0149859D01*
X0147859Y0151378D01*
X0145874Y0152200D01*
X0137726Y0152200D01*
X0135741Y0151378D01*
X0134222Y0149859D01*
X0133400Y0147874D01*
X0133400Y0145726D01*
X0134222Y0143741D01*
X0135741Y0142222D01*
X0137726Y0141400D01*
X0138900Y0141400D01*
X0138900Y0141223D01*
X0139341Y0140157D01*
X0153900Y0125599D01*
X0153900Y0118801D01*
X0149169Y0123532D01*
X0149378Y0123741D01*
X0150200Y0125726D01*
X0150200Y0127874D01*
X0149378Y0129859D01*
X0147859Y0131378D01*
X0145874Y0132200D01*
X0137726Y0132200D01*
X0135741Y0131378D01*
X0134222Y0129859D01*
X0133400Y0127874D01*
X0133400Y0125726D01*
X0134222Y0123741D01*
X0135741Y0122222D01*
X0137726Y0121400D01*
X0143099Y0121400D01*
X0149499Y0115000D01*
X0086163Y0115000D01*
X0084987Y0114513D01*
X0024987Y0054513D01*
X0024087Y0053613D01*
X0023600Y0052437D01*
X0023600Y0026163D01*
X0024087Y0024987D01*
X0028400Y0020675D01*
X0028400Y0020626D01*
X0029298Y0018458D01*
X0030958Y0016798D01*
X0033126Y0015900D01*
X0035474Y0015900D01*
X0037642Y0016798D01*
X0039300Y0018456D01*
X0040958Y0016798D01*
X0043126Y0015900D01*
X0045474Y0015900D01*
X0047642Y0016798D01*
X0049300Y0018456D01*
X0050958Y0016798D01*
X0053126Y0015900D01*
X0055474Y0015900D01*
X0057642Y0016798D01*
X0059302Y0018458D01*
X0059639Y0019273D01*
X0059767Y0019022D01*
X0060257Y0018347D01*
X0060847Y0017757D01*
X0061522Y0017267D01*
X0062266Y0016888D01*
X0063059Y0016630D01*
X0063883Y0016500D01*
X0064116Y0016500D01*
X0064116Y0021616D01*
X0064484Y0021616D01*
X0064484Y0016500D01*
X0064717Y0016500D01*
X0065541Y0016630D01*
X0066334Y0016888D01*
X0067078Y0017267D01*
X0067753Y0017757D01*
X0068343Y0018347D01*
X0068833Y0019022D01*
X0068961Y0019273D01*
X0069298Y0018458D01*
X0070958Y0016798D01*
X0073126Y0015900D01*
X0075474Y0015900D01*
X0077642Y0016798D01*
X0079302Y0018458D01*
X0079639Y0019273D01*
X0079767Y0019022D01*
X0080257Y0018347D01*
X0080847Y0017757D01*
X0081522Y0017267D01*
X0082266Y0016888D01*
X0083059Y0016630D01*
X0083883Y0016500D01*
X0084116Y0016500D01*
X0084116Y0021616D01*
X0084484Y0021616D01*
X0084484Y0016500D01*
X0084717Y0016500D01*
X0085541Y0016630D01*
X0086334Y0016888D01*
X0087078Y0017267D01*
X0087753Y0017757D01*
X0088343Y0018347D01*
X0088833Y0019022D01*
X0088961Y0019273D01*
X0089298Y0018458D01*
X0090958Y0016798D01*
X0093126Y0015900D01*
X0095474Y0015900D01*
X0097642Y0016798D01*
X0099300Y0018456D01*
X0100958Y0016798D01*
X0103126Y0015900D01*
X0105474Y0015900D01*
X0107642Y0016798D01*
X0109300Y0018456D01*
X0110958Y0016798D01*
X0113126Y0015900D01*
X0115474Y0015900D01*
X0117642Y0016798D01*
X0119300Y0018456D01*
X0120958Y0016798D01*
X0123126Y0015900D01*
X0125474Y0015900D01*
X0127642Y0016798D01*
X0129302Y0018458D01*
X0129639Y0019273D01*
X0129767Y0019022D01*
X0130257Y0018347D01*
X0130847Y0017757D01*
X0131522Y0017267D01*
X0132266Y0016888D01*
X0133059Y0016630D01*
X0133883Y0016500D01*
X0134116Y0016500D01*
X0134116Y0021616D01*
X0134484Y0021616D01*
X0134484Y0016500D01*
X0134717Y0016500D01*
X0135541Y0016630D01*
X0136334Y0016888D01*
X0137078Y0017267D01*
X0137753Y0017757D01*
X0138343Y0018347D01*
X0138833Y0019022D01*
X0138961Y0019273D01*
X0139298Y0018458D01*
X0140958Y0016798D01*
X0143126Y0015900D01*
X0145474Y0015900D01*
X0147642Y0016798D01*
X0149300Y0018456D01*
X0150958Y0016798D01*
X0153126Y0015900D01*
X0155474Y0015900D01*
X0157642Y0016798D01*
X0159302Y0018458D01*
X0159639Y0019273D01*
X0159767Y0019022D01*
X0160257Y0018347D01*
X0160847Y0017757D01*
X0161522Y0017267D01*
X0162266Y0016888D01*
X0163059Y0016630D01*
X0163883Y0016500D01*
X0164116Y0016500D01*
X0164116Y0021616D01*
X0164484Y0021616D01*
X0164484Y0016500D01*
X0164717Y0016500D01*
X0165541Y0016630D01*
X0166334Y0016888D01*
X0167078Y0017267D01*
X0167753Y0017757D01*
X0168343Y0018347D01*
X0168833Y0019022D01*
X0168961Y0019273D01*
X0169298Y0018458D01*
X0170958Y0016798D01*
X0173126Y0015900D01*
X0175474Y0015900D01*
X0177642Y0016798D01*
X0179300Y0018456D01*
X0180958Y0016798D01*
X0183126Y0015900D01*
X0185474Y0015900D01*
X0187642Y0016798D01*
X0189300Y0018456D01*
X0190958Y0016798D01*
X0193126Y0015900D01*
X0195474Y0015900D01*
X0197642Y0016798D01*
X0199302Y0018458D01*
X0199639Y0019273D01*
X0199767Y0019022D01*
X0200257Y0018347D01*
X0200847Y0017757D01*
X0201522Y0017267D01*
X0202266Y0016888D01*
X0203059Y0016630D01*
X0203883Y0016500D01*
X0204116Y0016500D01*
X0204116Y0021616D01*
X0204484Y0021616D01*
X0204484Y0016500D01*
X0204717Y0016500D01*
X0205541Y0016630D01*
X0206334Y0016888D01*
X0207078Y0017267D01*
X0207753Y0017757D01*
X0208343Y0018347D01*
X0208833Y0019022D01*
X0208961Y0019273D01*
X0209298Y0018458D01*
X0210958Y0016798D01*
X0213126Y0015900D01*
X0215474Y0015900D01*
X0217642Y0016798D01*
X0219300Y0018456D01*
X0220958Y0016798D01*
X0223126Y0015900D01*
X0225474Y0015900D01*
X0227642Y0016798D01*
X0229302Y0018458D01*
X0230200Y0020626D01*
X0230200Y0022974D01*
X0229302Y0025142D01*
X0228466Y0025978D01*
X0229159Y0026265D01*
X0229835Y0026941D01*
X0230200Y0027823D01*
X0230200Y0032222D01*
X0234455Y0032222D01*
X0235337Y0032587D01*
X0236013Y0033263D01*
X0236378Y0034145D01*
X0236378Y0039455D01*
X0236013Y0040337D01*
X0235337Y0041013D01*
X0234455Y0041378D01*
X0231748Y0041378D01*
X0225000Y0048125D01*
X0225000Y0064363D01*
X0226378Y0065741D01*
X0227145Y0067593D01*
X0227352Y0066957D01*
X0227695Y0066284D01*
X0228139Y0065673D01*
X0228673Y0065139D01*
X0229284Y0064695D01*
X0229957Y0064352D01*
X0230676Y0064118D01*
X0231422Y0064000D01*
X0231600Y0064000D01*
X0231600Y0071600D01*
X0232000Y0071600D01*
X0232000Y0064000D01*
X0232178Y0064000D01*
X0232924Y0064118D01*
X0233643Y0064352D01*
X0234316Y0064695D01*
X0234927Y0065139D01*
X0235461Y0065673D01*
X0235905Y0066284D01*
X0236248Y0066957D01*
X0236455Y0067593D01*
X0237222Y0065741D01*
X0238741Y0064222D01*
X0240726Y0063400D01*
X0242874Y0063400D01*
X0244859Y0064222D01*
X0246378Y0065741D01*
X0247200Y0067726D01*
X0247200Y0075874D01*
X0246378Y0077859D01*
X0244859Y0079378D01*
X0242874Y0080200D01*
X0240726Y0080200D01*
X0238741Y0079378D01*
X0237222Y0077859D01*
X0236455Y0076007D01*
X0236248Y0076643D01*
X0235905Y0077316D01*
X0235461Y0077927D01*
X0234927Y0078461D01*
X0234316Y0078905D01*
X0233643Y0079248D01*
X0232924Y0079482D01*
X0232178Y0079600D01*
X0232000Y0079600D01*
X0232000Y0072000D01*
X0231600Y0072000D01*
X0231600Y0079600D01*
X0231422Y0079600D01*
X0230676Y0079482D01*
X0229957Y0079248D01*
X0229284Y0078905D01*
X0228673Y0078461D01*
X0228139Y0077927D01*
X0227695Y0077316D01*
X0227352Y0076643D01*
X0227145Y0076007D01*
X0226378Y0077859D01*
X0224859Y0079378D01*
X0222874Y0080200D01*
X0220726Y0080200D01*
X0218741Y0079378D01*
X0217222Y0077859D01*
X0216400Y0075874D01*
X0216400Y0067726D01*
X0217222Y0065741D01*
X0218600Y0064363D01*
X0218600Y0046163D01*
X0219087Y0044987D01*
X0226375Y0037700D01*
X0225425Y0037700D01*
X0215000Y0048125D01*
X0215000Y0157437D01*
X0214513Y0158613D01*
X0189380Y0183746D01*
X0190200Y0185726D01*
X0190200Y0187874D01*
X0189378Y0189859D01*
X0187859Y0191378D01*
X0186840Y0191800D01*
X0187859Y0192222D01*
X0189378Y0193741D01*
X0190200Y0195726D01*
X0190200Y0197874D01*
X0189378Y0199859D01*
X0187859Y0201378D01*
X0186840Y0201800D01*
X0187859Y0202222D01*
X0189378Y0203741D01*
X0190200Y0205726D01*
X0190200Y0207874D01*
X0189378Y0209859D01*
X0187859Y0211378D01*
X0186840Y0211800D01*
X0187859Y0212222D01*
X0189378Y0213741D01*
X0190200Y0215726D01*
X0190200Y0217874D01*
X0189378Y0219859D01*
X0187859Y0221378D01*
X0189652Y0219198D02*
X0225632Y0219198D01*
X0226125Y0217599D02*
X0190200Y0217599D01*
X0190200Y0216001D02*
X0226618Y0216001D01*
X0227024Y0214684D02*
X0227024Y0214684D01*
X0227217Y0214402D02*
X0189652Y0214402D01*
X0188440Y0212803D02*
X0228306Y0212803D01*
X0229396Y0211205D02*
X0188032Y0211205D01*
X0189482Y0209606D02*
X0231080Y0209606D01*
X0229778Y0210645D02*
X0229778Y0210645D01*
X0229778Y0210645D01*
X0233085Y0208008D02*
X0190145Y0208008D01*
X0190200Y0206409D02*
X0236626Y0206409D01*
X0237437Y0205000D02*
X0216163Y0205000D01*
X0214987Y0204513D01*
X0209987Y0199513D01*
X0209087Y0198613D01*
X0208600Y0197437D01*
X0208600Y0182574D01*
X0207222Y0181196D01*
X0207222Y0177404D01*
X0209904Y0174722D01*
X0213696Y0174722D01*
X0216378Y0177404D01*
X0216378Y0181196D01*
X0215000Y0182574D01*
X0215000Y0195475D01*
X0217107Y0197582D01*
X0216400Y0195874D01*
X0216400Y0187726D01*
X0217222Y0185741D01*
X0218741Y0184222D01*
X0220726Y0183400D01*
X0222874Y0183400D01*
X0224859Y0184222D01*
X0226378Y0185741D01*
X0227145Y0187593D01*
X0227352Y0186957D01*
X0227695Y0186284D01*
X0228139Y0185673D01*
X0228673Y0185139D01*
X0229284Y0184695D01*
X0229957Y0184352D01*
X0230676Y0184118D01*
X0231422Y0184000D01*
X0231600Y0184000D01*
X0231600Y0191600D01*
X0232000Y0191600D01*
X0232000Y0184000D01*
X0232178Y0184000D01*
X0232924Y0184118D01*
X0233643Y0184352D01*
X0234316Y0184695D01*
X0234927Y0185139D01*
X0235461Y0185673D01*
X0235905Y0186284D01*
X0236248Y0186957D01*
X0236455Y0187593D01*
X0237222Y0185741D01*
X0238741Y0184222D01*
X0240726Y0183400D01*
X0242874Y0183400D01*
X0244859Y0184222D01*
X0246378Y0185741D01*
X0247200Y0187726D01*
X0247200Y0195874D01*
X0246378Y0197859D01*
X0244859Y0199378D01*
X0242962Y0200164D01*
X0239513Y0203613D01*
X0238613Y0204513D01*
X0237437Y0205000D01*
X0237893Y0204811D02*
X0251921Y0204811D01*
X0251921Y0206409D02*
X0247247Y0206409D01*
X0247792Y0206534D02*
X0247792Y0206534D01*
X0250345Y0208008D02*
X0251921Y0208008D01*
X0251921Y0203212D02*
X0239913Y0203212D01*
X0239513Y0203613D02*
X0239513Y0203613D01*
X0238151Y0205811D02*
X0238151Y0205811D01*
X0243026Y0205446D02*
X0243026Y0205446D01*
X0241512Y0201614D02*
X0251921Y0201614D01*
X0251921Y0200015D02*
X0243320Y0200015D01*
X0245820Y0198417D02*
X0251921Y0198417D01*
X0251921Y0196818D02*
X0246809Y0196818D01*
X0247200Y0195220D02*
X0251921Y0195220D01*
X0251921Y0193621D02*
X0247200Y0193621D01*
X0247200Y0192023D02*
X0251921Y0192023D01*
X0251921Y0190424D02*
X0247200Y0190424D01*
X0247200Y0188826D02*
X0251921Y0188826D01*
X0251921Y0187227D02*
X0246993Y0187227D01*
X0246266Y0185629D02*
X0251921Y0185629D01*
X0251921Y0184030D02*
X0244396Y0184030D01*
X0242874Y0180200D02*
X0240726Y0180200D01*
X0238741Y0179378D01*
X0237222Y0177859D01*
X0236455Y0176007D01*
X0236248Y0176643D01*
X0235905Y0177316D01*
X0235461Y0177927D01*
X0234927Y0178461D01*
X0234316Y0178905D01*
X0233643Y0179248D01*
X0232924Y0179482D01*
X0232178Y0179600D01*
X0232000Y0179600D01*
X0232000Y0172000D01*
X0231600Y0172000D01*
X0231600Y0179600D01*
X0231422Y0179600D01*
X0230676Y0179482D01*
X0229957Y0179248D01*
X0229284Y0178905D01*
X0228673Y0178461D01*
X0228139Y0177927D01*
X0227695Y0177316D01*
X0227352Y0176643D01*
X0227145Y0176007D01*
X0226378Y0177859D01*
X0224859Y0179378D01*
X0222874Y0180200D01*
X0220726Y0180200D01*
X0218741Y0179378D01*
X0217222Y0177859D01*
X0216400Y0175874D01*
X0216400Y0167726D01*
X0217222Y0165741D01*
X0218741Y0164222D01*
X0220726Y0163400D01*
X0222874Y0163400D01*
X0224859Y0164222D01*
X0226378Y0165741D01*
X0227145Y0167593D01*
X0227352Y0166957D01*
X0227695Y0166284D01*
X0228139Y0165673D01*
X0228673Y0165139D01*
X0229284Y0164695D01*
X0229957Y0164352D01*
X0230676Y0164118D01*
X0231422Y0164000D01*
X0231600Y0164000D01*
X0231600Y0171600D01*
X0232000Y0171600D01*
X0232000Y0164000D01*
X0232178Y0164000D01*
X0232924Y0164118D01*
X0233643Y0164352D01*
X0234316Y0164695D01*
X0234927Y0165139D01*
X0235461Y0165673D01*
X0235905Y0166284D01*
X0236248Y0166957D01*
X0236455Y0167593D01*
X0237222Y0165741D01*
X0238741Y0164222D01*
X0240726Y0163400D01*
X0242874Y0163400D01*
X0244859Y0164222D01*
X0246378Y0165741D01*
X0247200Y0167726D01*
X0247200Y0175874D01*
X0246378Y0177859D01*
X0244859Y0179378D01*
X0242874Y0180200D01*
X0245002Y0179235D02*
X0251921Y0179235D01*
X0251921Y0180833D02*
X0216378Y0180833D01*
X0216378Y0179235D02*
X0218598Y0179235D01*
X0217130Y0177636D02*
X0216378Y0177636D01*
X0216468Y0176038D02*
X0215012Y0176038D01*
X0216400Y0174439D02*
X0198686Y0174439D01*
X0197088Y0176038D02*
X0208588Y0176038D01*
X0207222Y0177636D02*
X0195489Y0177636D01*
X0193891Y0179235D02*
X0207222Y0179235D01*
X0207222Y0180833D02*
X0192292Y0180833D01*
X0190694Y0182432D02*
X0208458Y0182432D01*
X0208600Y0184030D02*
X0189498Y0184030D01*
X0190160Y0185629D02*
X0208600Y0185629D01*
X0208600Y0187227D02*
X0190200Y0187227D01*
X0189806Y0188826D02*
X0208600Y0188826D01*
X0208600Y0190424D02*
X0188812Y0190424D01*
X0187378Y0192023D02*
X0208600Y0192023D01*
X0208600Y0193621D02*
X0189258Y0193621D01*
X0189990Y0195220D02*
X0208600Y0195220D01*
X0208600Y0196818D02*
X0190200Y0196818D01*
X0189975Y0198417D02*
X0209006Y0198417D01*
X0210490Y0200015D02*
X0189221Y0200015D01*
X0187289Y0201614D02*
X0212088Y0201614D01*
X0213687Y0203212D02*
X0188849Y0203212D01*
X0189821Y0204811D02*
X0215707Y0204811D01*
X0216800Y0201800D02*
X0211800Y0196800D01*
X0211800Y0179300D01*
X0215142Y0182432D02*
X0251921Y0182432D01*
X0251921Y0177636D02*
X0246470Y0177636D01*
X0247132Y0176038D02*
X0251921Y0176038D01*
X0251921Y0174439D02*
X0247200Y0174439D01*
X0247200Y0172841D02*
X0251921Y0172841D01*
X0251921Y0171242D02*
X0247200Y0171242D01*
X0247200Y0169644D02*
X0251921Y0169644D01*
X0251921Y0168045D02*
X0247200Y0168045D01*
X0246670Y0166447D02*
X0251921Y0166447D01*
X0251921Y0164848D02*
X0245485Y0164848D01*
X0243230Y0160053D02*
X0251921Y0160053D01*
X0251921Y0161651D02*
X0211474Y0161651D01*
X0209876Y0163250D02*
X0251921Y0163250D01*
X0251921Y0158454D02*
X0245783Y0158454D01*
X0246378Y0157859D02*
X0244859Y0159378D01*
X0242874Y0160200D01*
X0240726Y0160200D01*
X0238741Y0159378D01*
X0237222Y0157859D01*
X0236455Y0156007D01*
X0236248Y0156643D01*
X0235905Y0157316D01*
X0235461Y0157927D01*
X0234927Y0158461D01*
X0234316Y0158905D01*
X0233643Y0159248D01*
X0232924Y0159482D01*
X0232178Y0159600D01*
X0232000Y0159600D01*
X0232000Y0152000D01*
X0231600Y0152000D01*
X0231600Y0159600D01*
X0231422Y0159600D01*
X0230676Y0159482D01*
X0229957Y0159248D01*
X0229284Y0158905D01*
X0228673Y0158461D01*
X0228139Y0157927D01*
X0227695Y0157316D01*
X0227352Y0156643D01*
X0227145Y0156007D01*
X0226378Y0157859D01*
X0224859Y0159378D01*
X0222874Y0160200D01*
X0220726Y0160200D01*
X0218741Y0159378D01*
X0217222Y0157859D01*
X0216400Y0155874D01*
X0216400Y0147726D01*
X0217222Y0145741D01*
X0218741Y0144222D01*
X0220726Y0143400D01*
X0222874Y0143400D01*
X0224859Y0144222D01*
X0226378Y0145741D01*
X0227145Y0147593D01*
X0227352Y0146957D01*
X0227695Y0146284D01*
X0228139Y0145673D01*
X0228673Y0145139D01*
X0229284Y0144695D01*
X0229957Y0144352D01*
X0230676Y0144118D01*
X0231422Y0144000D01*
X0231600Y0144000D01*
X0231600Y0151600D01*
X0232000Y0151600D01*
X0232000Y0144000D01*
X0232178Y0144000D01*
X0232924Y0144118D01*
X0233643Y0144352D01*
X0234316Y0144695D01*
X0234927Y0145139D01*
X0235461Y0145673D01*
X0235905Y0146284D01*
X0236248Y0146957D01*
X0236455Y0147593D01*
X0237222Y0145741D01*
X0238741Y0144222D01*
X0240726Y0143400D01*
X0242874Y0143400D01*
X0244859Y0144222D01*
X0246378Y0145741D01*
X0247200Y0147726D01*
X0247200Y0155874D01*
X0246378Y0157859D01*
X0246793Y0156856D02*
X0251921Y0156856D01*
X0251921Y0155257D02*
X0247200Y0155257D01*
X0247200Y0153659D02*
X0251921Y0153659D01*
X0251921Y0152060D02*
X0247200Y0152060D01*
X0247200Y0150462D02*
X0251921Y0150462D01*
X0251921Y0148863D02*
X0247200Y0148863D01*
X0247009Y0147265D02*
X0251921Y0147265D01*
X0251921Y0145666D02*
X0246303Y0145666D01*
X0244486Y0144068D02*
X0251921Y0144068D01*
X0251921Y0142469D02*
X0215000Y0142469D01*
X0215000Y0140870D02*
X0251921Y0140870D01*
X0251921Y0139272D02*
X0244965Y0139272D01*
X0244859Y0139378D02*
X0242874Y0140200D01*
X0240726Y0140200D01*
X0238741Y0139378D01*
X0237222Y0137859D01*
X0236455Y0136007D01*
X0236248Y0136643D01*
X0235905Y0137316D01*
X0235461Y0137927D01*
X0234927Y0138461D01*
X0234316Y0138905D01*
X0233643Y0139248D01*
X0232924Y0139482D01*
X0232178Y0139600D01*
X0232000Y0139600D01*
X0232000Y0132000D01*
X0231600Y0132000D01*
X0231600Y0139600D01*
X0231422Y0139600D01*
X0230676Y0139482D01*
X0229957Y0139248D01*
X0229284Y0138905D01*
X0228673Y0138461D01*
X0228139Y0137927D01*
X0227695Y0137316D01*
X0227352Y0136643D01*
X0227145Y0136007D01*
X0226378Y0137859D01*
X0224859Y0139378D01*
X0222874Y0140200D01*
X0220726Y0140200D01*
X0218741Y0139378D01*
X0217222Y0137859D01*
X0216400Y0135874D01*
X0216400Y0127726D01*
X0217222Y0125741D01*
X0218741Y0124222D01*
X0220726Y0123400D01*
X0222874Y0123400D01*
X0224859Y0124222D01*
X0226378Y0125741D01*
X0227145Y0127593D01*
X0227352Y0126957D01*
X0227695Y0126284D01*
X0228139Y0125673D01*
X0228673Y0125139D01*
X0229284Y0124695D01*
X0229957Y0124352D01*
X0230676Y0124118D01*
X0231422Y0124000D01*
X0231600Y0124000D01*
X0231600Y0131600D01*
X0232000Y0131600D01*
X0232000Y0124000D01*
X0232178Y0124000D01*
X0232924Y0124118D01*
X0233643Y0124352D01*
X0234316Y0124695D01*
X0234927Y0125139D01*
X0235461Y0125673D01*
X0235905Y0126284D01*
X0236248Y0126957D01*
X0236455Y0127593D01*
X0237222Y0125741D01*
X0238741Y0124222D01*
X0240726Y0123400D01*
X0242874Y0123400D01*
X0244859Y0124222D01*
X0246378Y0125741D01*
X0247200Y0127726D01*
X0247200Y0135874D01*
X0246378Y0137859D01*
X0244859Y0139378D01*
X0246455Y0137673D02*
X0251921Y0137673D01*
X0251921Y0136075D02*
X0247117Y0136075D01*
X0247200Y0134476D02*
X0251921Y0134476D01*
X0251921Y0132878D02*
X0247200Y0132878D01*
X0247200Y0131279D02*
X0251921Y0131279D01*
X0251921Y0129681D02*
X0247200Y0129681D01*
X0247200Y0128082D02*
X0251921Y0128082D01*
X0251921Y0126484D02*
X0246686Y0126484D01*
X0245522Y0124885D02*
X0251921Y0124885D01*
X0251921Y0123287D02*
X0215000Y0123287D01*
X0215000Y0124885D02*
X0218078Y0124885D01*
X0216914Y0126484D02*
X0215000Y0126484D01*
X0215000Y0128082D02*
X0216400Y0128082D01*
X0216400Y0129681D02*
X0215000Y0129681D01*
X0215000Y0131279D02*
X0216400Y0131279D01*
X0216400Y0132878D02*
X0215000Y0132878D01*
X0215000Y0134476D02*
X0216400Y0134476D01*
X0216483Y0136075D02*
X0215000Y0136075D01*
X0215000Y0137673D02*
X0217145Y0137673D01*
X0218635Y0139272D02*
X0215000Y0139272D01*
X0215000Y0144068D02*
X0219114Y0144068D01*
X0217297Y0145666D02*
X0215000Y0145666D01*
X0215000Y0147265D02*
X0216591Y0147265D01*
X0216400Y0148863D02*
X0215000Y0148863D01*
X0215000Y0150462D02*
X0216400Y0150462D01*
X0216400Y0152060D02*
X0215000Y0152060D01*
X0215000Y0153659D02*
X0216400Y0153659D01*
X0216400Y0155257D02*
X0215000Y0155257D01*
X0215000Y0156856D02*
X0216807Y0156856D01*
X0217817Y0158454D02*
X0214578Y0158454D01*
X0213073Y0160053D02*
X0220370Y0160053D01*
X0223230Y0160053D02*
X0240370Y0160053D01*
X0237817Y0158454D02*
X0234934Y0158454D01*
X0236140Y0156856D02*
X0236807Y0156856D01*
X0232000Y0156856D02*
X0231600Y0156856D01*
X0231600Y0158454D02*
X0232000Y0158454D01*
X0232000Y0155257D02*
X0231600Y0155257D01*
X0231600Y0153659D02*
X0232000Y0153659D01*
X0232000Y0152060D02*
X0231600Y0152060D01*
X0231600Y0150462D02*
X0232000Y0150462D01*
X0232000Y0148863D02*
X0231600Y0148863D01*
X0231600Y0147265D02*
X0232000Y0147265D01*
X0232000Y0145666D02*
X0231600Y0145666D01*
X0231600Y0144068D02*
X0232000Y0144068D01*
X0232604Y0144068D02*
X0239114Y0144068D01*
X0237297Y0145666D02*
X0235454Y0145666D01*
X0236348Y0147265D02*
X0236591Y0147265D01*
X0230996Y0144068D02*
X0224486Y0144068D01*
X0226303Y0145666D02*
X0228146Y0145666D01*
X0227252Y0147265D02*
X0227009Y0147265D01*
X0224965Y0139272D02*
X0230030Y0139272D01*
X0231600Y0139272D02*
X0232000Y0139272D01*
X0233570Y0139272D02*
X0238635Y0139272D01*
X0237145Y0137673D02*
X0235645Y0137673D01*
X0236433Y0136075D02*
X0236483Y0136075D01*
X0232000Y0136075D02*
X0231600Y0136075D01*
X0231600Y0137673D02*
X0232000Y0137673D01*
X0232000Y0134476D02*
X0231600Y0134476D01*
X0231600Y0132878D02*
X0232000Y0132878D01*
X0232000Y0131279D02*
X0231600Y0131279D01*
X0231600Y0129681D02*
X0232000Y0129681D01*
X0232000Y0128082D02*
X0231600Y0128082D01*
X0231600Y0126484D02*
X0232000Y0126484D01*
X0232000Y0124885D02*
X0231600Y0124885D01*
X0229022Y0124885D02*
X0225522Y0124885D01*
X0226686Y0126484D02*
X0227593Y0126484D01*
X0234578Y0124885D02*
X0238078Y0124885D01*
X0236914Y0126484D02*
X0236007Y0126484D01*
X0233643Y0119248D02*
X0232924Y0119482D01*
X0232178Y0119600D01*
X0232000Y0119600D01*
X0232000Y0112000D01*
X0231600Y0112000D01*
X0231600Y0119600D01*
X0231422Y0119600D01*
X0230676Y0119482D01*
X0229957Y0119248D01*
X0229284Y0118905D01*
X0228673Y0118461D01*
X0228139Y0117927D01*
X0227695Y0117316D01*
X0227352Y0116643D01*
X0227145Y0116007D01*
X0226378Y0117859D01*
X0224859Y0119378D01*
X0222874Y0120200D01*
X0220726Y0120200D01*
X0218741Y0119378D01*
X0217222Y0117859D01*
X0216400Y0115874D01*
X0216400Y0107726D01*
X0217222Y0105741D01*
X0218741Y0104222D01*
X0220726Y0103400D01*
X0222874Y0103400D01*
X0224859Y0104222D01*
X0226378Y0105741D01*
X0227145Y0107593D01*
X0227352Y0106957D01*
X0227695Y0106284D01*
X0228139Y0105673D01*
X0228673Y0105139D01*
X0229284Y0104695D01*
X0229957Y0104352D01*
X0230676Y0104118D01*
X0231422Y0104000D01*
X0231600Y0104000D01*
X0231600Y0111600D01*
X0232000Y0111600D01*
X0232000Y0104000D01*
X0232178Y0104000D01*
X0232924Y0104118D01*
X0233643Y0104352D01*
X0234316Y0104695D01*
X0234927Y0105139D01*
X0235461Y0105673D01*
X0235905Y0106284D01*
X0236248Y0106957D01*
X0236455Y0107593D01*
X0237222Y0105741D01*
X0238741Y0104222D01*
X0240726Y0103400D01*
X0242874Y0103400D01*
X0244859Y0104222D01*
X0246378Y0105741D01*
X0247200Y0107726D01*
X0247200Y0115874D01*
X0246378Y0117859D01*
X0244859Y0119378D01*
X0242874Y0120200D01*
X0240726Y0120200D01*
X0238741Y0119378D01*
X0237222Y0117859D01*
X0236455Y0116007D01*
X0236248Y0116643D01*
X0235905Y0117316D01*
X0235461Y0117927D01*
X0234927Y0118461D01*
X0234316Y0118905D01*
X0233643Y0119248D01*
X0234886Y0118491D02*
X0237855Y0118491D01*
X0236822Y0116893D02*
X0236121Y0116893D01*
X0232000Y0116893D02*
X0231600Y0116893D01*
X0231600Y0118491D02*
X0232000Y0118491D01*
X0232000Y0115294D02*
X0231600Y0115294D01*
X0231600Y0113696D02*
X0232000Y0113696D01*
X0232000Y0112097D02*
X0231600Y0112097D01*
X0231600Y0110499D02*
X0232000Y0110499D01*
X0232000Y0108900D02*
X0231600Y0108900D01*
X0231600Y0107302D02*
X0232000Y0107302D01*
X0232000Y0105703D02*
X0231600Y0105703D01*
X0231600Y0104105D02*
X0232000Y0104105D01*
X0232839Y0104105D02*
X0239024Y0104105D01*
X0237260Y0105703D02*
X0235483Y0105703D01*
X0236360Y0107302D02*
X0236576Y0107302D01*
X0230761Y0104105D02*
X0224575Y0104105D01*
X0226340Y0105703D02*
X0228117Y0105703D01*
X0227240Y0107302D02*
X0227024Y0107302D01*
X0224859Y0099378D02*
X0222874Y0100200D01*
X0220726Y0100200D01*
X0218741Y0099378D01*
X0217222Y0097859D01*
X0216400Y0095874D01*
X0216400Y0087726D01*
X0217222Y0085741D01*
X0218741Y0084222D01*
X0220726Y0083400D01*
X0222874Y0083400D01*
X0224859Y0084222D01*
X0226378Y0085741D01*
X0227145Y0087593D01*
X0227352Y0086957D01*
X0227695Y0086284D01*
X0228139Y0085673D01*
X0228673Y0085139D01*
X0229284Y0084695D01*
X0229957Y0084352D01*
X0230676Y0084118D01*
X0231422Y0084000D01*
X0231600Y0084000D01*
X0231600Y0091600D01*
X0232000Y0091600D01*
X0232000Y0084000D01*
X0232178Y0084000D01*
X0232924Y0084118D01*
X0233643Y0084352D01*
X0234316Y0084695D01*
X0234927Y0085139D01*
X0235461Y0085673D01*
X0235905Y0086284D01*
X0236248Y0086957D01*
X0236455Y0087593D01*
X0237222Y0085741D01*
X0238741Y0084222D01*
X0240726Y0083400D01*
X0242874Y0083400D01*
X0244859Y0084222D01*
X0246378Y0085741D01*
X0247200Y0087726D01*
X0247200Y0095874D01*
X0246378Y0097859D01*
X0244859Y0099378D01*
X0242874Y0100200D01*
X0240726Y0100200D01*
X0238741Y0099378D01*
X0237222Y0097859D01*
X0236455Y0096007D01*
X0236248Y0096643D01*
X0235905Y0097316D01*
X0235461Y0097927D01*
X0234927Y0098461D01*
X0234316Y0098905D01*
X0233643Y0099248D01*
X0232924Y0099482D01*
X0232178Y0099600D01*
X0232000Y0099600D01*
X0232000Y0092000D01*
X0231600Y0092000D01*
X0231600Y0099600D01*
X0231422Y0099600D01*
X0230676Y0099482D01*
X0229957Y0099248D01*
X0229284Y0098905D01*
X0228673Y0098461D01*
X0228139Y0097927D01*
X0227695Y0097316D01*
X0227352Y0096643D01*
X0227145Y0096007D01*
X0226378Y0097859D01*
X0224859Y0099378D01*
X0224928Y0099309D02*
X0230145Y0099309D01*
X0231600Y0099309D02*
X0232000Y0099309D01*
X0233455Y0099309D02*
X0238672Y0099309D01*
X0237161Y0097711D02*
X0235618Y0097711D01*
X0236421Y0096112D02*
X0236499Y0096112D01*
X0232000Y0096112D02*
X0231600Y0096112D01*
X0231600Y0094514D02*
X0232000Y0094514D01*
X0232000Y0092915D02*
X0231600Y0092915D01*
X0231600Y0091317D02*
X0232000Y0091317D01*
X0232000Y0089718D02*
X0231600Y0089718D01*
X0231600Y0088120D02*
X0232000Y0088120D01*
X0232000Y0086521D02*
X0231600Y0086521D01*
X0231600Y0084923D02*
X0232000Y0084923D01*
X0234629Y0084923D02*
X0238041Y0084923D01*
X0236899Y0086521D02*
X0236026Y0086521D01*
X0228971Y0084923D02*
X0225559Y0084923D01*
X0226701Y0086521D02*
X0227574Y0086521D01*
X0223050Y0080127D02*
X0240550Y0080127D01*
X0243050Y0080127D02*
X0251921Y0080127D01*
X0251921Y0078529D02*
X0245708Y0078529D01*
X0246763Y0076930D02*
X0251921Y0076930D01*
X0251921Y0075332D02*
X0247200Y0075332D01*
X0247200Y0073733D02*
X0251921Y0073733D01*
X0251921Y0072134D02*
X0247200Y0072134D01*
X0247200Y0070536D02*
X0251921Y0070536D01*
X0251921Y0068937D02*
X0247200Y0068937D01*
X0247040Y0067339D02*
X0251921Y0067339D01*
X0251921Y0065740D02*
X0246377Y0065740D01*
X0244665Y0064142D02*
X0251921Y0064142D01*
X0251921Y0062543D02*
X0225000Y0062543D01*
X0225000Y0060945D02*
X0251921Y0060945D01*
X0251921Y0059346D02*
X0225000Y0059346D01*
X0225000Y0057748D02*
X0251921Y0057748D01*
X0251921Y0056149D02*
X0225000Y0056149D01*
X0225000Y0054551D02*
X0251921Y0054551D01*
X0251921Y0052952D02*
X0225000Y0052952D01*
X0225000Y0051354D02*
X0251921Y0051354D01*
X0251921Y0049755D02*
X0225000Y0049755D01*
X0225000Y0048157D02*
X0251921Y0048157D01*
X0251921Y0046558D02*
X0226567Y0046558D01*
X0228166Y0044960D02*
X0251921Y0044960D01*
X0251921Y0043361D02*
X0229764Y0043361D01*
X0231363Y0041763D02*
X0251921Y0041763D01*
X0251921Y0040164D02*
X0236084Y0040164D01*
X0236378Y0038566D02*
X0251921Y0038566D01*
X0251921Y0036967D02*
X0236378Y0036967D01*
X0236378Y0035369D02*
X0251921Y0035369D01*
X0251921Y0033770D02*
X0236223Y0033770D01*
X0231800Y0036800D02*
X0221800Y0046800D01*
X0221800Y0071800D01*
X0216400Y0072134D02*
X0215000Y0072134D01*
X0215000Y0070536D02*
X0216400Y0070536D01*
X0216400Y0068937D02*
X0215000Y0068937D01*
X0215000Y0067339D02*
X0216560Y0067339D01*
X0217223Y0065740D02*
X0215000Y0065740D01*
X0215000Y0064142D02*
X0218600Y0064142D01*
X0218600Y0062543D02*
X0215000Y0062543D01*
X0215000Y0060945D02*
X0218600Y0060945D01*
X0218600Y0059346D02*
X0215000Y0059346D01*
X0215000Y0057748D02*
X0218600Y0057748D01*
X0218600Y0056149D02*
X0215000Y0056149D01*
X0215000Y0054551D02*
X0218600Y0054551D01*
X0218600Y0052952D02*
X0215000Y0052952D01*
X0215000Y0051354D02*
X0218600Y0051354D01*
X0218600Y0049755D02*
X0215000Y0049755D01*
X0215000Y0048157D02*
X0218600Y0048157D01*
X0218600Y0046558D02*
X0216567Y0046558D01*
X0218166Y0044960D02*
X0219115Y0044960D01*
X0219764Y0043361D02*
X0220713Y0043361D01*
X0221363Y0041763D02*
X0222312Y0041763D01*
X0222961Y0040164D02*
X0223910Y0040164D01*
X0224560Y0038566D02*
X0225509Y0038566D01*
X0224300Y0034300D02*
X0211800Y0046800D01*
X0211800Y0111800D01*
X0206800Y0106800D01*
X0201800Y0106800D01*
X0205141Y0102506D02*
X0208600Y0102506D01*
X0208600Y0100908D02*
X0192218Y0100908D01*
X0190619Y0102506D02*
X0198459Y0102506D01*
X0197239Y0104105D02*
X0190000Y0104105D01*
X0190000Y0105703D02*
X0197222Y0105703D01*
X0197222Y0107302D02*
X0190000Y0107302D01*
X0190000Y0108900D02*
X0197222Y0108900D01*
X0197749Y0110499D02*
X0190000Y0110499D01*
X0190000Y0112097D02*
X0207572Y0112097D01*
X0208600Y0113696D02*
X0190000Y0113696D01*
X0190000Y0115294D02*
X0208600Y0115294D01*
X0208600Y0116893D02*
X0190000Y0116893D01*
X0190000Y0118491D02*
X0208600Y0118491D01*
X0208600Y0120090D02*
X0190000Y0120090D01*
X0190000Y0121688D02*
X0208600Y0121688D01*
X0208600Y0123287D02*
X0190000Y0123287D01*
X0190000Y0124885D02*
X0208600Y0124885D01*
X0208600Y0126484D02*
X0190000Y0126484D01*
X0189732Y0128082D02*
X0208600Y0128082D01*
X0208600Y0129681D02*
X0188445Y0129681D01*
X0186846Y0131279D02*
X0208600Y0131279D01*
X0208600Y0132878D02*
X0185248Y0132878D01*
X0183649Y0134476D02*
X0208600Y0134476D01*
X0208600Y0136075D02*
X0182051Y0136075D01*
X0180452Y0137673D02*
X0208600Y0137673D01*
X0208600Y0139272D02*
X0178853Y0139272D01*
X0177255Y0140870D02*
X0208600Y0140870D01*
X0208600Y0142469D02*
X0178106Y0142469D01*
X0179513Y0144068D02*
X0208600Y0144068D01*
X0208600Y0145666D02*
X0180175Y0145666D01*
X0180200Y0147265D02*
X0208600Y0147265D01*
X0208600Y0148863D02*
X0179790Y0148863D01*
X0178775Y0150462D02*
X0208600Y0150462D01*
X0208600Y0152060D02*
X0176212Y0152060D01*
X0171800Y0146800D02*
X0171800Y0141800D01*
X0186800Y0126800D01*
X0186800Y0101800D01*
X0206800Y0081800D01*
X0206800Y0039300D01*
X0214300Y0031800D01*
X0204300Y0031800D02*
X0201800Y0034300D01*
X0201800Y0081800D01*
X0171800Y0111800D01*
X0171800Y0126800D01*
X0176197Y0132878D02*
X0154823Y0132878D01*
X0153225Y0134476D02*
X0174598Y0134476D01*
X0173000Y0136075D02*
X0151626Y0136075D01*
X0150028Y0137673D02*
X0171401Y0137673D01*
X0169803Y0139272D02*
X0148429Y0139272D01*
X0146831Y0140870D02*
X0168721Y0140870D01*
X0165494Y0142469D02*
X0148106Y0142469D01*
X0149513Y0144068D02*
X0164087Y0144068D01*
X0163425Y0145666D02*
X0150175Y0145666D01*
X0150200Y0147265D02*
X0163400Y0147265D01*
X0163810Y0148863D02*
X0149790Y0148863D01*
X0148775Y0150462D02*
X0164825Y0150462D01*
X0167388Y0152060D02*
X0146212Y0152060D01*
X0137388Y0152060D02*
X0115000Y0152060D01*
X0115000Y0150462D02*
X0134825Y0150462D01*
X0133810Y0148863D02*
X0115000Y0148863D01*
X0115000Y0147265D02*
X0133400Y0147265D01*
X0133425Y0145666D02*
X0115000Y0145666D01*
X0115000Y0144068D02*
X0134087Y0144068D01*
X0135494Y0142469D02*
X0115000Y0142469D01*
X0115000Y0140870D02*
X0139046Y0140870D01*
X0140227Y0139272D02*
X0115000Y0139272D01*
X0115000Y0137673D02*
X0141825Y0137673D01*
X0143424Y0136075D02*
X0115000Y0136075D01*
X0115000Y0134476D02*
X0145022Y0134476D01*
X0146621Y0132878D02*
X0115000Y0132878D01*
X0115000Y0131279D02*
X0135643Y0131279D01*
X0134148Y0129681D02*
X0114206Y0129681D01*
X0112608Y0128082D02*
X0133486Y0128082D01*
X0133400Y0126484D02*
X0111009Y0126484D01*
X0109411Y0124885D02*
X0133748Y0124885D01*
X0134676Y0123287D02*
X0006600Y0123287D01*
X0006600Y0124885D02*
X0029189Y0124885D01*
X0027591Y0126484D02*
X0006600Y0126484D01*
X0006600Y0128082D02*
X0025992Y0128082D01*
X0023282Y0129681D02*
X0006600Y0129681D01*
X0006600Y0131279D02*
X0021999Y0131279D01*
X0021400Y0132878D02*
X0006600Y0132878D01*
X0006600Y0134476D02*
X0021400Y0134476D01*
X0021400Y0136075D02*
X0006600Y0136075D01*
X0006600Y0137673D02*
X0021400Y0137673D01*
X0021400Y0139272D02*
X0006600Y0139272D01*
X0006600Y0140870D02*
X0021400Y0140870D01*
X0022061Y0142469D02*
X0006600Y0142469D01*
X0006600Y0144068D02*
X0023431Y0144068D01*
X0022297Y0145666D02*
X0006600Y0145666D01*
X0006600Y0147265D02*
X0021591Y0147265D01*
X0021400Y0148863D02*
X0006600Y0148863D01*
X0006600Y0150462D02*
X0021400Y0150462D01*
X0021400Y0152060D02*
X0006600Y0152060D01*
X0006600Y0153659D02*
X0021400Y0153659D01*
X0021400Y0155257D02*
X0006600Y0155257D01*
X0006600Y0156856D02*
X0021807Y0156856D01*
X0022817Y0158454D02*
X0006600Y0158454D01*
X0006600Y0160053D02*
X0025370Y0160053D01*
X0028230Y0160053D02*
X0045370Y0160053D01*
X0048230Y0160053D02*
X0055370Y0160053D01*
X0057126Y0161651D02*
X0006600Y0161651D01*
X0006600Y0163250D02*
X0058724Y0163250D01*
X0060323Y0164848D02*
X0006600Y0164848D01*
X0006600Y0166447D02*
X0061921Y0166447D01*
X0063520Y0168045D02*
X0006600Y0168045D01*
X0006600Y0169644D02*
X0037381Y0169644D01*
X0038207Y0169302D02*
X0041393Y0169302D01*
X0044337Y0170521D01*
X0046591Y0172774D01*
X0047810Y0175718D01*
X0047810Y0178905D01*
X0046591Y0181849D01*
X0044337Y0184103D01*
X0041393Y0185322D01*
X0038207Y0185322D01*
X0035263Y0184103D01*
X0033009Y0181849D01*
X0031790Y0178905D01*
X0031790Y0175718D01*
X0033009Y0172774D01*
X0035263Y0170521D01*
X0038207Y0169302D01*
X0034541Y0171242D02*
X0006600Y0171242D01*
X0006600Y0172841D02*
X0032982Y0172841D01*
X0032320Y0174439D02*
X0006600Y0174439D01*
X0006600Y0176038D02*
X0031790Y0176038D01*
X0031790Y0177636D02*
X0006600Y0177636D01*
X0006600Y0179235D02*
X0031926Y0179235D01*
X0032588Y0180833D02*
X0006600Y0180833D01*
X0006600Y0182432D02*
X0033592Y0182432D01*
X0035190Y0184030D02*
X0006600Y0184030D01*
X0006600Y0185629D02*
X0054874Y0185629D01*
X0054841Y0185729D02*
X0055063Y0185045D01*
X0055390Y0184404D01*
X0055813Y0183822D01*
X0056322Y0183313D01*
X0056904Y0182890D01*
X0057545Y0182563D01*
X0058229Y0182341D01*
X0058940Y0182228D01*
X0059214Y0182228D01*
X0059214Y0186714D01*
X0059386Y0186714D01*
X0059386Y0186886D01*
X0063872Y0186886D01*
X0063872Y0187160D01*
X0063759Y0187871D01*
X0063537Y0188555D01*
X0063210Y0189196D01*
X0062787Y0189778D01*
X0062278Y0190287D01*
X0061696Y0190710D01*
X0061055Y0191037D01*
X0060371Y0191259D01*
X0059660Y0191372D01*
X0059386Y0191372D01*
X0059386Y0186886D01*
X0059214Y0186886D01*
X0059214Y0191372D01*
X0058940Y0191372D01*
X0058229Y0191259D01*
X0057545Y0191037D01*
X0056904Y0190710D01*
X0056322Y0190287D01*
X0055813Y0189778D01*
X0055390Y0189196D01*
X0055063Y0188555D01*
X0054841Y0187871D01*
X0054728Y0187160D01*
X0054728Y0186886D01*
X0059214Y0186886D01*
X0059214Y0186714D01*
X0054728Y0186714D01*
X0054728Y0186440D01*
X0054841Y0185729D01*
X0054739Y0187227D02*
X0006600Y0187227D01*
X0006600Y0188826D02*
X0055201Y0188826D01*
X0056511Y0190424D02*
X0006600Y0190424D01*
X0006600Y0192023D02*
X0117000Y0192023D01*
X0117000Y0192000D02*
X0121600Y0192000D01*
X0121600Y0196600D01*
X0119812Y0196600D01*
X0117000Y0193788D01*
X0117000Y0192000D01*
X0117000Y0191600D02*
X0117000Y0189812D01*
X0119812Y0187000D01*
X0121600Y0187000D01*
X0121600Y0191600D01*
X0117000Y0191600D01*
X0117000Y0190424D02*
X0092989Y0190424D01*
X0094059Y0188826D02*
X0117986Y0188826D01*
X0119584Y0187227D02*
X0094472Y0187227D01*
X0094413Y0185629D02*
X0118841Y0185629D01*
X0119812Y0186600D02*
X0117000Y0183788D01*
X0117000Y0182000D01*
X0121600Y0182000D01*
X0121600Y0186600D01*
X0119812Y0186600D01*
X0121600Y0187227D02*
X0122000Y0187227D01*
X0122000Y0187000D02*
X0123788Y0187000D01*
X0126600Y0189812D01*
X0126600Y0191600D01*
X0122000Y0191600D01*
X0122000Y0192000D01*
X0121600Y0192000D01*
X0121600Y0191600D01*
X0122000Y0191600D01*
X0122000Y0187000D01*
X0122000Y0186600D02*
X0122000Y0182000D01*
X0121600Y0182000D01*
X0121600Y0181600D01*
X0117000Y0181600D01*
X0117000Y0179812D01*
X0119812Y0177000D01*
X0121600Y0177000D01*
X0121600Y0181600D01*
X0122000Y0181600D01*
X0122000Y0182000D01*
X0126600Y0182000D01*
X0126600Y0183788D01*
X0123788Y0186600D01*
X0122000Y0186600D01*
X0122000Y0185629D02*
X0121600Y0185629D01*
X0121600Y0184030D02*
X0122000Y0184030D01*
X0122000Y0182432D02*
X0121600Y0182432D01*
X0122000Y0181600D02*
X0126600Y0181600D01*
X0126600Y0179812D01*
X0123788Y0177000D01*
X0122000Y0177000D01*
X0122000Y0181600D01*
X0122000Y0180833D02*
X0121600Y0180833D01*
X0121600Y0179235D02*
X0122000Y0179235D01*
X0122000Y0177636D02*
X0121600Y0177636D01*
X0119176Y0177636D02*
X0111810Y0177636D01*
X0111810Y0178905D02*
X0111810Y0175718D01*
X0110591Y0172774D01*
X0108337Y0170521D01*
X0105393Y0169302D01*
X0102207Y0169302D01*
X0099263Y0170521D01*
X0097009Y0172774D01*
X0095790Y0175718D01*
X0095790Y0178905D01*
X0097009Y0181849D01*
X0099263Y0184103D01*
X0102207Y0185322D01*
X0105393Y0185322D01*
X0108337Y0184103D01*
X0110591Y0181849D01*
X0111810Y0178905D01*
X0111674Y0179235D02*
X0117577Y0179235D01*
X0117000Y0180833D02*
X0111012Y0180833D01*
X0110008Y0182432D02*
X0117000Y0182432D01*
X0117242Y0184030D02*
X0108410Y0184030D01*
X0111810Y0176038D02*
X0136512Y0176038D01*
X0138111Y0177636D02*
X0134424Y0177636D01*
X0133788Y0177000D02*
X0136600Y0179812D01*
X0136600Y0181600D01*
X0132000Y0181600D01*
X0132000Y0182000D01*
X0131600Y0182000D01*
X0131600Y0186600D01*
X0129812Y0186600D01*
X0127000Y0183788D01*
X0127000Y0182000D01*
X0131600Y0182000D01*
X0131600Y0181600D01*
X0127000Y0181600D01*
X0127000Y0179812D01*
X0129812Y0177000D01*
X0131600Y0177000D01*
X0131600Y0181600D01*
X0132000Y0181600D01*
X0132000Y0177000D01*
X0133788Y0177000D01*
X0132000Y0177636D02*
X0131600Y0177636D01*
X0131600Y0179235D02*
X0132000Y0179235D01*
X0132000Y0180833D02*
X0131600Y0180833D01*
X0132000Y0182000D02*
X0136600Y0182000D01*
X0136600Y0183788D01*
X0133788Y0186600D01*
X0132000Y0186600D01*
X0132000Y0182000D01*
X0132000Y0182432D02*
X0131600Y0182432D01*
X0131600Y0184030D02*
X0132000Y0184030D01*
X0132000Y0185629D02*
X0131600Y0185629D01*
X0131600Y0187000D02*
X0131600Y0191600D01*
X0127000Y0191600D01*
X0127000Y0189812D01*
X0129812Y0187000D01*
X0131600Y0187000D01*
X0131600Y0187227D02*
X0132000Y0187227D01*
X0132000Y0187000D02*
X0133788Y0187000D01*
X0136600Y0189812D01*
X0136600Y0191600D01*
X0132000Y0191600D01*
X0132000Y0192000D01*
X0131600Y0192000D01*
X0131600Y0196600D01*
X0129812Y0196600D01*
X0127000Y0193788D01*
X0127000Y0192000D01*
X0131600Y0192000D01*
X0131600Y0191600D01*
X0132000Y0191600D01*
X0132000Y0187000D01*
X0132000Y0188826D02*
X0131600Y0188826D01*
X0131600Y0190424D02*
X0132000Y0190424D01*
X0132000Y0192000D02*
X0136600Y0192000D01*
X0136600Y0193788D01*
X0133788Y0196600D01*
X0132000Y0196600D01*
X0132000Y0192000D01*
X0132000Y0192023D02*
X0131600Y0192023D01*
X0131600Y0193621D02*
X0132000Y0193621D01*
X0132000Y0195220D02*
X0131600Y0195220D01*
X0131600Y0197000D02*
X0131600Y0201600D01*
X0127000Y0201600D01*
X0127000Y0199812D01*
X0129812Y0197000D01*
X0131600Y0197000D01*
X0132000Y0197000D02*
X0133788Y0197000D01*
X0136600Y0199812D01*
X0136600Y0201600D01*
X0132000Y0201600D01*
X0132000Y0202000D01*
X0131600Y0202000D01*
X0131600Y0206600D01*
X0129812Y0206600D01*
X0127000Y0203788D01*
X0127000Y0202000D01*
X0131600Y0202000D01*
X0131600Y0201600D01*
X0132000Y0201600D01*
X0132000Y0197000D01*
X0132000Y0198417D02*
X0131600Y0198417D01*
X0131600Y0200015D02*
X0132000Y0200015D01*
X0132000Y0201614D02*
X0141400Y0201614D01*
X0141400Y0203212D02*
X0136600Y0203212D01*
X0136600Y0203788D02*
X0133788Y0206600D01*
X0132000Y0206600D01*
X0132000Y0202000D01*
X0136600Y0202000D01*
X0136600Y0203788D01*
X0135577Y0204811D02*
X0142174Y0204811D01*
X0143600Y0206409D02*
X0133979Y0206409D01*
X0133788Y0207000D02*
X0136600Y0209812D01*
X0136600Y0211600D01*
X0132000Y0211600D01*
X0132000Y0212000D01*
X0131600Y0212000D01*
X0131600Y0216600D01*
X0129812Y0216600D01*
X0127000Y0213788D01*
X0127000Y0212000D01*
X0131600Y0212000D01*
X0131600Y0211600D01*
X0127000Y0211600D01*
X0127000Y0209812D01*
X0129812Y0207000D01*
X0131600Y0207000D01*
X0131600Y0211600D01*
X0132000Y0211600D01*
X0132000Y0207000D01*
X0133788Y0207000D01*
X0134796Y0208008D02*
X0142955Y0208008D01*
X0141400Y0209606D02*
X0136395Y0209606D01*
X0136600Y0211205D02*
X0141400Y0211205D01*
X0141400Y0212803D02*
X0136600Y0212803D01*
X0136600Y0212000D02*
X0136600Y0213788D01*
X0133788Y0216600D01*
X0132000Y0216600D01*
X0132000Y0212000D01*
X0136600Y0212000D01*
X0135986Y0214402D02*
X0141765Y0214402D01*
X0143364Y0216001D02*
X0134388Y0216001D01*
X0133788Y0217000D02*
X0136600Y0219812D01*
X0136600Y0221600D01*
X0132000Y0221600D01*
X0132000Y0222000D01*
X0131600Y0222000D01*
X0131600Y0226600D01*
X0129812Y0226600D01*
X0127000Y0223788D01*
X0127000Y0222000D01*
X0131600Y0222000D01*
X0131600Y0221600D01*
X0127000Y0221600D01*
X0127000Y0219812D01*
X0129812Y0217000D01*
X0131600Y0217000D01*
X0131600Y0221600D01*
X0132000Y0221600D01*
X0132000Y0217000D01*
X0133788Y0217000D01*
X0134387Y0217599D02*
X0143364Y0217599D01*
X0141766Y0219198D02*
X0135986Y0219198D01*
X0136600Y0220796D02*
X0141400Y0220796D01*
X0141400Y0222395D02*
X0136600Y0222395D01*
X0136600Y0222000D02*
X0136600Y0223788D01*
X0133788Y0226600D01*
X0132000Y0226600D01*
X0132000Y0222000D01*
X0136600Y0222000D01*
X0136395Y0223993D02*
X0141400Y0223993D01*
X0142955Y0225592D02*
X0134797Y0225592D01*
X0132000Y0225592D02*
X0131600Y0225592D01*
X0131600Y0223993D02*
X0132000Y0223993D01*
X0132000Y0222395D02*
X0131600Y0222395D01*
X0131600Y0220796D02*
X0132000Y0220796D01*
X0132000Y0219198D02*
X0131600Y0219198D01*
X0131600Y0217599D02*
X0132000Y0217599D01*
X0132000Y0216001D02*
X0131600Y0216001D01*
X0131600Y0214402D02*
X0132000Y0214402D01*
X0132000Y0212803D02*
X0131600Y0212803D01*
X0131600Y0211205D02*
X0132000Y0211205D01*
X0132000Y0209606D02*
X0131600Y0209606D01*
X0131600Y0208008D02*
X0132000Y0208008D01*
X0132000Y0206409D02*
X0131600Y0206409D01*
X0131600Y0204811D02*
X0132000Y0204811D01*
X0132000Y0203212D02*
X0131600Y0203212D01*
X0131600Y0201614D02*
X0122000Y0201614D01*
X0122000Y0201600D02*
X0122000Y0202000D01*
X0121600Y0202000D01*
X0121600Y0206600D01*
X0119812Y0206600D01*
X0117000Y0203788D01*
X0117000Y0202000D01*
X0121600Y0202000D01*
X0121600Y0201600D01*
X0117000Y0201600D01*
X0117000Y0199812D01*
X0119812Y0197000D01*
X0121600Y0197000D01*
X0121600Y0201600D01*
X0122000Y0201600D01*
X0126600Y0201600D01*
X0126600Y0199812D01*
X0123788Y0197000D01*
X0122000Y0197000D01*
X0122000Y0201600D01*
X0122000Y0202000D02*
X0126600Y0202000D01*
X0126600Y0203788D01*
X0123788Y0206600D01*
X0122000Y0206600D01*
X0122000Y0202000D01*
X0121600Y0201614D02*
X0099057Y0201614D01*
X0101552Y0203212D02*
X0117000Y0203212D01*
X0118023Y0204811D02*
X0103150Y0204811D01*
X0104120Y0206409D02*
X0119621Y0206409D01*
X0119812Y0207000D02*
X0117000Y0209812D01*
X0117000Y0211600D01*
X0121600Y0211600D01*
X0121600Y0212000D01*
X0121600Y0216600D01*
X0119812Y0216600D01*
X0117000Y0213788D01*
X0117000Y0212000D01*
X0121600Y0212000D01*
X0122000Y0212000D01*
X0122000Y0216600D01*
X0123788Y0216600D01*
X0126600Y0213788D01*
X0126600Y0212000D01*
X0122000Y0212000D01*
X0122000Y0211600D01*
X0126600Y0211600D01*
X0126600Y0209812D01*
X0123788Y0207000D01*
X0122000Y0207000D01*
X0122000Y0211600D01*
X0121600Y0211600D01*
X0121600Y0207000D01*
X0119812Y0207000D01*
X0118804Y0208008D02*
X0104879Y0208008D01*
X0105307Y0209606D02*
X0117205Y0209606D01*
X0117000Y0211205D02*
X0105500Y0211205D01*
X0105500Y0212803D02*
X0117000Y0212803D01*
X0117614Y0214402D02*
X0105198Y0214402D01*
X0108402Y0216001D02*
X0119212Y0216001D01*
X0119812Y0217000D02*
X0117000Y0219812D01*
X0117000Y0221600D01*
X0121600Y0221600D01*
X0121600Y0222000D01*
X0121600Y0226600D01*
X0119812Y0226600D01*
X0117000Y0223788D01*
X0117000Y0222000D01*
X0121600Y0222000D01*
X0122000Y0222000D01*
X0122000Y0226600D01*
X0123788Y0226600D01*
X0126600Y0223788D01*
X0126600Y0222000D01*
X0122000Y0222000D01*
X0122000Y0221600D01*
X0126600Y0221600D01*
X0126600Y0219812D01*
X0123788Y0217000D01*
X0122000Y0217000D01*
X0122000Y0221600D01*
X0121600Y0221600D01*
X0121600Y0217000D01*
X0119812Y0217000D01*
X0119213Y0217599D02*
X0111427Y0217599D01*
X0113026Y0219198D02*
X0117614Y0219198D01*
X0117000Y0220796D02*
X0113726Y0220796D01*
X0114310Y0222395D02*
X0117000Y0222395D01*
X0117205Y0223993D02*
X0114310Y0223993D01*
X0114228Y0225592D02*
X0118803Y0225592D01*
X0121600Y0225592D02*
X0122000Y0225592D01*
X0122000Y0223993D02*
X0121600Y0223993D01*
X0121600Y0222395D02*
X0122000Y0222395D01*
X0122000Y0220796D02*
X0121600Y0220796D01*
X0121600Y0219198D02*
X0122000Y0219198D01*
X0122000Y0217599D02*
X0121600Y0217599D01*
X0121600Y0216001D02*
X0122000Y0216001D01*
X0122000Y0214402D02*
X0121600Y0214402D01*
X0121600Y0212803D02*
X0122000Y0212803D01*
X0122000Y0211205D02*
X0121600Y0211205D01*
X0121600Y0209606D02*
X0122000Y0209606D01*
X0122000Y0208008D02*
X0121600Y0208008D01*
X0121600Y0206409D02*
X0122000Y0206409D01*
X0122000Y0204811D02*
X0121600Y0204811D01*
X0121600Y0203212D02*
X0122000Y0203212D01*
X0122000Y0200015D02*
X0121600Y0200015D01*
X0121600Y0198417D02*
X0122000Y0198417D01*
X0122000Y0196600D02*
X0122000Y0192000D01*
X0126600Y0192000D01*
X0126600Y0193788D01*
X0123788Y0196600D01*
X0122000Y0196600D01*
X0122000Y0195220D02*
X0121600Y0195220D01*
X0121600Y0193621D02*
X0122000Y0193621D01*
X0122000Y0192023D02*
X0121600Y0192023D01*
X0121600Y0190424D02*
X0122000Y0190424D01*
X0122000Y0188826D02*
X0121600Y0188826D01*
X0124016Y0187227D02*
X0129584Y0187227D01*
X0128841Y0185629D02*
X0124759Y0185629D01*
X0126358Y0184030D02*
X0127242Y0184030D01*
X0127000Y0182432D02*
X0126600Y0182432D01*
X0126600Y0180833D02*
X0127000Y0180833D01*
X0127577Y0179235D02*
X0126023Y0179235D01*
X0124424Y0177636D02*
X0129176Y0177636D01*
X0124914Y0174439D02*
X0111280Y0174439D01*
X0110618Y0172841D02*
X0123315Y0172841D01*
X0121717Y0171242D02*
X0109059Y0171242D01*
X0106219Y0169644D02*
X0120118Y0169644D01*
X0118520Y0168045D02*
X0092571Y0168045D01*
X0093613Y0169087D02*
X0093613Y0169087D01*
X0094169Y0169644D02*
X0101381Y0169644D01*
X0098541Y0171242D02*
X0095000Y0171242D01*
X0095000Y0172841D02*
X0096982Y0172841D01*
X0096320Y0174439D02*
X0095000Y0174439D01*
X0095000Y0176038D02*
X0095790Y0176038D01*
X0095790Y0177636D02*
X0094917Y0177636D01*
X0095926Y0179235D02*
X0093891Y0179235D01*
X0092292Y0180833D02*
X0096588Y0180833D01*
X0097592Y0182432D02*
X0092246Y0182432D01*
X0093750Y0184030D02*
X0099190Y0184030D01*
X0091800Y0176800D02*
X0081800Y0186800D01*
X0079300Y0186800D01*
X0082989Y0190424D02*
X0085611Y0190424D01*
X0084541Y0188826D02*
X0084300Y0188826D01*
X0075611Y0190424D02*
X0072989Y0190424D01*
X0074059Y0188826D02*
X0074541Y0188826D01*
X0069300Y0186800D02*
X0069300Y0169300D01*
X0056800Y0156800D01*
X0056800Y0151800D01*
X0056800Y0136800D01*
X0037000Y0137000D02*
X0036600Y0137000D01*
X0036600Y0144000D01*
X0036600Y0151600D01*
X0037000Y0151600D01*
X0037000Y0137000D01*
X0037000Y0137673D02*
X0036600Y0137673D01*
X0036600Y0139272D02*
X0037000Y0139272D01*
X0037000Y0140870D02*
X0036600Y0140870D01*
X0036600Y0142469D02*
X0037000Y0142469D01*
X0037000Y0144068D02*
X0036600Y0144068D01*
X0036600Y0145666D02*
X0037000Y0145666D01*
X0037000Y0147265D02*
X0036600Y0147265D01*
X0036600Y0148863D02*
X0037000Y0148863D01*
X0037000Y0150462D02*
X0036600Y0150462D01*
X0036600Y0152060D02*
X0037000Y0152060D01*
X0037000Y0153659D02*
X0036600Y0153659D01*
X0036600Y0155257D02*
X0037000Y0155257D01*
X0037000Y0156856D02*
X0036600Y0156856D01*
X0036600Y0158454D02*
X0037000Y0158454D01*
X0039934Y0158454D02*
X0042817Y0158454D01*
X0041807Y0156856D02*
X0041140Y0156856D01*
X0033666Y0158454D02*
X0030783Y0158454D01*
X0031793Y0156856D02*
X0032460Y0156856D01*
X0042219Y0169644D02*
X0065118Y0169644D01*
X0066100Y0171242D02*
X0045059Y0171242D01*
X0046618Y0172841D02*
X0050945Y0172841D01*
X0049680Y0174439D02*
X0047280Y0174439D01*
X0047810Y0176038D02*
X0049128Y0176038D01*
X0049128Y0177636D02*
X0047810Y0177636D01*
X0047674Y0179235D02*
X0049711Y0179235D01*
X0051019Y0180833D02*
X0047012Y0180833D01*
X0046008Y0182432D02*
X0057950Y0182432D01*
X0059214Y0182432D02*
X0059386Y0182432D01*
X0059386Y0182228D02*
X0059660Y0182228D01*
X0060371Y0182341D01*
X0061055Y0182563D01*
X0061696Y0182890D01*
X0062278Y0183313D01*
X0062787Y0183822D01*
X0063210Y0184404D01*
X0063537Y0185045D01*
X0063759Y0185729D01*
X0063872Y0186440D01*
X0063872Y0186714D01*
X0059386Y0186714D01*
X0059386Y0182228D01*
X0060650Y0182432D02*
X0066100Y0182432D01*
X0064849Y0184030D02*
X0062939Y0184030D01*
X0063726Y0185629D02*
X0064187Y0185629D01*
X0064128Y0187227D02*
X0063861Y0187227D01*
X0063399Y0188826D02*
X0064541Y0188826D01*
X0065611Y0190424D02*
X0062089Y0190424D01*
X0059386Y0190424D02*
X0059214Y0190424D01*
X0059214Y0188826D02*
X0059386Y0188826D01*
X0059386Y0187227D02*
X0059214Y0187227D01*
X0059214Y0185629D02*
X0059386Y0185629D01*
X0059386Y0184030D02*
X0059214Y0184030D01*
X0055661Y0184030D02*
X0044410Y0184030D01*
X0057581Y0180833D02*
X0061019Y0180833D01*
X0059711Y0179235D02*
X0058889Y0179235D01*
X0058920Y0174439D02*
X0059680Y0174439D01*
X0060945Y0172841D02*
X0057655Y0172841D01*
X0052817Y0158454D02*
X0050783Y0158454D01*
X0051793Y0156856D02*
X0051807Y0156856D01*
X0076800Y0156800D02*
X0076800Y0151800D01*
X0076800Y0136800D01*
X0076800Y0156800D02*
X0091800Y0171800D01*
X0091800Y0176800D01*
X0090972Y0166447D02*
X0116921Y0166447D01*
X0115323Y0164848D02*
X0089374Y0164848D01*
X0087775Y0163250D02*
X0113724Y0163250D01*
X0112126Y0161651D02*
X0086177Y0161651D01*
X0085370Y0160053D02*
X0084578Y0160053D01*
X0088230Y0160053D02*
X0095370Y0160053D01*
X0098230Y0160053D02*
X0110527Y0160053D01*
X0109022Y0158454D02*
X0100783Y0158454D01*
X0101793Y0156856D02*
X0108600Y0156856D01*
X0108600Y0155257D02*
X0102200Y0155257D01*
X0102200Y0153659D02*
X0108600Y0153659D01*
X0108600Y0152060D02*
X0102200Y0152060D01*
X0102200Y0150462D02*
X0108600Y0150462D01*
X0108600Y0148863D02*
X0102200Y0148863D01*
X0102009Y0147265D02*
X0108600Y0147265D01*
X0108600Y0145666D02*
X0101303Y0145666D01*
X0100169Y0144068D02*
X0108600Y0144068D01*
X0108600Y0142469D02*
X0101539Y0142469D01*
X0102200Y0140870D02*
X0108600Y0140870D01*
X0108600Y0139272D02*
X0102200Y0139272D01*
X0102200Y0137673D02*
X0108600Y0137673D01*
X0108600Y0136075D02*
X0102200Y0136075D01*
X0102200Y0134476D02*
X0108600Y0134476D01*
X0108352Y0132878D02*
X0102200Y0132878D01*
X0101601Y0131279D02*
X0106754Y0131279D01*
X0106800Y0126800D02*
X0031800Y0126800D01*
X0026800Y0131800D01*
X0026800Y0136800D01*
X0006600Y0121688D02*
X0137030Y0121688D01*
X0144409Y0120090D02*
X0006600Y0120090D01*
X0006600Y0118491D02*
X0146007Y0118491D01*
X0147606Y0116893D02*
X0006600Y0116893D01*
X0006600Y0115294D02*
X0149204Y0115294D01*
X0151800Y0111800D02*
X0086800Y0111800D01*
X0026800Y0051800D01*
X0026800Y0026800D01*
X0031800Y0021800D01*
X0034300Y0021800D01*
X0038629Y0017785D02*
X0039971Y0017785D01*
X0042434Y0016187D02*
X0036166Y0016187D01*
X0032434Y0016187D02*
X0006600Y0016187D01*
X0006600Y0017785D02*
X0029971Y0017785D01*
X0028915Y0019384D02*
X0006600Y0019384D01*
X0006600Y0020982D02*
X0028092Y0020982D01*
X0026494Y0022581D02*
X0006600Y0022581D01*
X0006600Y0024179D02*
X0024895Y0024179D01*
X0023760Y0025778D02*
X0006600Y0025778D01*
X0006600Y0027376D02*
X0023600Y0027376D01*
X0023600Y0028975D02*
X0006600Y0028975D01*
X0006600Y0030573D02*
X0023600Y0030573D01*
X0023600Y0032172D02*
X0006600Y0032172D01*
X0006600Y0033770D02*
X0023600Y0033770D01*
X0023600Y0035369D02*
X0006600Y0035369D01*
X0006600Y0036967D02*
X0023600Y0036967D01*
X0023600Y0038566D02*
X0006600Y0038566D01*
X0006600Y0040164D02*
X0023600Y0040164D01*
X0023600Y0041763D02*
X0006600Y0041763D01*
X0006600Y0043361D02*
X0023600Y0043361D01*
X0023600Y0044960D02*
X0006600Y0044960D01*
X0006600Y0046558D02*
X0023600Y0046558D01*
X0023600Y0048157D02*
X0006600Y0048157D01*
X0006600Y0049755D02*
X0023600Y0049755D01*
X0023600Y0051354D02*
X0006600Y0051354D01*
X0006600Y0052952D02*
X0023814Y0052952D01*
X0025025Y0054551D02*
X0006600Y0054551D01*
X0006600Y0056149D02*
X0026624Y0056149D01*
X0028222Y0057748D02*
X0006600Y0057748D01*
X0006600Y0059346D02*
X0029821Y0059346D01*
X0031419Y0060945D02*
X0006600Y0060945D01*
X0006600Y0062543D02*
X0033018Y0062543D01*
X0034616Y0064142D02*
X0006600Y0064142D01*
X0006600Y0065740D02*
X0036215Y0065740D01*
X0037813Y0067339D02*
X0006600Y0067339D01*
X0006600Y0068937D02*
X0039412Y0068937D01*
X0041011Y0070536D02*
X0006600Y0070536D01*
X0006600Y0072134D02*
X0042609Y0072134D01*
X0044208Y0073733D02*
X0006600Y0073733D01*
X0006600Y0075332D02*
X0045806Y0075332D01*
X0047405Y0076930D02*
X0006600Y0076930D01*
X0006600Y0078529D02*
X0049003Y0078529D01*
X0050602Y0080127D02*
X0006600Y0080127D01*
X0006600Y0081726D02*
X0052200Y0081726D01*
X0053799Y0083324D02*
X0006600Y0083324D01*
X0006600Y0084923D02*
X0055397Y0084923D01*
X0056996Y0086521D02*
X0006600Y0086521D01*
X0006600Y0088120D02*
X0058594Y0088120D01*
X0060193Y0089718D02*
X0006600Y0089718D01*
X0006600Y0091317D02*
X0061791Y0091317D01*
X0063390Y0092915D02*
X0006600Y0092915D01*
X0006600Y0094514D02*
X0064988Y0094514D01*
X0066587Y0096112D02*
X0006600Y0096112D01*
X0006600Y0097711D02*
X0068185Y0097711D01*
X0069784Y0099309D02*
X0006600Y0099309D01*
X0006600Y0100908D02*
X0071382Y0100908D01*
X0072981Y0102506D02*
X0006600Y0102506D01*
X0006600Y0104105D02*
X0074579Y0104105D01*
X0076178Y0105703D02*
X0006600Y0105703D01*
X0006600Y0107302D02*
X0077776Y0107302D01*
X0079375Y0108900D02*
X0006600Y0108900D01*
X0006600Y0110499D02*
X0080973Y0110499D01*
X0082572Y0112097D02*
X0006600Y0112097D01*
X0006600Y0113696D02*
X0084170Y0113696D01*
X0088125Y0108600D02*
X0030000Y0050475D01*
X0030000Y0034898D01*
X0030257Y0035253D01*
X0030847Y0035843D01*
X0031522Y0036333D01*
X0032266Y0036712D01*
X0033059Y0036969D01*
X0033883Y0037100D01*
X0034116Y0037100D01*
X0034116Y0031984D01*
X0034484Y0031984D01*
X0034484Y0037100D01*
X0034717Y0037100D01*
X0035541Y0036969D01*
X0036334Y0036712D01*
X0037078Y0036333D01*
X0037753Y0035843D01*
X0038343Y0035253D01*
X0038833Y0034578D01*
X0038961Y0034327D01*
X0039298Y0035142D01*
X0040958Y0036802D01*
X0041100Y0036861D01*
X0041100Y0059937D01*
X0041587Y0061113D01*
X0042487Y0062013D01*
X0089075Y0108600D01*
X0088125Y0108600D01*
X0087776Y0107302D02*
X0086827Y0107302D01*
X0086178Y0105703D02*
X0085229Y0105703D01*
X0084579Y0104105D02*
X0083630Y0104105D01*
X0082981Y0102506D02*
X0082032Y0102506D01*
X0081382Y0100908D02*
X0080433Y0100908D01*
X0079784Y0099309D02*
X0078835Y0099309D01*
X0078185Y0097711D02*
X0077236Y0097711D01*
X0076587Y0096112D02*
X0075638Y0096112D01*
X0074988Y0094514D02*
X0074039Y0094514D01*
X0073390Y0092915D02*
X0072441Y0092915D01*
X0071791Y0091317D02*
X0070842Y0091317D01*
X0070193Y0089718D02*
X0069244Y0089718D01*
X0068594Y0088120D02*
X0067645Y0088120D01*
X0066996Y0086521D02*
X0066047Y0086521D01*
X0065397Y0084923D02*
X0064448Y0084923D01*
X0063799Y0083324D02*
X0062850Y0083324D01*
X0062200Y0081726D02*
X0061251Y0081726D01*
X0060602Y0080127D02*
X0059653Y0080127D01*
X0059003Y0078529D02*
X0058054Y0078529D01*
X0057405Y0076930D02*
X0056456Y0076930D01*
X0055806Y0075332D02*
X0054857Y0075332D01*
X0054208Y0073733D02*
X0053258Y0073733D01*
X0052609Y0072134D02*
X0051660Y0072134D01*
X0051011Y0070536D02*
X0050061Y0070536D01*
X0049412Y0068937D02*
X0048463Y0068937D01*
X0047813Y0067339D02*
X0046864Y0067339D01*
X0046215Y0065740D02*
X0045266Y0065740D01*
X0044616Y0064142D02*
X0043667Y0064142D01*
X0043018Y0062543D02*
X0042069Y0062543D01*
X0041518Y0060945D02*
X0040470Y0060945D01*
X0041100Y0059346D02*
X0038872Y0059346D01*
X0037273Y0057748D02*
X0041100Y0057748D01*
X0041100Y0056149D02*
X0035675Y0056149D01*
X0034076Y0054551D02*
X0041100Y0054551D01*
X0041100Y0052952D02*
X0032478Y0052952D01*
X0030879Y0051354D02*
X0041100Y0051354D01*
X0041100Y0049755D02*
X0030000Y0049755D01*
X0030000Y0048157D02*
X0041100Y0048157D01*
X0041100Y0046558D02*
X0030000Y0046558D01*
X0030000Y0044960D02*
X0041100Y0044960D01*
X0041100Y0043361D02*
X0030000Y0043361D01*
X0030000Y0041763D02*
X0041100Y0041763D01*
X0041100Y0040164D02*
X0030000Y0040164D01*
X0030000Y0038566D02*
X0041100Y0038566D01*
X0041100Y0036967D02*
X0035548Y0036967D01*
X0034484Y0036967D02*
X0034116Y0036967D01*
X0033052Y0036967D02*
X0030000Y0036967D01*
X0030000Y0035369D02*
X0030373Y0035369D01*
X0034116Y0035369D02*
X0034484Y0035369D01*
X0034484Y0033770D02*
X0034116Y0033770D01*
X0034116Y0032172D02*
X0034484Y0032172D01*
X0038227Y0035369D02*
X0039525Y0035369D01*
X0044300Y0031800D02*
X0044300Y0059300D01*
X0091800Y0106800D01*
X0131800Y0106800D01*
X0146800Y0091800D01*
X0146800Y0081800D01*
X0146800Y0071800D02*
X0164300Y0054300D01*
X0164300Y0031800D01*
X0154300Y0031800D02*
X0154300Y0054300D01*
X0136800Y0071800D01*
X0126800Y0081800D02*
X0126800Y0091800D01*
X0116800Y0101800D01*
X0096800Y0101800D01*
X0054300Y0059300D01*
X0054300Y0031800D01*
X0064300Y0031800D02*
X0064300Y0059300D01*
X0101800Y0096800D01*
X0111800Y0096800D01*
X0116800Y0091800D01*
X0116800Y0081800D01*
X0111800Y0069446D02*
X0113900Y0067346D01*
X0113900Y0066223D01*
X0114341Y0065157D01*
X0126400Y0053099D01*
X0126400Y0037316D01*
X0125474Y0037700D01*
X0123126Y0037700D01*
X0120958Y0036802D01*
X0119300Y0035144D01*
X0117642Y0036802D01*
X0115474Y0037700D01*
X0113126Y0037700D01*
X0110958Y0036802D01*
X0109298Y0035142D01*
X0108961Y0034327D01*
X0108833Y0034578D01*
X0108343Y0035253D01*
X0107753Y0035843D01*
X0107078Y0036333D01*
X0106334Y0036712D01*
X0105541Y0036969D01*
X0104717Y0037100D01*
X0104484Y0037100D01*
X0104484Y0031984D01*
X0104116Y0031984D01*
X0104116Y0037100D01*
X0103883Y0037100D01*
X0103059Y0036969D01*
X0102266Y0036712D01*
X0101522Y0036333D01*
X0100847Y0035843D01*
X0100257Y0035253D01*
X0099767Y0034578D01*
X0099639Y0034327D01*
X0099302Y0035142D01*
X0097642Y0036802D01*
X0095474Y0037700D01*
X0093126Y0037700D01*
X0090958Y0036802D01*
X0089300Y0035144D01*
X0087642Y0036802D01*
X0087500Y0036861D01*
X0087500Y0057975D01*
X0096125Y0066600D01*
X0098954Y0066600D01*
X0101800Y0069446D01*
X0104646Y0066600D01*
X0108954Y0066600D01*
X0111800Y0069446D01*
X0111291Y0068937D02*
X0112309Y0068937D01*
X0113900Y0067339D02*
X0109693Y0067339D01*
X0114100Y0065740D02*
X0095266Y0065740D01*
X0093667Y0064142D02*
X0115357Y0064142D01*
X0116955Y0062543D02*
X0092069Y0062543D01*
X0090470Y0060945D02*
X0118554Y0060945D01*
X0117874Y0060200D02*
X0115726Y0060200D01*
X0113741Y0059378D01*
X0112222Y0057859D01*
X0111800Y0056840D01*
X0111378Y0057859D01*
X0109859Y0059378D01*
X0107874Y0060200D01*
X0105726Y0060200D01*
X0103741Y0059378D01*
X0102222Y0057859D01*
X0101800Y0056840D01*
X0101378Y0057859D01*
X0099859Y0059378D01*
X0097874Y0060200D01*
X0095726Y0060200D01*
X0093741Y0059378D01*
X0092222Y0057859D01*
X0091400Y0055874D01*
X0091400Y0047726D01*
X0092222Y0045741D01*
X0093741Y0044222D01*
X0095726Y0043400D01*
X0097874Y0043400D01*
X0099859Y0044222D01*
X0101378Y0045741D01*
X0101800Y0046760D01*
X0102222Y0045741D01*
X0103741Y0044222D01*
X0105726Y0043400D01*
X0107874Y0043400D01*
X0109859Y0044222D01*
X0111378Y0045741D01*
X0111800Y0046760D01*
X0112222Y0045741D01*
X0113741Y0044222D01*
X0115726Y0043400D01*
X0117874Y0043400D01*
X0119859Y0044222D01*
X0121378Y0045741D01*
X0122200Y0047726D01*
X0122200Y0055874D01*
X0121378Y0057859D01*
X0119859Y0059378D01*
X0117874Y0060200D01*
X0119890Y0059346D02*
X0120152Y0059346D01*
X0121424Y0057748D02*
X0121751Y0057748D01*
X0122086Y0056149D02*
X0123349Y0056149D01*
X0122200Y0054551D02*
X0124948Y0054551D01*
X0126400Y0052952D02*
X0122200Y0052952D01*
X0122200Y0051354D02*
X0126400Y0051354D01*
X0126400Y0049755D02*
X0122200Y0049755D01*
X0122200Y0048157D02*
X0126400Y0048157D01*
X0126400Y0046558D02*
X0121716Y0046558D01*
X0120597Y0044960D02*
X0126400Y0044960D01*
X0126400Y0043361D02*
X0087500Y0043361D01*
X0087500Y0041763D02*
X0126400Y0041763D01*
X0126400Y0040164D02*
X0087500Y0040164D01*
X0087500Y0038566D02*
X0126400Y0038566D01*
X0121357Y0036967D02*
X0117243Y0036967D01*
X0119075Y0035369D02*
X0119525Y0035369D01*
X0111357Y0036967D02*
X0105548Y0036967D01*
X0104484Y0036967D02*
X0104116Y0036967D01*
X0103052Y0036967D02*
X0097243Y0036967D01*
X0099075Y0035369D02*
X0100373Y0035369D01*
X0104116Y0035369D02*
X0104484Y0035369D01*
X0104484Y0033770D02*
X0104116Y0033770D01*
X0104116Y0032172D02*
X0104484Y0032172D01*
X0108227Y0035369D02*
X0109525Y0035369D01*
X0110597Y0044960D02*
X0113003Y0044960D01*
X0111884Y0046558D02*
X0111716Y0046558D01*
X0103003Y0044960D02*
X0100597Y0044960D01*
X0101716Y0046558D02*
X0101884Y0046558D01*
X0093003Y0044960D02*
X0087500Y0044960D01*
X0087500Y0046558D02*
X0091884Y0046558D01*
X0091400Y0048157D02*
X0087500Y0048157D01*
X0087500Y0049755D02*
X0091400Y0049755D01*
X0091400Y0051354D02*
X0087500Y0051354D01*
X0087500Y0052952D02*
X0091400Y0052952D01*
X0091400Y0054551D02*
X0087500Y0054551D01*
X0087500Y0056149D02*
X0091514Y0056149D01*
X0092176Y0057748D02*
X0087500Y0057748D01*
X0088872Y0059346D02*
X0093710Y0059346D01*
X0099890Y0059346D02*
X0103710Y0059346D01*
X0102176Y0057748D02*
X0101424Y0057748D01*
X0109890Y0059346D02*
X0113710Y0059346D01*
X0112176Y0057748D02*
X0111424Y0057748D01*
X0103907Y0067339D02*
X0099693Y0067339D01*
X0101291Y0068937D02*
X0102309Y0068937D01*
X0096800Y0071800D02*
X0084300Y0059300D01*
X0084300Y0031800D01*
X0089075Y0035369D02*
X0089525Y0035369D01*
X0091357Y0036967D02*
X0087500Y0036967D01*
X0074300Y0031800D02*
X0074300Y0059300D01*
X0096800Y0081800D01*
X0106800Y0126800D02*
X0111800Y0131800D01*
X0111800Y0156800D01*
X0126800Y0171800D01*
X0136800Y0171800D01*
X0146800Y0181800D01*
X0146800Y0211800D01*
X0146800Y0221800D01*
X0156800Y0221800D01*
X0156800Y0181800D01*
X0160608Y0185629D02*
X0173440Y0185629D01*
X0173400Y0187227D02*
X0160000Y0187227D01*
X0161463Y0188826D02*
X0173794Y0188826D01*
X0174788Y0190424D02*
X0162200Y0190424D01*
X0162200Y0192023D02*
X0176222Y0192023D01*
X0174342Y0193621D02*
X0162200Y0193621D01*
X0161017Y0195220D02*
X0173610Y0195220D01*
X0173400Y0196818D02*
X0160000Y0196818D01*
X0161054Y0198417D02*
X0173625Y0198417D01*
X0174379Y0200015D02*
X0162200Y0200015D01*
X0162200Y0201614D02*
X0176311Y0201614D01*
X0174751Y0203212D02*
X0162200Y0203212D01*
X0161426Y0204811D02*
X0173779Y0204811D01*
X0173400Y0206409D02*
X0160000Y0206409D01*
X0160645Y0208008D02*
X0173455Y0208008D01*
X0174118Y0209606D02*
X0162200Y0209606D01*
X0162200Y0211205D02*
X0175568Y0211205D01*
X0175160Y0212803D02*
X0162200Y0212803D01*
X0161835Y0214402D02*
X0173948Y0214402D01*
X0173400Y0216001D02*
X0160236Y0216001D01*
X0160236Y0217599D02*
X0173400Y0217599D01*
X0173948Y0219198D02*
X0161834Y0219198D01*
X0162200Y0220796D02*
X0175159Y0220796D01*
X0181800Y0216800D02*
X0181800Y0206800D01*
X0181800Y0196800D01*
X0181800Y0186800D01*
X0211800Y0156800D01*
X0211800Y0111800D01*
X0215000Y0112097D02*
X0216400Y0112097D01*
X0216400Y0110499D02*
X0215000Y0110499D01*
X0215000Y0108900D02*
X0216400Y0108900D01*
X0216576Y0107302D02*
X0215000Y0107302D01*
X0215000Y0105703D02*
X0217260Y0105703D01*
X0219024Y0104105D02*
X0215000Y0104105D01*
X0215000Y0102506D02*
X0251921Y0102506D01*
X0251921Y0100908D02*
X0215000Y0100908D01*
X0215000Y0099309D02*
X0218672Y0099309D01*
X0217161Y0097711D02*
X0215000Y0097711D01*
X0215000Y0096112D02*
X0216499Y0096112D01*
X0216400Y0094514D02*
X0215000Y0094514D01*
X0215000Y0092915D02*
X0216400Y0092915D01*
X0216400Y0091317D02*
X0215000Y0091317D01*
X0215000Y0089718D02*
X0216400Y0089718D01*
X0216400Y0088120D02*
X0215000Y0088120D01*
X0215000Y0086521D02*
X0216899Y0086521D01*
X0218041Y0084923D02*
X0215000Y0084923D01*
X0215000Y0083324D02*
X0251921Y0083324D01*
X0251921Y0081726D02*
X0215000Y0081726D01*
X0215000Y0080127D02*
X0220550Y0080127D01*
X0217892Y0078529D02*
X0215000Y0078529D01*
X0215000Y0076930D02*
X0216837Y0076930D01*
X0216400Y0075332D02*
X0215000Y0075332D01*
X0215000Y0073733D02*
X0216400Y0073733D01*
X0225708Y0078529D02*
X0228766Y0078529D01*
X0227498Y0076930D02*
X0226763Y0076930D01*
X0231600Y0076930D02*
X0232000Y0076930D01*
X0232000Y0075332D02*
X0231600Y0075332D01*
X0231600Y0073733D02*
X0232000Y0073733D01*
X0232000Y0072134D02*
X0231600Y0072134D01*
X0231600Y0070536D02*
X0232000Y0070536D01*
X0232000Y0068937D02*
X0231600Y0068937D01*
X0231600Y0067339D02*
X0232000Y0067339D01*
X0232000Y0065740D02*
X0231600Y0065740D01*
X0231600Y0064142D02*
X0232000Y0064142D01*
X0232997Y0064142D02*
X0238935Y0064142D01*
X0237223Y0065740D02*
X0235510Y0065740D01*
X0236372Y0067339D02*
X0236560Y0067339D01*
X0230603Y0064142D02*
X0225000Y0064142D01*
X0226377Y0065740D02*
X0228090Y0065740D01*
X0227228Y0067339D02*
X0227040Y0067339D01*
X0236102Y0076930D02*
X0236837Y0076930D01*
X0237892Y0078529D02*
X0234834Y0078529D01*
X0232000Y0078529D02*
X0231600Y0078529D01*
X0245559Y0084923D02*
X0251921Y0084923D01*
X0251921Y0086521D02*
X0246701Y0086521D01*
X0247200Y0088120D02*
X0251921Y0088120D01*
X0251921Y0089718D02*
X0247200Y0089718D01*
X0247200Y0091317D02*
X0251921Y0091317D01*
X0251921Y0092915D02*
X0247200Y0092915D01*
X0247200Y0094514D02*
X0251921Y0094514D01*
X0251921Y0096112D02*
X0247101Y0096112D01*
X0246439Y0097711D02*
X0251921Y0097711D01*
X0251921Y0099309D02*
X0244928Y0099309D01*
X0244575Y0104105D02*
X0251921Y0104105D01*
X0251921Y0105703D02*
X0246340Y0105703D01*
X0247024Y0107302D02*
X0251921Y0107302D01*
X0251921Y0108900D02*
X0247200Y0108900D01*
X0247200Y0110499D02*
X0251921Y0110499D01*
X0251921Y0112097D02*
X0247200Y0112097D01*
X0247200Y0113696D02*
X0251921Y0113696D01*
X0251921Y0115294D02*
X0247200Y0115294D01*
X0246778Y0116893D02*
X0251921Y0116893D01*
X0251921Y0118491D02*
X0245745Y0118491D01*
X0243140Y0120090D02*
X0251921Y0120090D01*
X0251921Y0121688D02*
X0215000Y0121688D01*
X0215000Y0120090D02*
X0220460Y0120090D01*
X0223140Y0120090D02*
X0240460Y0120090D01*
X0228714Y0118491D02*
X0225745Y0118491D01*
X0226778Y0116893D02*
X0227479Y0116893D01*
X0217855Y0118491D02*
X0215000Y0118491D01*
X0215000Y0116893D02*
X0216822Y0116893D01*
X0216400Y0115294D02*
X0215000Y0115294D01*
X0215000Y0113696D02*
X0216400Y0113696D01*
X0205973Y0110499D02*
X0205851Y0110499D01*
X0208600Y0099309D02*
X0193816Y0099309D01*
X0195415Y0097711D02*
X0208600Y0097711D01*
X0208600Y0096112D02*
X0197013Y0096112D01*
X0198612Y0094514D02*
X0208600Y0094514D01*
X0208600Y0092915D02*
X0200210Y0092915D01*
X0201809Y0091317D02*
X0208600Y0091317D01*
X0208600Y0089718D02*
X0203407Y0089718D01*
X0205006Y0088120D02*
X0208600Y0088120D01*
X0208600Y0086521D02*
X0206604Y0086521D01*
X0208203Y0084923D02*
X0208600Y0084923D01*
X0198600Y0080127D02*
X0192200Y0080127D01*
X0192200Y0078529D02*
X0198600Y0078529D01*
X0198600Y0076930D02*
X0192200Y0076930D01*
X0192200Y0075332D02*
X0198600Y0075332D01*
X0198600Y0073733D02*
X0192200Y0073733D01*
X0192200Y0072134D02*
X0198600Y0072134D01*
X0198600Y0070536D02*
X0192200Y0070536D01*
X0192200Y0068937D02*
X0198600Y0068937D01*
X0198600Y0067339D02*
X0192200Y0067339D01*
X0192200Y0065740D02*
X0198600Y0065740D01*
X0198600Y0064142D02*
X0192200Y0064142D01*
X0192200Y0062543D02*
X0198600Y0062543D01*
X0198600Y0060945D02*
X0192200Y0060945D01*
X0192200Y0059346D02*
X0198600Y0059346D01*
X0198600Y0057748D02*
X0192200Y0057748D01*
X0192200Y0056149D02*
X0198600Y0056149D01*
X0198600Y0054551D02*
X0192200Y0054551D01*
X0192200Y0052952D02*
X0198600Y0052952D01*
X0198600Y0051354D02*
X0192200Y0051354D01*
X0192200Y0049755D02*
X0198600Y0049755D01*
X0198600Y0048157D02*
X0192200Y0048157D01*
X0192200Y0046558D02*
X0198600Y0046558D01*
X0198600Y0044960D02*
X0192200Y0044960D01*
X0192200Y0043361D02*
X0198600Y0043361D01*
X0198600Y0041763D02*
X0192200Y0041763D01*
X0192200Y0040164D02*
X0198600Y0040164D01*
X0198600Y0038566D02*
X0192200Y0038566D01*
X0197243Y0036967D02*
X0198600Y0036967D01*
X0186400Y0036967D02*
X0185548Y0036967D01*
X0185541Y0036969D02*
X0184717Y0037100D01*
X0184484Y0037100D01*
X0184484Y0031984D01*
X0184116Y0031984D01*
X0184116Y0037100D01*
X0183883Y0037100D01*
X0183059Y0036969D01*
X0182266Y0036712D01*
X0182200Y0036678D01*
X0182200Y0087299D01*
X0186400Y0083099D01*
X0186400Y0036678D01*
X0186334Y0036712D01*
X0185541Y0036969D01*
X0184484Y0036967D02*
X0184116Y0036967D01*
X0183052Y0036967D02*
X0182200Y0036967D01*
X0182200Y0038566D02*
X0186400Y0038566D01*
X0186400Y0040164D02*
X0182200Y0040164D01*
X0182200Y0041763D02*
X0186400Y0041763D01*
X0186400Y0043361D02*
X0182200Y0043361D01*
X0182200Y0044960D02*
X0186400Y0044960D01*
X0186400Y0046558D02*
X0182200Y0046558D01*
X0182200Y0048157D02*
X0186400Y0048157D01*
X0186400Y0049755D02*
X0182200Y0049755D01*
X0182200Y0051354D02*
X0186400Y0051354D01*
X0186400Y0052952D02*
X0182200Y0052952D01*
X0182200Y0054551D02*
X0186400Y0054551D01*
X0186400Y0056149D02*
X0182200Y0056149D01*
X0182200Y0057748D02*
X0186400Y0057748D01*
X0186400Y0059346D02*
X0182200Y0059346D01*
X0182200Y0060945D02*
X0186400Y0060945D01*
X0186400Y0062543D02*
X0182200Y0062543D01*
X0182200Y0064142D02*
X0186400Y0064142D01*
X0186400Y0065740D02*
X0182200Y0065740D01*
X0182200Y0067339D02*
X0186400Y0067339D01*
X0186400Y0068937D02*
X0182200Y0068937D01*
X0182200Y0070536D02*
X0186400Y0070536D01*
X0186400Y0072134D02*
X0182200Y0072134D01*
X0182200Y0073733D02*
X0186400Y0073733D01*
X0186400Y0075332D02*
X0182200Y0075332D01*
X0182200Y0076930D02*
X0186400Y0076930D01*
X0186400Y0078529D02*
X0182200Y0078529D01*
X0182200Y0080127D02*
X0186400Y0080127D01*
X0186400Y0081726D02*
X0182200Y0081726D01*
X0182200Y0083324D02*
X0186175Y0083324D01*
X0184576Y0084923D02*
X0182200Y0084923D01*
X0182200Y0086521D02*
X0182978Y0086521D01*
X0186385Y0091317D02*
X0187758Y0091317D01*
X0187983Y0089718D02*
X0189356Y0089718D01*
X0189582Y0088120D02*
X0190955Y0088120D01*
X0191180Y0086521D02*
X0192553Y0086521D01*
X0192181Y0084923D02*
X0194152Y0084923D01*
X0195750Y0083324D02*
X0192200Y0083324D01*
X0192200Y0081726D02*
X0197349Y0081726D01*
X0186159Y0092915D02*
X0184786Y0092915D01*
X0184561Y0094514D02*
X0183188Y0094514D01*
X0182962Y0096112D02*
X0181589Y0096112D01*
X0181364Y0097711D02*
X0179991Y0097711D01*
X0179765Y0099309D02*
X0178392Y0099309D01*
X0178167Y0100908D02*
X0176794Y0100908D01*
X0176568Y0102506D02*
X0175195Y0102506D01*
X0174970Y0104105D02*
X0173596Y0104105D01*
X0173371Y0105703D02*
X0171998Y0105703D01*
X0171773Y0107302D02*
X0170399Y0107302D01*
X0170174Y0108900D02*
X0168801Y0108900D01*
X0168875Y0110499D02*
X0167202Y0110499D01*
X0168600Y0112097D02*
X0165604Y0112097D01*
X0164005Y0113696D02*
X0168600Y0113696D01*
X0168600Y0115294D02*
X0162407Y0115294D01*
X0160808Y0116893D02*
X0168600Y0116893D01*
X0168600Y0118491D02*
X0159700Y0118491D01*
X0159700Y0120090D02*
X0168600Y0120090D01*
X0167030Y0121688D02*
X0159700Y0121688D01*
X0159700Y0123287D02*
X0164676Y0123287D01*
X0163748Y0124885D02*
X0159700Y0124885D01*
X0159700Y0126484D02*
X0163400Y0126484D01*
X0163486Y0128082D02*
X0159408Y0128082D01*
X0158020Y0129681D02*
X0164148Y0129681D01*
X0165643Y0131279D02*
X0156422Y0131279D01*
X0153015Y0126484D02*
X0150200Y0126484D01*
X0150114Y0128082D02*
X0151416Y0128082D01*
X0149818Y0129681D02*
X0149452Y0129681D01*
X0148219Y0131279D02*
X0147957Y0131279D01*
X0149852Y0124885D02*
X0153900Y0124885D01*
X0153900Y0123287D02*
X0149414Y0123287D01*
X0151013Y0121688D02*
X0153900Y0121688D01*
X0153900Y0120090D02*
X0152611Y0120090D01*
X0151800Y0111800D02*
X0166800Y0096800D01*
X0166800Y0081800D01*
X0166800Y0071800D02*
X0174300Y0064300D01*
X0174300Y0031800D01*
X0184116Y0032172D02*
X0184484Y0032172D01*
X0184484Y0033770D02*
X0184116Y0033770D01*
X0184116Y0035369D02*
X0184484Y0035369D01*
X0188629Y0017785D02*
X0189971Y0017785D01*
X0192434Y0016187D02*
X0186166Y0016187D01*
X0182434Y0016187D02*
X0176166Y0016187D01*
X0178629Y0017785D02*
X0179971Y0017785D01*
X0172434Y0016187D02*
X0156166Y0016187D01*
X0158629Y0017785D02*
X0160820Y0017785D01*
X0164116Y0017785D02*
X0164484Y0017785D01*
X0164484Y0019384D02*
X0164116Y0019384D01*
X0164116Y0020982D02*
X0164484Y0020982D01*
X0167780Y0017785D02*
X0169971Y0017785D01*
X0152434Y0016187D02*
X0146166Y0016187D01*
X0148629Y0017785D02*
X0149971Y0017785D01*
X0142434Y0016187D02*
X0126166Y0016187D01*
X0128629Y0017785D02*
X0130820Y0017785D01*
X0134116Y0017785D02*
X0134484Y0017785D01*
X0134484Y0019384D02*
X0134116Y0019384D01*
X0134116Y0020982D02*
X0134484Y0020982D01*
X0137780Y0017785D02*
X0139971Y0017785D01*
X0122434Y0016187D02*
X0116166Y0016187D01*
X0118629Y0017785D02*
X0119971Y0017785D01*
X0112434Y0016187D02*
X0106166Y0016187D01*
X0108629Y0017785D02*
X0109971Y0017785D01*
X0102434Y0016187D02*
X0096166Y0016187D01*
X0098629Y0017785D02*
X0099971Y0017785D01*
X0092434Y0016187D02*
X0076166Y0016187D01*
X0078629Y0017785D02*
X0080820Y0017785D01*
X0084116Y0017785D02*
X0084484Y0017785D01*
X0084484Y0019384D02*
X0084116Y0019384D01*
X0084116Y0020982D02*
X0084484Y0020982D01*
X0087780Y0017785D02*
X0089971Y0017785D01*
X0072434Y0016187D02*
X0056166Y0016187D01*
X0058629Y0017785D02*
X0060820Y0017785D01*
X0064116Y0017785D02*
X0064484Y0017785D01*
X0064484Y0019384D02*
X0064116Y0019384D01*
X0064116Y0020982D02*
X0064484Y0020982D01*
X0067780Y0017785D02*
X0069971Y0017785D01*
X0052434Y0016187D02*
X0046166Y0016187D01*
X0048629Y0017785D02*
X0049971Y0017785D01*
X0006600Y0014588D02*
X0251921Y0014588D01*
X0251921Y0012990D02*
X0006600Y0012990D01*
X0006600Y0011391D02*
X0251921Y0011391D01*
X0251921Y0009793D02*
X0006600Y0009793D01*
X0006600Y0008194D02*
X0251921Y0008194D01*
X0251921Y0016187D02*
X0226166Y0016187D01*
X0228629Y0017785D02*
X0251921Y0017785D01*
X0251921Y0019384D02*
X0229685Y0019384D01*
X0230200Y0020982D02*
X0251921Y0020982D01*
X0251921Y0022581D02*
X0230200Y0022581D01*
X0229701Y0024179D02*
X0251921Y0024179D01*
X0251921Y0025778D02*
X0228666Y0025778D01*
X0230015Y0027376D02*
X0251921Y0027376D01*
X0251921Y0028975D02*
X0230200Y0028975D01*
X0230200Y0030573D02*
X0251921Y0030573D01*
X0251921Y0032172D02*
X0230200Y0032172D01*
X0224300Y0031800D02*
X0224300Y0034300D01*
X0219971Y0017785D02*
X0218629Y0017785D01*
X0216166Y0016187D02*
X0222434Y0016187D01*
X0212434Y0016187D02*
X0196166Y0016187D01*
X0198629Y0017785D02*
X0200820Y0017785D01*
X0204116Y0017785D02*
X0204484Y0017785D01*
X0204484Y0019384D02*
X0204116Y0019384D01*
X0204116Y0020982D02*
X0204484Y0020982D01*
X0207780Y0017785D02*
X0209971Y0017785D01*
X0227101Y0096112D02*
X0227179Y0096112D01*
X0226439Y0097711D02*
X0227982Y0097711D01*
X0231600Y0097711D02*
X0232000Y0097711D01*
X0227167Y0136075D02*
X0227117Y0136075D01*
X0226455Y0137673D02*
X0227955Y0137673D01*
X0227460Y0156856D02*
X0226793Y0156856D01*
X0225783Y0158454D02*
X0228666Y0158454D01*
X0229073Y0164848D02*
X0225485Y0164848D01*
X0226670Y0166447D02*
X0227612Y0166447D01*
X0231600Y0166447D02*
X0232000Y0166447D01*
X0232000Y0168045D02*
X0231600Y0168045D01*
X0231600Y0169644D02*
X0232000Y0169644D01*
X0232000Y0171242D02*
X0231600Y0171242D01*
X0231600Y0172841D02*
X0232000Y0172841D01*
X0232000Y0174439D02*
X0231600Y0174439D01*
X0231600Y0176038D02*
X0232000Y0176038D01*
X0232000Y0177636D02*
X0231600Y0177636D01*
X0231600Y0179235D02*
X0232000Y0179235D01*
X0233669Y0179235D02*
X0238598Y0179235D01*
X0237130Y0177636D02*
X0235672Y0177636D01*
X0236445Y0176038D02*
X0236468Y0176038D01*
X0229931Y0179235D02*
X0225002Y0179235D01*
X0226470Y0177636D02*
X0227928Y0177636D01*
X0227155Y0176038D02*
X0227132Y0176038D01*
X0224396Y0184030D02*
X0231231Y0184030D01*
X0231600Y0184030D02*
X0232000Y0184030D01*
X0232369Y0184030D02*
X0239204Y0184030D01*
X0237334Y0185629D02*
X0235417Y0185629D01*
X0236336Y0187227D02*
X0236607Y0187227D01*
X0232000Y0187227D02*
X0231600Y0187227D01*
X0231600Y0185629D02*
X0232000Y0185629D01*
X0232000Y0188826D02*
X0231600Y0188826D01*
X0231600Y0190424D02*
X0232000Y0190424D01*
X0227264Y0187227D02*
X0226993Y0187227D01*
X0226266Y0185629D02*
X0228183Y0185629D01*
X0219204Y0184030D02*
X0215000Y0184030D01*
X0215000Y0185629D02*
X0217334Y0185629D01*
X0216606Y0187227D02*
X0215000Y0187227D01*
X0215000Y0188826D02*
X0216400Y0188826D01*
X0216400Y0190424D02*
X0215000Y0190424D01*
X0215000Y0192023D02*
X0216400Y0192023D01*
X0216400Y0193621D02*
X0215000Y0193621D01*
X0215000Y0195220D02*
X0216400Y0195220D01*
X0216344Y0196818D02*
X0216791Y0196818D01*
X0216800Y0201800D02*
X0236800Y0201800D01*
X0241800Y0196800D01*
X0241800Y0191800D01*
X0233600Y0207597D02*
X0233600Y0207597D01*
X0230567Y0233584D02*
X0027988Y0233584D01*
X0027025Y0234622D02*
X0027025Y0234622D01*
X0026054Y0235183D02*
X0232572Y0235183D01*
X0183241Y0180833D02*
X0162200Y0180833D01*
X0162200Y0182432D02*
X0175531Y0182432D01*
X0174102Y0184030D02*
X0162200Y0184030D01*
X0161871Y0179235D02*
X0184840Y0179235D01*
X0186438Y0177636D02*
X0160273Y0177636D01*
X0153327Y0177636D02*
X0150273Y0177636D01*
X0145563Y0176038D02*
X0188037Y0176038D01*
X0189635Y0174439D02*
X0143965Y0174439D01*
X0142366Y0172841D02*
X0191234Y0172841D01*
X0192832Y0171242D02*
X0140768Y0171242D01*
X0139169Y0169644D02*
X0194431Y0169644D01*
X0196029Y0168045D02*
X0127571Y0168045D01*
X0125972Y0166447D02*
X0197628Y0166447D01*
X0199226Y0164848D02*
X0124374Y0164848D01*
X0122775Y0163250D02*
X0200825Y0163250D01*
X0202423Y0161651D02*
X0121177Y0161651D01*
X0119578Y0160053D02*
X0204022Y0160053D01*
X0205620Y0158454D02*
X0117980Y0158454D01*
X0116381Y0156856D02*
X0207219Y0156856D01*
X0208600Y0155257D02*
X0115000Y0155257D01*
X0115000Y0153659D02*
X0208600Y0153659D01*
X0208277Y0164848D02*
X0218115Y0164848D01*
X0216930Y0166447D02*
X0206679Y0166447D01*
X0205080Y0168045D02*
X0216400Y0168045D01*
X0216400Y0169644D02*
X0203482Y0169644D01*
X0201883Y0171242D02*
X0216400Y0171242D01*
X0216400Y0172841D02*
X0200285Y0172841D01*
X0231600Y0164848D02*
X0232000Y0164848D01*
X0234527Y0164848D02*
X0238115Y0164848D01*
X0236930Y0166447D02*
X0235988Y0166447D01*
X0154553Y0227190D02*
X0149047Y0227190D01*
X0150645Y0225592D02*
X0152955Y0225592D01*
X0144553Y0227190D02*
X0113566Y0227190D01*
X0101559Y0230387D02*
X0042041Y0230387D01*
X0043640Y0228789D02*
X0099960Y0228789D01*
X0099034Y0227190D02*
X0044566Y0227190D01*
X0045228Y0225592D02*
X0098372Y0225592D01*
X0098290Y0223993D02*
X0045310Y0223993D01*
X0045310Y0222395D02*
X0045566Y0222395D01*
X0053034Y0222395D02*
X0090566Y0222395D01*
X0087482Y0220796D02*
X0056118Y0220796D01*
X0057742Y0219198D02*
X0085858Y0219198D01*
X0084715Y0217599D02*
X0058885Y0217599D01*
X0059770Y0216001D02*
X0083830Y0216001D01*
X0083402Y0214402D02*
X0060198Y0214402D01*
X0060500Y0212803D02*
X0083100Y0212803D01*
X0083100Y0211205D02*
X0060500Y0211205D01*
X0060307Y0209606D02*
X0083293Y0209606D01*
X0083721Y0208008D02*
X0059879Y0208008D01*
X0059120Y0206409D02*
X0084480Y0206409D01*
X0085450Y0204811D02*
X0058150Y0204811D01*
X0056552Y0203212D02*
X0087048Y0203212D01*
X0089543Y0201614D02*
X0054057Y0201614D01*
X0044543Y0201614D02*
X0006600Y0201614D01*
X0006600Y0203212D02*
X0042048Y0203212D01*
X0040450Y0204811D02*
X0006600Y0204811D01*
X0006600Y0206409D02*
X0011626Y0206409D01*
X0008085Y0208008D02*
X0006600Y0208008D01*
X0006600Y0200015D02*
X0117000Y0200015D01*
X0118395Y0198417D02*
X0006600Y0198417D01*
X0006600Y0196818D02*
X0143600Y0196818D01*
X0142583Y0195220D02*
X0135168Y0195220D01*
X0136600Y0193621D02*
X0141400Y0193621D01*
X0141400Y0192023D02*
X0136600Y0192023D01*
X0136600Y0190424D02*
X0141400Y0190424D01*
X0142137Y0188826D02*
X0135614Y0188826D01*
X0134016Y0187227D02*
X0143600Y0187227D01*
X0142992Y0185629D02*
X0134759Y0185629D01*
X0136358Y0184030D02*
X0141400Y0184030D01*
X0141400Y0182432D02*
X0136600Y0182432D01*
X0136600Y0180833D02*
X0141308Y0180833D01*
X0139709Y0179235D02*
X0136023Y0179235D01*
X0127986Y0188826D02*
X0125614Y0188826D01*
X0126600Y0190424D02*
X0127000Y0190424D01*
X0127000Y0192023D02*
X0126600Y0192023D01*
X0126600Y0193621D02*
X0127000Y0193621D01*
X0128432Y0195220D02*
X0125168Y0195220D01*
X0125205Y0198417D02*
X0128395Y0198417D01*
X0127000Y0200015D02*
X0126600Y0200015D01*
X0126600Y0203212D02*
X0127000Y0203212D01*
X0128023Y0204811D02*
X0125577Y0204811D01*
X0123979Y0206409D02*
X0129621Y0206409D01*
X0128804Y0208008D02*
X0124796Y0208008D01*
X0126395Y0209606D02*
X0127205Y0209606D01*
X0127000Y0211205D02*
X0126600Y0211205D01*
X0126600Y0212803D02*
X0127000Y0212803D01*
X0127614Y0214402D02*
X0125986Y0214402D01*
X0124388Y0216001D02*
X0129212Y0216001D01*
X0129213Y0217599D02*
X0124387Y0217599D01*
X0125986Y0219198D02*
X0127614Y0219198D01*
X0127000Y0220796D02*
X0126600Y0220796D01*
X0126600Y0222395D02*
X0127000Y0222395D01*
X0127205Y0223993D02*
X0126395Y0223993D01*
X0124797Y0225592D02*
X0128803Y0225592D01*
X0136600Y0200015D02*
X0141400Y0200015D01*
X0142546Y0198417D02*
X0135205Y0198417D01*
X0118432Y0195220D02*
X0006600Y0195220D01*
X0006600Y0193621D02*
X0117000Y0193621D01*
X0098290Y0222395D02*
X0098034Y0222395D01*
X0039480Y0206409D02*
X0022247Y0206409D01*
X0022792Y0206534D02*
X0022792Y0206534D01*
X0025345Y0208008D02*
X0038721Y0208008D01*
X0038293Y0209606D02*
X0027608Y0209606D01*
X0029092Y0211205D02*
X0038100Y0211205D01*
X0038100Y0212803D02*
X0030467Y0212803D01*
X0030350Y0212562D02*
X0030350Y0212562D01*
X0031237Y0214402D02*
X0038402Y0214402D01*
X0035198Y0216001D02*
X0032006Y0216001D01*
X0032471Y0216966D02*
X0032471Y0216966D01*
X0090783Y0158454D02*
X0092817Y0158454D01*
X0091807Y0156856D02*
X0091793Y0156856D01*
D19*
X0146800Y0054300D03*
X0201800Y0106800D03*
X0231800Y0036800D03*
D20*
X0201800Y0131800D03*
X0141800Y0166800D03*
X0126800Y0146800D03*
X0211800Y0216800D03*
X0171800Y0226800D03*
X0011800Y0166800D03*
X0011800Y0021800D03*
D21*
X0211800Y0179300D03*
D22*
X0156800Y0126800D02*
X0156800Y0116800D01*
X0189300Y0084300D01*
X0189300Y0026800D01*
X0194300Y0021800D01*
X0184300Y0021800D02*
X0179300Y0026800D01*
X0179300Y0089300D01*
X0141800Y0126800D01*
X0141800Y0141800D02*
X0156800Y0126800D01*
X0141800Y0141800D02*
X0141800Y0146800D01*
X0126800Y0071800D02*
X0139300Y0059300D01*
X0139300Y0026800D01*
X0144300Y0021800D01*
X0149300Y0026800D02*
X0149300Y0051800D01*
X0146800Y0054300D01*
X0129300Y0054300D02*
X0129300Y0026800D01*
X0124300Y0021800D01*
X0149300Y0026800D02*
X0154300Y0021800D01*
X0169300Y0026800D02*
X0174300Y0021800D01*
X0169300Y0026800D02*
X0169300Y0059300D01*
X0156800Y0071800D01*
X0129300Y0054300D02*
X0116800Y0066800D01*
X0116800Y0071800D01*
M02*
