%
M48
M72
T01C0.02756
T02C0.03150
T03C0.03543
T04C0.03600
T05C0.03937
T06C0.04000
T07C0.07480
T08C0.11024
T09C0.12800
%
T01
X146800Y54300
X201800Y106800
X231800Y36800
X211800Y179300
T02
X11800Y21800
X126800Y146800
X141800Y166800
X201800Y131800
X211800Y216800
X171800Y226800
X11800Y166800
T03
X54300Y176800
X64300Y176800
X74300Y176800
X84300Y176800
X79300Y186800
X69300Y186800
X59300Y186800
X89300Y186800
T04
X96800Y81800
X96800Y71800
X106800Y71800
X106800Y81800
X116800Y81800
X116800Y71800
X126800Y71800
X136800Y71800
X136800Y81800
X126800Y81800
X146800Y81800
X146800Y71800
X156800Y71800
X156800Y81800
X166800Y81800
X166800Y71800
T05
X164300Y31800
X154300Y31800
X144300Y31800
X134300Y31800
X124300Y31800
X114300Y31800
X104300Y31800
X94300Y31800
X84300Y31800
X74300Y31800
X64300Y31800
X54300Y31800
X44300Y31800
X34300Y31800
X34300Y21800
X44300Y21800
X54300Y21800
X64300Y21800
X74300Y21800
X84300Y21800
X94300Y21800
X104300Y21800
X114300Y21800
X124300Y21800
X134300Y21800
X144300Y21800
X154300Y21800
X164300Y21800
X174300Y21800
X184300Y21800
X194300Y21800
X204300Y21800
X214300Y21800
X224300Y21800
X224300Y31800
X214300Y31800
X204300Y31800
X194300Y31800
X184300Y31800
X174300Y31800
T06
X221800Y71800
X231800Y71800
X241800Y71800
X241800Y91800
X231800Y91800
X221800Y91800
X221800Y111800
X231800Y111800
X241800Y111800
X241800Y131800
X231800Y131800
X221800Y131800
X221800Y151800
X231800Y151800
X241800Y151800
X241800Y171800
X231800Y171800
X221800Y171800
X221800Y191800
X231800Y191800
X241800Y191800
X181800Y186800
X181800Y196800
X181800Y206800
X181800Y216800
X156800Y211800
X156800Y201800
X156800Y191800
X156800Y181800
X146800Y181800
X146800Y191800
X146800Y201800
X146800Y211800
X146800Y221800
X156800Y221800
X131800Y221800
X121800Y221800
X121800Y211800
X131800Y211800
X131800Y201800
X121800Y201800
X121800Y191800
X131800Y191800
X131800Y181800
X121800Y181800
X96800Y151800
X86800Y151800
X76800Y151800
X66800Y151800
X56800Y151800
X46800Y151800
X36800Y151800
X26800Y151800
X26800Y136800
X36800Y136800
X46800Y136800
X56800Y136800
X66800Y136800
X76800Y136800
X86800Y136800
X96800Y136800
X141800Y126800
X141800Y146800
X171800Y146800
X171800Y126800
X116800Y51800
X106800Y51800
X96800Y51800
T07
X103800Y177312
X106300Y223800
X39800Y177312
X37300Y223800
T08
X16800Y221800
X241800Y221800
T09
X94300Y211800
X49300Y211800
M30
