G75*
%MOIN*%
%OFA0B0*%
%FSLAX25Y25*%
%IPPOS*%
%LPD*%
%AMOC8*
5,1,8,0,0,1.08239X$1,22.5*
%
%ADD10C,0.00000*%
%ADD11C,0.01000*%
%ADD12OC8,0.05200*%
%ADD13C,0.06300*%
%ADD14OC8,0.06300*%
%ADD15C,0.05600*%
%ADD16OC8,0.05600*%
%ADD17C,0.05200*%
%ADD18C,0.06000*%
%ADD19C,0.01040*%
%ADD20C,0.09449*%
%ADD21C,0.07600*%
%ADD22C,0.07000*%
%ADD23R,0.05906X0.01969*%
%ADD24R,0.01969X0.05906*%
%ADD25C,0.00600*%
%ADD26R,0.04724X0.07087*%
%ADD27C,0.00400*%
%ADD28OC8,0.06600*%
%ADD29R,0.07087X0.04724*%
%ADD30C,0.01969*%
%ADD31C,0.01600*%
%ADD32C,0.03200*%
%ADD33C,0.03562*%
%ADD34C,0.04000*%
%ADD35C,0.02400*%
D10*
X0248233Y0001984D02*
X0262233Y0002284D01*
D11*
X0003233Y0001984D02*
X0002133Y0288384D01*
X0262133Y0288384D01*
X0262233Y0002284D01*
X0003233Y0001984D01*
D12*
X0073233Y0021984D03*
X0083233Y0021984D03*
X0098233Y0051984D03*
X0108233Y0051984D03*
X0113233Y0066984D03*
X0123233Y0066984D03*
X0123233Y0261984D03*
X0113233Y0261984D03*
X0103233Y0261984D03*
X0093233Y0261984D03*
D13*
X0093233Y0071984D03*
X0083233Y0056984D03*
D14*
X0073233Y0056984D03*
X0103233Y0071984D03*
D15*
X0033233Y0171984D03*
D16*
X0023233Y0171984D03*
X0023233Y0161984D03*
X0023233Y0151984D03*
X0023233Y0141984D03*
X0023233Y0131984D03*
X0033233Y0131984D03*
X0033233Y0141984D03*
X0033233Y0151984D03*
X0033233Y0161984D03*
D17*
X0188233Y0249384D02*
X0188233Y0254584D01*
X0198233Y0254584D02*
X0198233Y0249384D01*
X0208233Y0249384D02*
X0208233Y0254584D01*
X0218233Y0254584D02*
X0218233Y0249384D01*
X0228233Y0249384D02*
X0228233Y0254584D01*
X0238233Y0254584D02*
X0238233Y0249384D01*
D18*
X0113233Y0224984D02*
X0113233Y0218984D01*
X0103233Y0218984D02*
X0103233Y0224984D01*
X0093233Y0224984D02*
X0093233Y0218984D01*
X0031233Y0111984D02*
X0025233Y0111984D01*
X0025233Y0101984D02*
X0031233Y0101984D01*
X0031233Y0091984D02*
X0025233Y0091984D01*
X0098233Y0034984D02*
X0098233Y0028984D01*
X0108233Y0028984D02*
X0108233Y0034984D01*
X0118233Y0034984D02*
X0118233Y0028984D01*
D19*
X0172728Y0146673D02*
X0172208Y0147193D01*
X0173930Y0147193D01*
X0175148Y0145975D01*
X0175148Y0144253D01*
X0173930Y0143035D01*
X0172208Y0143035D01*
X0170990Y0144253D01*
X0170990Y0145975D01*
X0172208Y0147193D01*
X0172531Y0146413D01*
X0173607Y0146413D01*
X0174368Y0145652D01*
X0174368Y0144576D01*
X0173607Y0143815D01*
X0172531Y0143815D01*
X0171770Y0144576D01*
X0171770Y0145652D01*
X0172531Y0146413D01*
X0172854Y0145633D01*
X0173284Y0145633D01*
X0173588Y0145329D01*
X0173588Y0144899D01*
X0173284Y0144595D01*
X0172854Y0144595D01*
X0172550Y0144899D01*
X0172550Y0145329D01*
X0172854Y0145633D01*
X0165657Y0153744D02*
X0165137Y0154264D01*
X0166859Y0154264D01*
X0168077Y0153046D01*
X0168077Y0151324D01*
X0166859Y0150106D01*
X0165137Y0150106D01*
X0163919Y0151324D01*
X0163919Y0153046D01*
X0165137Y0154264D01*
X0165460Y0153484D01*
X0166536Y0153484D01*
X0167297Y0152723D01*
X0167297Y0151647D01*
X0166536Y0150886D01*
X0165460Y0150886D01*
X0164699Y0151647D01*
X0164699Y0152723D01*
X0165460Y0153484D01*
X0165783Y0152704D01*
X0166213Y0152704D01*
X0166517Y0152400D01*
X0166517Y0151970D01*
X0166213Y0151666D01*
X0165783Y0151666D01*
X0165479Y0151970D01*
X0165479Y0152400D01*
X0165783Y0152704D01*
D20*
X0065633Y0041209D02*
X0065633Y0031760D01*
X0058921Y0018709D02*
X0049472Y0018709D01*
X0038055Y0031976D02*
X0038055Y0041425D01*
D21*
X0033233Y0201984D03*
X0023233Y0201984D03*
X0023233Y0211984D03*
X0023233Y0221984D03*
X0023233Y0231984D03*
X0023233Y0241984D03*
X0033233Y0241984D03*
X0033233Y0231984D03*
X0033233Y0221984D03*
X0033233Y0211984D03*
D22*
X0095202Y0241083D02*
X0095202Y0248083D01*
X0115202Y0248083D02*
X0115202Y0241083D01*
X0125202Y0241083D02*
X0125202Y0248083D01*
X0135202Y0248083D02*
X0135202Y0241083D01*
D23*
G36*
X0143350Y0210119D02*
X0139175Y0214294D01*
X0140566Y0215685D01*
X0144741Y0211510D01*
X0143350Y0210119D01*
G37*
G36*
X0141123Y0207892D02*
X0136948Y0212067D01*
X0138339Y0213458D01*
X0142514Y0209283D01*
X0141123Y0207892D01*
G37*
G36*
X0138896Y0205665D02*
X0134721Y0209840D01*
X0136112Y0211231D01*
X0140287Y0207056D01*
X0138896Y0205665D01*
G37*
G36*
X0136669Y0203438D02*
X0132494Y0207613D01*
X0133885Y0209004D01*
X0138060Y0204829D01*
X0136669Y0203438D01*
G37*
G36*
X0134441Y0201210D02*
X0130266Y0205385D01*
X0131657Y0206776D01*
X0135832Y0202601D01*
X0134441Y0201210D01*
G37*
G36*
X0132214Y0198983D02*
X0128039Y0203158D01*
X0129430Y0204549D01*
X0133605Y0200374D01*
X0132214Y0198983D01*
G37*
G36*
X0129987Y0196756D02*
X0125812Y0200931D01*
X0127203Y0202322D01*
X0131378Y0198147D01*
X0129987Y0196756D01*
G37*
G36*
X0127760Y0194529D02*
X0123585Y0198704D01*
X0124976Y0200095D01*
X0129151Y0195920D01*
X0127760Y0194529D01*
G37*
G36*
X0125533Y0192302D02*
X0121358Y0196477D01*
X0122749Y0197868D01*
X0126924Y0193693D01*
X0125533Y0192302D01*
G37*
G36*
X0123306Y0190075D02*
X0119131Y0194250D01*
X0120522Y0195641D01*
X0124697Y0191466D01*
X0123306Y0190075D01*
G37*
G36*
X0121079Y0187848D02*
X0116904Y0192023D01*
X0118295Y0193414D01*
X0122470Y0189239D01*
X0121079Y0187848D01*
G37*
G36*
X0153372Y0155555D02*
X0149197Y0159730D01*
X0150588Y0161121D01*
X0154763Y0156946D01*
X0153372Y0155555D01*
G37*
G36*
X0155599Y0157782D02*
X0151424Y0161957D01*
X0152815Y0163348D01*
X0156990Y0159173D01*
X0155599Y0157782D01*
G37*
G36*
X0157826Y0160009D02*
X0153651Y0164184D01*
X0155042Y0165575D01*
X0159217Y0161400D01*
X0157826Y0160009D01*
G37*
G36*
X0160053Y0162236D02*
X0155878Y0166411D01*
X0157269Y0167802D01*
X0161444Y0163627D01*
X0160053Y0162236D01*
G37*
G36*
X0162280Y0164463D02*
X0158105Y0168638D01*
X0159496Y0170029D01*
X0163671Y0165854D01*
X0162280Y0164463D01*
G37*
G36*
X0164507Y0166690D02*
X0160332Y0170865D01*
X0161723Y0172256D01*
X0165898Y0168081D01*
X0164507Y0166690D01*
G37*
G36*
X0166735Y0168917D02*
X0162560Y0173092D01*
X0163951Y0174483D01*
X0168126Y0170308D01*
X0166735Y0168917D01*
G37*
G36*
X0168962Y0171144D02*
X0164787Y0175319D01*
X0166178Y0176710D01*
X0170353Y0172535D01*
X0168962Y0171144D01*
G37*
G36*
X0171189Y0173372D02*
X0167014Y0177547D01*
X0168405Y0178938D01*
X0172580Y0174763D01*
X0171189Y0173372D01*
G37*
G36*
X0173416Y0175599D02*
X0169241Y0179774D01*
X0170632Y0181165D01*
X0174807Y0176990D01*
X0173416Y0175599D01*
G37*
G36*
X0175643Y0177826D02*
X0171468Y0182001D01*
X0172859Y0183392D01*
X0177034Y0179217D01*
X0175643Y0177826D01*
G37*
D24*
G36*
X0172859Y0187848D02*
X0171468Y0189239D01*
X0175643Y0193414D01*
X0177034Y0192023D01*
X0172859Y0187848D01*
G37*
G36*
X0170632Y0190075D02*
X0169241Y0191466D01*
X0173416Y0195641D01*
X0174807Y0194250D01*
X0170632Y0190075D01*
G37*
G36*
X0168405Y0192302D02*
X0167014Y0193693D01*
X0171189Y0197868D01*
X0172580Y0196477D01*
X0168405Y0192302D01*
G37*
G36*
X0166178Y0194529D02*
X0164787Y0195920D01*
X0168962Y0200095D01*
X0170353Y0198704D01*
X0166178Y0194529D01*
G37*
G36*
X0163951Y0196756D02*
X0162560Y0198147D01*
X0166735Y0202322D01*
X0168126Y0200931D01*
X0163951Y0196756D01*
G37*
G36*
X0161723Y0198983D02*
X0160332Y0200374D01*
X0164507Y0204549D01*
X0165898Y0203158D01*
X0161723Y0198983D01*
G37*
G36*
X0159496Y0201210D02*
X0158105Y0202601D01*
X0162280Y0206776D01*
X0163671Y0205385D01*
X0159496Y0201210D01*
G37*
G36*
X0157269Y0203438D02*
X0155878Y0204829D01*
X0160053Y0209004D01*
X0161444Y0207613D01*
X0157269Y0203438D01*
G37*
G36*
X0155042Y0205665D02*
X0153651Y0207056D01*
X0157826Y0211231D01*
X0159217Y0209840D01*
X0155042Y0205665D01*
G37*
G36*
X0152815Y0207892D02*
X0151424Y0209283D01*
X0155599Y0213458D01*
X0156990Y0212067D01*
X0152815Y0207892D01*
G37*
G36*
X0150588Y0210119D02*
X0149197Y0211510D01*
X0153372Y0215685D01*
X0154763Y0214294D01*
X0150588Y0210119D01*
G37*
G36*
X0118295Y0177826D02*
X0116904Y0179217D01*
X0121079Y0183392D01*
X0122470Y0182001D01*
X0118295Y0177826D01*
G37*
G36*
X0120522Y0175599D02*
X0119131Y0176990D01*
X0123306Y0181165D01*
X0124697Y0179774D01*
X0120522Y0175599D01*
G37*
G36*
X0122749Y0173372D02*
X0121358Y0174763D01*
X0125533Y0178938D01*
X0126924Y0177547D01*
X0122749Y0173372D01*
G37*
G36*
X0124976Y0171144D02*
X0123585Y0172535D01*
X0127760Y0176710D01*
X0129151Y0175319D01*
X0124976Y0171144D01*
G37*
G36*
X0127203Y0168917D02*
X0125812Y0170308D01*
X0129987Y0174483D01*
X0131378Y0173092D01*
X0127203Y0168917D01*
G37*
G36*
X0129430Y0166690D02*
X0128039Y0168081D01*
X0132214Y0172256D01*
X0133605Y0170865D01*
X0129430Y0166690D01*
G37*
G36*
X0131657Y0164463D02*
X0130266Y0165854D01*
X0134441Y0170029D01*
X0135832Y0168638D01*
X0131657Y0164463D01*
G37*
G36*
X0133885Y0162236D02*
X0132494Y0163627D01*
X0136669Y0167802D01*
X0138060Y0166411D01*
X0133885Y0162236D01*
G37*
G36*
X0136112Y0160009D02*
X0134721Y0161400D01*
X0138896Y0165575D01*
X0140287Y0164184D01*
X0136112Y0160009D01*
G37*
G36*
X0138339Y0157782D02*
X0136948Y0159173D01*
X0141123Y0163348D01*
X0142514Y0161957D01*
X0138339Y0157782D01*
G37*
G36*
X0140566Y0155555D02*
X0139175Y0156946D01*
X0143350Y0161121D01*
X0144741Y0159730D01*
X0140566Y0155555D01*
G37*
D25*
X0128650Y0164631D02*
X0127140Y0166141D01*
X0127895Y0165386D02*
X0123366Y0160857D01*
X0124121Y0160102D02*
X0122611Y0161611D01*
X0121837Y0163895D02*
X0120328Y0163895D01*
X0118818Y0165405D01*
X0118818Y0166915D01*
X0117280Y0168453D02*
X0115770Y0168453D01*
X0114260Y0169962D01*
X0114260Y0171472D01*
X0115015Y0172227D01*
X0116525Y0172227D01*
X0117280Y0171472D01*
X0116525Y0172227D02*
X0116525Y0173737D01*
X0117280Y0174492D01*
X0118789Y0174492D01*
X0120299Y0172982D01*
X0120299Y0171472D01*
X0121837Y0169934D02*
X0123347Y0169934D01*
X0124857Y0168424D01*
X0124857Y0166915D01*
X0121837Y0163895D01*
X0164671Y0207188D02*
X0167691Y0204169D01*
X0167691Y0210208D01*
X0168446Y0210963D01*
X0169956Y0210963D01*
X0171465Y0209453D01*
X0171465Y0207943D01*
X0173004Y0206405D02*
X0172249Y0205650D01*
X0172249Y0204141D01*
X0170739Y0204141D01*
X0169984Y0203386D01*
X0169984Y0201876D01*
X0171494Y0200366D01*
X0173004Y0200366D01*
X0173787Y0198073D02*
X0176806Y0201093D01*
X0179826Y0201093D01*
X0179826Y0198073D01*
X0176806Y0195054D01*
X0179099Y0194270D02*
X0179099Y0192761D01*
X0180609Y0191251D01*
X0182119Y0191251D01*
X0185138Y0194270D01*
X0185138Y0195780D01*
X0183629Y0197290D01*
X0182119Y0197290D01*
X0180609Y0195780D02*
X0179099Y0194270D01*
X0180609Y0195780D02*
X0182119Y0194270D01*
X0179071Y0197318D02*
X0176051Y0200338D01*
X0176023Y0203386D02*
X0176023Y0204895D01*
X0174513Y0206405D01*
X0173004Y0206405D01*
X0172249Y0204141D02*
X0173004Y0203386D01*
X0165398Y0210991D02*
X0162378Y0214011D01*
X0160840Y0215549D02*
X0157821Y0218568D01*
X0158576Y0219323D02*
X0155556Y0216304D01*
X0158576Y0219323D02*
X0161595Y0219323D01*
X0161595Y0216304D01*
X0158576Y0213284D01*
X0182902Y0188958D02*
X0185922Y0185938D01*
X0190451Y0190468D01*
X0187431Y0193487D01*
X0186677Y0189713D02*
X0188186Y0188203D01*
X0191989Y0188929D02*
X0187460Y0184400D01*
X0190479Y0181381D02*
X0195009Y0185910D01*
X0191989Y0185910D01*
X0191989Y0188929D01*
D26*
X0128233Y0137886D03*
X0128233Y0126083D03*
X0078233Y0236083D03*
X0078233Y0247886D03*
X0208233Y0266083D03*
X0218233Y0266083D03*
X0218233Y0277886D03*
X0208233Y0277886D03*
D27*
X0201837Y0277861D02*
X0201837Y0274792D01*
X0201837Y0273257D02*
X0198768Y0270188D01*
X0199535Y0270955D02*
X0197233Y0273257D01*
X0197233Y0274792D02*
X0198001Y0274792D01*
X0201070Y0277861D01*
X0201837Y0277861D01*
X0201837Y0270188D02*
X0197233Y0270188D01*
X0195537Y0268786D02*
X0194770Y0269554D01*
X0193235Y0269554D01*
X0192468Y0268786D01*
X0192468Y0266484D01*
X0190933Y0266484D02*
X0195537Y0266484D01*
X0195537Y0268786D01*
X0197233Y0267886D02*
X0201837Y0267886D01*
X0199535Y0265584D01*
X0199535Y0268654D01*
X0195537Y0271855D02*
X0195537Y0273390D01*
X0194770Y0274157D01*
X0194003Y0274157D01*
X0193235Y0273390D01*
X0192468Y0274157D01*
X0191701Y0274157D01*
X0190933Y0273390D01*
X0190933Y0271855D01*
X0191701Y0271088D01*
X0190933Y0269554D02*
X0192468Y0268019D01*
X0194770Y0271088D02*
X0195537Y0271855D01*
X0193235Y0272623D02*
X0193235Y0273390D01*
X0223233Y0271888D02*
X0227837Y0271888D01*
X0229833Y0272754D02*
X0231368Y0271219D01*
X0231368Y0271986D02*
X0231368Y0269684D01*
X0229833Y0269684D02*
X0234437Y0269684D01*
X0234437Y0271986D01*
X0233670Y0272754D01*
X0232135Y0272754D01*
X0231368Y0271986D01*
X0232903Y0274288D02*
X0234437Y0275823D01*
X0229833Y0275823D01*
X0229833Y0277357D02*
X0229833Y0274288D01*
X0227837Y0274957D02*
X0224768Y0271888D01*
X0225535Y0272655D02*
X0223233Y0274957D01*
X0223233Y0276492D02*
X0224001Y0276492D01*
X0227070Y0279561D01*
X0227837Y0279561D01*
X0227837Y0276492D01*
X0225535Y0270354D02*
X0225535Y0267284D01*
X0227837Y0269586D01*
X0223233Y0269586D01*
X0122270Y0141565D02*
X0120735Y0141565D01*
X0119968Y0140798D01*
X0119968Y0138496D01*
X0119968Y0140031D02*
X0118433Y0141565D01*
X0118433Y0138496D02*
X0123037Y0138496D01*
X0123037Y0140798D01*
X0122270Y0141565D01*
X0122270Y0136961D02*
X0119201Y0133892D01*
X0118433Y0134659D01*
X0118433Y0136194D01*
X0119201Y0136961D01*
X0122270Y0136961D01*
X0123037Y0136194D01*
X0123037Y0134659D01*
X0122270Y0133892D01*
X0119201Y0133892D01*
X0119201Y0132357D02*
X0118433Y0131590D01*
X0118433Y0130055D01*
X0119201Y0129288D01*
X0122270Y0132357D01*
X0119201Y0132357D01*
X0119201Y0129288D02*
X0122270Y0129288D01*
X0123037Y0130055D01*
X0123037Y0131590D01*
X0122270Y0132357D01*
X0122270Y0127754D02*
X0121503Y0127754D01*
X0120735Y0126986D01*
X0119968Y0127754D01*
X0119201Y0127754D01*
X0118433Y0126986D01*
X0118433Y0125452D01*
X0119201Y0124684D01*
X0120735Y0126219D02*
X0120735Y0126986D01*
X0122270Y0127754D02*
X0123037Y0126986D01*
X0123037Y0125452D01*
X0122270Y0124684D01*
X0133433Y0124684D02*
X0138037Y0124684D01*
X0138037Y0126986D01*
X0137270Y0127754D01*
X0135735Y0127754D01*
X0134968Y0126986D01*
X0134968Y0124684D01*
X0134968Y0126219D02*
X0133433Y0127754D01*
X0134201Y0129288D02*
X0134968Y0129288D01*
X0135735Y0130055D01*
X0135735Y0131590D01*
X0134968Y0132357D01*
X0134201Y0132357D01*
X0133433Y0131590D01*
X0133433Y0130055D01*
X0134201Y0129288D01*
X0135735Y0130055D02*
X0136503Y0129288D01*
X0137270Y0129288D01*
X0138037Y0130055D01*
X0138037Y0131590D01*
X0137270Y0132357D01*
X0136503Y0132357D01*
X0135735Y0131590D01*
X0058949Y0076021D02*
X0058182Y0076788D01*
X0056647Y0076788D01*
X0055880Y0076021D01*
X0055880Y0075254D01*
X0058949Y0072184D01*
X0055880Y0072184D01*
X0054345Y0072952D02*
X0054345Y0073719D01*
X0053578Y0074486D01*
X0052043Y0074486D01*
X0051276Y0073719D01*
X0051276Y0072952D01*
X0052043Y0072184D01*
X0053578Y0072184D01*
X0054345Y0072952D01*
X0053578Y0074486D02*
X0054345Y0075254D01*
X0054345Y0076021D01*
X0053578Y0076788D01*
X0052043Y0076788D01*
X0051276Y0076021D01*
X0051276Y0075254D01*
X0052043Y0074486D01*
X0049741Y0072952D02*
X0048974Y0072184D01*
X0047439Y0072184D01*
X0046672Y0072952D01*
X0046672Y0076021D01*
X0049741Y0072952D01*
X0049741Y0076021D01*
X0048974Y0076788D01*
X0047439Y0076788D01*
X0046672Y0076021D01*
X0045137Y0076788D02*
X0042835Y0076788D01*
X0042068Y0076021D01*
X0042068Y0074486D01*
X0042835Y0073719D01*
X0045137Y0073719D01*
X0043603Y0073719D02*
X0042068Y0072184D01*
X0045137Y0072184D02*
X0045137Y0076788D01*
X0045137Y0061788D02*
X0042068Y0061788D01*
X0042068Y0061021D01*
X0045137Y0057952D01*
X0045137Y0057184D01*
X0046672Y0057184D02*
X0048207Y0058719D01*
X0047439Y0058719D02*
X0049741Y0058719D01*
X0049741Y0057184D02*
X0049741Y0061788D01*
X0047439Y0061788D01*
X0046672Y0061021D01*
X0046672Y0059486D01*
X0047439Y0058719D01*
X0083433Y0235872D02*
X0083433Y0238942D01*
X0083433Y0237407D02*
X0088037Y0237407D01*
X0086503Y0235872D01*
X0087270Y0240476D02*
X0084201Y0240476D01*
X0087270Y0243546D01*
X0084201Y0243546D01*
X0083433Y0242778D01*
X0083433Y0241244D01*
X0084201Y0240476D01*
X0087270Y0240476D02*
X0088037Y0241244D01*
X0088037Y0242778D01*
X0087270Y0243546D01*
X0088037Y0245080D02*
X0083433Y0245080D01*
X0084968Y0245080D02*
X0088037Y0248150D01*
X0085735Y0245848D02*
X0083433Y0248150D01*
X0073037Y0248150D02*
X0072270Y0246615D01*
X0070735Y0245080D01*
X0070735Y0247382D01*
X0069968Y0248150D01*
X0069201Y0248150D01*
X0068433Y0247382D01*
X0068433Y0245848D01*
X0069201Y0245080D01*
X0070735Y0245080D01*
X0070735Y0243546D02*
X0069968Y0242778D01*
X0069968Y0240476D01*
X0068433Y0240476D02*
X0073037Y0240476D01*
X0073037Y0242778D01*
X0072270Y0243546D01*
X0070735Y0243546D01*
X0069968Y0242011D02*
X0068433Y0243546D01*
D28*
X0023233Y0076984D03*
X0023233Y0066984D03*
X0143233Y0026984D03*
X0153233Y0026984D03*
D29*
X0054135Y0066984D03*
X0042332Y0066984D03*
D30*
X0046548Y0061238D02*
X0038115Y0061238D01*
X0036871Y0061753D01*
X0036624Y0062000D01*
X0027702Y0062000D01*
X0026002Y0060300D01*
X0020465Y0060300D01*
X0016549Y0064216D01*
X0016549Y0069753D01*
X0019770Y0072974D01*
X0017949Y0074795D01*
X0017949Y0076984D01*
X0023233Y0076984D01*
X0023233Y0076984D01*
X0017949Y0076984D01*
X0017949Y0079173D01*
X0021045Y0082268D01*
X0023233Y0082268D01*
X0023233Y0076984D01*
X0023233Y0076984D01*
X0023233Y0076984D01*
X0028518Y0076984D01*
X0028518Y0074795D01*
X0026696Y0072974D01*
X0027702Y0071968D01*
X0036624Y0071968D01*
X0036871Y0072215D01*
X0038115Y0072731D01*
X0046548Y0072731D01*
X0047792Y0072215D01*
X0048233Y0071774D01*
X0048675Y0072215D01*
X0049918Y0072731D01*
X0058351Y0072731D01*
X0059595Y0072215D01*
X0059842Y0071968D01*
X0061169Y0071968D01*
X0073685Y0084484D01*
X0070745Y0087424D01*
X0070307Y0087605D01*
X0068854Y0089058D01*
X0068068Y0090957D01*
X0068068Y0093012D01*
X0068854Y0094910D01*
X0070307Y0096363D01*
X0072206Y0097150D01*
X0074261Y0097150D01*
X0076159Y0096363D01*
X0077612Y0094910D01*
X0077793Y0094473D01*
X0087459Y0084808D01*
X0087459Y0084808D01*
X0093748Y0078518D01*
X0094533Y0078518D01*
X0096935Y0077524D01*
X0098773Y0075686D01*
X0099037Y0075048D01*
X0101107Y0077118D01*
X0103233Y0077118D01*
X0103233Y0071984D01*
X0103233Y0071984D01*
X0103233Y0077118D01*
X0105360Y0077118D01*
X0108249Y0074229D01*
X0108249Y0137976D01*
X0109008Y0139808D01*
X0123249Y0154049D01*
X0123249Y0160437D01*
X0116249Y0153437D01*
X0114711Y0152800D01*
X0094966Y0152800D01*
X0070604Y0128437D01*
X0069066Y0127800D01*
X0037795Y0127800D01*
X0035795Y0125800D01*
X0030672Y0125800D01*
X0027243Y0129228D01*
X0025215Y0127200D01*
X0023233Y0127200D01*
X0023233Y0131984D01*
X0018449Y0131984D01*
X0018449Y0130003D01*
X0021252Y0127200D01*
X0023233Y0127200D01*
X0023233Y0131984D01*
X0023233Y0131984D01*
X0023233Y0131984D01*
X0018449Y0131984D01*
X0018449Y0133966D01*
X0021252Y0136768D01*
X0023233Y0136768D01*
X0023233Y0131984D01*
X0023233Y0131984D01*
X0023233Y0136768D01*
X0025215Y0136768D01*
X0027243Y0134740D01*
X0029487Y0136984D01*
X0027243Y0139228D01*
X0025215Y0137200D01*
X0023233Y0137200D01*
X0023233Y0141984D01*
X0018449Y0141984D01*
X0018449Y0140003D01*
X0021252Y0137200D01*
X0023233Y0137200D01*
X0023233Y0141984D01*
X0023233Y0141984D01*
X0023233Y0141984D01*
X0018449Y0141984D01*
X0018449Y0143966D01*
X0021252Y0146768D01*
X0023233Y0146768D01*
X0023233Y0141984D01*
X0023233Y0141984D01*
X0023233Y0146768D01*
X0025215Y0146768D01*
X0027243Y0144740D01*
X0029487Y0146984D01*
X0027243Y0149228D01*
X0025215Y0147200D01*
X0023233Y0147200D01*
X0023233Y0151984D01*
X0018449Y0151984D01*
X0018449Y0150003D01*
X0021252Y0147200D01*
X0023233Y0147200D01*
X0023233Y0151984D01*
X0023233Y0151984D01*
X0023233Y0151984D01*
X0018449Y0151984D01*
X0018449Y0153966D01*
X0021252Y0156768D01*
X0023233Y0156768D01*
X0023233Y0151984D01*
X0023233Y0151984D01*
X0023233Y0156768D01*
X0025215Y0156768D01*
X0027243Y0154740D01*
X0029487Y0156984D01*
X0027243Y0159228D01*
X0025215Y0157200D01*
X0023233Y0157200D01*
X0023233Y0161984D01*
X0018449Y0161984D01*
X0018449Y0160003D01*
X0021252Y0157200D01*
X0023233Y0157200D01*
X0023233Y0161984D01*
X0023233Y0161984D01*
X0023233Y0161984D01*
X0018449Y0161984D01*
X0018449Y0163966D01*
X0021252Y0166768D01*
X0023233Y0166768D01*
X0023233Y0161984D01*
X0023233Y0161984D01*
X0023233Y0166768D01*
X0025215Y0166768D01*
X0027243Y0164740D01*
X0029487Y0166984D01*
X0027991Y0168481D01*
X0027553Y0169538D01*
X0025215Y0167200D01*
X0023233Y0167200D01*
X0023233Y0171984D01*
X0018449Y0171984D01*
X0018449Y0170003D01*
X0021252Y0167200D01*
X0023233Y0167200D01*
X0023233Y0171984D01*
X0023233Y0171984D01*
X0023233Y0171984D01*
X0018449Y0171984D01*
X0018449Y0173966D01*
X0021252Y0176768D01*
X0023233Y0176768D01*
X0023233Y0171984D01*
X0023233Y0171984D01*
X0023233Y0176768D01*
X0025215Y0176768D01*
X0027553Y0174431D01*
X0027991Y0175487D01*
X0029730Y0177227D01*
X0032003Y0178168D01*
X0034463Y0178168D01*
X0036736Y0177227D01*
X0037795Y0176168D01*
X0066500Y0176168D01*
X0069686Y0179354D01*
X0069686Y0179354D01*
X0070863Y0180531D01*
X0072401Y0181168D01*
X0114069Y0181168D01*
X0118520Y0185620D01*
X0114553Y0189587D01*
X0113404Y0188437D01*
X0111866Y0187800D01*
X0042401Y0187800D01*
X0040863Y0188437D01*
X0039686Y0189614D01*
X0034500Y0194800D01*
X0031804Y0194800D01*
X0029164Y0195894D01*
X0028233Y0196824D01*
X0027303Y0195894D01*
X0024662Y0194800D01*
X0023098Y0194800D01*
X0018218Y0189920D01*
X0018218Y0099049D01*
X0020298Y0096968D01*
X0021189Y0096968D01*
X0021205Y0096984D01*
X0019821Y0098368D01*
X0018849Y0100714D01*
X0018849Y0103254D01*
X0019821Y0105601D01*
X0021205Y0106984D01*
X0019821Y0108368D01*
X0018849Y0110714D01*
X0018849Y0113254D01*
X0019821Y0115601D01*
X0021617Y0117397D01*
X0023963Y0118368D01*
X0032503Y0118368D01*
X0034850Y0117397D01*
X0036646Y0115601D01*
X0037618Y0113254D01*
X0037618Y0110714D01*
X0036646Y0108368D01*
X0035262Y0106984D01*
X0036646Y0105601D01*
X0037618Y0103254D01*
X0037618Y0100714D01*
X0036646Y0098368D01*
X0035262Y0096984D01*
X0035278Y0096968D01*
X0041769Y0096968D01*
X0042206Y0097150D01*
X0044261Y0097150D01*
X0046159Y0096363D01*
X0047612Y0094910D01*
X0048399Y0093012D01*
X0048399Y0090957D01*
X0047612Y0089058D01*
X0046159Y0087605D01*
X0044261Y0086819D01*
X0042206Y0086819D01*
X0041769Y0087000D01*
X0035278Y0087000D01*
X0034850Y0086572D01*
X0032503Y0085600D01*
X0023963Y0085600D01*
X0021617Y0086572D01*
X0021189Y0087000D01*
X0017242Y0087000D01*
X0015410Y0087759D01*
X0010410Y0092759D01*
X0009008Y0094161D01*
X0008249Y0095993D01*
X0008249Y0257976D01*
X0009008Y0259808D01*
X0014008Y0264808D01*
X0015410Y0266210D01*
X0017242Y0266968D01*
X0026769Y0266968D01*
X0027206Y0267150D01*
X0029261Y0267150D01*
X0031159Y0266363D01*
X0032612Y0264910D01*
X0033399Y0263012D01*
X0033399Y0260957D01*
X0032612Y0259058D01*
X0031159Y0257605D01*
X0029261Y0256819D01*
X0027206Y0256819D01*
X0026769Y0257000D01*
X0020298Y0257000D01*
X0018218Y0254920D01*
X0018218Y0244881D01*
X0018286Y0245016D01*
X0018821Y0245752D01*
X0019465Y0246396D01*
X0020202Y0246931D01*
X0021013Y0247345D01*
X0021879Y0247626D01*
X0022778Y0247768D01*
X0023233Y0247768D01*
X0023233Y0241984D01*
X0023233Y0241984D01*
X0023233Y0231984D01*
X0023233Y0231984D01*
X0023233Y0236200D01*
X0023233Y0241984D01*
X0023233Y0241984D01*
X0023233Y0247768D01*
X0023689Y0247768D01*
X0024588Y0247626D01*
X0025454Y0247345D01*
X0026265Y0246931D01*
X0027002Y0246396D01*
X0027243Y0246154D01*
X0029164Y0248075D01*
X0031804Y0249168D01*
X0034662Y0249168D01*
X0037303Y0248075D01*
X0039209Y0246168D01*
X0045113Y0246168D01*
X0045307Y0246363D01*
X0047206Y0247150D01*
X0049261Y0247150D01*
X0051159Y0246363D01*
X0052612Y0244910D01*
X0053399Y0243012D01*
X0053399Y0240957D01*
X0052612Y0239058D01*
X0051159Y0237605D01*
X0049261Y0236819D01*
X0047206Y0236819D01*
X0045307Y0237605D01*
X0045113Y0237800D01*
X0039209Y0237800D01*
X0038393Y0236984D01*
X0039209Y0236168D01*
X0059066Y0236168D01*
X0060604Y0235531D01*
X0061781Y0234354D01*
X0071781Y0224354D01*
X0072418Y0222817D01*
X0072418Y0213717D01*
X0080966Y0205168D01*
X0108395Y0205168D01*
X0108068Y0205957D01*
X0108068Y0207800D01*
X0097401Y0207800D01*
X0095863Y0208437D01*
X0091514Y0212786D01*
X0089617Y0213572D01*
X0087821Y0215368D01*
X0086849Y0217714D01*
X0086849Y0226254D01*
X0087821Y0228601D01*
X0089617Y0230397D01*
X0091514Y0231182D01*
X0094530Y0234198D01*
X0093832Y0234198D01*
X0091302Y0235246D01*
X0089366Y0237183D01*
X0088318Y0239713D01*
X0088318Y0244851D01*
X0083980Y0249189D01*
X0083980Y0243669D01*
X0083465Y0242425D01*
X0083023Y0241984D01*
X0083465Y0241543D01*
X0083980Y0240299D01*
X0083980Y0231866D01*
X0083465Y0230622D01*
X0082653Y0229811D01*
X0083399Y0228012D01*
X0083399Y0225957D01*
X0082612Y0224058D01*
X0081159Y0222605D01*
X0079261Y0221819D01*
X0077206Y0221819D01*
X0075307Y0222605D01*
X0073854Y0224058D01*
X0073068Y0225957D01*
X0073068Y0228012D01*
X0073813Y0229811D01*
X0073002Y0230622D01*
X0072487Y0231866D01*
X0072487Y0240299D01*
X0073002Y0241543D01*
X0073443Y0241984D01*
X0073002Y0242425D01*
X0072487Y0243669D01*
X0072487Y0252102D01*
X0073002Y0253346D01*
X0073954Y0254298D01*
X0074049Y0254337D01*
X0074049Y0257000D01*
X0059698Y0257000D01*
X0059261Y0256819D01*
X0057206Y0256819D01*
X0055307Y0257605D01*
X0053854Y0259058D01*
X0053068Y0260957D01*
X0053068Y0263012D01*
X0053854Y0264910D01*
X0055307Y0266363D01*
X0057206Y0267150D01*
X0059261Y0267150D01*
X0059698Y0266968D01*
X0073249Y0266968D01*
X0073249Y0272976D01*
X0074008Y0274808D01*
X0080410Y0281210D01*
X0082242Y0281968D01*
X0091769Y0281968D01*
X0092206Y0282150D01*
X0094261Y0282150D01*
X0096159Y0281363D01*
X0097612Y0279910D01*
X0098399Y0278012D01*
X0098399Y0275957D01*
X0097612Y0274058D01*
X0096159Y0272605D01*
X0094261Y0271819D01*
X0092206Y0271819D01*
X0091769Y0272000D01*
X0085298Y0272000D01*
X0083218Y0269920D01*
X0083218Y0264049D01*
X0092748Y0254518D01*
X0093832Y0254967D01*
X0096571Y0254967D01*
X0099049Y0253941D01*
X0099049Y0257705D01*
X0097249Y0259505D01*
X0097249Y0259517D01*
X0095132Y0257400D01*
X0093233Y0257400D01*
X0093233Y0261984D01*
X0088649Y0261984D01*
X0088649Y0260085D01*
X0091334Y0257400D01*
X0093233Y0257400D01*
X0093233Y0261984D01*
X0093233Y0261984D01*
X0093233Y0261984D01*
X0088649Y0261984D01*
X0088649Y0263883D01*
X0091334Y0266568D01*
X0093233Y0266568D01*
X0093233Y0261984D01*
X0093233Y0261984D01*
X0093233Y0266568D01*
X0095132Y0266568D01*
X0097249Y0264452D01*
X0097249Y0264463D01*
X0100755Y0267968D01*
X0105712Y0267968D01*
X0108233Y0265447D01*
X0110755Y0267968D01*
X0115712Y0267968D01*
X0119218Y0264463D01*
X0119218Y0264452D01*
X0121334Y0266568D01*
X0123233Y0266568D01*
X0123233Y0261984D01*
X0123233Y0261984D01*
X0123233Y0257400D01*
X0121334Y0257400D01*
X0119218Y0259517D01*
X0119218Y0259505D01*
X0115712Y0256000D01*
X0113166Y0256000D01*
X0112418Y0255251D01*
X0112418Y0252819D01*
X0113097Y0253165D01*
X0113918Y0253432D01*
X0114770Y0253567D01*
X0115202Y0253567D01*
X0115202Y0244583D01*
X0115202Y0244583D01*
X0115202Y0253567D01*
X0115633Y0253567D01*
X0116486Y0253432D01*
X0117307Y0253165D01*
X0118076Y0252773D01*
X0118775Y0252266D01*
X0119276Y0251765D01*
X0119366Y0251982D01*
X0121302Y0253919D01*
X0123832Y0254967D01*
X0126571Y0254967D01*
X0129101Y0253919D01*
X0130202Y0252818D01*
X0131302Y0253919D01*
X0133832Y0254967D01*
X0136571Y0254967D01*
X0139101Y0253919D01*
X0141038Y0251982D01*
X0142086Y0249452D01*
X0142086Y0239713D01*
X0141038Y0237183D01*
X0139618Y0235763D01*
X0139618Y0230673D01*
X0140307Y0231363D01*
X0142206Y0232150D01*
X0144261Y0232150D01*
X0146159Y0231363D01*
X0147612Y0229910D01*
X0148399Y0228012D01*
X0148399Y0225957D01*
X0147612Y0224058D01*
X0146159Y0222605D01*
X0144261Y0221819D01*
X0143985Y0221819D01*
X0142602Y0220435D01*
X0142602Y0218436D01*
X0145661Y0215376D01*
X0145661Y0215376D01*
X0146969Y0214069D01*
X0151455Y0218555D01*
X0152699Y0219070D01*
X0154045Y0219070D01*
X0155289Y0218555D01*
X0157516Y0216328D01*
X0159743Y0214101D01*
X0159743Y0214101D01*
X0162087Y0211757D01*
X0162087Y0211757D01*
X0164197Y0209646D01*
X0166424Y0207419D01*
X0166424Y0207419D01*
X0168768Y0205075D01*
X0168882Y0204802D01*
X0203865Y0239785D01*
X0203865Y0245290D01*
X0203233Y0245921D01*
X0202018Y0244706D01*
X0201937Y0244510D01*
X0195708Y0238281D01*
X0194102Y0237616D01*
X0192364Y0237616D01*
X0191920Y0237800D01*
X0181354Y0237800D01*
X0181159Y0237605D01*
X0179261Y0236819D01*
X0177206Y0236819D01*
X0175307Y0237605D01*
X0173854Y0239058D01*
X0173068Y0240957D01*
X0173068Y0243012D01*
X0173854Y0244910D01*
X0175307Y0246363D01*
X0177206Y0247150D01*
X0179261Y0247150D01*
X0181159Y0246363D01*
X0181354Y0246168D01*
X0183088Y0246168D01*
X0182249Y0248194D01*
X0182249Y0255775D01*
X0183160Y0257974D01*
X0184844Y0259657D01*
X0187043Y0260568D01*
X0189424Y0260568D01*
X0191623Y0259657D01*
X0193233Y0258047D01*
X0194844Y0259657D01*
X0197043Y0260568D01*
X0199424Y0260568D01*
X0201623Y0259657D01*
X0203233Y0258047D01*
X0203865Y0258679D01*
X0203865Y0259760D01*
X0203002Y0260622D01*
X0202487Y0261866D01*
X0202487Y0270299D01*
X0203002Y0271543D01*
X0203443Y0271984D01*
X0203428Y0272000D01*
X0184698Y0272000D01*
X0184261Y0271819D01*
X0182206Y0271819D01*
X0180307Y0272605D01*
X0178854Y0274058D01*
X0178068Y0275957D01*
X0178068Y0278012D01*
X0178854Y0279910D01*
X0180307Y0281363D01*
X0182206Y0282150D01*
X0184261Y0282150D01*
X0184698Y0281968D01*
X0202487Y0281968D01*
X0202487Y0282102D01*
X0203002Y0283346D01*
X0203954Y0284298D01*
X0204441Y0284500D01*
X0006033Y0284500D01*
X0007103Y0005873D01*
X0163233Y0006054D01*
X0163233Y0136984D01*
X0258302Y0136984D01*
X0258250Y0284500D01*
X0222025Y0284500D01*
X0222513Y0284298D01*
X0223465Y0283346D01*
X0223980Y0282102D01*
X0223980Y0281968D01*
X0224225Y0281968D01*
X0226057Y0281210D01*
X0231057Y0276210D01*
X0232459Y0274808D01*
X0233218Y0272976D01*
X0233218Y0258063D01*
X0233307Y0257974D01*
X0233984Y0256340D01*
X0233985Y0256344D01*
X0234313Y0256987D01*
X0234737Y0257571D01*
X0235247Y0258081D01*
X0235831Y0258505D01*
X0236474Y0258833D01*
X0237160Y0259056D01*
X0237873Y0259168D01*
X0238233Y0259168D01*
X0238233Y0251984D01*
X0238233Y0251984D01*
X0238233Y0244800D01*
X0237873Y0244800D01*
X0237160Y0244913D01*
X0236474Y0245136D01*
X0235831Y0245463D01*
X0235247Y0245888D01*
X0234737Y0246398D01*
X0234313Y0246982D01*
X0233985Y0247625D01*
X0233984Y0247629D01*
X0233307Y0245994D01*
X0231623Y0244311D01*
X0229424Y0243400D01*
X0227043Y0243400D01*
X0224844Y0244311D01*
X0223233Y0245921D01*
X0222602Y0245290D01*
X0222602Y0242653D01*
X0221937Y0241047D01*
X0177367Y0196477D01*
X0177560Y0196284D01*
X0179904Y0193940D01*
X0180419Y0192696D01*
X0180419Y0191350D01*
X0179904Y0190106D01*
X0175418Y0185620D01*
X0179904Y0181134D01*
X0180419Y0179890D01*
X0180419Y0178544D01*
X0179904Y0177300D01*
X0177677Y0175073D01*
X0175450Y0172846D01*
X0175450Y0172846D01*
X0173106Y0170502D01*
X0173106Y0170502D01*
X0170995Y0168391D01*
X0168651Y0166047D01*
X0168194Y0165858D01*
X0169545Y0164507D01*
X0170182Y0162969D01*
X0170182Y0156464D01*
X0171982Y0154664D01*
X0171982Y0149707D01*
X0171974Y0149699D01*
X0174968Y0149699D01*
X0176310Y0148356D01*
X0173069Y0145115D01*
X0173069Y0145114D01*
X0173069Y0145114D01*
X0176310Y0141873D01*
X0174968Y0140530D01*
X0171170Y0140530D01*
X0169827Y0141873D01*
X0173069Y0145114D01*
X0169827Y0141873D01*
X0168485Y0143216D01*
X0168485Y0146209D01*
X0168477Y0146201D01*
X0163519Y0146201D01*
X0160014Y0149707D01*
X0160014Y0154664D01*
X0161814Y0156464D01*
X0161814Y0159210D01*
X0159743Y0157139D01*
X0159743Y0157139D01*
X0157633Y0155029D01*
X0155289Y0152685D01*
X0154045Y0152170D01*
X0152699Y0152170D01*
X0151455Y0152685D01*
X0146969Y0157171D01*
X0142483Y0152685D01*
X0142038Y0152501D01*
X0133174Y0143637D01*
X0133465Y0143346D01*
X0133980Y0142102D01*
X0133980Y0133669D01*
X0133465Y0132425D01*
X0133023Y0131984D01*
X0133465Y0131543D01*
X0133980Y0130299D01*
X0133980Y0121866D01*
X0133465Y0120622D01*
X0132513Y0119670D01*
X0132418Y0119631D01*
X0132418Y0078717D01*
X0145604Y0065531D01*
X0146781Y0064354D01*
X0147418Y0062817D01*
X0147418Y0032253D01*
X0149223Y0030447D01*
X0151045Y0032268D01*
X0153233Y0032268D01*
X0153233Y0026984D01*
X0153233Y0026984D01*
X0153233Y0021700D01*
X0151045Y0021700D01*
X0149223Y0023521D01*
X0146002Y0020300D01*
X0140465Y0020300D01*
X0136549Y0024216D01*
X0136549Y0029753D01*
X0139049Y0032253D01*
X0139049Y0060251D01*
X0124686Y0074614D01*
X0124049Y0076152D01*
X0124049Y0119631D01*
X0123954Y0119670D01*
X0123002Y0120622D01*
X0122487Y0121866D01*
X0122487Y0130299D01*
X0123002Y0131543D01*
X0123443Y0131984D01*
X0123002Y0132425D01*
X0122487Y0133669D01*
X0122487Y0139189D01*
X0118218Y0134920D01*
X0118218Y0070463D01*
X0119218Y0069463D01*
X0119218Y0069452D01*
X0121334Y0071568D01*
X0123233Y0071568D01*
X0123233Y0066984D01*
X0123233Y0066984D01*
X0123233Y0062400D01*
X0121334Y0062400D01*
X0119218Y0064517D01*
X0119218Y0064505D01*
X0115712Y0061000D01*
X0114298Y0061000D01*
X0111057Y0057759D01*
X0109225Y0057000D01*
X0103218Y0057000D01*
X0103218Y0055463D01*
X0104218Y0054463D01*
X0104218Y0054452D01*
X0106334Y0056568D01*
X0108233Y0056568D01*
X0108233Y0051984D01*
X0108233Y0051984D01*
X0108233Y0047400D01*
X0106334Y0047400D01*
X0104218Y0049517D01*
X0104218Y0049505D01*
X0103618Y0048905D01*
X0103618Y0038629D01*
X0103646Y0038601D01*
X0104028Y0037676D01*
X0104432Y0038231D01*
X0104986Y0038786D01*
X0105621Y0039247D01*
X0106320Y0039603D01*
X0107066Y0039846D01*
X0107841Y0039968D01*
X0108218Y0039968D01*
X0108218Y0032000D01*
X0108249Y0032000D01*
X0108249Y0039968D01*
X0108626Y0039968D01*
X0109400Y0039846D01*
X0110147Y0039603D01*
X0110846Y0039247D01*
X0111480Y0038786D01*
X0112035Y0038231D01*
X0112438Y0037676D01*
X0112821Y0038601D01*
X0114617Y0040397D01*
X0116963Y0041368D01*
X0119503Y0041368D01*
X0121850Y0040397D01*
X0123646Y0038601D01*
X0124618Y0036254D01*
X0124618Y0027714D01*
X0123646Y0025368D01*
X0123212Y0024934D01*
X0122798Y0023934D01*
X0121283Y0022420D01*
X0116283Y0017420D01*
X0114304Y0016600D01*
X0086312Y0016600D01*
X0085712Y0016000D01*
X0080755Y0016000D01*
X0077249Y0019505D01*
X0077249Y0019517D01*
X0075132Y0017400D01*
X0073233Y0017400D01*
X0073233Y0021984D01*
X0068649Y0021984D01*
X0068649Y0020085D01*
X0071334Y0017400D01*
X0073233Y0017400D01*
X0073233Y0021984D01*
X0073233Y0021984D01*
X0073233Y0021984D01*
X0068649Y0021984D01*
X0068649Y0023883D01*
X0069245Y0024479D01*
X0067246Y0023651D01*
X0064020Y0023651D01*
X0062889Y0024120D01*
X0063354Y0023763D01*
X0063975Y0023141D01*
X0064511Y0022444D01*
X0064950Y0021682D01*
X0065287Y0020870D01*
X0065515Y0020020D01*
X0065610Y0019299D01*
X0054787Y0019299D01*
X0054787Y0018118D01*
X0065610Y0018118D01*
X0065515Y0017397D01*
X0065287Y0016548D01*
X0064950Y0015735D01*
X0064511Y0014974D01*
X0063975Y0014276D01*
X0063354Y0013654D01*
X0062656Y0013119D01*
X0061894Y0012679D01*
X0061082Y0012342D01*
X0060232Y0012115D01*
X0059360Y0012000D01*
X0054787Y0012000D01*
X0054787Y0018118D01*
X0053606Y0018118D01*
X0053606Y0012000D01*
X0049032Y0012000D01*
X0048160Y0012115D01*
X0047311Y0012342D01*
X0046498Y0012679D01*
X0045737Y0013119D01*
X0045039Y0013654D01*
X0044417Y0014276D01*
X0043882Y0014974D01*
X0043442Y0015735D01*
X0043106Y0016548D01*
X0042878Y0017397D01*
X0042783Y0018118D01*
X0053606Y0018118D01*
X0053606Y0019299D01*
X0042783Y0019299D01*
X0042878Y0020020D01*
X0043106Y0020870D01*
X0043442Y0021682D01*
X0043882Y0022444D01*
X0044417Y0023141D01*
X0045039Y0023763D01*
X0045737Y0024299D01*
X0046498Y0024738D01*
X0047311Y0025075D01*
X0048160Y0025303D01*
X0049032Y0025417D01*
X0053606Y0025417D01*
X0053606Y0019299D01*
X0054787Y0019299D01*
X0054787Y0025417D01*
X0059360Y0025417D01*
X0060232Y0025303D01*
X0060766Y0025159D01*
X0058759Y0027167D01*
X0057525Y0030147D01*
X0057525Y0042822D01*
X0058759Y0045802D01*
X0061040Y0048083D01*
X0064020Y0049317D01*
X0067246Y0049317D01*
X0070227Y0048083D01*
X0072508Y0045802D01*
X0073742Y0042822D01*
X0073742Y0042368D01*
X0076003Y0042368D01*
X0077849Y0044214D01*
X0077849Y0053128D01*
X0077694Y0053283D01*
X0077430Y0053920D01*
X0075360Y0051850D01*
X0073233Y0051850D01*
X0073233Y0056984D01*
X0068099Y0056984D01*
X0068099Y0054858D01*
X0071107Y0051850D01*
X0073233Y0051850D01*
X0073233Y0056984D01*
X0073233Y0056984D01*
X0073233Y0056984D01*
X0068099Y0056984D01*
X0068099Y0059111D01*
X0071107Y0062118D01*
X0073233Y0062118D01*
X0073233Y0056984D01*
X0073233Y0056984D01*
X0073233Y0062118D01*
X0075360Y0062118D01*
X0077430Y0060048D01*
X0077694Y0060686D01*
X0079532Y0062524D01*
X0081934Y0063518D01*
X0084533Y0063518D01*
X0086935Y0062524D01*
X0088773Y0060686D01*
X0089768Y0058284D01*
X0089768Y0055684D01*
X0088773Y0053283D01*
X0088618Y0053128D01*
X0088618Y0040913D01*
X0087798Y0038934D01*
X0082798Y0033934D01*
X0081283Y0032420D01*
X0080667Y0032165D01*
X0084864Y0027968D01*
X0085712Y0027968D01*
X0086312Y0027368D01*
X0091992Y0027368D01*
X0091849Y0027714D01*
X0091849Y0036254D01*
X0092821Y0038601D01*
X0092849Y0038629D01*
X0092849Y0048905D01*
X0092249Y0049505D01*
X0092249Y0054463D01*
X0093249Y0055463D01*
X0093249Y0059920D01*
X0089008Y0064161D01*
X0088249Y0065993D01*
X0088249Y0067728D01*
X0087694Y0068283D01*
X0086699Y0070684D01*
X0086699Y0071470D01*
X0081169Y0077000D01*
X0080298Y0077000D01*
X0067459Y0064161D01*
X0066057Y0062759D01*
X0064225Y0062000D01*
X0059842Y0062000D01*
X0059595Y0061753D01*
X0058351Y0061238D01*
X0049918Y0061238D01*
X0048675Y0061753D01*
X0048233Y0062194D01*
X0047792Y0061753D01*
X0046548Y0061238D01*
X0047846Y0072161D02*
X0048620Y0072161D01*
X0059649Y0072161D02*
X0061362Y0072161D01*
X0063329Y0074128D02*
X0027850Y0074128D01*
X0027509Y0072161D02*
X0036817Y0072161D01*
X0028518Y0076095D02*
X0065296Y0076095D01*
X0067263Y0078062D02*
X0028518Y0078062D01*
X0028518Y0076984D02*
X0028518Y0079173D01*
X0025422Y0082268D01*
X0023233Y0082268D01*
X0023233Y0076984D01*
X0028518Y0076984D01*
X0027661Y0080029D02*
X0069230Y0080029D01*
X0071197Y0081996D02*
X0025694Y0081996D01*
X0023233Y0081996D02*
X0023233Y0081996D01*
X0023233Y0080029D02*
X0023233Y0080029D01*
X0023233Y0078062D02*
X0023233Y0078062D01*
X0018805Y0080029D02*
X0006818Y0080029D01*
X0006825Y0078062D02*
X0017949Y0078062D01*
X0017949Y0076095D02*
X0006833Y0076095D01*
X0006841Y0074128D02*
X0018616Y0074128D01*
X0018957Y0072161D02*
X0006848Y0072161D01*
X0006856Y0070194D02*
X0016990Y0070194D01*
X0016549Y0068227D02*
X0006863Y0068227D01*
X0006871Y0066260D02*
X0016549Y0066260D01*
X0016549Y0064293D02*
X0006878Y0064293D01*
X0006886Y0062326D02*
X0018438Y0062326D01*
X0020405Y0060359D02*
X0006893Y0060359D01*
X0006901Y0058392D02*
X0068099Y0058392D01*
X0068099Y0056425D02*
X0006909Y0056425D01*
X0006916Y0054458D02*
X0068499Y0054458D01*
X0070466Y0052491D02*
X0006924Y0052491D01*
X0006931Y0050524D02*
X0077849Y0050524D01*
X0077849Y0048557D02*
X0069082Y0048557D01*
X0071719Y0046590D02*
X0077849Y0046590D01*
X0077849Y0044623D02*
X0072996Y0044623D01*
X0073742Y0042656D02*
X0076291Y0042656D01*
X0083652Y0034788D02*
X0091849Y0034788D01*
X0091849Y0032821D02*
X0081684Y0032821D01*
X0081978Y0030854D02*
X0091849Y0030854D01*
X0091849Y0028887D02*
X0083945Y0028887D01*
X0085619Y0036755D02*
X0092057Y0036755D01*
X0092849Y0038722D02*
X0087586Y0038722D01*
X0088525Y0040689D02*
X0092849Y0040689D01*
X0092849Y0042656D02*
X0088618Y0042656D01*
X0088618Y0044623D02*
X0092849Y0044623D01*
X0092849Y0046590D02*
X0088618Y0046590D01*
X0088618Y0048557D02*
X0092849Y0048557D01*
X0092249Y0050524D02*
X0088618Y0050524D01*
X0088618Y0052491D02*
X0092249Y0052491D01*
X0092249Y0054458D02*
X0089260Y0054458D01*
X0089768Y0056425D02*
X0093249Y0056425D01*
X0093249Y0058392D02*
X0089723Y0058392D01*
X0088908Y0060359D02*
X0092810Y0060359D01*
X0090843Y0062326D02*
X0087132Y0062326D01*
X0088953Y0064293D02*
X0067591Y0064293D01*
X0069558Y0066260D02*
X0088249Y0066260D01*
X0087750Y0068227D02*
X0071525Y0068227D01*
X0073492Y0070194D02*
X0086902Y0070194D01*
X0086008Y0072161D02*
X0075459Y0072161D01*
X0077426Y0074128D02*
X0084041Y0074128D01*
X0082074Y0076095D02*
X0079393Y0076095D01*
X0073164Y0083963D02*
X0006803Y0083963D01*
X0006810Y0081996D02*
X0020772Y0081996D01*
X0023166Y0085930D02*
X0006795Y0085930D01*
X0006788Y0087897D02*
X0015271Y0087897D01*
X0013304Y0089864D02*
X0006780Y0089864D01*
X0006773Y0091831D02*
X0011337Y0091831D01*
X0009370Y0093798D02*
X0006765Y0093798D01*
X0006757Y0095765D02*
X0008343Y0095765D01*
X0008249Y0097732D02*
X0006750Y0097732D01*
X0006742Y0099699D02*
X0008249Y0099699D01*
X0008249Y0101666D02*
X0006735Y0101666D01*
X0006727Y0103633D02*
X0008249Y0103633D01*
X0008249Y0105601D02*
X0006720Y0105601D01*
X0006712Y0107568D02*
X0008249Y0107568D01*
X0008249Y0109535D02*
X0006705Y0109535D01*
X0006697Y0111502D02*
X0008249Y0111502D01*
X0008249Y0113469D02*
X0006689Y0113469D01*
X0006682Y0115436D02*
X0008249Y0115436D01*
X0008249Y0117403D02*
X0006674Y0117403D01*
X0006667Y0119370D02*
X0008249Y0119370D01*
X0008249Y0121337D02*
X0006659Y0121337D01*
X0006652Y0123304D02*
X0008249Y0123304D01*
X0008249Y0125271D02*
X0006644Y0125271D01*
X0006637Y0127238D02*
X0008249Y0127238D01*
X0008249Y0129205D02*
X0006629Y0129205D01*
X0006621Y0131172D02*
X0008249Y0131172D01*
X0008249Y0133139D02*
X0006614Y0133139D01*
X0006606Y0135106D02*
X0008249Y0135106D01*
X0008249Y0137073D02*
X0006599Y0137073D01*
X0006591Y0139040D02*
X0008249Y0139040D01*
X0008249Y0141007D02*
X0006584Y0141007D01*
X0006576Y0142974D02*
X0008249Y0142974D01*
X0008249Y0144941D02*
X0006569Y0144941D01*
X0006561Y0146908D02*
X0008249Y0146908D01*
X0008249Y0148875D02*
X0006553Y0148875D01*
X0006546Y0150842D02*
X0008249Y0150842D01*
X0008249Y0152809D02*
X0006538Y0152809D01*
X0006531Y0154776D02*
X0008249Y0154776D01*
X0008249Y0156743D02*
X0006523Y0156743D01*
X0006516Y0158710D02*
X0008249Y0158710D01*
X0008249Y0160677D02*
X0006508Y0160677D01*
X0006501Y0162644D02*
X0008249Y0162644D01*
X0008249Y0164611D02*
X0006493Y0164611D01*
X0006485Y0166578D02*
X0008249Y0166578D01*
X0008249Y0168545D02*
X0006478Y0168545D01*
X0006470Y0170512D02*
X0008249Y0170512D01*
X0008249Y0172479D02*
X0006463Y0172479D01*
X0006455Y0174446D02*
X0008249Y0174446D01*
X0008249Y0176413D02*
X0006448Y0176413D01*
X0006440Y0178380D02*
X0008249Y0178380D01*
X0008249Y0180347D02*
X0006433Y0180347D01*
X0006425Y0182314D02*
X0008249Y0182314D01*
X0008249Y0184281D02*
X0006417Y0184281D01*
X0006410Y0186248D02*
X0008249Y0186248D01*
X0008249Y0188215D02*
X0006402Y0188215D01*
X0006395Y0190182D02*
X0008249Y0190182D01*
X0008249Y0192149D02*
X0006387Y0192149D01*
X0006380Y0194116D02*
X0008249Y0194116D01*
X0008249Y0196083D02*
X0006372Y0196083D01*
X0006365Y0198050D02*
X0008249Y0198050D01*
X0008249Y0200017D02*
X0006357Y0200017D01*
X0006349Y0201984D02*
X0008249Y0201984D01*
X0008249Y0203951D02*
X0006342Y0203951D01*
X0006334Y0205918D02*
X0008249Y0205918D01*
X0008249Y0207885D02*
X0006327Y0207885D01*
X0006319Y0209852D02*
X0008249Y0209852D01*
X0008249Y0211819D02*
X0006312Y0211819D01*
X0006304Y0213786D02*
X0008249Y0213786D01*
X0008249Y0215753D02*
X0006297Y0215753D01*
X0006289Y0217720D02*
X0008249Y0217720D01*
X0008249Y0219687D02*
X0006281Y0219687D01*
X0006274Y0221654D02*
X0008249Y0221654D01*
X0008249Y0223621D02*
X0006266Y0223621D01*
X0006259Y0225588D02*
X0008249Y0225588D01*
X0008249Y0227555D02*
X0006251Y0227555D01*
X0006244Y0229522D02*
X0008249Y0229522D01*
X0008249Y0231489D02*
X0006236Y0231489D01*
X0006229Y0233456D02*
X0008249Y0233456D01*
X0008249Y0235424D02*
X0006221Y0235424D01*
X0006213Y0237391D02*
X0008249Y0237391D01*
X0008249Y0239358D02*
X0006206Y0239358D01*
X0006198Y0241325D02*
X0008249Y0241325D01*
X0008249Y0243292D02*
X0006191Y0243292D01*
X0006183Y0245259D02*
X0008249Y0245259D01*
X0008249Y0247226D02*
X0006176Y0247226D01*
X0006168Y0249193D02*
X0008249Y0249193D01*
X0008249Y0251160D02*
X0006161Y0251160D01*
X0006153Y0253127D02*
X0008249Y0253127D01*
X0008249Y0255094D02*
X0006145Y0255094D01*
X0006138Y0257061D02*
X0008249Y0257061D01*
X0008685Y0259028D02*
X0006130Y0259028D01*
X0006123Y0260995D02*
X0010195Y0260995D01*
X0012162Y0262962D02*
X0006115Y0262962D01*
X0006108Y0264929D02*
X0014129Y0264929D01*
X0017066Y0266896D02*
X0006100Y0266896D01*
X0006093Y0268863D02*
X0073249Y0268863D01*
X0073249Y0270830D02*
X0006085Y0270830D01*
X0006077Y0272797D02*
X0073249Y0272797D01*
X0073990Y0274764D02*
X0006070Y0274764D01*
X0006062Y0276731D02*
X0075931Y0276731D01*
X0077898Y0278698D02*
X0006055Y0278698D01*
X0006047Y0280665D02*
X0079865Y0280665D01*
X0084128Y0270830D02*
X0202707Y0270830D01*
X0202487Y0268863D02*
X0083218Y0268863D01*
X0083218Y0266896D02*
X0099682Y0266896D01*
X0097715Y0264929D02*
X0096772Y0264929D01*
X0093233Y0264929D02*
X0093233Y0264929D01*
X0093233Y0262962D02*
X0093233Y0262962D01*
X0093233Y0260995D02*
X0093233Y0260995D01*
X0093233Y0259028D02*
X0093233Y0259028D01*
X0096760Y0259028D02*
X0097727Y0259028D01*
X0099049Y0257061D02*
X0090206Y0257061D01*
X0089707Y0259028D02*
X0088239Y0259028D01*
X0088649Y0260995D02*
X0086272Y0260995D01*
X0084305Y0262962D02*
X0088649Y0262962D01*
X0089695Y0264929D02*
X0083218Y0264929D01*
X0092173Y0255094D02*
X0099049Y0255094D01*
X0087910Y0245259D02*
X0083980Y0245259D01*
X0083980Y0247226D02*
X0085943Y0247226D01*
X0083823Y0243292D02*
X0088318Y0243292D01*
X0088318Y0241325D02*
X0083555Y0241325D01*
X0083980Y0239358D02*
X0088465Y0239358D01*
X0089280Y0237391D02*
X0083980Y0237391D01*
X0083980Y0235424D02*
X0091125Y0235424D01*
X0093788Y0233456D02*
X0083980Y0233456D01*
X0083824Y0231489D02*
X0091821Y0231489D01*
X0088743Y0229522D02*
X0082773Y0229522D01*
X0083399Y0227555D02*
X0087388Y0227555D01*
X0086849Y0225588D02*
X0083246Y0225588D01*
X0082175Y0223621D02*
X0086849Y0223621D01*
X0086849Y0221654D02*
X0072418Y0221654D01*
X0072418Y0219687D02*
X0086849Y0219687D01*
X0086849Y0217720D02*
X0072418Y0217720D01*
X0072418Y0215753D02*
X0087661Y0215753D01*
X0089403Y0213786D02*
X0072418Y0213786D01*
X0074316Y0211819D02*
X0092481Y0211819D01*
X0094448Y0209852D02*
X0076283Y0209852D01*
X0078250Y0207885D02*
X0097195Y0207885D01*
X0108084Y0205918D02*
X0080217Y0205918D01*
X0074291Y0223621D02*
X0072084Y0223621D01*
X0073221Y0225588D02*
X0070547Y0225588D01*
X0068580Y0227555D02*
X0073068Y0227555D01*
X0073694Y0229522D02*
X0066613Y0229522D01*
X0064646Y0231489D02*
X0072643Y0231489D01*
X0072487Y0233456D02*
X0062678Y0233456D01*
X0060711Y0235424D02*
X0072487Y0235424D01*
X0072487Y0237391D02*
X0050641Y0237391D01*
X0052736Y0239358D02*
X0072487Y0239358D01*
X0072912Y0241325D02*
X0053399Y0241325D01*
X0053283Y0243292D02*
X0072643Y0243292D01*
X0072487Y0245259D02*
X0052264Y0245259D01*
X0045826Y0237391D02*
X0038800Y0237391D01*
X0038152Y0247226D02*
X0072487Y0247226D01*
X0072487Y0249193D02*
X0018218Y0249193D01*
X0018218Y0251160D02*
X0072487Y0251160D01*
X0072911Y0253127D02*
X0018218Y0253127D01*
X0018392Y0255094D02*
X0074049Y0255094D01*
X0056622Y0257061D02*
X0029844Y0257061D01*
X0032582Y0259028D02*
X0053885Y0259028D01*
X0053068Y0260995D02*
X0033399Y0260995D01*
X0033399Y0262962D02*
X0053068Y0262962D01*
X0053873Y0264929D02*
X0032594Y0264929D01*
X0029874Y0266896D02*
X0056593Y0266896D01*
X0028315Y0247226D02*
X0025687Y0247226D01*
X0023233Y0247226D02*
X0023233Y0247226D01*
X0023233Y0245259D02*
X0023233Y0245259D01*
X0023233Y0243292D02*
X0023233Y0243292D01*
X0023233Y0241325D02*
X0023233Y0241325D01*
X0023233Y0239358D02*
X0023233Y0239358D01*
X0023233Y0237391D02*
X0023233Y0237391D01*
X0023233Y0235424D02*
X0023233Y0235424D01*
X0023233Y0233456D02*
X0023233Y0233456D01*
X0018463Y0245259D02*
X0018218Y0245259D01*
X0018218Y0247226D02*
X0020779Y0247226D01*
X0006040Y0282632D02*
X0202706Y0282632D01*
X0202487Y0266896D02*
X0116785Y0266896D01*
X0118752Y0264929D02*
X0119695Y0264929D01*
X0123233Y0264929D02*
X0123233Y0264929D01*
X0123233Y0266568D02*
X0123233Y0261984D01*
X0123233Y0257400D01*
X0125132Y0257400D01*
X0127818Y0260085D01*
X0127818Y0261984D01*
X0123233Y0261984D01*
X0123233Y0261984D01*
X0123233Y0261984D01*
X0127818Y0261984D01*
X0127818Y0263883D01*
X0125132Y0266568D01*
X0123233Y0266568D01*
X0123233Y0262962D02*
X0123233Y0262962D01*
X0123233Y0260995D02*
X0123233Y0260995D01*
X0123233Y0259028D02*
X0123233Y0259028D01*
X0119707Y0259028D02*
X0118740Y0259028D01*
X0116773Y0257061D02*
X0182782Y0257061D01*
X0182249Y0255094D02*
X0112418Y0255094D01*
X0112418Y0253127D02*
X0113021Y0253127D01*
X0115202Y0253127D02*
X0115202Y0253127D01*
X0115202Y0251160D02*
X0115202Y0251160D01*
X0115202Y0249193D02*
X0115202Y0249193D01*
X0115202Y0247226D02*
X0115202Y0247226D01*
X0115202Y0245259D02*
X0115202Y0245259D01*
X0115202Y0244583D02*
X0115202Y0235598D01*
X0115633Y0235598D01*
X0116486Y0235733D01*
X0117307Y0236000D01*
X0118076Y0236392D01*
X0118775Y0236900D01*
X0119276Y0237401D01*
X0119366Y0237183D01*
X0121018Y0235531D01*
X0121018Y0225740D01*
X0120466Y0225968D01*
X0119618Y0225968D01*
X0119618Y0226254D01*
X0118646Y0228601D01*
X0116850Y0230397D01*
X0114503Y0231368D01*
X0112418Y0231368D01*
X0112418Y0236346D01*
X0113097Y0236000D01*
X0113918Y0235733D01*
X0114770Y0235598D01*
X0115202Y0235598D01*
X0115202Y0244583D01*
X0115202Y0244583D01*
X0115202Y0243292D02*
X0115202Y0243292D01*
X0115202Y0241325D02*
X0115202Y0241325D01*
X0115202Y0239358D02*
X0115202Y0239358D01*
X0115202Y0237391D02*
X0115202Y0237391D01*
X0112418Y0235424D02*
X0121018Y0235424D01*
X0121018Y0233456D02*
X0112418Y0233456D01*
X0112418Y0231489D02*
X0121018Y0231489D01*
X0121018Y0229522D02*
X0117724Y0229522D01*
X0119079Y0227555D02*
X0121018Y0227555D01*
X0119280Y0237391D02*
X0119266Y0237391D01*
X0120510Y0253127D02*
X0117383Y0253127D01*
X0126760Y0259028D02*
X0184214Y0259028D01*
X0182249Y0253127D02*
X0139894Y0253127D01*
X0141379Y0251160D02*
X0182249Y0251160D01*
X0182249Y0249193D02*
X0142086Y0249193D01*
X0142086Y0247226D02*
X0182650Y0247226D01*
X0174203Y0245259D02*
X0142086Y0245259D01*
X0142086Y0243292D02*
X0173184Y0243292D01*
X0173068Y0241325D02*
X0142086Y0241325D01*
X0141939Y0239358D02*
X0173730Y0239358D01*
X0175826Y0237391D02*
X0141124Y0237391D01*
X0139618Y0235424D02*
X0199503Y0235424D01*
X0201470Y0237391D02*
X0180641Y0237391D01*
X0193233Y0241984D02*
X0198233Y0246984D01*
X0198233Y0251984D01*
X0202571Y0245259D02*
X0203865Y0245259D01*
X0203865Y0243292D02*
X0200719Y0243292D01*
X0198752Y0241325D02*
X0203865Y0241325D01*
X0203437Y0239358D02*
X0196785Y0239358D01*
X0197536Y0233456D02*
X0139618Y0233456D01*
X0139618Y0231489D02*
X0140612Y0231489D01*
X0145854Y0231489D02*
X0195569Y0231489D01*
X0193602Y0229522D02*
X0147773Y0229522D01*
X0148399Y0227555D02*
X0191635Y0227555D01*
X0189668Y0225588D02*
X0148246Y0225588D01*
X0147175Y0223621D02*
X0187701Y0223621D01*
X0185734Y0221654D02*
X0143821Y0221654D01*
X0142602Y0219687D02*
X0183767Y0219687D01*
X0181800Y0217720D02*
X0156123Y0217720D01*
X0158090Y0215753D02*
X0179833Y0215753D01*
X0177866Y0213786D02*
X0160057Y0213786D01*
X0162024Y0211819D02*
X0175899Y0211819D01*
X0173932Y0209852D02*
X0163991Y0209852D01*
X0165958Y0207885D02*
X0171965Y0207885D01*
X0169998Y0205918D02*
X0167925Y0205918D01*
X0165343Y0199539D02*
X0165343Y0199493D01*
X0167570Y0197312D02*
X0208233Y0237976D01*
X0208233Y0251984D01*
X0208233Y0266083D01*
X0202487Y0264929D02*
X0126772Y0264929D01*
X0127818Y0262962D02*
X0202487Y0262962D01*
X0202848Y0260995D02*
X0127818Y0260995D01*
X0129894Y0253127D02*
X0130510Y0253127D01*
X0109682Y0266896D02*
X0106785Y0266896D01*
X0098399Y0276731D02*
X0178068Y0276731D01*
X0178352Y0278698D02*
X0098114Y0278698D01*
X0096858Y0280665D02*
X0179609Y0280665D01*
X0178562Y0274764D02*
X0097905Y0274764D01*
X0096351Y0272797D02*
X0180116Y0272797D01*
X0192253Y0259028D02*
X0194214Y0259028D01*
X0202253Y0259028D02*
X0203865Y0259028D01*
X0218233Y0251984D02*
X0218233Y0243522D01*
X0169797Y0195085D01*
X0177760Y0196083D02*
X0258281Y0196083D01*
X0258282Y0194116D02*
X0179727Y0194116D01*
X0180419Y0192149D02*
X0258283Y0192149D01*
X0258283Y0190182D02*
X0179936Y0190182D01*
X0178013Y0188215D02*
X0258284Y0188215D01*
X0258285Y0186248D02*
X0176046Y0186248D01*
X0176757Y0184281D02*
X0258285Y0184281D01*
X0258286Y0182314D02*
X0178724Y0182314D01*
X0180230Y0180347D02*
X0258287Y0180347D01*
X0258288Y0178380D02*
X0180351Y0178380D01*
X0179017Y0176413D02*
X0258288Y0176413D01*
X0258289Y0174446D02*
X0177050Y0174446D01*
X0175083Y0172479D02*
X0258290Y0172479D01*
X0258290Y0170512D02*
X0173116Y0170512D01*
X0171149Y0168545D02*
X0258291Y0168545D01*
X0258292Y0166578D02*
X0169182Y0166578D01*
X0169441Y0164611D02*
X0258292Y0164611D01*
X0258293Y0162644D02*
X0170182Y0162644D01*
X0170182Y0160677D02*
X0258294Y0160677D01*
X0258294Y0158710D02*
X0170182Y0158710D01*
X0170182Y0156743D02*
X0258295Y0156743D01*
X0258296Y0154776D02*
X0171870Y0154776D01*
X0171982Y0152809D02*
X0258296Y0152809D01*
X0258297Y0150842D02*
X0171982Y0150842D01*
X0175791Y0148875D02*
X0258298Y0148875D01*
X0258299Y0146908D02*
X0177653Y0146908D01*
X0177653Y0147013D02*
X0176310Y0148356D01*
X0173069Y0145114D01*
X0173069Y0145114D01*
X0176310Y0141873D01*
X0177653Y0143216D01*
X0177653Y0147013D01*
X0177653Y0144941D02*
X0258299Y0144941D01*
X0258300Y0142974D02*
X0177411Y0142974D01*
X0175210Y0142974D02*
X0175209Y0142974D01*
X0175444Y0141007D02*
X0258301Y0141007D01*
X0258301Y0139040D02*
X0133980Y0139040D01*
X0133980Y0141007D02*
X0170693Y0141007D01*
X0170928Y0142974D02*
X0170928Y0142974D01*
X0168726Y0142974D02*
X0133619Y0142974D01*
X0134478Y0144941D02*
X0168485Y0144941D01*
X0172895Y0144941D02*
X0172895Y0144941D01*
X0173242Y0144941D02*
X0173243Y0144941D01*
X0174862Y0146908D02*
X0174862Y0146908D01*
X0162812Y0146908D02*
X0136445Y0146908D01*
X0138412Y0148875D02*
X0160845Y0148875D01*
X0160014Y0150842D02*
X0140379Y0150842D01*
X0142607Y0152809D02*
X0151331Y0152809D01*
X0149364Y0154776D02*
X0144574Y0154776D01*
X0146541Y0156743D02*
X0147397Y0156743D01*
X0146969Y0162289D02*
X0145384Y0163874D01*
X0143040Y0166218D01*
X0143040Y0166218D01*
X0140966Y0168291D01*
X0140998Y0168321D01*
X0141092Y0168360D01*
X0141668Y0168935D01*
X0142267Y0169486D01*
X0142310Y0169578D01*
X0145830Y0173098D01*
X0147120Y0174387D01*
X0151646Y0178914D01*
X0157637Y0172923D01*
X0157579Y0172899D01*
X0155352Y0170672D01*
X0153008Y0168328D01*
X0150898Y0166218D01*
X0148671Y0163991D01*
X0146969Y0162289D01*
X0146614Y0162644D02*
X0147324Y0162644D01*
X0149291Y0164611D02*
X0144646Y0164611D01*
X0142679Y0166578D02*
X0151258Y0166578D01*
X0150898Y0166218D02*
X0150898Y0166218D01*
X0153008Y0168328D02*
X0153008Y0168328D01*
X0153225Y0168545D02*
X0141277Y0168545D01*
X0143244Y0170512D02*
X0155192Y0170512D01*
X0155352Y0170672D02*
X0155352Y0170672D01*
X0157159Y0172479D02*
X0145211Y0172479D01*
X0147120Y0174387D02*
X0147120Y0174387D01*
X0147178Y0174446D02*
X0156114Y0174446D01*
X0154147Y0176413D02*
X0149145Y0176413D01*
X0151112Y0178380D02*
X0152180Y0178380D01*
X0147162Y0187396D02*
X0147120Y0187498D01*
X0136301Y0198317D01*
X0136358Y0198341D01*
X0138586Y0200568D01*
X0140929Y0202912D01*
X0143040Y0205022D01*
X0145267Y0207249D01*
X0146969Y0208951D01*
X0148554Y0207366D01*
X0150898Y0205022D01*
X0153008Y0202912D01*
X0153008Y0202912D01*
X0155235Y0200684D01*
X0155343Y0200577D01*
X0150637Y0195871D01*
X0150637Y0195871D01*
X0149347Y0194581D01*
X0148649Y0192896D01*
X0148649Y0188188D01*
X0147462Y0187696D01*
X0147162Y0187396D01*
X0146402Y0188215D02*
X0148649Y0188215D01*
X0148649Y0190182D02*
X0144435Y0190182D01*
X0142468Y0192149D02*
X0148649Y0192149D01*
X0149154Y0194116D02*
X0140501Y0194116D01*
X0138534Y0196083D02*
X0150849Y0196083D01*
X0152816Y0198050D02*
X0136567Y0198050D01*
X0138035Y0200017D02*
X0154783Y0200017D01*
X0153936Y0201984D02*
X0140002Y0201984D01*
X0140929Y0202912D02*
X0140929Y0202912D01*
X0141969Y0203951D02*
X0151969Y0203951D01*
X0150898Y0205022D02*
X0150898Y0205022D01*
X0150002Y0205918D02*
X0143936Y0205918D01*
X0143040Y0205022D02*
X0143040Y0205022D01*
X0145903Y0207885D02*
X0148035Y0207885D01*
X0141958Y0212902D02*
X0138233Y0216626D01*
X0138233Y0221984D01*
X0143317Y0217720D02*
X0150620Y0217720D01*
X0148653Y0215753D02*
X0145284Y0215753D01*
X0130851Y0201766D02*
X0130822Y0201766D01*
X0129835Y0191817D02*
X0138649Y0183002D01*
X0138649Y0178883D01*
X0135323Y0175557D01*
X0134380Y0174691D01*
X0134248Y0175009D01*
X0132021Y0177236D01*
X0129677Y0179580D01*
X0127567Y0181691D01*
X0125340Y0183918D01*
X0123638Y0185620D01*
X0125223Y0187205D01*
X0127567Y0189549D01*
X0129677Y0191659D01*
X0129677Y0191659D01*
X0129835Y0191817D01*
X0131469Y0190182D02*
X0128200Y0190182D01*
X0127567Y0189549D02*
X0127567Y0189549D01*
X0126233Y0188215D02*
X0133436Y0188215D01*
X0135403Y0186248D02*
X0124266Y0186248D01*
X0124976Y0184281D02*
X0137370Y0184281D01*
X0138649Y0182314D02*
X0126943Y0182314D01*
X0127567Y0181691D02*
X0127567Y0181691D01*
X0128910Y0180347D02*
X0138649Y0180347D01*
X0138146Y0178380D02*
X0130877Y0178380D01*
X0129677Y0179580D02*
X0129677Y0179580D01*
X0132844Y0176413D02*
X0136179Y0176413D01*
X0123249Y0158710D02*
X0121522Y0158710D01*
X0123249Y0156743D02*
X0119555Y0156743D01*
X0117588Y0154776D02*
X0123249Y0154776D01*
X0122009Y0152809D02*
X0114733Y0152809D01*
X0118075Y0148875D02*
X0091041Y0148875D01*
X0089074Y0146908D02*
X0116108Y0146908D01*
X0114141Y0144941D02*
X0087107Y0144941D01*
X0085140Y0142974D02*
X0112174Y0142974D01*
X0110207Y0141007D02*
X0083173Y0141007D01*
X0081206Y0139040D02*
X0108690Y0139040D01*
X0108249Y0137073D02*
X0079239Y0137073D01*
X0077272Y0135106D02*
X0108249Y0135106D01*
X0108249Y0133139D02*
X0075305Y0133139D01*
X0073338Y0131172D02*
X0108249Y0131172D01*
X0108249Y0129205D02*
X0071371Y0129205D01*
X0093008Y0150842D02*
X0120042Y0150842D01*
X0122338Y0139040D02*
X0122487Y0139040D01*
X0122487Y0137073D02*
X0120371Y0137073D01*
X0118404Y0135106D02*
X0122487Y0135106D01*
X0122707Y0133139D02*
X0118218Y0133139D01*
X0118218Y0131172D02*
X0122848Y0131172D01*
X0122487Y0129205D02*
X0118218Y0129205D01*
X0118218Y0127238D02*
X0122487Y0127238D01*
X0122487Y0125271D02*
X0118218Y0125271D01*
X0118218Y0123304D02*
X0122487Y0123304D01*
X0122706Y0121337D02*
X0118218Y0121337D01*
X0118218Y0119370D02*
X0124049Y0119370D01*
X0124049Y0117403D02*
X0118218Y0117403D01*
X0118218Y0115436D02*
X0124049Y0115436D01*
X0124049Y0113469D02*
X0118218Y0113469D01*
X0118218Y0111502D02*
X0124049Y0111502D01*
X0124049Y0109535D02*
X0118218Y0109535D01*
X0118218Y0107568D02*
X0124049Y0107568D01*
X0124049Y0105601D02*
X0118218Y0105601D01*
X0118218Y0103633D02*
X0124049Y0103633D01*
X0124049Y0101666D02*
X0118218Y0101666D01*
X0118218Y0099699D02*
X0124049Y0099699D01*
X0124049Y0097732D02*
X0118218Y0097732D01*
X0118218Y0095765D02*
X0124049Y0095765D01*
X0124049Y0093798D02*
X0118218Y0093798D01*
X0118218Y0091831D02*
X0124049Y0091831D01*
X0124049Y0089864D02*
X0118218Y0089864D01*
X0118218Y0087897D02*
X0124049Y0087897D01*
X0124049Y0085930D02*
X0118218Y0085930D01*
X0118218Y0083963D02*
X0124049Y0083963D01*
X0124049Y0081996D02*
X0118218Y0081996D01*
X0118218Y0080029D02*
X0124049Y0080029D01*
X0124049Y0078062D02*
X0118218Y0078062D01*
X0118218Y0076095D02*
X0124073Y0076095D01*
X0125172Y0074128D02*
X0118218Y0074128D01*
X0118218Y0072161D02*
X0127139Y0072161D01*
X0126506Y0070194D02*
X0129106Y0070194D01*
X0127818Y0068883D02*
X0125132Y0071568D01*
X0123233Y0071568D01*
X0123233Y0066984D01*
X0123233Y0062400D01*
X0125132Y0062400D01*
X0127818Y0065085D01*
X0127818Y0066984D01*
X0123233Y0066984D01*
X0123233Y0066984D01*
X0123233Y0066984D01*
X0127818Y0066984D01*
X0127818Y0068883D01*
X0127818Y0068227D02*
X0131073Y0068227D01*
X0133040Y0066260D02*
X0127818Y0066260D01*
X0127025Y0064293D02*
X0135007Y0064293D01*
X0136974Y0062326D02*
X0117038Y0062326D01*
X0119005Y0064293D02*
X0119441Y0064293D01*
X0123233Y0064293D02*
X0123233Y0064293D01*
X0123233Y0066260D02*
X0123233Y0066260D01*
X0123233Y0068227D02*
X0123233Y0068227D01*
X0123233Y0070194D02*
X0123233Y0070194D01*
X0119960Y0070194D02*
X0118486Y0070194D01*
X0113657Y0060359D02*
X0138941Y0060359D01*
X0139049Y0058392D02*
X0111690Y0058392D01*
X0110132Y0056568D02*
X0108233Y0056568D01*
X0108233Y0051984D01*
X0108233Y0047400D01*
X0110132Y0047400D01*
X0112818Y0050085D01*
X0112818Y0051984D01*
X0108233Y0051984D01*
X0108233Y0051984D01*
X0108233Y0051984D01*
X0112818Y0051984D01*
X0112818Y0053883D01*
X0110132Y0056568D01*
X0110276Y0056425D02*
X0139049Y0056425D01*
X0139049Y0054458D02*
X0112243Y0054458D01*
X0112818Y0052491D02*
X0139049Y0052491D01*
X0139049Y0050524D02*
X0112818Y0050524D01*
X0111289Y0048557D02*
X0139049Y0048557D01*
X0139049Y0046590D02*
X0103618Y0046590D01*
X0103618Y0044623D02*
X0139049Y0044623D01*
X0139049Y0042656D02*
X0103618Y0042656D01*
X0103618Y0040689D02*
X0115323Y0040689D01*
X0112942Y0038722D02*
X0111544Y0038722D01*
X0108249Y0038722D02*
X0108218Y0038722D01*
X0108218Y0036755D02*
X0108249Y0036755D01*
X0108218Y0034788D02*
X0108249Y0034788D01*
X0108218Y0032821D02*
X0108249Y0032821D01*
X0104922Y0038722D02*
X0103618Y0038722D01*
X0103618Y0048557D02*
X0105177Y0048557D01*
X0108233Y0048557D02*
X0108233Y0048557D01*
X0108233Y0050524D02*
X0108233Y0050524D01*
X0108233Y0052491D02*
X0108233Y0052491D01*
X0108233Y0054458D02*
X0108233Y0054458D01*
X0108233Y0056425D02*
X0108233Y0056425D01*
X0106191Y0056425D02*
X0103218Y0056425D01*
X0104218Y0054458D02*
X0104224Y0054458D01*
X0103233Y0072161D02*
X0103233Y0072161D01*
X0103233Y0074128D02*
X0103233Y0074128D01*
X0103233Y0076095D02*
X0103233Y0076095D01*
X0100083Y0076095D02*
X0098363Y0076095D01*
X0095634Y0078062D02*
X0108249Y0078062D01*
X0108249Y0076095D02*
X0106383Y0076095D01*
X0108249Y0080029D02*
X0092237Y0080029D01*
X0090270Y0081996D02*
X0108249Y0081996D01*
X0108249Y0083963D02*
X0088303Y0083963D01*
X0086336Y0085930D02*
X0108249Y0085930D01*
X0108249Y0087897D02*
X0084369Y0087897D01*
X0082402Y0089864D02*
X0108249Y0089864D01*
X0108249Y0091831D02*
X0080435Y0091831D01*
X0078468Y0093798D02*
X0108249Y0093798D01*
X0108249Y0095765D02*
X0076757Y0095765D01*
X0069710Y0095765D02*
X0046757Y0095765D01*
X0048073Y0093798D02*
X0068394Y0093798D01*
X0068068Y0091831D02*
X0048399Y0091831D01*
X0047946Y0089864D02*
X0068520Y0089864D01*
X0070015Y0087897D02*
X0046451Y0087897D01*
X0036010Y0097732D02*
X0108249Y0097732D01*
X0108249Y0099699D02*
X0037197Y0099699D01*
X0037618Y0101666D02*
X0108249Y0101666D01*
X0108249Y0103633D02*
X0037460Y0103633D01*
X0036646Y0105601D02*
X0108249Y0105601D01*
X0108249Y0107568D02*
X0035845Y0107568D01*
X0037129Y0109535D02*
X0108249Y0109535D01*
X0108249Y0111502D02*
X0037618Y0111502D01*
X0037529Y0113469D02*
X0108249Y0113469D01*
X0108249Y0115436D02*
X0036714Y0115436D01*
X0034835Y0117403D02*
X0108249Y0117403D01*
X0108249Y0119370D02*
X0018218Y0119370D01*
X0018218Y0121337D02*
X0108249Y0121337D01*
X0108249Y0123304D02*
X0018218Y0123304D01*
X0018218Y0125271D02*
X0108249Y0125271D01*
X0108249Y0127238D02*
X0037233Y0127238D01*
X0029234Y0127238D02*
X0025253Y0127238D01*
X0023233Y0127238D02*
X0023233Y0127238D01*
X0023233Y0129205D02*
X0023233Y0129205D01*
X0023233Y0131172D02*
X0023233Y0131172D01*
X0023233Y0133139D02*
X0023233Y0133139D01*
X0023233Y0135106D02*
X0023233Y0135106D01*
X0019589Y0135106D02*
X0018218Y0135106D01*
X0018218Y0137073D02*
X0029399Y0137073D01*
X0027609Y0135106D02*
X0026878Y0135106D01*
X0027055Y0139040D02*
X0027432Y0139040D01*
X0023233Y0139040D02*
X0023233Y0139040D01*
X0023233Y0141007D02*
X0023233Y0141007D01*
X0023233Y0142974D02*
X0023233Y0142974D01*
X0023233Y0144941D02*
X0023233Y0144941D01*
X0019424Y0144941D02*
X0018218Y0144941D01*
X0018218Y0146908D02*
X0029411Y0146908D01*
X0027597Y0148875D02*
X0026890Y0148875D01*
X0023233Y0148875D02*
X0023233Y0148875D01*
X0023233Y0150842D02*
X0023233Y0150842D01*
X0023233Y0152809D02*
X0023233Y0152809D01*
X0023233Y0154776D02*
X0023233Y0154776D01*
X0023233Y0156743D02*
X0023233Y0156743D01*
X0023233Y0158710D02*
X0023233Y0158710D01*
X0023233Y0160677D02*
X0023233Y0160677D01*
X0023233Y0162644D02*
X0023233Y0162644D01*
X0023233Y0164611D02*
X0023233Y0164611D01*
X0023233Y0166578D02*
X0023233Y0166578D01*
X0023233Y0168545D02*
X0023233Y0168545D01*
X0023233Y0170512D02*
X0023233Y0170512D01*
X0023233Y0172479D02*
X0023233Y0172479D01*
X0023233Y0174446D02*
X0023233Y0174446D01*
X0023233Y0176413D02*
X0023233Y0176413D01*
X0020896Y0176413D02*
X0018218Y0176413D01*
X0018218Y0174446D02*
X0018929Y0174446D01*
X0018449Y0172479D02*
X0018218Y0172479D01*
X0018218Y0170512D02*
X0018449Y0170512D01*
X0018218Y0168545D02*
X0019907Y0168545D01*
X0021061Y0166578D02*
X0018218Y0166578D01*
X0018218Y0164611D02*
X0019094Y0164611D01*
X0018449Y0162644D02*
X0018218Y0162644D01*
X0018218Y0160677D02*
X0018449Y0160677D01*
X0018218Y0158710D02*
X0019742Y0158710D01*
X0021226Y0156743D02*
X0018218Y0156743D01*
X0018218Y0154776D02*
X0019259Y0154776D01*
X0018449Y0152809D02*
X0018218Y0152809D01*
X0018218Y0150842D02*
X0018449Y0150842D01*
X0018218Y0148875D02*
X0019577Y0148875D01*
X0018449Y0142974D02*
X0018218Y0142974D01*
X0018218Y0141007D02*
X0018449Y0141007D01*
X0018218Y0139040D02*
X0019412Y0139040D01*
X0018449Y0133139D02*
X0018218Y0133139D01*
X0018218Y0131172D02*
X0018449Y0131172D01*
X0018218Y0129205D02*
X0019247Y0129205D01*
X0018218Y0127238D02*
X0021214Y0127238D01*
X0027220Y0129205D02*
X0027267Y0129205D01*
X0021632Y0117403D02*
X0018218Y0117403D01*
X0018218Y0115436D02*
X0019753Y0115436D01*
X0018938Y0113469D02*
X0018218Y0113469D01*
X0018218Y0111502D02*
X0018849Y0111502D01*
X0019338Y0109535D02*
X0018218Y0109535D01*
X0018218Y0107568D02*
X0020621Y0107568D01*
X0019821Y0105601D02*
X0018218Y0105601D01*
X0018218Y0103633D02*
X0019006Y0103633D01*
X0018849Y0101666D02*
X0018218Y0101666D01*
X0018218Y0099699D02*
X0019269Y0099699D01*
X0019534Y0097732D02*
X0020456Y0097732D01*
X0033301Y0085930D02*
X0072238Y0085930D01*
X0079334Y0062326D02*
X0065012Y0062326D01*
X0069347Y0060359D02*
X0026061Y0060359D01*
X0034319Y0047015D02*
X0033622Y0046480D01*
X0033000Y0045858D01*
X0032465Y0045160D01*
X0032025Y0044399D01*
X0031688Y0043586D01*
X0031461Y0042737D01*
X0031346Y0041865D01*
X0031346Y0037291D01*
X0037464Y0037291D01*
X0037464Y0036110D01*
X0038645Y0036110D01*
X0038645Y0025288D01*
X0039366Y0025383D01*
X0040216Y0025610D01*
X0041028Y0025947D01*
X0041790Y0026386D01*
X0042487Y0026922D01*
X0043109Y0027544D01*
X0043645Y0028241D01*
X0044084Y0029003D01*
X0044421Y0029815D01*
X0044648Y0030665D01*
X0044763Y0031537D01*
X0044763Y0036110D01*
X0038645Y0036110D01*
X0038645Y0037291D01*
X0044763Y0037291D01*
X0044763Y0041865D01*
X0044648Y0042737D01*
X0044421Y0043586D01*
X0044084Y0044399D01*
X0043645Y0045160D01*
X0043109Y0045858D01*
X0042487Y0046480D01*
X0041790Y0047015D01*
X0041028Y0047455D01*
X0040216Y0047791D01*
X0039366Y0048019D01*
X0038645Y0048114D01*
X0038645Y0037291D01*
X0037464Y0037291D01*
X0037464Y0048114D01*
X0036743Y0048019D01*
X0035894Y0047791D01*
X0035081Y0047455D01*
X0034319Y0047015D01*
X0033765Y0046590D02*
X0006946Y0046590D01*
X0006954Y0044623D02*
X0032154Y0044623D01*
X0031450Y0042656D02*
X0006961Y0042656D01*
X0006969Y0040689D02*
X0031346Y0040689D01*
X0031346Y0038722D02*
X0006977Y0038722D01*
X0006984Y0036755D02*
X0037464Y0036755D01*
X0037464Y0036110D02*
X0031346Y0036110D01*
X0031346Y0031537D01*
X0031461Y0030665D01*
X0031688Y0029815D01*
X0032025Y0029003D01*
X0032465Y0028241D01*
X0033000Y0027544D01*
X0033622Y0026922D01*
X0034319Y0026386D01*
X0035081Y0025947D01*
X0035894Y0025610D01*
X0036743Y0025383D01*
X0037464Y0025288D01*
X0037464Y0036110D01*
X0037464Y0034788D02*
X0038645Y0034788D01*
X0038645Y0036755D02*
X0057525Y0036755D01*
X0057525Y0038722D02*
X0044763Y0038722D01*
X0044763Y0040689D02*
X0057525Y0040689D01*
X0057525Y0042656D02*
X0044659Y0042656D01*
X0043955Y0044623D02*
X0058271Y0044623D01*
X0059547Y0046590D02*
X0042344Y0046590D01*
X0038645Y0046590D02*
X0037464Y0046590D01*
X0037464Y0044623D02*
X0038645Y0044623D01*
X0038645Y0042656D02*
X0037464Y0042656D01*
X0037464Y0040689D02*
X0038645Y0040689D01*
X0038645Y0038722D02*
X0037464Y0038722D01*
X0037464Y0032821D02*
X0038645Y0032821D01*
X0038645Y0030854D02*
X0037464Y0030854D01*
X0037464Y0028887D02*
X0038645Y0028887D01*
X0038645Y0026920D02*
X0037464Y0026920D01*
X0033624Y0026920D02*
X0007022Y0026920D01*
X0007014Y0028887D02*
X0032092Y0028887D01*
X0031436Y0030854D02*
X0007007Y0030854D01*
X0006999Y0032821D02*
X0031346Y0032821D01*
X0031346Y0034788D02*
X0006992Y0034788D01*
X0007029Y0024953D02*
X0047016Y0024953D01*
X0044298Y0022986D02*
X0007037Y0022986D01*
X0007044Y0021019D02*
X0043167Y0021019D01*
X0042962Y0017085D02*
X0007060Y0017085D01*
X0007052Y0019052D02*
X0053606Y0019052D01*
X0054787Y0019052D02*
X0069683Y0019052D01*
X0068649Y0021019D02*
X0065225Y0021019D01*
X0064095Y0022986D02*
X0068649Y0022986D01*
X0073233Y0021019D02*
X0073233Y0021019D01*
X0073233Y0019052D02*
X0073233Y0019052D01*
X0076784Y0019052D02*
X0077703Y0019052D01*
X0079670Y0017085D02*
X0065431Y0017085D01*
X0064594Y0015118D02*
X0163233Y0015118D01*
X0163233Y0017085D02*
X0115475Y0017085D01*
X0117915Y0019052D02*
X0163233Y0019052D01*
X0163233Y0021019D02*
X0146721Y0021019D01*
X0148688Y0022986D02*
X0149759Y0022986D01*
X0153233Y0022986D02*
X0153233Y0022986D01*
X0153233Y0021700D02*
X0155422Y0021700D01*
X0158518Y0024795D01*
X0158518Y0026984D01*
X0153233Y0026984D01*
X0153233Y0021700D01*
X0153233Y0024953D02*
X0153233Y0024953D01*
X0153233Y0026920D02*
X0153233Y0026920D01*
X0153233Y0026984D02*
X0153233Y0026984D01*
X0153233Y0026984D01*
X0153233Y0032268D01*
X0155422Y0032268D01*
X0158518Y0029173D01*
X0158518Y0026984D01*
X0153233Y0026984D01*
X0153233Y0028887D02*
X0153233Y0028887D01*
X0153233Y0030854D02*
X0153233Y0030854D01*
X0149630Y0030854D02*
X0148817Y0030854D01*
X0147418Y0032821D02*
X0163233Y0032821D01*
X0163233Y0034788D02*
X0147418Y0034788D01*
X0147418Y0036755D02*
X0163233Y0036755D01*
X0163233Y0038722D02*
X0147418Y0038722D01*
X0147418Y0040689D02*
X0163233Y0040689D01*
X0163233Y0042656D02*
X0147418Y0042656D01*
X0147418Y0044623D02*
X0163233Y0044623D01*
X0163233Y0046590D02*
X0147418Y0046590D01*
X0147418Y0048557D02*
X0163233Y0048557D01*
X0163233Y0050524D02*
X0147418Y0050524D01*
X0147418Y0052491D02*
X0163233Y0052491D01*
X0163233Y0054458D02*
X0147418Y0054458D01*
X0147418Y0056425D02*
X0163233Y0056425D01*
X0163233Y0058392D02*
X0147418Y0058392D01*
X0147418Y0060359D02*
X0163233Y0060359D01*
X0163233Y0062326D02*
X0147418Y0062326D01*
X0146806Y0064293D02*
X0163233Y0064293D01*
X0163233Y0066260D02*
X0144875Y0066260D01*
X0142908Y0068227D02*
X0163233Y0068227D01*
X0163233Y0070194D02*
X0140941Y0070194D01*
X0138974Y0072161D02*
X0163233Y0072161D01*
X0163233Y0074128D02*
X0137007Y0074128D01*
X0135040Y0076095D02*
X0163233Y0076095D01*
X0163233Y0078062D02*
X0133073Y0078062D01*
X0132418Y0080029D02*
X0163233Y0080029D01*
X0163233Y0081996D02*
X0132418Y0081996D01*
X0132418Y0083963D02*
X0163233Y0083963D01*
X0163233Y0085930D02*
X0132418Y0085930D01*
X0132418Y0087897D02*
X0163233Y0087897D01*
X0163233Y0089864D02*
X0132418Y0089864D01*
X0132418Y0091831D02*
X0163233Y0091831D01*
X0163233Y0093798D02*
X0132418Y0093798D01*
X0132418Y0095765D02*
X0163233Y0095765D01*
X0163233Y0097732D02*
X0132418Y0097732D01*
X0132418Y0099699D02*
X0163233Y0099699D01*
X0163233Y0101666D02*
X0132418Y0101666D01*
X0132418Y0103633D02*
X0163233Y0103633D01*
X0163233Y0105601D02*
X0132418Y0105601D01*
X0132418Y0107568D02*
X0163233Y0107568D01*
X0163233Y0109535D02*
X0132418Y0109535D01*
X0132418Y0111502D02*
X0163233Y0111502D01*
X0163233Y0113469D02*
X0132418Y0113469D01*
X0132418Y0115436D02*
X0163233Y0115436D01*
X0163233Y0117403D02*
X0132418Y0117403D01*
X0132418Y0119370D02*
X0163233Y0119370D01*
X0163233Y0121337D02*
X0133760Y0121337D01*
X0133980Y0123304D02*
X0163233Y0123304D01*
X0163233Y0125271D02*
X0133980Y0125271D01*
X0133980Y0127238D02*
X0163233Y0127238D01*
X0163233Y0129205D02*
X0133980Y0129205D01*
X0133618Y0131172D02*
X0163233Y0131172D01*
X0163233Y0133139D02*
X0133760Y0133139D01*
X0133980Y0135106D02*
X0163233Y0135106D01*
X0160014Y0152809D02*
X0155413Y0152809D01*
X0157380Y0154776D02*
X0160125Y0154776D01*
X0159347Y0156743D02*
X0161814Y0156743D01*
X0161814Y0158710D02*
X0161314Y0158710D01*
X0133980Y0137073D02*
X0258302Y0137073D01*
X0258281Y0198050D02*
X0178940Y0198050D01*
X0180907Y0200017D02*
X0258280Y0200017D01*
X0258279Y0201984D02*
X0182874Y0201984D01*
X0184841Y0203951D02*
X0258279Y0203951D01*
X0258278Y0205918D02*
X0186808Y0205918D01*
X0188775Y0207885D02*
X0258277Y0207885D01*
X0258277Y0209852D02*
X0190742Y0209852D01*
X0192709Y0211819D02*
X0258276Y0211819D01*
X0258275Y0213786D02*
X0194676Y0213786D01*
X0196643Y0215753D02*
X0258274Y0215753D01*
X0258274Y0217720D02*
X0198610Y0217720D01*
X0200577Y0219687D02*
X0258273Y0219687D01*
X0258272Y0221654D02*
X0202544Y0221654D01*
X0204511Y0223621D02*
X0258272Y0223621D01*
X0258271Y0225588D02*
X0206478Y0225588D01*
X0208445Y0227555D02*
X0258270Y0227555D01*
X0258270Y0229522D02*
X0210412Y0229522D01*
X0212379Y0231489D02*
X0258269Y0231489D01*
X0258268Y0233456D02*
X0214346Y0233456D01*
X0216313Y0235424D02*
X0258268Y0235424D01*
X0258267Y0237391D02*
X0218280Y0237391D01*
X0220247Y0239358D02*
X0258266Y0239358D01*
X0258266Y0241325D02*
X0222052Y0241325D01*
X0222602Y0243292D02*
X0258265Y0243292D01*
X0258264Y0245259D02*
X0240234Y0245259D01*
X0239993Y0245136D02*
X0240636Y0245463D01*
X0241220Y0245888D01*
X0241730Y0246398D01*
X0242154Y0246982D01*
X0242482Y0247625D01*
X0242705Y0248311D01*
X0242818Y0249023D01*
X0242818Y0251984D01*
X0238233Y0251984D01*
X0238233Y0244800D01*
X0238594Y0244800D01*
X0239307Y0244913D01*
X0239993Y0245136D01*
X0238233Y0245259D02*
X0238233Y0245259D01*
X0238233Y0247226D02*
X0238233Y0247226D01*
X0238233Y0249193D02*
X0238233Y0249193D01*
X0238233Y0251160D02*
X0238233Y0251160D01*
X0238233Y0251984D02*
X0238233Y0251984D01*
X0238233Y0251984D01*
X0238233Y0259168D01*
X0238594Y0259168D01*
X0239307Y0259056D01*
X0239993Y0258833D01*
X0240636Y0258505D01*
X0241220Y0258081D01*
X0241730Y0257571D01*
X0242154Y0256987D01*
X0242482Y0256344D01*
X0242705Y0255658D01*
X0242818Y0254945D01*
X0242818Y0251984D01*
X0238233Y0251984D01*
X0238233Y0253127D02*
X0238233Y0253127D01*
X0238233Y0255094D02*
X0238233Y0255094D01*
X0238233Y0257061D02*
X0238233Y0257061D01*
X0238233Y0259028D02*
X0238233Y0259028D01*
X0237074Y0259028D02*
X0233218Y0259028D01*
X0233218Y0260995D02*
X0258259Y0260995D01*
X0258258Y0262962D02*
X0233218Y0262962D01*
X0233218Y0264929D02*
X0258257Y0264929D01*
X0258257Y0266896D02*
X0233218Y0266896D01*
X0233218Y0268863D02*
X0258256Y0268863D01*
X0258255Y0270830D02*
X0233218Y0270830D01*
X0233218Y0272797D02*
X0258255Y0272797D01*
X0258254Y0274764D02*
X0232477Y0274764D01*
X0230536Y0276731D02*
X0258253Y0276731D01*
X0258252Y0278698D02*
X0228569Y0278698D01*
X0226601Y0280665D02*
X0258252Y0280665D01*
X0258251Y0282632D02*
X0223760Y0282632D01*
X0218233Y0266083D02*
X0218233Y0251984D01*
X0222602Y0245259D02*
X0223896Y0245259D01*
X0232571Y0245259D02*
X0236233Y0245259D01*
X0234188Y0247226D02*
X0233816Y0247226D01*
X0242278Y0247226D02*
X0258263Y0247226D01*
X0258263Y0249193D02*
X0242818Y0249193D01*
X0242818Y0251160D02*
X0258262Y0251160D01*
X0258261Y0253127D02*
X0242818Y0253127D01*
X0242794Y0255094D02*
X0258261Y0255094D01*
X0258260Y0257061D02*
X0242101Y0257061D01*
X0239393Y0259028D02*
X0258259Y0259028D01*
X0234366Y0257061D02*
X0233685Y0257061D01*
X0117891Y0186248D02*
X0018218Y0186248D01*
X0018218Y0184281D02*
X0117181Y0184281D01*
X0115214Y0182314D02*
X0018218Y0182314D01*
X0018218Y0180347D02*
X0070679Y0180347D01*
X0068712Y0178380D02*
X0018218Y0178380D01*
X0025570Y0176413D02*
X0028916Y0176413D01*
X0027559Y0174446D02*
X0027537Y0174446D01*
X0027964Y0168545D02*
X0026560Y0168545D01*
X0025406Y0166578D02*
X0029081Y0166578D01*
X0027762Y0158710D02*
X0026725Y0158710D01*
X0025241Y0156743D02*
X0029246Y0156743D01*
X0027279Y0154776D02*
X0027208Y0154776D01*
X0027043Y0144941D02*
X0027444Y0144941D01*
X0037550Y0176413D02*
X0066745Y0176413D01*
X0041399Y0188215D02*
X0018218Y0188215D01*
X0018480Y0190182D02*
X0039118Y0190182D01*
X0037151Y0192149D02*
X0020447Y0192149D01*
X0022414Y0194116D02*
X0035184Y0194116D01*
X0028974Y0196083D02*
X0027492Y0196083D01*
X0112868Y0188215D02*
X0115924Y0188215D01*
X0077559Y0060359D02*
X0077119Y0060359D01*
X0073233Y0060359D02*
X0073233Y0060359D01*
X0073233Y0058392D02*
X0073233Y0058392D01*
X0073233Y0056425D02*
X0073233Y0056425D01*
X0073233Y0054458D02*
X0073233Y0054458D01*
X0073233Y0052491D02*
X0073233Y0052491D01*
X0076001Y0052491D02*
X0077849Y0052491D01*
X0062185Y0048557D02*
X0006939Y0048557D01*
X0007067Y0015118D02*
X0043799Y0015118D01*
X0045695Y0013151D02*
X0007075Y0013151D01*
X0007082Y0011184D02*
X0163233Y0011184D01*
X0163233Y0013151D02*
X0062698Y0013151D01*
X0054787Y0013151D02*
X0053606Y0013151D01*
X0053606Y0015118D02*
X0054787Y0015118D01*
X0054787Y0017085D02*
X0053606Y0017085D01*
X0053606Y0021019D02*
X0054787Y0021019D01*
X0054787Y0022986D02*
X0053606Y0022986D01*
X0053606Y0024953D02*
X0054787Y0024953D01*
X0058047Y0028887D02*
X0044017Y0028887D01*
X0044673Y0030854D02*
X0057525Y0030854D01*
X0057525Y0032821D02*
X0044763Y0032821D01*
X0044763Y0034788D02*
X0057525Y0034788D01*
X0059006Y0026920D02*
X0042485Y0026920D01*
X0007090Y0009217D02*
X0163233Y0009217D01*
X0163233Y0007250D02*
X0007097Y0007250D01*
X0119882Y0021019D02*
X0139746Y0021019D01*
X0137779Y0022986D02*
X0121849Y0022986D01*
X0123231Y0024953D02*
X0136549Y0024953D01*
X0136549Y0026920D02*
X0124288Y0026920D01*
X0124618Y0028887D02*
X0136549Y0028887D01*
X0137650Y0030854D02*
X0124618Y0030854D01*
X0124618Y0032821D02*
X0139049Y0032821D01*
X0139049Y0034788D02*
X0124618Y0034788D01*
X0124410Y0036755D02*
X0139049Y0036755D01*
X0139049Y0038722D02*
X0123524Y0038722D01*
X0121144Y0040689D02*
X0139049Y0040689D01*
X0156837Y0030854D02*
X0163233Y0030854D01*
X0163233Y0028887D02*
X0158518Y0028887D01*
X0158518Y0026920D02*
X0163233Y0026920D01*
X0163233Y0024953D02*
X0158518Y0024953D01*
X0156708Y0022986D02*
X0163233Y0022986D01*
D31*
X0143233Y0026984D02*
X0143233Y0061984D01*
X0128233Y0076984D01*
X0128233Y0126083D01*
X0128233Y0137886D02*
X0128233Y0144613D01*
X0141958Y0158338D01*
X0133049Y0167246D02*
X0128233Y0162430D01*
X0128233Y0161984D01*
X0130822Y0169473D02*
X0133233Y0171884D01*
X0133233Y0181984D01*
X0126368Y0173927D02*
X0114425Y0161984D01*
X0088233Y0161984D01*
X0068233Y0141984D01*
X0033233Y0141984D01*
X0033233Y0131984D02*
X0068233Y0131984D01*
X0093233Y0156984D01*
X0113879Y0156984D01*
X0128595Y0171700D01*
X0124141Y0176155D02*
X0114971Y0166984D01*
X0083233Y0166984D01*
X0068233Y0151984D01*
X0033233Y0151984D01*
X0033233Y0161984D02*
X0068233Y0161984D01*
X0078233Y0171984D01*
X0115516Y0171984D01*
X0121914Y0178382D01*
X0119687Y0180609D02*
X0116062Y0176984D01*
X0073233Y0176984D01*
X0068233Y0171984D01*
X0033233Y0171984D01*
X0043233Y0191984D02*
X0111033Y0191984D01*
X0112833Y0193784D01*
X0116533Y0193784D01*
X0119687Y0190631D01*
X0119587Y0190631D01*
X0121914Y0192858D02*
X0117788Y0196984D01*
X0078233Y0196984D01*
X0063233Y0211984D01*
X0063233Y0216984D01*
X0053233Y0226984D01*
X0058233Y0231984D02*
X0033233Y0231984D01*
X0033233Y0241984D02*
X0048233Y0241984D01*
X0058233Y0231984D02*
X0068233Y0221984D01*
X0068233Y0211984D01*
X0079233Y0200984D01*
X0118333Y0200984D01*
X0124141Y0195177D01*
X0124141Y0195085D01*
X0126368Y0197312D02*
X0116696Y0206984D01*
X0113233Y0206984D01*
X0125033Y0211984D02*
X0098233Y0211984D01*
X0093233Y0216984D01*
X0093233Y0221984D01*
X0093233Y0226984D01*
X0103233Y0236984D01*
X0103233Y0261984D01*
X0108233Y0256984D02*
X0108233Y0226984D01*
X0113233Y0221984D01*
X0113433Y0221784D01*
X0119633Y0221784D01*
X0135197Y0206221D01*
X0135277Y0206221D01*
X0137504Y0208448D02*
X0125202Y0220749D01*
X0125202Y0244583D01*
X0135202Y0244583D02*
X0135433Y0244351D01*
X0135433Y0214884D01*
X0139643Y0210675D01*
X0139731Y0210675D01*
X0133049Y0203993D02*
X0133024Y0203993D01*
X0125033Y0211984D01*
X0130822Y0201766D02*
X0130822Y0201595D01*
X0135233Y0197184D01*
X0138033Y0197184D01*
X0138233Y0196984D01*
X0154633Y0173384D02*
X0153233Y0171984D01*
X0154633Y0173384D02*
X0159133Y0173384D01*
X0163044Y0169473D01*
X0163115Y0169473D01*
X0163144Y0169473D01*
X0168933Y0163684D01*
X0171533Y0163684D01*
X0178233Y0156984D01*
X0178233Y0150279D01*
X0173069Y0145114D01*
X0165998Y0152185D02*
X0165998Y0162137D01*
X0160888Y0167246D01*
X0165343Y0171700D02*
X0165343Y0171775D01*
X0165343Y0199493D02*
X0165243Y0199493D01*
X0165343Y0199539D02*
X0165343Y0199593D01*
X0168533Y0202784D01*
X0168533Y0206684D01*
X0168233Y0206984D01*
X0163115Y0201866D02*
X0163115Y0201766D01*
X0163015Y0201766D01*
X0138233Y0221984D02*
X0143233Y0226984D01*
X0113233Y0261984D02*
X0108233Y0256984D01*
X0095202Y0245016D02*
X0095202Y0244583D01*
X0078233Y0247886D02*
X0078233Y0261984D01*
X0078233Y0236083D02*
X0078233Y0226984D01*
X0048233Y0216984D02*
X0043233Y0221984D01*
X0033233Y0221984D01*
X0033233Y0201984D02*
X0043233Y0191984D01*
X0178233Y0241984D02*
X0193233Y0241984D01*
D32*
X0183233Y0276984D02*
X0207332Y0276984D01*
X0208233Y0277886D01*
X0209135Y0276984D01*
X0217332Y0276984D01*
X0223233Y0276984D01*
X0228233Y0271984D01*
X0228233Y0251984D01*
X0217332Y0276984D02*
X0218233Y0277886D01*
X0133233Y0186984D02*
X0133233Y0181984D01*
X0128233Y0161984D02*
X0128233Y0151984D01*
X0113233Y0136984D01*
X0113233Y0066984D01*
X0108233Y0061984D01*
X0098233Y0061984D01*
X0093233Y0066984D01*
X0093233Y0071984D01*
X0083233Y0081984D01*
X0073233Y0091984D01*
X0078233Y0081984D02*
X0063233Y0066984D01*
X0054135Y0066984D01*
X0042332Y0066984D02*
X0023233Y0066984D01*
X0018233Y0091984D02*
X0013233Y0096984D01*
X0013233Y0191984D01*
X0023233Y0201984D01*
X0013233Y0191984D02*
X0013233Y0256984D01*
X0018233Y0261984D01*
X0028233Y0261984D01*
X0058233Y0261984D02*
X0078233Y0261984D01*
X0078233Y0271984D01*
X0083233Y0276984D01*
X0093233Y0276984D01*
X0078233Y0261984D02*
X0095202Y0245016D01*
X0043233Y0091984D02*
X0028233Y0091984D01*
X0018233Y0091984D01*
X0078233Y0081984D02*
X0083233Y0081984D01*
X0103233Y0086984D02*
X0103233Y0071984D01*
X0098233Y0061984D02*
X0098233Y0051984D01*
D33*
X0073233Y0091984D03*
X0043233Y0091984D03*
X0133233Y0186984D03*
X0138233Y0196984D03*
X0153233Y0171984D03*
X0113233Y0206984D03*
X0143233Y0226984D03*
X0178233Y0241984D03*
X0183233Y0276984D03*
X0093233Y0276984D03*
X0058233Y0261984D03*
X0048233Y0241984D03*
X0053233Y0226984D03*
X0048233Y0216984D03*
X0078233Y0226984D03*
X0028233Y0261984D03*
D34*
X0028233Y0111984D02*
X0028233Y0101984D01*
X0028233Y0091984D01*
X0066133Y0036984D02*
X0078233Y0036984D01*
X0083233Y0041984D01*
X0083233Y0056984D01*
X0098233Y0051984D02*
X0098233Y0031984D01*
X0083233Y0021984D02*
X0113233Y0021984D01*
X0118233Y0026984D01*
X0118233Y0031984D01*
X0083233Y0021984D02*
X0072733Y0032484D01*
X0072733Y0036484D01*
D35*
X0065633Y0036484D01*
X0066133Y0036984D01*
X0128010Y0162207D02*
X0133049Y0167246D01*
X0138495Y0172246D01*
X0143233Y0176984D01*
X0150059Y0183810D01*
X0153233Y0183810D01*
X0165343Y0171700D01*
X0153233Y0183810D02*
X0153233Y0191984D01*
X0163015Y0201766D01*
X0143233Y0184901D02*
X0128595Y0199539D01*
X0143233Y0184901D02*
X0143233Y0176984D01*
M02*
