G75*
%MOIN*%
%OFA0B0*%
%FSLAX25Y25*%
%IPPOS*%
%LPD*%
%AMOC8*
5,1,8,0,0,1.08239X$1,22.5*
%
%ADD10C,0.00000*%
%ADD11C,0.01000*%
%ADD12C,0.00800*%
%ADD13C,0.00600*%
%ADD14C,0.00400*%
D10*
X0248233Y0001984D02*
X0262233Y0002284D01*
D11*
X0003233Y0001984D02*
X0002133Y0288384D01*
X0262133Y0288384D01*
X0262233Y0002284D01*
X0003233Y0001984D01*
X0123585Y0185620D02*
X0123587Y0185687D01*
X0123593Y0185753D01*
X0123603Y0185819D01*
X0123617Y0185884D01*
X0123634Y0185948D01*
X0123656Y0186011D01*
X0123681Y0186073D01*
X0123710Y0186133D01*
X0123743Y0186191D01*
X0123778Y0186247D01*
X0123818Y0186301D01*
X0123860Y0186352D01*
X0123905Y0186401D01*
X0123953Y0186447D01*
X0124004Y0186490D01*
X0124057Y0186530D01*
X0124113Y0186567D01*
X0124171Y0186600D01*
X0124230Y0186630D01*
X0124291Y0186656D01*
X0124354Y0186679D01*
X0124418Y0186697D01*
X0124483Y0186712D01*
X0124549Y0186723D01*
X0124615Y0186730D01*
X0124681Y0186733D01*
X0124748Y0186732D01*
X0124814Y0186727D01*
X0124880Y0186718D01*
X0124946Y0186705D01*
X0125010Y0186688D01*
X0125073Y0186668D01*
X0125135Y0186643D01*
X0125196Y0186615D01*
X0125255Y0186584D01*
X0125311Y0186549D01*
X0125366Y0186511D01*
X0125418Y0186469D01*
X0125467Y0186424D01*
X0125514Y0186377D01*
X0125558Y0186327D01*
X0125598Y0186274D01*
X0125636Y0186219D01*
X0125670Y0186162D01*
X0125701Y0186103D01*
X0125728Y0186042D01*
X0125751Y0185980D01*
X0125771Y0185916D01*
X0125787Y0185851D01*
X0125799Y0185786D01*
X0125807Y0185720D01*
X0125811Y0185653D01*
X0125811Y0185587D01*
X0125807Y0185520D01*
X0125799Y0185454D01*
X0125787Y0185389D01*
X0125771Y0185324D01*
X0125751Y0185260D01*
X0125728Y0185198D01*
X0125701Y0185137D01*
X0125670Y0185078D01*
X0125636Y0185021D01*
X0125598Y0184966D01*
X0125558Y0184913D01*
X0125514Y0184863D01*
X0125467Y0184816D01*
X0125418Y0184771D01*
X0125366Y0184729D01*
X0125311Y0184691D01*
X0125254Y0184656D01*
X0125196Y0184625D01*
X0125135Y0184597D01*
X0125073Y0184572D01*
X0125010Y0184552D01*
X0124946Y0184535D01*
X0124880Y0184522D01*
X0124814Y0184513D01*
X0124748Y0184508D01*
X0124681Y0184507D01*
X0124615Y0184510D01*
X0124549Y0184517D01*
X0124483Y0184528D01*
X0124418Y0184543D01*
X0124354Y0184561D01*
X0124291Y0184584D01*
X0124230Y0184610D01*
X0124171Y0184640D01*
X0124113Y0184673D01*
X0124057Y0184710D01*
X0124004Y0184750D01*
X0123953Y0184793D01*
X0123905Y0184839D01*
X0123860Y0184888D01*
X0123818Y0184939D01*
X0123778Y0184993D01*
X0123743Y0185049D01*
X0123710Y0185107D01*
X0123681Y0185167D01*
X0123656Y0185229D01*
X0123634Y0185292D01*
X0123617Y0185356D01*
X0123603Y0185421D01*
X0123593Y0185487D01*
X0123587Y0185553D01*
X0123585Y0185620D01*
D12*
X0121357Y0186733D02*
X0121357Y0184506D01*
X0145855Y0160008D01*
X0148082Y0160008D01*
X0172581Y0184506D01*
X0172581Y0186733D01*
X0148082Y0211232D01*
X0145855Y0211232D01*
X0121357Y0186733D01*
D13*
X0118789Y0174492D02*
X0117280Y0174492D01*
X0116525Y0173737D01*
X0116525Y0172227D01*
X0115015Y0172227D01*
X0114260Y0171472D01*
X0114260Y0169962D01*
X0115770Y0168453D01*
X0117280Y0168453D01*
X0118818Y0166915D02*
X0118818Y0165405D01*
X0120328Y0163895D01*
X0121837Y0163895D01*
X0124857Y0166915D01*
X0124857Y0168424D01*
X0123347Y0169934D01*
X0121837Y0169934D01*
X0120299Y0171472D02*
X0120299Y0172982D01*
X0118789Y0174492D01*
X0116525Y0172227D02*
X0117280Y0171472D01*
X0127140Y0166141D02*
X0128650Y0164631D01*
X0127895Y0165386D02*
X0123366Y0160857D01*
X0124121Y0160102D02*
X0122611Y0161611D01*
D14*
X0134201Y0132357D02*
X0133433Y0131590D01*
X0133433Y0130055D01*
X0134201Y0129288D01*
X0134968Y0129288D01*
X0135735Y0130055D01*
X0135735Y0131590D01*
X0134968Y0132357D01*
X0134201Y0132357D01*
X0135735Y0131590D02*
X0136503Y0132357D01*
X0137270Y0132357D01*
X0138037Y0131590D01*
X0138037Y0130055D01*
X0137270Y0129288D01*
X0136503Y0129288D01*
X0135735Y0130055D01*
X0135735Y0127754D02*
X0134968Y0126986D01*
X0134968Y0124684D01*
X0133433Y0124684D02*
X0138037Y0124684D01*
X0138037Y0126986D01*
X0137270Y0127754D01*
X0135735Y0127754D01*
X0134968Y0126219D02*
X0133433Y0127754D01*
X0049741Y0061788D02*
X0049741Y0057184D01*
X0049741Y0058719D02*
X0047439Y0058719D01*
X0046672Y0059486D01*
X0046672Y0061021D01*
X0047439Y0061788D01*
X0049741Y0061788D01*
X0048207Y0058719D02*
X0046672Y0057184D01*
X0045137Y0057184D02*
X0045137Y0057952D01*
X0042068Y0061021D01*
X0042068Y0061788D01*
X0045137Y0061788D01*
X0068433Y0240476D02*
X0073037Y0240476D01*
X0073037Y0242778D01*
X0072270Y0243546D01*
X0070735Y0243546D01*
X0069968Y0242778D01*
X0069968Y0240476D01*
X0069968Y0242011D02*
X0068433Y0243546D01*
X0069201Y0245080D02*
X0068433Y0245848D01*
X0068433Y0247382D01*
X0069201Y0248150D01*
X0069968Y0248150D01*
X0070735Y0247382D01*
X0070735Y0245080D01*
X0069201Y0245080D01*
X0070735Y0245080D02*
X0072270Y0246615D01*
X0073037Y0248150D01*
X0190933Y0266484D02*
X0195537Y0266484D01*
X0195537Y0268786D01*
X0194770Y0269554D01*
X0193235Y0269554D01*
X0192468Y0268786D01*
X0192468Y0266484D01*
X0192468Y0268019D02*
X0190933Y0269554D01*
X0191701Y0271088D02*
X0190933Y0271855D01*
X0190933Y0273390D01*
X0191701Y0274157D01*
X0192468Y0274157D01*
X0193235Y0273390D01*
X0193235Y0272623D01*
X0193235Y0273390D02*
X0194003Y0274157D01*
X0194770Y0274157D01*
X0195537Y0273390D01*
X0195537Y0271855D01*
X0194770Y0271088D01*
X0229833Y0269684D02*
X0234437Y0269684D01*
X0234437Y0271986D01*
X0233670Y0272754D01*
X0232135Y0272754D01*
X0231368Y0271986D01*
X0231368Y0269684D01*
X0231368Y0271219D02*
X0229833Y0272754D01*
X0229833Y0274288D02*
X0229833Y0277357D01*
X0229833Y0275823D02*
X0234437Y0275823D01*
X0232903Y0274288D01*
M02*
