G75*
%MOIN*%
%OFA0B0*%
%FSLAX25Y25*%
%IPPOS*%
%LPD*%
%AMOC8*
5,1,8,0,0,1.08239X$1,22.5*
%
%ADD10C,0.00000*%
%ADD11C,0.01000*%
%ADD12C,0.06300*%
%ADD13OC8,0.06300*%
%ADD14C,0.05600*%
%ADD15OC8,0.05600*%
%ADD16C,0.05200*%
%ADD17C,0.06000*%
%ADD18C,0.09449*%
%ADD19C,0.07000*%
%ADD20R,0.05906X0.01969*%
%ADD21R,0.01969X0.05906*%
%ADD22R,0.04724X0.07087*%
%ADD23R,0.07087X0.04724*%
%ADD24R,0.08799X0.04799*%
%ADD25R,0.08661X0.14173*%
%ADD26R,0.05906X0.05118*%
%ADD27R,0.05118X0.05906*%
%ADD28C,0.07800*%
%ADD29C,0.01969*%
%ADD30C,0.01600*%
%ADD31C,0.03562*%
%ADD32C,0.03200*%
%ADD33C,0.04000*%
%ADD34C,0.02400*%
%ADD35C,0.05000*%
D10*
X0247600Y0001984D02*
X0261600Y0002284D01*
D11*
X0002600Y0001984D02*
X0001500Y0288384D01*
X0261500Y0288384D01*
X0261600Y0002284D01*
X0002600Y0001984D01*
D12*
X0087600Y0051984D03*
X0092600Y0071984D03*
D13*
X0102600Y0071984D03*
X0077600Y0051984D03*
D14*
X0032600Y0171984D03*
D15*
X0032600Y0161984D03*
X0032600Y0151984D03*
X0032600Y0141984D03*
X0032600Y0131984D03*
X0022600Y0131984D03*
X0022600Y0141984D03*
X0022600Y0151984D03*
X0022600Y0161984D03*
X0022600Y0171984D03*
X0022600Y0201984D03*
X0032600Y0201984D03*
X0032600Y0211984D03*
X0032600Y0221984D03*
X0022600Y0221984D03*
X0022600Y0211984D03*
X0022600Y0231984D03*
X0022600Y0241984D03*
X0032600Y0241984D03*
X0032600Y0231984D03*
D16*
X0187600Y0249384D02*
X0187600Y0254584D01*
X0197600Y0254584D02*
X0197600Y0249384D01*
X0207600Y0249384D02*
X0207600Y0254584D01*
X0217600Y0254584D02*
X0217600Y0249384D01*
X0227600Y0249384D02*
X0227600Y0254584D01*
X0237600Y0254584D02*
X0237600Y0249384D01*
D17*
X0112600Y0224984D02*
X0112600Y0218984D01*
X0092600Y0218984D02*
X0092600Y0224984D01*
X0030600Y0111984D02*
X0024600Y0111984D01*
X0024600Y0101984D02*
X0030600Y0101984D01*
X0030600Y0091984D02*
X0024600Y0091984D01*
D18*
X0037421Y0041425D02*
X0037421Y0031976D01*
X0048839Y0018709D02*
X0058287Y0018709D01*
X0065000Y0031760D02*
X0065000Y0041209D01*
D19*
X0094569Y0256083D02*
X0094569Y0263083D01*
X0114569Y0263083D02*
X0114569Y0256083D01*
X0124569Y0256083D02*
X0124569Y0263083D01*
X0134569Y0263083D02*
X0134569Y0256083D01*
D20*
G36*
X0142717Y0210119D02*
X0138542Y0214294D01*
X0139933Y0215685D01*
X0144108Y0211510D01*
X0142717Y0210119D01*
G37*
G36*
X0140489Y0207892D02*
X0136314Y0212067D01*
X0137705Y0213458D01*
X0141880Y0209283D01*
X0140489Y0207892D01*
G37*
G36*
X0138262Y0205665D02*
X0134087Y0209840D01*
X0135478Y0211231D01*
X0139653Y0207056D01*
X0138262Y0205665D01*
G37*
G36*
X0136035Y0203438D02*
X0131860Y0207613D01*
X0133251Y0209004D01*
X0137426Y0204829D01*
X0136035Y0203438D01*
G37*
G36*
X0133808Y0201210D02*
X0129633Y0205385D01*
X0131024Y0206776D01*
X0135199Y0202601D01*
X0133808Y0201210D01*
G37*
G36*
X0131581Y0198983D02*
X0127406Y0203158D01*
X0128797Y0204549D01*
X0132972Y0200374D01*
X0131581Y0198983D01*
G37*
G36*
X0129354Y0196756D02*
X0125179Y0200931D01*
X0126570Y0202322D01*
X0130745Y0198147D01*
X0129354Y0196756D01*
G37*
G36*
X0127127Y0194529D02*
X0122952Y0198704D01*
X0124343Y0200095D01*
X0128518Y0195920D01*
X0127127Y0194529D01*
G37*
G36*
X0124900Y0192302D02*
X0120725Y0196477D01*
X0122116Y0197868D01*
X0126291Y0193693D01*
X0124900Y0192302D01*
G37*
G36*
X0122673Y0190075D02*
X0118498Y0194250D01*
X0119889Y0195641D01*
X0124064Y0191466D01*
X0122673Y0190075D01*
G37*
G36*
X0120445Y0187848D02*
X0116270Y0192023D01*
X0117661Y0193414D01*
X0121836Y0189239D01*
X0120445Y0187848D01*
G37*
G36*
X0152739Y0155555D02*
X0148564Y0159730D01*
X0149955Y0161121D01*
X0154130Y0156946D01*
X0152739Y0155555D01*
G37*
G36*
X0154966Y0157782D02*
X0150791Y0161957D01*
X0152182Y0163348D01*
X0156357Y0159173D01*
X0154966Y0157782D01*
G37*
G36*
X0157193Y0160009D02*
X0153018Y0164184D01*
X0154409Y0165575D01*
X0158584Y0161400D01*
X0157193Y0160009D01*
G37*
G36*
X0159420Y0162236D02*
X0155245Y0166411D01*
X0156636Y0167802D01*
X0160811Y0163627D01*
X0159420Y0162236D01*
G37*
G36*
X0161647Y0164463D02*
X0157472Y0168638D01*
X0158863Y0170029D01*
X0163038Y0165854D01*
X0161647Y0164463D01*
G37*
G36*
X0163874Y0166690D02*
X0159699Y0170865D01*
X0161090Y0172256D01*
X0165265Y0168081D01*
X0163874Y0166690D01*
G37*
G36*
X0166101Y0168917D02*
X0161926Y0173092D01*
X0163317Y0174483D01*
X0167492Y0170308D01*
X0166101Y0168917D01*
G37*
G36*
X0168328Y0171144D02*
X0164153Y0175319D01*
X0165544Y0176710D01*
X0169719Y0172535D01*
X0168328Y0171144D01*
G37*
G36*
X0170555Y0173372D02*
X0166380Y0177547D01*
X0167771Y0178938D01*
X0171946Y0174763D01*
X0170555Y0173372D01*
G37*
G36*
X0172783Y0175599D02*
X0168608Y0179774D01*
X0169999Y0181165D01*
X0174174Y0176990D01*
X0172783Y0175599D01*
G37*
G36*
X0175010Y0177826D02*
X0170835Y0182001D01*
X0172226Y0183392D01*
X0176401Y0179217D01*
X0175010Y0177826D01*
G37*
D21*
G36*
X0172226Y0187848D02*
X0170835Y0189239D01*
X0175010Y0193414D01*
X0176401Y0192023D01*
X0172226Y0187848D01*
G37*
G36*
X0169999Y0190075D02*
X0168608Y0191466D01*
X0172783Y0195641D01*
X0174174Y0194250D01*
X0169999Y0190075D01*
G37*
G36*
X0167771Y0192302D02*
X0166380Y0193693D01*
X0170555Y0197868D01*
X0171946Y0196477D01*
X0167771Y0192302D01*
G37*
G36*
X0165544Y0194529D02*
X0164153Y0195920D01*
X0168328Y0200095D01*
X0169719Y0198704D01*
X0165544Y0194529D01*
G37*
G36*
X0163317Y0196756D02*
X0161926Y0198147D01*
X0166101Y0202322D01*
X0167492Y0200931D01*
X0163317Y0196756D01*
G37*
G36*
X0161090Y0198983D02*
X0159699Y0200374D01*
X0163874Y0204549D01*
X0165265Y0203158D01*
X0161090Y0198983D01*
G37*
G36*
X0158863Y0201210D02*
X0157472Y0202601D01*
X0161647Y0206776D01*
X0163038Y0205385D01*
X0158863Y0201210D01*
G37*
G36*
X0156636Y0203438D02*
X0155245Y0204829D01*
X0159420Y0209004D01*
X0160811Y0207613D01*
X0156636Y0203438D01*
G37*
G36*
X0154409Y0205665D02*
X0153018Y0207056D01*
X0157193Y0211231D01*
X0158584Y0209840D01*
X0154409Y0205665D01*
G37*
G36*
X0152182Y0207892D02*
X0150791Y0209283D01*
X0154966Y0213458D01*
X0156357Y0212067D01*
X0152182Y0207892D01*
G37*
G36*
X0149955Y0210119D02*
X0148564Y0211510D01*
X0152739Y0215685D01*
X0154130Y0214294D01*
X0149955Y0210119D01*
G37*
G36*
X0119889Y0175599D02*
X0118498Y0176990D01*
X0122673Y0181165D01*
X0124064Y0179774D01*
X0119889Y0175599D01*
G37*
G36*
X0122116Y0173372D02*
X0120725Y0174763D01*
X0124900Y0178938D01*
X0126291Y0177547D01*
X0122116Y0173372D01*
G37*
G36*
X0124343Y0171144D02*
X0122952Y0172535D01*
X0127127Y0176710D01*
X0128518Y0175319D01*
X0124343Y0171144D01*
G37*
G36*
X0126570Y0168917D02*
X0125179Y0170308D01*
X0129354Y0174483D01*
X0130745Y0173092D01*
X0126570Y0168917D01*
G37*
G36*
X0128797Y0166690D02*
X0127406Y0168081D01*
X0131581Y0172256D01*
X0132972Y0170865D01*
X0128797Y0166690D01*
G37*
G36*
X0131024Y0164463D02*
X0129633Y0165854D01*
X0133808Y0170029D01*
X0135199Y0168638D01*
X0131024Y0164463D01*
G37*
G36*
X0133251Y0162236D02*
X0131860Y0163627D01*
X0136035Y0167802D01*
X0137426Y0166411D01*
X0133251Y0162236D01*
G37*
G36*
X0135478Y0160009D02*
X0134087Y0161400D01*
X0138262Y0165575D01*
X0139653Y0164184D01*
X0135478Y0160009D01*
G37*
G36*
X0137705Y0157782D02*
X0136314Y0159173D01*
X0140489Y0163348D01*
X0141880Y0161957D01*
X0137705Y0157782D01*
G37*
G36*
X0139933Y0155555D02*
X0138542Y0156946D01*
X0142717Y0161121D01*
X0144108Y0159730D01*
X0139933Y0155555D01*
G37*
G36*
X0117661Y0177826D02*
X0116270Y0179217D01*
X0120445Y0183392D01*
X0121836Y0182001D01*
X0117661Y0177826D01*
G37*
D22*
X0127600Y0137886D03*
X0127600Y0126083D03*
X0077600Y0236083D03*
X0077600Y0247886D03*
X0207600Y0266083D03*
X0217600Y0266083D03*
X0217600Y0277886D03*
X0207600Y0277886D03*
D23*
X0053502Y0066984D03*
X0041698Y0066984D03*
D24*
X0124801Y0041083D03*
X0124801Y0031984D03*
X0124801Y0022886D03*
D25*
X0100399Y0031984D03*
D26*
X0167600Y0148244D03*
X0167600Y0155724D03*
X0112600Y0238244D03*
X0112600Y0245724D03*
D27*
X0101340Y0241984D03*
X0093860Y0241984D03*
X0103860Y0141984D03*
X0111340Y0141984D03*
X0111340Y0131984D03*
X0103860Y0131984D03*
X0106340Y0056984D03*
X0098860Y0056984D03*
D28*
X0182700Y0035884D02*
X0182700Y0028084D01*
X0202500Y0028084D02*
X0202500Y0035884D01*
D29*
X0199814Y0042656D02*
X0142584Y0042656D01*
X0142584Y0040689D02*
X0179302Y0040689D01*
X0179616Y0040917D02*
X0178867Y0040373D01*
X0178212Y0039718D01*
X0177667Y0038968D01*
X0177247Y0038143D01*
X0176961Y0037262D01*
X0176816Y0036347D01*
X0176816Y0032300D01*
X0182384Y0032300D01*
X0182384Y0031668D01*
X0183016Y0031668D01*
X0183016Y0022200D01*
X0183163Y0022200D01*
X0184078Y0022345D01*
X0184959Y0022631D01*
X0185784Y0023052D01*
X0186533Y0023596D01*
X0187188Y0024251D01*
X0187733Y0025000D01*
X0188153Y0025825D01*
X0188439Y0026706D01*
X0188584Y0027621D01*
X0188584Y0031668D01*
X0183016Y0031668D01*
X0183016Y0032300D01*
X0188584Y0032300D01*
X0188584Y0036347D01*
X0188439Y0037262D01*
X0188153Y0038143D01*
X0187733Y0038968D01*
X0187188Y0039718D01*
X0186533Y0040373D01*
X0185784Y0040917D01*
X0184959Y0041337D01*
X0184078Y0041624D01*
X0183163Y0041768D01*
X0183016Y0041768D01*
X0183016Y0032300D01*
X0182384Y0032300D01*
X0182384Y0041768D01*
X0182237Y0041768D01*
X0181322Y0041624D01*
X0180441Y0041337D01*
X0179616Y0040917D01*
X0182384Y0040689D02*
X0183016Y0040689D01*
X0183016Y0038722D02*
X0182384Y0038722D01*
X0182384Y0036755D02*
X0183016Y0036755D01*
X0183016Y0034788D02*
X0182384Y0034788D01*
X0182384Y0032821D02*
X0183016Y0032821D01*
X0182384Y0031668D02*
X0176816Y0031668D01*
X0176816Y0027621D01*
X0176961Y0026706D01*
X0177247Y0025825D01*
X0177667Y0025000D01*
X0178212Y0024251D01*
X0178867Y0023596D01*
X0179616Y0023052D01*
X0180441Y0022631D01*
X0181322Y0022345D01*
X0182237Y0022200D01*
X0182384Y0022200D01*
X0182384Y0031668D01*
X0182384Y0030854D02*
X0183016Y0030854D01*
X0183016Y0028887D02*
X0182384Y0028887D01*
X0182384Y0026920D02*
X0183016Y0026920D01*
X0183016Y0024953D02*
X0182384Y0024953D01*
X0182384Y0022986D02*
X0183016Y0022986D01*
X0185655Y0022986D02*
X0197297Y0022986D01*
X0197516Y0022767D02*
X0197516Y0018949D01*
X0195535Y0016968D01*
X0149109Y0016968D01*
X0135775Y0025858D01*
X0134633Y0027000D01*
X0138591Y0027000D01*
X0140423Y0027759D01*
X0141825Y0029161D01*
X0142584Y0030993D01*
X0142584Y0050520D01*
X0142765Y0050957D01*
X0142765Y0053012D01*
X0141979Y0054910D01*
X0140526Y0056363D01*
X0138627Y0057150D01*
X0136573Y0057150D01*
X0134674Y0056363D01*
X0133221Y0054910D01*
X0132435Y0053012D01*
X0132435Y0050957D01*
X0132616Y0050520D01*
X0132616Y0036968D01*
X0131402Y0036968D01*
X0131117Y0037253D01*
X0130735Y0037411D01*
X0130788Y0037465D01*
X0131049Y0037917D01*
X0131185Y0038422D01*
X0131185Y0040867D01*
X0125016Y0040867D01*
X0125016Y0041298D01*
X0124585Y0041298D01*
X0124585Y0040867D01*
X0118417Y0040867D01*
X0118417Y0038422D01*
X0118552Y0037917D01*
X0118580Y0037868D01*
X0108114Y0037868D01*
X0108114Y0039744D01*
X0107599Y0040988D01*
X0106647Y0041940D01*
X0105403Y0042455D01*
X0095395Y0042455D01*
X0094151Y0041940D01*
X0093199Y0040988D01*
X0092684Y0039744D01*
X0092684Y0024224D01*
X0093199Y0022981D01*
X0094151Y0022029D01*
X0095395Y0021513D01*
X0105403Y0021513D01*
X0106647Y0022029D01*
X0107599Y0022981D01*
X0108114Y0024224D01*
X0108114Y0026100D01*
X0117076Y0026100D01*
X0117017Y0025959D01*
X0117017Y0019813D01*
X0117532Y0018569D01*
X0118484Y0017617D01*
X0119728Y0017102D01*
X0129874Y0017102D01*
X0130530Y0017374D01*
X0131138Y0016968D01*
X0094665Y0016968D01*
X0087584Y0024049D01*
X0087584Y0034920D01*
X0091825Y0039161D01*
X0092584Y0040993D01*
X0092584Y0047728D01*
X0093139Y0048283D01*
X0093499Y0049150D01*
X0096870Y0050647D01*
X0102092Y0050647D01*
X0103336Y0051162D01*
X0104221Y0052047D01*
X0106045Y0052047D01*
X0106045Y0056689D01*
X0106635Y0056689D01*
X0106635Y0052047D01*
X0109160Y0052047D01*
X0109665Y0052182D01*
X0110118Y0052444D01*
X0110487Y0052813D01*
X0110748Y0053266D01*
X0110883Y0053770D01*
X0110883Y0056689D01*
X0106636Y0056689D01*
X0106636Y0057280D01*
X0110883Y0057280D01*
X0110883Y0060198D01*
X0110748Y0060703D01*
X0110487Y0061155D01*
X0110118Y0061525D01*
X0109665Y0061786D01*
X0109160Y0061921D01*
X0106635Y0061921D01*
X0106635Y0057280D01*
X0106045Y0057280D01*
X0106045Y0061921D01*
X0104221Y0061921D01*
X0103336Y0062806D01*
X0102092Y0063321D01*
X0095628Y0063321D01*
X0094384Y0062806D01*
X0093432Y0061854D01*
X0092917Y0060610D01*
X0092917Y0059799D01*
X0089486Y0058275D01*
X0088900Y0058518D01*
X0086300Y0058518D01*
X0083899Y0057524D01*
X0082061Y0055686D01*
X0081797Y0055048D01*
X0079727Y0057118D01*
X0077600Y0057118D01*
X0077600Y0051984D01*
X0077600Y0046850D01*
X0079727Y0046850D01*
X0081797Y0048920D01*
X0082061Y0048283D01*
X0082616Y0047728D01*
X0082616Y0044049D01*
X0080535Y0041968D01*
X0073109Y0041968D01*
X0073109Y0042822D01*
X0071874Y0045802D01*
X0069593Y0048083D01*
X0066613Y0049317D01*
X0063387Y0049317D01*
X0060407Y0048083D01*
X0058126Y0045802D01*
X0056891Y0042822D01*
X0056891Y0030147D01*
X0058126Y0027167D01*
X0060133Y0025159D01*
X0059599Y0025303D01*
X0058727Y0025417D01*
X0054154Y0025417D01*
X0054154Y0019299D01*
X0064976Y0019299D01*
X0064881Y0020020D01*
X0064654Y0020870D01*
X0064317Y0021682D01*
X0063877Y0022444D01*
X0063342Y0023141D01*
X0062720Y0023763D01*
X0062255Y0024120D01*
X0063387Y0023651D01*
X0066613Y0023651D01*
X0069593Y0024886D01*
X0071874Y0027167D01*
X0073109Y0030147D01*
X0073109Y0032000D01*
X0077616Y0032000D01*
X0077616Y0020993D01*
X0078375Y0019161D01*
X0079777Y0017759D01*
X0089777Y0007759D01*
X0091609Y0007000D01*
X0147112Y0007000D01*
X0147605Y0006902D01*
X0148094Y0007000D01*
X0198591Y0007000D01*
X0200423Y0007759D01*
X0201825Y0009161D01*
X0206725Y0014061D01*
X0207484Y0015893D01*
X0207484Y0022767D01*
X0208675Y0023958D01*
X0209784Y0026635D01*
X0209784Y0037333D01*
X0208675Y0040010D01*
X0206626Y0042060D01*
X0203949Y0043168D01*
X0201051Y0043168D01*
X0198374Y0042060D01*
X0196325Y0040010D01*
X0195216Y0037333D01*
X0195216Y0026635D01*
X0196325Y0023958D01*
X0197516Y0022767D01*
X0197516Y0021019D02*
X0143034Y0021019D01*
X0145984Y0019052D02*
X0197516Y0019052D01*
X0195652Y0017085D02*
X0148935Y0017085D01*
X0140083Y0022986D02*
X0179745Y0022986D01*
X0177702Y0024953D02*
X0137133Y0024953D01*
X0134713Y0026920D02*
X0176927Y0026920D01*
X0176816Y0028887D02*
X0141551Y0028887D01*
X0142527Y0030854D02*
X0176816Y0030854D01*
X0176816Y0032821D02*
X0142584Y0032821D01*
X0142584Y0034788D02*
X0176816Y0034788D01*
X0176880Y0036755D02*
X0142584Y0036755D01*
X0142584Y0038722D02*
X0177542Y0038722D01*
X0186098Y0040689D02*
X0197003Y0040689D01*
X0195791Y0038722D02*
X0187858Y0038722D01*
X0188520Y0036755D02*
X0195216Y0036755D01*
X0195216Y0034788D02*
X0188584Y0034788D01*
X0188584Y0032821D02*
X0195216Y0032821D01*
X0195216Y0030854D02*
X0188584Y0030854D01*
X0188584Y0028887D02*
X0195216Y0028887D01*
X0195216Y0026920D02*
X0188473Y0026920D01*
X0187698Y0024953D02*
X0195913Y0024953D01*
X0207703Y0022986D02*
X0257709Y0022986D01*
X0257708Y0024953D02*
X0209087Y0024953D01*
X0209784Y0026920D02*
X0257707Y0026920D01*
X0257706Y0028887D02*
X0209784Y0028887D01*
X0209784Y0030854D02*
X0257706Y0030854D01*
X0257705Y0032821D02*
X0209784Y0032821D01*
X0209784Y0034788D02*
X0257704Y0034788D01*
X0257704Y0036755D02*
X0209784Y0036755D01*
X0209209Y0038722D02*
X0257703Y0038722D01*
X0257702Y0040689D02*
X0207997Y0040689D01*
X0205186Y0042656D02*
X0257702Y0042656D01*
X0257701Y0044623D02*
X0142584Y0044623D01*
X0142584Y0046590D02*
X0257700Y0046590D01*
X0257700Y0048557D02*
X0142584Y0048557D01*
X0142586Y0050524D02*
X0257699Y0050524D01*
X0257698Y0052491D02*
X0160250Y0052491D01*
X0160526Y0052605D02*
X0161979Y0054058D01*
X0162765Y0055957D01*
X0162765Y0058012D01*
X0161979Y0059910D01*
X0160526Y0061363D01*
X0158627Y0062150D01*
X0156626Y0062150D01*
X0131784Y0074570D01*
X0131784Y0119631D01*
X0131879Y0119670D01*
X0132831Y0120622D01*
X0133346Y0121866D01*
X0133346Y0130299D01*
X0132831Y0131543D01*
X0132390Y0131984D01*
X0132831Y0132425D01*
X0133346Y0133669D01*
X0133346Y0142102D01*
X0132831Y0143346D01*
X0132541Y0143637D01*
X0141405Y0152501D01*
X0141850Y0152685D01*
X0146336Y0157171D01*
X0150821Y0152685D01*
X0152065Y0152170D01*
X0153412Y0152170D01*
X0154655Y0152685D01*
X0156999Y0155029D01*
X0159110Y0157139D01*
X0161454Y0159483D01*
X0161500Y0159530D01*
X0161263Y0158957D01*
X0161263Y0152492D01*
X0161778Y0151248D01*
X0162663Y0150364D01*
X0162663Y0148539D01*
X0167305Y0148539D01*
X0167305Y0147949D01*
X0167895Y0147949D01*
X0167895Y0143701D01*
X0170814Y0143701D01*
X0171319Y0143836D01*
X0171771Y0144097D01*
X0172141Y0144467D01*
X0172402Y0144919D01*
X0172537Y0145424D01*
X0172537Y0147949D01*
X0167895Y0147949D01*
X0167895Y0148539D01*
X0172537Y0148539D01*
X0172537Y0150364D01*
X0173422Y0151248D01*
X0173937Y0152492D01*
X0173937Y0158957D01*
X0173422Y0160200D01*
X0172470Y0161152D01*
X0171433Y0161582D01*
X0171147Y0162271D01*
X0167561Y0165858D01*
X0168018Y0166047D01*
X0170362Y0168391D01*
X0172472Y0170502D01*
X0172472Y0170502D01*
X0174816Y0172846D01*
X0177043Y0175073D01*
X0179271Y0177300D01*
X0179786Y0178544D01*
X0179786Y0179890D01*
X0179271Y0181134D01*
X0174785Y0185620D01*
X0179271Y0190106D01*
X0179786Y0191350D01*
X0179786Y0192696D01*
X0179271Y0193940D01*
X0177110Y0196100D01*
X0181732Y0196100D01*
X0183270Y0196737D01*
X0188352Y0201819D01*
X0188627Y0201819D01*
X0190526Y0202605D01*
X0191979Y0204058D01*
X0192765Y0205957D01*
X0192765Y0208012D01*
X0191979Y0209910D01*
X0190526Y0211363D01*
X0188627Y0212150D01*
X0186573Y0212150D01*
X0184674Y0211363D01*
X0183221Y0209910D01*
X0182435Y0208012D01*
X0182435Y0207736D01*
X0181165Y0206467D01*
X0181165Y0207312D01*
X0180379Y0209210D01*
X0178926Y0210663D01*
X0177027Y0211450D01*
X0174973Y0211450D01*
X0173074Y0210663D01*
X0171621Y0209210D01*
X0170835Y0207312D01*
X0170835Y0207036D01*
X0168351Y0204553D01*
X0168135Y0205075D01*
X0165791Y0207419D01*
X0163564Y0209646D01*
X0161454Y0211757D01*
X0159110Y0214101D01*
X0159110Y0214101D01*
X0156883Y0216328D01*
X0154655Y0218555D01*
X0153412Y0219070D01*
X0152065Y0219070D01*
X0150821Y0218555D01*
X0146336Y0214069D01*
X0145028Y0215376D01*
X0145028Y0215376D01*
X0141968Y0218436D01*
X0141968Y0220435D01*
X0143352Y0221819D01*
X0143627Y0221819D01*
X0145526Y0222605D01*
X0146979Y0224058D01*
X0147765Y0225957D01*
X0147765Y0228012D01*
X0146979Y0229910D01*
X0145526Y0231363D01*
X0143627Y0232150D01*
X0141573Y0232150D01*
X0139674Y0231363D01*
X0138984Y0230673D01*
X0138984Y0243552D01*
X0138996Y0243583D01*
X0138984Y0244383D01*
X0138984Y0245183D01*
X0138972Y0245214D01*
X0138889Y0250667D01*
X0140405Y0252183D01*
X0141453Y0254713D01*
X0141453Y0264452D01*
X0140405Y0266982D01*
X0138468Y0268919D01*
X0135938Y0269967D01*
X0133199Y0269967D01*
X0130669Y0268919D01*
X0129568Y0267818D01*
X0128468Y0268919D01*
X0125938Y0269967D01*
X0123199Y0269967D01*
X0120669Y0268919D01*
X0118732Y0266982D01*
X0118642Y0266765D01*
X0118141Y0267266D01*
X0117443Y0267773D01*
X0116674Y0268165D01*
X0115853Y0268432D01*
X0115000Y0268567D01*
X0114569Y0268567D01*
X0114569Y0259583D01*
X0114568Y0259583D01*
X0114568Y0259583D01*
X0109084Y0259583D01*
X0109084Y0263514D01*
X0109219Y0264367D01*
X0109486Y0265188D01*
X0109878Y0265957D01*
X0110385Y0266655D01*
X0110996Y0267266D01*
X0111694Y0267773D01*
X0112463Y0268165D01*
X0113284Y0268432D01*
X0114137Y0268567D01*
X0114568Y0268567D01*
X0114568Y0259583D01*
X0109084Y0259583D01*
X0109084Y0255651D01*
X0109219Y0254798D01*
X0109486Y0253977D01*
X0109878Y0253208D01*
X0110385Y0252510D01*
X0110996Y0251900D01*
X0111694Y0251392D01*
X0112463Y0251000D01*
X0113284Y0250733D01*
X0114137Y0250598D01*
X0114568Y0250598D01*
X0114568Y0259583D01*
X0114569Y0259583D01*
X0114569Y0250598D01*
X0115000Y0250598D01*
X0115853Y0250733D01*
X0116674Y0251000D01*
X0117443Y0251392D01*
X0118141Y0251900D01*
X0118642Y0252401D01*
X0118732Y0252183D01*
X0120384Y0250531D01*
X0120384Y0221168D01*
X0119333Y0221168D01*
X0118984Y0221517D01*
X0118984Y0226254D01*
X0118012Y0228601D01*
X0116784Y0229829D01*
X0116784Y0232532D01*
X0117470Y0232816D01*
X0118422Y0233768D01*
X0118937Y0235012D01*
X0118937Y0241476D01*
X0118422Y0242720D01*
X0117537Y0243605D01*
X0117537Y0245429D01*
X0112895Y0245429D01*
X0112895Y0246020D01*
X0112305Y0246020D01*
X0112305Y0250268D01*
X0109386Y0250268D01*
X0108881Y0250132D01*
X0108429Y0249871D01*
X0108059Y0249502D01*
X0107798Y0249049D01*
X0107663Y0248545D01*
X0107663Y0246020D01*
X0112305Y0246020D01*
X0112305Y0245429D01*
X0107663Y0245429D01*
X0107663Y0243605D01*
X0106778Y0242720D01*
X0106263Y0241476D01*
X0106263Y0235012D01*
X0106778Y0233768D01*
X0107730Y0232816D01*
X0108416Y0232532D01*
X0108416Y0229829D01*
X0107188Y0228601D01*
X0106216Y0226254D01*
X0106216Y0217714D01*
X0106897Y0216068D01*
X0099433Y0216068D01*
X0098634Y0216868D01*
X0098984Y0217714D01*
X0098984Y0226254D01*
X0098012Y0228601D01*
X0096784Y0229829D01*
X0096784Y0235647D01*
X0097092Y0235647D01*
X0098336Y0236162D01*
X0099221Y0237047D01*
X0101045Y0237047D01*
X0101045Y0241689D01*
X0101635Y0241689D01*
X0101635Y0237047D01*
X0104160Y0237047D01*
X0104665Y0237182D01*
X0105118Y0237444D01*
X0105487Y0237813D01*
X0105748Y0238266D01*
X0105883Y0238770D01*
X0105883Y0241689D01*
X0101636Y0241689D01*
X0101636Y0242280D01*
X0105883Y0242280D01*
X0105883Y0245198D01*
X0105748Y0245703D01*
X0105487Y0246155D01*
X0105118Y0246525D01*
X0104665Y0246786D01*
X0104160Y0246921D01*
X0101635Y0246921D01*
X0101635Y0242280D01*
X0101045Y0242280D01*
X0101045Y0246921D01*
X0099221Y0246921D01*
X0098336Y0247806D01*
X0097092Y0248321D01*
X0090628Y0248321D01*
X0089384Y0247806D01*
X0088432Y0246854D01*
X0087917Y0245610D01*
X0087917Y0238358D01*
X0088416Y0237153D01*
X0088416Y0229829D01*
X0087188Y0228601D01*
X0086216Y0226254D01*
X0086216Y0217714D01*
X0087188Y0215368D01*
X0088984Y0213572D01*
X0090881Y0212786D01*
X0093489Y0210178D01*
X0093221Y0209910D01*
X0092435Y0208012D01*
X0092435Y0205957D01*
X0092761Y0205168D01*
X0080333Y0205168D01*
X0071784Y0213717D01*
X0071784Y0222817D01*
X0071147Y0224354D01*
X0061147Y0234354D01*
X0059970Y0235531D01*
X0058432Y0236168D01*
X0037162Y0236168D01*
X0036346Y0236984D01*
X0037162Y0237800D01*
X0044479Y0237800D01*
X0044674Y0237605D01*
X0046573Y0236819D01*
X0048627Y0236819D01*
X0050526Y0237605D01*
X0051979Y0239058D01*
X0052765Y0240957D01*
X0052765Y0243012D01*
X0051979Y0244910D01*
X0050526Y0246363D01*
X0048627Y0247150D01*
X0046573Y0247150D01*
X0044674Y0246363D01*
X0044479Y0246168D01*
X0037162Y0246168D01*
X0035162Y0248168D01*
X0030038Y0248168D01*
X0026610Y0244740D01*
X0024582Y0246768D01*
X0022600Y0246768D01*
X0020618Y0246768D01*
X0017816Y0243966D01*
X0017816Y0241984D01*
X0017816Y0240003D01*
X0020618Y0237200D01*
X0022600Y0237200D01*
X0024582Y0237200D01*
X0026610Y0239228D01*
X0028854Y0236984D01*
X0026610Y0234740D01*
X0024582Y0236768D01*
X0022600Y0236768D01*
X0020618Y0236768D01*
X0017816Y0233966D01*
X0017816Y0231984D01*
X0017816Y0230003D01*
X0019844Y0227974D01*
X0017584Y0225714D01*
X0017584Y0254920D01*
X0019665Y0257000D01*
X0026135Y0257000D01*
X0026573Y0256819D01*
X0028627Y0256819D01*
X0030526Y0257605D01*
X0031979Y0259058D01*
X0032765Y0260957D01*
X0032765Y0263012D01*
X0031979Y0264910D01*
X0030526Y0266363D01*
X0028627Y0267150D01*
X0026573Y0267150D01*
X0026135Y0266968D01*
X0016609Y0266968D01*
X0014777Y0266210D01*
X0013375Y0264808D01*
X0009777Y0261210D01*
X0008375Y0259808D01*
X0007616Y0257976D01*
X0007616Y0095993D01*
X0008375Y0094161D01*
X0009777Y0092759D01*
X0014777Y0087759D01*
X0016609Y0087000D01*
X0020556Y0087000D01*
X0020984Y0086572D01*
X0023330Y0085600D01*
X0031870Y0085600D01*
X0034216Y0086572D01*
X0034644Y0087000D01*
X0041135Y0087000D01*
X0041573Y0086819D01*
X0043627Y0086819D01*
X0045526Y0087605D01*
X0046979Y0089058D01*
X0047765Y0090957D01*
X0047765Y0093012D01*
X0046979Y0094910D01*
X0045526Y0096363D01*
X0043627Y0097150D01*
X0041573Y0097150D01*
X0041135Y0096968D01*
X0034644Y0096968D01*
X0034629Y0096984D01*
X0036012Y0098368D01*
X0036984Y0100714D01*
X0036984Y0103254D01*
X0036012Y0105601D01*
X0034629Y0106984D01*
X0036012Y0108368D01*
X0036984Y0110714D01*
X0036984Y0113254D01*
X0036012Y0115601D01*
X0034216Y0117397D01*
X0031870Y0118368D01*
X0023330Y0118368D01*
X0020984Y0117397D01*
X0019188Y0115601D01*
X0018216Y0113254D01*
X0018216Y0110714D01*
X0019188Y0108368D01*
X0020571Y0106984D01*
X0019188Y0105601D01*
X0018216Y0103254D01*
X0018216Y0100714D01*
X0019188Y0098368D01*
X0020571Y0096984D01*
X0020556Y0096968D01*
X0019665Y0096968D01*
X0017584Y0099049D01*
X0017584Y0189920D01*
X0023465Y0195800D01*
X0025162Y0195800D01*
X0027600Y0198238D01*
X0030038Y0195800D01*
X0032867Y0195800D01*
X0039053Y0189614D01*
X0040230Y0188437D01*
X0041768Y0187800D01*
X0111232Y0187800D01*
X0112770Y0188437D01*
X0113920Y0189587D01*
X0117886Y0185620D01*
X0113435Y0181168D01*
X0071768Y0181168D01*
X0070230Y0180531D01*
X0069053Y0179354D01*
X0065867Y0176168D01*
X0037162Y0176168D01*
X0036103Y0177227D01*
X0033830Y0178168D01*
X0031370Y0178168D01*
X0029097Y0177227D01*
X0027357Y0175487D01*
X0026920Y0174431D01*
X0024582Y0176768D01*
X0022600Y0176768D01*
X0020618Y0176768D01*
X0017816Y0173966D01*
X0017816Y0171984D01*
X0017816Y0170003D01*
X0020618Y0167200D01*
X0022600Y0167200D01*
X0024582Y0167200D01*
X0026920Y0169538D01*
X0027357Y0168481D01*
X0028854Y0166984D01*
X0026610Y0164740D01*
X0024582Y0166768D01*
X0022600Y0166768D01*
X0020618Y0166768D01*
X0017816Y0163966D01*
X0017816Y0161984D01*
X0017816Y0160003D01*
X0020618Y0157200D01*
X0022600Y0157200D01*
X0024582Y0157200D01*
X0026610Y0159228D01*
X0028854Y0156984D01*
X0026610Y0154740D01*
X0024582Y0156768D01*
X0022600Y0156768D01*
X0020618Y0156768D01*
X0017816Y0153966D01*
X0017816Y0151984D01*
X0017816Y0150003D01*
X0020618Y0147200D01*
X0022600Y0147200D01*
X0024582Y0147200D01*
X0026610Y0149228D01*
X0028854Y0146984D01*
X0026610Y0144740D01*
X0024582Y0146768D01*
X0022600Y0146768D01*
X0020618Y0146768D01*
X0017816Y0143966D01*
X0017816Y0141984D01*
X0017816Y0140003D01*
X0020618Y0137200D01*
X0022600Y0137200D01*
X0024582Y0137200D01*
X0026610Y0139228D01*
X0028854Y0136984D01*
X0026610Y0134740D01*
X0024582Y0136768D01*
X0022600Y0136768D01*
X0020618Y0136768D01*
X0017816Y0133966D01*
X0017816Y0131984D01*
X0017816Y0130003D01*
X0020618Y0127200D01*
X0022600Y0127200D01*
X0024582Y0127200D01*
X0026610Y0129228D01*
X0030038Y0125800D01*
X0035162Y0125800D01*
X0037162Y0127800D01*
X0068432Y0127800D01*
X0069970Y0128437D01*
X0094333Y0152800D01*
X0110921Y0152800D01*
X0108915Y0150794D01*
X0108437Y0150450D01*
X0108220Y0150099D01*
X0107929Y0149808D01*
X0107704Y0149264D01*
X0107394Y0148764D01*
X0107328Y0148357D01*
X0107170Y0147976D01*
X0107170Y0147933D01*
X0106864Y0147806D01*
X0105979Y0146921D01*
X0104155Y0146921D01*
X0104155Y0142280D01*
X0103565Y0142280D01*
X0103565Y0146921D01*
X0101040Y0146921D01*
X0100535Y0146786D01*
X0100082Y0146525D01*
X0099713Y0146155D01*
X0099452Y0145703D01*
X0099317Y0145198D01*
X0099317Y0142280D01*
X0103564Y0142280D01*
X0103564Y0141689D01*
X0099317Y0141689D01*
X0099317Y0138770D01*
X0099452Y0138266D01*
X0099713Y0137813D01*
X0100082Y0137444D01*
X0100535Y0137182D01*
X0101040Y0137047D01*
X0103565Y0137047D01*
X0103565Y0141689D01*
X0104155Y0141689D01*
X0104155Y0137047D01*
X0105979Y0137047D01*
X0106042Y0136984D01*
X0105979Y0136921D01*
X0104155Y0136921D01*
X0104155Y0132280D01*
X0103565Y0132280D01*
X0103565Y0136921D01*
X0101040Y0136921D01*
X0100535Y0136786D01*
X0100082Y0136525D01*
X0099713Y0136155D01*
X0099452Y0135703D01*
X0099317Y0135198D01*
X0099317Y0132280D01*
X0103564Y0132280D01*
X0103564Y0131689D01*
X0099317Y0131689D01*
X0099317Y0128770D01*
X0099452Y0128266D01*
X0099713Y0127813D01*
X0100082Y0127444D01*
X0100535Y0127182D01*
X0101040Y0127047D01*
X0103565Y0127047D01*
X0103565Y0131689D01*
X0104155Y0131689D01*
X0104155Y0127047D01*
X0105979Y0127047D01*
X0106356Y0126671D01*
X0106356Y0090561D01*
X0093530Y0087354D01*
X0080775Y0095858D01*
X0080423Y0096210D01*
X0079959Y0096402D01*
X0079540Y0096681D01*
X0079051Y0096778D01*
X0078591Y0096968D01*
X0078088Y0096968D01*
X0077595Y0097066D01*
X0077106Y0096968D01*
X0074065Y0096968D01*
X0073627Y0097150D01*
X0071573Y0097150D01*
X0069674Y0096363D01*
X0068221Y0094910D01*
X0067435Y0093012D01*
X0067435Y0090957D01*
X0068221Y0089058D01*
X0069674Y0087605D01*
X0071573Y0086819D01*
X0073627Y0086819D01*
X0074065Y0087000D01*
X0076091Y0087000D01*
X0087616Y0079317D01*
X0087616Y0076968D01*
X0073409Y0076968D01*
X0073236Y0077026D01*
X0072423Y0076968D01*
X0071609Y0076968D01*
X0071440Y0076899D01*
X0071258Y0076886D01*
X0070529Y0076521D01*
X0069777Y0076210D01*
X0069648Y0076081D01*
X0061423Y0071968D01*
X0059209Y0071968D01*
X0058962Y0072215D01*
X0057718Y0072731D01*
X0049285Y0072731D01*
X0048041Y0072215D01*
X0047600Y0071774D01*
X0047159Y0072215D01*
X0045915Y0072731D01*
X0037482Y0072731D01*
X0036238Y0072215D01*
X0035286Y0071263D01*
X0034771Y0070020D01*
X0034771Y0065974D01*
X0034053Y0065256D01*
X0033416Y0063718D01*
X0033416Y0063717D01*
X0031848Y0062150D01*
X0031573Y0062150D01*
X0029674Y0061363D01*
X0028221Y0059910D01*
X0027435Y0058012D01*
X0027435Y0055957D01*
X0028221Y0054058D01*
X0029674Y0052605D01*
X0031573Y0051819D01*
X0033627Y0051819D01*
X0035526Y0052605D01*
X0036979Y0054058D01*
X0037765Y0055957D01*
X0037765Y0056232D01*
X0039970Y0058437D01*
X0041147Y0059614D01*
X0041784Y0061152D01*
X0041784Y0061153D01*
X0041869Y0061238D01*
X0045915Y0061238D01*
X0047159Y0061753D01*
X0047600Y0062194D01*
X0048041Y0061753D01*
X0049285Y0061238D01*
X0057718Y0061238D01*
X0058962Y0061753D01*
X0059209Y0062000D01*
X0061791Y0062000D01*
X0061964Y0061942D01*
X0062777Y0062000D01*
X0063591Y0062000D01*
X0063760Y0062070D01*
X0063942Y0062083D01*
X0064671Y0062447D01*
X0065423Y0062759D01*
X0065552Y0062888D01*
X0073777Y0067000D01*
X0088343Y0067000D01*
X0088899Y0066445D01*
X0091300Y0065450D01*
X0093900Y0065450D01*
X0096301Y0066445D01*
X0098139Y0068283D01*
X0098403Y0068920D01*
X0100473Y0066850D01*
X0102600Y0066850D01*
X0104727Y0066850D01*
X0107734Y0069858D01*
X0107734Y0071984D01*
X0102600Y0071984D01*
X0102600Y0066850D01*
X0102600Y0071984D01*
X0102600Y0071984D01*
X0102600Y0071984D01*
X0107734Y0071984D01*
X0107734Y0074111D01*
X0104727Y0077118D01*
X0102600Y0077118D01*
X0102600Y0071984D01*
X0102600Y0077118D01*
X0100473Y0077118D01*
X0098403Y0075048D01*
X0098139Y0075686D01*
X0097584Y0076241D01*
X0097584Y0078093D01*
X0111071Y0081464D01*
X0112616Y0079920D01*
X0112616Y0068449D01*
X0112435Y0068012D01*
X0112435Y0065957D01*
X0113221Y0064058D01*
X0114674Y0062605D01*
X0116573Y0061819D01*
X0118627Y0061819D01*
X0120526Y0062605D01*
X0121979Y0064058D01*
X0122765Y0065957D01*
X0122765Y0068012D01*
X0122584Y0068449D01*
X0122584Y0082976D01*
X0121825Y0084808D01*
X0116825Y0089808D01*
X0116385Y0090248D01*
X0116324Y0090330D01*
X0116324Y0126671D01*
X0116768Y0127114D01*
X0117283Y0128358D01*
X0117283Y0135610D01*
X0116768Y0136854D01*
X0116638Y0136984D01*
X0116768Y0137114D01*
X0117283Y0138358D01*
X0117283Y0145065D01*
X0131460Y0159241D01*
X0133561Y0157139D01*
X0133561Y0157139D01*
X0133885Y0156815D01*
X0124053Y0146983D01*
X0123416Y0145445D01*
X0123416Y0144337D01*
X0123321Y0144298D01*
X0122369Y0143346D01*
X0121854Y0142102D01*
X0121854Y0133669D01*
X0122369Y0132425D01*
X0122810Y0131984D01*
X0122369Y0131543D01*
X0121854Y0130299D01*
X0121854Y0121866D01*
X0122369Y0120622D01*
X0123321Y0119670D01*
X0123416Y0119631D01*
X0123416Y0072133D01*
X0123367Y0071451D01*
X0123416Y0071305D01*
X0123416Y0071152D01*
X0123677Y0070520D01*
X0123894Y0069871D01*
X0123994Y0069756D01*
X0124053Y0069614D01*
X0124536Y0069131D01*
X0124984Y0068614D01*
X0125121Y0068545D01*
X0125230Y0068437D01*
X0125862Y0068175D01*
X0152993Y0054610D01*
X0153221Y0054058D01*
X0154674Y0052605D01*
X0156573Y0051819D01*
X0158627Y0051819D01*
X0160526Y0052605D01*
X0162145Y0054458D02*
X0257698Y0054458D01*
X0257697Y0056425D02*
X0162765Y0056425D01*
X0162608Y0058392D02*
X0257696Y0058392D01*
X0257695Y0060359D02*
X0161530Y0060359D01*
X0156272Y0062326D02*
X0257695Y0062326D01*
X0257694Y0064293D02*
X0152338Y0064293D01*
X0148404Y0066260D02*
X0257693Y0066260D01*
X0257693Y0068227D02*
X0144470Y0068227D01*
X0140536Y0070194D02*
X0257692Y0070194D01*
X0257691Y0072161D02*
X0136602Y0072161D01*
X0132668Y0074128D02*
X0257691Y0074128D01*
X0257690Y0076095D02*
X0131784Y0076095D01*
X0131784Y0078062D02*
X0257689Y0078062D01*
X0257689Y0080029D02*
X0131784Y0080029D01*
X0131784Y0081996D02*
X0257688Y0081996D01*
X0257687Y0083963D02*
X0131784Y0083963D01*
X0131784Y0085930D02*
X0257687Y0085930D01*
X0257686Y0087897D02*
X0131784Y0087897D01*
X0131784Y0089864D02*
X0257685Y0089864D01*
X0257684Y0091831D02*
X0131784Y0091831D01*
X0131784Y0093798D02*
X0257684Y0093798D01*
X0257683Y0095765D02*
X0131784Y0095765D01*
X0131784Y0097732D02*
X0257682Y0097732D01*
X0257682Y0099699D02*
X0131784Y0099699D01*
X0131784Y0101666D02*
X0257681Y0101666D01*
X0257680Y0103633D02*
X0131784Y0103633D01*
X0131784Y0105601D02*
X0257680Y0105601D01*
X0257679Y0107568D02*
X0131784Y0107568D01*
X0131784Y0109535D02*
X0257678Y0109535D01*
X0257678Y0111502D02*
X0131784Y0111502D01*
X0131784Y0113469D02*
X0257677Y0113469D01*
X0257676Y0115436D02*
X0131784Y0115436D01*
X0131784Y0117403D02*
X0257676Y0117403D01*
X0257675Y0119370D02*
X0131784Y0119370D01*
X0133127Y0121337D02*
X0257674Y0121337D01*
X0257673Y0123304D02*
X0133346Y0123304D01*
X0133346Y0125271D02*
X0257673Y0125271D01*
X0257672Y0127238D02*
X0133346Y0127238D01*
X0133346Y0129205D02*
X0257671Y0129205D01*
X0257671Y0131172D02*
X0132985Y0131172D01*
X0133127Y0133139D02*
X0257670Y0133139D01*
X0257669Y0135106D02*
X0133346Y0135106D01*
X0133346Y0137073D02*
X0257669Y0137073D01*
X0257668Y0139040D02*
X0133346Y0139040D01*
X0133346Y0141007D02*
X0257667Y0141007D01*
X0257667Y0142974D02*
X0132985Y0142974D01*
X0133845Y0144941D02*
X0162792Y0144941D01*
X0162798Y0144919D02*
X0163059Y0144467D01*
X0163429Y0144097D01*
X0163881Y0143836D01*
X0164386Y0143701D01*
X0167305Y0143701D01*
X0167305Y0147949D01*
X0162663Y0147949D01*
X0162663Y0145424D01*
X0162798Y0144919D01*
X0162663Y0146908D02*
X0135812Y0146908D01*
X0137779Y0148875D02*
X0162663Y0148875D01*
X0162185Y0150842D02*
X0139746Y0150842D01*
X0141974Y0152809D02*
X0150697Y0152809D01*
X0148730Y0154776D02*
X0143941Y0154776D01*
X0145908Y0156743D02*
X0146763Y0156743D01*
X0146336Y0162289D02*
X0144750Y0163874D01*
X0142406Y0166218D01*
X0140333Y0168291D01*
X0140365Y0168321D01*
X0140459Y0168360D01*
X0141034Y0168935D01*
X0141634Y0169486D01*
X0141677Y0169578D01*
X0145197Y0173098D01*
X0151013Y0178914D01*
X0157004Y0172923D01*
X0156946Y0172899D01*
X0154719Y0170672D01*
X0152375Y0168328D01*
X0152375Y0168328D01*
X0150265Y0166218D01*
X0150265Y0166218D01*
X0148038Y0163991D01*
X0146336Y0162289D01*
X0145980Y0162644D02*
X0146691Y0162644D01*
X0148658Y0164611D02*
X0144013Y0164611D01*
X0142406Y0166218D02*
X0142406Y0166218D01*
X0142046Y0166578D02*
X0150625Y0166578D01*
X0152592Y0168545D02*
X0140644Y0168545D01*
X0142611Y0170512D02*
X0154559Y0170512D01*
X0156526Y0172479D02*
X0144578Y0172479D01*
X0145197Y0173098D02*
X0145197Y0173098D01*
X0146545Y0174446D02*
X0155480Y0174446D01*
X0153513Y0176413D02*
X0148512Y0176413D01*
X0150479Y0178380D02*
X0151546Y0178380D01*
X0146529Y0187396D02*
X0146486Y0187498D01*
X0135668Y0198317D01*
X0135725Y0198341D01*
X0137952Y0200568D01*
X0140296Y0202912D01*
X0142406Y0205022D01*
X0142406Y0205022D01*
X0144634Y0207249D01*
X0146336Y0208951D01*
X0147921Y0207366D01*
X0150265Y0205022D01*
X0152375Y0202912D01*
X0152375Y0202912D01*
X0154602Y0200684D01*
X0154710Y0200577D01*
X0150003Y0195871D01*
X0148714Y0194581D01*
X0148016Y0192896D01*
X0148016Y0188188D01*
X0146829Y0187696D01*
X0146529Y0187396D01*
X0145769Y0188215D02*
X0148016Y0188215D01*
X0148016Y0190182D02*
X0143802Y0190182D01*
X0141835Y0192149D02*
X0148016Y0192149D01*
X0148521Y0194116D02*
X0139868Y0194116D01*
X0137901Y0196083D02*
X0150216Y0196083D01*
X0152183Y0198050D02*
X0135934Y0198050D01*
X0137402Y0200017D02*
X0154150Y0200017D01*
X0153302Y0201984D02*
X0139369Y0201984D01*
X0140296Y0202912D02*
X0140296Y0202912D01*
X0141336Y0203951D02*
X0151335Y0203951D01*
X0150265Y0205022D02*
X0150265Y0205022D01*
X0149368Y0205918D02*
X0143303Y0205918D01*
X0144634Y0207249D02*
X0144634Y0207249D01*
X0145270Y0207885D02*
X0147401Y0207885D01*
X0141325Y0212902D02*
X0137600Y0216626D01*
X0137600Y0221984D01*
X0141968Y0219687D02*
X0257640Y0219687D01*
X0257640Y0217720D02*
X0155490Y0217720D01*
X0157457Y0215753D02*
X0257641Y0215753D01*
X0257642Y0213786D02*
X0159424Y0213786D01*
X0161391Y0211819D02*
X0185775Y0211819D01*
X0183197Y0209852D02*
X0179737Y0209852D01*
X0180928Y0207885D02*
X0182435Y0207885D01*
X0189425Y0211819D02*
X0257643Y0211819D01*
X0257643Y0209852D02*
X0192003Y0209852D01*
X0192765Y0207885D02*
X0257644Y0207885D01*
X0257645Y0205918D02*
X0192749Y0205918D01*
X0191872Y0203951D02*
X0257645Y0203951D01*
X0257646Y0201984D02*
X0189027Y0201984D01*
X0186550Y0200017D02*
X0257647Y0200017D01*
X0257647Y0198050D02*
X0184583Y0198050D01*
X0179094Y0194116D02*
X0257649Y0194116D01*
X0257649Y0192149D02*
X0179786Y0192149D01*
X0179302Y0190182D02*
X0257650Y0190182D01*
X0257651Y0188215D02*
X0177380Y0188215D01*
X0175413Y0186248D02*
X0257651Y0186248D01*
X0257652Y0184281D02*
X0176123Y0184281D01*
X0178090Y0182314D02*
X0257653Y0182314D01*
X0257654Y0180347D02*
X0179596Y0180347D01*
X0179718Y0178380D02*
X0257654Y0178380D01*
X0257655Y0176413D02*
X0178384Y0176413D01*
X0176417Y0174446D02*
X0257656Y0174446D01*
X0257656Y0172479D02*
X0174450Y0172479D01*
X0174816Y0172846D02*
X0174816Y0172846D01*
X0172483Y0170512D02*
X0257657Y0170512D01*
X0257658Y0168545D02*
X0170516Y0168545D01*
X0168549Y0166578D02*
X0257658Y0166578D01*
X0257659Y0164611D02*
X0168808Y0164611D01*
X0170775Y0162644D02*
X0257660Y0162644D01*
X0257660Y0160677D02*
X0172945Y0160677D01*
X0173937Y0158710D02*
X0257661Y0158710D01*
X0257662Y0156743D02*
X0173937Y0156743D01*
X0173937Y0154776D02*
X0257662Y0154776D01*
X0257663Y0152809D02*
X0173937Y0152809D01*
X0173015Y0150842D02*
X0257664Y0150842D01*
X0257665Y0148875D02*
X0172537Y0148875D01*
X0172537Y0146908D02*
X0257665Y0146908D01*
X0257666Y0144941D02*
X0172408Y0144941D01*
X0167895Y0144941D02*
X0167305Y0144941D01*
X0167305Y0146908D02*
X0167895Y0146908D01*
X0161263Y0152809D02*
X0154780Y0152809D01*
X0156747Y0154776D02*
X0161263Y0154776D01*
X0161263Y0156743D02*
X0158714Y0156743D01*
X0159110Y0157139D02*
X0159110Y0157139D01*
X0160681Y0158710D02*
X0161263Y0158710D01*
X0161454Y0159483D02*
X0161454Y0159483D01*
X0138016Y0178883D02*
X0134689Y0175557D01*
X0133747Y0174691D01*
X0133615Y0175009D01*
X0131388Y0177236D01*
X0129044Y0179580D01*
X0129044Y0179580D01*
X0126933Y0181691D01*
X0124706Y0183918D01*
X0123004Y0185620D01*
X0124590Y0187205D01*
X0126933Y0189549D01*
X0129044Y0191659D01*
X0129201Y0191817D01*
X0138016Y0183002D01*
X0138016Y0178883D01*
X0137513Y0178380D02*
X0130244Y0178380D01*
X0132211Y0176413D02*
X0135546Y0176413D01*
X0138016Y0180347D02*
X0128277Y0180347D01*
X0126933Y0181691D02*
X0126933Y0181691D01*
X0126310Y0182314D02*
X0138016Y0182314D01*
X0136737Y0184281D02*
X0124343Y0184281D01*
X0123633Y0186248D02*
X0134770Y0186248D01*
X0132803Y0188215D02*
X0125600Y0188215D01*
X0126933Y0189549D02*
X0126933Y0189549D01*
X0127567Y0190182D02*
X0130836Y0190182D01*
X0129044Y0191659D02*
X0129044Y0191659D01*
X0130189Y0201766D02*
X0130218Y0201766D01*
X0144651Y0215753D02*
X0148020Y0215753D01*
X0149987Y0217720D02*
X0142684Y0217720D01*
X0143188Y0221654D02*
X0257639Y0221654D01*
X0257638Y0223621D02*
X0146542Y0223621D01*
X0147613Y0225588D02*
X0257638Y0225588D01*
X0257637Y0227555D02*
X0147765Y0227555D01*
X0147140Y0229522D02*
X0257636Y0229522D01*
X0257636Y0231489D02*
X0145221Y0231489D01*
X0139979Y0231489D02*
X0138984Y0231489D01*
X0138984Y0233456D02*
X0198823Y0233456D01*
X0198221Y0234058D02*
X0199674Y0232605D01*
X0201573Y0231819D01*
X0203627Y0231819D01*
X0205526Y0232605D01*
X0206979Y0234058D01*
X0207765Y0235957D01*
X0207765Y0236232D01*
X0209970Y0238437D01*
X0211147Y0239614D01*
X0211784Y0241152D01*
X0211784Y0245105D01*
X0212600Y0245921D01*
X0213416Y0245105D01*
X0213416Y0240105D01*
X0213221Y0239910D01*
X0212435Y0238012D01*
X0212435Y0235957D01*
X0213221Y0234058D01*
X0214674Y0232605D01*
X0216573Y0231819D01*
X0218627Y0231819D01*
X0220526Y0232605D01*
X0221979Y0234058D01*
X0222765Y0235957D01*
X0222765Y0238012D01*
X0221979Y0239910D01*
X0221784Y0240105D01*
X0221784Y0245105D01*
X0222600Y0245921D01*
X0224210Y0244311D01*
X0226410Y0243400D01*
X0228790Y0243400D01*
X0230990Y0244311D01*
X0232673Y0245994D01*
X0233350Y0247629D01*
X0233352Y0247625D01*
X0233679Y0246982D01*
X0234103Y0246398D01*
X0234614Y0245888D01*
X0235197Y0245463D01*
X0235840Y0245136D01*
X0236527Y0244913D01*
X0237239Y0244800D01*
X0237600Y0244800D01*
X0237961Y0244800D01*
X0238673Y0244913D01*
X0239360Y0245136D01*
X0240003Y0245463D01*
X0240586Y0245888D01*
X0241097Y0246398D01*
X0241521Y0246982D01*
X0241848Y0247625D01*
X0242071Y0248311D01*
X0242184Y0249023D01*
X0242184Y0251984D01*
X0237600Y0251984D01*
X0237600Y0244800D01*
X0237600Y0251984D01*
X0237600Y0251984D01*
X0237600Y0251984D01*
X0242184Y0251984D01*
X0242184Y0254945D01*
X0242071Y0255658D01*
X0241848Y0256344D01*
X0241521Y0256987D01*
X0241097Y0257571D01*
X0240586Y0258081D01*
X0240003Y0258505D01*
X0239360Y0258833D01*
X0238673Y0259056D01*
X0237961Y0259168D01*
X0237600Y0259168D01*
X0237239Y0259168D01*
X0236527Y0259056D01*
X0235840Y0258833D01*
X0235197Y0258505D01*
X0234614Y0258081D01*
X0234103Y0257571D01*
X0233679Y0256987D01*
X0233352Y0256344D01*
X0233350Y0256340D01*
X0232673Y0257974D01*
X0232584Y0258063D01*
X0232584Y0272976D01*
X0231825Y0274808D01*
X0230423Y0276210D01*
X0225423Y0281210D01*
X0223591Y0281968D01*
X0223346Y0281968D01*
X0223346Y0282102D01*
X0222831Y0283346D01*
X0221879Y0284298D01*
X0221392Y0284500D01*
X0257617Y0284500D01*
X0257714Y0006164D01*
X0006469Y0005873D01*
X0005399Y0284500D01*
X0203808Y0284500D01*
X0203321Y0284298D01*
X0202369Y0283346D01*
X0201854Y0282102D01*
X0201854Y0281968D01*
X0184065Y0281968D01*
X0183627Y0282150D01*
X0181573Y0282150D01*
X0179674Y0281363D01*
X0178221Y0279910D01*
X0177435Y0278012D01*
X0177435Y0275957D01*
X0178221Y0274058D01*
X0179674Y0272605D01*
X0181573Y0271819D01*
X0183627Y0271819D01*
X0184065Y0272000D01*
X0202794Y0272000D01*
X0202810Y0271984D01*
X0202369Y0271543D01*
X0201854Y0270299D01*
X0201854Y0261866D01*
X0202369Y0260622D01*
X0203321Y0259670D01*
X0203416Y0259631D01*
X0203416Y0258863D01*
X0202600Y0258047D01*
X0200990Y0259657D01*
X0198790Y0260568D01*
X0196410Y0260568D01*
X0194210Y0259657D01*
X0192600Y0258047D01*
X0190990Y0259657D01*
X0188790Y0260568D01*
X0186410Y0260568D01*
X0184210Y0259657D01*
X0182527Y0257974D01*
X0181616Y0255775D01*
X0181616Y0248194D01*
X0182455Y0246168D01*
X0180721Y0246168D01*
X0180526Y0246363D01*
X0178627Y0247150D01*
X0176573Y0247150D01*
X0174674Y0246363D01*
X0173221Y0244910D01*
X0172435Y0243012D01*
X0172435Y0240957D01*
X0173221Y0239058D01*
X0174674Y0237605D01*
X0176573Y0236819D01*
X0178627Y0236819D01*
X0180526Y0237605D01*
X0180721Y0237800D01*
X0193432Y0237800D01*
X0194970Y0238437D01*
X0199970Y0243437D01*
X0200741Y0244208D01*
X0200990Y0244311D01*
X0202600Y0245921D01*
X0203416Y0245105D01*
X0203416Y0243717D01*
X0201848Y0242150D01*
X0201573Y0242150D01*
X0199674Y0241363D01*
X0198221Y0239910D01*
X0197435Y0238012D01*
X0197435Y0235957D01*
X0198221Y0234058D01*
X0197656Y0235424D02*
X0138984Y0235424D01*
X0138984Y0237391D02*
X0175193Y0237391D01*
X0173097Y0239358D02*
X0138984Y0239358D01*
X0138984Y0241325D02*
X0172435Y0241325D01*
X0172551Y0243292D02*
X0138984Y0243292D01*
X0138971Y0245259D02*
X0173569Y0245259D01*
X0182017Y0247226D02*
X0138941Y0247226D01*
X0138911Y0249193D02*
X0181616Y0249193D01*
X0181616Y0251160D02*
X0139381Y0251160D01*
X0140796Y0253127D02*
X0181616Y0253127D01*
X0181616Y0255094D02*
X0141453Y0255094D01*
X0141453Y0257061D02*
X0182148Y0257061D01*
X0183580Y0259028D02*
X0141453Y0259028D01*
X0141453Y0260995D02*
X0202215Y0260995D01*
X0201854Y0262962D02*
X0141453Y0262962D01*
X0141255Y0264929D02*
X0201854Y0264929D01*
X0201854Y0266896D02*
X0140441Y0266896D01*
X0138524Y0268863D02*
X0201854Y0268863D01*
X0202073Y0270830D02*
X0083494Y0270830D01*
X0082584Y0269920D02*
X0084665Y0272000D01*
X0091135Y0272000D01*
X0091573Y0271819D01*
X0093627Y0271819D01*
X0095526Y0272605D01*
X0096979Y0274058D01*
X0097765Y0275957D01*
X0097765Y0278012D01*
X0096979Y0279910D01*
X0095526Y0281363D01*
X0093627Y0282150D01*
X0091573Y0282150D01*
X0091135Y0281968D01*
X0081609Y0281968D01*
X0079777Y0281210D01*
X0078375Y0279808D01*
X0078375Y0279808D01*
X0073375Y0274808D01*
X0072616Y0272976D01*
X0072616Y0266968D01*
X0059065Y0266968D01*
X0058627Y0267150D01*
X0056573Y0267150D01*
X0054674Y0266363D01*
X0053221Y0264910D01*
X0052435Y0263012D01*
X0052435Y0260957D01*
X0053221Y0259058D01*
X0054674Y0257605D01*
X0056573Y0256819D01*
X0058627Y0256819D01*
X0059065Y0257000D01*
X0072616Y0257000D01*
X0072616Y0253593D01*
X0072369Y0253346D01*
X0071854Y0252102D01*
X0071854Y0243669D01*
X0072369Y0242425D01*
X0072810Y0241984D01*
X0072369Y0241543D01*
X0071854Y0240299D01*
X0071854Y0231866D01*
X0072369Y0230622D01*
X0072616Y0230375D01*
X0072616Y0228449D01*
X0072435Y0228012D01*
X0072435Y0225957D01*
X0073221Y0224058D01*
X0074674Y0222605D01*
X0076573Y0221819D01*
X0078627Y0221819D01*
X0080526Y0222605D01*
X0081979Y0224058D01*
X0082765Y0225957D01*
X0082765Y0228012D01*
X0082584Y0228449D01*
X0082584Y0230375D01*
X0082831Y0230622D01*
X0083346Y0231866D01*
X0083346Y0240299D01*
X0082831Y0241543D01*
X0082390Y0241984D01*
X0082831Y0242425D01*
X0083346Y0243669D01*
X0083346Y0252102D01*
X0082831Y0253346D01*
X0082584Y0253593D01*
X0082584Y0254598D01*
X0087732Y0254598D01*
X0088732Y0252183D01*
X0090669Y0250246D01*
X0093199Y0249198D01*
X0095938Y0249198D01*
X0098468Y0250246D01*
X0100405Y0252183D01*
X0101453Y0254713D01*
X0101453Y0264452D01*
X0100405Y0266982D01*
X0098468Y0268919D01*
X0095938Y0269967D01*
X0093199Y0269967D01*
X0090669Y0268919D01*
X0088732Y0266982D01*
X0087732Y0264567D01*
X0082584Y0264567D01*
X0082584Y0269920D01*
X0082584Y0268863D02*
X0090613Y0268863D01*
X0088696Y0266896D02*
X0082584Y0266896D01*
X0082584Y0264929D02*
X0087882Y0264929D01*
X0095717Y0272797D02*
X0179483Y0272797D01*
X0177929Y0274764D02*
X0097271Y0274764D01*
X0097765Y0276731D02*
X0177435Y0276731D01*
X0177719Y0278698D02*
X0097481Y0278698D01*
X0096224Y0280665D02*
X0178976Y0280665D01*
X0191620Y0259028D02*
X0193580Y0259028D01*
X0201620Y0259028D02*
X0203416Y0259028D01*
X0203263Y0245259D02*
X0201937Y0245259D01*
X0202990Y0243292D02*
X0199825Y0243292D01*
X0199635Y0241325D02*
X0197858Y0241325D01*
X0197992Y0239358D02*
X0195891Y0239358D01*
X0197435Y0237391D02*
X0180007Y0237391D01*
X0161454Y0211757D02*
X0161454Y0211757D01*
X0163358Y0209852D02*
X0172263Y0209852D01*
X0171072Y0207885D02*
X0165325Y0207885D01*
X0165791Y0207419D02*
X0165791Y0207419D01*
X0167292Y0205918D02*
X0169717Y0205918D01*
X0164709Y0199539D02*
X0164709Y0199493D01*
X0177127Y0196083D02*
X0257648Y0196083D01*
X0257635Y0233456D02*
X0221377Y0233456D01*
X0222544Y0235424D02*
X0257634Y0235424D01*
X0257634Y0237391D02*
X0222765Y0237391D01*
X0222208Y0239358D02*
X0257633Y0239358D01*
X0257632Y0241325D02*
X0221784Y0241325D01*
X0221784Y0243292D02*
X0257632Y0243292D01*
X0257631Y0245259D02*
X0239601Y0245259D01*
X0237600Y0245259D02*
X0237600Y0245259D01*
X0237600Y0247226D02*
X0237600Y0247226D01*
X0237600Y0249193D02*
X0237600Y0249193D01*
X0237600Y0251160D02*
X0237600Y0251160D01*
X0237600Y0251984D02*
X0237600Y0259168D01*
X0237600Y0251984D01*
X0237600Y0251984D01*
X0237600Y0253127D02*
X0237600Y0253127D01*
X0237600Y0255094D02*
X0237600Y0255094D01*
X0237600Y0257061D02*
X0237600Y0257061D01*
X0237600Y0259028D02*
X0237600Y0259028D01*
X0236441Y0259028D02*
X0232584Y0259028D01*
X0232584Y0260995D02*
X0257625Y0260995D01*
X0257625Y0262962D02*
X0232584Y0262962D01*
X0232584Y0264929D02*
X0257624Y0264929D01*
X0257623Y0266896D02*
X0232584Y0266896D01*
X0232584Y0268863D02*
X0257623Y0268863D01*
X0257622Y0270830D02*
X0232584Y0270830D01*
X0232584Y0272797D02*
X0257621Y0272797D01*
X0257621Y0274764D02*
X0231844Y0274764D01*
X0229902Y0276731D02*
X0257620Y0276731D01*
X0257619Y0278698D02*
X0227935Y0278698D01*
X0225968Y0280665D02*
X0257618Y0280665D01*
X0257618Y0282632D02*
X0223127Y0282632D01*
X0202073Y0282632D02*
X0005406Y0282632D01*
X0005414Y0280665D02*
X0079232Y0280665D01*
X0077265Y0278698D02*
X0005421Y0278698D01*
X0005429Y0276731D02*
X0075298Y0276731D01*
X0073356Y0274764D02*
X0005437Y0274764D01*
X0005444Y0272797D02*
X0072616Y0272797D01*
X0072616Y0270830D02*
X0005452Y0270830D01*
X0005459Y0268863D02*
X0072616Y0268863D01*
X0072616Y0255094D02*
X0017758Y0255094D01*
X0017584Y0253127D02*
X0072278Y0253127D01*
X0071854Y0251160D02*
X0017584Y0251160D01*
X0017584Y0249193D02*
X0071854Y0249193D01*
X0071854Y0247226D02*
X0036104Y0247226D01*
X0029096Y0247226D02*
X0017584Y0247226D01*
X0017584Y0245259D02*
X0019108Y0245259D01*
X0017816Y0243292D02*
X0017584Y0243292D01*
X0017816Y0241984D02*
X0022600Y0241984D01*
X0022600Y0237200D01*
X0022600Y0241984D01*
X0022600Y0241984D01*
X0017816Y0241984D01*
X0017816Y0241325D02*
X0017584Y0241325D01*
X0017584Y0239358D02*
X0018461Y0239358D01*
X0017584Y0237391D02*
X0020428Y0237391D01*
X0022600Y0237391D02*
X0022600Y0237391D01*
X0022600Y0236768D02*
X0022600Y0231984D01*
X0017816Y0231984D01*
X0022600Y0231984D01*
X0022600Y0231984D01*
X0022600Y0231984D01*
X0022600Y0236768D01*
X0022600Y0235424D02*
X0022600Y0235424D01*
X0022600Y0233456D02*
X0022600Y0233456D01*
X0025927Y0235424D02*
X0027293Y0235424D01*
X0028448Y0237391D02*
X0024772Y0237391D01*
X0022600Y0239358D02*
X0022600Y0239358D01*
X0022600Y0241325D02*
X0022600Y0241325D01*
X0022600Y0241984D02*
X0022600Y0241984D01*
X0022600Y0246768D01*
X0022600Y0241984D01*
X0022600Y0241984D01*
X0022600Y0243292D02*
X0022600Y0243292D01*
X0022600Y0245259D02*
X0022600Y0245259D01*
X0026092Y0245259D02*
X0027129Y0245259D01*
X0036752Y0237391D02*
X0045193Y0237391D01*
X0050007Y0237391D02*
X0071854Y0237391D01*
X0071854Y0239358D02*
X0052103Y0239358D01*
X0052765Y0241325D02*
X0072278Y0241325D01*
X0072010Y0243292D02*
X0052649Y0243292D01*
X0051631Y0245259D02*
X0071854Y0245259D01*
X0071854Y0235424D02*
X0060078Y0235424D01*
X0062045Y0233456D02*
X0071854Y0233456D01*
X0072010Y0231489D02*
X0064012Y0231489D01*
X0065979Y0229522D02*
X0072616Y0229522D01*
X0072435Y0227555D02*
X0067946Y0227555D01*
X0069913Y0225588D02*
X0072587Y0225588D01*
X0073658Y0223621D02*
X0071451Y0223621D01*
X0071784Y0221654D02*
X0086216Y0221654D01*
X0086216Y0219687D02*
X0071784Y0219687D01*
X0071784Y0217720D02*
X0086216Y0217720D01*
X0087028Y0215753D02*
X0071784Y0215753D01*
X0071784Y0213786D02*
X0088769Y0213786D01*
X0091847Y0211819D02*
X0073682Y0211819D01*
X0075649Y0209852D02*
X0093197Y0209852D01*
X0092435Y0207885D02*
X0077616Y0207885D01*
X0079583Y0205918D02*
X0092451Y0205918D01*
X0098984Y0217720D02*
X0106216Y0217720D01*
X0106216Y0219687D02*
X0098984Y0219687D01*
X0098984Y0221654D02*
X0106216Y0221654D01*
X0106216Y0223621D02*
X0098984Y0223621D01*
X0098984Y0225588D02*
X0106216Y0225588D01*
X0106755Y0227555D02*
X0098445Y0227555D01*
X0097090Y0229522D02*
X0108110Y0229522D01*
X0108416Y0231489D02*
X0096784Y0231489D01*
X0096784Y0233456D02*
X0107090Y0233456D01*
X0106263Y0235424D02*
X0096784Y0235424D01*
X0101045Y0237391D02*
X0101635Y0237391D01*
X0101635Y0239358D02*
X0101045Y0239358D01*
X0101045Y0241325D02*
X0101635Y0241325D01*
X0101635Y0243292D02*
X0101045Y0243292D01*
X0101045Y0245259D02*
X0101635Y0245259D01*
X0098916Y0247226D02*
X0107663Y0247226D01*
X0107663Y0245259D02*
X0105867Y0245259D01*
X0105883Y0243292D02*
X0107350Y0243292D01*
X0106263Y0241325D02*
X0105883Y0241325D01*
X0105883Y0239358D02*
X0106263Y0239358D01*
X0106263Y0237391D02*
X0105025Y0237391D01*
X0112895Y0246020D02*
X0117537Y0246020D01*
X0117537Y0248545D01*
X0117402Y0249049D01*
X0117141Y0249502D01*
X0116771Y0249871D01*
X0116319Y0250132D01*
X0115814Y0250268D01*
X0112895Y0250268D01*
X0112895Y0246020D01*
X0112895Y0247226D02*
X0112305Y0247226D01*
X0112305Y0249193D02*
X0112895Y0249193D01*
X0112150Y0251160D02*
X0099381Y0251160D01*
X0100796Y0253127D02*
X0109937Y0253127D01*
X0109173Y0255094D02*
X0101453Y0255094D01*
X0101453Y0257061D02*
X0109084Y0257061D01*
X0109084Y0259028D02*
X0101453Y0259028D01*
X0101453Y0260995D02*
X0109084Y0260995D01*
X0109084Y0262962D02*
X0101453Y0262962D01*
X0101255Y0264929D02*
X0109402Y0264929D01*
X0110626Y0266896D02*
X0100441Y0266896D01*
X0098524Y0268863D02*
X0120613Y0268863D01*
X0118696Y0266896D02*
X0118511Y0266896D01*
X0114569Y0266896D02*
X0114568Y0266896D01*
X0114568Y0264929D02*
X0114569Y0264929D01*
X0114568Y0262962D02*
X0114569Y0262962D01*
X0114568Y0260995D02*
X0114569Y0260995D01*
X0114568Y0259028D02*
X0114569Y0259028D01*
X0114568Y0257061D02*
X0114569Y0257061D01*
X0114568Y0255094D02*
X0114569Y0255094D01*
X0114568Y0253127D02*
X0114569Y0253127D01*
X0114568Y0251160D02*
X0114569Y0251160D01*
X0116987Y0251160D02*
X0119756Y0251160D01*
X0120384Y0249193D02*
X0117319Y0249193D01*
X0117537Y0247226D02*
X0120384Y0247226D01*
X0120384Y0245259D02*
X0117537Y0245259D01*
X0117850Y0243292D02*
X0120384Y0243292D01*
X0120384Y0241325D02*
X0118937Y0241325D01*
X0118937Y0239358D02*
X0120384Y0239358D01*
X0120384Y0237391D02*
X0118937Y0237391D01*
X0118937Y0235424D02*
X0120384Y0235424D01*
X0120384Y0233456D02*
X0118110Y0233456D01*
X0116784Y0231489D02*
X0120384Y0231489D01*
X0120384Y0229522D02*
X0117090Y0229522D01*
X0118445Y0227555D02*
X0120384Y0227555D01*
X0120384Y0225588D02*
X0118984Y0225588D01*
X0118984Y0223621D02*
X0120384Y0223621D01*
X0120384Y0221654D02*
X0118984Y0221654D01*
X0107881Y0249193D02*
X0083346Y0249193D01*
X0083346Y0251160D02*
X0089756Y0251160D01*
X0088341Y0253127D02*
X0082922Y0253127D01*
X0083346Y0247226D02*
X0088803Y0247226D01*
X0087917Y0245259D02*
X0083346Y0245259D01*
X0083190Y0243292D02*
X0087917Y0243292D01*
X0087917Y0241325D02*
X0082922Y0241325D01*
X0083346Y0239358D02*
X0087917Y0239358D01*
X0088317Y0237391D02*
X0083346Y0237391D01*
X0083346Y0235424D02*
X0088416Y0235424D01*
X0088416Y0233456D02*
X0083346Y0233456D01*
X0083190Y0231489D02*
X0088416Y0231489D01*
X0088110Y0229522D02*
X0082584Y0229522D01*
X0082765Y0227555D02*
X0086755Y0227555D01*
X0086216Y0225588D02*
X0082613Y0225588D01*
X0081542Y0223621D02*
X0086216Y0223621D01*
X0055989Y0257061D02*
X0029211Y0257061D01*
X0031948Y0259028D02*
X0053252Y0259028D01*
X0052435Y0260995D02*
X0032765Y0260995D01*
X0032765Y0262962D02*
X0052435Y0262962D01*
X0053240Y0264929D02*
X0031960Y0264929D01*
X0029240Y0266896D02*
X0055960Y0266896D01*
X0019273Y0235424D02*
X0017584Y0235424D01*
X0017584Y0233456D02*
X0017816Y0233456D01*
X0017816Y0231489D02*
X0017584Y0231489D01*
X0017584Y0229522D02*
X0018296Y0229522D01*
X0017584Y0227555D02*
X0019425Y0227555D01*
X0007616Y0227555D02*
X0005618Y0227555D01*
X0005625Y0225588D02*
X0007616Y0225588D01*
X0007616Y0223621D02*
X0005633Y0223621D01*
X0005641Y0221654D02*
X0007616Y0221654D01*
X0007616Y0219687D02*
X0005648Y0219687D01*
X0005656Y0217720D02*
X0007616Y0217720D01*
X0007616Y0215753D02*
X0005663Y0215753D01*
X0005671Y0213786D02*
X0007616Y0213786D01*
X0007616Y0211819D02*
X0005678Y0211819D01*
X0005686Y0209852D02*
X0007616Y0209852D01*
X0007616Y0207885D02*
X0005693Y0207885D01*
X0005701Y0205918D02*
X0007616Y0205918D01*
X0007616Y0203951D02*
X0005709Y0203951D01*
X0005716Y0201984D02*
X0007616Y0201984D01*
X0007616Y0200017D02*
X0005724Y0200017D01*
X0005731Y0198050D02*
X0007616Y0198050D01*
X0007616Y0196083D02*
X0005739Y0196083D01*
X0005746Y0194116D02*
X0007616Y0194116D01*
X0007616Y0192149D02*
X0005754Y0192149D01*
X0005761Y0190182D02*
X0007616Y0190182D01*
X0007616Y0188215D02*
X0005769Y0188215D01*
X0005777Y0186248D02*
X0007616Y0186248D01*
X0007616Y0184281D02*
X0005784Y0184281D01*
X0005792Y0182314D02*
X0007616Y0182314D01*
X0007616Y0180347D02*
X0005799Y0180347D01*
X0005807Y0178380D02*
X0007616Y0178380D01*
X0007616Y0176413D02*
X0005814Y0176413D01*
X0005822Y0174446D02*
X0007616Y0174446D01*
X0007616Y0172479D02*
X0005829Y0172479D01*
X0005837Y0170512D02*
X0007616Y0170512D01*
X0007616Y0168545D02*
X0005845Y0168545D01*
X0005852Y0166578D02*
X0007616Y0166578D01*
X0007616Y0164611D02*
X0005860Y0164611D01*
X0005867Y0162644D02*
X0007616Y0162644D01*
X0007616Y0160677D02*
X0005875Y0160677D01*
X0005882Y0158710D02*
X0007616Y0158710D01*
X0007616Y0156743D02*
X0005890Y0156743D01*
X0005897Y0154776D02*
X0007616Y0154776D01*
X0007616Y0152809D02*
X0005905Y0152809D01*
X0005913Y0150842D02*
X0007616Y0150842D01*
X0007616Y0148875D02*
X0005920Y0148875D01*
X0005928Y0146908D02*
X0007616Y0146908D01*
X0007616Y0144941D02*
X0005935Y0144941D01*
X0005943Y0142974D02*
X0007616Y0142974D01*
X0007616Y0141007D02*
X0005950Y0141007D01*
X0005958Y0139040D02*
X0007616Y0139040D01*
X0007616Y0137073D02*
X0005965Y0137073D01*
X0005973Y0135106D02*
X0007616Y0135106D01*
X0007616Y0133139D02*
X0005981Y0133139D01*
X0005988Y0131172D02*
X0007616Y0131172D01*
X0007616Y0129205D02*
X0005996Y0129205D01*
X0006003Y0127238D02*
X0007616Y0127238D01*
X0007616Y0125271D02*
X0006011Y0125271D01*
X0006018Y0123304D02*
X0007616Y0123304D01*
X0007616Y0121337D02*
X0006026Y0121337D01*
X0006033Y0119370D02*
X0007616Y0119370D01*
X0007616Y0117403D02*
X0006041Y0117403D01*
X0006049Y0115436D02*
X0007616Y0115436D01*
X0007616Y0113469D02*
X0006056Y0113469D01*
X0006064Y0111502D02*
X0007616Y0111502D01*
X0007616Y0109535D02*
X0006071Y0109535D01*
X0006079Y0107568D02*
X0007616Y0107568D01*
X0007616Y0105601D02*
X0006086Y0105601D01*
X0006094Y0103633D02*
X0007616Y0103633D01*
X0007616Y0101666D02*
X0006101Y0101666D01*
X0006109Y0099699D02*
X0007616Y0099699D01*
X0007616Y0097732D02*
X0006117Y0097732D01*
X0006124Y0095765D02*
X0007710Y0095765D01*
X0008737Y0093798D02*
X0006132Y0093798D01*
X0006139Y0091831D02*
X0010704Y0091831D01*
X0012671Y0089864D02*
X0006147Y0089864D01*
X0006154Y0087897D02*
X0014638Y0087897D01*
X0022533Y0085930D02*
X0006162Y0085930D01*
X0006169Y0083963D02*
X0080646Y0083963D01*
X0083596Y0081996D02*
X0006177Y0081996D01*
X0006185Y0080029D02*
X0086547Y0080029D01*
X0087616Y0078062D02*
X0006192Y0078062D01*
X0006200Y0076095D02*
X0069662Y0076095D01*
X0065743Y0074128D02*
X0006207Y0074128D01*
X0006215Y0072161D02*
X0036184Y0072161D01*
X0034843Y0070194D02*
X0006222Y0070194D01*
X0006230Y0068227D02*
X0034771Y0068227D01*
X0034771Y0066260D02*
X0006237Y0066260D01*
X0006245Y0064293D02*
X0033654Y0064293D01*
X0032024Y0062326D02*
X0006253Y0062326D01*
X0006260Y0060359D02*
X0028670Y0060359D01*
X0027592Y0058392D02*
X0006268Y0058392D01*
X0006275Y0056425D02*
X0027435Y0056425D01*
X0028055Y0054458D02*
X0006283Y0054458D01*
X0006290Y0052491D02*
X0029950Y0052491D01*
X0035250Y0052491D02*
X0072466Y0052491D01*
X0072466Y0051984D02*
X0072466Y0054111D01*
X0075473Y0057118D01*
X0077600Y0057118D01*
X0077600Y0051984D01*
X0077600Y0051984D01*
X0077600Y0046850D01*
X0075473Y0046850D01*
X0072466Y0049858D01*
X0072466Y0051984D01*
X0077600Y0051984D01*
X0077600Y0051984D01*
X0072466Y0051984D01*
X0072466Y0050524D02*
X0006298Y0050524D01*
X0006305Y0048557D02*
X0061552Y0048557D01*
X0058914Y0046590D02*
X0041710Y0046590D01*
X0041854Y0046480D02*
X0041156Y0047015D01*
X0040395Y0047455D01*
X0039582Y0047791D01*
X0038733Y0048019D01*
X0038012Y0048114D01*
X0038012Y0037291D01*
X0044130Y0037291D01*
X0044130Y0041865D01*
X0044015Y0042737D01*
X0043788Y0043586D01*
X0043451Y0044399D01*
X0043011Y0045160D01*
X0042476Y0045858D01*
X0041854Y0046480D01*
X0043321Y0044623D02*
X0057638Y0044623D01*
X0056891Y0042656D02*
X0044026Y0042656D01*
X0044130Y0040689D02*
X0056891Y0040689D01*
X0056891Y0038722D02*
X0044130Y0038722D01*
X0044130Y0036110D02*
X0038012Y0036110D01*
X0038012Y0037291D01*
X0036831Y0037291D01*
X0036831Y0036110D01*
X0038012Y0036110D01*
X0038012Y0025288D01*
X0038733Y0025383D01*
X0039582Y0025610D01*
X0040395Y0025947D01*
X0041156Y0026386D01*
X0041854Y0026922D01*
X0042476Y0027544D01*
X0043011Y0028241D01*
X0043451Y0029003D01*
X0043788Y0029815D01*
X0044015Y0030665D01*
X0044130Y0031537D01*
X0044130Y0036110D01*
X0044130Y0034788D02*
X0056891Y0034788D01*
X0056891Y0036755D02*
X0038012Y0036755D01*
X0036831Y0036755D02*
X0006351Y0036755D01*
X0006343Y0038722D02*
X0030713Y0038722D01*
X0030713Y0037291D02*
X0036831Y0037291D01*
X0036831Y0048114D01*
X0036110Y0048019D01*
X0035260Y0047791D01*
X0034448Y0047455D01*
X0033686Y0047015D01*
X0032988Y0046480D01*
X0032367Y0045858D01*
X0031831Y0045160D01*
X0031392Y0044399D01*
X0031055Y0043586D01*
X0030827Y0042737D01*
X0030713Y0041865D01*
X0030713Y0037291D01*
X0030713Y0036110D02*
X0030713Y0031537D01*
X0030827Y0030665D01*
X0031055Y0029815D01*
X0031392Y0029003D01*
X0031831Y0028241D01*
X0032367Y0027544D01*
X0032988Y0026922D01*
X0033686Y0026386D01*
X0034448Y0025947D01*
X0035260Y0025610D01*
X0036110Y0025383D01*
X0036831Y0025288D01*
X0036831Y0036110D01*
X0030713Y0036110D01*
X0030713Y0034788D02*
X0006358Y0034788D01*
X0006366Y0032821D02*
X0030713Y0032821D01*
X0030802Y0030854D02*
X0006373Y0030854D01*
X0006381Y0028887D02*
X0031458Y0028887D01*
X0032991Y0026920D02*
X0006388Y0026920D01*
X0006396Y0024953D02*
X0046383Y0024953D01*
X0046678Y0025075D02*
X0045865Y0024738D01*
X0045103Y0024299D01*
X0044406Y0023763D01*
X0043784Y0023141D01*
X0043249Y0022444D01*
X0042809Y0021682D01*
X0042472Y0020870D01*
X0042245Y0020020D01*
X0042150Y0019299D01*
X0052972Y0019299D01*
X0052972Y0018118D01*
X0042150Y0018118D01*
X0042245Y0017397D01*
X0042472Y0016548D01*
X0042809Y0015735D01*
X0043249Y0014974D01*
X0043784Y0014276D01*
X0044406Y0013654D01*
X0045103Y0013119D01*
X0045865Y0012679D01*
X0046678Y0012342D01*
X0047527Y0012115D01*
X0048399Y0012000D01*
X0052972Y0012000D01*
X0052972Y0018118D01*
X0054154Y0018118D01*
X0054154Y0019299D01*
X0052972Y0019299D01*
X0052972Y0025417D01*
X0048399Y0025417D01*
X0047527Y0025303D01*
X0046678Y0025075D01*
X0043665Y0022986D02*
X0006404Y0022986D01*
X0006411Y0021019D02*
X0042534Y0021019D01*
X0042328Y0017085D02*
X0006426Y0017085D01*
X0006419Y0019052D02*
X0052972Y0019052D01*
X0054154Y0019052D02*
X0078484Y0019052D01*
X0077616Y0021019D02*
X0064592Y0021019D01*
X0063461Y0022986D02*
X0077616Y0022986D01*
X0077616Y0024953D02*
X0069660Y0024953D01*
X0071627Y0026920D02*
X0077616Y0026920D01*
X0077616Y0028887D02*
X0072587Y0028887D01*
X0073109Y0030854D02*
X0077616Y0030854D01*
X0087584Y0030854D02*
X0092684Y0030854D01*
X0092684Y0032821D02*
X0087584Y0032821D01*
X0087584Y0034788D02*
X0092684Y0034788D01*
X0092684Y0036755D02*
X0089419Y0036755D01*
X0091387Y0038722D02*
X0092684Y0038722D01*
X0092458Y0040689D02*
X0093076Y0040689D01*
X0092584Y0042656D02*
X0118417Y0042656D01*
X0118417Y0043744D02*
X0118417Y0041298D01*
X0124585Y0041298D01*
X0124585Y0045467D01*
X0120140Y0045467D01*
X0119635Y0045331D01*
X0119183Y0045070D01*
X0118813Y0044701D01*
X0118552Y0044248D01*
X0118417Y0043744D01*
X0118769Y0044623D02*
X0092584Y0044623D01*
X0092584Y0046590D02*
X0132616Y0046590D01*
X0132616Y0044623D02*
X0130833Y0044623D01*
X0130788Y0044701D02*
X0130419Y0045070D01*
X0129966Y0045331D01*
X0129462Y0045467D01*
X0125016Y0045467D01*
X0125016Y0041298D01*
X0131185Y0041298D01*
X0131185Y0043744D01*
X0131049Y0044248D01*
X0130788Y0044701D01*
X0131185Y0042656D02*
X0132616Y0042656D01*
X0132616Y0040689D02*
X0131185Y0040689D01*
X0131185Y0038722D02*
X0132616Y0038722D01*
X0125016Y0042656D02*
X0124585Y0042656D01*
X0124585Y0044623D02*
X0125016Y0044623D01*
X0118417Y0040689D02*
X0107723Y0040689D01*
X0108114Y0038722D02*
X0118417Y0038722D01*
X0117017Y0024953D02*
X0108114Y0024953D01*
X0107601Y0022986D02*
X0117017Y0022986D01*
X0117017Y0021019D02*
X0090614Y0021019D01*
X0088647Y0022986D02*
X0093197Y0022986D01*
X0092684Y0024953D02*
X0087584Y0024953D01*
X0087584Y0026920D02*
X0092684Y0026920D01*
X0092684Y0028887D02*
X0087584Y0028887D01*
X0092581Y0019052D02*
X0117332Y0019052D01*
X0130964Y0017085D02*
X0094548Y0017085D01*
X0088319Y0009217D02*
X0006456Y0009217D01*
X0006449Y0011184D02*
X0086352Y0011184D01*
X0084385Y0013151D02*
X0062064Y0013151D01*
X0062023Y0013119D02*
X0062720Y0013654D01*
X0063342Y0014276D01*
X0063877Y0014974D01*
X0064317Y0015735D01*
X0064654Y0016548D01*
X0064881Y0017397D01*
X0064976Y0018118D01*
X0054154Y0018118D01*
X0054154Y0012000D01*
X0058727Y0012000D01*
X0059599Y0012115D01*
X0060448Y0012342D01*
X0061261Y0012679D01*
X0062023Y0013119D01*
X0063961Y0015118D02*
X0082418Y0015118D01*
X0080451Y0017085D02*
X0064798Y0017085D01*
X0054154Y0017085D02*
X0052972Y0017085D01*
X0052972Y0015118D02*
X0054154Y0015118D01*
X0054154Y0013151D02*
X0052972Y0013151D01*
X0052972Y0021019D02*
X0054154Y0021019D01*
X0054154Y0022986D02*
X0052972Y0022986D01*
X0052972Y0024953D02*
X0054154Y0024953D01*
X0057413Y0028887D02*
X0043384Y0028887D01*
X0044040Y0030854D02*
X0056891Y0030854D01*
X0056891Y0032821D02*
X0044130Y0032821D01*
X0038012Y0032821D02*
X0036831Y0032821D01*
X0036831Y0034788D02*
X0038012Y0034788D01*
X0038012Y0038722D02*
X0036831Y0038722D01*
X0036831Y0040689D02*
X0038012Y0040689D01*
X0038012Y0042656D02*
X0036831Y0042656D01*
X0036831Y0044623D02*
X0038012Y0044623D01*
X0038012Y0046590D02*
X0036831Y0046590D01*
X0033132Y0046590D02*
X0006313Y0046590D01*
X0006320Y0044623D02*
X0031521Y0044623D01*
X0030817Y0042656D02*
X0006328Y0042656D01*
X0006336Y0040689D02*
X0030713Y0040689D01*
X0036831Y0030854D02*
X0038012Y0030854D01*
X0038012Y0028887D02*
X0036831Y0028887D01*
X0036831Y0026920D02*
X0038012Y0026920D01*
X0041852Y0026920D02*
X0058373Y0026920D01*
X0045062Y0013151D02*
X0006441Y0013151D01*
X0006434Y0015118D02*
X0043165Y0015118D01*
X0073109Y0042656D02*
X0081223Y0042656D01*
X0082616Y0044623D02*
X0072362Y0044623D01*
X0071086Y0046590D02*
X0082616Y0046590D01*
X0081947Y0048557D02*
X0081434Y0048557D01*
X0077600Y0048557D02*
X0077600Y0048557D01*
X0077600Y0050524D02*
X0077600Y0050524D01*
X0077600Y0051984D02*
X0077600Y0051984D01*
X0077600Y0052491D02*
X0077600Y0052491D01*
X0077600Y0054458D02*
X0077600Y0054458D01*
X0077600Y0056425D02*
X0077600Y0056425D01*
X0080420Y0056425D02*
X0082800Y0056425D01*
X0085995Y0058392D02*
X0039925Y0058392D01*
X0041456Y0060359D02*
X0092917Y0060359D01*
X0093904Y0062326D02*
X0064429Y0062326D01*
X0068363Y0064293D02*
X0113124Y0064293D01*
X0112435Y0066260D02*
X0095856Y0066260D01*
X0098084Y0068227D02*
X0099096Y0068227D01*
X0102600Y0068227D02*
X0102600Y0068227D01*
X0102600Y0070194D02*
X0102600Y0070194D01*
X0102600Y0071984D02*
X0102600Y0071984D01*
X0102600Y0072161D02*
X0102600Y0072161D01*
X0102600Y0074128D02*
X0102600Y0074128D01*
X0102600Y0076095D02*
X0102600Y0076095D01*
X0099450Y0076095D02*
X0097730Y0076095D01*
X0097584Y0078062D02*
X0112616Y0078062D01*
X0112616Y0076095D02*
X0105750Y0076095D01*
X0107717Y0074128D02*
X0112616Y0074128D01*
X0112616Y0072161D02*
X0107734Y0072161D01*
X0107734Y0070194D02*
X0112616Y0070194D01*
X0112524Y0068227D02*
X0106104Y0068227D01*
X0103816Y0062326D02*
X0115348Y0062326D01*
X0119852Y0062326D02*
X0137560Y0062326D01*
X0133626Y0064293D02*
X0122076Y0064293D01*
X0122765Y0066260D02*
X0129692Y0066260D01*
X0125736Y0068227D02*
X0122676Y0068227D01*
X0122584Y0070194D02*
X0123786Y0070194D01*
X0123416Y0072161D02*
X0122584Y0072161D01*
X0122584Y0074128D02*
X0123416Y0074128D01*
X0123416Y0076095D02*
X0122584Y0076095D01*
X0122584Y0078062D02*
X0123416Y0078062D01*
X0123416Y0080029D02*
X0122584Y0080029D01*
X0122584Y0081996D02*
X0123416Y0081996D01*
X0123416Y0083963D02*
X0122175Y0083963D01*
X0123416Y0085930D02*
X0120703Y0085930D01*
X0118736Y0087897D02*
X0123416Y0087897D01*
X0123416Y0089864D02*
X0116769Y0089864D01*
X0116825Y0089808D02*
X0116825Y0089808D01*
X0116324Y0091831D02*
X0123416Y0091831D01*
X0123416Y0093798D02*
X0116324Y0093798D01*
X0116324Y0095765D02*
X0123416Y0095765D01*
X0123416Y0097732D02*
X0116324Y0097732D01*
X0116324Y0099699D02*
X0123416Y0099699D01*
X0123416Y0101666D02*
X0116324Y0101666D01*
X0116324Y0103633D02*
X0123416Y0103633D01*
X0123416Y0105601D02*
X0116324Y0105601D01*
X0116324Y0107568D02*
X0123416Y0107568D01*
X0123416Y0109535D02*
X0116324Y0109535D01*
X0116324Y0111502D02*
X0123416Y0111502D01*
X0123416Y0113469D02*
X0116324Y0113469D01*
X0116324Y0115436D02*
X0123416Y0115436D01*
X0123416Y0117403D02*
X0116324Y0117403D01*
X0116324Y0119370D02*
X0123416Y0119370D01*
X0122073Y0121337D02*
X0116324Y0121337D01*
X0116324Y0123304D02*
X0121854Y0123304D01*
X0121854Y0125271D02*
X0116324Y0125271D01*
X0116819Y0127238D02*
X0121854Y0127238D01*
X0121854Y0129205D02*
X0117283Y0129205D01*
X0117283Y0131172D02*
X0122215Y0131172D01*
X0122073Y0133139D02*
X0117283Y0133139D01*
X0117283Y0135106D02*
X0121854Y0135106D01*
X0121854Y0137073D02*
X0116727Y0137073D01*
X0117283Y0139040D02*
X0121854Y0139040D01*
X0121854Y0141007D02*
X0117283Y0141007D01*
X0117283Y0142974D02*
X0122215Y0142974D01*
X0123416Y0144941D02*
X0117283Y0144941D01*
X0119127Y0146908D02*
X0124021Y0146908D01*
X0125944Y0148875D02*
X0121094Y0148875D01*
X0123061Y0150842D02*
X0127911Y0150842D01*
X0129878Y0152809D02*
X0125028Y0152809D01*
X0126995Y0154776D02*
X0131845Y0154776D01*
X0133812Y0156743D02*
X0128962Y0156743D01*
X0130929Y0158710D02*
X0131990Y0158710D01*
X0108963Y0150842D02*
X0092375Y0150842D01*
X0090408Y0148875D02*
X0107463Y0148875D01*
X0104155Y0146908D02*
X0103565Y0146908D01*
X0103565Y0144941D02*
X0104155Y0144941D01*
X0104155Y0142974D02*
X0103565Y0142974D01*
X0103565Y0141007D02*
X0104155Y0141007D01*
X0104155Y0139040D02*
X0103565Y0139040D01*
X0103565Y0137073D02*
X0104155Y0137073D01*
X0104155Y0135106D02*
X0103565Y0135106D01*
X0103565Y0133139D02*
X0104155Y0133139D01*
X0104155Y0131172D02*
X0103565Y0131172D01*
X0103565Y0129205D02*
X0104155Y0129205D01*
X0104155Y0127238D02*
X0103565Y0127238D01*
X0106356Y0125271D02*
X0017584Y0125271D01*
X0017584Y0127238D02*
X0020581Y0127238D01*
X0022600Y0127238D02*
X0022600Y0127238D01*
X0022600Y0127200D02*
X0022600Y0131984D01*
X0022600Y0131984D01*
X0022600Y0127200D01*
X0022600Y0129205D02*
X0022600Y0129205D01*
X0022600Y0131172D02*
X0022600Y0131172D01*
X0022600Y0131984D02*
X0017816Y0131984D01*
X0022600Y0131984D01*
X0022600Y0131984D01*
X0022600Y0136768D01*
X0022600Y0131984D01*
X0022600Y0131984D01*
X0022600Y0133139D02*
X0022600Y0133139D01*
X0022600Y0135106D02*
X0022600Y0135106D01*
X0022600Y0137200D02*
X0022600Y0141984D01*
X0022600Y0141984D01*
X0022600Y0137200D01*
X0022600Y0139040D02*
X0022600Y0139040D01*
X0022600Y0141007D02*
X0022600Y0141007D01*
X0022600Y0141984D02*
X0017816Y0141984D01*
X0022600Y0141984D01*
X0022600Y0141984D01*
X0022600Y0146768D01*
X0022600Y0141984D01*
X0022600Y0141984D01*
X0022600Y0142974D02*
X0022600Y0142974D01*
X0022600Y0144941D02*
X0022600Y0144941D01*
X0022600Y0147200D02*
X0022600Y0151984D01*
X0022600Y0151984D01*
X0022600Y0147200D01*
X0022600Y0148875D02*
X0022600Y0148875D01*
X0022600Y0150842D02*
X0022600Y0150842D01*
X0022600Y0151984D02*
X0017816Y0151984D01*
X0022600Y0151984D01*
X0022600Y0151984D01*
X0022600Y0156768D01*
X0022600Y0151984D01*
X0022600Y0151984D01*
X0022600Y0152809D02*
X0022600Y0152809D01*
X0022600Y0154776D02*
X0022600Y0154776D01*
X0022600Y0156743D02*
X0022600Y0156743D01*
X0022600Y0157200D02*
X0022600Y0161984D01*
X0022600Y0161984D01*
X0022600Y0157200D01*
X0022600Y0158710D02*
X0022600Y0158710D01*
X0022600Y0160677D02*
X0022600Y0160677D01*
X0022600Y0161984D02*
X0017816Y0161984D01*
X0022600Y0161984D01*
X0022600Y0161984D01*
X0022600Y0166768D01*
X0022600Y0161984D01*
X0022600Y0161984D01*
X0022600Y0162644D02*
X0022600Y0162644D01*
X0022600Y0164611D02*
X0022600Y0164611D01*
X0022600Y0166578D02*
X0022600Y0166578D01*
X0022600Y0167200D02*
X0022600Y0171984D01*
X0022600Y0171984D01*
X0022600Y0167200D01*
X0022600Y0168545D02*
X0022600Y0168545D01*
X0022600Y0170512D02*
X0022600Y0170512D01*
X0022600Y0171984D02*
X0017816Y0171984D01*
X0022600Y0171984D01*
X0022600Y0171984D01*
X0022600Y0176768D01*
X0022600Y0171984D01*
X0022600Y0171984D01*
X0022600Y0172479D02*
X0022600Y0172479D01*
X0022600Y0174446D02*
X0022600Y0174446D01*
X0022600Y0176413D02*
X0022600Y0176413D01*
X0024937Y0176413D02*
X0028283Y0176413D01*
X0026926Y0174446D02*
X0026904Y0174446D01*
X0027331Y0168545D02*
X0025927Y0168545D01*
X0024772Y0166578D02*
X0028448Y0166578D01*
X0027128Y0158710D02*
X0026092Y0158710D01*
X0024607Y0156743D02*
X0028613Y0156743D01*
X0026646Y0154776D02*
X0026574Y0154776D01*
X0026257Y0148875D02*
X0026964Y0148875D01*
X0028778Y0146908D02*
X0017584Y0146908D01*
X0017584Y0148875D02*
X0018943Y0148875D01*
X0017816Y0150842D02*
X0017584Y0150842D01*
X0017584Y0152809D02*
X0017816Y0152809D01*
X0017584Y0154776D02*
X0018626Y0154776D01*
X0017584Y0156743D02*
X0020593Y0156743D01*
X0019108Y0158710D02*
X0017584Y0158710D01*
X0017584Y0160677D02*
X0017816Y0160677D01*
X0017816Y0162644D02*
X0017584Y0162644D01*
X0017584Y0164611D02*
X0018461Y0164611D01*
X0017584Y0166578D02*
X0020428Y0166578D01*
X0019273Y0168545D02*
X0017584Y0168545D01*
X0017584Y0170512D02*
X0017816Y0170512D01*
X0017816Y0172479D02*
X0017584Y0172479D01*
X0017584Y0174446D02*
X0018296Y0174446D01*
X0017584Y0176413D02*
X0020263Y0176413D01*
X0017584Y0178380D02*
X0068078Y0178380D01*
X0066111Y0176413D02*
X0036917Y0176413D01*
X0040765Y0188215D02*
X0017584Y0188215D01*
X0017584Y0186248D02*
X0117258Y0186248D01*
X0116548Y0184281D02*
X0017584Y0184281D01*
X0017584Y0182314D02*
X0114581Y0182314D01*
X0115291Y0188215D02*
X0112235Y0188215D01*
X0100989Y0146908D02*
X0088441Y0146908D01*
X0086474Y0144941D02*
X0099317Y0144941D01*
X0099317Y0142974D02*
X0084507Y0142974D01*
X0082540Y0141007D02*
X0099317Y0141007D01*
X0099317Y0139040D02*
X0080573Y0139040D01*
X0078606Y0137073D02*
X0100944Y0137073D01*
X0099317Y0135106D02*
X0076639Y0135106D01*
X0074672Y0133139D02*
X0099317Y0133139D01*
X0099317Y0131172D02*
X0072705Y0131172D01*
X0070738Y0129205D02*
X0099317Y0129205D01*
X0100439Y0127238D02*
X0036599Y0127238D01*
X0028601Y0127238D02*
X0024619Y0127238D01*
X0026586Y0129205D02*
X0026634Y0129205D01*
X0026976Y0135106D02*
X0026244Y0135106D01*
X0028766Y0137073D02*
X0017584Y0137073D01*
X0017584Y0139040D02*
X0018779Y0139040D01*
X0017816Y0141007D02*
X0017584Y0141007D01*
X0017584Y0142974D02*
X0017816Y0142974D01*
X0017584Y0144941D02*
X0018791Y0144941D01*
X0026409Y0144941D02*
X0026811Y0144941D01*
X0026799Y0139040D02*
X0026421Y0139040D01*
X0018956Y0135106D02*
X0017584Y0135106D01*
X0017584Y0133139D02*
X0017816Y0133139D01*
X0017816Y0131172D02*
X0017584Y0131172D01*
X0017584Y0129205D02*
X0018614Y0129205D01*
X0017584Y0123304D02*
X0106356Y0123304D01*
X0106356Y0121337D02*
X0017584Y0121337D01*
X0017584Y0119370D02*
X0106356Y0119370D01*
X0106356Y0117403D02*
X0034202Y0117403D01*
X0036081Y0115436D02*
X0106356Y0115436D01*
X0106356Y0113469D02*
X0036895Y0113469D01*
X0036984Y0111502D02*
X0106356Y0111502D01*
X0106356Y0109535D02*
X0036496Y0109535D01*
X0035212Y0107568D02*
X0106356Y0107568D01*
X0106356Y0105601D02*
X0036012Y0105601D01*
X0036827Y0103633D02*
X0106356Y0103633D01*
X0106356Y0101666D02*
X0036984Y0101666D01*
X0036564Y0099699D02*
X0106356Y0099699D01*
X0106356Y0097732D02*
X0035377Y0097732D01*
X0046124Y0095765D02*
X0069076Y0095765D01*
X0067761Y0093798D02*
X0047439Y0093798D01*
X0047765Y0091831D02*
X0067435Y0091831D01*
X0067887Y0089864D02*
X0047313Y0089864D01*
X0045818Y0087897D02*
X0069382Y0087897D01*
X0077695Y0085930D02*
X0032667Y0085930D01*
X0019823Y0097732D02*
X0018901Y0097732D01*
X0018636Y0099699D02*
X0017584Y0099699D01*
X0017584Y0101666D02*
X0018216Y0101666D01*
X0018373Y0103633D02*
X0017584Y0103633D01*
X0017584Y0105601D02*
X0019188Y0105601D01*
X0019988Y0107568D02*
X0017584Y0107568D01*
X0017584Y0109535D02*
X0018704Y0109535D01*
X0018216Y0111502D02*
X0017584Y0111502D01*
X0017584Y0113469D02*
X0018305Y0113469D01*
X0017584Y0115436D02*
X0019119Y0115436D01*
X0017584Y0117403D02*
X0020998Y0117403D01*
X0047213Y0072161D02*
X0047987Y0072161D01*
X0059016Y0072161D02*
X0061809Y0072161D01*
X0072297Y0066260D02*
X0089344Y0066260D01*
X0089205Y0058392D02*
X0089749Y0058392D01*
X0096593Y0050524D02*
X0132614Y0050524D01*
X0132616Y0048557D02*
X0093253Y0048557D01*
X0106045Y0052491D02*
X0106635Y0052491D01*
X0106635Y0054458D02*
X0106045Y0054458D01*
X0106045Y0056425D02*
X0106635Y0056425D01*
X0106635Y0058392D02*
X0106045Y0058392D01*
X0106045Y0060359D02*
X0106635Y0060359D01*
X0110840Y0060359D02*
X0141494Y0060359D01*
X0140376Y0056425D02*
X0149362Y0056425D01*
X0153055Y0054458D02*
X0142166Y0054458D01*
X0142765Y0052491D02*
X0154950Y0052491D01*
X0145428Y0058392D02*
X0110883Y0058392D01*
X0110883Y0056425D02*
X0134824Y0056425D01*
X0133034Y0054458D02*
X0110883Y0054458D01*
X0110165Y0052491D02*
X0132435Y0052491D01*
X0112506Y0080029D02*
X0105331Y0080029D01*
X0095702Y0087897D02*
X0092716Y0087897D01*
X0089765Y0089864D02*
X0103570Y0089864D01*
X0106356Y0091831D02*
X0086815Y0091831D01*
X0083864Y0093798D02*
X0106356Y0093798D01*
X0106356Y0095765D02*
X0080914Y0095765D01*
X0074780Y0056425D02*
X0037958Y0056425D01*
X0037145Y0054458D02*
X0072813Y0054458D01*
X0073766Y0048557D02*
X0068448Y0048557D01*
X0091006Y0007250D02*
X0006464Y0007250D01*
X0017584Y0180347D02*
X0070045Y0180347D01*
X0038485Y0190182D02*
X0017847Y0190182D01*
X0019814Y0192149D02*
X0036518Y0192149D01*
X0034551Y0194116D02*
X0021781Y0194116D01*
X0025445Y0196083D02*
X0029755Y0196083D01*
X0027788Y0198050D02*
X0027412Y0198050D01*
X0007616Y0229522D02*
X0005610Y0229522D01*
X0005603Y0231489D02*
X0007616Y0231489D01*
X0007616Y0233456D02*
X0005595Y0233456D01*
X0005588Y0235424D02*
X0007616Y0235424D01*
X0007616Y0237391D02*
X0005580Y0237391D01*
X0005573Y0239358D02*
X0007616Y0239358D01*
X0007616Y0241325D02*
X0005565Y0241325D01*
X0005557Y0243292D02*
X0007616Y0243292D01*
X0007616Y0245259D02*
X0005550Y0245259D01*
X0005542Y0247226D02*
X0007616Y0247226D01*
X0007616Y0249193D02*
X0005535Y0249193D01*
X0005527Y0251160D02*
X0007616Y0251160D01*
X0007616Y0253127D02*
X0005520Y0253127D01*
X0005512Y0255094D02*
X0007616Y0255094D01*
X0007616Y0257061D02*
X0005505Y0257061D01*
X0005497Y0259028D02*
X0008052Y0259028D01*
X0009562Y0260995D02*
X0005489Y0260995D01*
X0005482Y0262962D02*
X0011529Y0262962D01*
X0009777Y0261210D02*
X0009777Y0261210D01*
X0013496Y0264929D02*
X0005474Y0264929D01*
X0005467Y0266896D02*
X0016433Y0266896D01*
X0128524Y0268863D02*
X0130613Y0268863D01*
X0206377Y0233456D02*
X0213823Y0233456D01*
X0212656Y0235424D02*
X0207544Y0235424D01*
X0208924Y0237391D02*
X0212435Y0237391D01*
X0212992Y0239358D02*
X0210891Y0239358D01*
X0211784Y0241325D02*
X0213416Y0241325D01*
X0213416Y0243292D02*
X0211784Y0243292D01*
X0211937Y0245259D02*
X0213263Y0245259D01*
X0221937Y0245259D02*
X0223263Y0245259D01*
X0231937Y0245259D02*
X0235599Y0245259D01*
X0233555Y0247226D02*
X0233183Y0247226D01*
X0241645Y0247226D02*
X0257630Y0247226D01*
X0257629Y0249193D02*
X0242184Y0249193D01*
X0242184Y0251160D02*
X0257629Y0251160D01*
X0257628Y0253127D02*
X0242184Y0253127D01*
X0242161Y0255094D02*
X0257627Y0255094D01*
X0257627Y0257061D02*
X0241467Y0257061D01*
X0238759Y0259028D02*
X0257626Y0259028D01*
X0233733Y0257061D02*
X0233052Y0257061D01*
X0257709Y0021019D02*
X0207484Y0021019D01*
X0207484Y0019052D02*
X0257710Y0019052D01*
X0257711Y0017085D02*
X0207484Y0017085D01*
X0207163Y0015118D02*
X0257711Y0015118D01*
X0257712Y0013151D02*
X0205815Y0013151D01*
X0203848Y0011184D02*
X0257713Y0011184D01*
X0257713Y0009217D02*
X0201881Y0009217D01*
X0199194Y0007250D02*
X0257714Y0007250D01*
D30*
X0157600Y0056984D02*
X0127600Y0071984D01*
X0127600Y0126083D01*
X0127600Y0137886D02*
X0127600Y0144613D01*
X0141325Y0158338D01*
X0130189Y0169473D02*
X0132600Y0171884D01*
X0132600Y0171984D01*
X0132600Y0181984D01*
X0132600Y0171984D02*
X0112600Y0151984D01*
X0097600Y0151984D01*
X0092600Y0156984D02*
X0113246Y0156984D01*
X0127962Y0171700D01*
X0125735Y0173927D02*
X0113792Y0161984D01*
X0087600Y0161984D01*
X0067600Y0141984D01*
X0032600Y0141984D01*
X0032600Y0131984D02*
X0067600Y0131984D01*
X0092600Y0156984D01*
X0082600Y0166984D02*
X0114337Y0166984D01*
X0123508Y0176155D01*
X0121281Y0178382D02*
X0114883Y0171984D01*
X0077600Y0171984D01*
X0067600Y0161984D01*
X0032600Y0161984D01*
X0032600Y0151984D02*
X0067600Y0151984D01*
X0082600Y0166984D01*
X0072600Y0176984D02*
X0115429Y0176984D01*
X0119053Y0180609D01*
X0119053Y0190631D02*
X0115900Y0193784D01*
X0112200Y0193784D01*
X0110400Y0191984D01*
X0042600Y0191984D01*
X0032600Y0201984D01*
X0052600Y0226984D02*
X0062600Y0216984D01*
X0062600Y0211984D01*
X0077600Y0196984D01*
X0117154Y0196984D01*
X0121281Y0192858D01*
X0123508Y0195085D02*
X0123508Y0195177D01*
X0117700Y0200984D01*
X0078600Y0200984D01*
X0067600Y0211984D01*
X0067600Y0221984D01*
X0057600Y0231984D01*
X0032600Y0231984D01*
X0032600Y0241984D02*
X0047600Y0241984D01*
X0092600Y0240724D02*
X0092600Y0221984D01*
X0092600Y0216984D01*
X0097700Y0211884D01*
X0124400Y0211884D01*
X0132291Y0203993D01*
X0132416Y0203993D01*
X0134564Y0206221D02*
X0123800Y0216984D01*
X0117600Y0216984D01*
X0112600Y0221984D01*
X0112600Y0238244D01*
X0124569Y0220749D02*
X0136870Y0208448D01*
X0139010Y0210675D02*
X0134800Y0214884D01*
X0134800Y0244351D01*
X0134569Y0259583D01*
X0124569Y0259583D02*
X0124569Y0220749D01*
X0137600Y0221984D02*
X0142600Y0226984D01*
X0139097Y0210675D02*
X0139010Y0210675D01*
X0134643Y0206221D02*
X0134564Y0206221D01*
X0130189Y0201766D02*
X0130189Y0201595D01*
X0134600Y0197184D01*
X0137400Y0197184D01*
X0137600Y0196984D01*
X0125735Y0197312D02*
X0116063Y0206984D01*
X0118953Y0190631D02*
X0119053Y0190631D01*
X0152600Y0171984D02*
X0154000Y0173384D01*
X0158500Y0173384D01*
X0162411Y0169473D01*
X0162482Y0169473D01*
X0162511Y0169473D01*
X0168300Y0163684D01*
X0170900Y0163684D01*
X0177600Y0156984D01*
X0177600Y0150279D01*
X0167600Y0155724D02*
X0167600Y0159901D01*
X0160255Y0167246D01*
X0164709Y0171700D02*
X0164709Y0171775D01*
X0169163Y0195085D02*
X0169301Y0195085D01*
X0174500Y0200284D01*
X0180900Y0200284D01*
X0187600Y0206984D01*
X0176000Y0206284D02*
X0167028Y0197312D01*
X0166936Y0197312D01*
X0164709Y0199493D02*
X0164609Y0199493D01*
X0164709Y0199539D02*
X0164709Y0199593D01*
X0167900Y0202784D01*
X0167900Y0206684D01*
X0167600Y0206984D01*
X0162482Y0201866D02*
X0162482Y0201766D01*
X0162382Y0201766D01*
X0177600Y0241984D02*
X0192600Y0241984D01*
X0197600Y0246984D01*
X0197600Y0251984D01*
X0207600Y0251984D02*
X0207600Y0241984D01*
X0202600Y0236984D01*
X0207600Y0251984D02*
X0207600Y0266083D01*
X0217600Y0266083D02*
X0217600Y0251984D01*
X0217600Y0236984D01*
X0093860Y0241984D02*
X0092600Y0240724D01*
X0072600Y0176984D02*
X0067600Y0171984D01*
X0032600Y0171984D01*
X0032600Y0081984D02*
X0027600Y0081984D01*
X0041698Y0066984D02*
X0037600Y0062886D01*
X0037600Y0061984D01*
X0032600Y0056984D01*
D31*
X0032600Y0056984D03*
X0027600Y0081984D03*
X0042600Y0091984D03*
X0072600Y0091984D03*
X0117600Y0066984D03*
X0137600Y0051984D03*
X0157600Y0056984D03*
X0152600Y0171984D03*
X0132600Y0186984D03*
X0137600Y0196984D03*
X0142600Y0226984D03*
X0176000Y0206284D03*
X0187600Y0206984D03*
X0202600Y0236984D03*
X0217600Y0236984D03*
X0182600Y0276984D03*
X0177600Y0241984D03*
X0097600Y0206984D03*
X0077600Y0226984D03*
X0052600Y0226984D03*
X0047600Y0216984D03*
X0047600Y0241984D03*
X0057600Y0261984D03*
X0027600Y0261984D03*
X0092600Y0276984D03*
D32*
X0082600Y0276984D01*
X0077600Y0271984D01*
X0077600Y0261984D01*
X0080002Y0259583D01*
X0094569Y0259583D01*
X0077600Y0261984D02*
X0077600Y0247886D01*
X0077600Y0236083D02*
X0077600Y0226984D01*
X0097600Y0206984D02*
X0116063Y0206984D01*
X0132600Y0186984D02*
X0132600Y0181984D01*
X0127377Y0162207D02*
X0112154Y0146984D01*
X0111340Y0141984D01*
X0111340Y0131984D01*
X0111340Y0088244D01*
X0112600Y0086984D01*
X0092600Y0081984D01*
X0092600Y0071984D01*
X0072600Y0071984D01*
X0062600Y0066984D01*
X0053502Y0066984D01*
X0042600Y0091984D02*
X0027600Y0091984D01*
X0017600Y0091984D01*
X0012600Y0096984D01*
X0012600Y0191984D01*
X0022600Y0201984D01*
X0012600Y0191984D02*
X0012600Y0256984D01*
X0017600Y0261984D01*
X0027600Y0261984D01*
X0057600Y0261984D02*
X0077600Y0261984D01*
X0042600Y0221984D02*
X0047600Y0216984D01*
X0042600Y0221984D02*
X0032600Y0221984D01*
X0072600Y0091984D02*
X0077600Y0091984D01*
X0092600Y0081984D01*
X0112600Y0086984D02*
X0117600Y0081984D01*
X0117600Y0066984D01*
X0098860Y0056984D02*
X0087600Y0051984D01*
X0087600Y0041984D01*
X0082600Y0036984D01*
X0082600Y0021984D01*
X0092600Y0011984D01*
X0147600Y0011984D01*
X0132600Y0021984D01*
X0131698Y0022886D01*
X0124801Y0022886D01*
X0124801Y0031984D02*
X0137600Y0031984D01*
X0137600Y0051984D01*
X0147600Y0011984D02*
X0197600Y0011984D01*
X0202500Y0016884D01*
X0202500Y0031984D01*
X0082600Y0036984D02*
X0065500Y0036984D01*
X0065000Y0036484D01*
X0227600Y0251984D02*
X0227600Y0271984D01*
X0222600Y0276984D01*
X0216698Y0276984D01*
X0208502Y0276984D01*
X0207600Y0277886D01*
X0206698Y0276984D01*
X0182600Y0276984D01*
X0216698Y0276984D02*
X0217600Y0277886D01*
D33*
X0027600Y0111984D02*
X0027600Y0101984D01*
X0027600Y0091984D01*
D34*
X0127377Y0162207D02*
X0132416Y0167246D01*
X0137862Y0172246D01*
X0142600Y0176984D01*
X0149425Y0183810D01*
X0152600Y0183810D01*
X0164709Y0171700D01*
X0152600Y0183810D02*
X0152600Y0191984D01*
X0162382Y0201766D01*
X0142600Y0184901D02*
X0142600Y0176984D01*
X0142600Y0184901D02*
X0127962Y0199539D01*
D35*
X0124801Y0031984D02*
X0100399Y0031984D01*
M02*
