G75*
%MOIN*%
%OFA0B0*%
%FSLAX25Y25*%
%IPPOS*%
%LPD*%
%AMOC8*
5,1,8,0,0,1.08239X$1,22.5*
%
%ADD10C,0.00000*%
%ADD11C,0.01000*%
%ADD12C,0.00600*%
%ADD13C,0.00300*%
%ADD14C,0.00500*%
%ADD15R,0.20000X0.10000*%
%ADD16C,0.00200*%
%ADD17C,0.00400*%
%ADD18R,0.01280X0.01673*%
%ADD19R,0.01378X0.01378*%
%ADD20R,0.03000X0.15000*%
%ADD21C,0.00700*%
D10*
X0247600Y0001984D02*
X0261600Y0002284D01*
D11*
X0002600Y0001984D02*
X0001500Y0288384D01*
X0261500Y0288384D01*
X0261600Y0002284D01*
X0002600Y0001984D01*
D12*
X0073100Y0044484D02*
X0073100Y0059484D01*
X0073102Y0059560D01*
X0073108Y0059636D01*
X0073117Y0059711D01*
X0073131Y0059786D01*
X0073148Y0059860D01*
X0073169Y0059933D01*
X0073193Y0060005D01*
X0073222Y0060076D01*
X0073253Y0060145D01*
X0073288Y0060212D01*
X0073327Y0060277D01*
X0073369Y0060341D01*
X0073414Y0060402D01*
X0073462Y0060461D01*
X0073513Y0060517D01*
X0073567Y0060571D01*
X0073623Y0060622D01*
X0073682Y0060670D01*
X0073743Y0060715D01*
X0073807Y0060757D01*
X0073872Y0060796D01*
X0073939Y0060831D01*
X0074008Y0060862D01*
X0074079Y0060891D01*
X0074151Y0060915D01*
X0074224Y0060936D01*
X0074298Y0060953D01*
X0074373Y0060967D01*
X0074448Y0060976D01*
X0074524Y0060982D01*
X0074600Y0060984D01*
X0089100Y0060984D01*
X0092100Y0057984D01*
X0092100Y0045984D01*
X0089100Y0042984D01*
X0074600Y0042984D01*
X0074524Y0042986D01*
X0074448Y0042992D01*
X0074373Y0043001D01*
X0074298Y0043015D01*
X0074224Y0043032D01*
X0074151Y0043053D01*
X0074079Y0043077D01*
X0074008Y0043106D01*
X0073939Y0043137D01*
X0073872Y0043172D01*
X0073807Y0043211D01*
X0073743Y0043253D01*
X0073682Y0043298D01*
X0073623Y0043346D01*
X0073567Y0043397D01*
X0073513Y0043451D01*
X0073462Y0043507D01*
X0073414Y0043566D01*
X0073369Y0043627D01*
X0073327Y0043691D01*
X0073288Y0043756D01*
X0073253Y0043823D01*
X0073222Y0043892D01*
X0073193Y0043963D01*
X0073169Y0044035D01*
X0073148Y0044108D01*
X0073131Y0044182D01*
X0073117Y0044257D01*
X0073108Y0044332D01*
X0073102Y0044408D01*
X0073100Y0044484D01*
X0087300Y0046584D02*
X0089900Y0046584D01*
X0088600Y0045384D02*
X0088600Y0047884D01*
X0091100Y0062984D02*
X0088100Y0065984D01*
X0088100Y0077984D01*
X0091100Y0080984D01*
X0105600Y0080984D01*
X0105676Y0080982D01*
X0105752Y0080976D01*
X0105827Y0080967D01*
X0105902Y0080953D01*
X0105976Y0080936D01*
X0106049Y0080915D01*
X0106121Y0080891D01*
X0106192Y0080862D01*
X0106261Y0080831D01*
X0106328Y0080796D01*
X0106393Y0080757D01*
X0106457Y0080715D01*
X0106518Y0080670D01*
X0106577Y0080622D01*
X0106633Y0080571D01*
X0106687Y0080517D01*
X0106738Y0080461D01*
X0106786Y0080402D01*
X0106831Y0080341D01*
X0106873Y0080277D01*
X0106912Y0080212D01*
X0106947Y0080145D01*
X0106978Y0080076D01*
X0107007Y0080005D01*
X0107031Y0079933D01*
X0107052Y0079860D01*
X0107069Y0079786D01*
X0107083Y0079711D01*
X0107092Y0079636D01*
X0107098Y0079560D01*
X0107100Y0079484D01*
X0107100Y0064484D01*
X0107098Y0064408D01*
X0107092Y0064332D01*
X0107083Y0064257D01*
X0107069Y0064182D01*
X0107052Y0064108D01*
X0107031Y0064035D01*
X0107007Y0063963D01*
X0106978Y0063892D01*
X0106947Y0063823D01*
X0106912Y0063756D01*
X0106873Y0063691D01*
X0106831Y0063627D01*
X0106786Y0063566D01*
X0106738Y0063507D01*
X0106687Y0063451D01*
X0106633Y0063397D01*
X0106577Y0063346D01*
X0106518Y0063298D01*
X0106457Y0063253D01*
X0106393Y0063211D01*
X0106328Y0063172D01*
X0106261Y0063137D01*
X0106192Y0063106D01*
X0106121Y0063077D01*
X0106049Y0063053D01*
X0105976Y0063032D01*
X0105902Y0063015D01*
X0105827Y0063001D01*
X0105752Y0062992D01*
X0105676Y0062986D01*
X0105600Y0062984D01*
X0091100Y0062984D01*
X0091600Y0076084D02*
X0091600Y0078584D01*
X0092900Y0077384D02*
X0090300Y0077384D01*
X0039600Y0129484D02*
X0039600Y0174484D01*
X0039598Y0174582D01*
X0039592Y0174680D01*
X0039583Y0174778D01*
X0039569Y0174875D01*
X0039552Y0174972D01*
X0039531Y0175068D01*
X0039506Y0175163D01*
X0039478Y0175257D01*
X0039445Y0175349D01*
X0039410Y0175441D01*
X0039370Y0175531D01*
X0039328Y0175619D01*
X0039281Y0175706D01*
X0039232Y0175790D01*
X0039179Y0175873D01*
X0039123Y0175953D01*
X0039063Y0176032D01*
X0039001Y0176108D01*
X0038936Y0176181D01*
X0038868Y0176252D01*
X0038797Y0176320D01*
X0038724Y0176385D01*
X0038648Y0176447D01*
X0038569Y0176507D01*
X0038489Y0176563D01*
X0038406Y0176616D01*
X0038322Y0176665D01*
X0038235Y0176712D01*
X0038147Y0176754D01*
X0038057Y0176794D01*
X0037965Y0176829D01*
X0037873Y0176862D01*
X0037779Y0176890D01*
X0037684Y0176915D01*
X0037588Y0176936D01*
X0037491Y0176953D01*
X0037394Y0176967D01*
X0037296Y0176976D01*
X0037198Y0176982D01*
X0037100Y0176984D01*
X0018100Y0176984D01*
X0018002Y0176982D01*
X0017904Y0176976D01*
X0017806Y0176967D01*
X0017709Y0176953D01*
X0017612Y0176936D01*
X0017516Y0176915D01*
X0017421Y0176890D01*
X0017327Y0176862D01*
X0017235Y0176829D01*
X0017143Y0176794D01*
X0017053Y0176754D01*
X0016965Y0176712D01*
X0016878Y0176665D01*
X0016794Y0176616D01*
X0016711Y0176563D01*
X0016631Y0176507D01*
X0016552Y0176447D01*
X0016476Y0176385D01*
X0016403Y0176320D01*
X0016332Y0176252D01*
X0016264Y0176181D01*
X0016199Y0176108D01*
X0016137Y0176032D01*
X0016077Y0175953D01*
X0016021Y0175873D01*
X0015968Y0175790D01*
X0015919Y0175706D01*
X0015872Y0175619D01*
X0015830Y0175531D01*
X0015790Y0175441D01*
X0015755Y0175349D01*
X0015722Y0175257D01*
X0015694Y0175163D01*
X0015669Y0175068D01*
X0015648Y0174972D01*
X0015631Y0174875D01*
X0015617Y0174778D01*
X0015608Y0174680D01*
X0015602Y0174582D01*
X0015600Y0174484D01*
X0015600Y0129484D01*
X0015602Y0129386D01*
X0015608Y0129288D01*
X0015617Y0129190D01*
X0015631Y0129093D01*
X0015648Y0128996D01*
X0015669Y0128900D01*
X0015694Y0128805D01*
X0015722Y0128711D01*
X0015755Y0128619D01*
X0015790Y0128527D01*
X0015830Y0128437D01*
X0015872Y0128349D01*
X0015919Y0128262D01*
X0015968Y0128178D01*
X0016021Y0128095D01*
X0016077Y0128015D01*
X0016137Y0127936D01*
X0016199Y0127860D01*
X0016264Y0127787D01*
X0016332Y0127716D01*
X0016403Y0127648D01*
X0016476Y0127583D01*
X0016552Y0127521D01*
X0016631Y0127461D01*
X0016711Y0127405D01*
X0016794Y0127352D01*
X0016878Y0127303D01*
X0016965Y0127256D01*
X0017053Y0127214D01*
X0017143Y0127174D01*
X0017235Y0127139D01*
X0017327Y0127106D01*
X0017421Y0127078D01*
X0017516Y0127053D01*
X0017612Y0127032D01*
X0017709Y0127015D01*
X0017806Y0127001D01*
X0017904Y0126992D01*
X0018002Y0126986D01*
X0018100Y0126984D01*
X0037100Y0126984D01*
X0037198Y0126986D01*
X0037296Y0126992D01*
X0037394Y0127001D01*
X0037491Y0127015D01*
X0037588Y0127032D01*
X0037684Y0127053D01*
X0037779Y0127078D01*
X0037873Y0127106D01*
X0037965Y0127139D01*
X0038057Y0127174D01*
X0038147Y0127214D01*
X0038235Y0127256D01*
X0038322Y0127303D01*
X0038406Y0127352D01*
X0038489Y0127405D01*
X0038569Y0127461D01*
X0038648Y0127521D01*
X0038724Y0127583D01*
X0038797Y0127648D01*
X0038868Y0127716D01*
X0038936Y0127787D01*
X0039001Y0127860D01*
X0039063Y0127936D01*
X0039123Y0128015D01*
X0039179Y0128095D01*
X0039232Y0128178D01*
X0039281Y0128262D01*
X0039328Y0128349D01*
X0039370Y0128437D01*
X0039410Y0128527D01*
X0039445Y0128619D01*
X0039478Y0128711D01*
X0039506Y0128805D01*
X0039531Y0128900D01*
X0039552Y0128996D01*
X0039569Y0129093D01*
X0039583Y0129190D01*
X0039592Y0129288D01*
X0039598Y0129386D01*
X0039600Y0129484D01*
X0034400Y0115084D02*
X0030100Y0116984D01*
X0025100Y0116984D01*
X0020800Y0115284D01*
X0020800Y0108884D02*
X0025100Y0106984D01*
X0020800Y0105084D01*
X0020800Y0099484D02*
X0025100Y0096984D01*
X0020800Y0094484D01*
X0020800Y0088884D02*
X0025100Y0086984D01*
X0030100Y0086984D01*
X0034400Y0088884D01*
X0034400Y0095084D02*
X0030100Y0096984D01*
X0034400Y0098884D01*
X0034400Y0104484D02*
X0030100Y0106984D01*
X0034400Y0108884D01*
X0045100Y0181984D02*
X0010100Y0181984D01*
X0010100Y0186984D01*
X0009100Y0186984D01*
X0009100Y0191984D01*
X0010100Y0191984D01*
X0010100Y0219484D01*
X0009100Y0219484D01*
X0009100Y0224484D01*
X0010100Y0224484D01*
X0010100Y0251984D01*
X0009100Y0251984D01*
X0009100Y0256984D01*
X0010100Y0256984D01*
X0010100Y0261984D01*
X0045100Y0261984D01*
X0045100Y0243484D01*
X0043100Y0241984D01*
X0043100Y0239984D01*
X0043100Y0233984D01*
X0043100Y0231984D01*
X0045100Y0230484D01*
X0045100Y0229984D01*
X0041100Y0229984D01*
X0040100Y0229984D01*
X0040100Y0233984D01*
X0040100Y0239984D01*
X0041100Y0239984D01*
X0043100Y0239984D01*
X0040100Y0239984D02*
X0040100Y0256984D01*
X0015100Y0256984D01*
X0015100Y0186984D01*
X0040100Y0186984D01*
X0040100Y0213984D01*
X0041100Y0213984D01*
X0045100Y0213984D01*
X0045100Y0204484D01*
X0044600Y0204484D01*
X0044600Y0199484D01*
X0045100Y0199484D01*
X0045100Y0181984D01*
X0045100Y0213984D02*
X0045100Y0229984D01*
X0043100Y0233984D02*
X0041100Y0233984D01*
X0040100Y0233984D01*
X0040100Y0229984D02*
X0037100Y0229984D01*
X0037100Y0213984D01*
X0040100Y0213984D01*
X0087600Y0219484D02*
X0089100Y0215984D01*
X0092600Y0213984D01*
X0112600Y0213984D01*
X0116100Y0215984D01*
X0117600Y0219484D01*
X0117600Y0224484D01*
X0116100Y0227984D01*
X0112600Y0229984D01*
X0092600Y0229984D01*
X0089100Y0227984D01*
X0087600Y0224484D01*
X0087600Y0219484D01*
X0180659Y0126440D02*
X0178524Y0124305D01*
X0178524Y0120034D01*
X0178524Y0123237D02*
X0182794Y0123237D01*
X0182794Y0124305D02*
X0182794Y0120034D01*
X0184969Y0120034D02*
X0184969Y0124305D01*
X0188172Y0124305D01*
X0189240Y0123237D01*
X0189240Y0120034D01*
X0192483Y0121102D02*
X0193550Y0120034D01*
X0192483Y0121102D02*
X0192483Y0125372D01*
X0193550Y0124305D02*
X0191415Y0124305D01*
X0195712Y0124305D02*
X0195712Y0121102D01*
X0196780Y0120034D01*
X0199982Y0120034D01*
X0199982Y0118967D02*
X0198915Y0117899D01*
X0197847Y0117899D01*
X0199982Y0118967D02*
X0199982Y0124305D01*
X0202157Y0124305D02*
X0206428Y0124305D01*
X0202157Y0120034D01*
X0206428Y0120034D01*
X0208603Y0120034D02*
X0210738Y0120034D01*
X0209671Y0120034D02*
X0209671Y0126440D01*
X0208603Y0126440D01*
X0212900Y0123237D02*
X0212900Y0121102D01*
X0213968Y0120034D01*
X0216103Y0120034D01*
X0217170Y0121102D01*
X0217170Y0123237D01*
X0216103Y0124305D01*
X0213968Y0124305D01*
X0212900Y0123237D01*
X0219345Y0123237D02*
X0219345Y0121102D01*
X0220413Y0120034D01*
X0223616Y0120034D01*
X0223616Y0126440D01*
X0223616Y0124305D02*
X0220413Y0124305D01*
X0219345Y0123237D01*
X0225791Y0124305D02*
X0230061Y0124305D01*
X0225791Y0120034D01*
X0230061Y0120034D01*
X0232236Y0120034D02*
X0234372Y0120034D01*
X0233304Y0120034D02*
X0233304Y0124305D01*
X0232236Y0124305D01*
X0233304Y0126440D02*
X0233304Y0127507D01*
X0236533Y0123237D02*
X0237601Y0124305D01*
X0239736Y0124305D01*
X0240804Y0123237D01*
X0240804Y0122169D01*
X0236533Y0122169D01*
X0236533Y0121102D02*
X0236533Y0123237D01*
X0236533Y0121102D02*
X0237601Y0120034D01*
X0239736Y0120034D01*
X0242979Y0117899D02*
X0244046Y0117899D01*
X0245114Y0118967D01*
X0245114Y0124305D01*
X0245114Y0126440D02*
X0245114Y0127507D01*
X0219869Y0115940D02*
X0219869Y0109534D01*
X0217734Y0109534D02*
X0222004Y0109534D01*
X0217734Y0113805D02*
X0219869Y0115940D01*
X0215579Y0110602D02*
X0215579Y0109534D01*
X0214511Y0109534D01*
X0214511Y0110602D01*
X0215579Y0110602D01*
X0212336Y0109534D02*
X0208066Y0109534D01*
X0210201Y0109534D02*
X0210201Y0115940D01*
X0208066Y0113805D01*
X0205891Y0113805D02*
X0203756Y0109534D01*
X0201620Y0113805D01*
X0182794Y0124305D02*
X0180659Y0126440D01*
X0191415Y0084440D02*
X0191415Y0078034D01*
X0193550Y0080169D01*
X0195685Y0078034D01*
X0195685Y0084440D01*
X0198928Y0082305D02*
X0201063Y0082305D01*
X0202131Y0081237D01*
X0202131Y0078034D01*
X0198928Y0078034D01*
X0197860Y0079102D01*
X0198928Y0080169D01*
X0202131Y0080169D01*
X0204306Y0079102D02*
X0205374Y0078034D01*
X0208576Y0078034D01*
X0210751Y0078034D02*
X0210751Y0084440D01*
X0211819Y0082305D02*
X0210751Y0081237D01*
X0211819Y0082305D02*
X0213954Y0082305D01*
X0215022Y0081237D01*
X0215022Y0078034D01*
X0217197Y0079102D02*
X0218265Y0078034D01*
X0221467Y0078034D01*
X0223642Y0078034D02*
X0225778Y0078034D01*
X0224710Y0078034D02*
X0224710Y0082305D01*
X0223642Y0082305D01*
X0221467Y0082305D02*
X0218265Y0082305D01*
X0217197Y0081237D01*
X0217197Y0079102D01*
X0216653Y0073940D02*
X0218788Y0073940D01*
X0219856Y0072872D01*
X0215586Y0068602D01*
X0216653Y0067534D01*
X0218788Y0067534D01*
X0219856Y0068602D01*
X0219856Y0072872D01*
X0222031Y0071805D02*
X0224166Y0073940D01*
X0224166Y0067534D01*
X0222031Y0067534D02*
X0226301Y0067534D01*
X0228477Y0067534D02*
X0228477Y0068602D01*
X0232747Y0072872D01*
X0232747Y0073940D01*
X0228477Y0073940D01*
X0229007Y0078034D02*
X0227939Y0079102D01*
X0227939Y0081237D01*
X0229007Y0082305D01*
X0231142Y0082305D01*
X0232210Y0081237D01*
X0232210Y0079102D01*
X0231142Y0078034D01*
X0229007Y0078034D01*
X0224710Y0084440D02*
X0224710Y0085507D01*
X0216653Y0073940D02*
X0215586Y0072872D01*
X0215586Y0068602D01*
X0213410Y0067534D02*
X0209140Y0067534D01*
X0213410Y0071805D01*
X0213410Y0072872D01*
X0212343Y0073940D01*
X0210208Y0073940D01*
X0209140Y0072872D01*
X0206985Y0068602D02*
X0205917Y0068602D01*
X0205917Y0067534D01*
X0206985Y0067534D01*
X0206985Y0068602D01*
X0203755Y0067534D02*
X0201620Y0067534D01*
X0202688Y0067534D02*
X0202688Y0073940D01*
X0203755Y0073940D02*
X0201620Y0073940D01*
X0199458Y0073940D02*
X0197323Y0073940D01*
X0198391Y0073940D02*
X0198391Y0067534D01*
X0199458Y0067534D02*
X0197323Y0067534D01*
X0195148Y0069669D02*
X0195148Y0073940D01*
X0190878Y0073940D02*
X0190878Y0069669D01*
X0193013Y0067534D01*
X0195148Y0069669D01*
X0204306Y0079102D02*
X0204306Y0081237D01*
X0205374Y0082305D01*
X0208576Y0082305D01*
X0212600Y0047484D02*
X0212600Y0040484D01*
X0212600Y0023484D01*
X0212600Y0017984D01*
X0172600Y0017984D01*
X0172600Y0023484D01*
X0172600Y0040484D01*
X0212600Y0040484D01*
X0212600Y0047484D02*
X0172600Y0047484D01*
X0172600Y0043984D01*
X0172600Y0040484D01*
X0170600Y0039984D01*
X0170600Y0044484D01*
X0172600Y0043984D01*
X0180700Y0043984D02*
X0180702Y0044073D01*
X0180708Y0044162D01*
X0180718Y0044251D01*
X0180732Y0044339D01*
X0180749Y0044426D01*
X0180771Y0044512D01*
X0180797Y0044598D01*
X0180826Y0044682D01*
X0180859Y0044765D01*
X0180895Y0044846D01*
X0180936Y0044926D01*
X0180979Y0045003D01*
X0181026Y0045079D01*
X0181077Y0045152D01*
X0181130Y0045223D01*
X0181187Y0045292D01*
X0181247Y0045358D01*
X0181310Y0045422D01*
X0181375Y0045482D01*
X0181443Y0045540D01*
X0181514Y0045594D01*
X0181587Y0045645D01*
X0181662Y0045693D01*
X0181739Y0045738D01*
X0181818Y0045779D01*
X0181899Y0045816D01*
X0181981Y0045850D01*
X0182065Y0045881D01*
X0182150Y0045907D01*
X0182236Y0045930D01*
X0182323Y0045948D01*
X0182411Y0045963D01*
X0182500Y0045974D01*
X0182589Y0045981D01*
X0182678Y0045984D01*
X0182767Y0045983D01*
X0182856Y0045978D01*
X0182944Y0045969D01*
X0183033Y0045956D01*
X0183120Y0045939D01*
X0183207Y0045919D01*
X0183293Y0045894D01*
X0183377Y0045866D01*
X0183460Y0045834D01*
X0183542Y0045798D01*
X0183622Y0045759D01*
X0183700Y0045716D01*
X0183776Y0045670D01*
X0183850Y0045620D01*
X0183922Y0045567D01*
X0183991Y0045511D01*
X0184058Y0045452D01*
X0184122Y0045390D01*
X0184183Y0045326D01*
X0184242Y0045258D01*
X0184297Y0045188D01*
X0184349Y0045116D01*
X0184398Y0045041D01*
X0184443Y0044965D01*
X0184485Y0044886D01*
X0184523Y0044806D01*
X0184558Y0044724D01*
X0184589Y0044640D01*
X0184617Y0044555D01*
X0184640Y0044469D01*
X0184660Y0044382D01*
X0184676Y0044295D01*
X0184688Y0044206D01*
X0184696Y0044118D01*
X0184700Y0044029D01*
X0184700Y0043939D01*
X0184696Y0043850D01*
X0184688Y0043762D01*
X0184676Y0043673D01*
X0184660Y0043586D01*
X0184640Y0043499D01*
X0184617Y0043413D01*
X0184589Y0043328D01*
X0184558Y0043244D01*
X0184523Y0043162D01*
X0184485Y0043082D01*
X0184443Y0043003D01*
X0184398Y0042927D01*
X0184349Y0042852D01*
X0184297Y0042780D01*
X0184242Y0042710D01*
X0184183Y0042642D01*
X0184122Y0042578D01*
X0184058Y0042516D01*
X0183991Y0042457D01*
X0183922Y0042401D01*
X0183850Y0042348D01*
X0183776Y0042298D01*
X0183700Y0042252D01*
X0183622Y0042209D01*
X0183542Y0042170D01*
X0183460Y0042134D01*
X0183377Y0042102D01*
X0183293Y0042074D01*
X0183207Y0042049D01*
X0183120Y0042029D01*
X0183033Y0042012D01*
X0182944Y0041999D01*
X0182856Y0041990D01*
X0182767Y0041985D01*
X0182678Y0041984D01*
X0182589Y0041987D01*
X0182500Y0041994D01*
X0182411Y0042005D01*
X0182323Y0042020D01*
X0182236Y0042038D01*
X0182150Y0042061D01*
X0182065Y0042087D01*
X0181981Y0042118D01*
X0181899Y0042152D01*
X0181818Y0042189D01*
X0181739Y0042230D01*
X0181662Y0042275D01*
X0181587Y0042323D01*
X0181514Y0042374D01*
X0181443Y0042428D01*
X0181375Y0042486D01*
X0181310Y0042546D01*
X0181247Y0042610D01*
X0181187Y0042676D01*
X0181130Y0042745D01*
X0181077Y0042816D01*
X0181026Y0042889D01*
X0180979Y0042965D01*
X0180936Y0043042D01*
X0180895Y0043122D01*
X0180859Y0043203D01*
X0180826Y0043286D01*
X0180797Y0043370D01*
X0180771Y0043456D01*
X0180749Y0043542D01*
X0180732Y0043629D01*
X0180718Y0043717D01*
X0180708Y0043806D01*
X0180702Y0043895D01*
X0180700Y0043984D01*
X0172600Y0023484D02*
X0212600Y0023484D01*
X0200500Y0043984D02*
X0200502Y0044073D01*
X0200508Y0044162D01*
X0200518Y0044251D01*
X0200532Y0044339D01*
X0200549Y0044426D01*
X0200571Y0044512D01*
X0200597Y0044598D01*
X0200626Y0044682D01*
X0200659Y0044765D01*
X0200695Y0044846D01*
X0200736Y0044926D01*
X0200779Y0045003D01*
X0200826Y0045079D01*
X0200877Y0045152D01*
X0200930Y0045223D01*
X0200987Y0045292D01*
X0201047Y0045358D01*
X0201110Y0045422D01*
X0201175Y0045482D01*
X0201243Y0045540D01*
X0201314Y0045594D01*
X0201387Y0045645D01*
X0201462Y0045693D01*
X0201539Y0045738D01*
X0201618Y0045779D01*
X0201699Y0045816D01*
X0201781Y0045850D01*
X0201865Y0045881D01*
X0201950Y0045907D01*
X0202036Y0045930D01*
X0202123Y0045948D01*
X0202211Y0045963D01*
X0202300Y0045974D01*
X0202389Y0045981D01*
X0202478Y0045984D01*
X0202567Y0045983D01*
X0202656Y0045978D01*
X0202744Y0045969D01*
X0202833Y0045956D01*
X0202920Y0045939D01*
X0203007Y0045919D01*
X0203093Y0045894D01*
X0203177Y0045866D01*
X0203260Y0045834D01*
X0203342Y0045798D01*
X0203422Y0045759D01*
X0203500Y0045716D01*
X0203576Y0045670D01*
X0203650Y0045620D01*
X0203722Y0045567D01*
X0203791Y0045511D01*
X0203858Y0045452D01*
X0203922Y0045390D01*
X0203983Y0045326D01*
X0204042Y0045258D01*
X0204097Y0045188D01*
X0204149Y0045116D01*
X0204198Y0045041D01*
X0204243Y0044965D01*
X0204285Y0044886D01*
X0204323Y0044806D01*
X0204358Y0044724D01*
X0204389Y0044640D01*
X0204417Y0044555D01*
X0204440Y0044469D01*
X0204460Y0044382D01*
X0204476Y0044295D01*
X0204488Y0044206D01*
X0204496Y0044118D01*
X0204500Y0044029D01*
X0204500Y0043939D01*
X0204496Y0043850D01*
X0204488Y0043762D01*
X0204476Y0043673D01*
X0204460Y0043586D01*
X0204440Y0043499D01*
X0204417Y0043413D01*
X0204389Y0043328D01*
X0204358Y0043244D01*
X0204323Y0043162D01*
X0204285Y0043082D01*
X0204243Y0043003D01*
X0204198Y0042927D01*
X0204149Y0042852D01*
X0204097Y0042780D01*
X0204042Y0042710D01*
X0203983Y0042642D01*
X0203922Y0042578D01*
X0203858Y0042516D01*
X0203791Y0042457D01*
X0203722Y0042401D01*
X0203650Y0042348D01*
X0203576Y0042298D01*
X0203500Y0042252D01*
X0203422Y0042209D01*
X0203342Y0042170D01*
X0203260Y0042134D01*
X0203177Y0042102D01*
X0203093Y0042074D01*
X0203007Y0042049D01*
X0202920Y0042029D01*
X0202833Y0042012D01*
X0202744Y0041999D01*
X0202656Y0041990D01*
X0202567Y0041985D01*
X0202478Y0041984D01*
X0202389Y0041987D01*
X0202300Y0041994D01*
X0202211Y0042005D01*
X0202123Y0042020D01*
X0202036Y0042038D01*
X0201950Y0042061D01*
X0201865Y0042087D01*
X0201781Y0042118D01*
X0201699Y0042152D01*
X0201618Y0042189D01*
X0201539Y0042230D01*
X0201462Y0042275D01*
X0201387Y0042323D01*
X0201314Y0042374D01*
X0201243Y0042428D01*
X0201175Y0042486D01*
X0201110Y0042546D01*
X0201047Y0042610D01*
X0200987Y0042676D01*
X0200930Y0042745D01*
X0200877Y0042816D01*
X0200826Y0042889D01*
X0200779Y0042965D01*
X0200736Y0043042D01*
X0200695Y0043122D01*
X0200659Y0043203D01*
X0200626Y0043286D01*
X0200597Y0043370D01*
X0200571Y0043456D01*
X0200549Y0043542D01*
X0200532Y0043629D01*
X0200518Y0043717D01*
X0200508Y0043806D01*
X0200502Y0043895D01*
X0200500Y0043984D01*
X0182600Y0245984D02*
X0242600Y0245984D01*
X0242600Y0257984D01*
X0182600Y0257984D01*
X0182600Y0245984D01*
D13*
X0182434Y0244937D02*
X0183401Y0244937D01*
X0183885Y0244453D01*
X0183885Y0243969D01*
X0183401Y0243485D01*
X0183885Y0243002D01*
X0183885Y0242518D01*
X0183401Y0242034D01*
X0182434Y0242034D01*
X0181950Y0242518D01*
X0182917Y0243485D02*
X0183401Y0243485D01*
X0181950Y0244453D02*
X0182434Y0244937D01*
X0184897Y0244453D02*
X0185380Y0244937D01*
X0186348Y0244937D01*
X0186831Y0244453D01*
X0186831Y0243969D01*
X0184897Y0242034D01*
X0186831Y0242034D01*
X0187843Y0242034D02*
X0187843Y0244937D01*
X0188327Y0243485D02*
X0189778Y0242034D01*
X0187843Y0243002D02*
X0189778Y0244937D01*
X0192650Y0244753D02*
X0192650Y0244269D01*
X0193134Y0243785D01*
X0194101Y0243785D01*
X0194585Y0243302D01*
X0194585Y0242818D01*
X0194101Y0242334D01*
X0193134Y0242334D01*
X0192650Y0242818D01*
X0192650Y0244753D02*
X0193134Y0245237D01*
X0194101Y0245237D01*
X0194585Y0244753D01*
X0195597Y0244753D02*
X0196080Y0245237D01*
X0197048Y0245237D01*
X0197531Y0244753D01*
X0197531Y0242818D01*
X0197048Y0242334D01*
X0196080Y0242334D01*
X0195597Y0242818D01*
X0195597Y0244753D01*
X0196564Y0243302D02*
X0197531Y0242334D01*
X0198543Y0242334D02*
X0198543Y0245237D01*
X0200478Y0245237D02*
X0200478Y0242334D01*
X0199511Y0243302D01*
X0198543Y0242334D01*
X0204450Y0242718D02*
X0204934Y0242234D01*
X0205901Y0242234D01*
X0206385Y0242718D01*
X0206385Y0243202D01*
X0205901Y0243685D01*
X0204934Y0243685D01*
X0204450Y0244169D01*
X0204450Y0244653D01*
X0204934Y0245137D01*
X0205901Y0245137D01*
X0206385Y0244653D01*
X0207397Y0244653D02*
X0207397Y0242718D01*
X0207880Y0242234D01*
X0208848Y0242234D01*
X0209331Y0242718D01*
X0210343Y0242234D02*
X0212278Y0242234D01*
X0214050Y0242818D02*
X0214534Y0242334D01*
X0215501Y0242334D01*
X0215985Y0242818D01*
X0215985Y0243302D01*
X0215501Y0243785D01*
X0214534Y0243785D01*
X0214050Y0244269D01*
X0214050Y0244753D01*
X0214534Y0245237D01*
X0215501Y0245237D01*
X0215985Y0244753D01*
X0216997Y0245237D02*
X0216997Y0242334D01*
X0218448Y0242334D01*
X0218931Y0242818D01*
X0218931Y0244753D01*
X0218448Y0245237D01*
X0216997Y0245237D01*
X0219943Y0244269D02*
X0219943Y0242334D01*
X0219943Y0243785D02*
X0221878Y0243785D01*
X0221878Y0244269D02*
X0221878Y0242334D01*
X0221878Y0244269D02*
X0220911Y0245237D01*
X0219943Y0244269D01*
X0223950Y0244937D02*
X0223950Y0243002D01*
X0224917Y0242034D01*
X0225885Y0243002D01*
X0225885Y0244937D01*
X0226897Y0244453D02*
X0226897Y0242518D01*
X0227380Y0242034D01*
X0228348Y0242034D01*
X0228831Y0242518D01*
X0229843Y0242518D02*
X0230327Y0242034D01*
X0231294Y0242034D01*
X0231778Y0242518D01*
X0229843Y0242518D02*
X0229843Y0244453D01*
X0230327Y0244937D01*
X0231294Y0244937D01*
X0231778Y0244453D01*
X0234050Y0244653D02*
X0234050Y0242718D01*
X0234534Y0242234D01*
X0235501Y0242234D01*
X0235985Y0242718D01*
X0235985Y0243685D01*
X0235017Y0243685D01*
X0234050Y0244653D02*
X0234534Y0245137D01*
X0235501Y0245137D01*
X0235985Y0244653D01*
X0236997Y0245137D02*
X0238931Y0242234D01*
X0238931Y0245137D01*
X0239943Y0245137D02*
X0241394Y0245137D01*
X0241878Y0244653D01*
X0241878Y0242718D01*
X0241394Y0242234D01*
X0239943Y0242234D01*
X0239943Y0245137D01*
X0236997Y0245137D02*
X0236997Y0242234D01*
X0228831Y0244453D02*
X0228348Y0244937D01*
X0227380Y0244937D01*
X0226897Y0244453D01*
X0227750Y0230037D02*
X0229201Y0230037D01*
X0229685Y0229553D01*
X0229685Y0228585D01*
X0229201Y0228102D01*
X0227750Y0228102D01*
X0228717Y0228102D02*
X0229685Y0227134D01*
X0227750Y0227134D02*
X0227750Y0230037D01*
X0230697Y0230037D02*
X0232631Y0230037D01*
X0231664Y0230037D02*
X0231664Y0227134D01*
X0233643Y0227618D02*
X0233643Y0229553D01*
X0234127Y0230037D01*
X0235094Y0230037D01*
X0235578Y0229553D01*
X0235578Y0227618D02*
X0235094Y0227134D01*
X0234127Y0227134D01*
X0233643Y0227618D01*
X0210343Y0242234D02*
X0210343Y0245137D01*
X0209331Y0244653D02*
X0208848Y0245137D01*
X0207880Y0245137D01*
X0207397Y0244653D01*
X0137031Y0268634D02*
X0135097Y0270569D01*
X0134085Y0270085D02*
X0133601Y0269602D01*
X0132150Y0269602D01*
X0133117Y0269602D02*
X0134085Y0268634D01*
X0135097Y0268634D02*
X0137031Y0270569D01*
X0134085Y0271053D02*
X0134085Y0270085D01*
X0134085Y0271053D02*
X0133601Y0271537D01*
X0132150Y0271537D01*
X0132150Y0268634D01*
X0127031Y0268534D02*
X0125097Y0270469D01*
X0124085Y0271437D02*
X0122150Y0271437D01*
X0123117Y0271437D02*
X0123117Y0268534D01*
X0125097Y0268534D02*
X0127031Y0270469D01*
X0117278Y0271153D02*
X0117278Y0269218D01*
X0116794Y0268734D01*
X0115343Y0268734D01*
X0115343Y0271637D01*
X0116794Y0271637D01*
X0117278Y0271153D01*
X0114331Y0271637D02*
X0114331Y0268734D01*
X0112397Y0271637D01*
X0112397Y0268734D01*
X0111385Y0269218D02*
X0111385Y0270185D01*
X0110417Y0270185D01*
X0109450Y0269218D02*
X0109450Y0271153D01*
X0109934Y0271637D01*
X0110901Y0271637D01*
X0111385Y0271153D01*
X0111385Y0269218D02*
X0110901Y0268734D01*
X0109934Y0268734D01*
X0109450Y0269218D01*
X0098078Y0269118D02*
X0097594Y0268634D01*
X0096627Y0268634D01*
X0096143Y0269118D01*
X0096143Y0271053D01*
X0096627Y0271537D01*
X0097594Y0271537D01*
X0098078Y0271053D01*
X0095131Y0271053D02*
X0094648Y0271537D01*
X0093680Y0271537D01*
X0093197Y0271053D01*
X0093197Y0269118D01*
X0093680Y0268634D01*
X0094648Y0268634D01*
X0095131Y0269118D01*
X0092185Y0269602D02*
X0092185Y0271537D01*
X0090250Y0271537D02*
X0090250Y0269602D01*
X0091217Y0268634D01*
X0092185Y0269602D01*
X0048594Y0172937D02*
X0047143Y0171485D01*
X0049078Y0171485D01*
X0048594Y0170034D02*
X0048594Y0172937D01*
X0046131Y0172453D02*
X0046131Y0171969D01*
X0045648Y0171485D01*
X0044197Y0171485D01*
X0043185Y0171485D02*
X0042701Y0171002D01*
X0041250Y0171002D01*
X0041250Y0170034D02*
X0041250Y0172937D01*
X0042701Y0172937D01*
X0043185Y0172453D01*
X0043185Y0171485D01*
X0044197Y0170034D02*
X0044197Y0172937D01*
X0045648Y0172937D01*
X0046131Y0172453D01*
X0045648Y0171485D02*
X0046131Y0171002D01*
X0046131Y0170518D01*
X0045648Y0170034D01*
X0044197Y0170034D01*
X0044297Y0163237D02*
X0045748Y0163237D01*
X0046231Y0162753D01*
X0046231Y0162269D01*
X0045748Y0161785D01*
X0044297Y0161785D01*
X0043285Y0161785D02*
X0042801Y0161302D01*
X0041350Y0161302D01*
X0041350Y0160334D02*
X0041350Y0163237D01*
X0042801Y0163237D01*
X0043285Y0162753D01*
X0043285Y0161785D01*
X0044297Y0160334D02*
X0045748Y0160334D01*
X0046231Y0160818D01*
X0046231Y0161302D01*
X0045748Y0161785D01*
X0047243Y0160818D02*
X0047727Y0160334D01*
X0048694Y0160334D01*
X0049178Y0160818D01*
X0049178Y0161302D01*
X0048694Y0161785D01*
X0048211Y0161785D01*
X0048694Y0161785D02*
X0049178Y0162269D01*
X0049178Y0162753D01*
X0048694Y0163237D01*
X0047727Y0163237D01*
X0047243Y0162753D01*
X0044297Y0163237D02*
X0044297Y0160334D01*
X0044197Y0153837D02*
X0045648Y0153837D01*
X0046131Y0153353D01*
X0046131Y0152869D01*
X0045648Y0152385D01*
X0044197Y0152385D01*
X0043185Y0152385D02*
X0042701Y0151902D01*
X0041250Y0151902D01*
X0041250Y0150934D02*
X0041250Y0153837D01*
X0042701Y0153837D01*
X0043185Y0153353D01*
X0043185Y0152385D01*
X0044197Y0150934D02*
X0045648Y0150934D01*
X0046131Y0151418D01*
X0046131Y0151902D01*
X0045648Y0152385D01*
X0047143Y0153353D02*
X0047627Y0153837D01*
X0048594Y0153837D01*
X0049078Y0153353D01*
X0049078Y0152869D01*
X0047143Y0150934D01*
X0049078Y0150934D01*
X0044197Y0150934D02*
X0044197Y0153837D01*
X0044297Y0143637D02*
X0045748Y0143637D01*
X0046231Y0143153D01*
X0046231Y0142669D01*
X0045748Y0142185D01*
X0044297Y0142185D01*
X0043285Y0142185D02*
X0042801Y0141702D01*
X0041350Y0141702D01*
X0041350Y0140734D02*
X0041350Y0143637D01*
X0042801Y0143637D01*
X0043285Y0143153D01*
X0043285Y0142185D01*
X0044297Y0140734D02*
X0044297Y0143637D01*
X0045748Y0142185D02*
X0046231Y0141702D01*
X0046231Y0141218D01*
X0045748Y0140734D01*
X0044297Y0140734D01*
X0047243Y0140734D02*
X0049178Y0140734D01*
X0048211Y0140734D02*
X0048211Y0143637D01*
X0047243Y0142669D01*
X0047527Y0133537D02*
X0048494Y0133537D01*
X0048978Y0133053D01*
X0047043Y0131118D01*
X0047527Y0130634D01*
X0048494Y0130634D01*
X0048978Y0131118D01*
X0048978Y0133053D01*
X0047527Y0133537D02*
X0047043Y0133053D01*
X0047043Y0131118D01*
X0046031Y0131118D02*
X0045548Y0130634D01*
X0044097Y0130634D01*
X0044097Y0133537D01*
X0045548Y0133537D01*
X0046031Y0133053D01*
X0046031Y0132569D01*
X0045548Y0132085D01*
X0044097Y0132085D01*
X0043085Y0132085D02*
X0042601Y0131602D01*
X0041150Y0131602D01*
X0041150Y0130634D02*
X0041150Y0133537D01*
X0042601Y0133537D01*
X0043085Y0133053D01*
X0043085Y0132085D01*
X0045548Y0132085D02*
X0046031Y0131602D01*
X0046031Y0131118D01*
X0023215Y0077872D02*
X0023215Y0077388D01*
X0024183Y0076420D01*
X0025150Y0076420D02*
X0023215Y0076420D01*
X0023699Y0075409D02*
X0024183Y0075409D01*
X0024183Y0073474D01*
X0024666Y0073474D02*
X0023699Y0073474D01*
X0023215Y0073958D01*
X0023215Y0074925D01*
X0023699Y0075409D01*
X0025150Y0074925D02*
X0025150Y0073958D01*
X0024666Y0073474D01*
X0024666Y0072462D02*
X0023215Y0072462D01*
X0024666Y0072462D02*
X0025150Y0071979D01*
X0024666Y0071495D01*
X0025150Y0071011D01*
X0024666Y0070527D01*
X0023215Y0070527D01*
X0023699Y0069516D02*
X0023215Y0069032D01*
X0023215Y0068065D01*
X0023699Y0067581D01*
X0024666Y0067581D01*
X0025150Y0068065D01*
X0025150Y0069032D01*
X0024666Y0069516D01*
X0023699Y0069516D01*
X0023699Y0066569D02*
X0024666Y0066569D01*
X0025150Y0066085D01*
X0025150Y0064634D01*
X0026117Y0064634D02*
X0023215Y0064634D01*
X0023215Y0066085D01*
X0023699Y0066569D01*
X0150515Y0045855D02*
X0150515Y0044404D01*
X0150999Y0043920D01*
X0151966Y0043920D01*
X0152450Y0044404D01*
X0152450Y0045855D01*
X0152934Y0045855D02*
X0150515Y0045855D01*
X0152934Y0045855D02*
X0153417Y0045372D01*
X0153417Y0044888D01*
X0152450Y0042909D02*
X0150515Y0042909D01*
X0152450Y0042909D02*
X0152450Y0041458D01*
X0151966Y0040974D01*
X0150515Y0040974D01*
X0150999Y0039962D02*
X0150515Y0039479D01*
X0150515Y0038027D01*
X0149548Y0038027D02*
X0152450Y0038027D01*
X0152450Y0039479D01*
X0151966Y0039962D01*
X0150999Y0039962D01*
X0150999Y0037016D02*
X0150515Y0036532D01*
X0150515Y0035565D01*
X0150999Y0035081D01*
X0151966Y0035081D01*
X0152450Y0035565D01*
X0152450Y0036532D01*
X0151483Y0037016D02*
X0151483Y0035081D01*
X0152450Y0034069D02*
X0149548Y0034069D01*
X0150515Y0034069D02*
X0150515Y0032618D01*
X0150999Y0032134D01*
X0151966Y0032134D01*
X0152450Y0032618D01*
X0152450Y0034069D01*
X0151483Y0037016D02*
X0150999Y0037016D01*
X0178150Y0050318D02*
X0178634Y0049834D01*
X0179601Y0049834D01*
X0180085Y0050318D01*
X0180085Y0051285D01*
X0179117Y0051285D01*
X0178150Y0050318D02*
X0178150Y0052253D01*
X0178634Y0052737D01*
X0179601Y0052737D01*
X0180085Y0052253D01*
X0181097Y0052737D02*
X0183031Y0049834D01*
X0183031Y0052737D01*
X0184043Y0052737D02*
X0185494Y0052737D01*
X0185978Y0052253D01*
X0185978Y0050318D01*
X0185494Y0049834D01*
X0184043Y0049834D01*
X0184043Y0052737D01*
X0181097Y0052737D02*
X0181097Y0049834D01*
X0196150Y0051385D02*
X0198085Y0051385D01*
X0199097Y0051869D02*
X0199097Y0052353D01*
X0199580Y0052837D01*
X0200548Y0052837D01*
X0201031Y0052353D01*
X0201031Y0050418D01*
X0200548Y0049934D01*
X0199580Y0049934D01*
X0199097Y0050418D01*
X0199580Y0051385D02*
X0201031Y0051385D01*
X0202043Y0050902D02*
X0202043Y0052837D01*
X0203978Y0052837D02*
X0203978Y0050902D01*
X0203011Y0049934D01*
X0202043Y0050902D01*
X0199580Y0051385D02*
X0199097Y0051869D01*
X0197117Y0052353D02*
X0197117Y0050418D01*
D14*
X0197051Y0045637D02*
X0195917Y0045637D01*
X0195350Y0045070D01*
X0197051Y0045637D02*
X0197619Y0045070D01*
X0197619Y0044503D01*
X0195350Y0042234D01*
X0197619Y0042234D01*
X0177619Y0042234D02*
X0175350Y0042234D01*
X0176484Y0042234D02*
X0176484Y0045637D01*
X0175350Y0044503D01*
X0161025Y0083008D02*
X0161025Y0271984D01*
X0062600Y0271984D01*
X0062600Y0083008D01*
X0161025Y0083008D01*
X0089556Y0086185D02*
X0089556Y0086936D01*
X0088806Y0087686D01*
X0086554Y0087686D01*
X0086554Y0086185D01*
X0087305Y0085434D01*
X0088806Y0085434D01*
X0089556Y0086185D01*
X0088055Y0089187D02*
X0086554Y0087686D01*
X0088055Y0089187D02*
X0089556Y0089938D01*
X0084953Y0089187D02*
X0084202Y0089938D01*
X0082701Y0089938D01*
X0081950Y0089187D01*
X0081950Y0086185D01*
X0082701Y0085434D01*
X0084202Y0085434D01*
X0084953Y0086185D01*
X0079349Y0074838D02*
X0076346Y0074838D01*
X0076346Y0072586D01*
X0077847Y0073337D01*
X0078598Y0073337D01*
X0079349Y0072586D01*
X0079349Y0071085D01*
X0078598Y0070334D01*
X0077097Y0070334D01*
X0076346Y0071085D01*
X0074745Y0071085D02*
X0073994Y0070334D01*
X0072493Y0070334D01*
X0071742Y0071085D01*
X0071742Y0074087D01*
X0072493Y0074838D01*
X0073994Y0074838D01*
X0074745Y0074087D01*
X0065500Y0053984D02*
X0065500Y0046984D01*
X0065000Y0053984D02*
X0007500Y0053984D01*
X0007500Y0048984D01*
X0057500Y0048984D01*
X0057500Y0023984D01*
X0007500Y0023984D01*
X0007500Y0048984D01*
X0007500Y0023984D02*
X0007500Y0018984D01*
X0043500Y0018984D01*
X0063500Y0018984D02*
X0065500Y0018984D01*
X0065500Y0025984D01*
X0034800Y0088784D02*
X0034800Y0094784D01*
X0034800Y0098984D02*
X0034800Y0104384D01*
X0039346Y0104173D02*
X0040097Y0103422D01*
X0040847Y0103422D01*
X0041598Y0104173D01*
X0041598Y0105674D01*
X0042349Y0106425D01*
X0043099Y0106425D01*
X0043850Y0105674D01*
X0043850Y0104173D01*
X0043099Y0103422D01*
X0040097Y0106425D02*
X0039346Y0105674D01*
X0039346Y0104173D01*
X0039346Y0108026D02*
X0042349Y0108026D01*
X0043850Y0109528D01*
X0042349Y0111029D01*
X0039346Y0111029D01*
X0040097Y0112630D02*
X0039346Y0113381D01*
X0039346Y0114882D01*
X0040097Y0115633D01*
X0040847Y0115633D01*
X0041598Y0114882D01*
X0042349Y0115633D01*
X0043099Y0115633D01*
X0043850Y0114882D01*
X0043850Y0113381D01*
X0043099Y0112630D01*
X0041598Y0114132D02*
X0041598Y0114882D01*
X0034800Y0115184D02*
X0034800Y0109184D01*
X0029850Y0117630D02*
X0029850Y0120633D01*
X0029850Y0119132D02*
X0025346Y0119132D01*
X0026847Y0117630D01*
X0020400Y0115184D02*
X0020400Y0109184D01*
X0020400Y0104984D02*
X0020400Y0099584D01*
X0020400Y0094184D02*
X0020400Y0088784D01*
X0013850Y0121526D02*
X0013850Y0124529D01*
X0013850Y0123028D02*
X0009346Y0123028D01*
X0010847Y0121526D01*
X0010097Y0126130D02*
X0009346Y0126881D01*
X0009346Y0128382D01*
X0010097Y0129133D01*
X0013099Y0126130D01*
X0013850Y0126881D01*
X0013850Y0128382D01*
X0013099Y0129133D01*
X0010097Y0129133D01*
X0010097Y0126130D02*
X0013099Y0126130D01*
X0035347Y0176630D02*
X0033846Y0178132D01*
X0038350Y0178132D01*
X0038350Y0179633D02*
X0038350Y0176630D01*
X0034850Y0192234D02*
X0034850Y0195237D01*
X0034850Y0193736D02*
X0030346Y0193736D01*
X0031847Y0192234D01*
X0024850Y0192234D02*
X0021847Y0195237D01*
X0021097Y0195237D01*
X0020346Y0194486D01*
X0020346Y0192985D01*
X0021097Y0192234D01*
X0024850Y0192234D02*
X0024850Y0195237D01*
X0040347Y0218234D02*
X0038846Y0219736D01*
X0043350Y0219736D01*
X0043350Y0221237D02*
X0043350Y0218234D01*
X0042599Y0222838D02*
X0039597Y0225841D01*
X0042599Y0225841D01*
X0043350Y0225090D01*
X0043350Y0223589D01*
X0042599Y0222838D01*
X0039597Y0222838D01*
X0038846Y0223589D01*
X0038846Y0225090D01*
X0039597Y0225841D01*
X0104038Y0209487D02*
X0104038Y0208737D01*
X0104789Y0207986D01*
X0106290Y0207986D01*
X0107041Y0207236D01*
X0107041Y0206485D01*
X0106290Y0205734D01*
X0104789Y0205734D01*
X0104038Y0206485D01*
X0104038Y0209487D02*
X0104789Y0210238D01*
X0106290Y0210238D01*
X0107041Y0209487D01*
X0108642Y0210238D02*
X0108642Y0207236D01*
X0110143Y0205734D01*
X0111645Y0207236D01*
X0111645Y0210238D01*
X0113246Y0209487D02*
X0113997Y0210238D01*
X0115498Y0210238D01*
X0116249Y0209487D01*
X0116249Y0208737D01*
X0113246Y0205734D01*
X0116249Y0205734D01*
X0118246Y0219734D02*
X0121249Y0219734D01*
X0119747Y0219734D02*
X0119747Y0224238D01*
X0118246Y0222737D01*
X0185850Y0260234D02*
X0188853Y0260234D01*
X0187351Y0260234D02*
X0187351Y0264738D01*
X0185850Y0263237D01*
X0226950Y0238238D02*
X0226950Y0233734D01*
X0229202Y0233734D01*
X0229953Y0234485D01*
X0229953Y0237487D01*
X0229202Y0238238D01*
X0226950Y0238238D01*
X0231554Y0237487D02*
X0231554Y0236737D01*
X0232305Y0235986D01*
X0233806Y0235986D01*
X0234556Y0235236D01*
X0234556Y0234485D01*
X0233806Y0233734D01*
X0232305Y0233734D01*
X0231554Y0234485D01*
X0231554Y0237487D02*
X0232305Y0238238D01*
X0233806Y0238238D01*
X0234556Y0237487D01*
X0236158Y0237487D02*
X0236908Y0238238D01*
X0238410Y0238238D01*
X0239160Y0237487D01*
X0239160Y0236737D01*
X0238410Y0235986D01*
X0239160Y0235236D01*
X0239160Y0234485D01*
X0238410Y0233734D01*
X0236908Y0233734D01*
X0236158Y0234485D01*
X0237659Y0235986D02*
X0238410Y0235986D01*
X0240762Y0237487D02*
X0241512Y0238238D01*
X0243014Y0238238D01*
X0243764Y0237487D01*
X0243764Y0236737D01*
X0240762Y0233734D01*
X0243764Y0233734D01*
X0245366Y0234485D02*
X0246116Y0233734D01*
X0247618Y0233734D01*
X0248368Y0234485D01*
X0248368Y0235236D01*
X0247618Y0235986D01*
X0246867Y0235986D01*
X0247618Y0235986D02*
X0248368Y0236737D01*
X0248368Y0237487D01*
X0247618Y0238238D01*
X0246116Y0238238D01*
X0245366Y0237487D01*
X0249970Y0236737D02*
X0251471Y0238238D01*
X0251471Y0233734D01*
X0249970Y0233734D02*
X0252972Y0233734D01*
X0238102Y0260234D02*
X0238853Y0260985D01*
X0238853Y0261736D01*
X0238102Y0262486D01*
X0235850Y0262486D01*
X0235850Y0260985D01*
X0236601Y0260234D01*
X0238102Y0260234D01*
X0235850Y0262486D02*
X0237351Y0263987D01*
X0238853Y0264738D01*
D15*
X0020500Y0036984D03*
D16*
X0014100Y0185984D02*
X0041100Y0185984D01*
X0041100Y0213984D01*
X0041100Y0229984D02*
X0041100Y0233984D01*
X0041100Y0239984D02*
X0041100Y0257984D01*
X0014100Y0257984D01*
X0014100Y0185984D01*
D17*
X0046697Y0195584D02*
X0050300Y0195584D01*
X0049099Y0195584D02*
X0046697Y0197986D01*
X0047898Y0199267D02*
X0046697Y0200468D01*
X0047898Y0201669D01*
X0050300Y0201669D01*
X0050300Y0202951D02*
X0046697Y0202951D01*
X0050300Y0205353D01*
X0046697Y0205353D01*
X0046697Y0206634D02*
X0046697Y0208435D01*
X0047297Y0209036D01*
X0049699Y0209036D01*
X0050300Y0208435D01*
X0050300Y0206634D01*
X0046697Y0206634D01*
X0047898Y0210317D02*
X0046697Y0211518D01*
X0047898Y0212719D01*
X0050300Y0212719D01*
X0048498Y0212719D02*
X0048498Y0210317D01*
X0047898Y0210317D02*
X0050300Y0210317D01*
X0048498Y0201669D02*
X0048498Y0199267D01*
X0047898Y0199267D02*
X0050300Y0199267D01*
X0050300Y0197986D02*
X0048498Y0196185D01*
X0049239Y0277084D02*
X0049239Y0281688D01*
X0050773Y0281688D02*
X0047704Y0281688D01*
X0046169Y0280154D02*
X0046169Y0277084D01*
X0046169Y0279386D02*
X0043100Y0279386D01*
X0043100Y0280154D02*
X0044635Y0281688D01*
X0046169Y0280154D01*
X0043100Y0280154D02*
X0043100Y0277084D01*
X0052308Y0277084D02*
X0052308Y0281688D01*
X0055377Y0277084D01*
X0055377Y0281688D01*
X0056912Y0281688D02*
X0056912Y0277084D01*
X0059981Y0277084D01*
X0061516Y0277084D02*
X0064585Y0277084D01*
X0066120Y0279386D02*
X0069189Y0279386D01*
X0070724Y0279386D02*
X0073793Y0279386D01*
X0073793Y0280154D02*
X0073793Y0277084D01*
X0075327Y0277084D02*
X0076862Y0277084D01*
X0076095Y0277084D02*
X0076095Y0281688D01*
X0076862Y0281688D02*
X0075327Y0281688D01*
X0073793Y0280154D02*
X0072258Y0281688D01*
X0070724Y0280154D01*
X0070724Y0277084D01*
X0078397Y0277084D02*
X0078397Y0281688D01*
X0080699Y0281688D01*
X0081466Y0280921D01*
X0081466Y0279386D01*
X0080699Y0278619D01*
X0078397Y0278619D01*
X0079931Y0278619D02*
X0081466Y0277084D01*
X0061516Y0277084D02*
X0061516Y0281688D01*
X0059981Y0281688D02*
X0056912Y0281688D01*
X0056912Y0279386D02*
X0058446Y0279386D01*
X0012400Y0074065D02*
X0012400Y0070996D01*
X0009331Y0074065D01*
X0008563Y0074065D01*
X0007796Y0073298D01*
X0007796Y0071763D01*
X0008563Y0070996D01*
X0008563Y0069461D02*
X0007796Y0068694D01*
X0007796Y0066392D01*
X0012400Y0066392D01*
X0012400Y0068694D01*
X0011633Y0069461D01*
X0008563Y0069461D01*
X0007796Y0064857D02*
X0007796Y0061788D01*
X0012400Y0061788D01*
X0012400Y0064857D01*
X0010098Y0063323D02*
X0010098Y0061788D01*
X0012400Y0060254D02*
X0012400Y0057184D01*
X0007796Y0057184D01*
X0162796Y0034115D02*
X0167400Y0034115D01*
X0167400Y0032580D02*
X0167400Y0035650D01*
X0164331Y0032580D02*
X0162796Y0034115D01*
X0163563Y0031046D02*
X0162796Y0030278D01*
X0162796Y0027976D01*
X0167400Y0027976D01*
X0167400Y0030278D01*
X0166633Y0031046D01*
X0163563Y0031046D01*
X0162796Y0026442D02*
X0162796Y0023372D01*
X0167400Y0023372D01*
X0167400Y0026442D01*
X0165098Y0024907D02*
X0165098Y0023372D01*
X0167400Y0021838D02*
X0167400Y0018769D01*
X0162796Y0018769D01*
D18*
X0160307Y0034770D03*
X0154893Y0034770D03*
X0020307Y0074199D03*
X0014893Y0074199D03*
D19*
X0017600Y0072673D03*
X0157600Y0036295D03*
D20*
X0192600Y0031984D03*
D21*
X0217950Y0026140D02*
X0222154Y0019834D01*
X0224395Y0019834D02*
X0228599Y0019834D01*
X0226497Y0019834D02*
X0226497Y0026140D01*
X0224395Y0024038D01*
X0222154Y0026140D02*
X0217950Y0019834D01*
M02*
