%
M48
M72
T01C0.02362
T02C0.03150
T03C0.03200
T04C0.03600
T05C0.04000
T06C0.05200
T07C0.06299
%
T01
X32600Y56984
X27600Y81984
X42600Y91984
X72600Y91984
X117600Y66984
X137600Y51984
X157600Y56984
X152600Y171984
X132600Y186984
X137600Y196984
X142600Y226984
X176000Y206284
X187600Y206984
X202600Y236984
X217600Y236984
X182600Y276984
X177600Y241984
X97600Y206984
X77600Y226984
X52600Y226984
X47600Y216984
X47600Y241984
X57600Y261984
X27600Y261984
X92600Y276984
T02
X94569Y259583
X114569Y259583
X124569Y259583
X134569Y259583
T03
X187600Y251984
X197600Y251984
X207600Y251984
X217600Y251984
X227600Y251984
X237600Y251984
X102600Y71984
X92600Y71984
X87600Y51984
X77600Y51984
T04
X32600Y131984
X32600Y141984
X22600Y141984
X22600Y131984
X22600Y151984
X22600Y161984
X32600Y161984
X32600Y151984
X32600Y171984
X22600Y171984
X22600Y201984
X32600Y201984
X32600Y211984
X32600Y221984
X22600Y221984
X22600Y211984
X22600Y231984
X22600Y241984
X32600Y241984
X32600Y231984
T05
X92600Y221984
X112600Y221984
X27600Y111984
X27600Y101984
X27600Y91984
T06
X182700Y31984
X202500Y31984
T07
X37421Y36701
X53563Y18709
X65000Y36484
M30
