G75*
%MOIN*%
%OFA0B0*%
%FSLAX25Y25*%
%IPPOS*%
%LPD*%
%AMOC8*
5,1,8,0,0,1.08239X$1,22.5*
%
%ADD10C,0.00000*%
%ADD11C,0.01000*%
%ADD12C,0.06300*%
%ADD13OC8,0.06300*%
%ADD14C,0.05600*%
%ADD15OC8,0.05600*%
%ADD16C,0.05200*%
%ADD17C,0.06000*%
%ADD18C,0.09449*%
%ADD19C,0.07000*%
%ADD20R,0.05906X0.05906*%
%ADD21C,0.07800*%
%ADD22C,0.03562*%
%ADD23C,0.03200*%
%ADD24C,0.01600*%
D10*
X0247600Y0001984D02*
X0261600Y0002284D01*
D11*
X0002600Y0001984D02*
X0001500Y0288384D01*
X0261500Y0288384D01*
X0261600Y0002284D01*
X0002600Y0001984D01*
D12*
X0087600Y0051984D03*
X0092600Y0071984D03*
D13*
X0102600Y0071984D03*
X0077600Y0051984D03*
D14*
X0032600Y0171984D03*
D15*
X0032600Y0161984D03*
X0032600Y0151984D03*
X0032600Y0141984D03*
X0032600Y0131984D03*
X0022600Y0131984D03*
X0022600Y0141984D03*
X0022600Y0151984D03*
X0022600Y0161984D03*
X0022600Y0171984D03*
X0022600Y0201984D03*
X0032600Y0201984D03*
X0032600Y0211984D03*
X0032600Y0221984D03*
X0022600Y0221984D03*
X0022600Y0211984D03*
X0022600Y0231984D03*
X0022600Y0241984D03*
X0032600Y0241984D03*
X0032600Y0231984D03*
D16*
X0187600Y0249384D02*
X0187600Y0254584D01*
X0197600Y0254584D02*
X0197600Y0249384D01*
X0207600Y0249384D02*
X0207600Y0254584D01*
X0217600Y0254584D02*
X0217600Y0249384D01*
X0227600Y0249384D02*
X0227600Y0254584D01*
X0237600Y0254584D02*
X0237600Y0249384D01*
D17*
X0112600Y0224984D02*
X0112600Y0218984D01*
X0092600Y0218984D02*
X0092600Y0224984D01*
X0030600Y0111984D02*
X0024600Y0111984D01*
X0024600Y0101984D02*
X0030600Y0101984D01*
X0030600Y0091984D02*
X0024600Y0091984D01*
D18*
X0037421Y0041425D02*
X0037421Y0031976D01*
X0048839Y0018709D02*
X0058287Y0018709D01*
X0065000Y0031760D02*
X0065000Y0041209D01*
D19*
X0094569Y0256083D02*
X0094569Y0263083D01*
X0114569Y0263083D02*
X0114569Y0256083D01*
X0124569Y0256083D02*
X0124569Y0263083D01*
X0134569Y0263083D02*
X0134569Y0256083D01*
D20*
X0017600Y0078874D03*
X0017600Y0065094D03*
X0157600Y0043874D03*
X0157600Y0030094D03*
D21*
X0182700Y0028084D02*
X0182700Y0035884D01*
X0202500Y0035884D02*
X0202500Y0028084D01*
D22*
X0157600Y0056984D03*
X0137600Y0051984D03*
X0117600Y0066984D03*
X0072600Y0091984D03*
X0042600Y0091984D03*
X0027600Y0081984D03*
X0032600Y0056984D03*
X0132600Y0186984D03*
X0137600Y0196984D03*
X0152600Y0171984D03*
X0176000Y0206284D03*
X0187600Y0206984D03*
X0202600Y0236984D03*
X0217600Y0236984D03*
X0182600Y0276984D03*
X0177600Y0241984D03*
X0142600Y0226984D03*
X0097600Y0206984D03*
X0077600Y0226984D03*
X0052600Y0226984D03*
X0047600Y0216984D03*
X0047600Y0241984D03*
X0057600Y0261984D03*
X0027600Y0261984D03*
X0092600Y0276984D03*
D23*
X0182600Y0276984D01*
X0137600Y0196984D02*
X0142600Y0191984D01*
X0137600Y0191984D01*
X0132600Y0186984D01*
X0142600Y0191984D02*
X0152600Y0181984D01*
X0152600Y0171984D01*
X0097600Y0206984D02*
X0087600Y0206984D01*
X0077600Y0216984D01*
X0077600Y0226984D01*
X0077600Y0216984D02*
X0047600Y0216984D01*
X0057600Y0261984D02*
X0027600Y0261984D01*
X0042600Y0091984D02*
X0072600Y0091984D01*
X0117600Y0066984D02*
X0137600Y0051984D01*
D24*
X0157600Y0056984D02*
X0157600Y0043874D01*
X0157600Y0030094D02*
X0180810Y0030094D01*
X0182700Y0031984D01*
X0032600Y0056984D02*
X0022600Y0056984D01*
X0017600Y0061984D01*
X0017600Y0065094D01*
X0017600Y0078874D02*
X0019490Y0078874D01*
X0022600Y0081984D01*
X0027600Y0081984D01*
X0052600Y0226984D02*
X0052600Y0236984D01*
X0047600Y0241984D01*
X0142600Y0226984D02*
X0157600Y0241984D01*
X0177600Y0241984D01*
X0202600Y0236984D02*
X0176000Y0210384D01*
X0176000Y0206284D01*
X0187600Y0206984D02*
X0217600Y0236984D01*
M02*
