G75*
%MOIN*%
%OFA0B0*%
%FSLAX25Y25*%
%IPPOS*%
%LPD*%
%AMOC8*
5,1,8,0,0,1.08239X$1,22.5*
%
%ADD10C,0.00000*%
%ADD11C,0.01000*%
%ADD12C,0.00600*%
%ADD13OC8,0.05200*%
%ADD14C,0.00500*%
%ADD15C,0.06300*%
%ADD16OC8,0.06300*%
%ADD17C,0.05600*%
%ADD18OC8,0.05600*%
%ADD19C,0.05200*%
%ADD20C,0.06000*%
%ADD21C,0.01040*%
%ADD22C,0.09449*%
%ADD23C,0.07600*%
%ADD24C,0.00700*%
%ADD25C,0.07000*%
%ADD26OC8,0.06600*%
%ADD27C,0.03562*%
%ADD28C,0.03200*%
%ADD29C,0.01600*%
D10*
X0248233Y0001984D02*
X0262233Y0002284D01*
D11*
X0003233Y0001984D02*
X0002133Y0288384D01*
X0262133Y0288384D01*
X0262233Y0002284D01*
X0003233Y0001984D01*
D12*
X0179157Y0120034D02*
X0179157Y0124305D01*
X0181292Y0126440D01*
X0183428Y0124305D01*
X0183428Y0120034D01*
X0185603Y0120034D02*
X0185603Y0124305D01*
X0188806Y0124305D01*
X0189873Y0123237D01*
X0189873Y0120034D01*
X0193116Y0121102D02*
X0194183Y0120034D01*
X0193116Y0121102D02*
X0193116Y0125372D01*
X0194183Y0124305D02*
X0192048Y0124305D01*
X0196345Y0124305D02*
X0196345Y0121102D01*
X0197413Y0120034D01*
X0200616Y0120034D01*
X0200616Y0118967D02*
X0199548Y0117899D01*
X0198480Y0117899D01*
X0200616Y0118967D02*
X0200616Y0124305D01*
X0202791Y0124305D02*
X0207061Y0124305D01*
X0202791Y0120034D01*
X0207061Y0120034D01*
X0209236Y0120034D02*
X0211371Y0120034D01*
X0210304Y0120034D02*
X0210304Y0126440D01*
X0209236Y0126440D01*
X0213533Y0123237D02*
X0213533Y0121102D01*
X0214601Y0120034D01*
X0216736Y0120034D01*
X0217804Y0121102D01*
X0217804Y0123237D01*
X0216736Y0124305D01*
X0214601Y0124305D01*
X0213533Y0123237D01*
X0219979Y0123237D02*
X0219979Y0121102D01*
X0221046Y0120034D01*
X0224249Y0120034D01*
X0224249Y0126440D01*
X0224249Y0124305D02*
X0221046Y0124305D01*
X0219979Y0123237D01*
X0226424Y0124305D02*
X0230695Y0124305D01*
X0226424Y0120034D01*
X0230695Y0120034D01*
X0232870Y0120034D02*
X0235005Y0120034D01*
X0233937Y0120034D02*
X0233937Y0124305D01*
X0232870Y0124305D01*
X0233937Y0126440D02*
X0233937Y0127507D01*
X0237167Y0123237D02*
X0238234Y0124305D01*
X0240369Y0124305D01*
X0241437Y0123237D01*
X0241437Y0122169D01*
X0237167Y0122169D01*
X0237167Y0121102D02*
X0237167Y0123237D01*
X0237167Y0121102D02*
X0238234Y0120034D01*
X0240369Y0120034D01*
X0243612Y0117899D02*
X0244680Y0117899D01*
X0245747Y0118967D01*
X0245747Y0124305D01*
X0245747Y0126440D02*
X0245747Y0127507D01*
X0220503Y0115940D02*
X0220503Y0109534D01*
X0222638Y0109534D02*
X0218367Y0109534D01*
X0216212Y0109534D02*
X0216212Y0110602D01*
X0215145Y0110602D01*
X0215145Y0109534D01*
X0216212Y0109534D01*
X0212970Y0109534D02*
X0208699Y0109534D01*
X0210834Y0109534D02*
X0210834Y0115940D01*
X0208699Y0113805D01*
X0206524Y0113805D02*
X0204389Y0109534D01*
X0202254Y0113805D01*
X0218367Y0113805D02*
X0220503Y0115940D01*
X0225343Y0085507D02*
X0225343Y0084440D01*
X0225343Y0082305D02*
X0225343Y0078034D01*
X0224276Y0078034D02*
X0226411Y0078034D01*
X0228573Y0079102D02*
X0229640Y0078034D01*
X0231776Y0078034D01*
X0232843Y0079102D01*
X0232843Y0081237D01*
X0231776Y0082305D01*
X0229640Y0082305D01*
X0228573Y0081237D01*
X0228573Y0079102D01*
X0225343Y0082305D02*
X0224276Y0082305D01*
X0222101Y0082305D02*
X0218898Y0082305D01*
X0217830Y0081237D01*
X0217830Y0079102D01*
X0218898Y0078034D01*
X0222101Y0078034D01*
X0219422Y0073940D02*
X0220489Y0072872D01*
X0216219Y0068602D01*
X0217286Y0067534D01*
X0219422Y0067534D01*
X0220489Y0068602D01*
X0220489Y0072872D01*
X0219422Y0073940D02*
X0217286Y0073940D01*
X0216219Y0072872D01*
X0216219Y0068602D01*
X0214044Y0067534D02*
X0209773Y0067534D01*
X0214044Y0071805D01*
X0214044Y0072872D01*
X0212976Y0073940D01*
X0210841Y0073940D01*
X0209773Y0072872D01*
X0209210Y0078034D02*
X0206007Y0078034D01*
X0204939Y0079102D01*
X0204939Y0081237D01*
X0206007Y0082305D01*
X0209210Y0082305D01*
X0211385Y0081237D02*
X0212452Y0082305D01*
X0214588Y0082305D01*
X0215655Y0081237D01*
X0215655Y0078034D01*
X0211385Y0078034D02*
X0211385Y0084440D01*
X0202764Y0081237D02*
X0202764Y0078034D01*
X0199561Y0078034D01*
X0198494Y0079102D01*
X0199561Y0080169D01*
X0202764Y0080169D01*
X0202764Y0081237D02*
X0201697Y0082305D01*
X0199561Y0082305D01*
X0196319Y0084440D02*
X0196319Y0078034D01*
X0194183Y0080169D01*
X0192048Y0078034D01*
X0192048Y0084440D01*
X0191511Y0073940D02*
X0191511Y0069669D01*
X0193646Y0067534D01*
X0195781Y0069669D01*
X0195781Y0073940D01*
X0197957Y0073940D02*
X0200092Y0073940D01*
X0199024Y0073940D02*
X0199024Y0067534D01*
X0197957Y0067534D02*
X0200092Y0067534D01*
X0202254Y0067534D02*
X0204389Y0067534D01*
X0203321Y0067534D02*
X0203321Y0073940D01*
X0202254Y0073940D02*
X0204389Y0073940D01*
X0206551Y0068602D02*
X0207618Y0068602D01*
X0207618Y0067534D01*
X0206551Y0067534D01*
X0206551Y0068602D01*
X0222664Y0067534D02*
X0226935Y0067534D01*
X0224800Y0067534D02*
X0224800Y0073940D01*
X0222664Y0071805D01*
X0229110Y0073940D02*
X0233380Y0073940D01*
X0233380Y0072872D01*
X0229110Y0068602D01*
X0229110Y0067534D01*
X0183428Y0123237D02*
X0179157Y0123237D01*
D13*
X0123233Y0066984D03*
X0113233Y0066984D03*
X0108233Y0051984D03*
X0098233Y0051984D03*
X0083233Y0021984D03*
X0073233Y0021984D03*
X0093233Y0261984D03*
X0103233Y0261984D03*
X0113233Y0261984D03*
X0123233Y0261984D03*
D14*
X0126275Y0266233D02*
X0126275Y0270737D01*
X0128527Y0270737D01*
X0129278Y0269986D01*
X0129278Y0268485D01*
X0128527Y0267734D01*
X0126275Y0267734D01*
X0124674Y0267734D02*
X0121672Y0267734D01*
X0124674Y0270737D01*
X0124674Y0271487D01*
X0123923Y0272238D01*
X0122422Y0272238D01*
X0121672Y0271487D01*
X0120070Y0271487D02*
X0119320Y0272238D01*
X0117818Y0272238D01*
X0117068Y0271487D01*
X0120070Y0271487D02*
X0120070Y0270737D01*
X0117068Y0267734D01*
X0120070Y0267734D01*
X0127475Y0264487D02*
X0127475Y0261485D01*
X0128226Y0260734D01*
X0129727Y0260734D01*
X0130478Y0261485D01*
X0132079Y0261485D02*
X0132079Y0262236D01*
X0132830Y0262986D01*
X0134331Y0262986D01*
X0135082Y0262236D01*
X0135082Y0261485D01*
X0134331Y0260734D01*
X0132830Y0260734D01*
X0132079Y0261485D01*
X0132830Y0262986D02*
X0132079Y0263737D01*
X0132079Y0264487D01*
X0132830Y0265238D01*
X0134331Y0265238D01*
X0135082Y0264487D01*
X0135082Y0263737D01*
X0134331Y0262986D01*
X0130478Y0264487D02*
X0129727Y0265238D01*
X0128226Y0265238D01*
X0127475Y0264487D01*
X0130879Y0267734D02*
X0130879Y0272238D01*
X0133882Y0272238D01*
X0132381Y0269986D02*
X0130879Y0269986D01*
X0111690Y0271387D02*
X0108687Y0268385D01*
X0108687Y0267634D01*
X0107086Y0268385D02*
X0106335Y0267634D01*
X0104834Y0267634D01*
X0104083Y0268385D01*
X0104083Y0271387D01*
X0104834Y0272138D01*
X0106335Y0272138D01*
X0107086Y0271387D01*
X0108687Y0272138D02*
X0111690Y0272138D01*
X0111690Y0271387D01*
X0103098Y0272138D02*
X0100095Y0272138D01*
X0100095Y0267634D01*
X0098494Y0268385D02*
X0097743Y0267634D01*
X0095491Y0267634D01*
X0095491Y0266133D02*
X0095491Y0270637D01*
X0097743Y0270637D01*
X0098494Y0269886D01*
X0098494Y0268385D01*
X0100095Y0269886D02*
X0101596Y0269886D01*
X0093890Y0270637D02*
X0093890Y0271387D01*
X0093139Y0272138D01*
X0091638Y0272138D01*
X0090887Y0271387D01*
X0089286Y0271387D02*
X0088535Y0272138D01*
X0087034Y0272138D01*
X0086283Y0271387D01*
X0089286Y0271387D02*
X0089286Y0270637D01*
X0086283Y0267634D01*
X0089286Y0267634D01*
X0090887Y0267634D02*
X0093890Y0270637D01*
X0093890Y0267634D02*
X0090887Y0267634D01*
X0121998Y0228238D02*
X0121998Y0223734D01*
X0121998Y0225236D02*
X0124250Y0226737D01*
X0125835Y0226737D02*
X0125835Y0224485D01*
X0126586Y0223734D01*
X0127336Y0224485D01*
X0128087Y0223734D01*
X0128837Y0224485D01*
X0128837Y0226737D01*
X0131189Y0226737D02*
X0132691Y0226737D01*
X0133441Y0225986D01*
X0133441Y0223734D01*
X0131189Y0223734D01*
X0130439Y0224485D01*
X0131189Y0225236D01*
X0133441Y0225236D01*
X0135043Y0225236D02*
X0136544Y0226737D01*
X0137295Y0226737D01*
X0138879Y0225986D02*
X0138879Y0224485D01*
X0139630Y0223734D01*
X0141882Y0223734D01*
X0141882Y0226737D02*
X0139630Y0226737D01*
X0138879Y0225986D01*
X0135043Y0226737D02*
X0135043Y0223734D01*
X0124250Y0223734D02*
X0121998Y0225236D01*
X0115381Y0215238D02*
X0115381Y0210734D01*
X0116882Y0210734D02*
X0113879Y0210734D01*
X0112278Y0212236D02*
X0112278Y0215238D01*
X0113879Y0213737D02*
X0115381Y0215238D01*
X0112278Y0212236D02*
X0110777Y0210734D01*
X0109275Y0212236D01*
X0109275Y0215238D01*
X0107674Y0214487D02*
X0106923Y0215238D01*
X0105422Y0215238D01*
X0104672Y0214487D01*
X0104672Y0213737D01*
X0105422Y0212986D01*
X0106923Y0212986D01*
X0107674Y0212236D01*
X0107674Y0211485D01*
X0106923Y0210734D01*
X0105422Y0210734D01*
X0104672Y0211485D01*
X0051483Y0159882D02*
X0046979Y0159882D01*
X0049231Y0157630D01*
X0049231Y0160633D01*
X0048481Y0156029D02*
X0047730Y0156029D01*
X0046979Y0155278D01*
X0046979Y0153026D01*
X0051483Y0153026D01*
X0051483Y0155278D01*
X0050733Y0156029D01*
X0049982Y0156029D01*
X0049231Y0155278D01*
X0049231Y0153026D01*
X0049231Y0151425D02*
X0049982Y0150674D01*
X0049982Y0148422D01*
X0051483Y0148422D02*
X0046979Y0148422D01*
X0046979Y0150674D01*
X0047730Y0151425D01*
X0049231Y0151425D01*
X0049231Y0155278D02*
X0048481Y0156029D01*
X0049231Y0146821D02*
X0049231Y0143818D01*
X0047730Y0142217D02*
X0046979Y0141466D01*
X0046979Y0139965D01*
X0047730Y0139215D01*
X0050733Y0139215D01*
X0047730Y0142217D01*
X0050733Y0142217D01*
X0051483Y0141466D01*
X0051483Y0139965D01*
X0050733Y0139215D01*
X0050733Y0137613D02*
X0049982Y0137613D01*
X0049231Y0136863D01*
X0049231Y0134611D01*
X0049231Y0133009D02*
X0047730Y0133009D01*
X0046979Y0132259D01*
X0046979Y0130007D01*
X0051483Y0130007D01*
X0049982Y0130007D02*
X0049982Y0132259D01*
X0049231Y0133009D01*
X0046979Y0134611D02*
X0046979Y0136863D01*
X0047730Y0137613D01*
X0048481Y0137613D01*
X0049231Y0136863D01*
X0050733Y0137613D02*
X0051483Y0136863D01*
X0051483Y0134611D01*
X0046979Y0134611D01*
X0043733Y0115633D02*
X0044483Y0114882D01*
X0044483Y0113381D01*
X0043733Y0112630D01*
X0042982Y0111029D02*
X0039979Y0111029D01*
X0040730Y0112630D02*
X0039979Y0113381D01*
X0039979Y0114882D01*
X0040730Y0115633D01*
X0041481Y0115633D01*
X0042231Y0114882D01*
X0042982Y0115633D01*
X0043733Y0115633D01*
X0042231Y0114882D02*
X0042231Y0114132D01*
X0042982Y0111029D02*
X0044483Y0109528D01*
X0042982Y0108026D01*
X0039979Y0108026D01*
X0040730Y0106425D02*
X0039979Y0105674D01*
X0039979Y0104173D01*
X0040730Y0103422D01*
X0041481Y0103422D01*
X0042231Y0104173D01*
X0042231Y0105674D01*
X0042982Y0106425D01*
X0043733Y0106425D01*
X0044483Y0105674D01*
X0044483Y0104173D01*
X0043733Y0103422D01*
X0067375Y0079087D02*
X0067375Y0076085D01*
X0068126Y0075334D01*
X0069627Y0075334D01*
X0070378Y0076085D01*
X0071979Y0076085D02*
X0072730Y0075334D01*
X0074231Y0075334D01*
X0074982Y0076085D01*
X0074982Y0077586D01*
X0074231Y0078337D01*
X0073481Y0078337D01*
X0071979Y0077586D01*
X0071979Y0079838D01*
X0074982Y0079838D01*
X0070378Y0079087D02*
X0069627Y0079838D01*
X0068126Y0079838D01*
X0067375Y0079087D01*
X0067672Y0073238D02*
X0070674Y0073238D01*
X0070674Y0072487D01*
X0067672Y0069485D01*
X0067672Y0068734D01*
X0065320Y0068734D02*
X0065320Y0073238D01*
X0063068Y0070986D01*
X0066070Y0070986D01*
X0072275Y0071737D02*
X0072275Y0069485D01*
X0073026Y0068734D01*
X0075278Y0068734D01*
X0075278Y0071737D01*
X0076879Y0070986D02*
X0078381Y0070986D01*
X0076879Y0073238D02*
X0079882Y0073238D01*
X0076879Y0073238D02*
X0076879Y0068734D01*
X0084283Y0082834D02*
X0087286Y0085837D01*
X0087286Y0086587D01*
X0086535Y0087338D01*
X0085034Y0087338D01*
X0084283Y0086587D01*
X0084734Y0089434D02*
X0086235Y0089434D01*
X0086986Y0090185D01*
X0088587Y0090185D02*
X0089338Y0089434D01*
X0090839Y0089434D01*
X0091590Y0090185D01*
X0091590Y0090936D01*
X0090839Y0091686D01*
X0088587Y0091686D01*
X0088587Y0090185D01*
X0088587Y0091686D02*
X0090089Y0093187D01*
X0091590Y0093938D01*
X0086986Y0093187D02*
X0086235Y0093938D01*
X0084734Y0093938D01*
X0083983Y0093187D01*
X0083983Y0090185D01*
X0084734Y0089434D01*
X0088887Y0086587D02*
X0089638Y0087338D01*
X0091139Y0087338D01*
X0091890Y0086587D01*
X0091890Y0085837D01*
X0088887Y0082834D01*
X0091890Y0082834D01*
X0093491Y0083585D02*
X0093491Y0085837D01*
X0093491Y0083585D02*
X0094242Y0082834D01*
X0096494Y0082834D01*
X0096494Y0085837D01*
X0098095Y0085086D02*
X0099596Y0085086D01*
X0098095Y0082834D02*
X0098095Y0087338D01*
X0101098Y0087338D01*
X0087286Y0082834D02*
X0084283Y0082834D01*
X0114083Y0056287D02*
X0114083Y0053285D01*
X0114834Y0052534D01*
X0116335Y0052534D01*
X0117086Y0053285D01*
X0118687Y0052534D02*
X0121690Y0055537D01*
X0121690Y0056287D01*
X0120939Y0057038D01*
X0119438Y0057038D01*
X0118687Y0056287D01*
X0117086Y0056287D02*
X0116335Y0057038D01*
X0114834Y0057038D01*
X0114083Y0056287D01*
X0118687Y0052534D02*
X0121690Y0052534D01*
X0120339Y0050038D02*
X0118838Y0050038D01*
X0118087Y0049287D01*
X0118087Y0046285D01*
X0121090Y0049287D01*
X0121090Y0046285D01*
X0120339Y0045534D01*
X0118838Y0045534D01*
X0118087Y0046285D01*
X0116486Y0045534D02*
X0113483Y0045534D01*
X0114985Y0045534D02*
X0114985Y0050038D01*
X0113483Y0048537D01*
X0120339Y0050038D02*
X0121090Y0049287D01*
X0122691Y0049287D02*
X0123442Y0050038D01*
X0124943Y0050038D01*
X0125694Y0049287D01*
X0122691Y0046285D01*
X0123442Y0045534D01*
X0124943Y0045534D01*
X0125694Y0046285D01*
X0125694Y0049287D01*
X0127295Y0048537D02*
X0129547Y0048537D01*
X0130298Y0047786D01*
X0130298Y0045534D01*
X0131899Y0045534D02*
X0131899Y0050038D01*
X0134902Y0050038D01*
X0133400Y0047786D02*
X0131899Y0047786D01*
X0127295Y0048537D02*
X0127295Y0045534D01*
X0122691Y0046285D02*
X0122691Y0049287D01*
X0129483Y0066734D02*
X0132486Y0066734D01*
X0130985Y0066734D02*
X0130985Y0071238D01*
X0129483Y0069737D01*
X0130534Y0074134D02*
X0129783Y0074885D01*
X0129783Y0077887D01*
X0130534Y0078638D01*
X0132035Y0078638D01*
X0132786Y0077887D01*
X0134387Y0077137D02*
X0135889Y0078638D01*
X0135889Y0074134D01*
X0137390Y0074134D02*
X0134387Y0074134D01*
X0132786Y0074885D02*
X0132035Y0074134D01*
X0130534Y0074134D01*
X0134087Y0070487D02*
X0134838Y0071238D01*
X0136339Y0071238D01*
X0137090Y0070487D01*
X0134087Y0067485D01*
X0134838Y0066734D01*
X0136339Y0066734D01*
X0137090Y0067485D01*
X0137090Y0070487D01*
X0138691Y0070487D02*
X0138691Y0067485D01*
X0141694Y0070487D01*
X0141694Y0067485D01*
X0140943Y0066734D01*
X0139442Y0066734D01*
X0138691Y0067485D01*
X0138691Y0070487D02*
X0139442Y0071238D01*
X0140943Y0071238D01*
X0141694Y0070487D01*
X0143295Y0069737D02*
X0143295Y0066734D01*
X0146298Y0066734D02*
X0146298Y0068986D01*
X0145547Y0069737D01*
X0143295Y0069737D01*
X0147899Y0068986D02*
X0149400Y0068986D01*
X0147899Y0066734D02*
X0147899Y0071238D01*
X0150902Y0071238D01*
X0134087Y0070487D02*
X0134087Y0067485D01*
X0145983Y0048838D02*
X0145983Y0044334D01*
X0148986Y0044334D01*
X0150587Y0044334D02*
X0153590Y0044334D01*
X0155191Y0044334D02*
X0155191Y0048838D01*
X0157443Y0048838D01*
X0158194Y0048087D01*
X0158194Y0045085D01*
X0157443Y0044334D01*
X0155191Y0044334D01*
X0152089Y0046586D02*
X0150587Y0046586D01*
X0150587Y0048838D02*
X0150587Y0044334D01*
X0150587Y0048838D02*
X0153590Y0048838D01*
X0159795Y0048087D02*
X0160546Y0048838D01*
X0162047Y0048838D01*
X0162798Y0048087D01*
X0162798Y0047337D01*
X0159795Y0044334D01*
X0162798Y0044334D01*
X0131882Y0019787D02*
X0131131Y0020538D01*
X0129630Y0020538D01*
X0128879Y0019787D01*
X0127278Y0019787D02*
X0126527Y0020538D01*
X0125026Y0020538D01*
X0124275Y0019787D01*
X0124275Y0016785D01*
X0125026Y0016034D01*
X0126527Y0016034D01*
X0127278Y0016785D01*
X0128879Y0016034D02*
X0131882Y0019037D01*
X0131882Y0019787D01*
X0131882Y0016034D02*
X0128879Y0016034D01*
X0122707Y0016034D02*
X0121206Y0016034D01*
X0121957Y0016034D02*
X0121957Y0020538D01*
X0122707Y0020538D02*
X0121206Y0020538D01*
X0119382Y0016138D02*
X0119382Y0013136D01*
X0117881Y0011634D01*
X0116379Y0013136D01*
X0116379Y0016138D01*
X0114778Y0016138D02*
X0111775Y0016138D01*
X0113277Y0016138D02*
X0113277Y0011634D01*
X0110174Y0012385D02*
X0109423Y0011634D01*
X0107922Y0011634D01*
X0107171Y0012385D01*
X0107171Y0013886D02*
X0108673Y0014637D01*
X0109423Y0014637D01*
X0110174Y0013886D01*
X0110174Y0012385D01*
X0107171Y0013886D02*
X0107171Y0016138D01*
X0110174Y0016138D01*
X0105570Y0015387D02*
X0105570Y0012385D01*
X0104819Y0011634D01*
X0103318Y0011634D01*
X0102568Y0012385D01*
X0105570Y0015387D01*
X0104819Y0016138D01*
X0103318Y0016138D01*
X0102568Y0015387D01*
X0102568Y0012385D01*
X0100966Y0012385D02*
X0100216Y0011634D01*
X0098714Y0011634D01*
X0097964Y0012385D01*
X0097964Y0013136D01*
X0098714Y0013886D01*
X0100216Y0013886D01*
X0100966Y0013136D01*
X0100966Y0012385D01*
X0100216Y0013886D02*
X0100966Y0014637D01*
X0100966Y0015387D01*
X0100216Y0016138D01*
X0098714Y0016138D01*
X0097964Y0015387D01*
X0097964Y0014637D01*
X0098714Y0013886D01*
X0096362Y0015387D02*
X0093360Y0012385D01*
X0093360Y0011634D01*
X0093360Y0016138D02*
X0096362Y0016138D01*
X0096362Y0015387D01*
X0088882Y0012238D02*
X0085879Y0012238D01*
X0085879Y0007734D01*
X0084278Y0007734D02*
X0084278Y0009986D01*
X0083527Y0010737D01*
X0081275Y0010737D01*
X0081275Y0007734D01*
X0079674Y0008485D02*
X0078923Y0007734D01*
X0077422Y0007734D01*
X0076672Y0008485D01*
X0079674Y0011487D01*
X0079674Y0008485D01*
X0079674Y0011487D02*
X0078923Y0012238D01*
X0077422Y0012238D01*
X0076672Y0011487D01*
X0076672Y0008485D01*
X0075070Y0008485D02*
X0074320Y0007734D01*
X0072818Y0007734D01*
X0072068Y0008485D01*
X0075070Y0011487D01*
X0075070Y0008485D01*
X0072068Y0008485D02*
X0072068Y0011487D01*
X0072818Y0012238D01*
X0074320Y0012238D01*
X0075070Y0011487D01*
X0070682Y0013485D02*
X0069931Y0012734D01*
X0068430Y0012734D01*
X0067679Y0013485D01*
X0066078Y0013485D02*
X0065327Y0012734D01*
X0063826Y0012734D01*
X0063075Y0013485D01*
X0063075Y0016487D01*
X0063826Y0017238D01*
X0065327Y0017238D01*
X0066078Y0016487D01*
X0067679Y0016487D02*
X0068430Y0017238D01*
X0069931Y0017238D01*
X0070682Y0016487D01*
X0070682Y0015737D01*
X0069931Y0014986D01*
X0070682Y0014236D01*
X0070682Y0013485D01*
X0069931Y0014986D02*
X0069181Y0014986D01*
X0068965Y0012238D02*
X0068965Y0007734D01*
X0067464Y0007734D02*
X0070466Y0007734D01*
X0067464Y0010737D02*
X0068965Y0012238D01*
X0085879Y0009986D02*
X0087381Y0009986D01*
X0011283Y0082834D02*
X0011283Y0085837D01*
X0011283Y0087438D02*
X0011283Y0090441D01*
X0011283Y0092042D02*
X0011283Y0094294D01*
X0010533Y0095045D01*
X0007530Y0095045D01*
X0006779Y0094294D01*
X0006779Y0092042D01*
X0011283Y0092042D01*
X0009031Y0088939D02*
X0009031Y0087438D01*
X0006779Y0087438D02*
X0006779Y0090441D01*
X0006779Y0087438D02*
X0011283Y0087438D01*
X0011283Y0082834D02*
X0006779Y0082834D01*
X0008281Y0096646D02*
X0006779Y0098147D01*
X0011283Y0098147D01*
X0011283Y0096646D02*
X0011283Y0099649D01*
X0011979Y0103422D02*
X0014982Y0103422D01*
X0016483Y0104924D01*
X0014982Y0106425D01*
X0011979Y0106425D01*
X0012730Y0108026D02*
X0015733Y0108026D01*
X0016483Y0108777D01*
X0016483Y0110278D01*
X0015733Y0111029D01*
X0015733Y0112630D02*
X0016483Y0113381D01*
X0016483Y0114882D01*
X0015733Y0115633D01*
X0015733Y0112630D02*
X0012730Y0112630D01*
X0011979Y0113381D01*
X0011979Y0114882D01*
X0012730Y0115633D01*
X0012730Y0111029D02*
X0011979Y0110278D01*
X0011979Y0108777D01*
X0012730Y0108026D01*
X0011730Y0148922D02*
X0014733Y0148922D01*
X0015483Y0149673D01*
X0015483Y0151174D01*
X0014733Y0151925D01*
X0013231Y0151925D01*
X0013231Y0150424D01*
X0011730Y0151925D02*
X0010979Y0151174D01*
X0010979Y0149673D01*
X0011730Y0148922D01*
X0010979Y0153526D02*
X0015483Y0156529D01*
X0010979Y0156529D01*
X0010979Y0158130D02*
X0010979Y0160382D01*
X0011730Y0161133D01*
X0014733Y0161133D01*
X0015483Y0160382D01*
X0015483Y0158130D01*
X0010979Y0158130D01*
X0010979Y0153526D02*
X0015483Y0153526D01*
X0161432Y0143317D02*
X0161432Y0142256D01*
X0162493Y0141194D01*
X0163555Y0141194D01*
X0165749Y0141123D02*
X0167872Y0139000D01*
X0165749Y0137939D02*
X0168934Y0141123D01*
X0165749Y0141123D01*
X0165678Y0143317D02*
X0165678Y0144379D01*
X0164617Y0145440D01*
X0163555Y0145440D01*
X0161432Y0143317D01*
X0172215Y0154100D02*
X0174338Y0156223D01*
X0175930Y0154631D01*
X0175930Y0153569D01*
X0174338Y0151977D01*
X0175470Y0150845D02*
X0178655Y0154029D01*
X0180778Y0151906D01*
X0178124Y0151376D02*
X0177063Y0152437D01*
X0173736Y0157886D02*
X0169490Y0157886D01*
X0169490Y0156825D01*
X0170552Y0155763D01*
X0171613Y0155763D01*
X0173736Y0157886D01*
X0173736Y0158948D01*
X0172675Y0160010D01*
X0171613Y0160010D01*
X0169490Y0157886D01*
X0168358Y0159019D02*
X0167296Y0159019D01*
X0166235Y0160080D01*
X0166235Y0161142D01*
X0170481Y0161142D01*
X0168358Y0159019D01*
X0170481Y0161142D02*
X0170481Y0162203D01*
X0169419Y0163265D01*
X0168358Y0163265D01*
X0166235Y0161142D01*
X0164571Y0161744D02*
X0162448Y0163867D01*
X0163510Y0162805D02*
X0166695Y0165990D01*
X0164571Y0165990D01*
X0223483Y0238734D02*
X0225735Y0238734D01*
X0226486Y0239485D01*
X0226486Y0242487D01*
X0225735Y0243238D01*
X0223483Y0243238D01*
X0223483Y0238734D01*
X0228087Y0239485D02*
X0228838Y0238734D01*
X0230339Y0238734D01*
X0231090Y0239485D01*
X0231090Y0240236D01*
X0230339Y0240986D01*
X0228838Y0240986D01*
X0228087Y0241737D01*
X0228087Y0242487D01*
X0228838Y0243238D01*
X0230339Y0243238D01*
X0231090Y0242487D01*
X0232691Y0242487D02*
X0233442Y0243238D01*
X0234943Y0243238D01*
X0235694Y0242487D01*
X0235694Y0241737D01*
X0234943Y0240986D01*
X0235694Y0240236D01*
X0235694Y0239485D01*
X0234943Y0238734D01*
X0233442Y0238734D01*
X0232691Y0239485D01*
X0234192Y0240986D02*
X0234943Y0240986D01*
X0237295Y0242487D02*
X0238046Y0243238D01*
X0239547Y0243238D01*
X0240298Y0242487D01*
X0240298Y0241737D01*
X0237295Y0238734D01*
X0240298Y0238734D01*
X0241899Y0239485D02*
X0242650Y0238734D01*
X0244151Y0238734D01*
X0244902Y0239485D01*
X0244902Y0240236D01*
X0244151Y0240986D01*
X0243400Y0240986D01*
X0244151Y0240986D02*
X0244902Y0241737D01*
X0244902Y0242487D01*
X0244151Y0243238D01*
X0242650Y0243238D01*
X0241899Y0242487D01*
X0246503Y0241737D02*
X0248004Y0243238D01*
X0248004Y0238734D01*
X0246503Y0238734D02*
X0249506Y0238734D01*
D15*
X0093233Y0071984D03*
X0083233Y0056984D03*
D16*
X0073233Y0056984D03*
X0103233Y0071984D03*
D17*
X0033233Y0171984D03*
D18*
X0023233Y0171984D03*
X0023233Y0161984D03*
X0023233Y0151984D03*
X0023233Y0141984D03*
X0023233Y0131984D03*
X0033233Y0131984D03*
X0033233Y0141984D03*
X0033233Y0151984D03*
X0033233Y0161984D03*
D19*
X0188233Y0249384D02*
X0188233Y0254584D01*
X0198233Y0254584D02*
X0198233Y0249384D01*
X0208233Y0249384D02*
X0208233Y0254584D01*
X0218233Y0254584D02*
X0218233Y0249384D01*
X0228233Y0249384D02*
X0228233Y0254584D01*
X0238233Y0254584D02*
X0238233Y0249384D01*
D20*
X0113233Y0224984D02*
X0113233Y0218984D01*
X0103233Y0218984D02*
X0103233Y0224984D01*
X0093233Y0224984D02*
X0093233Y0218984D01*
X0031233Y0111984D02*
X0025233Y0111984D01*
X0025233Y0101984D02*
X0031233Y0101984D01*
X0031233Y0091984D02*
X0025233Y0091984D01*
X0098233Y0034984D02*
X0098233Y0028984D01*
X0108233Y0028984D02*
X0108233Y0034984D01*
X0118233Y0034984D02*
X0118233Y0028984D01*
D21*
X0172728Y0146673D02*
X0172208Y0147193D01*
X0173930Y0147193D01*
X0175148Y0145975D01*
X0175148Y0144253D01*
X0173930Y0143035D01*
X0172208Y0143035D01*
X0170990Y0144253D01*
X0170990Y0145975D01*
X0172208Y0147193D01*
X0172531Y0146413D01*
X0173607Y0146413D01*
X0174368Y0145652D01*
X0174368Y0144576D01*
X0173607Y0143815D01*
X0172531Y0143815D01*
X0171770Y0144576D01*
X0171770Y0145652D01*
X0172531Y0146413D01*
X0172854Y0145633D01*
X0173284Y0145633D01*
X0173588Y0145329D01*
X0173588Y0144899D01*
X0173284Y0144595D01*
X0172854Y0144595D01*
X0172550Y0144899D01*
X0172550Y0145329D01*
X0172854Y0145633D01*
X0165657Y0153744D02*
X0165137Y0154264D01*
X0166859Y0154264D01*
X0168077Y0153046D01*
X0168077Y0151324D01*
X0166859Y0150106D01*
X0165137Y0150106D01*
X0163919Y0151324D01*
X0163919Y0153046D01*
X0165137Y0154264D01*
X0165460Y0153484D01*
X0166536Y0153484D01*
X0167297Y0152723D01*
X0167297Y0151647D01*
X0166536Y0150886D01*
X0165460Y0150886D01*
X0164699Y0151647D01*
X0164699Y0152723D01*
X0165460Y0153484D01*
X0165783Y0152704D01*
X0166213Y0152704D01*
X0166517Y0152400D01*
X0166517Y0151970D01*
X0166213Y0151666D01*
X0165783Y0151666D01*
X0165479Y0151970D01*
X0165479Y0152400D01*
X0165783Y0152704D01*
D22*
X0065633Y0041209D02*
X0065633Y0031760D01*
X0058921Y0018709D02*
X0049472Y0018709D01*
X0038055Y0031976D02*
X0038055Y0041425D01*
D23*
X0033233Y0201984D03*
X0023233Y0201984D03*
X0023233Y0211984D03*
X0023233Y0221984D03*
X0023233Y0231984D03*
X0023233Y0241984D03*
X0033233Y0241984D03*
X0033233Y0231984D03*
X0033233Y0221984D03*
X0033233Y0211984D03*
D24*
X0009983Y0213534D02*
X0003678Y0213534D01*
X0006831Y0214585D02*
X0009983Y0217738D01*
X0009983Y0219980D02*
X0005780Y0219980D01*
X0003678Y0222082D01*
X0005780Y0224183D01*
X0009983Y0224183D01*
X0009983Y0226425D02*
X0003678Y0226425D01*
X0009983Y0230629D01*
X0003678Y0230629D01*
X0003678Y0232871D02*
X0003678Y0236023D01*
X0004729Y0237074D01*
X0008932Y0237074D01*
X0009983Y0236023D01*
X0009983Y0232871D01*
X0003678Y0232871D01*
X0005780Y0239316D02*
X0003678Y0241418D01*
X0005780Y0243520D01*
X0009983Y0243520D01*
X0006831Y0243520D02*
X0006831Y0239316D01*
X0005780Y0239316D02*
X0009983Y0239316D01*
X0006831Y0224183D02*
X0006831Y0219980D01*
X0003678Y0217738D02*
X0007882Y0213534D01*
D25*
X0095202Y0241083D02*
X0095202Y0248083D01*
X0115202Y0248083D02*
X0115202Y0241083D01*
X0125202Y0241083D02*
X0125202Y0248083D01*
X0135202Y0248083D02*
X0135202Y0241083D01*
D26*
X0023233Y0076984D03*
X0023233Y0066984D03*
X0143233Y0026984D03*
X0153233Y0026984D03*
D27*
X0073233Y0091984D03*
X0043233Y0091984D03*
X0133233Y0186984D03*
X0138233Y0196984D03*
X0153233Y0171984D03*
X0113233Y0206984D03*
X0143233Y0226984D03*
X0178233Y0241984D03*
X0183233Y0276984D03*
X0093233Y0276984D03*
X0058233Y0261984D03*
X0048233Y0241984D03*
X0053233Y0226984D03*
X0048233Y0216984D03*
X0078233Y0226984D03*
X0028233Y0261984D03*
D28*
X0058233Y0261984D01*
X0093233Y0276984D02*
X0183233Y0276984D01*
X0138233Y0196984D02*
X0143233Y0191984D01*
X0138233Y0191984D01*
X0133233Y0186984D01*
X0143233Y0191984D02*
X0153233Y0181984D01*
X0153233Y0171984D01*
X0073233Y0091984D02*
X0043233Y0091984D01*
D29*
X0088233Y0206984D02*
X0113233Y0206984D01*
X0088233Y0206984D02*
X0078233Y0216984D01*
X0078233Y0226984D01*
X0078233Y0216984D02*
X0048233Y0216984D01*
X0053233Y0226984D02*
X0053233Y0236984D01*
X0048233Y0241984D01*
X0143233Y0226984D02*
X0158233Y0241984D01*
X0178233Y0241984D01*
M02*
