%
M48
M72
T01C0.02362
T02C0.03150
T03C0.03200
T04C0.03600
T05C0.04000
T06C0.06299
%
T01
X43233Y91984
X73233Y91984
X153233Y171984
X133233Y186984
X138233Y196984
X113233Y206984
X143233Y226984
X178233Y241984
X183233Y276984
X93233Y276984
X58233Y261984
X48233Y241984
X53233Y226984
X48233Y216984
X78233Y226984
X28233Y261984
T02
X95202Y244583
X115202Y244583
X125202Y244583
X135202Y244583
T03
X123233Y261984
X113233Y261984
X103233Y261984
X93233Y261984
X188233Y251984
X198233Y251984
X208233Y251984
X218233Y251984
X228233Y251984
X238233Y251984
X165998Y152185
X173069Y145114
X123233Y66984
X113233Y66984
X103233Y71984
X93233Y71984
X83233Y56984
X73233Y56984
X98233Y51984
X108233Y51984
X83233Y21984
X73233Y21984
X23233Y66984
X23233Y76984
X143233Y26984
X153233Y26984
T04
X33233Y131984
X33233Y141984
X23233Y141984
X23233Y131984
X23233Y151984
X23233Y161984
X23233Y171984
X33233Y171984
X33233Y161984
X33233Y151984
X33233Y201984
X23233Y201984
X23233Y211984
X23233Y221984
X23233Y231984
X23233Y241984
X33233Y241984
X33233Y231984
X33233Y221984
X33233Y211984
T05
X93233Y221984
X103233Y221984
X113233Y221984
X28233Y111984
X28233Y101984
X28233Y91984
X98233Y31984
X108233Y31984
X118233Y31984
T06
X38055Y36701
X54196Y18709
X65633Y36484
M30
