G75*
%MOIN*%
%OFA0B0*%
%FSLAX25Y25*%
%IPPOS*%
%LPD*%
%AMOC8*
5,1,8,0,0,1.08239X$1,22.5*
%
%ADD10C,0.00000*%
%ADD11C,0.01000*%
%ADD12OC8,0.05600*%
%ADD13C,0.06700*%
%ADD14OC8,0.06700*%
%ADD15C,0.06000*%
%ADD16OC8,0.06000*%
%ADD17C,0.05600*%
%ADD18C,0.06400*%
%ADD19C,0.01120*%
%ADD20C,0.09849*%
%ADD21C,0.08000*%
%ADD22C,0.07400*%
%ADD23R,0.06306X0.02369*%
%ADD24R,0.02369X0.06306*%
%ADD25R,0.05124X0.07487*%
%ADD26OC8,0.07000*%
%ADD27R,0.07487X0.05124*%
D10*
X0248233Y0001984D02*
X0262233Y0002284D01*
D11*
X0003233Y0001984D02*
X0002133Y0288384D01*
X0262133Y0288384D01*
X0262233Y0002284D01*
X0003233Y0001984D01*
D12*
X0073233Y0021984D03*
X0083233Y0021984D03*
X0098233Y0051984D03*
X0108233Y0051984D03*
X0113233Y0066984D03*
X0123233Y0066984D03*
X0123233Y0261984D03*
X0113233Y0261984D03*
X0103233Y0261984D03*
X0093233Y0261984D03*
D13*
X0093233Y0071984D03*
X0083233Y0056984D03*
D14*
X0073233Y0056984D03*
X0103233Y0071984D03*
D15*
X0033233Y0171984D03*
D16*
X0023233Y0171984D03*
X0023233Y0161984D03*
X0023233Y0151984D03*
X0023233Y0141984D03*
X0023233Y0131984D03*
X0033233Y0131984D03*
X0033233Y0141984D03*
X0033233Y0151984D03*
X0033233Y0161984D03*
D17*
X0188233Y0249384D02*
X0188233Y0254584D01*
X0198233Y0254584D02*
X0198233Y0249384D01*
X0208233Y0249384D02*
X0208233Y0254584D01*
X0218233Y0254584D02*
X0218233Y0249384D01*
X0228233Y0249384D02*
X0228233Y0254584D01*
X0238233Y0254584D02*
X0238233Y0249384D01*
D18*
X0113233Y0224984D02*
X0113233Y0218984D01*
X0103233Y0218984D02*
X0103233Y0224984D01*
X0093233Y0224984D02*
X0093233Y0218984D01*
X0031233Y0111984D02*
X0025233Y0111984D01*
X0025233Y0101984D02*
X0031233Y0101984D01*
X0031233Y0091984D02*
X0025233Y0091984D01*
X0098233Y0034984D02*
X0098233Y0028984D01*
X0108233Y0028984D02*
X0108233Y0034984D01*
X0118233Y0034984D02*
X0118233Y0028984D01*
D19*
X0172701Y0146793D02*
X0172141Y0147353D01*
X0173997Y0147353D01*
X0175308Y0146042D01*
X0175308Y0144186D01*
X0173997Y0142875D01*
X0172141Y0142875D01*
X0170830Y0144186D01*
X0170830Y0146042D01*
X0172141Y0147353D01*
X0172489Y0146513D01*
X0173649Y0146513D01*
X0174468Y0145694D01*
X0174468Y0144534D01*
X0173649Y0143715D01*
X0172489Y0143715D01*
X0171670Y0144534D01*
X0171670Y0145694D01*
X0172489Y0146513D01*
X0172837Y0145673D01*
X0173301Y0145673D01*
X0173628Y0145346D01*
X0173628Y0144882D01*
X0173301Y0144555D01*
X0172837Y0144555D01*
X0172510Y0144882D01*
X0172510Y0145346D01*
X0172837Y0145673D01*
X0165630Y0153864D02*
X0165070Y0154424D01*
X0166926Y0154424D01*
X0168237Y0153113D01*
X0168237Y0151257D01*
X0166926Y0149946D01*
X0165070Y0149946D01*
X0163759Y0151257D01*
X0163759Y0153113D01*
X0165070Y0154424D01*
X0165418Y0153584D01*
X0166578Y0153584D01*
X0167397Y0152765D01*
X0167397Y0151605D01*
X0166578Y0150786D01*
X0165418Y0150786D01*
X0164599Y0151605D01*
X0164599Y0152765D01*
X0165418Y0153584D01*
X0165766Y0152744D01*
X0166230Y0152744D01*
X0166557Y0152417D01*
X0166557Y0151953D01*
X0166230Y0151626D01*
X0165766Y0151626D01*
X0165439Y0151953D01*
X0165439Y0152417D01*
X0165766Y0152744D01*
D20*
X0065633Y0041209D02*
X0065633Y0031760D01*
X0058921Y0018709D02*
X0049472Y0018709D01*
X0038055Y0031976D02*
X0038055Y0041425D01*
D21*
X0033233Y0201984D03*
X0023233Y0201984D03*
X0023233Y0211984D03*
X0023233Y0221984D03*
X0023233Y0231984D03*
X0023233Y0241984D03*
X0033233Y0241984D03*
X0033233Y0231984D03*
X0033233Y0221984D03*
X0033233Y0211984D03*
D22*
X0095202Y0241083D02*
X0095202Y0248083D01*
X0115202Y0248083D02*
X0115202Y0241083D01*
X0125202Y0241083D02*
X0125202Y0248083D01*
X0135202Y0248083D02*
X0135202Y0241083D01*
D23*
G36*
X0143350Y0209836D02*
X0138892Y0214294D01*
X0140566Y0215968D01*
X0145024Y0211510D01*
X0143350Y0209836D01*
G37*
G36*
X0141123Y0207609D02*
X0136665Y0212067D01*
X0138339Y0213741D01*
X0142797Y0209283D01*
X0141123Y0207609D01*
G37*
G36*
X0138896Y0205382D02*
X0134438Y0209840D01*
X0136112Y0211514D01*
X0140570Y0207056D01*
X0138896Y0205382D01*
G37*
G36*
X0136669Y0203155D02*
X0132211Y0207613D01*
X0133885Y0209287D01*
X0138343Y0204829D01*
X0136669Y0203155D01*
G37*
G36*
X0134441Y0200927D02*
X0129983Y0205385D01*
X0131657Y0207059D01*
X0136115Y0202601D01*
X0134441Y0200927D01*
G37*
G36*
X0132214Y0198700D02*
X0127756Y0203158D01*
X0129430Y0204832D01*
X0133888Y0200374D01*
X0132214Y0198700D01*
G37*
G36*
X0129987Y0196473D02*
X0125529Y0200931D01*
X0127203Y0202605D01*
X0131661Y0198147D01*
X0129987Y0196473D01*
G37*
G36*
X0127760Y0194246D02*
X0123302Y0198704D01*
X0124976Y0200378D01*
X0129434Y0195920D01*
X0127760Y0194246D01*
G37*
G36*
X0125533Y0192019D02*
X0121075Y0196477D01*
X0122749Y0198151D01*
X0127207Y0193693D01*
X0125533Y0192019D01*
G37*
G36*
X0123306Y0189792D02*
X0118848Y0194250D01*
X0120522Y0195924D01*
X0124980Y0191466D01*
X0123306Y0189792D01*
G37*
G36*
X0121079Y0187565D02*
X0116621Y0192023D01*
X0118295Y0193697D01*
X0122753Y0189239D01*
X0121079Y0187565D01*
G37*
G36*
X0153372Y0155272D02*
X0148914Y0159730D01*
X0150588Y0161404D01*
X0155046Y0156946D01*
X0153372Y0155272D01*
G37*
G36*
X0155599Y0157499D02*
X0151141Y0161957D01*
X0152815Y0163631D01*
X0157273Y0159173D01*
X0155599Y0157499D01*
G37*
G36*
X0157826Y0159726D02*
X0153368Y0164184D01*
X0155042Y0165858D01*
X0159500Y0161400D01*
X0157826Y0159726D01*
G37*
G36*
X0160053Y0161953D02*
X0155595Y0166411D01*
X0157269Y0168085D01*
X0161727Y0163627D01*
X0160053Y0161953D01*
G37*
G36*
X0162280Y0164180D02*
X0157822Y0168638D01*
X0159496Y0170312D01*
X0163954Y0165854D01*
X0162280Y0164180D01*
G37*
G36*
X0164507Y0166407D02*
X0160049Y0170865D01*
X0161723Y0172539D01*
X0166181Y0168081D01*
X0164507Y0166407D01*
G37*
G36*
X0166735Y0168634D02*
X0162277Y0173092D01*
X0163951Y0174766D01*
X0168409Y0170308D01*
X0166735Y0168634D01*
G37*
G36*
X0168962Y0170861D02*
X0164504Y0175319D01*
X0166178Y0176993D01*
X0170636Y0172535D01*
X0168962Y0170861D01*
G37*
G36*
X0171189Y0173089D02*
X0166731Y0177547D01*
X0168405Y0179221D01*
X0172863Y0174763D01*
X0171189Y0173089D01*
G37*
G36*
X0173416Y0175316D02*
X0168958Y0179774D01*
X0170632Y0181448D01*
X0175090Y0176990D01*
X0173416Y0175316D01*
G37*
G36*
X0175643Y0177543D02*
X0171185Y0182001D01*
X0172859Y0183675D01*
X0177317Y0179217D01*
X0175643Y0177543D01*
G37*
D24*
G36*
X0172859Y0187565D02*
X0171185Y0189239D01*
X0175643Y0193697D01*
X0177317Y0192023D01*
X0172859Y0187565D01*
G37*
G36*
X0170632Y0189792D02*
X0168958Y0191466D01*
X0173416Y0195924D01*
X0175090Y0194250D01*
X0170632Y0189792D01*
G37*
G36*
X0168405Y0192019D02*
X0166731Y0193693D01*
X0171189Y0198151D01*
X0172863Y0196477D01*
X0168405Y0192019D01*
G37*
G36*
X0166178Y0194246D02*
X0164504Y0195920D01*
X0168962Y0200378D01*
X0170636Y0198704D01*
X0166178Y0194246D01*
G37*
G36*
X0163951Y0196473D02*
X0162277Y0198147D01*
X0166735Y0202605D01*
X0168409Y0200931D01*
X0163951Y0196473D01*
G37*
G36*
X0161723Y0198700D02*
X0160049Y0200374D01*
X0164507Y0204832D01*
X0166181Y0203158D01*
X0161723Y0198700D01*
G37*
G36*
X0159496Y0200927D02*
X0157822Y0202601D01*
X0162280Y0207059D01*
X0163954Y0205385D01*
X0159496Y0200927D01*
G37*
G36*
X0157269Y0203155D02*
X0155595Y0204829D01*
X0160053Y0209287D01*
X0161727Y0207613D01*
X0157269Y0203155D01*
G37*
G36*
X0155042Y0205382D02*
X0153368Y0207056D01*
X0157826Y0211514D01*
X0159500Y0209840D01*
X0155042Y0205382D01*
G37*
G36*
X0152815Y0207609D02*
X0151141Y0209283D01*
X0155599Y0213741D01*
X0157273Y0212067D01*
X0152815Y0207609D01*
G37*
G36*
X0150588Y0209836D02*
X0148914Y0211510D01*
X0153372Y0215968D01*
X0155046Y0214294D01*
X0150588Y0209836D01*
G37*
G36*
X0118295Y0177543D02*
X0116621Y0179217D01*
X0121079Y0183675D01*
X0122753Y0182001D01*
X0118295Y0177543D01*
G37*
G36*
X0120522Y0175316D02*
X0118848Y0176990D01*
X0123306Y0181448D01*
X0124980Y0179774D01*
X0120522Y0175316D01*
G37*
G36*
X0122749Y0173089D02*
X0121075Y0174763D01*
X0125533Y0179221D01*
X0127207Y0177547D01*
X0122749Y0173089D01*
G37*
G36*
X0124976Y0170861D02*
X0123302Y0172535D01*
X0127760Y0176993D01*
X0129434Y0175319D01*
X0124976Y0170861D01*
G37*
G36*
X0127203Y0168634D02*
X0125529Y0170308D01*
X0129987Y0174766D01*
X0131661Y0173092D01*
X0127203Y0168634D01*
G37*
G36*
X0129430Y0166407D02*
X0127756Y0168081D01*
X0132214Y0172539D01*
X0133888Y0170865D01*
X0129430Y0166407D01*
G37*
G36*
X0131657Y0164180D02*
X0129983Y0165854D01*
X0134441Y0170312D01*
X0136115Y0168638D01*
X0131657Y0164180D01*
G37*
G36*
X0133885Y0161953D02*
X0132211Y0163627D01*
X0136669Y0168085D01*
X0138343Y0166411D01*
X0133885Y0161953D01*
G37*
G36*
X0136112Y0159726D02*
X0134438Y0161400D01*
X0138896Y0165858D01*
X0140570Y0164184D01*
X0136112Y0159726D01*
G37*
G36*
X0138339Y0157499D02*
X0136665Y0159173D01*
X0141123Y0163631D01*
X0142797Y0161957D01*
X0138339Y0157499D01*
G37*
G36*
X0140566Y0155272D02*
X0138892Y0156946D01*
X0143350Y0161404D01*
X0145024Y0159730D01*
X0140566Y0155272D01*
G37*
D25*
X0128233Y0137886D03*
X0128233Y0126083D03*
X0078233Y0236083D03*
X0078233Y0247886D03*
X0208233Y0266083D03*
X0218233Y0266083D03*
X0218233Y0277886D03*
X0208233Y0277886D03*
D26*
X0023233Y0076984D03*
X0023233Y0066984D03*
X0143233Y0026984D03*
X0153233Y0026984D03*
D27*
X0054135Y0066984D03*
X0042332Y0066984D03*
M02*
