G75*
%MOIN*%
%OFA0B0*%
%FSLAX25Y25*%
%IPPOS*%
%LPD*%
%AMOC8*
5,1,8,0,0,1.08239X$1,22.5*
%
%ADD10C,0.00000*%
%ADD11C,0.01000*%
%ADD12C,0.06700*%
%ADD13OC8,0.06700*%
%ADD14C,0.06000*%
%ADD15OC8,0.06000*%
%ADD16C,0.05600*%
%ADD17C,0.06400*%
%ADD18C,0.09849*%
%ADD19C,0.07400*%
%ADD20R,0.07487X0.05124*%
%ADD21R,0.05124X0.07487*%
%ADD22R,0.06306X0.06306*%
%ADD23C,0.08200*%
%ADD24C,0.03962*%
D10*
X0246800Y0001800D02*
X0259674Y0001800D01*
D11*
X0001800Y0001800D02*
X0001800Y0287233D01*
X0259674Y0287233D01*
X0259674Y0001800D01*
X0001800Y0001800D01*
D12*
X0082619Y0028509D03*
X0102509Y0034666D03*
D13*
X0112509Y0034666D03*
X0082619Y0018509D03*
D14*
X0031800Y0171800D03*
D15*
X0031800Y0161800D03*
X0031800Y0151800D03*
X0031800Y0141800D03*
X0031800Y0131800D03*
X0021800Y0131800D03*
X0021800Y0141800D03*
X0021800Y0151800D03*
X0021800Y0161800D03*
X0021800Y0171800D03*
X0021800Y0201800D03*
X0021800Y0211800D03*
X0021800Y0221800D03*
X0021800Y0231800D03*
X0021800Y0241800D03*
X0031800Y0241800D03*
X0031800Y0231800D03*
X0031800Y0221800D03*
X0031800Y0211800D03*
X0031800Y0201800D03*
D16*
X0186800Y0249200D02*
X0186800Y0254400D01*
X0196800Y0254400D02*
X0196800Y0249200D01*
X0206800Y0249200D02*
X0206800Y0254400D01*
X0216800Y0254400D02*
X0216800Y0249200D01*
X0226800Y0249200D02*
X0226800Y0254400D01*
X0236800Y0254400D02*
X0236800Y0249200D01*
D17*
X0111800Y0224800D02*
X0111800Y0218800D01*
X0091800Y0218800D02*
X0091800Y0224800D01*
X0027800Y0119800D02*
X0021800Y0119800D01*
X0021800Y0109800D02*
X0027800Y0109800D01*
X0027800Y0099800D02*
X0021800Y0099800D01*
X0018800Y0083800D02*
X0012800Y0083800D01*
X0012800Y0073800D02*
X0018800Y0073800D01*
X0018800Y0063800D02*
X0012800Y0063800D01*
X0238800Y0042800D02*
X0244800Y0042800D01*
X0244800Y0032800D02*
X0238800Y0032800D01*
X0238800Y0022800D02*
X0244800Y0022800D01*
D18*
X0064200Y0031576D02*
X0064200Y0041024D01*
X0057487Y0018524D02*
X0048039Y0018524D01*
X0036621Y0031792D02*
X0036621Y0041241D01*
D19*
X0093769Y0255898D02*
X0093769Y0262898D01*
X0113769Y0262898D02*
X0113769Y0255898D01*
X0123769Y0255898D02*
X0123769Y0262898D01*
X0133769Y0262898D02*
X0133769Y0255898D01*
D20*
X0052977Y0072666D03*
X0041174Y0072666D03*
D21*
X0151406Y0039198D03*
X0151406Y0027394D03*
D22*
X0163154Y0026406D03*
X0163154Y0040186D03*
X0053965Y0061643D03*
X0040186Y0061643D03*
D23*
X0184813Y0037196D02*
X0184813Y0029396D01*
X0204613Y0029396D02*
X0204613Y0037196D01*
D24*
X0089800Y0123800D03*
X0078800Y0091800D03*
X0051800Y0099800D03*
X0066800Y0154800D03*
X0088800Y0164800D03*
X0086800Y0184800D03*
X0106800Y0185800D03*
X0110800Y0164800D03*
X0058800Y0221800D03*
X0066800Y0231800D03*
X0080800Y0225800D03*
M02*
