G75*
%MOIN*%
%OFA0B0*%
%FSLAX25Y25*%
%IPPOS*%
%LPD*%
%AMOC8*
5,1,8,0,0,1.08239X$1,22.5*
%
%ADD10C,0.00000*%
%ADD11C,0.01000*%
%ADD12R,0.01969X0.05906*%
%ADD13R,0.05906X0.01969*%
%ADD14R,0.04724X0.07087*%
%ADD15R,0.04799X0.08799*%
%ADD16R,0.14173X0.08661*%
%ADD17R,0.05906X0.05118*%
%ADD18R,0.05118X0.05906*%
D10*
X0246800Y0001800D02*
X0259674Y0001800D01*
D11*
X0001800Y0001800D02*
X0001800Y0287233D01*
X0259674Y0287233D01*
X0259674Y0001800D01*
X0001800Y0001800D01*
D12*
X0082416Y0154701D03*
X0085566Y0154701D03*
X0088716Y0154701D03*
X0091865Y0154701D03*
X0095015Y0154701D03*
X0098164Y0154701D03*
X0101314Y0154701D03*
X0104464Y0154701D03*
X0107613Y0154701D03*
X0110763Y0154701D03*
X0113912Y0154701D03*
X0113912Y0200370D03*
X0110763Y0200370D03*
X0107613Y0200370D03*
X0104464Y0200370D03*
X0101314Y0200370D03*
X0098164Y0200370D03*
X0095015Y0200370D03*
X0091865Y0200370D03*
X0088716Y0200370D03*
X0085566Y0200370D03*
X0082416Y0200370D03*
D13*
X0075330Y0193284D03*
X0075330Y0190134D03*
X0075330Y0186984D03*
X0075330Y0183835D03*
X0075330Y0180685D03*
X0075330Y0177536D03*
X0075330Y0174386D03*
X0075330Y0171236D03*
X0075330Y0168087D03*
X0075330Y0164937D03*
X0075330Y0161788D03*
X0120999Y0161788D03*
X0120999Y0164937D03*
X0120999Y0168087D03*
X0120999Y0171236D03*
X0120999Y0174386D03*
X0120999Y0177536D03*
X0120999Y0180685D03*
X0120999Y0183835D03*
X0120999Y0186984D03*
X0120999Y0190134D03*
X0120999Y0193284D03*
D14*
X0076800Y0235898D03*
X0076800Y0247702D03*
X0059800Y0124702D03*
X0059800Y0112898D03*
X0206800Y0265898D03*
X0216800Y0265898D03*
X0216800Y0277702D03*
X0206800Y0277702D03*
D15*
X0107898Y0052599D03*
X0098800Y0052599D03*
X0089702Y0052599D03*
D16*
X0098800Y0077001D03*
D17*
X0075619Y0059540D03*
X0075619Y0052060D03*
X0091800Y0238060D03*
X0091800Y0245540D03*
X0111800Y0245540D03*
X0111800Y0238060D03*
D18*
X0109540Y0140800D03*
X0102060Y0140800D03*
X0102060Y0130800D03*
X0109540Y0130800D03*
X0088540Y0140800D03*
X0081060Y0140800D03*
M02*
