G75*
%MOIN*%
%OFA0B0*%
%FSLAX25Y25*%
%IPPOS*%
%LPD*%
%AMOC8*
5,1,8,0,0,1.08239X$1,22.5*
%
%ADD10C,0.00000*%
%ADD11C,0.01000*%
%ADD12C,0.06300*%
%ADD13OC8,0.06300*%
%ADD14C,0.05600*%
%ADD15OC8,0.05600*%
%ADD16C,0.05200*%
%ADD17C,0.06000*%
%ADD18C,0.09449*%
%ADD19C,0.07000*%
%ADD20R,0.07087X0.04724*%
%ADD21R,0.04724X0.07087*%
%ADD22R,0.05906X0.05906*%
%ADD23C,0.07800*%
%ADD24C,0.01600*%
%ADD25C,0.03562*%
%ADD26C,0.03200*%
D10*
X0246800Y0001800D02*
X0259674Y0001800D01*
D11*
X0001800Y0001800D02*
X0001800Y0287233D01*
X0259674Y0287233D01*
X0259674Y0001800D01*
X0001800Y0001800D01*
D12*
X0082619Y0028509D03*
X0102509Y0034666D03*
D13*
X0112509Y0034666D03*
X0082619Y0018509D03*
D14*
X0031800Y0171800D03*
D15*
X0031800Y0161800D03*
X0031800Y0151800D03*
X0031800Y0141800D03*
X0031800Y0131800D03*
X0021800Y0131800D03*
X0021800Y0141800D03*
X0021800Y0151800D03*
X0021800Y0161800D03*
X0021800Y0171800D03*
X0021800Y0201800D03*
X0021800Y0211800D03*
X0021800Y0221800D03*
X0021800Y0231800D03*
X0021800Y0241800D03*
X0031800Y0241800D03*
X0031800Y0231800D03*
X0031800Y0221800D03*
X0031800Y0211800D03*
X0031800Y0201800D03*
D16*
X0186800Y0249200D02*
X0186800Y0254400D01*
X0196800Y0254400D02*
X0196800Y0249200D01*
X0206800Y0249200D02*
X0206800Y0254400D01*
X0216800Y0254400D02*
X0216800Y0249200D01*
X0226800Y0249200D02*
X0226800Y0254400D01*
X0236800Y0254400D02*
X0236800Y0249200D01*
D17*
X0111800Y0224800D02*
X0111800Y0218800D01*
X0091800Y0218800D02*
X0091800Y0224800D01*
X0027800Y0119800D02*
X0021800Y0119800D01*
X0021800Y0109800D02*
X0027800Y0109800D01*
X0027800Y0099800D02*
X0021800Y0099800D01*
X0018800Y0083800D02*
X0012800Y0083800D01*
X0012800Y0073800D02*
X0018800Y0073800D01*
X0018800Y0063800D02*
X0012800Y0063800D01*
X0238800Y0042800D02*
X0244800Y0042800D01*
X0244800Y0032800D02*
X0238800Y0032800D01*
X0238800Y0022800D02*
X0244800Y0022800D01*
D18*
X0064200Y0031576D02*
X0064200Y0041024D01*
X0057487Y0018524D02*
X0048039Y0018524D01*
X0036621Y0031792D02*
X0036621Y0041241D01*
D19*
X0093769Y0255898D02*
X0093769Y0262898D01*
X0113769Y0262898D02*
X0113769Y0255898D01*
X0123769Y0255898D02*
X0123769Y0262898D01*
X0133769Y0262898D02*
X0133769Y0255898D01*
D20*
X0052977Y0072666D03*
X0041174Y0072666D03*
D21*
X0151406Y0039198D03*
X0151406Y0027394D03*
D22*
X0163154Y0026406D03*
X0163154Y0040186D03*
X0053965Y0061643D03*
X0040186Y0061643D03*
D23*
X0184813Y0037196D02*
X0184813Y0029396D01*
X0204613Y0029396D02*
X0204613Y0037196D01*
D24*
X0200271Y0041763D02*
X0188225Y0041763D01*
X0188527Y0041544D02*
X0187801Y0042071D01*
X0187001Y0042478D01*
X0186148Y0042756D01*
X0185313Y0042888D01*
X0185313Y0033796D01*
X0184313Y0033796D01*
X0184313Y0032796D01*
X0179113Y0032796D01*
X0179113Y0028947D01*
X0179254Y0028061D01*
X0179531Y0027208D01*
X0179938Y0026409D01*
X0180466Y0025683D01*
X0181100Y0025048D01*
X0181826Y0024521D01*
X0182625Y0024114D01*
X0183479Y0023836D01*
X0184313Y0023704D01*
X0184313Y0032796D01*
X0185313Y0032796D01*
X0185313Y0023704D01*
X0186148Y0023836D01*
X0187001Y0024114D01*
X0187801Y0024521D01*
X0188527Y0025048D01*
X0189161Y0025683D01*
X0189688Y0026409D01*
X0190096Y0027208D01*
X0190373Y0028061D01*
X0190513Y0028947D01*
X0190513Y0032796D01*
X0185313Y0032796D01*
X0185313Y0033796D01*
X0190513Y0033796D01*
X0190513Y0037645D01*
X0190373Y0038531D01*
X0190096Y0039384D01*
X0189688Y0040184D01*
X0189161Y0040909D01*
X0188527Y0041544D01*
X0189698Y0040164D02*
X0199024Y0040164D01*
X0199273Y0040765D02*
X0198313Y0038449D01*
X0198313Y0028143D01*
X0199273Y0025827D01*
X0201045Y0024055D01*
X0203360Y0023096D01*
X0205867Y0023096D01*
X0208182Y0024055D01*
X0209954Y0025827D01*
X0210913Y0028143D01*
X0210913Y0038449D01*
X0209954Y0040765D01*
X0208182Y0042537D01*
X0205867Y0043496D01*
X0203360Y0043496D01*
X0201045Y0042537D01*
X0199273Y0040765D01*
X0198362Y0038566D02*
X0190362Y0038566D01*
X0190513Y0036967D02*
X0198313Y0036967D01*
X0198313Y0035369D02*
X0190513Y0035369D01*
X0190513Y0032172D02*
X0198313Y0032172D01*
X0198313Y0033770D02*
X0185313Y0033770D01*
X0184313Y0033770D02*
X0155279Y0033770D01*
X0155128Y0033620D02*
X0155803Y0034295D01*
X0156168Y0035177D01*
X0156168Y0043218D01*
X0155803Y0044100D01*
X0155128Y0044776D01*
X0154606Y0044992D01*
X0154606Y0075830D01*
X0154119Y0077006D01*
X0123513Y0107613D01*
X0122613Y0108513D01*
X0121437Y0109000D01*
X0082125Y0109000D01*
X0070000Y0121125D01*
X0070000Y0152087D01*
X0070345Y0152432D01*
X0070981Y0153968D01*
X0070981Y0155632D01*
X0070345Y0157168D01*
X0069168Y0158345D01*
X0067632Y0158981D01*
X0065968Y0158981D01*
X0064432Y0158345D01*
X0063255Y0157168D01*
X0062619Y0155632D01*
X0062619Y0153968D01*
X0063255Y0152432D01*
X0063600Y0152087D01*
X0063600Y0119163D01*
X0064087Y0117987D01*
X0064987Y0117087D01*
X0078987Y0103087D01*
X0080163Y0102600D01*
X0119475Y0102600D01*
X0148206Y0073868D01*
X0148206Y0044992D01*
X0147685Y0044776D01*
X0147009Y0044100D01*
X0146644Y0043218D01*
X0146644Y0035177D01*
X0147009Y0034295D01*
X0147685Y0033620D01*
X0148466Y0033296D01*
X0147685Y0032972D01*
X0147009Y0032297D01*
X0146644Y0031415D01*
X0146644Y0023374D01*
X0147009Y0022492D01*
X0147685Y0021817D01*
X0148567Y0021451D01*
X0154246Y0021451D01*
X0155128Y0021817D01*
X0155803Y0022492D01*
X0156099Y0023206D01*
X0157802Y0023206D01*
X0157802Y0022976D01*
X0158167Y0022094D01*
X0158842Y0021419D01*
X0159724Y0021054D01*
X0166584Y0021054D01*
X0167467Y0021419D01*
X0168142Y0022094D01*
X0168507Y0022976D01*
X0168507Y0029836D01*
X0168142Y0030719D01*
X0167467Y0031394D01*
X0166584Y0031759D01*
X0159724Y0031759D01*
X0158842Y0031394D01*
X0158167Y0030719D01*
X0157802Y0029836D01*
X0157802Y0029606D01*
X0156168Y0029606D01*
X0156168Y0031415D01*
X0155803Y0032297D01*
X0155128Y0032972D01*
X0154347Y0033296D01*
X0155128Y0033620D01*
X0155855Y0032172D02*
X0179113Y0032172D01*
X0179113Y0030573D02*
X0168202Y0030573D01*
X0168507Y0028975D02*
X0179113Y0028975D01*
X0179476Y0027376D02*
X0168507Y0027376D01*
X0168507Y0025778D02*
X0180397Y0025778D01*
X0182497Y0024179D02*
X0168507Y0024179D01*
X0168343Y0022581D02*
X0234000Y0022581D01*
X0234000Y0022600D02*
X0234000Y0022422D01*
X0234118Y0021676D01*
X0234352Y0020957D01*
X0234695Y0020284D01*
X0235139Y0019673D01*
X0235673Y0019139D01*
X0236284Y0018695D01*
X0236957Y0018352D01*
X0237676Y0018118D01*
X0238422Y0018000D01*
X0241600Y0018000D01*
X0241600Y0022600D01*
X0242000Y0022600D01*
X0242000Y0023000D01*
X0241600Y0023000D01*
X0241600Y0027600D01*
X0238422Y0027600D01*
X0237676Y0027482D01*
X0236957Y0027248D01*
X0236284Y0026905D01*
X0235673Y0026461D01*
X0235139Y0025927D01*
X0234695Y0025316D01*
X0234352Y0024643D01*
X0234118Y0023924D01*
X0234000Y0023178D01*
X0234000Y0023000D01*
X0241600Y0023000D01*
X0241600Y0022600D01*
X0234000Y0022600D01*
X0234201Y0024179D02*
X0208306Y0024179D01*
X0209905Y0025778D02*
X0235030Y0025778D01*
X0237351Y0027376D02*
X0210596Y0027376D01*
X0210913Y0028975D02*
X0235899Y0028975D01*
X0235673Y0029139D02*
X0236284Y0028695D01*
X0236957Y0028352D01*
X0237676Y0028118D01*
X0238422Y0028000D01*
X0241600Y0028000D01*
X0241600Y0032600D01*
X0242000Y0032600D01*
X0242000Y0033000D01*
X0241600Y0033000D01*
X0241600Y0037600D01*
X0238422Y0037600D01*
X0237676Y0037482D01*
X0236957Y0037248D01*
X0236284Y0036905D01*
X0235673Y0036461D01*
X0235139Y0035927D01*
X0234695Y0035316D01*
X0234352Y0034643D01*
X0234118Y0033924D01*
X0234000Y0033178D01*
X0234000Y0033000D01*
X0241600Y0033000D01*
X0241600Y0032600D01*
X0234000Y0032600D01*
X0234000Y0032422D01*
X0234118Y0031676D01*
X0234352Y0030957D01*
X0234695Y0030284D01*
X0235139Y0029673D01*
X0235673Y0029139D01*
X0234547Y0030573D02*
X0210913Y0030573D01*
X0210913Y0032172D02*
X0234040Y0032172D01*
X0234094Y0033770D02*
X0210913Y0033770D01*
X0210913Y0035369D02*
X0234733Y0035369D01*
X0236406Y0036967D02*
X0210913Y0036967D01*
X0210865Y0038566D02*
X0236537Y0038566D01*
X0236284Y0038695D02*
X0236957Y0038352D01*
X0237676Y0038118D01*
X0238422Y0038000D01*
X0241600Y0038000D01*
X0241600Y0042600D01*
X0242000Y0042600D01*
X0242000Y0043000D01*
X0241600Y0043000D01*
X0241600Y0047600D01*
X0238422Y0047600D01*
X0237676Y0047482D01*
X0236957Y0047248D01*
X0236284Y0046905D01*
X0235673Y0046461D01*
X0235139Y0045927D01*
X0234695Y0045316D01*
X0234352Y0044643D01*
X0234118Y0043924D01*
X0234000Y0043178D01*
X0234000Y0043000D01*
X0241600Y0043000D01*
X0241600Y0042600D01*
X0234000Y0042600D01*
X0234000Y0042422D01*
X0234118Y0041676D01*
X0234352Y0040957D01*
X0234695Y0040284D01*
X0235139Y0039673D01*
X0235673Y0039139D01*
X0236284Y0038695D01*
X0234782Y0040164D02*
X0210203Y0040164D01*
X0208956Y0041763D02*
X0234104Y0041763D01*
X0234029Y0043361D02*
X0206192Y0043361D01*
X0203035Y0043361D02*
X0167907Y0043361D01*
X0167907Y0043376D02*
X0167784Y0043833D01*
X0167547Y0044244D01*
X0167212Y0044579D01*
X0166802Y0044816D01*
X0166344Y0044939D01*
X0163831Y0044939D01*
X0163831Y0040862D01*
X0167907Y0040862D01*
X0167907Y0043376D01*
X0167907Y0041763D02*
X0181402Y0041763D01*
X0181100Y0041544D02*
X0180466Y0040909D01*
X0179938Y0040184D01*
X0179531Y0039384D01*
X0179254Y0038531D01*
X0179113Y0037645D01*
X0179113Y0033796D01*
X0184313Y0033796D01*
X0184313Y0042888D01*
X0183479Y0042756D01*
X0182625Y0042478D01*
X0181826Y0042071D01*
X0181100Y0041544D01*
X0179929Y0040164D02*
X0163831Y0040164D01*
X0163831Y0039509D02*
X0163831Y0040862D01*
X0162478Y0040862D01*
X0162478Y0039509D01*
X0163831Y0039509D01*
X0163831Y0035433D01*
X0166344Y0035433D01*
X0166802Y0035556D01*
X0167212Y0035793D01*
X0167547Y0036128D01*
X0167784Y0036538D01*
X0167907Y0036996D01*
X0167907Y0039509D01*
X0163831Y0039509D01*
X0163831Y0038566D02*
X0162478Y0038566D01*
X0162478Y0039509D02*
X0162478Y0035433D01*
X0159965Y0035433D01*
X0159507Y0035556D01*
X0159096Y0035793D01*
X0158761Y0036128D01*
X0158524Y0036538D01*
X0158402Y0036996D01*
X0158402Y0039509D01*
X0162478Y0039509D01*
X0162478Y0040164D02*
X0156168Y0040164D01*
X0156168Y0038566D02*
X0158402Y0038566D01*
X0158409Y0036967D02*
X0156168Y0036967D01*
X0156168Y0035369D02*
X0179113Y0035369D01*
X0179113Y0036967D02*
X0167899Y0036967D01*
X0167907Y0038566D02*
X0179265Y0038566D01*
X0184313Y0038566D02*
X0185313Y0038566D01*
X0185313Y0040164D02*
X0184313Y0040164D01*
X0184313Y0041763D02*
X0185313Y0041763D01*
X0185313Y0036967D02*
X0184313Y0036967D01*
X0184313Y0035369D02*
X0185313Y0035369D01*
X0185313Y0032172D02*
X0184313Y0032172D01*
X0184313Y0030573D02*
X0185313Y0030573D01*
X0185313Y0028975D02*
X0184313Y0028975D01*
X0184313Y0027376D02*
X0185313Y0027376D01*
X0185313Y0025778D02*
X0184313Y0025778D01*
X0184313Y0024179D02*
X0185313Y0024179D01*
X0187130Y0024179D02*
X0200921Y0024179D01*
X0199322Y0025778D02*
X0189230Y0025778D01*
X0190150Y0027376D02*
X0198631Y0027376D01*
X0198313Y0028975D02*
X0190513Y0028975D01*
X0190513Y0030573D02*
X0198313Y0030573D01*
X0163831Y0036967D02*
X0162478Y0036967D01*
X0162478Y0040862D02*
X0158402Y0040862D01*
X0158402Y0043376D01*
X0158524Y0043833D01*
X0158761Y0044244D01*
X0159096Y0044579D01*
X0159507Y0044816D01*
X0159965Y0044939D01*
X0162478Y0044939D01*
X0162478Y0040862D01*
X0162478Y0041763D02*
X0163831Y0041763D01*
X0163831Y0043361D02*
X0162478Y0043361D01*
X0158402Y0043361D02*
X0156109Y0043361D01*
X0156168Y0041763D02*
X0158402Y0041763D01*
X0154683Y0044960D02*
X0234513Y0044960D01*
X0235807Y0046558D02*
X0154606Y0046558D01*
X0154606Y0048157D02*
X0256374Y0048157D01*
X0256374Y0049755D02*
X0154606Y0049755D01*
X0154606Y0051354D02*
X0256374Y0051354D01*
X0256374Y0052952D02*
X0154606Y0052952D01*
X0154606Y0054551D02*
X0256374Y0054551D01*
X0256374Y0056149D02*
X0154606Y0056149D01*
X0154606Y0057748D02*
X0256374Y0057748D01*
X0256374Y0059346D02*
X0154606Y0059346D01*
X0154606Y0060945D02*
X0256374Y0060945D01*
X0256374Y0062543D02*
X0154606Y0062543D01*
X0154606Y0064142D02*
X0256374Y0064142D01*
X0256374Y0065740D02*
X0154606Y0065740D01*
X0154606Y0067339D02*
X0256374Y0067339D01*
X0256374Y0068937D02*
X0154606Y0068937D01*
X0154606Y0070536D02*
X0256374Y0070536D01*
X0256374Y0072134D02*
X0154606Y0072134D01*
X0154606Y0073733D02*
X0256374Y0073733D01*
X0256374Y0075332D02*
X0154606Y0075332D01*
X0154151Y0076930D02*
X0256374Y0076930D01*
X0256374Y0078529D02*
X0152597Y0078529D01*
X0150998Y0080127D02*
X0256374Y0080127D01*
X0256374Y0081726D02*
X0149400Y0081726D01*
X0147801Y0083324D02*
X0256374Y0083324D01*
X0256374Y0084923D02*
X0146203Y0084923D01*
X0144604Y0086521D02*
X0256374Y0086521D01*
X0256374Y0088120D02*
X0143006Y0088120D01*
X0141407Y0089718D02*
X0256374Y0089718D01*
X0256374Y0091317D02*
X0139809Y0091317D01*
X0138210Y0092915D02*
X0256374Y0092915D01*
X0256374Y0094514D02*
X0136612Y0094514D01*
X0135013Y0096112D02*
X0256374Y0096112D01*
X0256374Y0097711D02*
X0133415Y0097711D01*
X0131816Y0099309D02*
X0256374Y0099309D01*
X0256374Y0100908D02*
X0130218Y0100908D01*
X0128619Y0102506D02*
X0256374Y0102506D01*
X0256374Y0104105D02*
X0127021Y0104105D01*
X0125422Y0105703D02*
X0256374Y0105703D01*
X0256374Y0107302D02*
X0123824Y0107302D01*
X0121677Y0108900D02*
X0256374Y0108900D01*
X0256374Y0110499D02*
X0080627Y0110499D01*
X0079028Y0112097D02*
X0256374Y0112097D01*
X0256374Y0113696D02*
X0077430Y0113696D01*
X0075831Y0115294D02*
X0256374Y0115294D01*
X0256374Y0116893D02*
X0074233Y0116893D01*
X0072634Y0118491D02*
X0256374Y0118491D01*
X0256374Y0120090D02*
X0071036Y0120090D01*
X0070000Y0121688D02*
X0256374Y0121688D01*
X0256374Y0123287D02*
X0070000Y0123287D01*
X0070000Y0124885D02*
X0256374Y0124885D01*
X0256374Y0126484D02*
X0070000Y0126484D01*
X0070000Y0128082D02*
X0256374Y0128082D01*
X0256374Y0129681D02*
X0070000Y0129681D01*
X0070000Y0131279D02*
X0256374Y0131279D01*
X0256374Y0132878D02*
X0070000Y0132878D01*
X0070000Y0134476D02*
X0256374Y0134476D01*
X0256374Y0136075D02*
X0070000Y0136075D01*
X0070000Y0137673D02*
X0256374Y0137673D01*
X0256374Y0139272D02*
X0070000Y0139272D01*
X0070000Y0140870D02*
X0256374Y0140870D01*
X0256374Y0142469D02*
X0070000Y0142469D01*
X0070000Y0144068D02*
X0256374Y0144068D01*
X0256374Y0145666D02*
X0070000Y0145666D01*
X0070000Y0147265D02*
X0256374Y0147265D01*
X0256374Y0148863D02*
X0070000Y0148863D01*
X0070000Y0150462D02*
X0256374Y0150462D01*
X0256374Y0152060D02*
X0070000Y0152060D01*
X0070853Y0153659D02*
X0256374Y0153659D01*
X0256374Y0155257D02*
X0070981Y0155257D01*
X0070474Y0156856D02*
X0256374Y0156856D01*
X0256374Y0158454D02*
X0068904Y0158454D01*
X0066800Y0154800D02*
X0066800Y0119800D01*
X0080800Y0105800D01*
X0120800Y0105800D01*
X0151406Y0075194D01*
X0151406Y0039198D01*
X0146644Y0038566D02*
X0115609Y0038566D01*
X0114559Y0039616D02*
X0117459Y0036716D01*
X0117459Y0034666D01*
X0112509Y0034666D01*
X0112509Y0034666D01*
X0117459Y0034666D01*
X0117459Y0032616D01*
X0114559Y0029716D01*
X0112509Y0029716D01*
X0112509Y0034666D01*
X0112509Y0034666D01*
X0112509Y0034666D01*
X0112509Y0039616D01*
X0114559Y0039616D01*
X0112509Y0039616D02*
X0110458Y0039616D01*
X0107635Y0036793D01*
X0107214Y0037810D01*
X0105652Y0039371D01*
X0103613Y0040216D01*
X0102800Y0040216D01*
X0102800Y0072596D01*
X0102191Y0074066D01*
X0082526Y0093731D01*
X0082345Y0094168D01*
X0081168Y0095345D01*
X0079632Y0095981D01*
X0077968Y0095981D01*
X0076432Y0095345D01*
X0075255Y0094168D01*
X0074619Y0092632D01*
X0074619Y0092144D01*
X0058645Y0076171D01*
X0058555Y0076388D01*
X0057880Y0077063D01*
X0056998Y0077428D01*
X0048956Y0077428D01*
X0048074Y0077063D01*
X0047399Y0076388D01*
X0047076Y0075606D01*
X0046752Y0076388D01*
X0046077Y0077063D01*
X0045195Y0077428D01*
X0037153Y0077428D01*
X0036271Y0077063D01*
X0035596Y0076388D01*
X0035231Y0075506D01*
X0035231Y0069827D01*
X0035596Y0068944D01*
X0036271Y0068269D01*
X0036793Y0068053D01*
X0036825Y0066995D01*
X0036756Y0066995D01*
X0035874Y0066630D01*
X0035198Y0065955D01*
X0034833Y0065073D01*
X0034833Y0058212D01*
X0035198Y0057330D01*
X0035874Y0056655D01*
X0036756Y0056290D01*
X0043616Y0056290D01*
X0044498Y0056655D01*
X0045173Y0057330D01*
X0045539Y0058212D01*
X0045539Y0065073D01*
X0045173Y0065955D01*
X0044498Y0066630D01*
X0043616Y0066995D01*
X0043228Y0066995D01*
X0043201Y0067904D01*
X0045195Y0067904D01*
X0046077Y0068269D01*
X0046752Y0068944D01*
X0047076Y0069726D01*
X0047399Y0068944D01*
X0048074Y0068269D01*
X0048956Y0067904D01*
X0056998Y0067904D01*
X0057880Y0068269D01*
X0058555Y0068944D01*
X0058771Y0069466D01*
X0060303Y0069466D01*
X0061479Y0069953D01*
X0078234Y0086709D01*
X0094800Y0070143D01*
X0094800Y0037579D01*
X0095409Y0036109D01*
X0096959Y0034559D01*
X0096959Y0033562D01*
X0097804Y0031522D01*
X0099365Y0029961D01*
X0101405Y0029116D01*
X0103613Y0029116D01*
X0105652Y0029961D01*
X0107214Y0031522D01*
X0107635Y0032539D01*
X0110458Y0029716D01*
X0112509Y0029716D01*
X0112509Y0034666D01*
X0112509Y0039616D01*
X0112509Y0038566D02*
X0112509Y0038566D01*
X0112509Y0036967D02*
X0112509Y0036967D01*
X0112509Y0035369D02*
X0112509Y0035369D01*
X0112509Y0033770D02*
X0112509Y0033770D01*
X0112509Y0032172D02*
X0112509Y0032172D01*
X0112509Y0030573D02*
X0112509Y0030573D01*
X0115416Y0030573D02*
X0146644Y0030573D01*
X0146644Y0028975D02*
X0088169Y0028975D01*
X0088169Y0029613D02*
X0087324Y0031652D01*
X0085763Y0033214D01*
X0083723Y0034059D01*
X0081515Y0034059D01*
X0079475Y0033214D01*
X0077914Y0031652D01*
X0077069Y0029613D01*
X0077069Y0027405D01*
X0077914Y0025365D01*
X0079475Y0023804D01*
X0080492Y0023382D01*
X0077669Y0020559D01*
X0077669Y0018509D01*
X0082619Y0018509D01*
X0087569Y0018509D01*
X0087569Y0020559D01*
X0084746Y0023382D01*
X0085763Y0023804D01*
X0087324Y0025365D01*
X0088169Y0027405D01*
X0088169Y0029613D01*
X0087771Y0030573D02*
X0098753Y0030573D01*
X0097535Y0032172D02*
X0086805Y0032172D01*
X0084419Y0033770D02*
X0096959Y0033770D01*
X0096149Y0035369D02*
X0071324Y0035369D01*
X0071324Y0036967D02*
X0095053Y0036967D01*
X0094800Y0038566D02*
X0071324Y0038566D01*
X0071324Y0040164D02*
X0094800Y0040164D01*
X0094800Y0041763D02*
X0071324Y0041763D01*
X0071324Y0042442D02*
X0070240Y0045060D01*
X0068236Y0047064D01*
X0065617Y0048149D01*
X0062783Y0048149D01*
X0060164Y0047064D01*
X0058160Y0045060D01*
X0057076Y0042442D01*
X0057076Y0030158D01*
X0058160Y0027540D01*
X0060164Y0025536D01*
X0062783Y0024451D01*
X0065617Y0024451D01*
X0068236Y0025536D01*
X0070240Y0027540D01*
X0071324Y0030158D01*
X0071324Y0042442D01*
X0070943Y0043361D02*
X0094800Y0043361D01*
X0094800Y0044960D02*
X0070281Y0044960D01*
X0068742Y0046558D02*
X0094800Y0046558D01*
X0094800Y0048157D02*
X0005100Y0048157D01*
X0005100Y0049755D02*
X0094800Y0049755D01*
X0094800Y0051354D02*
X0005100Y0051354D01*
X0005100Y0052952D02*
X0094800Y0052952D01*
X0094800Y0054551D02*
X0005100Y0054551D01*
X0005100Y0056149D02*
X0094800Y0056149D01*
X0094800Y0057748D02*
X0058453Y0057748D01*
X0058358Y0057585D02*
X0058595Y0057995D01*
X0058718Y0058453D01*
X0058718Y0060966D01*
X0054642Y0060966D01*
X0054642Y0062319D01*
X0058718Y0062319D01*
X0058718Y0064832D01*
X0058595Y0065290D01*
X0058358Y0065700D01*
X0058023Y0066036D01*
X0057613Y0066273D01*
X0057155Y0066395D01*
X0054642Y0066395D01*
X0054642Y0062319D01*
X0053289Y0062319D01*
X0053289Y0066395D01*
X0050776Y0066395D01*
X0050318Y0066273D01*
X0049907Y0066036D01*
X0049572Y0065700D01*
X0049335Y0065290D01*
X0049213Y0064832D01*
X0049213Y0062319D01*
X0053289Y0062319D01*
X0053289Y0060966D01*
X0054642Y0060966D01*
X0054642Y0056890D01*
X0057155Y0056890D01*
X0057613Y0057012D01*
X0058023Y0057249D01*
X0058358Y0057585D01*
X0058718Y0059346D02*
X0094800Y0059346D01*
X0094800Y0060945D02*
X0058718Y0060945D01*
X0058718Y0062543D02*
X0094800Y0062543D01*
X0094800Y0064142D02*
X0058718Y0064142D01*
X0058319Y0065740D02*
X0094800Y0065740D01*
X0094800Y0067339D02*
X0043217Y0067339D01*
X0045262Y0065740D02*
X0049612Y0065740D01*
X0049213Y0064142D02*
X0045539Y0064142D01*
X0045539Y0062543D02*
X0049213Y0062543D01*
X0049213Y0060966D02*
X0049213Y0058453D01*
X0049335Y0057995D01*
X0049572Y0057585D01*
X0049907Y0057249D01*
X0050318Y0057012D01*
X0050776Y0056890D01*
X0053289Y0056890D01*
X0053289Y0060966D01*
X0049213Y0060966D01*
X0049213Y0060945D02*
X0045539Y0060945D01*
X0045539Y0059346D02*
X0049213Y0059346D01*
X0049478Y0057748D02*
X0045346Y0057748D01*
X0040186Y0061643D02*
X0039910Y0070891D01*
X0041174Y0072666D01*
X0035231Y0072134D02*
X0023955Y0072134D01*
X0024200Y0072726D02*
X0024200Y0074874D01*
X0023378Y0076859D01*
X0021859Y0078378D01*
X0020840Y0078800D01*
X0021859Y0079222D01*
X0023378Y0080741D01*
X0024200Y0082726D01*
X0024200Y0084874D01*
X0023378Y0086859D01*
X0021859Y0088378D01*
X0019874Y0089200D01*
X0011726Y0089200D01*
X0009741Y0088378D01*
X0008222Y0086859D01*
X0007400Y0084874D01*
X0007400Y0082726D01*
X0008222Y0080741D01*
X0009741Y0079222D01*
X0010760Y0078800D01*
X0009741Y0078378D01*
X0008222Y0076859D01*
X0007400Y0074874D01*
X0007400Y0072726D01*
X0008222Y0070741D01*
X0009741Y0069222D01*
X0010760Y0068800D01*
X0009741Y0068378D01*
X0008222Y0066859D01*
X0007400Y0064874D01*
X0007400Y0062726D01*
X0008222Y0060741D01*
X0009741Y0059222D01*
X0011726Y0058400D01*
X0019874Y0058400D01*
X0021859Y0059222D01*
X0023378Y0060741D01*
X0024200Y0062726D01*
X0024200Y0064874D01*
X0023378Y0066859D01*
X0021859Y0068378D01*
X0020840Y0068800D01*
X0021859Y0069222D01*
X0023378Y0070741D01*
X0024200Y0072726D01*
X0024200Y0073733D02*
X0035231Y0073733D01*
X0035231Y0075332D02*
X0024011Y0075332D01*
X0023307Y0076930D02*
X0036138Y0076930D01*
X0035231Y0070536D02*
X0023173Y0070536D01*
X0021172Y0068937D02*
X0035603Y0068937D01*
X0036815Y0067339D02*
X0022898Y0067339D01*
X0023841Y0065740D02*
X0035110Y0065740D01*
X0034833Y0064142D02*
X0024200Y0064142D01*
X0024124Y0062543D02*
X0034833Y0062543D01*
X0034833Y0060945D02*
X0023462Y0060945D01*
X0021983Y0059346D02*
X0034833Y0059346D01*
X0035025Y0057748D02*
X0005100Y0057748D01*
X0005100Y0059346D02*
X0009617Y0059346D01*
X0008138Y0060945D02*
X0005100Y0060945D01*
X0005100Y0062543D02*
X0007476Y0062543D01*
X0007400Y0064142D02*
X0005100Y0064142D01*
X0005100Y0065740D02*
X0007759Y0065740D01*
X0008702Y0067339D02*
X0005100Y0067339D01*
X0005100Y0068937D02*
X0010428Y0068937D01*
X0008427Y0070536D02*
X0005100Y0070536D01*
X0005100Y0072134D02*
X0007645Y0072134D01*
X0007400Y0073733D02*
X0005100Y0073733D01*
X0005100Y0075332D02*
X0007589Y0075332D01*
X0008293Y0076930D02*
X0005100Y0076930D01*
X0005100Y0078529D02*
X0010105Y0078529D01*
X0008836Y0080127D02*
X0005100Y0080127D01*
X0005100Y0081726D02*
X0007814Y0081726D01*
X0007400Y0083324D02*
X0005100Y0083324D01*
X0005100Y0084923D02*
X0007420Y0084923D01*
X0008082Y0086521D02*
X0005100Y0086521D01*
X0005100Y0088120D02*
X0009483Y0088120D01*
X0005100Y0089718D02*
X0072193Y0089718D01*
X0073791Y0091317D02*
X0005100Y0091317D01*
X0005100Y0092915D02*
X0074736Y0092915D01*
X0075601Y0094514D02*
X0029149Y0094514D01*
X0028874Y0094400D02*
X0030859Y0095222D01*
X0032378Y0096741D01*
X0033200Y0098726D01*
X0033200Y0100874D01*
X0032378Y0102859D01*
X0030859Y0104378D01*
X0029840Y0104800D01*
X0030859Y0105222D01*
X0032378Y0106741D01*
X0033200Y0108726D01*
X0033200Y0110874D01*
X0032378Y0112859D01*
X0030859Y0114378D01*
X0029007Y0115145D01*
X0029643Y0115352D01*
X0030316Y0115695D01*
X0030927Y0116139D01*
X0031461Y0116673D01*
X0031905Y0117284D01*
X0032248Y0117957D01*
X0032482Y0118676D01*
X0032600Y0119422D01*
X0032600Y0119600D01*
X0025000Y0119600D01*
X0025000Y0120000D01*
X0024600Y0120000D01*
X0024600Y0124600D01*
X0021422Y0124600D01*
X0020676Y0124482D01*
X0019957Y0124248D01*
X0019284Y0123905D01*
X0018673Y0123461D01*
X0018139Y0122927D01*
X0017695Y0122316D01*
X0017352Y0121643D01*
X0017118Y0120924D01*
X0017000Y0120178D01*
X0017000Y0120000D01*
X0024600Y0120000D01*
X0024600Y0119600D01*
X0017000Y0119600D01*
X0017000Y0119422D01*
X0017118Y0118676D01*
X0017352Y0117957D01*
X0017695Y0117284D01*
X0018139Y0116673D01*
X0018673Y0116139D01*
X0019284Y0115695D01*
X0019957Y0115352D01*
X0020593Y0115145D01*
X0018741Y0114378D01*
X0017222Y0112859D01*
X0016400Y0110874D01*
X0016400Y0108726D01*
X0017222Y0106741D01*
X0018741Y0105222D01*
X0019760Y0104800D01*
X0018741Y0104378D01*
X0017222Y0102859D01*
X0016400Y0100874D01*
X0016400Y0098726D01*
X0017222Y0096741D01*
X0018741Y0095222D01*
X0020726Y0094400D01*
X0028874Y0094400D01*
X0031749Y0096112D02*
X0125962Y0096112D01*
X0124364Y0097711D02*
X0032779Y0097711D01*
X0033200Y0099309D02*
X0122765Y0099309D01*
X0121167Y0100908D02*
X0033186Y0100908D01*
X0032524Y0102506D02*
X0119568Y0102506D01*
X0127561Y0094514D02*
X0081999Y0094514D01*
X0083342Y0092915D02*
X0129159Y0092915D01*
X0130758Y0091317D02*
X0084940Y0091317D01*
X0086539Y0089718D02*
X0132356Y0089718D01*
X0133955Y0088120D02*
X0088137Y0088120D01*
X0089736Y0086521D02*
X0135553Y0086521D01*
X0137152Y0084923D02*
X0091334Y0084923D01*
X0092933Y0083324D02*
X0138750Y0083324D01*
X0140349Y0081726D02*
X0094531Y0081726D01*
X0096130Y0080127D02*
X0141947Y0080127D01*
X0143546Y0078529D02*
X0097728Y0078529D01*
X0099327Y0076930D02*
X0145144Y0076930D01*
X0146743Y0075332D02*
X0100925Y0075332D01*
X0102329Y0073733D02*
X0148206Y0073733D01*
X0148206Y0072134D02*
X0102800Y0072134D01*
X0102800Y0070536D02*
X0148206Y0070536D01*
X0148206Y0068937D02*
X0102800Y0068937D01*
X0102800Y0067339D02*
X0148206Y0067339D01*
X0148206Y0065740D02*
X0102800Y0065740D01*
X0102800Y0064142D02*
X0148206Y0064142D01*
X0148206Y0062543D02*
X0102800Y0062543D01*
X0102800Y0060945D02*
X0148206Y0060945D01*
X0148206Y0059346D02*
X0102800Y0059346D01*
X0102800Y0057748D02*
X0148206Y0057748D01*
X0148206Y0056149D02*
X0102800Y0056149D01*
X0102800Y0054551D02*
X0148206Y0054551D01*
X0148206Y0052952D02*
X0102800Y0052952D01*
X0102800Y0051354D02*
X0148206Y0051354D01*
X0148206Y0049755D02*
X0102800Y0049755D01*
X0102800Y0048157D02*
X0148206Y0048157D01*
X0148206Y0046558D02*
X0102800Y0046558D01*
X0102800Y0044960D02*
X0148129Y0044960D01*
X0146703Y0043361D02*
X0102800Y0043361D01*
X0102800Y0041763D02*
X0146644Y0041763D01*
X0146644Y0040164D02*
X0103738Y0040164D01*
X0106458Y0038566D02*
X0109408Y0038566D01*
X0107809Y0036967D02*
X0107563Y0036967D01*
X0107483Y0032172D02*
X0108003Y0032172D01*
X0109601Y0030573D02*
X0106265Y0030573D01*
X0117015Y0032172D02*
X0146957Y0032172D01*
X0147534Y0033770D02*
X0117459Y0033770D01*
X0117459Y0035369D02*
X0146644Y0035369D01*
X0146644Y0036967D02*
X0117208Y0036967D01*
X0088157Y0027376D02*
X0146644Y0027376D01*
X0146644Y0025778D02*
X0087495Y0025778D01*
X0086138Y0024179D02*
X0146644Y0024179D01*
X0146973Y0022581D02*
X0085547Y0022581D01*
X0087146Y0020982D02*
X0234344Y0020982D01*
X0235428Y0019384D02*
X0087569Y0019384D01*
X0087569Y0018509D02*
X0082619Y0018509D01*
X0082619Y0018509D01*
X0082619Y0018509D01*
X0077669Y0018509D01*
X0077669Y0016458D01*
X0080569Y0013559D01*
X0082619Y0013559D01*
X0084669Y0013559D01*
X0087569Y0016458D01*
X0087569Y0018509D01*
X0087569Y0017785D02*
X0256374Y0017785D01*
X0256374Y0016187D02*
X0087297Y0016187D01*
X0085699Y0014588D02*
X0256374Y0014588D01*
X0256374Y0012990D02*
X0060950Y0012990D01*
X0061120Y0013088D02*
X0061798Y0013609D01*
X0062403Y0014213D01*
X0062924Y0014892D01*
X0063352Y0015633D01*
X0063679Y0016423D01*
X0063900Y0017249D01*
X0063966Y0017750D01*
X0053538Y0017750D01*
X0053538Y0019299D01*
X0063966Y0019299D01*
X0063900Y0019800D01*
X0063679Y0020626D01*
X0063352Y0021416D01*
X0062924Y0022157D01*
X0062403Y0022835D01*
X0061798Y0023440D01*
X0061120Y0023961D01*
X0060379Y0024389D01*
X0059589Y0024716D01*
X0058763Y0024937D01*
X0057915Y0025049D01*
X0053538Y0025049D01*
X0053538Y0019299D01*
X0051988Y0019299D01*
X0051988Y0017750D01*
X0041560Y0017750D01*
X0041626Y0017249D01*
X0041847Y0016423D01*
X0042174Y0015633D01*
X0042602Y0014892D01*
X0043123Y0014213D01*
X0043728Y0013609D01*
X0044406Y0013088D01*
X0045147Y0012660D01*
X0045937Y0012333D01*
X0046763Y0012112D01*
X0047611Y0012000D01*
X0051988Y0012000D01*
X0051988Y0017750D01*
X0053538Y0017750D01*
X0053538Y0012000D01*
X0057915Y0012000D01*
X0058763Y0012112D01*
X0059589Y0012333D01*
X0060379Y0012660D01*
X0061120Y0013088D01*
X0062691Y0014588D02*
X0079539Y0014588D01*
X0077941Y0016187D02*
X0063581Y0016187D01*
X0063955Y0019384D02*
X0077669Y0019384D01*
X0077669Y0017785D02*
X0053538Y0017785D01*
X0051988Y0017785D02*
X0005100Y0017785D01*
X0005100Y0016187D02*
X0041945Y0016187D01*
X0042835Y0014588D02*
X0005100Y0014588D01*
X0005100Y0012990D02*
X0044576Y0012990D01*
X0041560Y0019299D02*
X0051988Y0019299D01*
X0051988Y0025049D01*
X0047611Y0025049D01*
X0046763Y0024937D01*
X0045937Y0024716D01*
X0045147Y0024389D01*
X0044406Y0023961D01*
X0043728Y0023440D01*
X0043123Y0022835D01*
X0042602Y0022157D01*
X0042174Y0021416D01*
X0041847Y0020626D01*
X0041626Y0019800D01*
X0041560Y0019299D01*
X0041571Y0019384D02*
X0005100Y0019384D01*
X0005100Y0020982D02*
X0041995Y0020982D01*
X0042927Y0022581D02*
X0005100Y0022581D01*
X0005100Y0024179D02*
X0044784Y0024179D01*
X0041537Y0027481D02*
X0042058Y0028160D01*
X0042485Y0028900D01*
X0042813Y0029690D01*
X0043034Y0030517D01*
X0043146Y0031364D01*
X0043146Y0035742D01*
X0037396Y0035742D01*
X0037396Y0037291D01*
X0043146Y0037291D01*
X0043146Y0041669D01*
X0043034Y0042517D01*
X0042813Y0043343D01*
X0042485Y0044133D01*
X0042058Y0044873D01*
X0041537Y0045552D01*
X0040932Y0046157D01*
X0040254Y0046677D01*
X0039513Y0047105D01*
X0038723Y0047432D01*
X0037897Y0047654D01*
X0037396Y0047720D01*
X0037396Y0037291D01*
X0035846Y0037291D01*
X0035846Y0035742D01*
X0030097Y0035742D01*
X0030097Y0031364D01*
X0030208Y0030517D01*
X0030430Y0029690D01*
X0030757Y0028900D01*
X0031185Y0028160D01*
X0031705Y0027481D01*
X0032310Y0026876D01*
X0032989Y0026356D01*
X0033729Y0025928D01*
X0034520Y0025601D01*
X0035346Y0025379D01*
X0035846Y0025313D01*
X0035846Y0035742D01*
X0037396Y0035742D01*
X0037396Y0025313D01*
X0037897Y0025379D01*
X0038723Y0025601D01*
X0039513Y0025928D01*
X0040254Y0026356D01*
X0040932Y0026876D01*
X0041537Y0027481D01*
X0041432Y0027376D02*
X0058324Y0027376D01*
X0057566Y0028975D02*
X0042516Y0028975D01*
X0043041Y0030573D02*
X0057076Y0030573D01*
X0057076Y0032172D02*
X0043146Y0032172D01*
X0043146Y0033770D02*
X0057076Y0033770D01*
X0057076Y0035369D02*
X0043146Y0035369D01*
X0043146Y0038566D02*
X0057076Y0038566D01*
X0057076Y0040164D02*
X0043146Y0040164D01*
X0043133Y0041763D02*
X0057076Y0041763D01*
X0057457Y0043361D02*
X0042805Y0043361D01*
X0041992Y0044960D02*
X0058119Y0044960D01*
X0059658Y0046558D02*
X0040409Y0046558D01*
X0037396Y0046558D02*
X0035846Y0046558D01*
X0035846Y0047720D02*
X0035346Y0047654D01*
X0034520Y0047432D01*
X0033729Y0047105D01*
X0032989Y0046677D01*
X0032310Y0046157D01*
X0031705Y0045552D01*
X0031185Y0044873D01*
X0030757Y0044133D01*
X0030430Y0043343D01*
X0030208Y0042517D01*
X0030097Y0041669D01*
X0030097Y0037291D01*
X0035846Y0037291D01*
X0035846Y0047720D01*
X0035846Y0044960D02*
X0037396Y0044960D01*
X0037396Y0043361D02*
X0035846Y0043361D01*
X0035846Y0041763D02*
X0037396Y0041763D01*
X0037396Y0040164D02*
X0035846Y0040164D01*
X0035846Y0038566D02*
X0037396Y0038566D01*
X0037396Y0036967D02*
X0057076Y0036967D01*
X0059922Y0025778D02*
X0039150Y0025778D01*
X0037396Y0025778D02*
X0035846Y0025778D01*
X0035846Y0027376D02*
X0037396Y0027376D01*
X0037396Y0028975D02*
X0035846Y0028975D01*
X0035846Y0030573D02*
X0037396Y0030573D01*
X0037396Y0032172D02*
X0035846Y0032172D01*
X0035846Y0033770D02*
X0037396Y0033770D01*
X0037396Y0035369D02*
X0035846Y0035369D01*
X0035846Y0036967D02*
X0005100Y0036967D01*
X0005100Y0035369D02*
X0030097Y0035369D01*
X0030097Y0033770D02*
X0005100Y0033770D01*
X0005100Y0032172D02*
X0030097Y0032172D01*
X0030201Y0030573D02*
X0005100Y0030573D01*
X0005100Y0028975D02*
X0030726Y0028975D01*
X0031810Y0027376D02*
X0005100Y0027376D01*
X0005100Y0025778D02*
X0034092Y0025778D01*
X0030097Y0038566D02*
X0005100Y0038566D01*
X0005100Y0040164D02*
X0030097Y0040164D01*
X0030109Y0041763D02*
X0005100Y0041763D01*
X0005100Y0043361D02*
X0030438Y0043361D01*
X0031251Y0044960D02*
X0005100Y0044960D01*
X0005100Y0046558D02*
X0032833Y0046558D01*
X0046745Y0068937D02*
X0047406Y0068937D01*
X0053289Y0065740D02*
X0054642Y0065740D01*
X0054642Y0064142D02*
X0053289Y0064142D01*
X0053289Y0062543D02*
X0054642Y0062543D01*
X0054642Y0060945D02*
X0053289Y0060945D01*
X0053289Y0059346D02*
X0054642Y0059346D01*
X0054642Y0057748D02*
X0053289Y0057748D01*
X0058548Y0068937D02*
X0094800Y0068937D01*
X0094407Y0070536D02*
X0062061Y0070536D01*
X0063660Y0072134D02*
X0092809Y0072134D01*
X0091210Y0073733D02*
X0065258Y0073733D01*
X0066857Y0075332D02*
X0089612Y0075332D01*
X0088013Y0076930D02*
X0068455Y0076930D01*
X0070054Y0078529D02*
X0086415Y0078529D01*
X0084816Y0080127D02*
X0071653Y0080127D01*
X0073251Y0081726D02*
X0083218Y0081726D01*
X0081619Y0083324D02*
X0074850Y0083324D01*
X0076448Y0084923D02*
X0080021Y0084923D01*
X0078422Y0086521D02*
X0078047Y0086521D01*
X0078800Y0091800D02*
X0059666Y0072666D01*
X0052977Y0072666D01*
X0047941Y0076930D02*
X0046210Y0076930D01*
X0058013Y0076930D02*
X0059405Y0076930D01*
X0061003Y0078529D02*
X0021495Y0078529D01*
X0022764Y0080127D02*
X0062602Y0080127D01*
X0064200Y0081726D02*
X0023786Y0081726D01*
X0024200Y0083324D02*
X0065799Y0083324D01*
X0067397Y0084923D02*
X0024180Y0084923D01*
X0023518Y0086521D02*
X0068996Y0086521D01*
X0070594Y0088120D02*
X0022117Y0088120D01*
X0020451Y0094514D02*
X0005100Y0094514D01*
X0005100Y0096112D02*
X0017851Y0096112D01*
X0016820Y0097711D02*
X0005100Y0097711D01*
X0005100Y0099309D02*
X0016400Y0099309D01*
X0016414Y0100908D02*
X0005100Y0100908D01*
X0005100Y0102506D02*
X0017076Y0102506D01*
X0018468Y0104105D02*
X0005100Y0104105D01*
X0005100Y0105703D02*
X0018260Y0105703D01*
X0016990Y0107302D02*
X0005100Y0107302D01*
X0005100Y0108900D02*
X0016400Y0108900D01*
X0016400Y0110499D02*
X0005100Y0110499D01*
X0005100Y0112097D02*
X0016907Y0112097D01*
X0018059Y0113696D02*
X0005100Y0113696D01*
X0005100Y0115294D02*
X0020134Y0115294D01*
X0017979Y0116893D02*
X0005100Y0116893D01*
X0005100Y0118491D02*
X0017178Y0118491D01*
X0017000Y0120090D02*
X0005100Y0120090D01*
X0005100Y0121688D02*
X0017375Y0121688D01*
X0018499Y0123287D02*
X0005100Y0123287D01*
X0005100Y0124885D02*
X0063600Y0124885D01*
X0063600Y0123287D02*
X0031101Y0123287D01*
X0030927Y0123461D02*
X0030316Y0123905D01*
X0029643Y0124248D01*
X0028924Y0124482D01*
X0028178Y0124600D01*
X0025000Y0124600D01*
X0025000Y0120000D01*
X0032600Y0120000D01*
X0032600Y0120178D01*
X0032482Y0120924D01*
X0032248Y0121643D01*
X0031905Y0122316D01*
X0031461Y0122927D01*
X0030927Y0123461D01*
X0032225Y0121688D02*
X0063600Y0121688D01*
X0063600Y0120090D02*
X0032600Y0120090D01*
X0032422Y0118491D02*
X0063878Y0118491D01*
X0065182Y0116893D02*
X0031621Y0116893D01*
X0029466Y0115294D02*
X0066780Y0115294D01*
X0068379Y0113696D02*
X0031541Y0113696D01*
X0032693Y0112097D02*
X0069977Y0112097D01*
X0071576Y0110499D02*
X0033200Y0110499D01*
X0033200Y0108900D02*
X0073174Y0108900D01*
X0074773Y0107302D02*
X0032610Y0107302D01*
X0031340Y0105703D02*
X0076371Y0105703D01*
X0077970Y0104105D02*
X0031132Y0104105D01*
X0025000Y0120090D02*
X0024600Y0120090D01*
X0024600Y0121688D02*
X0025000Y0121688D01*
X0025000Y0123287D02*
X0024600Y0123287D01*
X0023705Y0127200D02*
X0021900Y0127200D01*
X0021900Y0131700D01*
X0021900Y0131900D01*
X0021700Y0131900D01*
X0021700Y0136400D01*
X0019895Y0136400D01*
X0017200Y0133705D01*
X0017200Y0131900D01*
X0021700Y0131900D01*
X0021700Y0131700D01*
X0017200Y0131700D01*
X0017200Y0129895D01*
X0019895Y0127200D01*
X0021700Y0127200D01*
X0021700Y0131700D01*
X0021900Y0131700D01*
X0026400Y0131700D01*
X0026400Y0129895D01*
X0023705Y0127200D01*
X0024588Y0128082D02*
X0028164Y0128082D01*
X0029646Y0126600D02*
X0026600Y0129646D01*
X0026600Y0133954D01*
X0029446Y0136800D01*
X0026600Y0139646D01*
X0026600Y0143954D01*
X0029446Y0146800D01*
X0026600Y0149646D01*
X0026600Y0153954D01*
X0029446Y0156800D01*
X0026600Y0159646D01*
X0026600Y0163954D01*
X0029646Y0167000D01*
X0029800Y0167000D01*
X0028854Y0167392D01*
X0027392Y0168854D01*
X0026600Y0170766D01*
X0026600Y0172834D01*
X0027392Y0174746D01*
X0028854Y0176208D01*
X0030766Y0177000D01*
X0032834Y0177000D01*
X0034746Y0176208D01*
X0036208Y0174746D01*
X0037000Y0172834D01*
X0037000Y0170766D01*
X0036208Y0168854D01*
X0034746Y0167392D01*
X0033800Y0167000D01*
X0033954Y0167000D01*
X0037000Y0163954D01*
X0037000Y0159646D01*
X0034154Y0156800D01*
X0037000Y0153954D01*
X0037000Y0149646D01*
X0034154Y0146800D01*
X0037000Y0143954D01*
X0037000Y0139646D01*
X0034154Y0136800D01*
X0037000Y0133954D01*
X0037000Y0129646D01*
X0033954Y0126600D01*
X0029646Y0126600D01*
X0026600Y0129681D02*
X0026186Y0129681D01*
X0026400Y0131279D02*
X0026600Y0131279D01*
X0026400Y0131900D02*
X0026400Y0133705D01*
X0023705Y0136400D01*
X0021900Y0136400D01*
X0021900Y0131900D01*
X0026400Y0131900D01*
X0026400Y0132878D02*
X0026600Y0132878D01*
X0027123Y0134476D02*
X0025629Y0134476D01*
X0024030Y0136075D02*
X0028721Y0136075D01*
X0028573Y0137673D02*
X0024179Y0137673D01*
X0023705Y0137200D02*
X0026400Y0139895D01*
X0026400Y0141700D01*
X0021900Y0141700D01*
X0021900Y0141900D01*
X0021700Y0141900D01*
X0021700Y0146400D01*
X0019895Y0146400D01*
X0017200Y0143705D01*
X0017200Y0141900D01*
X0021700Y0141900D01*
X0021700Y0141700D01*
X0017200Y0141700D01*
X0017200Y0139895D01*
X0019895Y0137200D01*
X0021700Y0137200D01*
X0021700Y0141700D01*
X0021900Y0141700D01*
X0021900Y0137200D01*
X0023705Y0137200D01*
X0021900Y0137673D02*
X0021700Y0137673D01*
X0021700Y0136075D02*
X0021900Y0136075D01*
X0021900Y0134476D02*
X0021700Y0134476D01*
X0021700Y0132878D02*
X0021900Y0132878D01*
X0021900Y0131279D02*
X0021700Y0131279D01*
X0021700Y0129681D02*
X0021900Y0129681D01*
X0021900Y0128082D02*
X0021700Y0128082D01*
X0019012Y0128082D02*
X0005100Y0128082D01*
X0005100Y0126484D02*
X0063600Y0126484D01*
X0063600Y0128082D02*
X0035436Y0128082D01*
X0037000Y0129681D02*
X0063600Y0129681D01*
X0063600Y0131279D02*
X0037000Y0131279D01*
X0037000Y0132878D02*
X0063600Y0132878D01*
X0063600Y0134476D02*
X0036477Y0134476D01*
X0034879Y0136075D02*
X0063600Y0136075D01*
X0063600Y0137673D02*
X0035027Y0137673D01*
X0036626Y0139272D02*
X0063600Y0139272D01*
X0063600Y0140870D02*
X0037000Y0140870D01*
X0037000Y0142469D02*
X0063600Y0142469D01*
X0063600Y0144068D02*
X0036886Y0144068D01*
X0035288Y0145666D02*
X0063600Y0145666D01*
X0063600Y0147265D02*
X0034618Y0147265D01*
X0036217Y0148863D02*
X0063600Y0148863D01*
X0063600Y0150462D02*
X0037000Y0150462D01*
X0037000Y0152060D02*
X0063600Y0152060D01*
X0062747Y0153659D02*
X0037000Y0153659D01*
X0035697Y0155257D02*
X0062619Y0155257D01*
X0063126Y0156856D02*
X0034209Y0156856D01*
X0035808Y0158454D02*
X0064696Y0158454D01*
X0037000Y0160053D02*
X0256374Y0160053D01*
X0256374Y0161651D02*
X0037000Y0161651D01*
X0037000Y0163250D02*
X0256374Y0163250D01*
X0256374Y0164848D02*
X0036106Y0164848D01*
X0034507Y0166447D02*
X0256374Y0166447D01*
X0256374Y0168045D02*
X0035399Y0168045D01*
X0036535Y0169644D02*
X0256374Y0169644D01*
X0256374Y0171242D02*
X0037000Y0171242D01*
X0036997Y0172841D02*
X0256374Y0172841D01*
X0256374Y0174439D02*
X0036335Y0174439D01*
X0034916Y0176038D02*
X0256374Y0176038D01*
X0256374Y0177636D02*
X0005100Y0177636D01*
X0005100Y0176038D02*
X0019532Y0176038D01*
X0019895Y0176400D02*
X0017200Y0173705D01*
X0017200Y0171900D01*
X0021700Y0171900D01*
X0021700Y0176400D01*
X0019895Y0176400D01*
X0021700Y0176038D02*
X0021900Y0176038D01*
X0021900Y0176400D02*
X0021900Y0171900D01*
X0021700Y0171900D01*
X0021700Y0171700D01*
X0017200Y0171700D01*
X0017200Y0169895D01*
X0019895Y0167200D01*
X0021700Y0167200D01*
X0021700Y0171700D01*
X0021900Y0171700D01*
X0021900Y0171900D01*
X0026400Y0171900D01*
X0026400Y0173705D01*
X0023705Y0176400D01*
X0021900Y0176400D01*
X0021900Y0174439D02*
X0021700Y0174439D01*
X0021700Y0172841D02*
X0021900Y0172841D01*
X0021900Y0171700D02*
X0026400Y0171700D01*
X0026400Y0169895D01*
X0023705Y0167200D01*
X0021900Y0167200D01*
X0021900Y0171700D01*
X0021900Y0171242D02*
X0021700Y0171242D01*
X0021700Y0169644D02*
X0021900Y0169644D01*
X0021900Y0168045D02*
X0021700Y0168045D01*
X0021700Y0166400D02*
X0019895Y0166400D01*
X0017200Y0163705D01*
X0017200Y0161900D01*
X0021700Y0161900D01*
X0021700Y0166400D01*
X0021900Y0166400D02*
X0021900Y0161900D01*
X0021700Y0161900D01*
X0021700Y0161700D01*
X0017200Y0161700D01*
X0017200Y0159895D01*
X0019895Y0157200D01*
X0021700Y0157200D01*
X0021700Y0161700D01*
X0021900Y0161700D01*
X0021900Y0161900D01*
X0026400Y0161900D01*
X0026400Y0163705D01*
X0023705Y0166400D01*
X0021900Y0166400D01*
X0021900Y0164848D02*
X0021700Y0164848D01*
X0021700Y0163250D02*
X0021900Y0163250D01*
X0021900Y0161700D02*
X0026400Y0161700D01*
X0026400Y0159895D01*
X0023705Y0157200D01*
X0021900Y0157200D01*
X0021900Y0161700D01*
X0021900Y0161651D02*
X0021700Y0161651D01*
X0021700Y0160053D02*
X0021900Y0160053D01*
X0021900Y0158454D02*
X0021700Y0158454D01*
X0021700Y0156400D02*
X0019895Y0156400D01*
X0017200Y0153705D01*
X0017200Y0151900D01*
X0021700Y0151900D01*
X0021700Y0156400D01*
X0021900Y0156400D02*
X0021900Y0151900D01*
X0021700Y0151900D01*
X0021700Y0151700D01*
X0017200Y0151700D01*
X0017200Y0149895D01*
X0019895Y0147200D01*
X0021700Y0147200D01*
X0021700Y0151700D01*
X0021900Y0151700D01*
X0021900Y0151900D01*
X0026400Y0151900D01*
X0026400Y0153705D01*
X0023705Y0156400D01*
X0021900Y0156400D01*
X0021900Y0155257D02*
X0021700Y0155257D01*
X0021700Y0153659D02*
X0021900Y0153659D01*
X0021900Y0152060D02*
X0021700Y0152060D01*
X0021900Y0151700D02*
X0026400Y0151700D01*
X0026400Y0149895D01*
X0023705Y0147200D01*
X0021900Y0147200D01*
X0021900Y0151700D01*
X0021900Y0150462D02*
X0021700Y0150462D01*
X0021700Y0148863D02*
X0021900Y0148863D01*
X0021900Y0147265D02*
X0021700Y0147265D01*
X0021900Y0146400D02*
X0021900Y0141900D01*
X0026400Y0141900D01*
X0026400Y0143705D01*
X0023705Y0146400D01*
X0021900Y0146400D01*
X0021900Y0145666D02*
X0021700Y0145666D01*
X0021700Y0144068D02*
X0021900Y0144068D01*
X0021900Y0142469D02*
X0021700Y0142469D01*
X0021700Y0140870D02*
X0021900Y0140870D01*
X0021900Y0139272D02*
X0021700Y0139272D01*
X0019421Y0137673D02*
X0005100Y0137673D01*
X0005100Y0136075D02*
X0019570Y0136075D01*
X0017971Y0134476D02*
X0005100Y0134476D01*
X0005100Y0132878D02*
X0017200Y0132878D01*
X0017200Y0131279D02*
X0005100Y0131279D01*
X0005100Y0129681D02*
X0017414Y0129681D01*
X0017823Y0139272D02*
X0005100Y0139272D01*
X0005100Y0140870D02*
X0017200Y0140870D01*
X0017200Y0142469D02*
X0005100Y0142469D01*
X0005100Y0144068D02*
X0017562Y0144068D01*
X0019161Y0145666D02*
X0005100Y0145666D01*
X0005100Y0147265D02*
X0019830Y0147265D01*
X0018232Y0148863D02*
X0005100Y0148863D01*
X0005100Y0150462D02*
X0017200Y0150462D01*
X0017200Y0152060D02*
X0005100Y0152060D01*
X0005100Y0153659D02*
X0017200Y0153659D01*
X0018752Y0155257D02*
X0005100Y0155257D01*
X0005100Y0156856D02*
X0029390Y0156856D01*
X0027903Y0155257D02*
X0024848Y0155257D01*
X0026400Y0153659D02*
X0026600Y0153659D01*
X0026600Y0152060D02*
X0026400Y0152060D01*
X0026400Y0150462D02*
X0026600Y0150462D01*
X0027383Y0148863D02*
X0025368Y0148863D01*
X0023770Y0147265D02*
X0028982Y0147265D01*
X0028312Y0145666D02*
X0024439Y0145666D01*
X0026038Y0144068D02*
X0026714Y0144068D01*
X0026600Y0142469D02*
X0026400Y0142469D01*
X0026400Y0140870D02*
X0026600Y0140870D01*
X0026974Y0139272D02*
X0025777Y0139272D01*
X0024959Y0158454D02*
X0027792Y0158454D01*
X0026600Y0160053D02*
X0026400Y0160053D01*
X0026400Y0161651D02*
X0026600Y0161651D01*
X0026600Y0163250D02*
X0026400Y0163250D01*
X0027494Y0164848D02*
X0025257Y0164848D01*
X0024551Y0168045D02*
X0028201Y0168045D01*
X0029093Y0166447D02*
X0005100Y0166447D01*
X0005100Y0168045D02*
X0019049Y0168045D01*
X0017451Y0169644D02*
X0005100Y0169644D01*
X0005100Y0171242D02*
X0017200Y0171242D01*
X0017200Y0172841D02*
X0005100Y0172841D01*
X0005100Y0174439D02*
X0017934Y0174439D01*
X0024068Y0176038D02*
X0028684Y0176038D01*
X0027265Y0174439D02*
X0025666Y0174439D01*
X0026400Y0172841D02*
X0026603Y0172841D01*
X0026600Y0171242D02*
X0026400Y0171242D01*
X0026149Y0169644D02*
X0027065Y0169644D01*
X0018343Y0164848D02*
X0005100Y0164848D01*
X0005100Y0163250D02*
X0017200Y0163250D01*
X0017200Y0161651D02*
X0005100Y0161651D01*
X0005100Y0160053D02*
X0017200Y0160053D01*
X0018641Y0158454D02*
X0005100Y0158454D01*
X0005100Y0179235D02*
X0256374Y0179235D01*
X0256374Y0180833D02*
X0005100Y0180833D01*
X0005100Y0182432D02*
X0256374Y0182432D01*
X0256374Y0184030D02*
X0005100Y0184030D01*
X0005100Y0185629D02*
X0256374Y0185629D01*
X0256374Y0187227D02*
X0005100Y0187227D01*
X0005100Y0188826D02*
X0256374Y0188826D01*
X0256374Y0190424D02*
X0005100Y0190424D01*
X0005100Y0192023D02*
X0256374Y0192023D01*
X0256374Y0193621D02*
X0005100Y0193621D01*
X0005100Y0195220D02*
X0256374Y0195220D01*
X0256374Y0196818D02*
X0034172Y0196818D01*
X0033954Y0196600D02*
X0037000Y0199646D01*
X0037000Y0203954D01*
X0034154Y0206800D01*
X0037000Y0209646D01*
X0037000Y0213954D01*
X0034154Y0216800D01*
X0037000Y0219646D01*
X0037000Y0223954D01*
X0034154Y0226800D01*
X0035954Y0228600D01*
X0064087Y0228600D01*
X0064432Y0228255D01*
X0065968Y0227619D01*
X0067632Y0227619D01*
X0069168Y0228255D01*
X0070345Y0229432D01*
X0070981Y0230968D01*
X0070981Y0232632D01*
X0070345Y0234168D01*
X0069168Y0235345D01*
X0067632Y0235981D01*
X0065968Y0235981D01*
X0064432Y0235345D01*
X0064087Y0235000D01*
X0035954Y0235000D01*
X0034154Y0236800D01*
X0037000Y0239646D01*
X0037000Y0243954D01*
X0033954Y0247000D01*
X0029646Y0247000D01*
X0026600Y0243954D01*
X0026600Y0239646D01*
X0029446Y0236800D01*
X0026600Y0233954D01*
X0026600Y0229646D01*
X0029446Y0226800D01*
X0026800Y0224154D01*
X0023954Y0227000D01*
X0019646Y0227000D01*
X0016600Y0223954D01*
X0016600Y0219646D01*
X0019446Y0216800D01*
X0016600Y0213954D01*
X0016600Y0209646D01*
X0019446Y0206800D01*
X0016600Y0203954D01*
X0016600Y0199646D01*
X0019646Y0196600D01*
X0023954Y0196600D01*
X0026800Y0199446D01*
X0029646Y0196600D01*
X0033954Y0196600D01*
X0035771Y0198417D02*
X0256374Y0198417D01*
X0256374Y0200015D02*
X0037000Y0200015D01*
X0037000Y0201614D02*
X0256374Y0201614D01*
X0256374Y0203212D02*
X0037000Y0203212D01*
X0036143Y0204811D02*
X0256374Y0204811D01*
X0256374Y0206409D02*
X0034544Y0206409D01*
X0035362Y0208008D02*
X0256374Y0208008D01*
X0256374Y0209606D02*
X0036960Y0209606D01*
X0037000Y0211205D02*
X0256374Y0211205D01*
X0256374Y0212803D02*
X0037000Y0212803D01*
X0036552Y0214402D02*
X0088561Y0214402D01*
X0088741Y0214222D02*
X0090726Y0213400D01*
X0092874Y0213400D01*
X0094859Y0214222D01*
X0096378Y0215741D01*
X0097200Y0217726D01*
X0097200Y0225874D01*
X0096378Y0227859D01*
X0094859Y0229378D01*
X0092874Y0230200D01*
X0090726Y0230200D01*
X0088741Y0229378D01*
X0087222Y0227859D01*
X0086400Y0225874D01*
X0086400Y0217726D01*
X0087222Y0215741D01*
X0088741Y0214222D01*
X0087115Y0216001D02*
X0034953Y0216001D01*
X0034953Y0217599D02*
X0086453Y0217599D01*
X0086400Y0219198D02*
X0078723Y0219198D01*
X0078613Y0219087D02*
X0081144Y0221619D01*
X0081632Y0221619D01*
X0083168Y0222255D01*
X0084345Y0223432D01*
X0084981Y0224968D01*
X0084981Y0226632D01*
X0084345Y0228168D01*
X0083168Y0229345D01*
X0081632Y0229981D01*
X0079968Y0229981D01*
X0078432Y0229345D01*
X0077255Y0228168D01*
X0076619Y0226632D01*
X0076619Y0226144D01*
X0075475Y0225000D01*
X0061513Y0225000D01*
X0061168Y0225345D01*
X0059632Y0225981D01*
X0057968Y0225981D01*
X0056432Y0225345D01*
X0055255Y0224168D01*
X0054619Y0222632D01*
X0054619Y0220968D01*
X0055255Y0219432D01*
X0056432Y0218255D01*
X0057968Y0217619D01*
X0059632Y0217619D01*
X0061168Y0218255D01*
X0061513Y0218600D01*
X0077437Y0218600D01*
X0078613Y0219087D01*
X0080322Y0220796D02*
X0086400Y0220796D01*
X0086400Y0222395D02*
X0083308Y0222395D01*
X0084577Y0223993D02*
X0086400Y0223993D01*
X0086400Y0225592D02*
X0084981Y0225592D01*
X0084750Y0227190D02*
X0086945Y0227190D01*
X0088152Y0228789D02*
X0083724Y0228789D01*
X0080800Y0225800D02*
X0076800Y0221800D01*
X0058800Y0221800D01*
X0055489Y0219198D02*
X0036551Y0219198D01*
X0037000Y0220796D02*
X0054690Y0220796D01*
X0054619Y0222395D02*
X0037000Y0222395D01*
X0036961Y0223993D02*
X0055183Y0223993D01*
X0057028Y0225592D02*
X0035362Y0225592D01*
X0034544Y0227190D02*
X0076850Y0227190D01*
X0076066Y0225592D02*
X0060572Y0225592D01*
X0066800Y0231800D02*
X0031800Y0231800D01*
X0035771Y0235183D02*
X0064270Y0235183D01*
X0069330Y0235183D02*
X0256374Y0235183D01*
X0256374Y0236781D02*
X0034173Y0236781D01*
X0035734Y0238380D02*
X0256374Y0238380D01*
X0256374Y0239978D02*
X0037000Y0239978D01*
X0037000Y0241577D02*
X0256374Y0241577D01*
X0256374Y0243175D02*
X0037000Y0243175D01*
X0036180Y0244774D02*
X0184420Y0244774D01*
X0183968Y0244961D02*
X0185805Y0244200D01*
X0187795Y0244200D01*
X0189632Y0244961D01*
X0191039Y0246368D01*
X0191800Y0248205D01*
X0192561Y0246368D01*
X0193968Y0244961D01*
X0195805Y0244200D01*
X0197795Y0244200D01*
X0199632Y0244961D01*
X0201039Y0246368D01*
X0201800Y0248205D01*
X0202561Y0246368D01*
X0203968Y0244961D01*
X0205805Y0244200D01*
X0207795Y0244200D01*
X0209632Y0244961D01*
X0211039Y0246368D01*
X0211800Y0248205D01*
X0212561Y0246368D01*
X0213968Y0244961D01*
X0215805Y0244200D01*
X0217795Y0244200D01*
X0219632Y0244961D01*
X0221039Y0246368D01*
X0221800Y0248205D01*
X0222561Y0246368D01*
X0223968Y0244961D01*
X0225805Y0244200D01*
X0227795Y0244200D01*
X0229632Y0244961D01*
X0231039Y0246368D01*
X0231800Y0248205D01*
X0231800Y0255395D01*
X0231039Y0257232D01*
X0229632Y0258639D01*
X0227795Y0259400D01*
X0225805Y0259400D01*
X0223968Y0258639D01*
X0222561Y0257232D01*
X0221800Y0255395D01*
X0221800Y0248205D01*
X0221800Y0255395D01*
X0221039Y0257232D01*
X0219632Y0258639D01*
X0217795Y0259400D01*
X0215805Y0259400D01*
X0213968Y0258639D01*
X0212561Y0257232D01*
X0211800Y0255395D01*
X0211800Y0248205D01*
X0211800Y0255395D01*
X0211039Y0257232D01*
X0209632Y0258639D01*
X0207795Y0259400D01*
X0205805Y0259400D01*
X0203968Y0258639D01*
X0202561Y0257232D01*
X0201800Y0255395D01*
X0201800Y0248205D01*
X0201800Y0255395D01*
X0201039Y0257232D01*
X0199632Y0258639D01*
X0197795Y0259400D01*
X0195805Y0259400D01*
X0193968Y0258639D01*
X0192561Y0257232D01*
X0191800Y0255395D01*
X0191800Y0248205D01*
X0191800Y0255395D01*
X0191039Y0257232D01*
X0189632Y0258639D01*
X0187795Y0259400D01*
X0185805Y0259400D01*
X0183968Y0258639D01*
X0182561Y0257232D01*
X0181800Y0255395D01*
X0181800Y0248205D01*
X0182561Y0246368D01*
X0183968Y0244961D01*
X0182559Y0246372D02*
X0034582Y0246372D01*
X0029018Y0246372D02*
X0023733Y0246372D01*
X0023705Y0246400D02*
X0021900Y0246400D01*
X0021900Y0241900D01*
X0021700Y0241900D01*
X0021700Y0246400D01*
X0019895Y0246400D01*
X0017200Y0243705D01*
X0017200Y0241900D01*
X0021700Y0241900D01*
X0021700Y0241700D01*
X0017200Y0241700D01*
X0017200Y0239895D01*
X0019895Y0237200D01*
X0021700Y0237200D01*
X0021700Y0241700D01*
X0021900Y0241700D01*
X0021900Y0241900D01*
X0026400Y0241900D01*
X0026400Y0243705D01*
X0023705Y0246400D01*
X0021900Y0246372D02*
X0021700Y0246372D01*
X0021700Y0244774D02*
X0021900Y0244774D01*
X0021900Y0243175D02*
X0021700Y0243175D01*
X0021900Y0241700D02*
X0026400Y0241700D01*
X0026400Y0239895D01*
X0023705Y0237200D01*
X0021900Y0237200D01*
X0021900Y0241700D01*
X0021900Y0241577D02*
X0021700Y0241577D01*
X0021700Y0239978D02*
X0021900Y0239978D01*
X0021900Y0238380D02*
X0021700Y0238380D01*
X0021700Y0236400D02*
X0019895Y0236400D01*
X0017200Y0233705D01*
X0017200Y0231900D01*
X0021700Y0231900D01*
X0021700Y0236400D01*
X0021900Y0236400D02*
X0021900Y0231900D01*
X0021700Y0231900D01*
X0021700Y0231700D01*
X0017200Y0231700D01*
X0017200Y0229895D01*
X0019895Y0227200D01*
X0021700Y0227200D01*
X0021700Y0231700D01*
X0021900Y0231700D01*
X0021900Y0231900D01*
X0026400Y0231900D01*
X0026400Y0233705D01*
X0023705Y0236400D01*
X0021900Y0236400D01*
X0021900Y0235183D02*
X0021700Y0235183D01*
X0021700Y0233584D02*
X0021900Y0233584D01*
X0021900Y0231986D02*
X0021700Y0231986D01*
X0021900Y0231700D02*
X0026400Y0231700D01*
X0026400Y0229895D01*
X0023705Y0227200D01*
X0021900Y0227200D01*
X0021900Y0231700D01*
X0021900Y0230387D02*
X0021700Y0230387D01*
X0021700Y0228789D02*
X0021900Y0228789D01*
X0025294Y0228789D02*
X0027457Y0228789D01*
X0026600Y0230387D02*
X0026400Y0230387D01*
X0026400Y0231986D02*
X0026600Y0231986D01*
X0026600Y0233584D02*
X0026400Y0233584D01*
X0027829Y0235183D02*
X0024923Y0235183D01*
X0024885Y0238380D02*
X0027866Y0238380D01*
X0026600Y0239978D02*
X0026400Y0239978D01*
X0026400Y0241577D02*
X0026600Y0241577D01*
X0026600Y0243175D02*
X0026400Y0243175D01*
X0027420Y0244774D02*
X0025332Y0244774D01*
X0019867Y0246372D02*
X0005100Y0246372D01*
X0005100Y0244774D02*
X0018268Y0244774D01*
X0017200Y0243175D02*
X0005100Y0243175D01*
X0005100Y0241577D02*
X0017200Y0241577D01*
X0017200Y0239978D02*
X0005100Y0239978D01*
X0005100Y0238380D02*
X0018715Y0238380D01*
X0018677Y0235183D02*
X0005100Y0235183D01*
X0005100Y0236781D02*
X0029427Y0236781D01*
X0029056Y0227190D02*
X0005100Y0227190D01*
X0005100Y0225592D02*
X0018238Y0225592D01*
X0016639Y0223993D02*
X0005100Y0223993D01*
X0005100Y0222395D02*
X0016600Y0222395D01*
X0016600Y0220796D02*
X0005100Y0220796D01*
X0005100Y0219198D02*
X0017049Y0219198D01*
X0018647Y0217599D02*
X0005100Y0217599D01*
X0005100Y0216001D02*
X0018647Y0216001D01*
X0017048Y0214402D02*
X0005100Y0214402D01*
X0005100Y0212803D02*
X0016600Y0212803D01*
X0016600Y0211205D02*
X0005100Y0211205D01*
X0005100Y0209606D02*
X0016640Y0209606D01*
X0018238Y0208008D02*
X0005100Y0208008D01*
X0005100Y0206409D02*
X0019056Y0206409D01*
X0017457Y0204811D02*
X0005100Y0204811D01*
X0005100Y0203212D02*
X0016600Y0203212D01*
X0016600Y0201614D02*
X0005100Y0201614D01*
X0005100Y0200015D02*
X0016600Y0200015D01*
X0017829Y0198417D02*
X0005100Y0198417D01*
X0005100Y0196818D02*
X0019428Y0196818D01*
X0024172Y0196818D02*
X0029428Y0196818D01*
X0027829Y0198417D02*
X0025771Y0198417D01*
X0025362Y0225592D02*
X0028238Y0225592D01*
X0018306Y0228789D02*
X0005100Y0228789D01*
X0005100Y0230387D02*
X0017200Y0230387D01*
X0017200Y0231986D02*
X0005100Y0231986D01*
X0005100Y0233584D02*
X0017200Y0233584D01*
X0005100Y0247971D02*
X0181897Y0247971D01*
X0181800Y0249569D02*
X0005100Y0249569D01*
X0005100Y0251168D02*
X0090155Y0251168D01*
X0090426Y0250897D02*
X0092595Y0249998D01*
X0094942Y0249998D01*
X0097111Y0250897D01*
X0098770Y0252556D01*
X0099668Y0254725D01*
X0099668Y0264072D01*
X0098770Y0266241D01*
X0097111Y0267900D01*
X0094942Y0268798D01*
X0092595Y0268798D01*
X0090426Y0267900D01*
X0088767Y0266241D01*
X0087869Y0264072D01*
X0087869Y0254725D01*
X0088767Y0252556D01*
X0090426Y0250897D01*
X0088680Y0252766D02*
X0005100Y0252766D01*
X0005100Y0254365D02*
X0088018Y0254365D01*
X0087869Y0255963D02*
X0005100Y0255963D01*
X0005100Y0257562D02*
X0087869Y0257562D01*
X0087869Y0259160D02*
X0005100Y0259160D01*
X0005100Y0260759D02*
X0087869Y0260759D01*
X0087869Y0262357D02*
X0005100Y0262357D01*
X0005100Y0263956D02*
X0087869Y0263956D01*
X0088483Y0265554D02*
X0005100Y0265554D01*
X0005100Y0267153D02*
X0089679Y0267153D01*
X0092481Y0268751D02*
X0005100Y0268751D01*
X0005100Y0270350D02*
X0256374Y0270350D01*
X0256374Y0271948D02*
X0005100Y0271948D01*
X0005100Y0273547D02*
X0256374Y0273547D01*
X0256374Y0275145D02*
X0005100Y0275145D01*
X0005100Y0276744D02*
X0256374Y0276744D01*
X0256374Y0278342D02*
X0005100Y0278342D01*
X0005100Y0279941D02*
X0256374Y0279941D01*
X0256374Y0281539D02*
X0005100Y0281539D01*
X0005100Y0283138D02*
X0256374Y0283138D01*
X0256374Y0283933D02*
X0256374Y0005100D01*
X0005100Y0005100D01*
X0005100Y0283933D01*
X0256374Y0283933D01*
X0256374Y0268751D02*
X0135056Y0268751D01*
X0134942Y0268798D02*
X0132595Y0268798D01*
X0130426Y0267900D01*
X0128768Y0266242D01*
X0127111Y0267900D01*
X0124942Y0268798D01*
X0122595Y0268798D01*
X0120426Y0267900D01*
X0118767Y0266241D01*
X0118429Y0265426D01*
X0118301Y0265676D01*
X0117811Y0266351D01*
X0117221Y0266941D01*
X0116546Y0267431D01*
X0115803Y0267810D01*
X0115010Y0268068D01*
X0114186Y0268198D01*
X0113769Y0268198D01*
X0113769Y0259399D01*
X0113768Y0259399D01*
X0113768Y0268198D01*
X0113351Y0268198D01*
X0112527Y0268068D01*
X0111734Y0267810D01*
X0110991Y0267431D01*
X0110316Y0266941D01*
X0109726Y0266351D01*
X0109236Y0265676D01*
X0108857Y0264933D01*
X0108599Y0264140D01*
X0108469Y0263316D01*
X0108469Y0259398D01*
X0108469Y0255481D01*
X0108599Y0254657D01*
X0108857Y0253864D01*
X0109236Y0253121D01*
X0109726Y0252446D01*
X0110316Y0251856D01*
X0110991Y0251365D01*
X0111734Y0250987D01*
X0112527Y0250729D01*
X0113351Y0250598D01*
X0113768Y0250598D01*
X0113768Y0259398D01*
X0108469Y0259398D01*
X0113768Y0259398D01*
X0113768Y0259398D01*
X0113769Y0259398D01*
X0113769Y0250598D01*
X0114186Y0250598D01*
X0115010Y0250729D01*
X0115803Y0250987D01*
X0116546Y0251365D01*
X0117221Y0251856D01*
X0117811Y0252446D01*
X0118301Y0253121D01*
X0118429Y0253371D01*
X0118767Y0252556D01*
X0120426Y0250897D01*
X0122595Y0249998D01*
X0124942Y0249998D01*
X0127111Y0250897D01*
X0128768Y0252555D01*
X0130426Y0250897D01*
X0132595Y0249998D01*
X0134942Y0249998D01*
X0137111Y0250897D01*
X0138770Y0252556D01*
X0139668Y0254725D01*
X0139668Y0264072D01*
X0138770Y0266241D01*
X0137111Y0267900D01*
X0134942Y0268798D01*
X0132481Y0268751D02*
X0125056Y0268751D01*
X0122481Y0268751D02*
X0095056Y0268751D01*
X0097858Y0267153D02*
X0110607Y0267153D01*
X0109173Y0265554D02*
X0099054Y0265554D01*
X0099668Y0263956D02*
X0108570Y0263956D01*
X0108469Y0262357D02*
X0099668Y0262357D01*
X0099668Y0260759D02*
X0108469Y0260759D01*
X0108469Y0259160D02*
X0099668Y0259160D01*
X0099668Y0257562D02*
X0108469Y0257562D01*
X0108469Y0255963D02*
X0099668Y0255963D01*
X0099519Y0254365D02*
X0108694Y0254365D01*
X0109493Y0252766D02*
X0098857Y0252766D01*
X0097382Y0251168D02*
X0111379Y0251168D01*
X0113768Y0251168D02*
X0113769Y0251168D01*
X0113768Y0252766D02*
X0113769Y0252766D01*
X0113768Y0254365D02*
X0113769Y0254365D01*
X0113768Y0255963D02*
X0113769Y0255963D01*
X0113768Y0257562D02*
X0113769Y0257562D01*
X0113768Y0259160D02*
X0113769Y0259160D01*
X0113768Y0260759D02*
X0113769Y0260759D01*
X0113768Y0262357D02*
X0113769Y0262357D01*
X0113768Y0263956D02*
X0113769Y0263956D01*
X0113768Y0265554D02*
X0113769Y0265554D01*
X0113768Y0267153D02*
X0113769Y0267153D01*
X0116930Y0267153D02*
X0119679Y0267153D01*
X0118483Y0265554D02*
X0118364Y0265554D01*
X0127858Y0267153D02*
X0129679Y0267153D01*
X0137858Y0267153D02*
X0256374Y0267153D01*
X0256374Y0265554D02*
X0139054Y0265554D01*
X0139668Y0263956D02*
X0256374Y0263956D01*
X0256374Y0262357D02*
X0139668Y0262357D01*
X0139668Y0260759D02*
X0256374Y0260759D01*
X0256374Y0259160D02*
X0228373Y0259160D01*
X0230709Y0257562D02*
X0233739Y0257562D01*
X0233934Y0257756D02*
X0233444Y0257266D01*
X0233037Y0256706D01*
X0232722Y0256089D01*
X0232508Y0255430D01*
X0232400Y0254746D01*
X0232400Y0251800D01*
X0236800Y0251800D01*
X0241200Y0251800D01*
X0241200Y0254746D01*
X0241092Y0255430D01*
X0240878Y0256089D01*
X0240563Y0256706D01*
X0240156Y0257266D01*
X0239666Y0257756D01*
X0239106Y0258163D01*
X0238489Y0258478D01*
X0237830Y0258692D01*
X0237146Y0258800D01*
X0236800Y0258800D01*
X0236800Y0251800D01*
X0236800Y0251800D01*
X0236800Y0251800D01*
X0241200Y0251800D01*
X0241200Y0248854D01*
X0241092Y0248170D01*
X0240878Y0247511D01*
X0240563Y0246894D01*
X0240156Y0246334D01*
X0239666Y0245844D01*
X0239106Y0245437D01*
X0238489Y0245122D01*
X0237830Y0244908D01*
X0237146Y0244800D01*
X0236800Y0244800D01*
X0236800Y0251800D01*
X0236800Y0251800D01*
X0236800Y0251800D01*
X0236800Y0258800D01*
X0236454Y0258800D01*
X0235770Y0258692D01*
X0235111Y0258478D01*
X0234494Y0258163D01*
X0233934Y0257756D01*
X0232682Y0255963D02*
X0231564Y0255963D01*
X0231800Y0254365D02*
X0232400Y0254365D01*
X0232400Y0252766D02*
X0231800Y0252766D01*
X0232400Y0251800D02*
X0232400Y0248854D01*
X0232508Y0248170D01*
X0232722Y0247511D01*
X0233037Y0246894D01*
X0233444Y0246334D01*
X0233934Y0245844D01*
X0234494Y0245437D01*
X0235111Y0245122D01*
X0235770Y0244908D01*
X0236454Y0244800D01*
X0236800Y0244800D01*
X0236800Y0251800D01*
X0232400Y0251800D01*
X0232400Y0251168D02*
X0231800Y0251168D01*
X0231800Y0249569D02*
X0232400Y0249569D01*
X0232573Y0247971D02*
X0231703Y0247971D01*
X0231041Y0246372D02*
X0233416Y0246372D01*
X0236800Y0246372D02*
X0236800Y0246372D01*
X0236800Y0247971D02*
X0236800Y0247971D01*
X0236800Y0249569D02*
X0236800Y0249569D01*
X0236800Y0251168D02*
X0236800Y0251168D01*
X0236800Y0252766D02*
X0236800Y0252766D01*
X0236800Y0254365D02*
X0236800Y0254365D01*
X0236800Y0255963D02*
X0236800Y0255963D01*
X0236800Y0257562D02*
X0236800Y0257562D01*
X0239861Y0257562D02*
X0256374Y0257562D01*
X0256374Y0255963D02*
X0240918Y0255963D01*
X0241200Y0254365D02*
X0256374Y0254365D01*
X0256374Y0252766D02*
X0241200Y0252766D01*
X0241200Y0251168D02*
X0256374Y0251168D01*
X0256374Y0249569D02*
X0241200Y0249569D01*
X0241027Y0247971D02*
X0256374Y0247971D01*
X0256374Y0246372D02*
X0240184Y0246372D01*
X0229180Y0244774D02*
X0256374Y0244774D01*
X0256374Y0233584D02*
X0070587Y0233584D01*
X0070981Y0231986D02*
X0256374Y0231986D01*
X0256374Y0230387D02*
X0070740Y0230387D01*
X0069702Y0228789D02*
X0077876Y0228789D01*
X0095448Y0228789D02*
X0108152Y0228789D01*
X0108741Y0229378D02*
X0107222Y0227859D01*
X0106400Y0225874D01*
X0106400Y0217726D01*
X0107222Y0215741D01*
X0108741Y0214222D01*
X0110726Y0213400D01*
X0112874Y0213400D01*
X0114859Y0214222D01*
X0116378Y0215741D01*
X0117200Y0217726D01*
X0117200Y0225874D01*
X0116378Y0227859D01*
X0114859Y0229378D01*
X0112874Y0230200D01*
X0110726Y0230200D01*
X0108741Y0229378D01*
X0106945Y0227190D02*
X0096655Y0227190D01*
X0097200Y0225592D02*
X0106400Y0225592D01*
X0106400Y0223993D02*
X0097200Y0223993D01*
X0097200Y0222395D02*
X0106400Y0222395D01*
X0106400Y0220796D02*
X0097200Y0220796D01*
X0097200Y0219198D02*
X0106400Y0219198D01*
X0106453Y0217599D02*
X0097147Y0217599D01*
X0096485Y0216001D02*
X0107115Y0216001D01*
X0108561Y0214402D02*
X0095039Y0214402D01*
X0115039Y0214402D02*
X0256374Y0214402D01*
X0256374Y0216001D02*
X0116485Y0216001D01*
X0117147Y0217599D02*
X0256374Y0217599D01*
X0256374Y0219198D02*
X0117200Y0219198D01*
X0117200Y0220796D02*
X0256374Y0220796D01*
X0256374Y0222395D02*
X0117200Y0222395D01*
X0117200Y0223993D02*
X0256374Y0223993D01*
X0256374Y0225592D02*
X0117200Y0225592D01*
X0116655Y0227190D02*
X0256374Y0227190D01*
X0256374Y0228789D02*
X0115448Y0228789D01*
X0116158Y0251168D02*
X0120155Y0251168D01*
X0118680Y0252766D02*
X0118044Y0252766D01*
X0127382Y0251168D02*
X0130155Y0251168D01*
X0137382Y0251168D02*
X0181800Y0251168D01*
X0181800Y0252766D02*
X0138857Y0252766D01*
X0139519Y0254365D02*
X0181800Y0254365D01*
X0182036Y0255963D02*
X0139668Y0255963D01*
X0139668Y0257562D02*
X0182891Y0257562D01*
X0185227Y0259160D02*
X0139668Y0259160D01*
X0188373Y0259160D02*
X0195227Y0259160D01*
X0192891Y0257562D02*
X0190709Y0257562D01*
X0191564Y0255963D02*
X0192036Y0255963D01*
X0191800Y0254365D02*
X0191800Y0254365D01*
X0191800Y0252766D02*
X0191800Y0252766D01*
X0191800Y0251168D02*
X0191800Y0251168D01*
X0191800Y0249569D02*
X0191800Y0249569D01*
X0191703Y0247971D02*
X0191897Y0247971D01*
X0192559Y0246372D02*
X0191041Y0246372D01*
X0189180Y0244774D02*
X0194420Y0244774D01*
X0199180Y0244774D02*
X0204420Y0244774D01*
X0202559Y0246372D02*
X0201041Y0246372D01*
X0201703Y0247971D02*
X0201897Y0247971D01*
X0201800Y0249569D02*
X0201800Y0249569D01*
X0201800Y0251168D02*
X0201800Y0251168D01*
X0201800Y0252766D02*
X0201800Y0252766D01*
X0201800Y0254365D02*
X0201800Y0254365D01*
X0201564Y0255963D02*
X0202036Y0255963D01*
X0202891Y0257562D02*
X0200709Y0257562D01*
X0198373Y0259160D02*
X0205227Y0259160D01*
X0208373Y0259160D02*
X0215227Y0259160D01*
X0212891Y0257562D02*
X0210709Y0257562D01*
X0211564Y0255963D02*
X0212036Y0255963D01*
X0211800Y0254365D02*
X0211800Y0254365D01*
X0211800Y0252766D02*
X0211800Y0252766D01*
X0211800Y0251168D02*
X0211800Y0251168D01*
X0211800Y0249569D02*
X0211800Y0249569D01*
X0211703Y0247971D02*
X0211897Y0247971D01*
X0212559Y0246372D02*
X0211041Y0246372D01*
X0209180Y0244774D02*
X0214420Y0244774D01*
X0219180Y0244774D02*
X0224420Y0244774D01*
X0222559Y0246372D02*
X0221041Y0246372D01*
X0221703Y0247971D02*
X0221897Y0247971D01*
X0221800Y0249569D02*
X0221800Y0249569D01*
X0221800Y0251168D02*
X0221800Y0251168D01*
X0221800Y0252766D02*
X0221800Y0252766D01*
X0221800Y0254365D02*
X0221800Y0254365D01*
X0221564Y0255963D02*
X0222036Y0255963D01*
X0222891Y0257562D02*
X0220709Y0257562D01*
X0218373Y0259160D02*
X0225227Y0259160D01*
X0242000Y0047600D02*
X0242000Y0043000D01*
X0249600Y0043000D01*
X0249600Y0043178D01*
X0249482Y0043924D01*
X0249248Y0044643D01*
X0248905Y0045316D01*
X0248461Y0045927D01*
X0247927Y0046461D01*
X0247316Y0046905D01*
X0246643Y0047248D01*
X0245924Y0047482D01*
X0245178Y0047600D01*
X0242000Y0047600D01*
X0242000Y0046558D02*
X0241600Y0046558D01*
X0241600Y0044960D02*
X0242000Y0044960D01*
X0242000Y0043361D02*
X0241600Y0043361D01*
X0242000Y0042600D02*
X0249600Y0042600D01*
X0249600Y0042422D01*
X0249482Y0041676D01*
X0249248Y0040957D01*
X0248905Y0040284D01*
X0248461Y0039673D01*
X0247927Y0039139D01*
X0247316Y0038695D01*
X0246643Y0038352D01*
X0245924Y0038118D01*
X0245178Y0038000D01*
X0242000Y0038000D01*
X0242000Y0042600D01*
X0242000Y0041763D02*
X0241600Y0041763D01*
X0241600Y0040164D02*
X0242000Y0040164D01*
X0242000Y0038566D02*
X0241600Y0038566D01*
X0242000Y0037600D02*
X0242000Y0033000D01*
X0249600Y0033000D01*
X0249600Y0033178D01*
X0249482Y0033924D01*
X0249248Y0034643D01*
X0248905Y0035316D01*
X0248461Y0035927D01*
X0247927Y0036461D01*
X0247316Y0036905D01*
X0246643Y0037248D01*
X0245924Y0037482D01*
X0245178Y0037600D01*
X0242000Y0037600D01*
X0242000Y0036967D02*
X0241600Y0036967D01*
X0241600Y0035369D02*
X0242000Y0035369D01*
X0242000Y0033770D02*
X0241600Y0033770D01*
X0242000Y0032600D02*
X0249600Y0032600D01*
X0249600Y0032422D01*
X0249482Y0031676D01*
X0249248Y0030957D01*
X0248905Y0030284D01*
X0248461Y0029673D01*
X0247927Y0029139D01*
X0247316Y0028695D01*
X0246643Y0028352D01*
X0245924Y0028118D01*
X0245178Y0028000D01*
X0242000Y0028000D01*
X0242000Y0032600D01*
X0242000Y0032172D02*
X0241600Y0032172D01*
X0241600Y0030573D02*
X0242000Y0030573D01*
X0242000Y0028975D02*
X0241600Y0028975D01*
X0242000Y0027600D02*
X0242000Y0023000D01*
X0249600Y0023000D01*
X0249600Y0023178D01*
X0249482Y0023924D01*
X0249248Y0024643D01*
X0248905Y0025316D01*
X0248461Y0025927D01*
X0247927Y0026461D01*
X0247316Y0026905D01*
X0246643Y0027248D01*
X0245924Y0027482D01*
X0245178Y0027600D01*
X0242000Y0027600D01*
X0242000Y0027376D02*
X0241600Y0027376D01*
X0241600Y0025778D02*
X0242000Y0025778D01*
X0242000Y0024179D02*
X0241600Y0024179D01*
X0241600Y0022581D02*
X0242000Y0022581D01*
X0242000Y0022600D02*
X0242000Y0018000D01*
X0245178Y0018000D01*
X0245924Y0018118D01*
X0246643Y0018352D01*
X0247316Y0018695D01*
X0247927Y0019139D01*
X0248461Y0019673D01*
X0248905Y0020284D01*
X0249248Y0020957D01*
X0249482Y0021676D01*
X0249600Y0022422D01*
X0249600Y0022600D01*
X0242000Y0022600D01*
X0242000Y0020982D02*
X0241600Y0020982D01*
X0241600Y0019384D02*
X0242000Y0019384D01*
X0248172Y0019384D02*
X0256374Y0019384D01*
X0256374Y0020982D02*
X0249256Y0020982D01*
X0249600Y0022581D02*
X0256374Y0022581D01*
X0256374Y0024179D02*
X0249399Y0024179D01*
X0248570Y0025778D02*
X0256374Y0025778D01*
X0256374Y0027376D02*
X0246249Y0027376D01*
X0247701Y0028975D02*
X0256374Y0028975D01*
X0256374Y0030573D02*
X0249053Y0030573D01*
X0249560Y0032172D02*
X0256374Y0032172D01*
X0256374Y0033770D02*
X0249506Y0033770D01*
X0248867Y0035369D02*
X0256374Y0035369D01*
X0256374Y0036967D02*
X0247194Y0036967D01*
X0247063Y0038566D02*
X0256374Y0038566D01*
X0256374Y0040164D02*
X0248818Y0040164D01*
X0249496Y0041763D02*
X0256374Y0041763D01*
X0256374Y0043361D02*
X0249571Y0043361D01*
X0249087Y0044960D02*
X0256374Y0044960D01*
X0256374Y0046558D02*
X0247793Y0046558D01*
X0256374Y0011391D02*
X0005100Y0011391D01*
X0005100Y0009793D02*
X0256374Y0009793D01*
X0256374Y0008194D02*
X0005100Y0008194D01*
X0005100Y0006596D02*
X0256374Y0006596D01*
X0163154Y0026406D02*
X0151406Y0026406D01*
X0151406Y0027394D01*
X0156168Y0030573D02*
X0158107Y0030573D01*
X0157965Y0022581D02*
X0155840Y0022581D01*
X0082619Y0018509D02*
X0082619Y0013559D01*
X0082619Y0018509D01*
X0082619Y0018509D01*
X0082619Y0017785D02*
X0082619Y0017785D01*
X0082619Y0016187D02*
X0082619Y0016187D01*
X0082619Y0014588D02*
X0082619Y0014588D01*
X0078092Y0020982D02*
X0063531Y0020982D01*
X0062599Y0022581D02*
X0079691Y0022581D01*
X0079100Y0024179D02*
X0060742Y0024179D01*
X0053538Y0024179D02*
X0051988Y0024179D01*
X0051988Y0022581D02*
X0053538Y0022581D01*
X0053538Y0020982D02*
X0051988Y0020982D01*
X0051988Y0019384D02*
X0053538Y0019384D01*
X0053538Y0016187D02*
X0051988Y0016187D01*
X0051988Y0014588D02*
X0053538Y0014588D01*
X0053538Y0012990D02*
X0051988Y0012990D01*
X0068478Y0025778D02*
X0077743Y0025778D01*
X0077081Y0027376D02*
X0070076Y0027376D01*
X0070834Y0028975D02*
X0077069Y0028975D01*
X0077467Y0030573D02*
X0071324Y0030573D01*
X0071324Y0032172D02*
X0078433Y0032172D01*
X0080819Y0033770D02*
X0071324Y0033770D01*
D25*
X0078800Y0091800D03*
X0051800Y0099800D03*
X0089800Y0123800D03*
X0066800Y0154800D03*
X0088800Y0164800D03*
X0086800Y0184800D03*
X0106800Y0185800D03*
X0110800Y0164800D03*
X0058800Y0221800D03*
X0066800Y0231800D03*
X0080800Y0225800D03*
D26*
X0078800Y0091800D02*
X0098800Y0071800D01*
X0098800Y0038375D01*
X0102509Y0034666D01*
M02*
