G75*
%MOIN*%
%OFA0B0*%
%FSLAX25Y25*%
%IPPOS*%
%LPD*%
%AMOC8*
5,1,8,0,0,1.08239X$1,22.5*
%
%ADD10C,0.00000*%
%ADD11C,0.01600*%
%ADD12C,0.00400*%
%ADD13C,0.00500*%
%ADD14C,0.00300*%
%ADD15C,0.00600*%
%ADD16C,0.00800*%
%ADD17C,0.00700*%
%ADD18R,0.01280X0.01673*%
%ADD19R,0.01378X0.01378*%
%ADD20C,0.00200*%
D10*
X0001000Y0001000D02*
X0117142Y0001000D01*
X0117142Y0260843D01*
X0001000Y0260843D01*
X0001000Y0001000D01*
X0030100Y0036000D02*
X0030102Y0036160D01*
X0030108Y0036319D01*
X0030118Y0036478D01*
X0030132Y0036637D01*
X0030150Y0036796D01*
X0030171Y0036954D01*
X0030197Y0037111D01*
X0030227Y0037268D01*
X0030260Y0037424D01*
X0030298Y0037579D01*
X0030339Y0037733D01*
X0030384Y0037886D01*
X0030433Y0038038D01*
X0030486Y0038189D01*
X0030542Y0038338D01*
X0030603Y0038486D01*
X0030666Y0038632D01*
X0030734Y0038777D01*
X0030805Y0038920D01*
X0030879Y0039061D01*
X0030957Y0039200D01*
X0031039Y0039337D01*
X0031124Y0039472D01*
X0031212Y0039605D01*
X0031304Y0039736D01*
X0031398Y0039864D01*
X0031496Y0039990D01*
X0031597Y0040114D01*
X0031701Y0040235D01*
X0031808Y0040353D01*
X0031918Y0040469D01*
X0032031Y0040582D01*
X0032147Y0040692D01*
X0032265Y0040799D01*
X0032386Y0040903D01*
X0032510Y0041004D01*
X0032636Y0041102D01*
X0032764Y0041196D01*
X0032895Y0041288D01*
X0033028Y0041376D01*
X0033163Y0041461D01*
X0033300Y0041543D01*
X0033439Y0041621D01*
X0033580Y0041695D01*
X0033723Y0041766D01*
X0033868Y0041834D01*
X0034014Y0041897D01*
X0034162Y0041958D01*
X0034311Y0042014D01*
X0034462Y0042067D01*
X0034614Y0042116D01*
X0034767Y0042161D01*
X0034921Y0042202D01*
X0035076Y0042240D01*
X0035232Y0042273D01*
X0035389Y0042303D01*
X0035546Y0042329D01*
X0035704Y0042350D01*
X0035863Y0042368D01*
X0036022Y0042382D01*
X0036181Y0042392D01*
X0036340Y0042398D01*
X0036500Y0042400D01*
X0036660Y0042398D01*
X0036819Y0042392D01*
X0036978Y0042382D01*
X0037137Y0042368D01*
X0037296Y0042350D01*
X0037454Y0042329D01*
X0037611Y0042303D01*
X0037768Y0042273D01*
X0037924Y0042240D01*
X0038079Y0042202D01*
X0038233Y0042161D01*
X0038386Y0042116D01*
X0038538Y0042067D01*
X0038689Y0042014D01*
X0038838Y0041958D01*
X0038986Y0041897D01*
X0039132Y0041834D01*
X0039277Y0041766D01*
X0039420Y0041695D01*
X0039561Y0041621D01*
X0039700Y0041543D01*
X0039837Y0041461D01*
X0039972Y0041376D01*
X0040105Y0041288D01*
X0040236Y0041196D01*
X0040364Y0041102D01*
X0040490Y0041004D01*
X0040614Y0040903D01*
X0040735Y0040799D01*
X0040853Y0040692D01*
X0040969Y0040582D01*
X0041082Y0040469D01*
X0041192Y0040353D01*
X0041299Y0040235D01*
X0041403Y0040114D01*
X0041504Y0039990D01*
X0041602Y0039864D01*
X0041696Y0039736D01*
X0041788Y0039605D01*
X0041876Y0039472D01*
X0041961Y0039337D01*
X0042043Y0039200D01*
X0042121Y0039061D01*
X0042195Y0038920D01*
X0042266Y0038777D01*
X0042334Y0038632D01*
X0042397Y0038486D01*
X0042458Y0038338D01*
X0042514Y0038189D01*
X0042567Y0038038D01*
X0042616Y0037886D01*
X0042661Y0037733D01*
X0042702Y0037579D01*
X0042740Y0037424D01*
X0042773Y0037268D01*
X0042803Y0037111D01*
X0042829Y0036954D01*
X0042850Y0036796D01*
X0042868Y0036637D01*
X0042882Y0036478D01*
X0042892Y0036319D01*
X0042898Y0036160D01*
X0042900Y0036000D01*
X0042898Y0035840D01*
X0042892Y0035681D01*
X0042882Y0035522D01*
X0042868Y0035363D01*
X0042850Y0035204D01*
X0042829Y0035046D01*
X0042803Y0034889D01*
X0042773Y0034732D01*
X0042740Y0034576D01*
X0042702Y0034421D01*
X0042661Y0034267D01*
X0042616Y0034114D01*
X0042567Y0033962D01*
X0042514Y0033811D01*
X0042458Y0033662D01*
X0042397Y0033514D01*
X0042334Y0033368D01*
X0042266Y0033223D01*
X0042195Y0033080D01*
X0042121Y0032939D01*
X0042043Y0032800D01*
X0041961Y0032663D01*
X0041876Y0032528D01*
X0041788Y0032395D01*
X0041696Y0032264D01*
X0041602Y0032136D01*
X0041504Y0032010D01*
X0041403Y0031886D01*
X0041299Y0031765D01*
X0041192Y0031647D01*
X0041082Y0031531D01*
X0040969Y0031418D01*
X0040853Y0031308D01*
X0040735Y0031201D01*
X0040614Y0031097D01*
X0040490Y0030996D01*
X0040364Y0030898D01*
X0040236Y0030804D01*
X0040105Y0030712D01*
X0039972Y0030624D01*
X0039837Y0030539D01*
X0039700Y0030457D01*
X0039561Y0030379D01*
X0039420Y0030305D01*
X0039277Y0030234D01*
X0039132Y0030166D01*
X0038986Y0030103D01*
X0038838Y0030042D01*
X0038689Y0029986D01*
X0038538Y0029933D01*
X0038386Y0029884D01*
X0038233Y0029839D01*
X0038079Y0029798D01*
X0037924Y0029760D01*
X0037768Y0029727D01*
X0037611Y0029697D01*
X0037454Y0029671D01*
X0037296Y0029650D01*
X0037137Y0029632D01*
X0036978Y0029618D01*
X0036819Y0029608D01*
X0036660Y0029602D01*
X0036500Y0029600D01*
X0036340Y0029602D01*
X0036181Y0029608D01*
X0036022Y0029618D01*
X0035863Y0029632D01*
X0035704Y0029650D01*
X0035546Y0029671D01*
X0035389Y0029697D01*
X0035232Y0029727D01*
X0035076Y0029760D01*
X0034921Y0029798D01*
X0034767Y0029839D01*
X0034614Y0029884D01*
X0034462Y0029933D01*
X0034311Y0029986D01*
X0034162Y0030042D01*
X0034014Y0030103D01*
X0033868Y0030166D01*
X0033723Y0030234D01*
X0033580Y0030305D01*
X0033439Y0030379D01*
X0033300Y0030457D01*
X0033163Y0030539D01*
X0033028Y0030624D01*
X0032895Y0030712D01*
X0032764Y0030804D01*
X0032636Y0030898D01*
X0032510Y0030996D01*
X0032386Y0031097D01*
X0032265Y0031201D01*
X0032147Y0031308D01*
X0032031Y0031418D01*
X0031918Y0031531D01*
X0031808Y0031647D01*
X0031701Y0031765D01*
X0031597Y0031886D01*
X0031496Y0032010D01*
X0031398Y0032136D01*
X0031304Y0032264D01*
X0031212Y0032395D01*
X0031124Y0032528D01*
X0031039Y0032663D01*
X0030957Y0032800D01*
X0030879Y0032939D01*
X0030805Y0033080D01*
X0030734Y0033223D01*
X0030666Y0033368D01*
X0030603Y0033514D01*
X0030542Y0033662D01*
X0030486Y0033811D01*
X0030433Y0033962D01*
X0030384Y0034114D01*
X0030339Y0034267D01*
X0030298Y0034421D01*
X0030260Y0034576D01*
X0030227Y0034732D01*
X0030197Y0034889D01*
X0030171Y0035046D01*
X0030150Y0035204D01*
X0030132Y0035363D01*
X0030118Y0035522D01*
X0030108Y0035681D01*
X0030102Y0035840D01*
X0030100Y0036000D01*
X0075100Y0036000D02*
X0075102Y0036160D01*
X0075108Y0036319D01*
X0075118Y0036478D01*
X0075132Y0036637D01*
X0075150Y0036796D01*
X0075171Y0036954D01*
X0075197Y0037111D01*
X0075227Y0037268D01*
X0075260Y0037424D01*
X0075298Y0037579D01*
X0075339Y0037733D01*
X0075384Y0037886D01*
X0075433Y0038038D01*
X0075486Y0038189D01*
X0075542Y0038338D01*
X0075603Y0038486D01*
X0075666Y0038632D01*
X0075734Y0038777D01*
X0075805Y0038920D01*
X0075879Y0039061D01*
X0075957Y0039200D01*
X0076039Y0039337D01*
X0076124Y0039472D01*
X0076212Y0039605D01*
X0076304Y0039736D01*
X0076398Y0039864D01*
X0076496Y0039990D01*
X0076597Y0040114D01*
X0076701Y0040235D01*
X0076808Y0040353D01*
X0076918Y0040469D01*
X0077031Y0040582D01*
X0077147Y0040692D01*
X0077265Y0040799D01*
X0077386Y0040903D01*
X0077510Y0041004D01*
X0077636Y0041102D01*
X0077764Y0041196D01*
X0077895Y0041288D01*
X0078028Y0041376D01*
X0078163Y0041461D01*
X0078300Y0041543D01*
X0078439Y0041621D01*
X0078580Y0041695D01*
X0078723Y0041766D01*
X0078868Y0041834D01*
X0079014Y0041897D01*
X0079162Y0041958D01*
X0079311Y0042014D01*
X0079462Y0042067D01*
X0079614Y0042116D01*
X0079767Y0042161D01*
X0079921Y0042202D01*
X0080076Y0042240D01*
X0080232Y0042273D01*
X0080389Y0042303D01*
X0080546Y0042329D01*
X0080704Y0042350D01*
X0080863Y0042368D01*
X0081022Y0042382D01*
X0081181Y0042392D01*
X0081340Y0042398D01*
X0081500Y0042400D01*
X0081660Y0042398D01*
X0081819Y0042392D01*
X0081978Y0042382D01*
X0082137Y0042368D01*
X0082296Y0042350D01*
X0082454Y0042329D01*
X0082611Y0042303D01*
X0082768Y0042273D01*
X0082924Y0042240D01*
X0083079Y0042202D01*
X0083233Y0042161D01*
X0083386Y0042116D01*
X0083538Y0042067D01*
X0083689Y0042014D01*
X0083838Y0041958D01*
X0083986Y0041897D01*
X0084132Y0041834D01*
X0084277Y0041766D01*
X0084420Y0041695D01*
X0084561Y0041621D01*
X0084700Y0041543D01*
X0084837Y0041461D01*
X0084972Y0041376D01*
X0085105Y0041288D01*
X0085236Y0041196D01*
X0085364Y0041102D01*
X0085490Y0041004D01*
X0085614Y0040903D01*
X0085735Y0040799D01*
X0085853Y0040692D01*
X0085969Y0040582D01*
X0086082Y0040469D01*
X0086192Y0040353D01*
X0086299Y0040235D01*
X0086403Y0040114D01*
X0086504Y0039990D01*
X0086602Y0039864D01*
X0086696Y0039736D01*
X0086788Y0039605D01*
X0086876Y0039472D01*
X0086961Y0039337D01*
X0087043Y0039200D01*
X0087121Y0039061D01*
X0087195Y0038920D01*
X0087266Y0038777D01*
X0087334Y0038632D01*
X0087397Y0038486D01*
X0087458Y0038338D01*
X0087514Y0038189D01*
X0087567Y0038038D01*
X0087616Y0037886D01*
X0087661Y0037733D01*
X0087702Y0037579D01*
X0087740Y0037424D01*
X0087773Y0037268D01*
X0087803Y0037111D01*
X0087829Y0036954D01*
X0087850Y0036796D01*
X0087868Y0036637D01*
X0087882Y0036478D01*
X0087892Y0036319D01*
X0087898Y0036160D01*
X0087900Y0036000D01*
X0087898Y0035840D01*
X0087892Y0035681D01*
X0087882Y0035522D01*
X0087868Y0035363D01*
X0087850Y0035204D01*
X0087829Y0035046D01*
X0087803Y0034889D01*
X0087773Y0034732D01*
X0087740Y0034576D01*
X0087702Y0034421D01*
X0087661Y0034267D01*
X0087616Y0034114D01*
X0087567Y0033962D01*
X0087514Y0033811D01*
X0087458Y0033662D01*
X0087397Y0033514D01*
X0087334Y0033368D01*
X0087266Y0033223D01*
X0087195Y0033080D01*
X0087121Y0032939D01*
X0087043Y0032800D01*
X0086961Y0032663D01*
X0086876Y0032528D01*
X0086788Y0032395D01*
X0086696Y0032264D01*
X0086602Y0032136D01*
X0086504Y0032010D01*
X0086403Y0031886D01*
X0086299Y0031765D01*
X0086192Y0031647D01*
X0086082Y0031531D01*
X0085969Y0031418D01*
X0085853Y0031308D01*
X0085735Y0031201D01*
X0085614Y0031097D01*
X0085490Y0030996D01*
X0085364Y0030898D01*
X0085236Y0030804D01*
X0085105Y0030712D01*
X0084972Y0030624D01*
X0084837Y0030539D01*
X0084700Y0030457D01*
X0084561Y0030379D01*
X0084420Y0030305D01*
X0084277Y0030234D01*
X0084132Y0030166D01*
X0083986Y0030103D01*
X0083838Y0030042D01*
X0083689Y0029986D01*
X0083538Y0029933D01*
X0083386Y0029884D01*
X0083233Y0029839D01*
X0083079Y0029798D01*
X0082924Y0029760D01*
X0082768Y0029727D01*
X0082611Y0029697D01*
X0082454Y0029671D01*
X0082296Y0029650D01*
X0082137Y0029632D01*
X0081978Y0029618D01*
X0081819Y0029608D01*
X0081660Y0029602D01*
X0081500Y0029600D01*
X0081340Y0029602D01*
X0081181Y0029608D01*
X0081022Y0029618D01*
X0080863Y0029632D01*
X0080704Y0029650D01*
X0080546Y0029671D01*
X0080389Y0029697D01*
X0080232Y0029727D01*
X0080076Y0029760D01*
X0079921Y0029798D01*
X0079767Y0029839D01*
X0079614Y0029884D01*
X0079462Y0029933D01*
X0079311Y0029986D01*
X0079162Y0030042D01*
X0079014Y0030103D01*
X0078868Y0030166D01*
X0078723Y0030234D01*
X0078580Y0030305D01*
X0078439Y0030379D01*
X0078300Y0030457D01*
X0078163Y0030539D01*
X0078028Y0030624D01*
X0077895Y0030712D01*
X0077764Y0030804D01*
X0077636Y0030898D01*
X0077510Y0030996D01*
X0077386Y0031097D01*
X0077265Y0031201D01*
X0077147Y0031308D01*
X0077031Y0031418D01*
X0076918Y0031531D01*
X0076808Y0031647D01*
X0076701Y0031765D01*
X0076597Y0031886D01*
X0076496Y0032010D01*
X0076398Y0032136D01*
X0076304Y0032264D01*
X0076212Y0032395D01*
X0076124Y0032528D01*
X0076039Y0032663D01*
X0075957Y0032800D01*
X0075879Y0032939D01*
X0075805Y0033080D01*
X0075734Y0033223D01*
X0075666Y0033368D01*
X0075603Y0033514D01*
X0075542Y0033662D01*
X0075486Y0033811D01*
X0075433Y0033962D01*
X0075384Y0034114D01*
X0075339Y0034267D01*
X0075298Y0034421D01*
X0075260Y0034576D01*
X0075227Y0034732D01*
X0075197Y0034889D01*
X0075171Y0035046D01*
X0075150Y0035204D01*
X0075132Y0035363D01*
X0075118Y0035522D01*
X0075108Y0035681D01*
X0075102Y0035840D01*
X0075100Y0036000D01*
D11*
X0051000Y0096000D02*
X0026000Y0096000D01*
X0026000Y0136000D01*
X0051000Y0136000D01*
X0051000Y0096000D01*
X0051000Y0151000D02*
X0026000Y0151000D01*
X0026000Y0189000D01*
X0051000Y0189000D01*
X0051000Y0151000D01*
X0051000Y0226000D02*
X0086000Y0226000D01*
X0086000Y0251000D01*
X0051000Y0251000D01*
X0051000Y0226000D01*
X0002969Y0258874D02*
X0002969Y0081709D01*
X0013780Y0081709D01*
X0013780Y0002969D01*
X0104362Y0002969D01*
X0104362Y0081709D01*
X0115173Y0081709D01*
X0115173Y0258874D01*
X0002969Y0258874D01*
D12*
X0034196Y0247665D02*
X0037265Y0247665D01*
X0038800Y0246131D01*
X0037265Y0244596D01*
X0034196Y0244596D01*
X0034196Y0243061D02*
X0034196Y0239992D01*
X0036498Y0239992D01*
X0035731Y0241527D01*
X0035731Y0242294D01*
X0036498Y0243061D01*
X0038033Y0243061D01*
X0038800Y0242294D01*
X0038800Y0240759D01*
X0038033Y0239992D01*
X0035731Y0233854D02*
X0035731Y0233086D01*
X0037265Y0231552D01*
X0035731Y0231552D02*
X0038800Y0231552D01*
X0037265Y0230017D02*
X0037265Y0226948D01*
X0036498Y0226948D02*
X0035731Y0227715D01*
X0035731Y0229250D01*
X0036498Y0230017D01*
X0037265Y0230017D01*
X0038800Y0229250D02*
X0038800Y0227715D01*
X0038033Y0226948D01*
X0036498Y0226948D01*
X0035731Y0225413D02*
X0038033Y0225413D01*
X0038800Y0224646D01*
X0038033Y0223878D01*
X0038800Y0223111D01*
X0038033Y0222344D01*
X0035731Y0222344D01*
X0036498Y0220809D02*
X0035731Y0220042D01*
X0035731Y0218507D01*
X0036498Y0217740D01*
X0038033Y0217740D01*
X0038800Y0218507D01*
X0038800Y0220042D01*
X0038033Y0220809D01*
X0036498Y0220809D01*
X0036498Y0216205D02*
X0034963Y0216205D01*
X0034196Y0215438D01*
X0034196Y0213136D01*
X0038800Y0213136D01*
X0037265Y0213136D02*
X0037265Y0215438D01*
X0036498Y0216205D01*
X0080196Y0214126D02*
X0080196Y0212591D01*
X0080963Y0211824D01*
X0080196Y0214126D02*
X0080963Y0214893D01*
X0081731Y0214893D01*
X0084800Y0211824D01*
X0084800Y0214893D01*
X0089196Y0215779D02*
X0089963Y0215012D01*
X0089196Y0215779D02*
X0089196Y0217314D01*
X0089963Y0218081D01*
X0090731Y0218081D01*
X0093800Y0215012D01*
X0093800Y0218081D01*
X0093033Y0213477D02*
X0089963Y0213477D01*
X0089196Y0212710D01*
X0089196Y0210408D01*
X0093800Y0210408D01*
X0093800Y0212710D01*
X0093033Y0213477D01*
X0093800Y0208873D02*
X0093800Y0205804D01*
X0089196Y0205804D01*
X0089196Y0208873D01*
X0091498Y0207339D02*
X0091498Y0205804D01*
X0093800Y0204269D02*
X0093800Y0201200D01*
X0089196Y0201200D01*
X0086335Y0204150D02*
X0086335Y0204918D01*
X0085567Y0205685D01*
X0081731Y0205685D01*
X0081731Y0203383D01*
X0082498Y0202616D01*
X0084033Y0202616D01*
X0084800Y0203383D01*
X0084800Y0205685D01*
X0084800Y0201081D02*
X0081731Y0201081D01*
X0081731Y0198012D02*
X0084033Y0198012D01*
X0084800Y0198779D01*
X0084800Y0201081D01*
X0084033Y0196477D02*
X0082498Y0196477D01*
X0081731Y0195710D01*
X0081731Y0193408D01*
X0082498Y0191873D02*
X0083265Y0191873D01*
X0083265Y0188804D01*
X0082498Y0188804D02*
X0081731Y0189571D01*
X0081731Y0191106D01*
X0082498Y0191873D01*
X0082498Y0188804D02*
X0084033Y0188804D01*
X0084800Y0189571D01*
X0084800Y0191106D01*
X0084800Y0193408D02*
X0084800Y0195710D01*
X0084033Y0196477D01*
X0084800Y0193408D02*
X0080196Y0193408D01*
X0080963Y0187269D02*
X0080196Y0186502D01*
X0080196Y0184200D01*
X0084800Y0184200D01*
X0084800Y0186502D01*
X0084033Y0187269D01*
X0080963Y0187269D01*
X0083800Y0172893D02*
X0083800Y0169824D01*
X0083800Y0171358D02*
X0079196Y0171358D01*
X0080731Y0169824D01*
X0080731Y0163685D02*
X0080731Y0161383D01*
X0081498Y0160616D01*
X0083033Y0160616D01*
X0083800Y0161383D01*
X0083800Y0163685D01*
X0084567Y0163685D02*
X0080731Y0163685D01*
X0080731Y0159081D02*
X0083800Y0159081D01*
X0083800Y0156779D01*
X0083033Y0156012D01*
X0080731Y0156012D01*
X0081498Y0154477D02*
X0080731Y0153710D01*
X0080731Y0151408D01*
X0079196Y0151408D02*
X0083800Y0151408D01*
X0083800Y0153710D01*
X0083033Y0154477D01*
X0081498Y0154477D01*
X0081498Y0149873D02*
X0082265Y0149873D01*
X0082265Y0146804D01*
X0081498Y0146804D02*
X0080731Y0147571D01*
X0080731Y0149106D01*
X0081498Y0149873D01*
X0081498Y0146804D02*
X0083033Y0146804D01*
X0083800Y0147571D01*
X0083800Y0149106D01*
X0083033Y0145269D02*
X0079963Y0145269D01*
X0079196Y0144502D01*
X0079196Y0142200D01*
X0083800Y0142200D01*
X0083800Y0144502D01*
X0083033Y0145269D01*
X0084265Y0136635D02*
X0081196Y0136635D01*
X0081196Y0133566D02*
X0084265Y0133566D01*
X0085800Y0135101D01*
X0084265Y0136635D01*
X0084265Y0132031D02*
X0083498Y0131264D01*
X0083498Y0130497D01*
X0083498Y0131264D02*
X0082731Y0132031D01*
X0081963Y0132031D01*
X0081196Y0131264D01*
X0081196Y0129729D01*
X0081963Y0128962D01*
X0085033Y0128962D02*
X0085800Y0129729D01*
X0085800Y0131264D01*
X0085033Y0132031D01*
X0084265Y0132031D01*
X0085033Y0127427D02*
X0085800Y0127427D01*
X0085800Y0126660D01*
X0085033Y0126660D01*
X0085033Y0127427D01*
X0085033Y0125126D02*
X0085800Y0124358D01*
X0085800Y0122824D01*
X0085033Y0122056D01*
X0083498Y0123591D02*
X0083498Y0124358D01*
X0084265Y0125126D01*
X0085033Y0125126D01*
X0083498Y0124358D02*
X0082731Y0125126D01*
X0081963Y0125126D01*
X0081196Y0124358D01*
X0081196Y0122824D01*
X0081963Y0122056D01*
X0082731Y0115918D02*
X0082731Y0115150D01*
X0084265Y0113616D01*
X0082731Y0113616D02*
X0085800Y0113616D01*
X0084265Y0112081D02*
X0084265Y0109012D01*
X0083498Y0109012D02*
X0085033Y0109012D01*
X0085800Y0109779D01*
X0085800Y0111314D01*
X0084265Y0112081D02*
X0083498Y0112081D01*
X0082731Y0111314D01*
X0082731Y0109779D01*
X0083498Y0109012D01*
X0082731Y0107477D02*
X0085033Y0107477D01*
X0085800Y0106710D01*
X0085033Y0105942D01*
X0085800Y0105175D01*
X0085033Y0104408D01*
X0082731Y0104408D01*
X0083498Y0102873D02*
X0082731Y0102106D01*
X0082731Y0100571D01*
X0083498Y0099804D01*
X0085033Y0099804D01*
X0085800Y0100571D01*
X0085800Y0102106D01*
X0085033Y0102873D01*
X0083498Y0102873D01*
X0083498Y0098269D02*
X0081963Y0098269D01*
X0081196Y0097502D01*
X0081196Y0095200D01*
X0085800Y0095200D01*
X0084265Y0095200D02*
X0084265Y0097502D01*
X0083498Y0098269D01*
X0089196Y0110200D02*
X0093800Y0110200D01*
X0093800Y0113269D01*
X0093800Y0114804D02*
X0093800Y0117873D01*
X0093800Y0119408D02*
X0093800Y0121710D01*
X0093033Y0122477D01*
X0089963Y0122477D01*
X0089196Y0121710D01*
X0089196Y0119408D01*
X0093800Y0119408D01*
X0091498Y0116339D02*
X0091498Y0114804D01*
X0089196Y0114804D02*
X0089196Y0117873D01*
X0089196Y0114804D02*
X0093800Y0114804D01*
X0091498Y0124012D02*
X0091498Y0127081D01*
X0089196Y0126314D02*
X0091498Y0124012D01*
X0093800Y0126314D02*
X0089196Y0126314D01*
X0089963Y0131784D02*
X0089196Y0132552D01*
X0089196Y0134086D01*
X0089963Y0134854D01*
X0090731Y0134854D01*
X0093800Y0131784D01*
X0093800Y0134854D01*
X0093800Y0136388D02*
X0093033Y0136388D01*
X0089963Y0139457D01*
X0089196Y0139457D01*
X0089196Y0136388D01*
X0089963Y0140992D02*
X0089196Y0141759D01*
X0089196Y0143294D01*
X0089963Y0144061D01*
X0093033Y0140992D01*
X0093800Y0141759D01*
X0093800Y0143294D01*
X0093033Y0144061D01*
X0089963Y0144061D01*
X0089196Y0145596D02*
X0089196Y0147898D01*
X0089963Y0148665D01*
X0091498Y0148665D01*
X0092265Y0147898D01*
X0092265Y0145596D01*
X0092265Y0147131D02*
X0093800Y0148665D01*
X0093800Y0145596D02*
X0089196Y0145596D01*
X0089963Y0140992D02*
X0093033Y0140992D01*
X0093800Y0155200D02*
X0089196Y0155200D01*
X0089196Y0159804D02*
X0093800Y0159804D01*
X0093800Y0162873D01*
X0093800Y0164408D02*
X0093800Y0166710D01*
X0093033Y0167477D01*
X0089963Y0167477D01*
X0089196Y0166710D01*
X0089196Y0164408D01*
X0093800Y0164408D01*
X0091498Y0161339D02*
X0091498Y0159804D01*
X0089196Y0159804D02*
X0089196Y0162873D01*
X0090731Y0169012D02*
X0089196Y0170546D01*
X0093800Y0170546D01*
X0093800Y0169012D02*
X0093800Y0172081D01*
X0093800Y0174784D02*
X0090731Y0177854D01*
X0089963Y0177854D01*
X0089196Y0177086D01*
X0089196Y0175552D01*
X0089963Y0174784D01*
X0089963Y0179388D02*
X0089196Y0180155D01*
X0089196Y0181690D01*
X0089963Y0182457D01*
X0093033Y0179388D01*
X0093800Y0180155D01*
X0093800Y0181690D01*
X0093033Y0182457D01*
X0089963Y0182457D01*
X0089963Y0183992D02*
X0089196Y0184759D01*
X0089196Y0186294D01*
X0089963Y0187061D01*
X0093033Y0183992D01*
X0093800Y0184759D01*
X0093800Y0186294D01*
X0093033Y0187061D01*
X0089963Y0187061D01*
X0089196Y0188596D02*
X0089196Y0190898D01*
X0089963Y0191665D01*
X0091498Y0191665D01*
X0092265Y0190898D01*
X0092265Y0188596D01*
X0092265Y0190131D02*
X0093800Y0191665D01*
X0093800Y0188596D02*
X0089196Y0188596D01*
X0089963Y0183992D02*
X0093033Y0183992D01*
X0093033Y0179388D02*
X0089963Y0179388D01*
X0093800Y0177854D02*
X0093800Y0174784D01*
X0093800Y0158269D02*
X0093800Y0155200D01*
X0085335Y0162150D02*
X0085335Y0162918D01*
X0084567Y0163685D01*
X0090963Y0104665D02*
X0092498Y0104665D01*
X0093265Y0103898D01*
X0093265Y0101596D01*
X0093265Y0103131D02*
X0094800Y0104665D01*
X0094800Y0101596D02*
X0090196Y0101596D01*
X0090196Y0103898D01*
X0090963Y0104665D01*
X0090196Y0098527D02*
X0094800Y0098527D01*
X0094800Y0100061D02*
X0094800Y0096992D01*
X0094033Y0095457D02*
X0090963Y0095457D01*
X0090196Y0094690D01*
X0090196Y0093156D01*
X0090963Y0092388D01*
X0091731Y0092388D01*
X0092498Y0093156D01*
X0092498Y0095457D01*
X0094033Y0095457D02*
X0094800Y0094690D01*
X0094800Y0093156D01*
X0094033Y0092388D01*
X0091731Y0096992D02*
X0090196Y0098527D01*
X0091110Y0012804D02*
X0090343Y0012037D01*
X0090343Y0011269D01*
X0091110Y0010502D01*
X0092645Y0010502D01*
X0093412Y0009735D01*
X0093412Y0008967D01*
X0092645Y0008200D01*
X0091110Y0008200D01*
X0090343Y0008967D01*
X0088809Y0010502D02*
X0085739Y0010502D01*
X0084205Y0008200D02*
X0081135Y0008200D01*
X0079601Y0008200D02*
X0076531Y0008200D01*
X0079601Y0011269D01*
X0079601Y0012037D01*
X0078833Y0012804D01*
X0077299Y0012804D01*
X0076531Y0012037D01*
X0074997Y0012037D02*
X0074229Y0012804D01*
X0072695Y0012804D01*
X0071927Y0012037D01*
X0071927Y0008967D01*
X0072695Y0008200D01*
X0074229Y0008200D01*
X0074997Y0008967D01*
X0070393Y0008200D02*
X0067324Y0008200D01*
X0067324Y0012804D01*
X0065789Y0012037D02*
X0065789Y0011269D01*
X0065022Y0010502D01*
X0063487Y0010502D01*
X0062720Y0011269D01*
X0062720Y0012037D01*
X0063487Y0012804D01*
X0065022Y0012804D01*
X0065789Y0012037D01*
X0065022Y0010502D02*
X0065789Y0009735D01*
X0065789Y0008967D01*
X0065022Y0008200D01*
X0063487Y0008200D01*
X0062720Y0008967D01*
X0062720Y0009735D01*
X0063487Y0010502D01*
X0061185Y0010502D02*
X0058116Y0010502D01*
X0056581Y0010502D02*
X0056581Y0008967D01*
X0055814Y0008200D01*
X0054279Y0008200D01*
X0053512Y0008967D01*
X0053512Y0010502D02*
X0055046Y0011269D01*
X0055814Y0011269D01*
X0056581Y0010502D01*
X0056581Y0012804D02*
X0053512Y0012804D01*
X0053512Y0010502D01*
X0051977Y0010502D02*
X0048908Y0010502D01*
X0051210Y0012804D01*
X0051210Y0008200D01*
X0047373Y0012804D02*
X0045839Y0012804D01*
X0046606Y0012804D02*
X0046606Y0008967D01*
X0045839Y0008200D01*
X0045071Y0008200D01*
X0044304Y0008967D01*
X0042769Y0008200D02*
X0041235Y0009735D01*
X0042002Y0009735D02*
X0039700Y0009735D01*
X0039700Y0008200D02*
X0039700Y0012804D01*
X0042002Y0012804D01*
X0042769Y0012037D01*
X0042769Y0010502D01*
X0042002Y0009735D01*
X0081135Y0011269D02*
X0082670Y0012804D01*
X0082670Y0008200D01*
X0091110Y0012804D02*
X0092645Y0012804D01*
X0093412Y0012037D01*
D13*
X0075213Y0094661D02*
X0024031Y0094661D01*
X0024031Y0137969D01*
X0075213Y0137969D01*
X0075213Y0094661D01*
X0075213Y0149661D02*
X0024031Y0149661D01*
X0024031Y0192969D01*
X0075213Y0192969D01*
X0075213Y0149661D01*
X0074322Y0199750D02*
X0071319Y0199750D01*
X0074322Y0202753D01*
X0074322Y0203503D01*
X0073571Y0204254D01*
X0072070Y0204254D01*
X0071319Y0203503D01*
X0069751Y0204254D02*
X0068250Y0204254D01*
X0069001Y0204254D02*
X0069001Y0199750D01*
X0069751Y0199750D02*
X0068250Y0199750D01*
X0069502Y0205750D02*
X0069502Y0210254D01*
X0067250Y0208002D01*
X0070253Y0208002D01*
X0075923Y0203503D02*
X0075923Y0200501D01*
X0076674Y0199750D01*
X0078175Y0199750D01*
X0078926Y0200501D01*
X0078926Y0203503D02*
X0078175Y0204254D01*
X0076674Y0204254D01*
X0075923Y0203503D01*
X0086848Y0236040D02*
X0088433Y0236040D01*
X0088750Y0236357D01*
X0088750Y0236991D01*
X0088433Y0237308D01*
X0086848Y0237308D01*
X0087482Y0238250D02*
X0086848Y0238884D01*
X0088750Y0238884D01*
X0088750Y0238250D02*
X0088750Y0239518D01*
X0107248Y0239355D02*
X0107248Y0240306D01*
X0107565Y0240623D01*
X0107882Y0240623D01*
X0108199Y0240306D01*
X0108199Y0239355D01*
X0109150Y0239355D02*
X0107248Y0239355D01*
X0107565Y0238413D02*
X0107248Y0238096D01*
X0107248Y0237462D01*
X0107565Y0237145D01*
X0107882Y0237145D01*
X0108199Y0237462D01*
X0108199Y0238096D01*
X0108516Y0238413D01*
X0108833Y0238413D01*
X0109150Y0238096D01*
X0109150Y0237462D01*
X0108833Y0237145D01*
X0108516Y0237145D01*
X0108199Y0237462D01*
X0108199Y0238096D02*
X0107882Y0238413D01*
X0107565Y0238413D01*
X0109150Y0239355D02*
X0109150Y0240306D01*
X0108833Y0240623D01*
X0108516Y0240623D01*
X0108199Y0240306D01*
X0107565Y0241565D02*
X0107248Y0241882D01*
X0107248Y0242516D01*
X0107565Y0242833D01*
X0107882Y0242833D01*
X0109150Y0241565D01*
X0109150Y0242833D01*
X0108833Y0243775D02*
X0107565Y0245042D01*
X0108833Y0245042D01*
X0109150Y0244725D01*
X0109150Y0244092D01*
X0108833Y0243775D01*
X0107565Y0243775D01*
X0107248Y0244092D01*
X0107248Y0244725D01*
X0107565Y0245042D01*
X0109150Y0236203D02*
X0109150Y0234935D01*
X0109150Y0235569D02*
X0107248Y0235569D01*
X0107882Y0234935D01*
X0107565Y0233993D02*
X0107248Y0233676D01*
X0107248Y0233042D01*
X0107565Y0232725D01*
X0107882Y0232725D01*
X0108199Y0233042D01*
X0108199Y0233676D01*
X0108516Y0233993D01*
X0108833Y0233993D01*
X0109150Y0233676D01*
X0109150Y0233042D01*
X0108833Y0232725D01*
X0108833Y0231783D02*
X0107565Y0231783D01*
X0107248Y0231466D01*
X0107248Y0230515D01*
X0109150Y0230515D01*
X0109150Y0231466D01*
X0108833Y0231783D01*
X0028929Y0161000D02*
X0028931Y0161174D01*
X0028938Y0161347D01*
X0028948Y0161520D01*
X0028963Y0161693D01*
X0028982Y0161866D01*
X0029006Y0162038D01*
X0029033Y0162209D01*
X0029065Y0162379D01*
X0029101Y0162549D01*
X0029141Y0162718D01*
X0029185Y0162886D01*
X0029233Y0163053D01*
X0029286Y0163218D01*
X0029342Y0163382D01*
X0029403Y0163545D01*
X0029467Y0163706D01*
X0029536Y0163865D01*
X0029608Y0164023D01*
X0029684Y0164179D01*
X0029764Y0164333D01*
X0029848Y0164485D01*
X0029935Y0164635D01*
X0030026Y0164783D01*
X0030121Y0164928D01*
X0030219Y0165072D01*
X0030321Y0165212D01*
X0030426Y0165350D01*
X0030534Y0165486D01*
X0030646Y0165619D01*
X0030761Y0165749D01*
X0030879Y0165876D01*
X0031000Y0166000D01*
X0031124Y0166121D01*
X0031251Y0166239D01*
X0031381Y0166354D01*
X0031514Y0166466D01*
X0031650Y0166574D01*
X0031788Y0166679D01*
X0031928Y0166781D01*
X0032072Y0166879D01*
X0032217Y0166974D01*
X0032365Y0167065D01*
X0032515Y0167152D01*
X0032667Y0167236D01*
X0032821Y0167316D01*
X0032977Y0167392D01*
X0033135Y0167464D01*
X0033294Y0167533D01*
X0033455Y0167597D01*
X0033618Y0167658D01*
X0033782Y0167714D01*
X0033947Y0167767D01*
X0034114Y0167815D01*
X0034282Y0167859D01*
X0034451Y0167899D01*
X0034621Y0167935D01*
X0034791Y0167967D01*
X0034962Y0167994D01*
X0035134Y0168018D01*
X0035307Y0168037D01*
X0035480Y0168052D01*
X0035653Y0168062D01*
X0035826Y0168069D01*
X0036000Y0168071D01*
X0036174Y0168069D01*
X0036347Y0168062D01*
X0036520Y0168052D01*
X0036693Y0168037D01*
X0036866Y0168018D01*
X0037038Y0167994D01*
X0037209Y0167967D01*
X0037379Y0167935D01*
X0037549Y0167899D01*
X0037718Y0167859D01*
X0037886Y0167815D01*
X0038053Y0167767D01*
X0038218Y0167714D01*
X0038382Y0167658D01*
X0038545Y0167597D01*
X0038706Y0167533D01*
X0038865Y0167464D01*
X0039023Y0167392D01*
X0039179Y0167316D01*
X0039333Y0167236D01*
X0039485Y0167152D01*
X0039635Y0167065D01*
X0039783Y0166974D01*
X0039928Y0166879D01*
X0040072Y0166781D01*
X0040212Y0166679D01*
X0040350Y0166574D01*
X0040486Y0166466D01*
X0040619Y0166354D01*
X0040749Y0166239D01*
X0040876Y0166121D01*
X0041000Y0166000D01*
X0041121Y0165876D01*
X0041239Y0165749D01*
X0041354Y0165619D01*
X0041466Y0165486D01*
X0041574Y0165350D01*
X0041679Y0165212D01*
X0041781Y0165072D01*
X0041879Y0164928D01*
X0041974Y0164783D01*
X0042065Y0164635D01*
X0042152Y0164485D01*
X0042236Y0164333D01*
X0042316Y0164179D01*
X0042392Y0164023D01*
X0042464Y0163865D01*
X0042533Y0163706D01*
X0042597Y0163545D01*
X0042658Y0163382D01*
X0042714Y0163218D01*
X0042767Y0163053D01*
X0042815Y0162886D01*
X0042859Y0162718D01*
X0042899Y0162549D01*
X0042935Y0162379D01*
X0042967Y0162209D01*
X0042994Y0162038D01*
X0043018Y0161866D01*
X0043037Y0161693D01*
X0043052Y0161520D01*
X0043062Y0161347D01*
X0043069Y0161174D01*
X0043071Y0161000D01*
X0043069Y0160826D01*
X0043062Y0160653D01*
X0043052Y0160480D01*
X0043037Y0160307D01*
X0043018Y0160134D01*
X0042994Y0159962D01*
X0042967Y0159791D01*
X0042935Y0159621D01*
X0042899Y0159451D01*
X0042859Y0159282D01*
X0042815Y0159114D01*
X0042767Y0158947D01*
X0042714Y0158782D01*
X0042658Y0158618D01*
X0042597Y0158455D01*
X0042533Y0158294D01*
X0042464Y0158135D01*
X0042392Y0157977D01*
X0042316Y0157821D01*
X0042236Y0157667D01*
X0042152Y0157515D01*
X0042065Y0157365D01*
X0041974Y0157217D01*
X0041879Y0157072D01*
X0041781Y0156928D01*
X0041679Y0156788D01*
X0041574Y0156650D01*
X0041466Y0156514D01*
X0041354Y0156381D01*
X0041239Y0156251D01*
X0041121Y0156124D01*
X0041000Y0156000D01*
X0040876Y0155879D01*
X0040749Y0155761D01*
X0040619Y0155646D01*
X0040486Y0155534D01*
X0040350Y0155426D01*
X0040212Y0155321D01*
X0040072Y0155219D01*
X0039928Y0155121D01*
X0039783Y0155026D01*
X0039635Y0154935D01*
X0039485Y0154848D01*
X0039333Y0154764D01*
X0039179Y0154684D01*
X0039023Y0154608D01*
X0038865Y0154536D01*
X0038706Y0154467D01*
X0038545Y0154403D01*
X0038382Y0154342D01*
X0038218Y0154286D01*
X0038053Y0154233D01*
X0037886Y0154185D01*
X0037718Y0154141D01*
X0037549Y0154101D01*
X0037379Y0154065D01*
X0037209Y0154033D01*
X0037038Y0154006D01*
X0036866Y0153982D01*
X0036693Y0153963D01*
X0036520Y0153948D01*
X0036347Y0153938D01*
X0036174Y0153931D01*
X0036000Y0153929D01*
X0035826Y0153931D01*
X0035653Y0153938D01*
X0035480Y0153948D01*
X0035307Y0153963D01*
X0035134Y0153982D01*
X0034962Y0154006D01*
X0034791Y0154033D01*
X0034621Y0154065D01*
X0034451Y0154101D01*
X0034282Y0154141D01*
X0034114Y0154185D01*
X0033947Y0154233D01*
X0033782Y0154286D01*
X0033618Y0154342D01*
X0033455Y0154403D01*
X0033294Y0154467D01*
X0033135Y0154536D01*
X0032977Y0154608D01*
X0032821Y0154684D01*
X0032667Y0154764D01*
X0032515Y0154848D01*
X0032365Y0154935D01*
X0032217Y0155026D01*
X0032072Y0155121D01*
X0031928Y0155219D01*
X0031788Y0155321D01*
X0031650Y0155426D01*
X0031514Y0155534D01*
X0031381Y0155646D01*
X0031251Y0155761D01*
X0031124Y0155879D01*
X0031000Y0156000D01*
X0030879Y0156124D01*
X0030761Y0156251D01*
X0030646Y0156381D01*
X0030534Y0156514D01*
X0030426Y0156650D01*
X0030321Y0156788D01*
X0030219Y0156928D01*
X0030121Y0157072D01*
X0030026Y0157217D01*
X0029935Y0157365D01*
X0029848Y0157515D01*
X0029764Y0157667D01*
X0029684Y0157821D01*
X0029608Y0157977D01*
X0029536Y0158135D01*
X0029467Y0158294D01*
X0029403Y0158455D01*
X0029342Y0158618D01*
X0029286Y0158782D01*
X0029233Y0158947D01*
X0029185Y0159114D01*
X0029141Y0159282D01*
X0029101Y0159451D01*
X0029065Y0159621D01*
X0029033Y0159791D01*
X0029006Y0159962D01*
X0028982Y0160134D01*
X0028963Y0160307D01*
X0028948Y0160480D01*
X0028938Y0160653D01*
X0028931Y0160826D01*
X0028929Y0161000D01*
X0018750Y0163748D02*
X0015080Y0165583D01*
X0015080Y0161913D02*
X0018750Y0163748D01*
X0017833Y0154533D02*
X0015998Y0154533D01*
X0015080Y0153616D01*
X0015080Y0151781D01*
X0015998Y0150863D01*
X0017833Y0150863D01*
X0018750Y0151781D01*
X0018750Y0153616D01*
X0017833Y0154533D01*
X0016915Y0149009D02*
X0015998Y0149009D01*
X0015080Y0148091D01*
X0015080Y0146256D01*
X0015998Y0145339D01*
X0017833Y0145339D01*
X0018750Y0146256D01*
X0018750Y0148091D01*
X0016915Y0149009D02*
X0016915Y0145339D01*
X0018750Y0143490D02*
X0017833Y0142573D01*
X0014163Y0142573D01*
X0015080Y0141656D02*
X0015080Y0143490D01*
X0015998Y0139801D02*
X0015080Y0138883D01*
X0015080Y0137048D01*
X0015998Y0136131D01*
X0017833Y0136131D01*
X0018750Y0137048D01*
X0018750Y0138883D01*
X0016915Y0139801D02*
X0016915Y0136131D01*
X0018750Y0134276D02*
X0013245Y0134276D01*
X0015080Y0132441D01*
X0013245Y0130606D01*
X0018750Y0130606D01*
X0017833Y0123227D02*
X0015998Y0123227D01*
X0015080Y0122309D01*
X0015080Y0120474D01*
X0015998Y0119557D01*
X0017833Y0119557D01*
X0018750Y0120474D01*
X0018750Y0122309D01*
X0017833Y0123227D01*
X0018750Y0117708D02*
X0018750Y0115874D01*
X0018750Y0116791D02*
X0015080Y0116791D01*
X0015080Y0115874D01*
X0015080Y0114019D02*
X0015080Y0111266D01*
X0015998Y0110349D01*
X0017833Y0110349D01*
X0018750Y0111266D01*
X0018750Y0114019D01*
X0018750Y0108494D02*
X0015998Y0108494D01*
X0015080Y0107577D01*
X0015080Y0105742D01*
X0015998Y0104824D01*
X0015080Y0102969D02*
X0015080Y0100217D01*
X0015998Y0099299D01*
X0017833Y0099299D01*
X0018750Y0100217D01*
X0018750Y0102969D01*
X0018750Y0104824D02*
X0013245Y0104824D01*
X0015998Y0097445D02*
X0018750Y0097445D01*
X0018750Y0094692D01*
X0017833Y0093775D01*
X0016915Y0094692D01*
X0016915Y0097445D01*
X0015998Y0097445D02*
X0015080Y0096527D01*
X0015080Y0094692D01*
X0013245Y0091920D02*
X0018750Y0091920D01*
X0016915Y0090085D01*
X0018750Y0088250D01*
X0013245Y0088250D01*
X0013245Y0116791D02*
X0012328Y0116791D01*
X0015998Y0139801D02*
X0016915Y0139801D01*
X0015080Y0172962D02*
X0013245Y0174797D01*
X0018750Y0174797D01*
X0018750Y0172962D02*
X0018750Y0176632D01*
X0018750Y0178487D02*
X0018750Y0179404D01*
X0017833Y0179404D01*
X0017833Y0178487D01*
X0018750Y0178487D01*
X0017833Y0181249D02*
X0014163Y0184919D01*
X0017833Y0184919D01*
X0018750Y0184002D01*
X0018750Y0182167D01*
X0017833Y0181249D01*
X0014163Y0181249D01*
X0013245Y0182167D01*
X0013245Y0184002D01*
X0014163Y0184919D01*
X0015998Y0197824D02*
X0015998Y0201493D01*
X0018750Y0208873D02*
X0018750Y0210708D01*
X0018750Y0209790D02*
X0013245Y0209790D01*
X0013245Y0208873D02*
X0013245Y0210708D01*
X0013245Y0212556D02*
X0013245Y0214391D01*
X0013245Y0213474D02*
X0018750Y0213474D01*
X0018750Y0214391D02*
X0018750Y0212556D01*
X0018750Y0216239D02*
X0018750Y0218074D01*
X0018750Y0217157D02*
X0013245Y0217157D01*
X0013245Y0218074D02*
X0013245Y0216239D01*
X0014163Y0225447D02*
X0013245Y0226365D01*
X0013245Y0228199D01*
X0014163Y0229117D01*
X0015080Y0229117D01*
X0018750Y0225447D01*
X0018750Y0229117D01*
X0017833Y0230972D02*
X0014163Y0234642D01*
X0017833Y0234642D01*
X0018750Y0233724D01*
X0018750Y0231889D01*
X0017833Y0230972D01*
X0014163Y0230972D01*
X0013245Y0231889D01*
X0013245Y0233724D01*
X0014163Y0234642D01*
X0015080Y0236497D02*
X0013245Y0238331D01*
X0018750Y0238331D01*
X0018750Y0236497D02*
X0018750Y0240166D01*
X0017833Y0242021D02*
X0016915Y0242021D01*
X0015998Y0242939D01*
X0015998Y0244774D01*
X0016915Y0245691D01*
X0017833Y0245691D01*
X0018750Y0244774D01*
X0018750Y0242939D01*
X0017833Y0242021D01*
X0015998Y0242939D02*
X0015080Y0242021D01*
X0014163Y0242021D01*
X0013245Y0242939D01*
X0013245Y0244774D01*
X0014163Y0245691D01*
X0015080Y0245691D01*
X0015998Y0244774D01*
X0023251Y0210254D02*
X0023251Y0205750D01*
X0021750Y0205750D02*
X0024753Y0205750D01*
X0021750Y0208753D02*
X0023251Y0210254D01*
X0028929Y0106000D02*
X0028931Y0106174D01*
X0028938Y0106347D01*
X0028948Y0106520D01*
X0028963Y0106693D01*
X0028982Y0106866D01*
X0029006Y0107038D01*
X0029033Y0107209D01*
X0029065Y0107379D01*
X0029101Y0107549D01*
X0029141Y0107718D01*
X0029185Y0107886D01*
X0029233Y0108053D01*
X0029286Y0108218D01*
X0029342Y0108382D01*
X0029403Y0108545D01*
X0029467Y0108706D01*
X0029536Y0108865D01*
X0029608Y0109023D01*
X0029684Y0109179D01*
X0029764Y0109333D01*
X0029848Y0109485D01*
X0029935Y0109635D01*
X0030026Y0109783D01*
X0030121Y0109928D01*
X0030219Y0110072D01*
X0030321Y0110212D01*
X0030426Y0110350D01*
X0030534Y0110486D01*
X0030646Y0110619D01*
X0030761Y0110749D01*
X0030879Y0110876D01*
X0031000Y0111000D01*
X0031124Y0111121D01*
X0031251Y0111239D01*
X0031381Y0111354D01*
X0031514Y0111466D01*
X0031650Y0111574D01*
X0031788Y0111679D01*
X0031928Y0111781D01*
X0032072Y0111879D01*
X0032217Y0111974D01*
X0032365Y0112065D01*
X0032515Y0112152D01*
X0032667Y0112236D01*
X0032821Y0112316D01*
X0032977Y0112392D01*
X0033135Y0112464D01*
X0033294Y0112533D01*
X0033455Y0112597D01*
X0033618Y0112658D01*
X0033782Y0112714D01*
X0033947Y0112767D01*
X0034114Y0112815D01*
X0034282Y0112859D01*
X0034451Y0112899D01*
X0034621Y0112935D01*
X0034791Y0112967D01*
X0034962Y0112994D01*
X0035134Y0113018D01*
X0035307Y0113037D01*
X0035480Y0113052D01*
X0035653Y0113062D01*
X0035826Y0113069D01*
X0036000Y0113071D01*
X0036174Y0113069D01*
X0036347Y0113062D01*
X0036520Y0113052D01*
X0036693Y0113037D01*
X0036866Y0113018D01*
X0037038Y0112994D01*
X0037209Y0112967D01*
X0037379Y0112935D01*
X0037549Y0112899D01*
X0037718Y0112859D01*
X0037886Y0112815D01*
X0038053Y0112767D01*
X0038218Y0112714D01*
X0038382Y0112658D01*
X0038545Y0112597D01*
X0038706Y0112533D01*
X0038865Y0112464D01*
X0039023Y0112392D01*
X0039179Y0112316D01*
X0039333Y0112236D01*
X0039485Y0112152D01*
X0039635Y0112065D01*
X0039783Y0111974D01*
X0039928Y0111879D01*
X0040072Y0111781D01*
X0040212Y0111679D01*
X0040350Y0111574D01*
X0040486Y0111466D01*
X0040619Y0111354D01*
X0040749Y0111239D01*
X0040876Y0111121D01*
X0041000Y0111000D01*
X0041121Y0110876D01*
X0041239Y0110749D01*
X0041354Y0110619D01*
X0041466Y0110486D01*
X0041574Y0110350D01*
X0041679Y0110212D01*
X0041781Y0110072D01*
X0041879Y0109928D01*
X0041974Y0109783D01*
X0042065Y0109635D01*
X0042152Y0109485D01*
X0042236Y0109333D01*
X0042316Y0109179D01*
X0042392Y0109023D01*
X0042464Y0108865D01*
X0042533Y0108706D01*
X0042597Y0108545D01*
X0042658Y0108382D01*
X0042714Y0108218D01*
X0042767Y0108053D01*
X0042815Y0107886D01*
X0042859Y0107718D01*
X0042899Y0107549D01*
X0042935Y0107379D01*
X0042967Y0107209D01*
X0042994Y0107038D01*
X0043018Y0106866D01*
X0043037Y0106693D01*
X0043052Y0106520D01*
X0043062Y0106347D01*
X0043069Y0106174D01*
X0043071Y0106000D01*
X0043069Y0105826D01*
X0043062Y0105653D01*
X0043052Y0105480D01*
X0043037Y0105307D01*
X0043018Y0105134D01*
X0042994Y0104962D01*
X0042967Y0104791D01*
X0042935Y0104621D01*
X0042899Y0104451D01*
X0042859Y0104282D01*
X0042815Y0104114D01*
X0042767Y0103947D01*
X0042714Y0103782D01*
X0042658Y0103618D01*
X0042597Y0103455D01*
X0042533Y0103294D01*
X0042464Y0103135D01*
X0042392Y0102977D01*
X0042316Y0102821D01*
X0042236Y0102667D01*
X0042152Y0102515D01*
X0042065Y0102365D01*
X0041974Y0102217D01*
X0041879Y0102072D01*
X0041781Y0101928D01*
X0041679Y0101788D01*
X0041574Y0101650D01*
X0041466Y0101514D01*
X0041354Y0101381D01*
X0041239Y0101251D01*
X0041121Y0101124D01*
X0041000Y0101000D01*
X0040876Y0100879D01*
X0040749Y0100761D01*
X0040619Y0100646D01*
X0040486Y0100534D01*
X0040350Y0100426D01*
X0040212Y0100321D01*
X0040072Y0100219D01*
X0039928Y0100121D01*
X0039783Y0100026D01*
X0039635Y0099935D01*
X0039485Y0099848D01*
X0039333Y0099764D01*
X0039179Y0099684D01*
X0039023Y0099608D01*
X0038865Y0099536D01*
X0038706Y0099467D01*
X0038545Y0099403D01*
X0038382Y0099342D01*
X0038218Y0099286D01*
X0038053Y0099233D01*
X0037886Y0099185D01*
X0037718Y0099141D01*
X0037549Y0099101D01*
X0037379Y0099065D01*
X0037209Y0099033D01*
X0037038Y0099006D01*
X0036866Y0098982D01*
X0036693Y0098963D01*
X0036520Y0098948D01*
X0036347Y0098938D01*
X0036174Y0098931D01*
X0036000Y0098929D01*
X0035826Y0098931D01*
X0035653Y0098938D01*
X0035480Y0098948D01*
X0035307Y0098963D01*
X0035134Y0098982D01*
X0034962Y0099006D01*
X0034791Y0099033D01*
X0034621Y0099065D01*
X0034451Y0099101D01*
X0034282Y0099141D01*
X0034114Y0099185D01*
X0033947Y0099233D01*
X0033782Y0099286D01*
X0033618Y0099342D01*
X0033455Y0099403D01*
X0033294Y0099467D01*
X0033135Y0099536D01*
X0032977Y0099608D01*
X0032821Y0099684D01*
X0032667Y0099764D01*
X0032515Y0099848D01*
X0032365Y0099935D01*
X0032217Y0100026D01*
X0032072Y0100121D01*
X0031928Y0100219D01*
X0031788Y0100321D01*
X0031650Y0100426D01*
X0031514Y0100534D01*
X0031381Y0100646D01*
X0031251Y0100761D01*
X0031124Y0100879D01*
X0031000Y0101000D01*
X0030879Y0101124D01*
X0030761Y0101251D01*
X0030646Y0101381D01*
X0030534Y0101514D01*
X0030426Y0101650D01*
X0030321Y0101788D01*
X0030219Y0101928D01*
X0030121Y0102072D01*
X0030026Y0102217D01*
X0029935Y0102365D01*
X0029848Y0102515D01*
X0029764Y0102667D01*
X0029684Y0102821D01*
X0029608Y0102977D01*
X0029536Y0103135D01*
X0029467Y0103294D01*
X0029403Y0103455D01*
X0029342Y0103618D01*
X0029286Y0103782D01*
X0029233Y0103947D01*
X0029185Y0104114D01*
X0029141Y0104282D01*
X0029101Y0104451D01*
X0029065Y0104621D01*
X0029033Y0104791D01*
X0029006Y0104962D01*
X0028982Y0105134D01*
X0028963Y0105307D01*
X0028948Y0105480D01*
X0028938Y0105653D01*
X0028931Y0105826D01*
X0028929Y0106000D01*
D14*
X0056148Y0105138D02*
X0058083Y0105138D01*
X0059050Y0104171D01*
X0058083Y0103203D01*
X0056148Y0103203D01*
X0056631Y0102192D02*
X0057115Y0102192D01*
X0057599Y0101708D01*
X0058083Y0102192D01*
X0058566Y0102192D01*
X0059050Y0101708D01*
X0059050Y0100741D01*
X0058566Y0100257D01*
X0058566Y0099267D02*
X0059050Y0099267D01*
X0059050Y0098784D01*
X0058566Y0098784D01*
X0058566Y0099267D01*
X0058566Y0097772D02*
X0059050Y0097288D01*
X0059050Y0096321D01*
X0058566Y0095837D01*
X0057599Y0096805D02*
X0057599Y0097288D01*
X0058083Y0097772D01*
X0058566Y0097772D01*
X0057599Y0097288D02*
X0057115Y0097772D01*
X0056631Y0097772D01*
X0056148Y0097288D01*
X0056148Y0096321D01*
X0056631Y0095837D01*
X0056631Y0100257D02*
X0056148Y0100741D01*
X0056148Y0101708D01*
X0056631Y0102192D01*
X0057599Y0101708D02*
X0057599Y0101224D01*
X0061631Y0107310D02*
X0061148Y0107794D01*
X0061148Y0108762D01*
X0061631Y0109245D01*
X0062599Y0109245D02*
X0062599Y0108278D01*
X0062599Y0109245D02*
X0063566Y0109245D01*
X0064050Y0108762D01*
X0064050Y0107794D01*
X0063566Y0107310D01*
X0061631Y0107310D01*
X0061148Y0110257D02*
X0064050Y0112192D01*
X0061148Y0112192D01*
X0061148Y0113203D02*
X0061148Y0114655D01*
X0061631Y0115138D01*
X0063566Y0115138D01*
X0064050Y0114655D01*
X0064050Y0113203D01*
X0061148Y0113203D01*
X0061148Y0110257D02*
X0064050Y0110257D01*
X0058566Y0117310D02*
X0059050Y0117794D01*
X0059050Y0118762D01*
X0058566Y0119245D01*
X0058083Y0119245D01*
X0057599Y0118762D01*
X0057599Y0117794D01*
X0057115Y0117310D01*
X0056631Y0117310D01*
X0056148Y0117794D01*
X0056148Y0118762D01*
X0056631Y0119245D01*
X0056631Y0120257D02*
X0058566Y0120257D01*
X0059050Y0120741D01*
X0059050Y0121708D01*
X0058566Y0122192D01*
X0059050Y0123203D02*
X0059050Y0125138D01*
X0059050Y0123203D02*
X0056148Y0123203D01*
X0056631Y0122192D02*
X0056148Y0121708D01*
X0056148Y0120741D01*
X0056631Y0120257D01*
X0061631Y0127310D02*
X0061148Y0127794D01*
X0061148Y0128762D01*
X0061631Y0129245D01*
X0062599Y0128762D02*
X0063083Y0129245D01*
X0063566Y0129245D01*
X0064050Y0128762D01*
X0064050Y0127794D01*
X0063566Y0127310D01*
X0062599Y0127794D02*
X0062599Y0128762D01*
X0062599Y0127794D02*
X0062115Y0127310D01*
X0061631Y0127310D01*
X0061148Y0130257D02*
X0061148Y0131708D01*
X0061631Y0132192D01*
X0063566Y0132192D01*
X0064050Y0131708D01*
X0064050Y0130257D01*
X0061148Y0130257D01*
X0062115Y0133203D02*
X0061148Y0134171D01*
X0062115Y0135138D01*
X0064050Y0135138D01*
X0064050Y0133203D02*
X0062115Y0133203D01*
X0062599Y0133203D02*
X0062599Y0135138D01*
X0058566Y0150837D02*
X0059050Y0151321D01*
X0059050Y0152288D01*
X0058566Y0152772D01*
X0058083Y0152772D01*
X0057599Y0152288D01*
X0057599Y0151805D01*
X0057599Y0152288D02*
X0057115Y0152772D01*
X0056631Y0152772D01*
X0056148Y0152288D01*
X0056148Y0151321D01*
X0056631Y0150837D01*
X0058566Y0153784D02*
X0058566Y0154267D01*
X0059050Y0154267D01*
X0059050Y0153784D01*
X0058566Y0153784D01*
X0058566Y0155257D02*
X0059050Y0155741D01*
X0059050Y0156708D01*
X0058566Y0157192D01*
X0058083Y0157192D01*
X0057599Y0156708D01*
X0057599Y0156224D01*
X0057599Y0156708D02*
X0057115Y0157192D01*
X0056631Y0157192D01*
X0056148Y0156708D01*
X0056148Y0155741D01*
X0056631Y0155257D01*
X0056148Y0158203D02*
X0058083Y0158203D01*
X0059050Y0159171D01*
X0058083Y0160138D01*
X0056148Y0160138D01*
X0061148Y0162794D02*
X0061631Y0162310D01*
X0063566Y0162310D01*
X0064050Y0162794D01*
X0064050Y0163762D01*
X0063566Y0164245D01*
X0062599Y0164245D01*
X0062599Y0163278D01*
X0061631Y0164245D02*
X0061148Y0163762D01*
X0061148Y0162794D01*
X0061148Y0165257D02*
X0064050Y0167192D01*
X0061148Y0167192D01*
X0061148Y0168203D02*
X0061148Y0169655D01*
X0061631Y0170138D01*
X0063566Y0170138D01*
X0064050Y0169655D01*
X0064050Y0168203D01*
X0061148Y0168203D01*
X0061148Y0165257D02*
X0064050Y0165257D01*
X0058566Y0172310D02*
X0059050Y0172794D01*
X0059050Y0173762D01*
X0058566Y0174245D01*
X0058083Y0174245D01*
X0057599Y0173762D01*
X0057599Y0172794D01*
X0057115Y0172310D01*
X0056631Y0172310D01*
X0056148Y0172794D01*
X0056148Y0173762D01*
X0056631Y0174245D01*
X0056631Y0175257D02*
X0058566Y0175257D01*
X0059050Y0175741D01*
X0059050Y0176708D01*
X0058566Y0177192D01*
X0059050Y0178203D02*
X0059050Y0180138D01*
X0059050Y0178203D02*
X0056148Y0178203D01*
X0056631Y0177192D02*
X0056148Y0176708D01*
X0056148Y0175741D01*
X0056631Y0175257D01*
X0061631Y0182310D02*
X0061148Y0182794D01*
X0061148Y0183762D01*
X0061631Y0184245D01*
X0062599Y0183762D02*
X0063083Y0184245D01*
X0063566Y0184245D01*
X0064050Y0183762D01*
X0064050Y0182794D01*
X0063566Y0182310D01*
X0062599Y0182794D02*
X0062599Y0183762D01*
X0062599Y0182794D02*
X0062115Y0182310D01*
X0061631Y0182310D01*
X0061148Y0185257D02*
X0061148Y0186708D01*
X0061631Y0187192D01*
X0063566Y0187192D01*
X0064050Y0186708D01*
X0064050Y0185257D01*
X0061148Y0185257D01*
X0062115Y0188203D02*
X0061148Y0189171D01*
X0062115Y0190138D01*
X0064050Y0190138D01*
X0064050Y0188203D02*
X0062115Y0188203D01*
X0062599Y0188203D02*
X0062599Y0190138D01*
X0062548Y0195150D02*
X0063031Y0195634D01*
X0062548Y0195150D02*
X0061580Y0195150D01*
X0061097Y0195634D01*
X0061097Y0197569D01*
X0061580Y0198052D01*
X0062548Y0198052D01*
X0063031Y0197569D01*
X0064043Y0197569D02*
X0064043Y0195634D01*
X0064527Y0195150D01*
X0065494Y0195150D01*
X0065978Y0195634D01*
X0065978Y0197569D02*
X0065494Y0198052D01*
X0064527Y0198052D01*
X0064043Y0197569D01*
X0060085Y0198052D02*
X0060085Y0196117D01*
X0059117Y0195150D01*
X0058150Y0196117D01*
X0058150Y0198052D01*
X0055978Y0197569D02*
X0055978Y0195634D01*
X0055494Y0195150D01*
X0054043Y0195150D01*
X0054043Y0198052D01*
X0055494Y0198052D01*
X0055978Y0197569D01*
X0053031Y0198052D02*
X0053031Y0195150D01*
X0051097Y0198052D01*
X0051097Y0195150D01*
X0050085Y0195634D02*
X0050085Y0196601D01*
X0049117Y0196601D01*
X0048150Y0195634D02*
X0048634Y0195150D01*
X0049601Y0195150D01*
X0050085Y0195634D01*
X0050085Y0197569D02*
X0049601Y0198052D01*
X0048634Y0198052D01*
X0048150Y0197569D01*
X0048150Y0195634D01*
X0045978Y0195150D02*
X0045978Y0197085D01*
X0045011Y0198052D01*
X0044043Y0197085D01*
X0044043Y0195150D01*
X0043031Y0195634D02*
X0043031Y0197569D01*
X0042548Y0198052D01*
X0041097Y0198052D01*
X0041097Y0195150D01*
X0042548Y0195150D01*
X0043031Y0195634D01*
X0044043Y0196601D02*
X0045978Y0196601D01*
X0040085Y0196117D02*
X0040085Y0195634D01*
X0039601Y0195150D01*
X0038634Y0195150D01*
X0038150Y0195634D01*
X0038634Y0196601D02*
X0039601Y0196601D01*
X0040085Y0196117D01*
X0040085Y0197569D02*
X0039601Y0198052D01*
X0038634Y0198052D01*
X0038150Y0197569D01*
X0038150Y0197085D01*
X0038634Y0196601D01*
X0034978Y0195150D02*
X0033043Y0195150D01*
X0033043Y0198052D01*
X0032031Y0197569D02*
X0031548Y0198052D01*
X0030580Y0198052D01*
X0030097Y0197569D01*
X0030097Y0195634D01*
X0030580Y0195150D01*
X0031548Y0195150D01*
X0032031Y0195634D01*
X0029085Y0195634D02*
X0028601Y0195150D01*
X0027634Y0195150D01*
X0027150Y0195634D01*
X0027634Y0196601D02*
X0027150Y0197085D01*
X0027150Y0197569D01*
X0027634Y0198052D01*
X0028601Y0198052D01*
X0029085Y0197569D01*
X0028601Y0196601D02*
X0029085Y0196117D01*
X0029085Y0195634D01*
X0028601Y0196601D02*
X0027634Y0196601D01*
X0027764Y0215417D02*
X0027147Y0216035D01*
X0027147Y0217269D01*
X0027764Y0217886D01*
X0028381Y0217886D01*
X0028998Y0217269D01*
X0029616Y0217886D01*
X0030233Y0217886D01*
X0030850Y0217269D01*
X0030850Y0216035D01*
X0030233Y0215417D01*
X0028998Y0216652D02*
X0028998Y0217269D01*
X0027764Y0219101D02*
X0027147Y0219718D01*
X0027147Y0220952D01*
X0027764Y0221569D01*
X0030233Y0219101D01*
X0030850Y0219718D01*
X0030850Y0220952D01*
X0030233Y0221569D01*
X0027764Y0221569D01*
X0027764Y0222784D02*
X0027147Y0223401D01*
X0027147Y0224635D01*
X0027764Y0225252D01*
X0030233Y0222784D01*
X0030850Y0223401D01*
X0030850Y0224635D01*
X0030233Y0225252D01*
X0027764Y0225252D01*
X0027147Y0226467D02*
X0027147Y0228318D01*
X0027764Y0228936D01*
X0028998Y0228936D01*
X0029616Y0228318D01*
X0029616Y0226467D01*
X0030850Y0226467D02*
X0027147Y0226467D01*
X0025850Y0226318D02*
X0025850Y0225084D01*
X0025233Y0224467D01*
X0025850Y0223252D02*
X0024616Y0222018D01*
X0024616Y0222635D02*
X0024616Y0220784D01*
X0025850Y0220784D02*
X0022147Y0220784D01*
X0022147Y0222635D01*
X0022764Y0223252D01*
X0023998Y0223252D01*
X0024616Y0222635D01*
X0022764Y0224467D02*
X0022147Y0225084D01*
X0022147Y0226318D01*
X0022764Y0226936D01*
X0023381Y0226936D01*
X0023998Y0226318D01*
X0024616Y0226936D01*
X0025233Y0226936D01*
X0025850Y0226318D01*
X0023998Y0226318D02*
X0023998Y0225701D01*
X0027764Y0222784D02*
X0030233Y0222784D01*
X0029616Y0227701D02*
X0030850Y0228936D01*
X0030233Y0219101D02*
X0027764Y0219101D01*
X0024850Y0241150D02*
X0022381Y0241150D01*
X0022381Y0242384D02*
X0022381Y0243002D01*
X0022381Y0242384D02*
X0023616Y0241150D01*
X0023616Y0244219D02*
X0023616Y0246688D01*
X0022998Y0246688D01*
X0022381Y0246071D01*
X0022381Y0244836D01*
X0022998Y0244219D01*
X0024233Y0244219D01*
X0024850Y0244836D01*
X0024850Y0246071D01*
X0024233Y0247902D02*
X0022998Y0247902D01*
X0022381Y0248520D01*
X0022381Y0250371D01*
X0021147Y0250371D02*
X0024850Y0250371D01*
X0024850Y0248520D01*
X0024233Y0247902D01*
X0106147Y0205450D02*
X0109850Y0205450D01*
X0109850Y0204833D02*
X0109850Y0206068D01*
X0109233Y0207289D02*
X0109850Y0207906D01*
X0109850Y0209757D01*
X0107381Y0209757D01*
X0107998Y0210972D02*
X0107381Y0211589D01*
X0107381Y0212823D01*
X0107998Y0213440D01*
X0108616Y0213440D01*
X0108616Y0210972D01*
X0109233Y0210972D02*
X0107998Y0210972D01*
X0109233Y0210972D02*
X0109850Y0211589D01*
X0109850Y0212823D01*
X0109233Y0207289D02*
X0107381Y0207289D01*
X0106147Y0205450D02*
X0106147Y0204833D01*
X0107381Y0203002D02*
X0107381Y0201150D01*
X0106147Y0201150D02*
X0109850Y0201150D01*
X0109850Y0203002D01*
X0109233Y0203619D01*
X0107998Y0203619D01*
X0107381Y0203002D01*
X0110850Y0188936D02*
X0110850Y0186467D01*
X0110850Y0185252D02*
X0109616Y0184018D01*
X0109616Y0184635D02*
X0109616Y0182784D01*
X0110850Y0182784D02*
X0107147Y0182784D01*
X0107147Y0184635D01*
X0107764Y0185252D01*
X0108998Y0185252D01*
X0109616Y0184635D01*
X0108381Y0186467D02*
X0107147Y0187701D01*
X0110850Y0187701D01*
X0109850Y0173737D02*
X0107998Y0173737D01*
X0107381Y0173120D01*
X0107381Y0171269D01*
X0109850Y0171269D01*
X0108616Y0170054D02*
X0108616Y0167586D01*
X0109233Y0167586D02*
X0107998Y0167586D01*
X0107381Y0168203D01*
X0107381Y0169437D01*
X0107998Y0170054D01*
X0108616Y0170054D01*
X0109850Y0169437D02*
X0109850Y0168203D01*
X0109233Y0167586D01*
X0108616Y0166371D02*
X0108616Y0163902D01*
X0109233Y0163902D02*
X0107998Y0163902D01*
X0107381Y0164520D01*
X0107381Y0165754D01*
X0107998Y0166371D01*
X0108616Y0166371D01*
X0109850Y0165754D02*
X0109850Y0164520D01*
X0109233Y0163902D01*
X0107381Y0162068D02*
X0108616Y0160833D01*
X0109850Y0160833D02*
X0107381Y0160833D01*
X0107381Y0159619D02*
X0107381Y0157767D01*
X0107998Y0157150D01*
X0109233Y0157150D01*
X0109850Y0157767D01*
X0109850Y0159619D01*
X0110467Y0159619D02*
X0107381Y0159619D01*
X0107381Y0162068D02*
X0107381Y0162685D01*
X0110467Y0159619D02*
X0111084Y0159002D01*
X0111084Y0158384D01*
X0110850Y0146936D02*
X0110850Y0144467D01*
X0108381Y0146936D01*
X0107764Y0146936D01*
X0107147Y0146318D01*
X0107147Y0145084D01*
X0107764Y0144467D01*
X0107764Y0143252D02*
X0107147Y0142635D01*
X0107147Y0140784D01*
X0110850Y0140784D01*
X0109616Y0140784D02*
X0109616Y0142635D01*
X0108998Y0143252D01*
X0107764Y0143252D01*
X0109616Y0142018D02*
X0110850Y0143252D01*
X0109233Y0127936D02*
X0107381Y0127936D01*
X0107381Y0125467D02*
X0109233Y0125467D01*
X0109850Y0126084D01*
X0109233Y0126701D01*
X0109850Y0127318D01*
X0109233Y0127936D01*
X0109233Y0124252D02*
X0107998Y0124252D01*
X0107381Y0123635D01*
X0107381Y0122401D01*
X0107998Y0121784D01*
X0109233Y0121784D01*
X0109850Y0122401D01*
X0109850Y0123635D01*
X0109233Y0124252D01*
X0109850Y0120563D02*
X0109850Y0119328D01*
X0109850Y0119945D02*
X0106147Y0119945D01*
X0106147Y0119328D01*
X0106147Y0117490D02*
X0109850Y0117490D01*
X0109850Y0116873D02*
X0109850Y0118107D01*
X0108616Y0115658D02*
X0108616Y0113190D01*
X0109233Y0113190D02*
X0107998Y0113190D01*
X0107381Y0113807D01*
X0107381Y0115041D01*
X0107998Y0115658D01*
X0108616Y0115658D01*
X0109850Y0115041D02*
X0109850Y0113807D01*
X0109233Y0113190D01*
X0109850Y0111975D02*
X0109850Y0110124D01*
X0109233Y0109507D01*
X0107381Y0109507D01*
X0107381Y0111975D02*
X0110467Y0111975D01*
X0111084Y0111358D01*
X0111084Y0110741D01*
X0106147Y0116873D02*
X0106147Y0117490D01*
X0108998Y0098936D02*
X0108998Y0096467D01*
X0107147Y0098318D01*
X0110850Y0098318D01*
X0110850Y0095252D02*
X0109616Y0094018D01*
X0109616Y0094635D02*
X0109616Y0092784D01*
X0110850Y0092784D02*
X0107147Y0092784D01*
X0107147Y0094635D01*
X0107764Y0095252D01*
X0108998Y0095252D01*
X0109616Y0094635D01*
D15*
X0066625Y0019800D02*
X0062354Y0019800D01*
X0064490Y0019800D02*
X0064490Y0026205D01*
X0062354Y0024070D01*
X0060179Y0026205D02*
X0055909Y0019800D01*
X0060179Y0019800D02*
X0055909Y0026205D01*
X0050700Y0103676D02*
X0046296Y0103676D01*
X0046296Y0105878D01*
X0047030Y0106612D01*
X0047764Y0106612D01*
X0048498Y0105878D01*
X0048498Y0103676D01*
X0050700Y0103676D02*
X0050700Y0105878D01*
X0049966Y0106612D01*
X0049232Y0106612D01*
X0048498Y0105878D01*
X0046296Y0108280D02*
X0047764Y0109748D01*
X0046296Y0111216D01*
X0050700Y0111216D01*
X0050700Y0112884D02*
X0046296Y0112884D01*
X0046296Y0115086D01*
X0047030Y0115820D01*
X0048498Y0115820D01*
X0049232Y0115086D01*
X0049232Y0112884D01*
X0047764Y0117488D02*
X0046296Y0118956D01*
X0050700Y0118956D01*
X0050700Y0117488D02*
X0050700Y0120424D01*
X0049966Y0122092D02*
X0049232Y0122092D01*
X0048498Y0122826D01*
X0048498Y0124294D01*
X0049232Y0125028D01*
X0049966Y0125028D01*
X0050700Y0124294D01*
X0050700Y0122826D01*
X0049966Y0122092D01*
X0048498Y0122826D02*
X0047764Y0122092D01*
X0047030Y0122092D01*
X0046296Y0122826D01*
X0046296Y0124294D01*
X0047030Y0125028D01*
X0047764Y0125028D01*
X0048498Y0124294D01*
X0049966Y0126696D02*
X0047030Y0126696D01*
X0046296Y0127430D01*
X0046296Y0128898D01*
X0047030Y0129632D01*
X0049966Y0126696D01*
X0050700Y0127430D01*
X0050700Y0128898D01*
X0049966Y0129632D01*
X0047030Y0129632D01*
X0046296Y0108280D02*
X0050700Y0108280D01*
X0050700Y0151399D02*
X0050700Y0152867D01*
X0050700Y0152133D02*
X0046296Y0152133D01*
X0046296Y0151399D02*
X0046296Y0152867D01*
X0047030Y0154469D02*
X0046296Y0155202D01*
X0046296Y0156670D01*
X0047030Y0157404D01*
X0047764Y0157404D01*
X0050700Y0154469D01*
X0050700Y0157404D01*
X0049966Y0159072D02*
X0050700Y0159806D01*
X0050700Y0161274D01*
X0049966Y0162008D01*
X0049966Y0159072D02*
X0047030Y0159072D01*
X0046296Y0159806D01*
X0046296Y0161274D01*
X0047030Y0162008D01*
X0046296Y0168280D02*
X0046296Y0170482D01*
X0047030Y0171216D01*
X0047764Y0171216D01*
X0048498Y0170482D01*
X0048498Y0168280D01*
X0050700Y0168280D02*
X0046296Y0168280D01*
X0048498Y0170482D02*
X0049232Y0171216D01*
X0049966Y0171216D01*
X0050700Y0170482D01*
X0050700Y0168280D01*
X0049966Y0172884D02*
X0050700Y0173618D01*
X0050700Y0175086D01*
X0049966Y0175820D01*
X0047030Y0175820D01*
X0046296Y0175086D01*
X0046296Y0173618D01*
X0047030Y0172884D01*
X0049966Y0172884D01*
X0050700Y0177488D02*
X0047764Y0177488D01*
X0046296Y0178956D01*
X0047764Y0180424D01*
X0050700Y0180424D01*
X0050700Y0182092D02*
X0046296Y0182092D01*
X0046296Y0184294D01*
X0047030Y0185028D01*
X0048498Y0185028D01*
X0049232Y0184294D01*
X0049232Y0182092D01*
X0049232Y0183560D02*
X0050700Y0185028D01*
X0050700Y0186696D02*
X0050700Y0188898D01*
X0049966Y0189632D01*
X0047030Y0189632D01*
X0046296Y0188898D01*
X0046296Y0186696D01*
X0050700Y0186696D01*
X0048498Y0180424D02*
X0048498Y0177488D01*
X0048500Y0203000D02*
X0046000Y0205500D01*
X0043500Y0203000D01*
X0038500Y0203000D01*
X0036000Y0205500D01*
X0033500Y0203000D01*
X0028500Y0203000D01*
X0026000Y0205500D01*
X0026000Y0210500D01*
X0028500Y0213000D01*
X0033500Y0213000D01*
X0036000Y0210500D01*
X0038500Y0213000D01*
X0043500Y0213000D01*
X0046000Y0210500D01*
X0048500Y0213000D01*
X0053500Y0213000D01*
X0056000Y0210500D01*
X0058500Y0213000D01*
X0063500Y0213000D01*
X0066000Y0210500D01*
X0066000Y0205500D01*
X0063500Y0203000D01*
X0058500Y0203000D01*
X0056000Y0205500D01*
X0053500Y0203000D01*
X0048500Y0203000D01*
D16*
X0089500Y0227754D02*
X0089500Y0248246D01*
X0089618Y0078594D02*
X0028382Y0078594D01*
X0028382Y0063594D02*
X0028382Y0032862D01*
X0028382Y0016094D02*
X0028382Y0005362D01*
X0089618Y0005362D01*
X0089618Y0016094D01*
X0089618Y0032862D02*
X0089618Y0063594D01*
D17*
X0101000Y0228000D02*
X0101244Y0228105D01*
X0101486Y0228215D01*
X0101725Y0228332D01*
X0101960Y0228454D01*
X0102193Y0228582D01*
X0102423Y0228716D01*
X0102649Y0228855D01*
X0102871Y0229000D01*
X0103091Y0229150D01*
X0103306Y0229306D01*
X0103517Y0229467D01*
X0103725Y0229633D01*
X0103928Y0229804D01*
X0104127Y0229980D01*
X0104322Y0230161D01*
X0104512Y0230346D01*
X0104697Y0230536D01*
X0104878Y0230731D01*
X0105054Y0230930D01*
X0105225Y0231133D01*
X0105391Y0231341D01*
X0105552Y0231552D01*
X0105708Y0231767D01*
X0105858Y0231987D01*
X0106003Y0232209D01*
X0106142Y0232435D01*
X0106276Y0232665D01*
X0106404Y0232898D01*
X0106526Y0233133D01*
X0106643Y0233372D01*
X0106753Y0233614D01*
X0106858Y0233858D01*
X0106957Y0234104D01*
X0107049Y0234354D01*
X0107136Y0234605D01*
X0107216Y0234858D01*
X0107290Y0235113D01*
X0107358Y0235370D01*
X0107419Y0235628D01*
X0107474Y0235888D01*
X0107523Y0236150D01*
X0107565Y0236412D01*
X0107601Y0236675D01*
X0107630Y0236939D01*
X0107653Y0237204D01*
X0107669Y0237469D01*
X0107679Y0237734D01*
X0107682Y0238000D01*
X0107679Y0238266D01*
X0107669Y0238531D01*
X0107653Y0238796D01*
X0107630Y0239061D01*
X0107601Y0239325D01*
X0107565Y0239588D01*
X0107523Y0239850D01*
X0107474Y0240112D01*
X0107419Y0240372D01*
X0107358Y0240630D01*
X0107290Y0240887D01*
X0107216Y0241142D01*
X0107136Y0241395D01*
X0107049Y0241646D01*
X0106957Y0241896D01*
X0106858Y0242142D01*
X0106753Y0242386D01*
X0106643Y0242628D01*
X0106526Y0242867D01*
X0106404Y0243102D01*
X0106276Y0243335D01*
X0106142Y0243565D01*
X0106003Y0243791D01*
X0105858Y0244013D01*
X0105708Y0244233D01*
X0105552Y0244448D01*
X0105391Y0244659D01*
X0105225Y0244867D01*
X0105054Y0245070D01*
X0104878Y0245269D01*
X0104697Y0245464D01*
X0104512Y0245654D01*
X0104322Y0245839D01*
X0104127Y0246020D01*
X0103928Y0246196D01*
X0103725Y0246367D01*
X0103517Y0246533D01*
X0103306Y0246694D01*
X0103091Y0246850D01*
X0102871Y0247000D01*
X0102649Y0247145D01*
X0102423Y0247284D01*
X0102193Y0247418D01*
X0101960Y0247546D01*
X0101725Y0247668D01*
X0101486Y0247785D01*
X0101244Y0247895D01*
X0101000Y0248000D01*
D18*
X0098293Y0208215D03*
X0103707Y0208215D03*
X0103707Y0163215D03*
X0098293Y0163215D03*
X0098293Y0118215D03*
X0103707Y0118215D03*
X0018707Y0243215D03*
X0013293Y0243215D03*
D19*
X0016000Y0241689D03*
X0101000Y0206689D03*
X0101000Y0161689D03*
X0101000Y0116689D03*
D20*
X0029900Y0241100D02*
X0029900Y0242968D01*
X0029900Y0243862D02*
X0029900Y0245731D01*
X0029900Y0246625D02*
X0029900Y0248026D01*
X0029433Y0248493D01*
X0027565Y0248493D01*
X0027098Y0248026D01*
X0027098Y0246625D01*
X0029900Y0246625D01*
X0028499Y0244796D02*
X0028499Y0243862D01*
X0027098Y0243862D02*
X0029900Y0243862D01*
X0029900Y0241100D02*
X0027098Y0241100D01*
X0027098Y0243862D02*
X0027098Y0245731D01*
X0027565Y0249387D02*
X0027098Y0249854D01*
X0027098Y0250788D01*
X0027565Y0251255D01*
X0028032Y0251255D01*
X0028499Y0250788D01*
X0028966Y0251255D01*
X0029433Y0251255D01*
X0029900Y0250788D01*
X0029900Y0249854D01*
X0029433Y0249387D01*
X0028499Y0250321D02*
X0028499Y0250788D01*
M02*
